<svg width="130" height="112" viewBox="0 0 130 112" fill="none" xmlns="http://www.w3.org/2000/svg">
<path fill-rule="evenodd" clip-rule="evenodd" d="M77.3013 45.0489C92.3763 59.715 106.376 85.4454 108.805 102.95C109.393 107.195 109.404 111.487 108.825 111.034C108.378 110.684 106.626 105.557 104.976 99.7702C99.9894 82.2769 92.3263 67.6916 81.2898 54.6878C76.3501 48.8674 71.5333 44.4911 63.9706 38.9509C51.5159 29.8268 39.4559 24.2401 26.8312 21.745C21.8908 20.7688 17.5201 20.1879 17.2933 20.4778C17.2299 20.5589 18.9914 23.342 21.2087 26.6623C25.1639 32.5859 26.1403 34.9617 25.1428 36.2366C24.8069 36.666 24.2987 36.5 23.1339 35.5803C21.2388 34.0837 8.37705 17.848 8.11765 16.6252C8.01585 16.1454 8.14721 15.4792 8.40895 15.1446C9.20374 14.1288 21.9103 6.20426 22.9589 6.07086C24.4123 5.88518 24.7802 7.44483 23.6797 9.12912C23.1844 9.88738 21.5607 11.5409 20.0721 12.804C18.5832 14.0669 17.3762 15.1946 17.3897 15.3101C17.4028 15.4253 21.498 16.5867 26.489 17.8911C36.9447 20.6227 45.4751 23.6015 52.554 26.9928C56.8674 29.0593 58.617 30.2056 65.8934 35.7347C70.4998 39.2344 75.6333 43.4259 77.3013 45.0489Z" fill="#5C77F2"/>
</svg>
