<svg width="180" height="100" viewBox="0 0 180 100" fill="none" xmlns="http://www.w3.org/2000/svg">
<path fill-rule="evenodd" clip-rule="evenodd" d="M68.6653 19.4669C67.8705 20.1364 67.7727 23.9801 67.7727 54.5804C67.7727 85.1806 67.8705 89.0244 68.6653 89.6939C69.729 90.5886 71.2608 90.6656 72.2045 89.8713C73.1909 89.0411 73.1909 20.1196 72.2045 19.2895C71.2608 18.4952 69.729 18.5722 68.6653 19.4669ZM78.9943 25.4486C78.0648 25.9044 78 27.8061 78 54.6143V83.2927L79.4182 83.8364C80.5898 84.2859 81.0341 84.2295 81.975 83.5132C83.0898 82.6639 83.1136 82.0575 83.1136 54.5804C83.1136 27.9984 83.0585 26.4734 82.0744 25.7236C80.8818 24.815 80.3784 24.7701 78.9943 25.4486ZM119.335 31.6652C118.411 32.1185 118.341 33.7253 118.341 54.5875C118.341 76.5325 118.366 77.0331 119.477 77.5338C120.285 77.8972 120.943 77.8972 121.75 77.5338C122.861 77.0331 122.886 76.5325 122.886 54.5804C122.886 32.8827 122.85 32.1224 121.787 31.6437C120.48 31.0545 120.583 31.0536 119.335 31.6652ZM58.7449 34.1929C58.2824 34.6621 58.1426 40.4731 58.2494 54.8228C58.3864 73.2487 58.475 74.8406 59.392 75.3274C60.117 75.7124 60.6557 75.7124 61.3807 75.3274C62.2977 74.8406 62.3864 73.2487 62.5233 54.8228C62.6767 34.1743 62.6131 33.5397 60.3864 33.5397C59.8381 33.5397 59.0994 33.8338 58.7449 34.1929ZM89.2216 35.969C88.3023 36.4194 88.2273 37.8244 88.2273 54.5875C88.2273 72.2287 88.258 72.7322 89.3636 73.23C90.171 73.5935 90.829 73.5935 91.6364 73.23C92.742 72.7322 92.7727 72.2287 92.7727 54.5804C92.7727 37.1377 92.7307 36.4237 91.6739 35.9474C90.3659 35.3583 90.4693 35.3573 89.2216 35.969ZM109.108 35.969C108.189 36.4199 108.114 37.8258 108.114 54.6143V72.7724L109.532 73.3161C110.703 73.7656 111.148 73.7092 112.089 72.9929C113.189 72.155 113.227 71.53 113.227 54.5804C113.227 38.1902 113.159 36.9832 112.188 36.2439C110.995 35.3354 110.492 35.2904 109.108 35.969ZM128.588 38.7683C128.219 39.3493 128 45.2331 128 54.5804C128 63.9277 128.219 69.8114 128.588 70.3924C129.245 71.4263 131.388 71.6219 132.432 70.7434C133.408 69.9219 133.408 39.2389 132.432 38.4173C131.388 37.5389 129.245 37.7345 128.588 38.7683ZM48.5682 42.7211C48.0761 43.1352 47.8864 46.4405 47.8864 54.5804C47.8864 66.4296 48.0063 67.0135 50.4432 67.0135C52.8801 67.0135 53 66.4296 53 54.5804C53 42.7311 52.8801 42.1473 50.4432 42.1473C49.7869 42.1473 48.9432 42.4055 48.5682 42.7211ZM98.5682 42.7211C98.0761 43.1352 97.8864 46.4405 97.8864 54.5804C97.8864 66.4296 98.0062 67.0135 100.443 67.0135C102.88 67.0135 103 66.4296 103 54.5804C103 42.7311 102.88 42.1473 100.443 42.1473C99.7869 42.1473 98.9432 42.4055 98.5682 42.7211ZM38.5517 44.8113C37.2239 45.9293 37.2239 63.2314 38.5517 64.3494C39.6153 65.2442 41.1472 65.3211 42.0909 64.5269C43.054 63.7163 43.054 45.4444 42.0909 44.6339C41.1472 43.8396 39.6153 43.9166 38.5517 44.8113ZM138.909 44.6339C137.946 45.4444 137.946 63.7163 138.909 64.5269C139.853 65.3211 141.385 65.2442 142.448 64.3494C143.197 63.7192 143.341 62.1407 143.341 54.5804C143.341 47.0201 143.197 45.4416 142.448 44.8113C141.385 43.9166 139.853 43.8396 138.909 44.6339ZM28.6818 48.9377C28.2369 49.3121 28 51.2837 28 54.6177C28 60.2336 28.4818 61.1589 31.1176 60.6023C32.542 60.301 32.5455 60.2881 32.5455 54.6225C32.5455 49.8859 32.3966 48.8961 31.6466 48.6541C30.2977 48.2184 29.4386 48.3007 28.6818 48.9377ZM149.165 48.6804C148.652 48.8545 148.455 50.5071 148.455 54.611C148.455 60.2886 148.457 60.301 149.882 60.6023C152.518 61.1589 153 60.2336 153 54.6177C153 48.6833 152.309 47.6131 149.165 48.6804Z" fill="#E2E7FF"/>
<path fill-rule="evenodd" clip-rule="evenodd" d="M68.6653 14.7257C67.8705 15.3951 67.7727 19.2389 67.7727 49.8392C67.7727 80.4394 67.8705 84.2832 68.6653 84.9527C69.729 85.8474 71.2608 85.9244 72.2045 85.1301C73.1909 84.2999 73.1909 15.3784 72.2045 14.5483C71.2608 13.754 69.729 13.831 68.6653 14.7257ZM78.9943 20.7074C78.0648 21.1631 78 23.0649 78 49.8731V78.5515L79.4182 79.0952C80.5898 79.5447 81.0341 79.4883 81.975 78.772C83.0898 77.9227 83.1136 77.3163 83.1136 49.8392C83.1136 23.2572 83.0585 21.7322 82.0744 20.9824C80.8818 20.0738 80.3784 20.0289 78.9943 20.7074ZM119.335 26.924C118.411 27.3773 118.341 28.984 118.341 49.8463C118.341 71.7912 118.366 72.2919 119.477 72.7926C120.285 73.156 120.943 73.156 121.75 72.7926C122.861 72.2919 122.886 71.7912 122.886 49.8392C122.886 28.1415 122.85 27.3811 121.787 26.9025C120.48 26.3133 120.583 26.3124 119.335 26.924ZM58.7449 29.4517C58.2824 29.9208 58.1426 35.7319 58.2494 50.0816C58.3864 68.5075 58.475 70.0994 59.392 70.5862C60.117 70.9711 60.6557 70.9711 61.3807 70.5862C62.2977 70.0994 62.3864 68.5075 62.5233 50.0816C62.6767 29.4331 62.6131 28.7985 60.3864 28.7985C59.8381 28.7985 59.0994 29.0926 58.7449 29.4517ZM89.2216 31.2278C88.3023 31.6782 88.2273 33.0832 88.2273 49.8463C88.2273 67.4875 88.258 67.991 89.3636 68.4888C90.171 68.8523 90.829 68.8523 91.6364 68.4888C92.742 67.991 92.7727 67.4875 92.7727 49.8392C92.7727 32.3965 92.7307 31.6825 91.6739 31.2062C90.3659 30.6171 90.4693 30.6161 89.2216 31.2278ZM109.108 31.2278C108.189 31.6787 108.114 33.0846 108.114 49.8731V68.0312L109.532 68.5749C110.703 69.0244 111.148 68.968 112.089 68.2516C113.189 67.4138 113.227 66.7888 113.227 49.8392C113.227 33.449 113.159 32.242 112.188 31.5027C110.995 30.5941 110.492 30.5492 109.108 31.2278ZM128.588 34.0271C128.219 34.6081 128 40.4918 128 49.8392C128 59.1865 128.219 65.0702 128.588 65.6512C129.245 66.6851 131.388 66.8807 132.432 66.0022C133.408 65.1807 133.408 34.4977 132.432 33.6761C131.388 32.7977 129.245 32.9933 128.588 34.0271ZM48.5682 37.9799C48.0761 38.394 47.8864 41.6993 47.8864 49.8392C47.8864 61.6884 48.0063 62.2723 50.4432 62.2723C52.8801 62.2723 53 61.6884 53 49.8392C53 37.9899 52.8801 37.4061 50.4432 37.4061C49.7869 37.4061 48.9432 37.6643 48.5682 37.9799ZM98.5682 37.9799C98.0761 38.394 97.8864 41.6993 97.8864 49.8392C97.8864 61.6884 98.0062 62.2723 100.443 62.2723C102.88 62.2723 103 61.6884 103 49.8392C103 37.9899 102.88 37.4061 100.443 37.4061C99.7869 37.4061 98.9432 37.6643 98.5682 37.9799ZM38.5517 40.0701C37.2239 41.1881 37.2239 58.4902 38.5517 59.6082C39.6153 60.5029 41.1472 60.5799 42.0909 59.7856C43.054 58.9751 43.054 40.7032 42.0909 39.8927C41.1472 39.0984 39.6153 39.1754 38.5517 40.0701ZM138.909 39.8927C137.946 40.7032 137.946 58.9751 138.909 59.7856C139.853 60.5799 141.385 60.5029 142.448 59.6082C143.197 58.978 143.341 57.3994 143.341 49.8392C143.341 42.2789 143.197 40.7003 142.448 40.0701C141.385 39.1754 139.853 39.0984 138.909 39.8927ZM28.6818 44.1964C28.2369 44.5709 28 46.5425 28 49.8765C28 55.4924 28.4818 56.4177 31.1176 55.8611C32.542 55.5598 32.5455 55.5469 32.5455 49.8812C32.5455 45.1447 32.3966 44.1548 31.6466 43.9129C30.2977 43.4772 29.4386 43.5595 28.6818 44.1964ZM149.165 43.9392C148.652 44.1132 148.455 45.7659 148.455 49.8698C148.455 55.5474 148.457 55.5598 149.882 55.8611C152.518 56.4177 153 55.4924 153 49.8765C153 43.942 152.309 42.8718 149.165 43.9392Z" fill="#5C77F2"/>
</svg>
