<svg width="48" height="48" viewBox="0 0 48 48" fill="none" xmlns="http://www.w3.org/2000/svg">
<rect width="48" height="48" rx="4" fill="#6B85FF"/>
<path d="M24.2739 28.3437C23.8444 28.3437 23.4958 27.9952 23.4958 27.5657V23.7705C23.4958 23.341 23.8444 22.9925 24.2739 22.9925C26.324 22.9925 27.9917 21.3251 27.9917 19.275C27.9917 17.2245 26.324 15.5561 24.2739 15.5561C22.2238 15.5561 20.5561 17.2245 20.5561 19.275C20.5561 19.7045 20.2075 20.0531 19.778 20.0531C19.3486 20.0531 19 19.7045 19 19.275C19 16.3664 21.3656 14 24.2739 14C27.1821 14 29.5477 16.3664 29.5477 19.275C29.5477 21.9188 27.5925 24.114 25.0519 24.4913V27.5657C25.0519 27.9952 24.7033 28.3437 24.2739 28.3437Z" fill="#F8FAFF"/>
<path d="M24.2736 34.0003C25.0891 34.0003 25.7503 33.3391 25.7503 32.5236C25.7503 31.708 25.0891 31.0469 24.2736 31.0469C23.458 31.0469 22.7969 31.708 22.7969 32.5236C22.7969 33.3391 23.458 34.0003 24.2736 34.0003Z" fill="#F8FAFF"/>
</svg>
