<svg width="230" height="111" viewBox="0 0 230 111" fill="none" xmlns="http://www.w3.org/2000/svg">
<g clip-path="url(#clip0_1831_56087)">
<path d="M62.9904 113.04H3.28038C2.39803 113.024 1.5578 112.66 0.943223 112.026C0.328645 111.393 -0.0103273 110.542 0.00038276 109.66V35.5199C-0.0129954 34.6357 0.32479 33.7824 0.939653 33.1469C1.55452 32.5114 2.39627 32.1457 3.28038 32.1299H62.9904C63.8745 32.1457 64.7163 32.5114 65.3311 33.1469C65.946 33.7824 66.2837 34.6357 66.2704 35.5199V109.66C66.2811 110.542 65.9421 111.393 65.3276 112.026C64.713 112.66 63.8727 113.024 62.9904 113.04Z" fill="#4763E5"/>
<path opacity="0.3" d="M3.28 113.04H62.99C63.8599 113.04 64.6942 112.695 65.3093 112.079C65.9244 111.464 66.27 110.63 66.27 109.76V70.3501C53.27 113.35 0 103.3 0 103.3V109.76C0 110.63 0.345574 111.464 0.960693 112.079C1.57581 112.695 2.41009 113.04 3.28 113.04Z" fill="#194DC2"/>
<path opacity="0.3" d="M0 35.4099V48.8199C0 48.8199 2.65001 32.1299 19.6 32.1299H3.28C2.41009 32.1299 1.57581 32.4755 0.960693 33.0906C0.345574 33.7057 0 34.54 0 35.4099Z" fill="#194DC2"/>
<path d="M59.4102 107.91C59.1449 107.91 58.8906 107.805 58.7031 107.617C58.5155 107.43 58.4102 107.175 58.4102 106.91V101.22C58.4102 100.955 58.5155 100.701 58.7031 100.513C58.8906 100.326 59.1449 100.22 59.4102 100.22C59.6754 100.22 59.9297 100.326 60.1172 100.513C60.3048 100.701 60.4102 100.955 60.4102 101.22V106.91C60.4102 107.175 60.3048 107.43 60.1172 107.617C59.9297 107.805 59.6754 107.91 59.4102 107.91Z" fill="#FDFDFD"/>
<path d="M144.99 113.04H85.2798C84.4498 113.07 83.6415 112.772 83.0295 112.211C82.4176 111.649 82.0513 110.87 82.0098 110.04V23.0402C82.0513 22.2107 82.4176 21.431 83.0295 20.8696C83.6415 20.3081 84.4498 20.0102 85.2798 20.0402H144.99C145.821 20.0101 146.63 20.3078 147.244 20.869C147.857 21.4301 148.226 22.2099 148.27 23.0402V110.04C148.226 110.87 147.857 111.65 147.244 112.211C146.63 112.773 145.821 113.07 144.99 113.04Z" fill="#3656C9"/>
<path opacity="0.55" d="M85.2798 113.04H144.99C145.86 113.04 146.694 112.695 147.309 112.079C147.924 111.464 148.27 110.63 148.27 109.76V70.3501C135.27 113.35 82.0098 103.3 82.0098 103.3V109.76C82.0085 110.19 82.0921 110.617 82.2558 111.015C82.4196 111.412 82.6602 111.774 82.964 112.079C83.2678 112.384 83.6287 112.625 84.0261 112.79C84.4235 112.955 84.8495 113.04 85.2798 113.04Z" fill="#294DB2"/>
<path opacity="0.55" d="M82.0098 23.1899V36.5999C82.0098 36.5999 84.6598 19.9199 101.6 19.9199H85.2798C84.85 19.9186 84.4242 20.0023 84.0268 20.1662C83.6295 20.33 83.2685 20.5708 82.9646 20.8747C82.6607 21.1787 82.4199 21.5397 82.256 21.937C82.0921 22.3343 82.0085 22.7601 82.0098 23.1899Z" fill="#294DB2"/>
<path d="M141.41 107.91C141.145 107.91 140.891 107.805 140.703 107.617C140.516 107.43 140.41 107.175 140.41 106.91V101.22C140.41 100.955 140.516 100.701 140.703 100.513C140.891 100.326 141.145 100.22 141.41 100.22C141.675 100.22 141.93 100.326 142.117 100.513C142.305 100.701 142.41 100.955 142.41 101.22V106.91C142.41 107.175 142.305 107.43 142.117 107.617C141.93 107.805 141.675 107.91 141.41 107.91Z" fill="#FDFDFD"/>
<path d="M227 113.04H167.29C166.458 113.073 165.647 112.776 165.033 112.214C164.419 111.653 164.051 110.871 164.01 110.04V3.04003C164.051 2.20882 164.419 1.42752 165.033 0.865822C165.647 0.304127 166.458 0.00739162 167.29 0.0400314H227C227.83 0.0100851 228.638 0.308039 229.25 0.869453C229.862 1.43087 230.228 2.21061 230.27 3.04003V110.04C230.231 110.87 229.865 111.652 229.253 112.214C228.64 112.776 227.83 113.073 227 113.04Z" fill="#4763E5"/>
<path opacity="0.3" d="M167.29 113.04H227C227.43 113.04 227.856 112.955 228.253 112.79C228.651 112.625 229.012 112.384 229.316 112.079C229.619 111.774 229.86 111.412 230.024 111.015C230.187 110.617 230.271 110.19 230.27 109.76V70.3501C217.27 113.35 164.01 103.3 164.01 103.3V109.76C164.01 110.63 164.355 111.464 164.97 112.079C165.586 112.695 166.42 113.04 167.29 113.04Z" fill="#194DC2"/>
<path opacity="0.3" d="M164.14 3.28021V16.6602C164.14 16.6602 166.79 -0.0297852 183.74 -0.0297852H167.41C166.977 -0.0284849 166.549 0.0583188 166.151 0.225616C165.752 0.392914 165.39 0.637409 165.086 0.945038C164.782 1.25267 164.542 1.61735 164.38 2.01811C164.217 2.41888 164.136 2.8478 164.14 3.28021Z" fill="#194DC2"/>
<path d="M223.41 107.91C223.145 107.91 222.891 107.805 222.703 107.617C222.516 107.43 222.41 107.175 222.41 106.91V101.22C222.41 100.955 222.516 100.701 222.703 100.513C222.891 100.326 223.145 100.22 223.41 100.22C223.675 100.22 223.93 100.326 224.117 100.513C224.305 100.701 224.41 100.955 224.41 101.22V106.91C224.41 107.175 224.305 107.43 224.117 107.617C223.93 107.805 223.675 107.91 223.41 107.91Z" fill="#FDFDFD"/>
</g>
<defs>
<clipPath id="clip0_1831_56087">
<rect width="230" height="111" fill="white"/>
</clipPath>
</defs>
</svg>
