<svg width="48" height="77" viewBox="0 0 48 77" fill="none" xmlns="http://www.w3.org/2000/svg">
<g clip-path="url(#clip0_10412_57060)">
<path d="M11.4161 73.9617L11.7527 67.6418C11.7527 67.3434 11.309 67.3434 11.2937 67.6418L10.957 73.9617C10.957 74.2524 11.4008 74.2524 11.4161 73.9617Z" fill="#131C32"/>
<path d="M38.1617 73.9617L37.9399 67.6418C37.9399 67.3434 37.4655 67.3434 37.4808 67.6418L37.7027 73.9617C37.7027 74.2524 38.1694 74.2601 38.1617 73.9617Z" fill="#131C32"/>
<path d="M12.8452 55.0625C12.0238 55.3805 11.2389 55.7858 10.5041 56.2714C9.89467 56.6438 9.36742 57.1364 8.95443 57.7191C8.54143 58.3018 8.25133 58.9625 8.10179 59.6609C7.98703 60.3419 7.87227 61.0917 7.7422 61.8645C7.47443 63.5324 7.19136 65.3534 6.93889 66.9832L6.17383 72.1707C7.83202 72.8722 9.53404 73.4651 11.2691 73.9458L11.3763 68.8424C12.8299 65.2999 12.8911 58.1919 12.8452 55.0625Z" fill="#FCCEB6"/>
<path d="M42.3299 66.3472L41.6108 61.3969L41.32 59.4305C40.7244 58.1162 39.8187 56.9662 38.6806 56.0792C38.4205 55.8726 38.1297 55.6661 37.8237 55.4671C37.3364 55.1537 36.8247 54.8799 36.2936 54.6484C36.2324 57.5253 36.2247 65.1307 37.7778 68.8415L37.8849 74.1974C39.7032 73.6265 41.4734 72.9127 43.1791 72.0627L42.3299 66.3472Z" fill="#FCCEB6"/>
<path d="M36.3336 59.8281C36.2418 57.7163 36.2571 55.8035 36.28 54.6482C35.3016 54.2175 34.2737 53.9091 33.2198 53.73C32.5715 53.6231 31.9175 53.5542 31.2612 53.5234L19.0202 53.6306C19.0202 53.6306 18.194 53.6994 17.0005 53.9137C15.9655 54.1049 14.9434 54.3604 13.9402 54.6788C13.5959 54.7936 13.2593 54.9236 12.915 55.0537C12.915 56.0943 12.915 57.571 12.915 59.2083C20.5642 61.2518 28.5871 61.4641 36.3336 59.8281Z" fill="#3793B5"/>
<path d="M37.7032 68.6799C37.1374 67.0658 36.775 65.3874 36.6245 63.6836C28.5454 66.0555 20.2063 67.2108 12.372 64.6553C12.2013 66.086 11.8597 67.4911 11.3545 68.8405V69.0165C19.5483 72.2224 28.9509 71.3884 37.7032 68.6799Z" fill="#3793B5"/>
<path d="M37.7019 68.6836C28.9496 71.3921 19.547 72.2261 11.3455 69.0203L11.2461 73.9477C17.1524 75.6386 27.4195 77.4749 37.8703 74.1772L37.7631 68.8213L37.7019 68.6836Z" fill="#64AD99"/>
<path d="M36.6236 63.6838C36.4782 62.4061 36.3864 61.0824 36.3328 59.8582C28.5525 61.5139 20.4909 61.3041 12.8072 59.2461C12.746 60.9906 12.6159 62.911 12.3711 64.6861C20.2053 67.211 28.5445 66.0557 36.6236 63.6838Z" fill="#64AD99"/>
<path d="M11.8662 29.9188C11.8287 30.8176 11.528 31.6857 11.0014 32.415C10.4747 33.1444 9.7454 33.703 8.90401 34.0213C8.06263 34.3396 7.14627 34.4037 6.26879 34.2055C5.3913 34.0074 4.59137 33.5557 3.96839 32.9067C3.34541 32.2577 2.92683 31.44 2.76466 30.5551C2.60249 29.6702 2.70389 28.7571 3.05624 27.9293C3.40859 27.1016 3.99638 26.3956 4.74656 25.8991C5.49675 25.4026 6.37627 25.1375 7.27584 25.1367C8.51774 25.1648 9.69794 25.6838 10.5582 26.58C11.4185 27.4762 11.8888 28.6766 11.8662 29.9188Z" fill="#F9B28F"/>
<path d="M46.6833 29.8053C46.6443 30.7038 46.3423 31.571 45.8148 32.2993C45.2873 33.0277 44.5576 33.585 43.7161 33.9022C42.8746 34.2193 41.9586 34.2823 41.0816 34.0834C40.2047 33.8844 39.4055 33.4322 38.7832 32.783C38.161 32.1337 37.7432 31.316 37.5816 30.4314C37.42 29.5467 37.5218 28.634 37.8743 27.8067C38.2268 26.9794 38.8145 26.2738 39.5645 25.7776C40.3145 25.2814 41.1937 25.0165 42.0929 25.0156C43.3361 25.0437 44.5175 25.5637 45.378 26.4616C46.2385 27.3594 46.7079 28.5619 46.6833 29.8053Z" fill="#F9B28F"/>
<path d="M18.9893 53.632C18.9893 53.632 20.5882 55.606 24.9261 55.5907C29.264 55.5754 31.2303 53.5249 31.2303 53.5249C30.1444 52.4226 29.2773 51.1245 28.6749 49.6992C26.1129 50.8318 23.3634 51.4803 20.5653 51.612C20.177 52.3819 19.6416 53.0682 18.9893 53.632Z" fill="#FCCEB6"/>
<path d="M21.89 46.5246C21.7696 48.276 21.3206 49.9892 20.5664 51.5745C23.3625 51.4524 26.112 50.8143 28.6761 49.6922C28.2321 48.6431 27.9584 47.5299 27.8651 46.3945C27.8651 46.3945 24.43 47.2132 21.89 46.5246Z" fill="#F9B28F"/>
<path d="M4.04611 30.0956C4.07668 30.1008 4.10812 30.0971 4.13662 30.0849C4.16513 30.0727 4.1895 30.0525 4.20677 30.0267C4.38623 29.7334 4.62928 29.4842 4.91795 29.2975C5.20663 29.1108 5.53356 28.9913 5.87461 28.9479C6.80798 28.8637 7.25937 29.4835 7.70311 30.1874C7.82552 30.3787 8.16215 30.3175 8.14684 30.0726C8.06685 29.5931 7.82212 29.1565 7.45483 28.8381C7.08754 28.5196 6.62069 28.3393 6.13473 28.3281C5.57807 28.3317 5.03891 28.5231 4.60461 28.8714C4.5128 28.9479 3.939 29.8507 4.06141 29.8354C3.93135 29.8354 3.93135 30.0726 4.06141 30.0956H4.04611Z" fill="#131C32"/>
<path d="M5.64702 31.2732C5.9913 31.1202 6.30498 30.883 6.63395 30.6994C7.00919 30.5563 7.41475 30.5115 7.81215 30.5693C7.89128 30.5693 7.96717 30.5378 8.02313 30.4819C8.07908 30.4259 8.11052 30.35 8.11052 30.2709C8.11052 30.1917 8.07908 30.1158 8.02313 30.0599C7.96717 30.0039 7.89128 29.9725 7.81215 29.9725C7.35566 29.9182 6.89283 29.9786 6.46564 30.1485C6.24717 30.2761 6.03987 30.422 5.84594 30.5846C5.66997 30.7376 5.64702 30.9289 5.50166 31.0819C5.4828 31.1031 5.47189 31.1302 5.47079 31.1586C5.4697 31.1869 5.47849 31.2148 5.49566 31.2374C5.51282 31.2599 5.53731 31.2759 5.56492 31.2824C5.59252 31.2889 5.62155 31.2857 5.64702 31.2732Z" fill="#131C32"/>
<path d="M44.9859 29.699C45.1083 29.699 44.5269 28.8192 44.4351 28.7426C44.0019 28.3933 43.4614 28.2042 42.9049 28.2071C42.4105 28.2115 41.9336 28.3905 41.5584 28.7125C41.1832 29.0345 40.9339 29.4788 40.8546 29.9668C40.8532 30.0198 40.8696 30.0716 40.9012 30.1142C40.9327 30.1567 40.9776 30.1874 41.0286 30.2015C41.0796 30.2156 41.1339 30.2122 41.1828 30.1918C41.2317 30.1715 41.2723 30.1354 41.2983 30.0893C41.7344 29.3854 42.1934 28.758 43.1192 28.8345C43.4612 28.8718 43.79 28.9871 44.0805 29.1714C44.371 29.3558 44.6153 29.6044 44.7946 29.898C44.8112 29.9245 44.8354 29.9453 44.8642 29.9576C44.8929 29.9699 44.9247 29.9731 44.9553 29.9668C45.0854 29.9668 45.0854 29.722 44.9553 29.7067L44.9859 29.699Z" fill="#131C32"/>
<path d="M43.548 30.9551C43.395 30.8098 43.372 30.6185 43.1961 30.4654C43.0045 30.3021 42.7968 30.1585 42.5764 30.037C42.1473 29.8639 41.6812 29.8034 41.2222 29.861C41.1431 29.861 41.0672 29.8924 41.0112 29.9484C40.9553 30.0044 40.9238 30.0803 40.9238 30.1594C40.9238 30.2385 40.9553 30.3144 41.0112 30.3704C41.0672 30.4264 41.1431 30.4578 41.2222 30.4578C41.6215 30.3976 42.0295 30.4398 42.4081 30.5802C42.737 30.7639 43.0507 31.001 43.395 31.1541C43.4214 31.1649 43.4506 31.1668 43.4782 31.1593C43.5057 31.1519 43.5301 31.1357 43.5475 31.113C43.5649 31.0904 43.5743 31.0627 43.5744 31.0342C43.5745 31.0056 43.5652 30.9779 43.548 30.9551Z" fill="#131C32"/>
<path d="M11.4161 73.9617L11.7527 67.6418C11.7527 67.3434 11.309 67.3434 11.2937 67.6418L10.957 73.9617C10.957 74.2524 11.4008 74.2524 11.4161 73.9617Z" fill="#131C32"/>
<path d="M38.1617 73.9617L37.9399 67.6418C37.9399 67.3434 37.4655 67.3434 37.4808 67.6418L37.7027 73.9617C37.7027 74.2524 38.1694 74.2601 38.1617 73.9617Z" fill="#131C32"/>
<path d="M41.0844 28.1006C40.962 18.1922 37.8558 7.78649 24.4749 7.84005C12.7159 7.88596 8.19436 18.0851 8.01074 27.894C8.01074 28.1465 8.01074 28.399 8.01074 28.6591C8.01074 36.012 12.0273 42.3243 17.7576 45.1705C26.7548 45.4077 34.9868 40.5339 40.4723 33.5483C40.8922 31.9162 41.103 30.2373 41.0997 28.552C41.092 28.3913 41.0844 28.246 41.0844 28.1006Z" fill="#FCCEB6"/>
<path d="M17.748 45.1535C19.8863 46.2194 22.2445 46.7697 24.6336 46.7603C32.1924 46.7603 38.5424 41.1443 40.4933 33.5312C34.9772 40.5169 26.7452 45.3907 17.748 45.1535Z" fill="#F9B28F"/>
<path d="M18.5305 28.8246C18.4833 29.0106 18.3848 29.1796 18.2462 29.3124C18.1077 29.4451 17.9347 29.5364 17.7469 29.5757C17.5591 29.615 17.364 29.6008 17.1839 29.5347C17.0038 29.4687 16.8458 29.3533 16.7279 29.2019C16.6101 29.0505 16.5371 28.8691 16.5172 28.6782C16.4974 28.4874 16.5315 28.2948 16.6157 28.1223C16.6998 27.9499 16.8307 27.8046 16.9934 27.7028C17.1561 27.6011 17.3441 27.5471 17.5359 27.5469C17.8344 27.5907 18.1045 27.748 18.2898 27.9861C18.4751 28.2241 18.5613 28.5245 18.5305 28.8246Z" fill="#131C32"/>
<path d="M34.2219 28.8246C34.1747 29.0106 34.0762 29.1796 33.9376 29.3124C33.7991 29.4451 33.6261 29.5364 33.4383 29.5757C33.2505 29.615 33.0555 29.6008 32.8753 29.5347C32.6952 29.4687 32.5372 29.3533 32.4193 29.2019C32.3015 29.0505 32.2285 28.8691 32.2086 28.6782C32.1888 28.4874 32.2229 28.2948 32.3071 28.1223C32.3912 27.9499 32.5221 27.8046 32.6848 27.7028C32.8475 27.6011 33.0355 27.5471 33.2273 27.5469C33.5266 27.5888 33.7979 27.7457 33.9835 27.9842C34.1692 28.2227 34.2547 28.5242 34.2219 28.8246Z" fill="#131C32"/>
<path d="M11.9881 16.9733C12.0417 16.6596 12.0723 16.4147 12.0952 16.2617H11.8887C11.904 16.4147 11.9346 16.6749 11.9881 16.9733Z" fill="#FEB01B"/>
<path d="M24.3977 34.2497C24.3588 34.5823 24.4018 34.9194 24.5232 35.2315C24.6446 35.5436 24.8405 35.8213 25.0939 36.0401C25.3618 36.2295 25.6718 36.3507 25.997 36.3934C26.3223 36.4361 26.653 36.3989 26.9607 36.285C26.9971 36.2633 27.0273 36.2325 27.0483 36.1956C27.0693 36.1587 27.0803 36.117 27.0803 36.0746C27.0803 36.0321 27.0693 35.9904 27.0483 35.9536C27.0273 35.9167 26.9971 35.8859 26.9607 35.8642C26.5322 35.6117 25.9584 35.8642 25.5071 35.5964C25.0557 35.3286 24.9256 34.6553 24.6731 34.2191C24.6606 34.1933 24.641 34.1715 24.6167 34.1562C24.5923 34.1409 24.5642 34.1328 24.5354 34.1328C24.5067 34.1328 24.4785 34.1409 24.4542 34.1562C24.4298 34.1715 24.4102 34.1933 24.3977 34.2191V34.2497Z" fill="#131C32"/>
<path d="M25.1488 22.9101C25.3936 22.9101 24.1466 30.1023 25.539 30.9287C25.8986 31.1429 26.0133 31.2653 26.4953 30.9746C26.9773 30.6838 26.962 29.4443 28.0254 30.2095C28.538 30.6073 26.9773 32.1682 26.5718 32.5048L27.1533 32.742V32.6502C27.141 32.5687 27.0999 32.4943 27.0374 32.4405C26.975 32.3867 26.8953 32.3571 26.8128 32.3571C26.7304 32.3571 26.6507 32.3867 26.5882 32.4405C26.5257 32.4943 26.4846 32.5687 26.4724 32.6502V32.742C26.4747 32.8083 26.4962 32.8725 26.5341 32.9269C26.5721 32.9813 26.625 33.0236 26.6864 33.0487C26.7478 33.0737 26.8152 33.0805 26.8804 33.0682C26.9455 33.0559 27.0058 33.025 27.0538 32.9792C27.7577 32.3824 29.9075 29.6127 27.9948 29.0235C26.9391 28.7022 26.9467 30.0258 26.3041 30.3013C25.0876 30.8216 25.539 26.5139 25.539 26.1466C25.539 24.9989 25.539 23.8513 25.4778 22.7036C25.4778 22.6118 25.4013 22.5123 25.3018 22.5199H25.2024C25.1577 22.5199 25.1149 22.5377 25.0834 22.5692C25.0518 22.6008 25.0341 22.6436 25.0341 22.6883C25.0341 22.7329 25.0518 22.7757 25.0834 22.8073C25.1149 22.8389 25.1577 22.8566 25.2024 22.8566L25.1488 22.9101Z" fill="#131C32"/>
<path d="M12.3707 24.213C12.2713 24.06 13.8244 20.089 15.7141 19.7676C16.7469 19.7217 16.8311 20.2267 16.8311 20.2267C16.8311 20.2267 18.1776 18.6123 19.0574 19.6834C19.3098 20.1578 18.4453 20.923 18.4453 20.923C18.4453 20.923 19.9755 20.571 19.1415 21.8794C18.3076 23.1877 14.6047 22.5068 12.6615 24.1747" fill="#FEB01B"/>
<path d="M37.7256 24.213C37.825 24.06 36.272 20.089 34.3899 19.7676C33.3571 19.7217 33.2653 20.2267 33.2653 20.2267C33.2653 20.2267 31.9188 18.6123 31.0466 19.6834C30.7865 20.1578 31.6586 20.923 31.6586 20.923C31.6586 20.923 30.1285 20.571 30.9548 21.8794C31.7811 23.1877 35.4916 22.5068 37.4349 24.1747" fill="#FEB01B"/>
<path d="M43.9919 13.7539C43.923 14.0906 43.8771 14.4196 43.8389 14.7409C44.1372 14.6797 44.4433 14.6108 44.7569 14.519L43.9919 13.7539Z" fill="#FEB01B"/>
<path d="M43.8378 14.7388C36.7916 16.1849 33.127 8.96979 29.4547 4.57031C26.3944 11.4564 16.4486 14.517 8.79797 12.2216C8.79797 16.8123 7.93345 21.8239 4.92676 25.3435C5.14339 25.3995 5.36307 25.4429 5.58471 25.4736C5.98658 25.2544 6.44707 25.1667 6.90135 25.223C7.35563 25.2793 7.78082 25.4766 8.11707 25.7873C11.2615 25.0681 12.8605 13.8437 12.8605 13.8437C12.8605 13.8437 16.4486 14.6088 21.4215 16.0931C26.3944 17.5775 31.7498 13.3922 31.7498 13.3922C32.7009 15.0419 33.5269 16.7606 34.221 18.5339C35.7511 22.1682 40.0661 20.7298 40.4639 21.4719C40.8617 22.2141 41.0836 28.0979 41.6956 26.4988C42.3077 24.8997 45.1384 26.2464 45.1384 26.2464C46.2345 25.5683 47.0886 24.5615 47.579 23.3695C46.2549 22.3839 45.2126 21.0682 44.5561 19.5537C43.8996 18.0393 43.6519 16.379 43.8378 14.7388Z" fill="#F79C0B"/>
<path d="M29.4544 4.57215C33.1191 8.97163 36.7914 16.1868 43.8376 14.7407C43.8376 14.4193 43.9218 14.0903 43.9906 13.7537L44.7557 14.5188C44.442 14.6106 44.136 14.6795 43.8376 14.7407C43.6517 16.3809 43.8994 18.0411 44.5559 19.5556C45.2123 21.0701 46.2547 22.3858 47.5788 23.3713C49.1548 19.3773 45.8038 14.5188 45.8038 14.5188C45.8038 14.5188 47.1427 14.1362 47.4334 11.1676C47.7241 8.19887 42.6518 7.83925 42.6518 7.83925C42.6518 7.83925 44.6562 4.09014 42.3381 1.4122C40.0199 -1.26575 35.5749 0.555256 29.9288 1.4122C24.2826 2.26914 24.3821 -0.118056 16.5402 0.073226C8.6983 0.264508 5.5845 7.44137 5.5845 7.44137C4.85226 8.62662 3.97879 9.71854 2.98329 10.6932C1.18539 12.5065 -0.842023 18.5357 0.382077 21.7645C1.3078 24.1747 3.7407 25.0546 4.92654 25.3453C7.93324 21.8258 8.79776 16.8065 8.79776 12.2234C16.4484 14.5188 26.3942 11.4583 29.4544 4.57215Z" fill="#FEB01B"/>
</g>
<defs>
<clipPath id="clip0_10412_57060">
<rect width="48" height="76" fill="white" transform="translate(0 0.00390625)"/>
</clipPath>
</defs>
</svg>
