<svg width="124" height="109" viewBox="0 0 124 109" fill="none" xmlns="http://www.w3.org/2000/svg">
<path d="M44.0444 80.9668C44.1513 79.0059 44.2512 77.045 44.3581 75.077C44.3724 74.7989 43.9446 74.806 43.9303 75.077C43.8233 77.0379 43.7235 78.9988 43.6166 80.9668C43.6023 81.2448 44.0301 81.2448 44.0444 80.9668Z" fill="black"/>
<path d="M68.9729 80.9668C68.9016 79.0059 68.8303 77.0379 68.759 75.077C68.7518 74.806 68.324 74.7989 68.3311 75.077C68.4024 77.0379 68.4738 79.0059 68.5451 80.9668C68.5593 81.2448 68.9871 81.2448 68.9729 80.9668Z" fill="black"/>
<path d="M62.512 61.9258L51.1033 62.0256C51.1033 62.0256 50.3332 62.0898 49.2208 62.2894C48.3937 62.4392 47.3741 62.6674 46.333 63.0096C53.2068 67.3093 61.6136 67.1025 68.6585 63.7369C67.5675 63.031 66.1485 62.4178 64.3374 62.1183C63.767 62.0256 63.168 61.9472 62.512 61.9258Z" fill="#1B6E69"/>
<path d="M46.3333 63.0039C45.2423 63.3604 44.13 63.8382 43.1959 64.4799C42.055 65.2643 41.178 66.2982 40.9569 67.6387C40.85 68.2733 40.7359 68.965 40.6218 69.6923C40.3722 71.2467 40.1084 72.9366 39.8731 74.4626C39.4595 77.1365 39.1387 79.2899 39.1387 79.2899C39.1387 79.2899 57.0932 87.4257 73.6287 79.1758L72.8515 73.8636L72.1741 69.2573L71.9031 67.4177C71.9031 67.4177 71.2828 65.7848 69.4431 64.3017C69.2007 64.1091 68.9297 63.9166 68.6445 63.7312C61.621 67.0968 53.2071 67.2964 46.3333 63.0039Z" fill="#359A94"/>
<path d="M44.4648 39.9293C44.4719 42.3964 42.5609 44.4072 40.2008 44.4143C37.8406 44.4215 35.9154 42.4249 35.9082 39.9578C35.9011 37.4907 37.8121 35.4799 40.1722 35.4727C42.5324 35.4585 44.4576 37.455 44.4648 39.9293Z" fill="#F9B28F"/>
<path d="M76.9091 39.812C76.9162 42.2792 75.0053 44.2899 72.6451 44.2971C70.2849 44.3042 68.3597 42.3077 68.3526 39.8405C68.3454 37.3734 70.2564 35.3626 72.6166 35.3555C74.9768 35.3484 76.902 37.3449 76.9091 39.812Z" fill="#F9B28F"/>
<path d="M51.1035 62.0113C51.1035 62.0113 52.5938 63.8439 56.6367 63.8367C60.6797 63.8225 62.5122 61.9115 62.5122 61.9115C62.5122 61.9115 61.0719 60.5639 60.1378 58.332C57.8061 59.3731 55.2035 59.9649 52.5795 60.0861C52.2087 60.8134 51.7239 61.4837 51.1035 62.0113Z" fill="#FCCEB6"/>
<path d="M53.8065 55.3993C53.8065 55.3993 53.6853 57.9449 52.5801 60.1054C55.2041 59.977 57.8067 59.3924 60.1384 58.3513C59.7604 57.46 59.4681 56.4332 59.3825 55.2852C59.3754 55.2781 56.1738 56.0339 53.8065 55.3993Z" fill="#F9B28F"/>
<path d="M37.177 40.0919C37.1841 40.0919 37.1983 40.0919 37.2055 40.0991C37.2696 40.1062 37.3124 40.0919 37.3552 40.042C37.7189 39.5358 38.0968 39.2292 38.71 39.0652C39.637 38.8085 40.186 39.5072 40.621 40.1918C40.7351 40.37 41.0488 40.313 41.0345 40.0777C40.9775 39.1222 40.0006 38.5019 39.1164 38.4448C38.6173 38.4092 38.0754 38.6587 37.6903 38.9511C37.5905 39.0295 37.0771 39.8638 37.1841 39.8495C37.0557 39.8638 37.0557 40.0706 37.177 40.0919Z" fill="black"/>
<path d="M38.6747 41.1696C38.9742 41.0341 39.2666 40.8416 39.5375 40.6634C39.8798 40.4423 40.3005 40.5065 40.6927 40.5065C41.0563 40.5065 41.0563 39.9432 40.6927 39.9432C40.2791 39.9432 39.8727 39.9147 39.4876 40.0858C39.2594 40.1856 39.0455 40.371 38.8601 40.5208C38.6961 40.6562 38.6748 40.8416 38.5393 40.9842C38.4323 41.0841 38.5535 41.2195 38.6747 41.1696Z" fill="black"/>
<path d="M75.3287 39.7018C75.4286 39.7161 74.9223 38.8889 74.8153 38.8105C74.3804 38.4896 73.9169 38.347 73.3821 38.3114C72.5051 38.2543 71.5211 39.0886 71.4712 39.9585C71.4569 40.1867 71.7778 40.2508 71.8847 40.0726C72.2484 39.4736 72.6192 38.946 73.3821 38.8818C74.1308 38.8176 74.744 39.3381 75.1505 39.8943C75.1861 39.9442 75.236 39.9656 75.3002 39.9514C75.3073 39.9514 75.3216 39.9514 75.3287 39.9442C75.45 39.93 75.45 39.7232 75.3287 39.7018Z" fill="black"/>
<path d="M73.9909 40.9035C73.8839 40.7894 73.8554 40.6254 73.7413 40.5042C73.5702 40.3331 73.342 40.1976 73.1424 40.0692C72.7573 39.8197 72.2653 39.8767 71.8304 39.8767C71.4667 39.8767 71.4667 40.44 71.8304 40.44C72.1726 40.44 72.5648 40.3687 72.8785 40.5256C73.2137 40.6896 73.5131 40.932 73.8554 41.0889C73.9624 41.1388 74.0907 41.0033 73.9909 40.9035Z" fill="black"/>
<path d="M44.0444 80.9668C44.1513 79.0059 44.2512 77.045 44.3581 75.077C44.3724 74.7989 43.9446 74.806 43.9303 75.077C43.8233 77.0379 43.7235 78.9988 43.6166 80.9668C43.6023 81.2448 44.0301 81.2448 44.0444 80.9668Z" fill="black"/>
<path d="M68.9729 80.9668C68.9016 79.0059 68.8303 77.0379 68.759 75.077C68.7518 74.806 68.324 74.7989 68.3311 75.077C68.4024 77.0379 68.4738 79.0059 68.5451 80.9668C68.5593 81.2448 68.9871 81.2448 68.9729 80.9668Z" fill="black"/>
<path d="M71.6944 38.2286C71.5803 28.9947 68.6925 19.2901 56.2142 19.34C45.2547 19.3828 41.0406 28.8877 40.8694 38.0361C40.8623 38.2714 40.8623 38.4996 40.8623 38.7349C40.8837 45.5872 44.6129 51.4699 49.9465 54.1153C58.3319 54.3363 66.0043 49.7942 71.1168 43.2841C71.4947 41.801 71.7015 40.2394 71.6944 38.6279C71.7015 38.4996 71.6944 38.3641 71.6944 38.2286Z" fill="#FCCEB6"/>
<path d="M49.9463 54.1163C51.8929 55.0861 54.0606 55.6208 56.3352 55.6137C63.3801 55.5923 69.2983 50.38 71.1166 43.2852C66.0112 49.8024 58.3317 54.3374 49.9463 54.1163Z" fill="#F9B28F"/>
<path d="M50.6762 38.9134C50.6762 39.5694 50.2626 40.1042 49.7492 40.1042C49.2358 40.1042 48.8223 39.5694 48.8223 38.9134C48.8223 38.2574 49.2358 37.7227 49.7492 37.7227C50.2626 37.7227 50.6762 38.2574 50.6762 38.9134Z" fill="black"/>
<path d="M64.3732 40.1042C64.8852 40.1042 65.3002 39.5711 65.3002 38.9134C65.3002 38.2558 64.8852 37.7227 64.3732 37.7227C63.8613 37.7227 63.4463 38.2558 63.4463 38.9134C63.4463 39.5711 63.8613 40.1042 64.3732 40.1042Z" fill="black"/>
<path d="M44.5859 27.8532C44.6286 27.5608 44.6643 27.3326 44.6857 27.1829C44.6215 27.1758 44.5573 27.1758 44.4932 27.1758C44.5003 27.3255 44.5288 27.568 44.5859 27.8532Z" fill="#FEB01B"/>
<path d="M44.4648 27.1772C44.472 27.1772 44.4791 27.1772 44.4862 27.1772C44.472 27.0061 44.4648 26.9704 44.4648 27.1772Z" fill="#FEB01B"/>
<path d="M56.1515 43.9488C55.9804 44.4693 56.4011 45.2822 56.8004 45.6173C57.1783 45.9382 58.1124 46.1165 58.5402 45.8455C58.69 45.7528 58.69 45.5389 58.5402 45.4533C58.1623 45.2252 57.6489 45.4248 57.2282 45.2323C56.779 45.0184 56.6364 44.3196 56.4011 43.9203C56.344 43.8062 56.1872 43.8347 56.1515 43.9488Z" fill="black"/>
<path d="M58.8033 42.6016C59.9013 42.6729 61.1563 39.5997 59.9299 38.8795C58.8175 38.2306 57.5554 40.5908 57.0563 38.744C56.4502 36.4979 56.7782 32.7972 57.4984 30.601C57.6196 30.2231 57.0278 30.0591 56.8994 30.437C56.0224 33.1252 55.9154 36.8402 56.6855 39.564C56.7639 39.8564 57.0135 40.4553 57.3914 40.4696C57.4913 40.4696 57.7907 40.5266 57.9333 40.4411C58.1401 40.2842 58.3398 40.1202 58.5394 39.9562C59.83 40.7263 59.9156 41.5178 58.8104 42.3235C58.625 42.3378 58.625 42.5945 58.8033 42.6016Z" fill="black"/>
<path d="M68.3525 25.8038C68.4595 25.982 68.8089 32.6062 71.5755 35.5012C71.5755 35.5012 72.9588 35.109 73.9072 35.5654C73.9072 35.5654 73.5649 27.1086 72.203 24.613C70.8411 22.1173 68.3525 25.8038 68.3525 25.8038Z" fill="#1E1D35"/>
<path d="M59.0891 13.7077C58.1764 13.7861 57.0712 13.8075 55.6879 13.7291C54.5328 13.6649 53.4775 13.672 52.4935 13.7291C48.4505 17.6651 43.0884 20.339 37.4767 21.9576C36.8778 22.8418 36.4856 23.7902 36.2432 24.7599C45.2988 23.6618 53.2279 20.1322 59.0891 13.7077Z" fill="#343351"/>
<path d="M71.134 19.3337C73.6297 13.3013 69.2302 10.934 65.9074 11.0552C63.1265 11.155 63.7469 13.287 59.0907 13.7077C53.2295 20.1323 45.3075 23.6618 36.2447 24.7599C34.9113 30.065 38.1771 35.9833 38.1771 35.9833C39.3607 34.9993 41.4286 35.7123 41.4286 35.7123C42.7334 33.5732 44.6872 26.0862 44.6872 26.0862C44.6872 26.0862 54.3276 27.6478 61.9928 28.1683C68.1179 28.5819 72.988 26.5639 73.5156 22.4069C74.0361 18.2427 71.134 19.3337 71.134 19.3337Z" fill="#2C2945"/>
<path d="M37.4795 21.9616C43.0912 20.343 48.4461 17.6691 52.4962 13.7331C46.307 14.0967 43.5119 16.5211 43.5119 16.5211C43.5119 16.5211 43.6901 12.2998 42.3852 12.364C41.0804 12.421 41.551 17.7118 41.551 17.7118C41.551 17.7118 39.7113 13.4336 38.6204 14.3249C37.5365 15.2162 40.1891 19.3376 40.1891 19.3376C39.0054 20.1005 38.1284 20.9919 37.4795 21.9616Z" fill="#2C2945"/>
<path d="M57.0498 63.1602C57.0498 63.1602 52.8571 62.2333 51.9087 61.1566L52.6717 59.9016C52.6717 59.9016 50.9033 59.538 50.0405 61.3206C49.1778 63.1032 49.9051 63.4312 51.103 64.4723C52.3009 65.5133 52.8927 66.7611 53.784 67.2389C54.6753 67.7095 56.6077 65.2423 57.0498 63.1602Z" fill="#FEB01B"/>
<path d="M56.4443 62.9884C56.4443 62.9884 60.637 62.0614 61.5854 60.9847L60.8224 59.7298C60.8224 59.7298 62.5908 59.3661 63.4536 61.1487C64.3164 62.9313 63.589 63.2593 62.3911 64.3004C61.1932 65.3414 60.6014 66.5892 59.7101 67.067C58.8188 67.5376 56.8864 65.0705 56.4443 62.9884Z" fill="#FEB01B"/>
<path d="M44.053 34.5917C43.9604 34.4491 45.4078 30.7484 47.1691 30.4489C48.1317 30.399 48.2101 30.8696 48.2101 30.8696C48.2101 30.8696 49.4651 29.3722 50.2851 30.3705C50.5275 30.8055 49.7146 31.5256 49.7146 31.5256C49.7146 31.5256 51.1407 31.1976 50.3706 32.4098C49.6005 33.6291 46.1423 32.9945 44.3311 34.5204" fill="#2C2945"/>
<path d="M68.5682 34.5917C68.6609 34.4491 67.2134 30.7484 65.4522 30.4489C64.4896 30.399 64.4112 30.8696 64.4112 30.8696C64.4112 30.8696 63.1562 29.3722 62.3362 30.3705C62.0938 30.8055 62.9066 31.5256 62.9066 31.5256C62.9066 31.5256 61.4805 31.1976 62.2506 32.4098C63.0207 33.6291 66.479 32.9945 68.2901 34.5204" fill="#2C2945"/>
<path d="M48.4609 44.204C46.7425 44.204 45.2736 43.9758 44.5249 43.605C41.8653 42.2574 42.5427 36.1038 42.5712 35.84C42.6068 34.5208 47.7336 33.6937 50.9566 33.494C51.199 33.4798 51.4343 33.4727 51.6482 33.4727C53.167 33.4727 54.2437 33.822 54.8569 34.5208C55.4488 35.1911 55.3632 35.9327 55.3632 35.9683C55.3632 36.0753 55.2919 39.5692 54.8783 42.0435C54.6216 43.6336 51.2561 44.204 48.4609 44.204ZM51.6554 34.1786C51.4486 34.1786 51.2347 34.1857 51.0065 34.2C46.386 34.4923 43.4767 35.4834 43.2771 35.9184C43.0917 37.5655 43.0061 42.0363 44.8458 42.9633C45.4875 43.2842 46.8708 43.4909 48.4609 43.4909C51.527 43.4909 54.0369 42.7993 54.1867 41.9222C54.586 39.4979 54.6644 35.9469 54.6644 35.9113C54.6716 35.8614 54.7072 35.405 54.3222 34.9772C53.8444 34.4495 52.9246 34.1786 51.6554 34.1786Z" fill="#3793B5"/>
<path d="M71.655 35.86C71.6194 34.5123 66.4855 33.6852 63.2625 33.4784C63.0201 33.4642 62.7847 33.457 62.5708 33.457C61.052 33.457 59.9753 33.8064 59.3621 34.5052C58.7703 35.1755 58.8559 35.9099 58.8559 35.9099C58.8559 35.9955 58.8844 37.2932 58.9985 38.8548C59.0341 38.8405 59.0698 38.8191 59.1197 38.8191C59.1268 38.8191 59.1268 38.8191 59.134 38.8191C59.3122 38.7692 59.5119 38.755 59.7044 38.7692C59.5974 37.2148 59.5689 35.9099 59.5618 35.8671C59.5618 35.86 59.519 35.4108 59.8969 34.9829C60.3604 34.4553 61.2874 34.1772 62.5708 34.1772C62.7776 34.1772 62.9915 34.1843 63.2197 34.1986C67.8402 34.4909 70.7495 35.4821 70.942 35.917C71.1345 37.5642 71.2201 42.035 69.3733 42.9619C68.7315 43.2828 67.3482 43.4896 65.7581 43.4896C62.6921 43.4896 60.1821 42.7979 60.0324 41.9209C60.011 41.7854 59.9896 41.6499 59.9682 41.5073C59.8898 41.707 59.7757 41.8781 59.626 42.0278C59.5618 42.1134 59.4833 42.1918 59.412 42.2703C59.954 43.6892 63.1056 44.2026 65.7581 44.2026C67.4766 44.2026 68.9455 43.9744 69.6942 43.6037C72.3681 42.2489 71.6836 36.0882 71.655 35.86Z" fill="#3793B5"/>
<path d="M54.9126 38.9026L54.5703 38.2752C54.6701 38.2181 57.0731 36.9204 59.5117 38.2752L59.1623 38.8955C57.0802 37.7404 54.934 38.8884 54.9126 38.9026Z" fill="#3793B5"/>
<path d="M77.773 106.888C77.8859 104.819 77.9912 102.751 78.104 100.674C78.1191 100.381 77.6677 100.388 77.6527 100.674C77.5398 102.743 77.4345 104.812 77.3217 106.888C77.3066 107.174 77.758 107.174 77.773 106.888Z" fill="black"/>
<path d="M104.08 106.891C104.005 104.822 103.93 102.746 103.855 100.677C103.847 100.384 103.396 100.384 103.403 100.677C103.479 102.746 103.554 104.822 103.629 106.891C103.637 107.177 104.088 107.177 104.08 106.891Z" fill="black"/>
<path d="M97.4375 86.8236C97.3773 86.8236 97.3247 86.8086 97.257 86.8086L85.2206 86.9139C85.2206 86.9139 84.6865 86.959 83.874 87.0869C86.1384 92.1873 87.8084 97.1223 91.645 100.966C93.7062 96.3324 96.121 91.6984 97.4375 86.8236Z" fill="#F9B28F"/>
<path d="M73.1837 101.285C72.8452 103.497 72.6045 105.137 72.6045 105.137C72.6045 105.137 74.5679 106.024 77.8102 106.942L77.8855 102.97L73.1837 101.285Z" fill="#F9B28F"/>
<path d="M108.449 101.268L108.179 99.4098L107.464 94.5501L107.178 92.6092C107.178 92.6092 106.524 90.8865 104.583 89.3218C103.357 88.3288 101.596 87.411 99.1815 87.0123C98.6323 86.922 98.0531 86.8543 97.4287 86.8242C96.1122 91.699 93.6974 96.3254 91.6437 100.959C87.7996 97.1153 86.1371 92.1804 83.8727 87.08C83.6771 87.1101 83.4665 87.1477 83.2333 87.1853C81.4429 87.5088 78.8024 88.1858 76.8841 89.5023C75.6805 90.3298 74.7552 91.4131 74.522 92.8349C74.4091 93.5044 74.2888 94.2341 74.1684 95.0015C73.9051 96.6414 73.6267 98.4243 73.3785 100.034C73.3108 100.463 73.2506 100.877 73.1904 101.275L77.8846 102.96L77.8094 106.933C83.647 108.58 93.6222 110.318 103.793 107.106L103.718 102.96L108.449 101.268Z" fill="#FFF7DC"/>
<path d="M108.451 101.27L103.712 102.97L103.787 107.115C105.525 106.566 107.27 105.881 108.993 105.016L108.451 101.27Z" fill="#F9B28F"/>
<path d="M78.2168 63.5884C78.2243 66.1913 76.2157 68.3127 73.7182 68.3203C71.2281 68.3278 69.197 66.2214 69.1895 63.6185C69.182 61.0157 71.198 58.8943 73.6881 58.8867C76.1856 58.8792 78.2092 60.9781 78.2168 63.5884Z" fill="#F2A381"/>
<path d="M112.445 63.4869C112.453 66.0898 110.437 68.2112 107.947 68.2188C105.457 68.2263 103.426 66.1199 103.418 63.517C103.41 60.9142 105.427 58.7928 107.917 58.7852C110.414 58.7702 112.438 60.8766 112.445 63.4869Z" fill="#F2A381"/>
<path d="M85.2197 86.9094C85.2197 86.9094 86.792 88.8502 91.0574 88.8352C95.3228 88.8202 97.2561 86.8116 97.2561 86.8116C97.2561 86.8116 95.7365 85.3898 94.751 83.0352C92.2911 84.1335 89.5453 84.7579 86.7769 84.8858C86.3857 85.6456 85.8817 86.3602 85.2197 86.9094Z" fill="#F9B28F"/>
<path d="M88.0722 79.9212C88.0722 79.9212 87.9443 82.6068 86.7783 84.8862C89.5467 84.7508 92.2925 84.1339 94.7524 83.0356C94.3537 82.0953 94.0453 81.0045 93.955 79.8008C93.955 79.7933 90.5773 80.5907 88.0722 79.9212Z" fill="#F2A381"/>
<path d="M70.5364 63.7765C70.5439 63.7765 70.559 63.7765 70.5665 63.784C70.6342 63.7916 70.6793 63.7765 70.7245 63.7238C71.1081 63.1972 71.5068 62.8662 72.1538 62.6932C73.1317 62.4224 73.711 63.1596 74.1699 63.8818C74.2902 64.0699 74.6212 64.0097 74.6062 63.7614C74.5385 62.7534 73.5154 62.0989 72.5826 62.0387C72.056 62.0011 71.4843 62.2644 71.078 62.5729C70.9727 62.6556 70.4311 63.5358 70.5439 63.5207C70.4085 63.5358 70.4085 63.7539 70.5364 63.7765Z" fill="black"/>
<path d="M72.1068 64.9303C72.4226 64.7874 72.731 64.5843 73.0168 64.3963C73.3853 64.1632 73.8215 64.2384 74.2352 64.2309C74.6188 64.2309 74.6188 63.6367 74.2352 63.6367C73.799 63.6442 73.3703 63.6066 72.9642 63.7871C72.7235 63.8849 72.4979 64.0805 72.3023 64.2459C72.1293 64.3888 72.1068 64.5843 71.9639 64.7348C71.8586 64.8476 71.9864 64.983 72.1068 64.9303Z" fill="black"/>
<path d="M110.75 63.3803C110.939 63.4029 110.344 62.5152 110.246 62.4475C109.788 62.1089 109.299 61.9585 108.734 61.9209C107.809 61.8607 106.771 62.7409 106.718 63.6586C106.703 63.8994 107.042 63.9671 107.155 63.779C107.546 63.1471 107.922 62.5979 108.734 62.5227C109.517 62.455 110.171 63.0042 110.6 63.5909C110.638 63.6436 110.69 63.6662 110.758 63.6511C110.765 63.6511 110.781 63.6511 110.788 63.6436C110.946 63.6135 110.886 63.3953 110.75 63.3803Z" fill="black"/>
<path d="M109.367 64.6163C109.247 64.4959 109.224 64.323 109.104 64.1951C108.924 64.0146 108.683 63.8717 108.472 63.7363C108.059 63.4731 107.555 63.5333 107.088 63.5333C106.705 63.5333 106.705 64.1274 107.088 64.1274C107.449 64.1274 107.863 64.0522 108.194 64.2177C108.548 64.3907 108.863 64.6464 109.224 64.8118C109.345 64.8645 109.473 64.7216 109.367 64.6163Z" fill="black"/>
<path d="M77.773 106.888C77.8859 104.819 77.9912 102.751 78.104 100.674C78.1191 100.381 77.6677 100.388 77.6527 100.674C77.5398 102.743 77.4345 104.812 77.3217 106.888C77.3066 107.174 77.758 107.174 77.773 106.888Z" fill="black"/>
<path d="M104.08 106.891C104.005 104.822 103.93 102.746 103.855 100.677C103.847 100.384 103.396 100.384 103.403 100.677C103.479 102.746 103.554 104.822 103.629 106.891C103.637 107.177 104.088 107.177 104.08 106.891Z" fill="black"/>
<path d="M106.953 61.822C106.848 53.2235 104.456 44.2489 94.8566 42.293C92.2462 52.3208 85.062 60.9193 74.4323 61.8445C74.4323 62.0176 74.4248 62.1906 74.4248 62.3561C74.4474 69.5855 78.3818 75.7917 84.0088 78.5826C92.8555 78.8158 100.95 74.0314 106.344 67.1556C106.742 65.5909 106.961 63.9434 106.953 62.2433C106.953 62.1078 106.953 61.9649 106.953 61.822Z" fill="#F9B28F"/>
<path d="M94.849 42.2935C93.5702 42.0302 92.1634 41.8873 90.6137 41.8948C79.0513 41.94 74.6054 51.9678 74.4248 61.6194C74.4248 61.6947 74.4248 61.7699 74.4248 61.8376C85.0544 60.9198 92.2462 52.3213 94.849 42.2935Z" fill="#F2A381"/>
<path d="M84.0088 78.595C86.0625 79.6181 88.3494 80.1823 90.7492 80.1748C98.1816 80.1522 104.425 74.6531 106.344 67.168C100.95 74.0362 92.848 78.8282 84.0088 78.595Z" fill="#F2A381"/>
<path d="M84.7699 62.5333C84.7699 63.2253 84.3337 63.7894 83.7922 63.7894C83.2507 63.7894 82.8145 63.2253 82.8145 62.5333C82.8145 61.8414 83.2507 61.2773 83.7922 61.2773C84.3337 61.2773 84.7699 61.8414 84.7699 62.5333Z" fill="black"/>
<path d="M99.2189 63.7894C99.7589 63.7894 100.197 63.227 100.197 62.5333C100.197 61.8397 99.7589 61.2773 99.2189 61.2773C98.679 61.2773 98.2412 61.8397 98.2412 62.5333C98.2412 63.227 98.679 63.7894 99.2189 63.7894Z" fill="black"/>
<path d="M78.3448 50.8668C78.39 50.5585 78.4276 50.3178 78.4501 50.1599C78.3825 50.1524 78.3148 50.1523 78.2471 50.1523C78.2546 50.3103 78.2847 50.5735 78.3448 50.8668Z" fill="#FEB01B"/>
<path d="M78.2236 50.1589C78.2312 50.1589 78.2387 50.1589 78.2462 50.1589C78.2236 49.9859 78.2236 49.9408 78.2236 50.1589Z" fill="#FEB01B"/>
<path d="M89.973 69.0715C89.7925 69.6206 90.2362 70.4779 90.6574 70.8314C91.056 71.1699 92.0413 71.3579 92.4925 71.0721C92.6505 70.9743 92.6505 70.7487 92.4925 70.6585C92.0939 70.4178 91.5524 70.6284 91.1087 70.4253C90.6348 70.2072 90.4844 69.4626 90.2362 69.0414C90.1685 68.9211 90.0106 68.9512 89.973 69.0715Z" fill="black"/>
<path d="M92.8388 68.2213C93.8995 67.4991 95.7125 65.1746 94.0274 64.1816C93.072 63.6249 90.8905 66.8748 90.6272 63.8582C90.5294 62.7598 90.5895 61.6465 90.5895 60.5481C90.5895 59.51 90.4165 57.3284 90.9582 56.4708C91.086 56.2677 90.8303 56.0119 90.6272 56.1398C90.0329 56.516 90.1156 58.3289 90.0705 58.8931C89.9351 60.5858 89.6567 63.0457 90.1457 64.6932C90.3338 65.31 90.4842 66.0623 91.2741 66.0623C91.6578 66.0623 92.1167 65.6636 92.38 65.4755C92.9742 64.7684 93.5008 64.9865 93.9597 66.1225C93.6663 66.8522 93.23 67.4615 92.6432 67.958C92.5078 68.0934 92.6809 68.3266 92.8388 68.2213Z" fill="black"/>
<path d="M74.3501 93.8766C74.3501 93.8766 74.6811 90.3259 79.3076 88.2571C82.3392 86.5645 85.2204 86.9031 85.2204 86.9031C85.2204 86.9031 88.1693 85.2706 88.0715 79.9144C88.0715 79.9144 78.4424 78.1917 75.1776 68.0586C75.1776 68.0586 75.14 68.0586 75.0873 68.0661C75.0572 76.5217 74.8014 85.3383 73.0186 93.6359L74.3501 93.8766Z" fill="#BF674F"/>
<path d="M106.155 67.832C106.155 67.832 103.38 77.3107 93.9385 79.7932C93.9385 79.7932 93.9761 83.8404 97.256 86.8044C97.256 86.8044 104.44 87.1053 107.118 92.454C109.796 97.8026 107.178 92.6044 107.178 92.6044L108.044 98.5097C108.044 98.5097 111.609 97.8778 114.701 96.4786C110.105 88.166 109.465 77.762 107.231 68.1329C106.802 68.0803 106.426 67.9825 106.155 67.832Z" fill="#BF674F"/>
<path d="M112.934 49.7946C110.715 44.9349 107.593 40.647 103.027 38.5256C98.137 36.2462 94.2628 37.1639 92.2617 37.999C96.8581 44.9274 104.667 48.4029 112.934 49.7946Z" fill="#CD7659"/>
<path d="M115.731 57.585C114.986 54.9822 114.084 52.3041 112.933 49.7915C104.665 48.3997 96.8565 44.9242 92.2602 37.9883C91.2972 38.387 90.7631 38.7707 90.7631 38.7707C90.7631 38.7707 90.214 38.6428 89.3037 38.5224C93.6067 49.1671 104.184 57.8408 115.731 57.585Z" fill="#D67B63"/>
<path d="M115.732 57.5829C104.185 57.8387 93.6076 49.1575 89.3046 38.5128C85.1521 37.9486 73.2737 37.3994 69.1888 48.7964C64.2012 62.6984 64.4721 77.2549 63.1556 81.9566C61.8391 86.6583 60.1465 90.0435 60.1465 90.0435L66.8267 91.8339L69.1963 86.2822V92.9623L73.0254 93.6394C74.8158 85.3343 75.0641 76.5177 75.0942 68.0696C74.4246 68.1148 69.8358 68.2953 69.6477 63.9321C69.4446 59.2304 73.1232 58.9596 74.3645 59.3884C74.3645 59.3884 86.777 56.3417 91.2455 47.0361C91.2455 47.0361 98.2491 57.5679 107.088 59.4787C107.088 59.4787 112.008 58.5835 112.151 63.2099C112.272 67.039 109.277 68.348 107.231 68.1148C109.466 77.7439 110.105 88.1553 114.701 96.4604C115.288 96.1971 115.86 95.9037 116.379 95.5803L114.874 87.7265L118.448 94.1209L123.999 90.6378C123.999 90.6378 119.486 74.1329 117.605 65.2937C117.109 62.9843 116.507 60.3212 115.732 57.5829Z" fill="#CD7659"/>
<path d="M85.891 68.911C85.6277 70.0469 83.7696 70.5886 81.746 70.1222C79.7149 69.6557 78.2855 68.3543 78.5488 67.2184C78.8121 66.0825 80.6702 65.5408 82.6939 66.0072C84.725 66.4736 86.1543 67.7751 85.891 68.911Z" fill="#F2A381"/>
<path d="M102.477 65.9258C103.063 66.9339 102.085 68.6039 100.295 69.6571C98.4971 70.7103 96.5638 70.7479 95.977 69.7399C95.3902 68.7318 96.3682 67.0618 98.1586 66.0086C99.949 64.9629 101.89 64.9253 102.477 65.9258Z" fill="#F2A381"/>
<path d="M79.9775 59.853C80.0753 59.9132 81.3993 58.2281 81.6701 57.9874C82.4826 57.2426 83.5508 56.7461 84.4611 56.1368C84.6416 56.0164 84.4836 55.7607 84.2956 55.8509C83.3552 56.3023 82.4675 56.874 81.6475 57.5135C81.1887 57.867 80.8878 58.3485 80.4966 58.7698C80.1957 59.0932 79.9173 59.4694 79.7443 59.8756C79.6916 60.0035 79.797 60.1239 79.9324 60.0637C79.9474 60.0562 79.9625 60.0486 79.9775 60.0336C80.0527 59.996 80.0527 59.8982 79.9775 59.853Z" fill="black"/>
<path d="M97.3916 55.3198C97.4066 55.3424 97.4217 55.3574 97.4367 55.3724C97.6549 55.568 97.8279 55.1167 97.542 55.1091C97.5195 55.1091 97.4969 55.1091 97.4819 55.1091C97.3239 55.1091 97.2712 55.3198 97.4066 55.395C98.9864 56.3278 100.356 57.3885 101.687 58.6448C101.822 58.7727 102.078 58.5997 101.958 58.4342C100.867 56.9597 99.1519 55.9893 97.5646 55.1242C97.542 55.222 97.5119 55.3198 97.4894 55.4101C97.5119 55.4101 97.5345 55.4101 97.5496 55.4101C97.8279 55.4025 97.6549 54.9512 97.4442 55.1468C97.4292 55.1618 97.4142 55.1769 97.3991 55.1994C97.369 55.2446 97.369 55.2822 97.3916 55.3198Z" fill="black"/>
<path d="M10.7818 105.161C10.8903 103.173 10.9915 101.185 11.0999 99.1892C11.1144 98.9073 10.6806 98.9145 10.6661 99.1892C10.5577 101.178 10.4565 103.166 10.348 105.161C10.3335 105.436 10.7674 105.436 10.7818 105.161Z" fill="black"/>
<path d="M36.059 105.164C35.9867 103.176 35.9144 101.18 35.8421 99.192C35.8349 98.91 35.4011 98.91 35.4083 99.192C35.4806 101.18 35.5529 103.176 35.6252 105.164C35.6324 105.439 36.0735 105.446 36.059 105.164Z" fill="black"/>
<path d="M12.1359 87.293C11.3551 87.6039 10.5959 87.9798 9.92352 88.4353C8.7667 89.2306 7.87739 90.279 7.65326 91.6383C7.5448 92.2818 7.42912 92.9831 7.31344 93.7206C7.06038 95.2967 6.79287 97.0103 6.55427 98.5575C6.13493 101.269 5.80957 103.452 5.80957 103.452C5.80957 103.452 7.62434 104.269 10.6248 105.13L10.7188 100.307C12.1215 96.9669 12.1793 90.2501 12.1359 87.293Z" fill="#FCCEB6"/>
<path d="M40.0015 97.9578L39.3147 93.2871L39.0399 91.4218C39.0399 91.4218 38.4109 89.7661 36.5455 88.2622C36.2997 88.067 36.025 87.8717 35.7358 87.6838C35.3019 87.4018 34.8031 87.1488 34.268 86.9102C34.2174 89.6215 34.2102 96.8154 35.6779 100.315L35.7791 105.354C37.4493 104.826 39.1195 104.169 40.7824 103.337L40.0015 97.9578Z" fill="#FCCEB6"/>
<path d="M34.3323 91.7975C34.2455 89.7947 34.26 87.9872 34.2817 86.9027C33.443 86.5339 32.4886 86.223 31.3607 86.035C30.7823 85.9411 30.175 85.8688 29.5098 85.8398L17.9416 85.9411C17.9416 85.9411 17.1607 86.0061 16.0328 86.2086C15.1941 86.3604 14.1602 86.599 13.1046 86.9388C12.7792 87.0473 12.4611 87.163 12.1358 87.2931C12.1502 88.2764 12.1502 89.6718 12.0996 91.2191C19.2575 93.1929 26.972 93.3303 34.3323 91.7975Z" fill="#3793B5"/>
<path d="M35.6272 100.163C35.1283 98.9046 34.8102 97.22 34.6077 95.4414C26.9727 97.6828 19.0918 98.7745 11.6882 96.3596C11.4785 97.8635 11.1676 99.2589 10.7266 100.315V100.481C18.47 103.51 27.3559 102.722 35.6272 100.163Z" fill="#3793B5"/>
<path d="M35.6268 100.16C27.3556 102.72 18.4697 103.508 10.719 100.478L10.625 105.134C16.2067 106.732 25.9095 108.468 35.7859 105.351L35.6847 100.312C35.663 100.261 35.6485 100.211 35.6268 100.16Z" fill="#64AD99"/>
<path d="M34.6075 95.4378C34.4701 94.2304 34.3833 92.9796 34.3327 91.8011C26.9724 93.3338 19.2579 93.1965 12.1 91.2227C12.0422 92.8711 11.9193 94.6786 11.6807 96.356C19.0916 98.7709 26.9724 97.6792 34.6075 95.4378Z" fill="#64AD99"/>
<path d="M11.2084 63.5462C11.2156 66.0478 9.27797 68.0867 6.88479 68.094C4.49161 68.1012 2.53948 66.0768 2.53225 63.5751C2.52502 61.0735 4.4627 59.0346 6.85587 59.0274C9.24905 59.0201 11.194 61.0446 11.2084 63.5462Z" fill="#F9B28F"/>
<path d="M44.1049 63.4291C44.1121 65.9307 42.1745 67.9696 39.7813 67.9768C37.3881 67.9841 35.436 65.9596 35.4287 63.458C35.4215 60.9564 37.3592 58.9175 39.7524 58.9102C42.1455 58.8958 44.0904 60.9202 44.1049 63.4291Z" fill="#F9B28F"/>
<path d="M17.9395 85.9456C17.9395 85.9456 19.4505 87.8037 23.55 87.7965C27.6495 87.7821 29.5077 85.8444 29.5077 85.8444C29.5077 85.8444 28.0472 84.4779 27.1 82.2148C24.7358 83.2704 22.0968 83.8705 19.4361 83.9935C19.0529 84.7309 18.5685 85.4178 17.9395 85.9456Z" fill="#FCCEB6"/>
<path d="M20.6811 79.229C20.6811 79.229 20.5582 81.8102 19.4375 84.0009C22.0982 83.8708 24.7372 83.2779 27.1015 82.2223C26.7183 81.3185 26.4218 80.2702 26.3351 79.1133C26.3278 79.1061 23.0815 79.8797 20.6811 79.229Z" fill="#F9B28F"/>
<path d="M3.81786 63.7088C3.82509 63.7088 3.83955 63.7088 3.84678 63.716C3.91186 63.7232 3.95524 63.7088 3.99862 63.6582C4.36735 63.1448 4.75055 62.8339 5.37234 62.6676C6.31226 62.4073 6.86898 63.1159 7.31002 63.81C7.4257 63.9907 7.74383 63.9329 7.72937 63.6943C7.67153 62.7255 6.681 62.0964 5.78446 62.0386C5.27835 62.0025 4.72886 62.2555 4.33843 62.5519C4.23721 62.6315 3.71664 63.4774 3.82509 63.4629C3.69495 63.4774 3.69495 63.6871 3.81786 63.7088Z" fill="black"/>
<path d="M5.33021 64.7968C5.63388 64.6594 5.93031 64.4642 6.20506 64.2834C6.55211 64.0593 6.97868 64.1244 7.37634 64.1316C7.74508 64.1316 7.74508 63.5604 7.37634 63.5604C6.95699 63.5604 6.54488 63.5315 6.15445 63.705C5.92308 63.799 5.70618 63.987 5.5182 64.146C5.3519 64.2834 5.33021 64.4714 5.19284 64.616C5.09162 64.7172 5.21453 64.8546 5.33021 64.7968Z" fill="black"/>
<path d="M42.5096 63.3541C42.6109 63.3685 42.0975 62.5298 41.9891 62.4503C41.548 62.125 41.0781 61.9804 40.5358 61.9442C39.6465 61.8864 38.6487 62.7323 38.5981 63.6144C38.5837 63.8457 38.909 63.9108 39.0175 63.7301C39.3862 63.1227 39.7622 62.5877 40.5358 62.5226C41.295 62.4575 41.9168 62.9854 42.3289 63.5493C42.365 63.5999 42.4156 63.6216 42.4807 63.6071C42.4879 63.6071 42.5024 63.6072 42.5096 63.5999C42.6325 63.5782 42.6325 63.3685 42.5096 63.3541Z" fill="black"/>
<path d="M41.1499 64.5273C41.0415 64.4116 41.0125 64.2453 40.8968 64.1224C40.7233 63.9489 40.492 63.8115 40.2895 63.6814C39.8991 63.4283 39.4002 63.4862 38.9592 63.4862C38.5904 63.4862 38.5904 64.0574 38.9592 64.0574C39.3062 64.0574 39.7039 63.985 40.022 64.1441C40.3618 64.3104 40.6655 64.5562 41.0125 64.7153C41.121 64.7659 41.2439 64.6285 41.1499 64.5273Z" fill="black"/>
<path d="M10.7818 105.161C10.8903 103.173 10.9915 101.185 11.0999 99.1892C11.1144 98.9073 10.6806 98.9145 10.6661 99.1892C10.5577 101.178 10.4565 103.166 10.348 105.161C10.3335 105.436 10.7674 105.436 10.7818 105.161Z" fill="black"/>
<path d="M36.059 105.164C35.9867 103.176 35.9144 101.18 35.8421 99.192C35.8349 98.91 35.4011 98.91 35.4083 99.192C35.4806 101.18 35.5529 103.176 35.6252 105.164C35.6324 105.439 36.0735 105.446 36.059 105.164Z" fill="black"/>
<path d="M38.8208 61.8136C38.7051 52.4505 35.7769 42.6176 23.1241 42.6682C12.0114 42.7115 7.73837 52.3493 7.56485 61.6184C7.55762 61.857 7.55762 62.0883 7.55762 62.3269C7.57931 69.2751 11.3607 75.24 16.7688 77.9223C25.2715 78.1465 33.0511 73.5481 38.2351 66.9397C38.6183 65.4359 38.828 63.8525 38.8208 62.2185C38.828 62.0883 38.8208 61.9509 38.8208 61.8136Z" fill="#FCCEB6"/>
<path d="M16.7695 77.924C18.7434 78.9073 20.9413 79.4496 23.2477 79.4423C30.3911 79.4206 36.3921 74.1354 38.2358 66.9414C33.0518 73.5425 25.2722 78.1481 16.7695 77.924Z" fill="#F9B28F"/>
<path d="M17.5058 62.5004C17.5058 63.1656 17.0865 63.7079 16.5659 63.7079C16.0453 63.7079 15.626 63.1656 15.626 62.5004C15.626 61.8352 16.0453 61.293 16.5659 61.293C17.0792 61.293 17.5058 61.8352 17.5058 62.5004Z" fill="black"/>
<path d="M32.3349 62.5004C32.3349 63.1656 31.9156 63.7079 31.395 63.7079C30.8744 63.7079 30.4551 63.1656 30.4551 62.5004C30.4551 61.8352 30.8744 61.293 31.395 61.293C31.9156 61.293 32.3349 61.8352 32.3349 62.5004Z" fill="black"/>
<path d="M11.3254 51.308C11.3688 51.0115 11.405 50.7802 11.4267 50.6283C11.3616 50.6211 11.2965 50.6211 11.2314 50.6211C11.2459 50.7729 11.2748 51.026 11.3254 51.308Z" fill="#FEB01B"/>
<path d="M11.208 50.6219C11.2152 50.6219 11.2225 50.6219 11.2297 50.6219C11.208 50.4556 11.208 50.4122 11.208 50.6219Z" fill="#FEB01B"/>
<path d="M23.0525 67.6156C22.8789 68.1434 23.3055 68.9676 23.7104 69.3074C24.0936 69.6328 25.0407 69.8136 25.4746 69.5388C25.6264 69.4448 25.6264 69.2279 25.4746 69.1412C25.0914 68.9098 24.5708 69.1122 24.1442 68.917C23.6887 68.7073 23.5441 67.9916 23.3055 67.5794C23.2477 67.471 23.0958 67.4999 23.0525 67.6156Z" fill="black"/>
<path d="M23.758 56.9089C23.8303 56.9161 23.0856 63.5245 23.9821 64.3559C24.2352 64.5873 24.6762 64.9777 25.0377 64.5294C25.1245 64.421 26.3464 62.8304 26.4404 63.8353C26.5199 64.7391 25.6956 65.4838 25.0739 66.0116C25.2546 66.0911 25.4426 66.1635 25.6233 66.2358C25.6233 66.2068 25.6233 66.1779 25.6233 66.1418C25.6161 65.7296 24.9943 65.7296 24.9799 66.1418C24.9799 66.1707 24.9799 66.1996 24.9799 66.2358C24.9726 66.5394 25.3269 66.6334 25.5294 66.4671C26.021 66.0478 28.3347 62.975 26.4187 62.7219C25.58 62.6134 25.2112 63.2859 24.8208 63.9293C24.1556 63.3799 23.8664 62.7147 23.9604 61.9338C23.946 61.2976 24.0327 60.6396 24.0833 60.0034C24.1629 58.9405 24.0906 57.8126 24.0255 56.7498C24.0183 56.663 23.9532 56.5691 23.8592 56.5835C23.8303 56.5835 23.8014 56.5907 23.7652 56.5907C23.5555 56.6124 23.5555 56.8872 23.758 56.9089Z" fill="black"/>
<path d="M11.6849 58.1555C11.5909 58.0109 13.0587 54.2585 14.8445 53.9548C15.8206 53.9042 15.9001 54.3814 15.9001 54.3814C15.9001 54.3814 17.1726 52.8631 18.0041 53.8753C18.2499 54.3163 17.4257 55.0466 17.4257 55.0466C17.4257 55.0466 18.8717 54.714 18.0909 55.9431C17.31 57.1795 13.8034 56.536 11.9669 58.0832" fill="#FEB01B"/>
<path d="M35.6451 58.1555C35.7391 58.0109 34.2714 54.2585 32.4855 53.9548C31.5094 53.9042 31.4299 54.3814 31.4299 54.3814C31.4299 54.3814 30.1574 52.8631 29.3259 53.8753C29.0801 54.3163 29.9044 55.0466 29.9044 55.0466C29.9044 55.0466 28.4583 54.714 29.2392 55.9431C30.02 57.1795 33.5267 56.536 35.3631 58.0832" fill="#FEB01B"/>
<path d="M41.5661 48.2852C41.501 48.6033 41.4576 48.9142 41.4287 49.2179C41.7107 49.16 41.9999 49.0949 42.2891 49.0082L41.5661 48.2852Z" fill="#FEB01B"/>
<path d="M41.4223 49.2222C34.7634 50.5886 31.2929 43.7706 27.8224 39.6133C24.9304 46.1204 15.5312 49.0125 8.30103 46.8434C8.30103 51.1815 7.49126 55.9245 4.64258 59.2431C5.02578 59.3371 5.26437 59.366 5.26437 59.366C6.4935 58.5924 7.65755 59.6625 7.65755 59.6625C10.6291 58.9828 12.1402 48.3762 12.1402 48.3762C12.1402 48.3762 15.5312 49.0992 20.2308 50.5019C24.9304 51.9045 29.9915 47.9424 29.9915 47.9424C29.9915 47.9424 30.8952 49.3668 32.3268 52.8011C33.7584 56.2354 37.8506 54.8833 38.2338 55.5847C38.6098 56.286 38.8122 61.846 39.3907 60.3277C39.9691 58.8166 42.6515 60.0891 42.6515 60.0891C43.8444 59.3082 44.5602 58.3683 44.9506 57.3705C42.5502 55.4401 41.0464 52.6926 41.4223 49.2222Z" fill="#F79C0B"/>
<path d="M27.8287 39.6081C31.2991 43.7727 34.7696 50.5907 41.4286 49.217C41.4647 48.9133 41.5081 48.6024 41.566 48.2843L42.289 49.0073C41.9925 49.0941 41.7106 49.1591 41.4286 49.217C41.0526 52.6874 42.5493 55.4349 44.9569 57.3726C46.4463 53.6057 43.2795 49.0073 43.2795 49.0073C43.2795 49.0073 44.5448 48.6458 44.8195 45.8405C45.0943 43.0352 40.3007 42.6882 40.3007 42.6882C40.3007 42.6882 42.2022 39.1526 40.0115 36.6221C37.8207 34.0915 33.6128 35.8051 28.2842 36.6221C22.9556 37.4391 23.0423 35.176 15.6242 35.3568C8.20606 35.5375 5.27785 42.3194 5.27785 42.3194C5.27785 42.3194 4.51146 43.6787 2.8196 45.3922C1.12052 47.113 -0.817156 52.8031 0.361357 55.8542C1.2362 58.1317 3.54262 58.9632 4.65606 59.238C7.49751 55.9193 8.31452 51.1763 8.31452 46.8382C15.5374 49.0073 24.9366 46.1152 27.8287 39.6081Z" fill="#FEB01B"/>
</svg>
