<svg width="56" height="56" viewBox="0 0 56 56" fill="none" xmlns="http://www.w3.org/2000/svg">
<rect width="56" height="56" rx="28" fill="#B27AF6"/>
<rect width="32" height="32" transform="translate(12 12)" fill="#B27AF6"/>
<rect x="14" y="14" width="28" height="28" rx="4" fill="white"/>
<path d="M22.7843 29.0744C23.1246 28.5634 23.8754 28.5634 24.2157 29.0744L29.1047 36.4132C29.4854 36.9847 29.0757 37.75 28.3889 37.75H18.6111C17.9243 37.75 17.5146 36.9847 17.8953 36.4132L22.7843 29.0744Z" fill="#B27AF6"/>
<path d="M31.7437 27.3973C32.0689 26.7965 32.9311 26.7965 33.2563 27.3973L38.3081 36.7306C38.6183 37.3036 38.2034 38 37.5518 38H27.4482C26.7966 38 26.3817 37.3036 26.6919 36.7306L31.7437 27.3973Z" fill="#B27AF6"/>
<circle cx="27" cy="22" r="2" fill="#B27AF6"/>
</svg>
