<svg width="72" height="72" viewBox="0 0 72 72" fill="none" xmlns="http://www.w3.org/2000/svg">
<circle cx="36" cy="36" r="36" fill="#F3F5FF"/>
<path d="M35.9974 40.25C33.6457 40.25 31.7616 38.3517 31.7616 36L31.7474 27.5C31.7474 25.1483 33.6457 23.25 35.9974 23.25C38.3491 23.25 40.2474 25.1483 40.2474 27.5V36C40.2474 38.3517 38.3491 40.25 35.9974 40.25ZM28.1291 36C28.3279 36 28.4881 36.1616 28.4978 36.3602C28.6944 40.4171 32.1988 43.225 35.9974 43.225C39.796 43.225 43.3004 40.4171 43.497 36.3602C43.5067 36.1616 43.6669 36 43.8657 36H45.5541C45.7529 36 45.9148 36.1616 45.9069 36.3603C45.7253 40.9227 42.1137 44.6702 37.7203 45.4693C37.5449 45.5012 37.4141 45.6519 37.4141 45.8302V49.8067C37.4141 50.0055 37.2529 50.1667 37.0541 50.1667H34.9407C34.7419 50.1667 34.5807 50.0055 34.5807 49.8067V45.8312C34.5807 45.6525 34.4493 45.5015 34.2734 45.47C29.8802 44.6833 26.2689 40.9357 26.0878 36.3603C26.08 36.1616 26.2419 36 26.4407 36H28.1291Z" fill="#B6C1E6"/>
</svg>
