<svg width="14" height="14" viewBox="0 0 14 14" fill="none" xmlns="http://www.w3.org/2000/svg">
<path fill-rule="evenodd" clip-rule="evenodd" d="M6.48391 0.0197713C3.66691 0.235083 1.2545 2.11433 0.365632 4.7859C0.061113 5.70111 -0.0521161 6.60201 0.0219236 7.52068C0.0743405 8.17063 0.164077 8.61445 0.365632 9.22038C1.25795 11.9027 3.7085 13.7978 6.52539 13.9839C8.20189 14.0946 9.80865 13.6271 11.1494 12.6385C12.6858 11.5057 13.6979 9.79235 13.9431 7.90964C14.1161 6.5801 13.9018 5.22262 13.3294 4.0225C12.9552 3.23791 12.5547 2.6676 11.9524 2.06142C10.5191 0.619074 8.50104 -0.134375 6.48391 0.0197713ZM7.78904 1.46974C8.9086 1.61951 10.0053 2.15123 10.8354 2.94665C11.7046 3.77968 12.2217 4.70339 12.4874 5.89766C12.5537 6.19562 12.5647 6.35213 12.5647 7.00314C12.5647 7.65415 12.5537 7.81066 12.4874 8.10862C12.1717 9.52769 11.4478 10.6523 10.2935 11.5168C9.92583 11.7922 9.20275 12.1688 8.76553 12.3127C6.63203 13.0146 4.24325 12.3581 2.78785 10.6697C1.4709 9.14204 1.06984 7.10889 1.70971 5.20418C2.181 3.80116 3.24112 2.60947 4.59676 1.95881C5.58841 1.48286 6.65996 1.31869 7.78904 1.46974ZM6.92007 3.30041C6.70783 3.36599 6.47668 3.55597 6.36342 3.75795C6.26846 3.9273 6.25474 3.98557 6.25544 4.21651C6.25636 4.51302 6.32641 4.68851 6.5219 4.884C6.96198 5.32411 7.70812 5.2246 8.0089 4.68576C8.35349 4.06832 7.9488 3.31819 7.24978 3.27865C7.12925 3.27184 6.98088 3.28165 6.92007 3.30041ZM5.84408 5.83593C5.76824 5.89731 5.7597 5.93523 5.74863 6.26105C5.72852 6.85153 5.77893 6.93259 6.16645 6.93259H6.41336V8.53007C6.41336 10.1167 6.41389 10.1286 6.49273 10.2847C6.5364 10.3711 6.62603 10.4776 6.69196 10.5214C6.80123 10.594 6.85298 10.6011 7.27757 10.6011C7.70252 10.6011 7.75356 10.5941 7.85994 10.5217C7.92407 10.478 8.00975 10.3975 8.05035 10.3428C8.12305 10.2447 8.12428 10.2118 8.13374 8.09984C8.1433 5.97029 8.14287 5.95583 8.06947 5.86249L7.99557 5.76856H6.96145C5.99614 5.76856 5.92182 5.77304 5.84408 5.83593Z" fill="#8CA0FF"/>
</svg>
