<svg width="39" height="38" viewBox="0 0 39 38" fill="none" xmlns="http://www.w3.org/2000/svg">
<path d="M28.9984 35.4518C38.0845 30.2059 41.1976 18.5876 35.9517 9.50158C30.7059 0.415529 19.0877 -2.69756 10.0016 2.54827C0.915537 7.7941 -2.19757 19.4124 3.04828 28.4985C8.2941 37.5845 19.9124 40.6975 28.9984 35.4518Z" fill="#6B85FF"/>
<path fill-rule="evenodd" clip-rule="evenodd" d="M3.93519 30.6945C3.48522 30.0898 3.06602 29.452 2.68101 28.7817C2.21212 27.9656 1.80991 27.129 1.47266 26.2786C1.99023 25.976 2.74565 25.5366 3.80123 24.9242C4.07929 24.7629 4.63538 24.4383 5.03696 24.2029C5.4386 23.9676 6.18426 23.5321 6.69398 23.2351L7.24051 22.9165C7.2192 22.8655 7.19841 22.8151 7.1782 22.7652C6.66348 21.3819 6.39212 19.6483 6.44502 18.0798C6.50571 16.2795 6.83782 14.878 7.57579 13.3082C8.61411 11.0993 10.0676 9.42693 12.1537 8.04078C13.8557 6.90986 15.7195 6.15494 17.3794 5.92401C18.1222 5.82073 19.6545 5.82015 20.4237 5.92291C22.4572 6.19461 24.4389 7.14558 26.2648 8.72604C26.5834 9.00169 27.005 9.40409 27.2019 9.62034C28.1006 10.6071 29.1378 12.0663 29.5407 12.9104C29.9117 13.6879 29.9122 14.4746 29.542 15.2395C29.2576 15.8272 28.8604 16.1892 27.855 16.7765C27.3916 17.0473 26.5069 17.5635 25.8891 17.9237C22.9985 19.6088 22.4956 19.9023 21.3393 20.5785C19.3605 21.736 16.4303 23.4453 16.0032 23.6915C15.7869 23.8161 15.3739 24.058 15.0853 24.2291L14.5605 24.5402L14.7763 24.7651C15.294 25.3046 16.2376 25.898 17.101 26.227C18.1121 26.6123 18.3834 26.6576 19.6823 26.6576C20.7567 26.6576 20.8733 26.6471 21.4236 26.5019C22.1517 26.3097 22.7037 26.097 23.4242 25.7308C25.0639 24.8977 26.2655 23.6276 27.232 21.7057C27.4978 21.1772 27.6166 21.0086 27.9422 20.698C28.7339 19.9427 29.6235 19.6733 30.5762 19.9004C32.1626 20.2786 32.9933 21.6383 32.5197 23.0812C31.7836 25.3239 29.4349 28.198 27.0405 29.7863C26.4622 30.1699 25.2198 30.8168 24.4568 31.1315C21.7922 32.2305 19.0288 32.4463 16.3427 31.7651C15.2668 31.4923 14.0349 30.9825 13.1326 30.4367C11.8824 29.6805 10.4913 28.4347 9.68641 27.3508L9.6809 27.3433L9.64287 27.3655C7.66402 28.5229 4.7339 30.2322 4.30675 30.4784C4.2118 30.5331 4.07888 30.6104 3.93519 30.6945ZM22.0693 12.4274C21.3449 11.9331 20.5969 11.6024 19.7104 11.3845C18.4327 11.0705 16.9815 11.351 15.5499 12.1886C13.6467 13.3021 12.5525 14.6535 12.0678 16.4892C11.8669 17.25 11.814 18.6502 11.9552 19.4711C12.0533 20.0415 12.1039 20.152 12.2235 20.056C12.2856 20.0059 13.1482 19.5004 15.4977 18.1373C15.7757 17.976 16.3318 17.6514 16.7334 17.416C17.135 17.1806 17.8806 16.7451 18.3904 16.4482C18.9002 16.1513 19.7469 15.6571 20.2721 15.35C20.7972 15.043 21.682 14.5266 22.238 14.2027C22.7941 13.8786 23.2693 13.5932 23.2942 13.5685C23.3562 13.5068 22.5493 12.755 22.0693 12.4274Z" fill="white"/>
</svg>
