<svg width="23" height="19" preserveAspectRatio="none" viewBox="0 0 23 19" fill="none" xmlns="http://www.w3.org/2000/svg">
<path d="M8.51 11.3892L22.31 11.3892C22.4365 11.3892 22.54 11.4864 22.54 11.6051V13.1165C22.54 13.2352 22.4365 13.3324 22.31 13.3324L8.51 13.3324C8.3835 13.3324 8.28 13.2352 8.28 13.1165L8.28 11.6051C8.28 11.4864 8.3835 11.3892 8.51 11.3892ZM8.28 5.88352C8.28 5.76477 8.3835 5.66761 8.51 5.66761H22.31C22.4365 5.66761 22.54 5.76477 22.54 5.88352V7.39489C22.54 7.51364 22.4365 7.6108 22.31 7.6108H8.51C8.3835 7.6108 8.28 7.51364 8.28 7.39489V5.88352ZM22.77 19L0.23 19C0.1035 19 0 18.9028 0 18.7841L0 17.2727C0 17.154 0.1035 17.0568 0.23 17.0568L22.77 17.0568C22.8965 17.0568 23 17.154 23 17.2727V18.7841C23 18.9028 22.8965 19 22.77 19ZM22.77 1.94318L0.23 1.94318C0.1035 1.94318 0 1.84602 0 1.72727L0 0.21591C0 0.0971584 0.1035 0 0.23 0L22.77 0C22.8965 0 23 0.0971584 23 0.21591V1.72727C23 1.84602 22.8965 1.94318 22.77 1.94318ZM0.874 5.98878L5.36762 9.31108C5.39788 9.3334 5.42234 9.36189 5.43916 9.39438C5.45598 9.42687 5.46472 9.46253 5.46472 9.49865C5.46472 9.53478 5.45598 9.57043 5.43916 9.60292C5.42234 9.63541 5.39788 9.6639 5.36762 9.68622L0.874 13.0112C0.70725 13.1354 0.46 13.0247 0.46 12.825L0.46 6.1777C0.459985 6.13262 0.473482 6.08845 0.498948 6.05023C0.524414 6.01202 0.560822 5.9813 0.604008 5.96159C0.647195 5.94189 0.695417 5.93399 0.743162 5.93879C0.790907 5.9436 0.836248 5.96092 0.874 5.98878Z" fill="#5C77F2"/>
</svg>
