<svg width="68" height="64" preserveAspectRatio="none" viewBox="0 0 68 64" fill="none" xmlns="http://www.w3.org/2000/svg">
<g filter="url(#filter0_d_11768_51436)">
<path d="M8 4H46C53.732 4 60 10.268 60 18V52H22C14.268 52 8 45.732 8 38V4Z" fill="#FC5555"/>
<path fill-rule="evenodd" clip-rule="evenodd" d="M31.2258 19.0209C30.105 19.0386 27.5813 19.1328 26.6754 19.1907C23.8754 19.3698 23.1547 19.5755 22.3153 20.4347C21.8604 20.9005 21.5806 21.4846 21.416 22.312C20.8315 25.2504 20.8699 31.5639 21.4873 34.0617C21.7636 35.1794 22.5565 36.0626 23.6078 36.4237C24.2411 36.6412 25.8083 36.8079 28.4041 36.9338C30.2245 37.0221 37.8005 37.0221 39.6656 36.9337C41.9374 36.8262 43.2735 36.7048 44.038 36.5366C45.3346 36.2512 46.248 35.2911 46.5455 33.9008C46.895 32.2672 47.0765 29.0479 46.9694 26.3814C46.7983 22.1236 46.4372 20.8497 45.162 20.0043C44.6816 19.6859 44.3598 19.5667 43.6425 19.4416C41.7608 19.1132 36.5525 18.9367 31.2258 19.0209ZM34.7542 26.048C36.5607 27.0775 38.0676 27.9459 38.1031 27.9779C38.1531 28.0231 37.4485 28.4461 34.9508 29.8703C33.1817 30.8791 31.6598 31.7474 31.569 31.7999L31.4037 31.8953V28.0358C31.4037 25.9131 31.4186 24.1763 31.4367 24.1763C31.4549 24.1763 32.9478 25.0186 34.7542 26.048Z" fill="white"/>
</g>
<defs>
<filter id="filter0_d_11768_51436" x="0" y="0" width="68" height="64" filterUnits="userSpaceOnUse" color-interpolation-filters="sRGB">
<feFlood flood-opacity="0" result="BackgroundImageFix"/>
<feColorMatrix in="SourceAlpha" type="matrix" values="0 0 0 0 0 0 0 0 0 0 0 0 0 0 0 0 0 0 127 0" result="hardAlpha"/>
<feOffset dy="4"/>
<feGaussianBlur stdDeviation="4"/>
<feComposite in2="hardAlpha" operator="out"/>
<feColorMatrix type="matrix" values="0 0 0 0 0.360784 0 0 0 0 0.466667 0 0 0 0 0.94902 0 0 0 0.3 0"/>
<feBlend mode="normal" in2="BackgroundImageFix" result="effect1_dropShadow_11768_51436"/>
<feBlend mode="normal" in="SourceGraphic" in2="effect1_dropShadow_11768_51436" result="shape"/>
</filter>
</defs>
</svg>
