<svg width="100" height="100" viewBox="0 0 100 100" fill="none" xmlns="http://www.w3.org/2000/svg">
<g clip-path="url(#clip0_5789_114623)">
<path d="M0 0H100V100H0V0Z" fill="#8CA0FF"/>
<path fill-rule="evenodd" clip-rule="evenodd" d="M23.2294 28.6439C22.5799 29.1225 22.5 31.8708 22.5 53.75C22.5 75.6292 22.5799 78.3775 23.2294 78.8561C24.0985 79.4959 25.3503 79.5509 26.1214 78.983C26.9274 78.3894 26.9274 29.1106 26.1214 28.517C25.3503 27.9491 24.0985 28.0041 23.2294 28.6439ZM31.6696 32.9208C30.9101 33.2467 30.8571 34.6064 30.8571 53.7743V74.2793L32.016 74.6681C32.9734 74.9895 33.3364 74.9491 34.1053 74.437C35.0162 73.8297 35.0357 73.3962 35.0357 53.75C35.0357 34.7439 34.9907 33.6535 34.1865 33.1174C33.212 32.4678 32.8006 32.4356 31.6696 32.9208ZM64.6339 37.3656C63.8785 37.6898 63.8214 38.8386 63.8214 53.7551C63.8214 69.4457 63.8419 69.8037 64.75 70.1617C65.4098 70.4216 65.9474 70.4216 66.6071 70.1617C67.5153 69.8037 67.5357 69.4457 67.5357 53.75C67.5357 38.2361 67.506 37.6925 66.6378 37.3503C65.569 36.929 65.6535 36.9283 64.6339 37.3656ZM15.123 39.173C14.745 39.5084 14.6308 43.6633 14.7181 53.9233C14.83 67.0978 14.9024 68.2361 15.6518 68.5841C16.2442 68.8594 16.6844 68.8594 17.2768 68.5841C18.0261 68.2361 18.0986 67.0978 18.2105 53.9233C18.3358 39.1597 18.2838 38.7059 16.4643 38.7059C16.0163 38.7059 15.4127 38.9162 15.123 39.173ZM40.0268 40.4428C39.2756 40.7649 39.2143 41.7695 39.2143 53.7551C39.2143 66.3685 39.2394 66.7286 40.1429 67.0845C40.8026 67.3444 41.3403 67.3444 42 67.0845C42.9035 66.7286 42.9286 66.3685 42.9286 53.75C42.9286 41.2785 42.8942 40.768 42.0306 40.4275C40.9619 40.0062 41.0464 40.0055 40.0268 40.4428ZM56.2768 40.4428C55.5256 40.7653 55.4643 41.7705 55.4643 53.7743V66.7573L56.6231 67.146C57.5805 67.4674 57.9436 67.4271 58.7124 66.9149C59.6113 66.3159 59.6429 65.869 59.6429 53.75C59.6429 42.031 59.5871 41.168 58.7937 40.6394C57.8191 39.9898 57.4078 39.9577 56.2768 40.4428ZM72.1948 42.4444C71.893 42.8598 71.7143 47.0667 71.7143 53.75C71.7143 60.4333 71.893 64.6402 72.1948 65.0556C72.732 65.7948 74.4828 65.9347 75.3357 65.3066C76.1334 64.7192 76.1334 42.7808 75.3357 42.1934C74.4828 41.5653 72.732 41.7052 72.1948 42.4444ZM6.80714 45.2706C6.40507 45.5667 6.25 47.93 6.25 53.75C6.25 62.2222 6.34797 62.6397 8.33929 62.6397C10.3306 62.6397 10.4286 62.2222 10.4286 53.75C10.4286 45.2778 10.3306 44.8603 8.33929 44.8603C7.80304 44.8603 7.11357 45.045 6.80714 45.2706ZM47.6643 45.2706C47.2622 45.5667 47.1071 47.93 47.1071 53.75C47.1071 62.2222 47.2051 62.6397 49.1964 62.6397C51.1877 62.6397 51.2857 62.2222 51.2857 53.75C51.2857 45.2778 51.1877 44.8603 49.1964 44.8603C48.6602 44.8603 47.9707 45.045 47.6643 45.2706ZM-1.37775 46.7651C-2.46279 47.5645 -2.46279 59.9355 -1.37775 60.7349C-0.508608 61.3746 0.743107 61.4296 1.51429 60.8617C2.30125 60.2822 2.30125 47.2178 1.51429 46.6383C0.743107 46.0703 -0.508608 46.1254 -1.37775 46.7651ZM80.6286 46.6383C79.8416 47.2178 79.8416 60.2822 80.6286 60.8617C81.3997 61.4296 82.6515 61.3746 83.5206 60.7349C84.1321 60.2843 84.25 59.1556 84.25 53.75C84.25 48.3444 84.1321 47.2157 83.5206 46.7651C82.6515 46.1254 81.3997 46.0703 80.6286 46.6383ZM-9.44286 49.7155C-9.80639 49.9832 -10 51.3929 -10 53.7767C-10 57.7921 -9.60629 58.4537 -7.45246 58.0557C-6.2885 57.8403 -6.28571 57.831 -6.28571 53.7801C-6.28571 50.3935 -6.40736 49.6857 -7.02021 49.5127C-8.12243 49.2012 -8.82443 49.26 -9.44286 49.7155ZM89.0089 49.5315C88.5901 49.656 88.4286 50.8376 88.4286 53.7719C88.4286 57.8314 88.4309 57.8403 89.5953 58.0557C91.7491 58.4537 92.1429 57.7921 92.1429 53.7767C92.1429 49.5336 91.5778 48.7684 89.0089 49.5315Z" fill="#6B85FF"/>
<path fill-rule="evenodd" clip-rule="evenodd" d="M23.9442 24.8939C23.2947 25.3725 23.2148 28.1208 23.2148 50C23.2148 71.8792 23.2947 74.6275 23.9442 75.1061C24.8134 75.7459 26.0651 75.8009 26.8363 75.233C27.6423 74.6394 27.6423 25.3606 26.8363 24.767C26.0651 24.1991 24.8134 24.2541 23.9442 24.8939ZM32.3845 29.1708C31.6249 29.4967 31.572 30.8564 31.572 50.0243V70.5293L32.7308 70.9181C33.6882 71.2395 34.0513 71.1991 34.8201 70.687C35.7311 70.0797 35.7506 69.6462 35.7506 50C35.7506 30.9939 35.7055 29.9035 34.9014 29.3674C33.9268 28.7178 33.5155 28.6856 32.3845 29.1708ZM65.3488 33.6156C64.5934 33.9398 64.5363 35.0886 64.5363 50.0051C64.5363 65.6957 64.5567 66.0537 65.4648 66.4117C66.1246 66.6716 66.6622 66.6716 67.322 66.4117C68.2301 66.0537 68.2506 65.6957 68.2506 50C68.2506 34.4861 68.2208 33.9425 67.3526 33.6003C66.2838 33.179 66.3683 33.1783 65.3488 33.6156ZM15.8378 35.423C15.4599 35.7584 15.3457 39.9133 15.433 50.1733C15.5448 63.3478 15.6173 64.4861 16.3666 64.8341C16.9591 65.1094 17.3992 65.1094 17.9916 64.8341C18.741 64.4861 18.8134 63.3478 18.9253 50.1733C19.0507 35.4097 18.9987 34.9559 17.1791 34.9559C16.7311 34.9559 16.1275 35.1662 15.8378 35.423ZM40.7416 36.6928C39.9904 37.0149 39.9291 38.0195 39.9291 50.0051C39.9291 62.6185 39.9542 62.9786 40.8577 63.3345C41.5174 63.5944 42.0551 63.5944 42.7148 63.3345C43.6183 62.9786 43.6434 62.6185 43.6434 50C43.6434 37.5285 43.6091 37.018 42.7455 36.6775C41.6767 36.2562 41.7612 36.2555 40.7416 36.6928ZM56.9916 36.6928C56.2404 37.0153 56.1791 38.0205 56.1791 50.0243V63.0073L57.338 63.396C58.2953 63.7174 58.6584 63.6771 59.4273 63.1649C60.3261 62.5659 60.3577 62.119 60.3577 50C60.3577 38.281 60.302 37.418 59.5085 36.8894C58.534 36.2398 58.1226 36.2077 56.9916 36.6928ZM72.9097 38.6944C72.6079 39.1098 72.4291 43.3167 72.4291 50C72.4291 56.6833 72.6079 60.8902 72.9097 61.3056C73.4468 62.0448 75.1977 62.1847 76.0506 61.5566C76.8482 60.9692 76.8482 39.0308 76.0506 38.4434C75.1977 37.8153 73.4468 37.9552 72.9097 38.6944ZM7.52199 41.5206C7.11992 41.8167 6.96484 44.18 6.96484 50C6.96484 58.4722 7.06281 58.8897 9.05413 58.8897C11.0455 58.8897 11.1434 58.4722 11.1434 50C11.1434 41.5278 11.0455 41.1103 9.05413 41.1103C8.51788 41.1103 7.82841 41.295 7.52199 41.5206ZM48.3791 41.5206C47.9771 41.8167 47.822 44.18 47.822 50C47.822 58.4722 47.9199 58.8897 49.9113 58.8897C51.9026 58.8897 52.0006 58.4722 52.0006 50C52.0006 41.5278 51.9026 41.1103 49.9113 41.1103C49.375 41.1103 48.6856 41.295 48.3791 41.5206ZM-0.662907 43.0151C-1.74794 43.8145 -1.74794 56.1855 -0.662907 56.9849C0.206236 57.6246 1.45795 57.6796 2.22913 57.1117C3.01609 56.5322 3.01609 43.4678 2.22913 42.8883C1.45795 42.3203 0.206236 42.3754 -0.662907 43.0151ZM81.3434 42.8883C80.5564 43.4678 80.5564 56.5322 81.3434 57.1117C82.1146 57.6796 83.3663 57.6246 84.2355 56.9849C84.8469 56.5343 84.9648 55.4056 84.9648 50C84.9648 44.5944 84.8469 43.4657 84.2355 43.0151C83.3663 42.3754 82.1146 42.3203 81.3434 42.8883ZM-8.72801 45.9655C-9.09155 46.2332 -9.28516 47.6429 -9.28516 50.0267C-9.28516 54.0421 -8.89144 54.7037 -6.73762 54.3057C-5.57366 54.0903 -5.57087 54.081 -5.57087 50.0301C-5.57087 46.6435 -5.69251 45.9357 -6.30537 45.7627C-7.40759 45.4512 -8.10958 45.51 -8.72801 45.9655ZM89.7238 45.7815C89.305 45.906 89.1434 47.0876 89.1434 50.0219C89.1434 54.0814 89.1457 54.0903 90.3102 54.3057C92.464 54.7037 92.8577 54.0421 92.8577 50.0267C92.8577 45.7836 92.2927 45.0184 89.7238 45.7815Z" fill="white"/>
</g>
<defs>
<clipPath id="clip0_5789_114623">
<rect width="100" height="100" fill="white"/>
</clipPath>
</defs>
</svg>
