<svg width="100" height="100" viewBox="0 0 100 100" fill="none" xmlns="http://www.w3.org/2000/svg">
<path d="M0 0H100V100H0V0Z" fill="#8CA0FF"/>
<rect x="25" y="41.0417" width="50.7143" height="12.5" rx="1.8" fill="#F8FAFF" stroke="#6B85FF" stroke-width="1.8" stroke-linecap="round"/>
<path d="M55.2382 44.7917L50.0001 49.3751L47.6191 47.2917" stroke="#5C77F2" stroke-width="1.8" stroke-linecap="round" stroke-linejoin="round"/>
<rect x="25" y="56.0417" width="50.7143" height="12.5" rx="1.8" fill="#F3F5FF"/>
<rect x="25" y="71.0417" width="50.7143" height="12.5" rx="1.8" fill="#F3F5FF"/>
<path d="M26.7392 27.5833V19.0014H29.882C30.491 19.0014 30.9952 19.102 31.3947 19.3031C31.7942 19.5015 32.0931 19.7711 32.2914 20.1119C32.4898 20.4499 32.5889 20.8312 32.5889 21.2558C32.5889 21.6134 32.5233 21.9151 32.392 22.161C32.2607 22.404 32.0847 22.5995 31.864 22.7476C31.6461 22.8929 31.4059 22.999 31.1433 23.0661V23.1499C31.4282 23.1638 31.7062 23.256 31.9771 23.4264C32.2509 23.594 32.4772 23.8329 32.656 24.143C32.8348 24.4531 32.9242 24.8302 32.9242 25.2744C32.9242 25.713 32.8208 26.1069 32.6141 26.4561C32.4101 26.8025 32.0945 27.0776 31.6671 27.2815C31.2396 27.4827 30.6935 27.5833 30.0286 27.5833H26.7392ZM28.034 26.4728H29.9029C30.5231 26.4728 30.9673 26.3527 31.2354 26.1124C31.5036 25.8722 31.6377 25.5719 31.6377 25.2115C31.6377 24.9405 31.5693 24.6919 31.4324 24.4656C31.2955 24.2394 31.1 24.0592 30.8457 23.9251C30.5943 23.791 30.2954 23.7239 29.949 23.7239H28.034V26.4728ZM28.034 22.7141H29.7688C30.0594 22.7141 30.3206 22.6582 30.5524 22.5465C30.7871 22.4347 30.9729 22.2783 31.1097 22.0771C31.2494 21.8732 31.3193 21.633 31.3193 21.3564C31.3193 21.0016 31.1949 20.7041 30.9463 20.4639C30.6977 20.2236 30.3164 20.1035 29.8024 20.1035H28.034V22.7141ZM38.4366 24.914V21.1469H39.6937V27.5833H38.4617V26.4686H38.3946C38.2466 26.8122 38.0091 27.0986 37.6823 27.3276C37.3582 27.5539 36.9546 27.6671 36.4713 27.6671C36.0578 27.6671 35.6919 27.5763 35.3734 27.3947C35.0577 27.2103 34.8091 26.9379 34.6275 26.5776C34.4487 26.2172 34.3593 25.7716 34.3593 25.2409V21.1469H35.6123V25.09C35.6123 25.5286 35.7338 25.8778 35.9768 26.1376C36.2199 26.3974 36.5355 26.5273 36.9238 26.5273C37.1585 26.5273 37.3918 26.4686 37.6236 26.3513C37.8583 26.234 38.0524 26.0566 38.2061 25.8191C38.3625 25.5817 38.4393 25.28 38.4366 24.914ZM44.3816 21.1469V22.1526H40.8659V21.1469H44.3816ZM41.8087 19.6048H43.0616V25.6934C43.0616 25.9364 43.098 26.1194 43.1706 26.2423C43.2432 26.3625 43.3368 26.4449 43.4513 26.4896C43.5687 26.5315 43.6958 26.5524 43.8327 26.5524C43.9332 26.5524 44.0212 26.5454 44.0967 26.5315C44.1721 26.5175 44.2307 26.5063 44.2726 26.498L44.4989 27.533C44.4263 27.5609 44.3229 27.5888 44.1888 27.6168C44.0548 27.6475 43.8871 27.6643 43.686 27.6671C43.3564 27.6726 43.0491 27.614 42.7641 27.4911C42.4792 27.3681 42.2487 27.1782 42.0727 26.9212C41.8967 26.6642 41.8087 26.3415 41.8087 25.9532V19.6048ZM48.772 21.1469V22.1526H45.2563V21.1469H48.772ZM46.1992 19.6048H47.4521V25.6934C47.4521 25.9364 47.4884 26.1194 47.561 26.2423C47.6337 26.3625 47.7272 26.4449 47.8418 26.4896C47.9591 26.5315 48.0862 26.5524 48.2231 26.5524C48.3237 26.5524 48.4117 26.5454 48.4871 26.5315C48.5625 26.5175 48.6212 26.5063 48.6631 26.498L48.8894 27.533C48.8167 27.5609 48.7134 27.5888 48.5793 27.6168C48.4452 27.6475 48.2776 27.6643 48.0764 27.6671C47.7468 27.6726 47.4395 27.614 47.1546 27.4911C46.8696 27.3681 46.6391 27.1782 46.4631 26.9212C46.2872 26.6642 46.1992 26.3415 46.1992 25.9532V19.6048ZM52.8628 27.7132C52.2287 27.7132 51.6826 27.5777 51.2244 27.3067C50.7691 27.0329 50.4171 26.6488 50.1685 26.1543C49.9226 25.6571 49.7997 25.0746 49.7997 24.407C49.7997 23.7477 49.9226 23.1666 50.1685 22.6638C50.4171 22.161 50.7635 21.7685 51.2077 21.4863C51.6546 21.2042 52.177 21.0631 52.7748 21.0631C53.138 21.0631 53.49 21.1231 53.8308 21.2433C54.1716 21.3634 54.4775 21.552 54.7485 21.809C55.0195 22.066 55.2332 22.3998 55.3896 22.8105C55.5461 23.2183 55.6243 23.7142 55.6243 24.298V24.7422H50.5079V23.8036H54.3965C54.3965 23.4739 54.3295 23.182 54.1954 22.9278C54.0613 22.6708 53.8727 22.4682 53.6297 22.3202C53.3894 22.1721 53.1073 22.0981 52.7832 22.0981C52.4312 22.0981 52.1239 22.1847 51.8614 22.3579C51.6016 22.5283 51.4004 22.7518 51.2579 23.0284C51.1183 23.3021 51.0484 23.5996 51.0484 23.9209V24.6542C51.0484 25.0844 51.1239 25.4504 51.2747 25.7521C51.4284 26.0538 51.6421 26.2842 51.9158 26.4435C52.1896 26.5999 52.5095 26.6781 52.8754 26.6781C53.1129 26.6781 53.3294 26.6446 53.5249 26.5776C53.7205 26.5077 53.8895 26.4044 54.032 26.2675C54.1744 26.1306 54.2834 25.9616 54.3588 25.7605L55.5447 25.9742C55.4497 26.3234 55.2793 26.6293 55.0334 26.8918C54.7904 27.1516 54.4845 27.3542 54.1158 27.4994C53.7498 27.6419 53.3322 27.7132 52.8628 27.7132ZM57.0144 27.5833V21.1469H58.2254V22.1693H58.2925C58.4098 21.8229 58.6165 21.5506 58.9127 21.3522C59.2116 21.1511 59.5496 21.0505 59.9267 21.0505C60.0049 21.0505 60.0971 21.0533 60.2033 21.0589C60.3122 21.0645 60.3974 21.0715 60.4589 21.0798V22.2783C60.4086 22.2643 60.3192 22.2489 60.1907 22.2322C60.0622 22.2126 59.9337 22.2029 59.8052 22.2029C59.5091 22.2029 59.2451 22.2657 59.0132 22.3914C58.7841 22.5143 58.6026 22.6861 58.4685 22.9068C58.3344 23.1247 58.2673 23.3734 58.2673 23.6527V27.5833H57.0144ZM64.9866 21.1469V22.1526H61.3493V21.1469H64.9866ZM62.3466 27.5833V20.401C62.3466 19.9987 62.4346 19.6649 62.6106 19.3995C62.7866 19.1313 63.0199 18.9316 63.3104 18.8003C63.6009 18.6662 63.9166 18.5992 64.2574 18.5992C64.5089 18.5992 64.724 18.6201 64.9027 18.662C65.0815 18.7011 65.2142 18.7374 65.3008 18.771L65.0075 19.785C64.9488 19.7683 64.8734 19.7487 64.7812 19.7264C64.689 19.7012 64.5773 19.6886 64.446 19.6886C64.1415 19.6886 63.9236 19.7641 63.7923 19.9149C63.6638 20.0658 63.5995 20.2837 63.5995 20.5686V27.5833H62.3466ZM67.5322 19.0014V27.5833H66.2793V19.0014H67.5322ZM70.0097 29.9969C69.8226 29.9969 69.6521 29.9815 69.4985 29.9508C69.3449 29.9229 69.2303 29.8921 69.1549 29.8586L69.4566 28.832C69.6857 28.8934 69.8896 28.92 70.0684 28.9116C70.2472 28.9032 70.405 28.8362 70.5419 28.7105C70.6816 28.5847 70.8045 28.3794 70.9106 28.0945L71.0657 27.6671L68.7107 21.1469H70.0516L71.6817 26.1418H71.7487L73.3788 21.1469H74.7239L72.0714 28.4423C71.9485 28.7775 71.792 29.061 71.6021 29.2929C71.4121 29.5276 71.1858 29.7036 70.9232 29.8209C70.6606 29.9382 70.3561 29.9969 70.0097 29.9969Z" fill="#F8FAFF"/>
</svg>
