<svg width="100" height="100" viewBox="0 0 100 100" fill="none" xmlns="http://www.w3.org/2000/svg">
<path d="M0 0H100V100H0V0Z" fill="#8CA0FF"/>
<rect x="11.8965" y="38.4316" width="12.48" height="12.3912" rx="1.89669" fill="#6B85FF"/>
<rect x="42.0566" y="38.4316" width="12.48" height="12.3912" rx="1.89669" fill="#6B85FF"/>
<rect x="27.4941" y="38.4316" width="12.48" height="12.3912" rx="1.89669" fill="#6B85FF"/>
<rect x="56.6152" y="38.4316" width="12.48" height="12.3912" rx="1.89669" fill="#6B85FF"/>
<rect x="72.2148" y="38.4316" width="12.48" height="12.3912" rx="1.89669" fill="#6B85FF"/>
<rect x="21.2559" y="10.4536" width="53.0399" height="4.13041" rx="2.06521" fill="#F3F5FF"/>
<rect x="12.9355" y="17.6819" width="65.5199" height="4.13041" rx="2.06521" fill="#F3F5FF"/>
<rect x="12.9355" y="23.8774" width="22.88" height="4.13041" rx="2.06521" fill="#F3F5FF"/>
<rect width="12.4465" height="12.4243" rx="1.89669" transform="matrix(0.934025 -0.357188 0.35451 0.935045 12.9375 74.5867)" fill="#F3F5FF"/>
<path d="M21.9673 81.9608C21.6816 82.0701 21.4018 82.1154 21.128 82.0967C20.8535 82.076 20.6088 81.989 20.3938 81.8357C20.178 81.6804 20.0144 81.4558 19.903 81.1619C19.8049 80.9033 19.7764 80.6741 19.8172 80.4746C19.8573 80.273 19.9451 80.0936 20.0804 79.9364C20.2158 79.7792 20.3777 79.6388 20.5661 79.5151C20.7557 79.3888 20.9501 79.2718 21.1491 79.1643C21.4097 79.0243 21.6218 78.9129 21.7854 78.8301C21.9502 78.7446 22.0632 78.6644 22.1244 78.5894C22.1876 78.5137 22.198 78.4199 22.1557 78.3083L22.1468 78.2847C22.0368 77.9948 21.8721 77.7998 21.6527 77.6997C21.4352 77.5989 21.1669 77.6095 20.8479 77.7315C20.5171 77.858 20.2853 78.0297 20.1524 78.2465C20.0194 78.4634 19.946 78.6687 19.9321 78.8625L19.1853 78.8788C19.1988 78.5596 19.2744 78.2862 19.4121 78.0585C19.5511 77.8281 19.7256 77.638 19.9354 77.4882C20.1465 77.3357 20.3656 77.216 20.5926 77.1292C20.7375 77.0738 20.9105 77.0278 21.1118 76.9912C21.3143 76.9519 21.5236 76.9515 21.7399 76.99C21.9581 77.0277 22.1664 77.1308 22.3648 77.2995C22.5632 77.4682 22.7304 77.7318 22.8664 78.0903L23.994 81.0646L23.3012 81.3296L23.0694 80.7183L23.0342 80.7317C23.0243 80.8477 22.9858 80.9824 22.9185 81.136C22.8513 81.2896 22.7415 81.4404 22.5892 81.5884C22.4369 81.7364 22.2296 81.8605 21.9673 81.9608ZM21.8368 81.2973C22.1108 81.1925 22.3213 81.0503 22.4683 80.8707C22.6173 80.6903 22.7075 80.4966 22.7387 80.2895C22.772 80.0816 22.7529 79.8836 22.6816 79.6955L22.4409 79.0606C22.4249 79.1071 22.3726 79.1642 22.2839 79.2317C22.1965 79.2966 22.0922 79.3645 21.9712 79.4354C21.8515 79.5037 21.7339 79.5689 21.6185 79.6309C21.5043 79.6903 21.4118 79.7391 21.3412 79.7773C21.17 79.8697 21.0162 79.9723 20.8797 80.0851C20.7444 80.1951 20.6485 80.3204 20.5919 80.461C20.5366 80.5988 20.5424 80.7559 20.6092 80.9322C20.7006 81.1732 20.8587 81.3214 21.0836 81.3767C21.3098 81.4293 21.5608 81.4028 21.8368 81.2973Z" fill="#6B85FF"/>
<rect x="31.6562" y="63.2468" width="12.48" height="12.3912" rx="1.89669" fill="#F3F5FF"/>
<path d="M35.927 73.2468V66.8096H36.6688V69.1858H36.7317C36.7862 69.102 36.8616 68.9951 36.958 68.8652C37.0565 68.7332 37.1969 68.6159 37.3792 68.5132C37.5636 68.4084 37.8129 68.356 38.1273 68.356C38.5338 68.356 38.8921 68.4577 39.2022 68.6609C39.5124 68.8642 39.7544 69.1523 39.9283 69.5253C40.1022 69.8983 40.1892 70.3383 40.1892 70.8454C40.1892 71.3567 40.1022 71.7999 39.9283 72.175C39.7544 72.548 39.5134 72.8372 39.2054 73.0425C38.8973 73.2458 38.5422 73.3474 38.1398 73.3474C37.8297 73.3474 37.5814 73.2961 37.3949 73.1934C37.2084 73.0886 37.0649 72.9702 36.9643 72.8382C36.8637 72.7041 36.7862 72.593 36.7317 72.505H36.6437V73.2468H35.927ZM36.6562 70.8329C36.6562 71.1975 36.7097 71.5191 36.8166 71.7978C36.9234 72.0744 37.0795 72.2913 37.2849 72.4485C37.4902 72.6035 37.7417 72.6811 38.0393 72.6811C38.3494 72.6811 38.6082 72.5993 38.8156 72.4359C39.0252 72.2703 39.1823 72.0482 39.2871 71.7695C39.394 71.4887 39.4474 71.1765 39.4474 70.8329C39.4474 70.4934 39.395 70.1875 39.2902 69.915C39.1876 69.6405 39.0315 69.4237 38.8219 69.2644C38.6145 69.1031 38.3536 69.0224 38.0393 69.0224C37.7375 69.0224 37.484 69.0989 37.2786 69.2518C37.0732 69.4027 36.9182 69.6144 36.8134 69.8868C36.7086 70.1571 36.6562 70.4724 36.6562 70.8329Z" fill="#6B85FF"/>
<rect width="12.463" height="12.4081" rx="1.89669" transform="matrix(0.984685 0.174322 -0.172521 0.985002 46.2285 74.6055)" fill="#F3F5FF"/>
<path d="M50.7876 85.6702C50.3419 85.5913 49.9766 85.4181 49.6915 85.1505C49.4065 84.883 49.2097 84.5492 49.1011 84.149C48.9925 83.7489 48.9798 83.3115 49.0629 82.8367C49.1475 82.3538 49.3109 81.9432 49.553 81.6052C49.7976 81.2654 50.0981 81.0196 50.4544 80.8678C50.8132 80.7143 51.2071 80.6755 51.6363 80.7515C51.9706 80.8106 52.261 80.9259 52.5075 81.0972C52.7541 81.2685 52.9435 81.4808 53.0757 81.7341C53.2079 81.9873 53.2686 82.2662 53.2578 82.5707L52.5274 82.4414C52.5096 82.2148 52.4195 82.0009 52.2569 81.7998C52.0967 81.5969 51.8556 81.467 51.5337 81.41C51.249 81.3596 50.9863 81.3897 50.7457 81.5003C50.5075 81.6092 50.3051 81.7873 50.1384 82.0344C49.9742 82.2798 49.8606 82.5821 49.7977 82.9413C49.7333 83.3087 49.7351 83.6388 49.8029 83.9317C49.8728 84.225 50.0008 84.4658 50.1869 84.6541C50.3751 84.8428 50.6137 84.9627 50.9026 85.0138C51.0924 85.0474 51.2705 85.0449 51.4368 85.0062C51.6031 84.9676 51.7508 84.8958 51.8797 84.791C52.0087 84.6861 52.1111 84.551 52.1869 84.3857L52.9173 84.515C52.8269 84.7884 52.6804 85.0232 52.478 85.2193C52.278 85.4137 52.0334 85.5534 51.7441 85.6384C51.4572 85.7217 51.1384 85.7323 50.7876 85.6702Z" fill="#6B85FF"/>
<rect width="12.4409" height="12.4298" rx="1.89669" transform="matrix(0.896063 0.443914 -0.441142 0.89743 75.3535 71.5078)" fill="#F3F5FF"/>
<path d="M76.2506 83.2242C75.89 83.0456 75.6166 82.7967 75.4303 82.4776C75.2448 82.1565 75.1565 81.7901 75.1652 81.3781C75.1748 80.9643 75.2924 80.528 75.5179 80.0691C75.7416 79.614 76.0137 79.2577 76.3341 79.0002C76.6545 78.7427 76.9984 78.5915 77.366 78.5468C77.7336 78.502 78.0995 78.5699 78.4637 78.7504C78.7454 78.8899 78.9448 79.0471 79.0619 79.2221C79.1818 79.3961 79.2559 79.5637 79.284 79.725C79.315 79.8853 79.3363 80.0152 79.3482 80.1146L79.4045 80.1425L80.4528 78.01L81.1175 78.3392L78.2777 84.1162L77.6356 83.7981L77.9628 83.1324L77.884 83.0933C77.7963 83.1481 77.6778 83.2134 77.5286 83.2891C77.3802 83.3629 77.1993 83.4054 76.986 83.4167C76.7736 83.426 76.5285 83.3619 76.2506 83.2242ZM76.6346 82.6708C76.9013 82.8029 77.1608 82.845 77.4132 82.797C77.6665 82.7471 77.9021 82.6218 78.1199 82.421C78.3386 82.2183 78.5284 81.9534 78.6892 81.6262C78.8482 81.3027 78.9404 80.9964 78.9658 80.7073C78.992 80.4163 78.9465 80.1576 78.829 79.931C78.7125 79.7026 78.519 79.5214 78.2486 79.3874C77.967 79.2479 77.6967 79.204 77.4377 79.2558C77.1816 79.3066 76.946 79.432 76.7311 79.6318C76.5189 79.8307 76.3379 80.0825 76.1882 80.3871C76.0366 80.6955 75.9458 80.999 75.9158 81.2975C75.8886 81.595 75.9314 81.8641 76.0443 82.1048C76.16 82.3445 76.3567 82.5332 76.6346 82.6708Z" fill="#6B85FF"/>
<rect width="12.453" height="12.418" rx="1.89669" transform="matrix(0.960254 -0.279106 0.276679 0.960956 55.5742 63.2307)" fill="#F3F5FF"/>
<path d="M64.4701 71.1636C64.0234 71.2934 63.6096 71.3067 63.2289 71.2035C62.8495 71.0978 62.521 70.8921 62.2433 70.5866C61.9671 70.2785 61.7605 69.8868 61.6237 69.4116C61.4869 68.9363 61.4528 68.4924 61.5215 68.0796C61.5916 67.6642 61.7534 67.3096 62.0067 67.0155C62.2614 66.7189 62.5981 66.5098 63.0166 66.3881C63.2581 66.3179 63.5081 66.2889 63.7667 66.301C64.0254 66.3131 64.2773 66.3817 64.5227 66.5068C64.7674 66.6299 64.9898 66.8227 65.1897 67.0854C65.3896 67.3481 65.5519 67.6959 65.6766 68.1288L65.7635 68.4309L62.1899 69.4696L62.0125 68.8534L64.8617 68.0252C64.7864 67.7635 64.6668 67.5451 64.503 67.3701C64.3413 67.1945 64.1477 67.0751 63.9224 67.0119C63.699 66.9481 63.4585 66.9536 63.201 67.0284C62.9173 67.1109 62.6921 67.2527 62.5254 67.4539C62.3602 67.6525 62.2544 67.8797 62.2081 68.1354C62.1618 68.391 62.1754 68.6467 62.2491 68.9025L62.3673 69.3133C62.4682 69.6636 62.6141 69.9431 62.805 70.1517C62.9973 70.3576 63.2204 70.4924 63.4742 70.5561C63.7275 70.6178 63.998 70.6068 64.2857 70.5232C64.4728 70.4688 64.6343 70.3935 64.7702 70.2973C64.9074 70.1985 65.016 70.0796 65.096 69.9407C65.1753 69.7998 65.222 69.6401 65.236 69.4614L65.9798 69.4547C65.9746 69.7094 65.912 69.9501 65.792 70.177C65.6714 70.4019 65.4996 70.6003 65.2765 70.7721C65.0528 70.9418 64.784 71.0723 64.4701 71.1636Z" fill="#6B85FF"/>
</svg>
