<svg width="49" height="56" viewBox="0 0 49 56" fill="none" xmlns="http://www.w3.org/2000/svg">
<g clip-path="url(#clip0_7380_159389)">
<path d="M0 3C0 1.34314 1.34315 0 3 0H46C47.6569 0 49 1.34315 49 3V53C49 54.6569 47.6569 56 46 56H3C1.34314 56 0 54.6569 0 53V3Z" fill="#8CA0FF"/>
<path d="M25.0002 16.8555C22.7893 16.8555 20.7818 17.035 19.3757 17.3109C18.8274 17.4197 18.4029 17.5453 18.0757 17.6655C18.4029 17.7858 18.8274 17.9114 19.3757 18.0202C20.7818 18.2961 22.7893 18.4756 25.0002 18.4756C27.211 18.4756 29.2185 18.2961 30.6246 18.0202C31.1729 17.9114 31.5974 17.7858 31.9246 17.6655C31.5974 17.5453 31.1729 17.4197 30.6246 17.3109C29.2185 17.035 27.211 16.8555 25.0002 16.8555ZM16.0859 17.3251C14.3968 18.1121 13.4859 19.6261 13.7158 21.1349C13.8927 22.2244 14.6797 23.214 15.9267 23.7278C16.643 24.0285 17.5097 24.1876 18.5267 24.1788C19.7029 26.3632 21.2947 28.1672 23.0015 29.0074V32.8897C21.4981 33.8006 20.4988 35.6931 19.5172 37.6387C22.9485 38.5142 27.0607 38.47 30.4743 37.6298C29.5015 35.6842 28.4934 33.8006 26.9988 32.8897V29.0074C28.7056 28.1672 30.2974 26.3632 31.4736 24.1788C32.4906 24.1876 33.3573 24.0285 34.0736 23.7278C35.3206 23.214 36.1076 22.2244 36.2845 21.1349C36.5144 19.6261 35.6036 18.1121 33.9144 17.3251C33.9498 17.4312 33.9675 17.5444 33.9675 17.6655C33.9675 18.0502 33.7641 18.3651 33.5519 18.5632C33.3485 18.7613 33.1185 18.893 32.8621 19.0124C32.3491 19.2512 31.7036 19.4298 30.9253 19.5819C29.3777 19.8879 27.2995 20.0674 25.0002 20.0674C22.7008 20.0674 20.6226 19.8879 19.075 19.5819C18.2968 19.4298 17.6512 19.2512 17.1383 19.0124C16.8818 18.893 16.6519 18.7613 16.4485 18.5632C16.2362 18.3651 16.0328 18.0502 16.0328 17.6655C16.0328 17.5444 16.0505 17.4312 16.0859 17.3251ZM16.6695 18.7674C16.8729 20.0356 17.2444 21.3241 17.7573 22.5472C17.2621 22.4985 16.8641 22.3959 16.5369 22.2606C15.7056 21.9157 15.3695 21.409 15.29 20.889C15.1838 20.1877 15.5818 19.2839 16.6695 18.7674ZM33.3308 18.7674C34.4185 19.2839 34.8165 20.1877 34.7104 20.889C34.6308 21.409 34.2947 21.9157 33.4634 22.2606C33.1362 22.3959 32.7382 22.4985 32.243 22.5472C32.7559 21.3241 33.1274 20.0356 33.3308 18.7674Z" fill="#F8FAFF"/>
</g>
<defs>
<clipPath id="clip0_7380_159389">
<rect width="49" height="56" fill="white"/>
</clipPath>
</defs>
</svg>
