<svg width="49" height="56" viewBox="0 0 49 56" fill="none" xmlns="http://www.w3.org/2000/svg">
<g clip-path="url(#clip0_7363_161384)">
<path d="M0 3C0 1.34314 1.34315 0 3 0H46C47.6569 0 49 1.34315 49 3V53C49 54.6569 47.6569 56 46 56H3C1.34314 56 0 54.6569 0 53V3Z" fill="#8CA0FF"/>
<path d="M31.0268 29.5664C32.0355 28.7657 32.0355 27.2343 31.0268 26.4336L23.1526 20.1826C21.8419 19.1421 19.9091 20.0755 19.9091 21.749L19.9091 34.251C19.9091 35.9245 21.8419 36.8579 23.1526 35.8174L31.0268 29.5664Z" fill="white"/>
</g>
<defs>
<clipPath id="clip0_7363_161384">
<rect width="49" height="56" fill="white"/>
</clipPath>
</defs>
</svg>
