<svg width="28" height="17" viewBox="0 0 28 17" fill="none" xmlns="http://www.w3.org/2000/svg">
<path d="M27.3337 8.24034C27.3337 12.7954 23.6484 16.4807 19.0933 16.4807C17.1706 16.4807 15.4081 15.8169 14.0118 14.7182C15.9345 13.2074 17.1477 10.8727 17.1477 8.24034C17.1477 5.60801 15.9116 3.27325 14.0118 1.76252C15.4081 0.663808 17.1706 0 19.0933 0C23.6484 0 27.3337 3.70816 27.3337 8.24034Z" fill="#F79E1B"/>
<path d="M14.0118 1.76252C14.0118 1.76252 14.0118 1.76252 14.0118 1.76252C15.9116 3.27325 17.1477 5.60801 17.1477 8.24034C17.1477 10.8727 15.9345 13.2074 14.0118 14.7182L13.9888 14.7182C12.089 13.2303 10.853 10.8727 10.853 8.24039C10.853 5.60806 12.089 3.2733 13.9889 1.76257C13.9888 1.76255 13.9889 1.76258 13.9889 1.76257L14.0118 1.76252Z" fill="#FF5F00"/>
<path d="M10.853 8.24039C10.853 5.60806 12.089 3.2733 13.9889 1.76257C12.5926 0.663855 10.8301 3.56038e-05 8.90734 3.56038e-05C4.35226 3.56038e-05 0.666992 3.6853 0.666992 8.24038C0.666992 12.7955 4.35226 16.4807 8.90734 16.4807C10.8301 16.4807 12.5925 15.8169 13.9888 14.7182C12.089 13.2303 10.853 10.8727 10.853 8.24039Z" fill="#EB001B"/>
</svg>
