<svg width="26" height="7" viewBox="0 0 26 7" fill="none" xmlns="http://www.w3.org/2000/svg">
<path fill-rule="evenodd" clip-rule="evenodd" d="M3.35593 0.000696314H1.39656C1.26248 0.000696314 1.14844 0.0981342 1.12753 0.230438L0.335063 5.25427C0.319312 5.35343 0.396092 5.44278 0.496658 5.44278H1.43208C1.56616 5.44278 1.6802 5.34534 1.7011 5.21278L1.91484 3.85779C1.93546 3.72509 2.04978 3.62778 2.18358 3.62778H2.80385C4.09455 3.62778 4.83941 3.00325 5.03405 1.76572C5.12169 1.22431 5.03776 0.798893 4.78412 0.500878C4.5057 0.17383 4.01169 0.000696314 3.35593 0.000696314ZM3.58198 1.83558C3.47486 2.53859 2.93765 2.5386 2.41823 2.5386H2.12255L2.32998 1.22563C2.3423 1.14636 2.41105 1.08789 2.49128 1.08789H2.62679C2.98062 1.08789 3.31443 1.08789 3.48692 1.28953C3.58967 1.4099 3.62123 1.58861 3.58198 1.83558ZM9.21297 1.81305H8.27467C8.19472 1.81305 8.12565 1.87151 8.11332 1.95092L8.07182 2.21327L8.00619 2.11822C7.80307 1.82339 7.35016 1.72489 6.89805 1.72489C5.86111 1.72489 4.97558 2.51009 4.80308 3.61161C4.71346 4.16097 4.84087 4.68634 5.15258 5.05276C5.43856 5.38962 5.84772 5.53001 6.33443 5.53001C7.16985 5.53001 7.63323 4.99284 7.63323 4.99284L7.59133 5.25361C7.57555 5.3533 7.65232 5.44265 7.75229 5.44265H8.59751C8.73195 5.44265 8.84531 5.34521 8.86653 5.21264L9.37366 2.00156C9.3897 1.90279 9.3132 1.81305 9.21297 1.81305ZM7.90502 3.63905C7.81447 4.17502 7.38901 4.53482 6.84647 4.53482C6.57401 4.53482 6.35618 4.44745 6.21643 4.28188C6.07775 4.11749 6.02498 3.88337 6.06913 3.62274C6.15372 3.09128 6.58634 2.71982 7.12066 2.71982C7.38702 2.71982 7.60366 2.80824 7.74632 2.97528C7.88925 3.14404 7.94599 3.37948 7.90502 3.63905ZM13.2673 1.81291H14.2102C14.3423 1.81291 14.4193 1.96099 14.3442 2.0693L11.2082 6.59547C11.1574 6.66878 11.0738 6.71239 10.9844 6.71239H10.0427C9.9101 6.71239 9.83267 6.56312 9.90943 6.45455L10.8859 5.07636L9.84738 2.02887C9.81145 1.92294 9.88968 1.81291 10.0024 1.81291H10.9289C11.0493 1.81291 11.1555 1.89192 11.1902 2.00713L11.7414 3.84771L13.0419 1.93236C13.0928 1.85759 13.1774 1.81291 13.2673 1.81291Z" fill="#253B80"/>
<path fill-rule="evenodd" clip-rule="evenodd" d="M23.4908 5.25384L24.2949 0.138137C24.3073 0.0587285 24.3761 0.000265138 24.456 0H25.3613C25.4613 0 25.5381 0.0896163 25.5223 0.188778L24.7293 5.21234C24.7086 5.34491 24.5946 5.44235 24.4603 5.44235H23.6518C23.5518 5.44235 23.475 5.353 23.4908 5.25384ZM17.3324 0.000265498H15.3727C15.2389 0.000265498 15.1249 0.0977034 15.1039 0.230007L14.3115 5.25384C14.2957 5.353 14.3725 5.44235 14.4726 5.44235H15.4781C15.5716 5.44235 15.6515 5.37421 15.6661 5.28141L15.891 3.85736C15.9116 3.72466 16.0259 3.62735 16.1597 3.62735H16.7797C18.0706 3.62735 18.8154 3.00282 19.0101 1.76529C19.098 1.22388 19.0136 0.798462 18.7601 0.500447C18.4818 0.1734 17.9882 0.000265498 17.3324 0.000265498ZM17.5585 1.83515C17.4516 2.53816 16.9144 2.53816 16.3947 2.53816H16.0993L16.307 1.2252C16.3193 1.14593 16.3875 1.08746 16.468 1.08746H16.6035C16.9571 1.08746 17.2912 1.08746 17.4635 1.2891C17.5664 1.40947 17.5977 1.58818 17.5585 1.83515ZM23.1889 1.81261H22.2513C22.1707 1.81261 22.1023 1.87108 22.0902 1.95049L22.0487 2.21284L21.9828 2.11779C21.7797 1.82295 21.327 1.72446 20.8749 1.72446C19.838 1.72446 18.9527 2.50966 18.7802 3.61118C18.6909 4.16054 18.8178 4.68591 19.1295 5.05233C19.416 5.38919 19.8246 5.52958 20.3113 5.52958C21.1467 5.52958 21.61 4.99241 21.61 4.99241L21.5682 5.25318C21.5524 5.35287 21.6292 5.44222 21.7298 5.44222H22.5747C22.7084 5.44222 22.8225 5.34478 22.8434 5.21221L23.3508 2.00113C23.3663 1.90236 23.2896 1.81261 23.1889 1.81261ZM21.8811 3.63862C21.7911 4.17459 21.3651 4.53439 20.8224 4.53439C20.5505 4.53439 20.3323 4.44702 20.1924 4.28145C20.0537 4.11706 20.0016 3.88294 20.0452 3.62231C20.1302 3.09084 20.5623 2.71939 21.0966 2.71939C21.3631 2.71939 21.5796 2.80781 21.7224 2.97485C21.8659 3.14361 21.9226 3.37905 21.8811 3.63862Z" fill="#179BD7"/>
</svg>
