<svg width="32" height="11" viewBox="0 0 32 11" fill="none" xmlns="http://www.w3.org/2000/svg">
<path d="M23.082 0.747193C22.5894 0.551741 21.808 0.335938 20.8418 0.335938C18.3752 0.335938 16.6383 1.65124 16.6276 3.53174C16.6071 4.91916 17.8712 5.68977 18.8166 6.15238C19.783 6.6251 20.1115 6.93364 20.1115 7.355C20.1016 8.00214 19.3306 8.30044 18.6115 8.30044C17.6143 8.30044 17.08 8.14665 16.268 7.78661L15.9391 7.63227L15.5896 9.80068C16.1754 10.0676 17.2547 10.3044 18.3752 10.3148C20.996 10.3148 22.7022 9.01983 22.7224 7.01587C22.7324 5.91623 22.0649 5.07364 20.6258 4.38512C19.7522 3.94313 19.2172 3.6451 19.2172 3.19287C19.2275 2.78175 19.6697 2.36066 20.6559 2.36066C21.4679 2.34004 22.0645 2.53522 22.5164 2.73053L22.7423 2.83311L23.082 0.747193Z" fill="#3362AB"/>
<path d="M14.0276 10.1708H11.5299L13.0921 0.511038H15.5897L14.0276 10.1708Z" fill="#3362AB"/>
<path fill-rule="evenodd" clip-rule="evenodd" d="M29.4848 0.511038H27.5528C26.957 0.511038 26.5044 0.685593 26.2474 1.31251L22.5373 10.1707H25.1581C25.1581 10.1707 25.5896 8.97844 25.6823 8.72166H28.8892C28.9609 9.0608 29.1872 10.1707 29.1872 10.1707H31.4998L29.4848 0.511038ZM26.4017 6.7487C26.6074 6.19376 27.3989 4.04597 27.3989 4.04597C27.3947 4.05424 27.4269 3.96501 27.4749 3.83195L27.4755 3.83032L27.4759 3.82925C27.5476 3.6305 27.654 3.33549 27.7275 3.12116L27.9021 3.95351C27.9021 3.95351 28.3751 6.26574 28.4778 6.7487H26.4017Z" fill="#3362AB"/>
<path d="M9.44368 0.511038L6.99759 7.09809L6.7303 5.76216L6.73005 5.76133L5.8567 1.32303C5.71288 0.706081 5.27089 0.531389 4.7262 0.511038H0.707616L0.666504 0.706217C1.64662 0.956851 2.52325 1.31802 3.29135 1.76708L5.51757 10.1606H8.15883L12.0848 0.511038H9.44368Z" fill="#3362AB"/>
</svg>
