<svg width="20" height="20" viewBox="0 0 20 20" fill="none" xmlns="http://www.w3.org/2000/svg">
<path d="M10.2289 13.6211C9.87098 13.6211 9.58052 13.3306 9.58052 12.9727V9.81004C9.58052 9.45214 9.87098 9.16168 10.2289 9.16168C11.9373 9.16168 13.327 7.77225 13.327 6.06383C13.327 4.35509 11.9373 2.96468 10.2289 2.96468C8.52045 2.96468 7.1307 4.35509 7.1307 6.06383C7.1307 6.42172 6.84023 6.71219 6.48234 6.71219C6.12445 6.71219 5.83398 6.42172 5.83398 6.06383C5.83398 3.63995 7.80531 1.66797 10.2289 1.66797C12.6524 1.66797 14.6238 3.63995 14.6238 6.06383C14.6238 8.26695 12.9944 10.0963 10.8772 10.4107V12.9727C10.8772 13.3306 10.5868 13.6211 10.2289 13.6211Z" fill="#6B85FF"/>
<path d="M10.2286 18.3323C10.9083 18.3323 11.4592 17.7813 11.4592 17.1017C11.4592 16.422 10.9083 15.8711 10.2286 15.8711C9.549 15.8711 8.99805 16.422 8.99805 17.1017C8.99805 17.7813 9.549 18.3323 10.2286 18.3323Z" fill="#6B85FF"/>
</svg>
