<svg width="183" height="180" viewBox="0 0 183 180" fill="none" xmlns="http://www.w3.org/2000/svg">
<g clip-path="url(#clip0_4737_81896)">
<path d="M31.1534 155.926C26.4734 151.04 22.2444 145.743 18.5154 140.098C17.9074 139.249 17.3224 138.39 16.7584 137.519C11.6404 129.595 8.8914 121.419 8.6834 113.78C5.0244 108.118 2.13739 101.051 0.824392 92.2484C-1.20261 78.7004 0.512429 66.1704 5.92443 55.0064C10.7074 45.1544 18.2074 36.8764 27.5404 31.1464C29.0084 30.2434 30.5024 29.4124 32.0224 28.6534C38.6884 21.4054 46.6194 14.8614 54.8604 9.90642C67.5644 2.26742 80.1064 -1.13257 90.1754 0.333426C100.863 1.89043 111.406 5.54741 119.859 10.6334C123.638 12.8774 127.139 15.5574 130.289 18.6204C137.281 20.9274 143.554 24.0734 148.99 28.0164C156.193 33.2284 162.1 40.0284 166.252 47.8904C186.294 85.5794 185.639 116.41 164.298 139.519C159.637 144.566 154.809 149.664 149.689 154.429C155.601 157.913 161.75 160.978 168.092 163.601C180.265 168.664 193.702 172.474 208.028 174.929C232.43 179.109 251.168 177.88 251.355 177.868L251.456 179.329C251.267 179.342 232.352 180.583 207.782 176.372C193.347 173.901 179.803 170.059 167.529 164.956C160.989 162.249 154.652 159.077 148.565 155.466C141.232 162.167 133.299 168.126 124.416 172.27C114.122 177.061 103.526 178.859 92.4154 177.655C78.9774 179.839 66.3124 178.247 54.5324 172.867C46.2874 169.103 38.4694 163.447 31.2944 156.061L31.1534 155.926ZM29.7634 152.299C30.6094 153.24 31.4644 154.155 32.3284 155.044C39.3764 162.3 47.0464 167.85 55.1254 171.54C58.7924 173.219 62.6144 174.535 66.5374 175.47C60.2714 173.691 52.7994 169.918 45.8364 164.871C43.0194 162.845 40.3494 160.621 37.8474 158.216C35.0134 156.446 32.3144 154.468 29.7734 152.297L29.7634 152.299ZM19.7254 139.278C23.5874 144.626 28.2094 149.38 33.4464 153.39C30.0184 149.083 27.9974 144.848 27.6344 141.007C27.3364 137.841 25.6984 133.508 23.4274 128.427C18.3424 125.159 13.8964 120.991 10.3074 116.127C10.9124 122.353 13.2174 128.905 17.1264 135.335L17.1894 135.295C18.0134 136.65 18.8594 137.978 19.7254 139.278ZM25.6054 129.76C27.4924 134.142 28.8114 137.927 29.0884 140.854C29.5484 145.693 33.0554 151.448 38.8314 157.089C40.6854 158.234 42.6024 159.275 44.5724 160.206C47.1324 161.414 50.5284 161.848 54.4214 161.539C49.8654 157.446 45.6724 152.48 41.9304 146.734C34.9814 144.206 29.6994 140.553 28.9184 131.539C27.8454 131.014 26.7384 130.422 25.6054 129.76ZM55.9604 162.876C51.2254 163.45 47.0884 163.014 43.9474 161.532L43.7864 161.455C44.7224 162.204 45.6964 162.944 46.7064 163.677C56.2244 170.578 67.0744 175.179 73.7034 175.128C75.1194 175.107 76.5264 174.889 77.8824 174.48C74.7504 173.459 71.6754 172.272 68.6684 170.925C64.0795 168.849 59.8024 166.142 55.9614 162.881L55.9604 162.876ZM30.4704 132.275C31.3404 139.118 35.1954 142.382 40.6154 144.653C39.7614 143.258 38.9324 141.821 38.1294 140.342C37.0314 138.325 35.9974 136.249 35.0264 134.115C34.5954 133.963 34.1664 133.805 33.7374 133.641C32.7174 133.258 31.6204 132.806 30.4724 132.281L30.4704 132.275ZM10.1304 113.311C13.3564 118.193 17.4564 122.437 22.2224 125.832C21.1974 123.629 20.0804 121.31 18.9214 118.905C16.5384 113.958 14.0064 108.696 11.7364 103.36C11.4394 104.082 11.1944 104.825 11.0024 105.582C10.3794 108.111 10.0894 110.711 10.1394 113.315L10.1304 113.311ZM44.2044 147.514C47.8824 152.896 51.9724 157.527 56.3894 161.327C57.2884 161.203 58.2074 161.042 59.1454 160.845C53.9764 158.102 49.2264 153.418 45.5274 147.929C45.0854 147.79 44.6444 147.651 44.2044 147.514ZM61.2954 161.864C60.1424 162.159 59.0144 162.402 57.9124 162.593C61.3794 165.402 65.1934 167.752 69.2604 169.585C72.8064 171.178 76.4524 172.537 80.1754 173.655C83.2454 172.358 86.3004 170.341 89.4214 168.113C85.4404 166.515 81.2354 164.387 76.8804 161.967C75.1014 162.692 72.7984 163.213 69.8294 163.398C66.9564 163.589 64.0814 163.02 61.2994 161.863L61.2954 161.864ZM12.5754 101.563C14.9614 107.291 17.6944 112.967 20.2514 118.273C21.8024 121.494 23.2794 124.568 24.5694 127.416C26.0184 128.339 27.4474 129.154 28.8204 129.854C28.6504 127.027 27.8124 122.428 26.7664 116.682L26.1994 113.552C23.2074 111.91 20.4614 109.853 18.0454 107.443C16.0094 105.405 14.3784 103 13.2384 100.355C13.0014 100.761 12.7804 101.164 12.5754 101.563ZM29.1944 31.8594C28.8964 32.0354 28.6004 32.2134 28.3074 32.3934C19.2094 37.9764 11.8974 46.0454 7.2354 55.6484C1.9534 66.5404 0.282432 78.7834 2.26543 92.0334C3.40143 99.6134 5.73139 105.868 8.72039 111.024C8.82639 109.07 9.11742 107.13 9.59142 105.231C9.92342 103.949 10.3854 102.705 10.9704 101.517C4.96739 86.9134 1.27241 71.9534 8.33941 61.4624C10.9854 57.5264 13.9594 53.8234 17.2314 50.3904C19.1034 46.3024 21.3444 42.3934 23.9254 38.7114C25.5334 36.3954 27.2994 34.0994 29.1944 31.8594ZM80.2614 175.216C78.1214 176.068 75.9514 176.58 73.7174 176.598C73.2844 176.601 72.8394 176.587 72.3804 176.556C77.2434 177.21 82.1654 177.31 87.0504 176.854C84.8104 176.426 82.5484 175.88 80.2634 175.216H80.2614ZM36.9404 134.76C37.7284 136.424 38.5544 138.054 39.4194 139.649C40.5244 141.693 41.6824 143.653 42.8924 145.529C43.3544 145.692 43.8234 145.851 44.2994 146.005C42.2784 142.709 40.6644 139.181 39.4924 135.498C38.6354 135.274 37.7844 135.028 36.9404 134.76ZM47.7704 148.593C49.0684 150.375 50.4974 152.058 52.0464 153.628C55.0494 156.661 58.2244 158.916 61.4014 160.318C63.4664 159.77 65.4964 159.1 67.4814 158.311C68.0774 158.076 68.6714 157.829 69.2614 157.575C68.2064 156.945 67.1454 156.306 66.0794 155.66C60.5074 152.285 54.4054 150.519 49.0244 148.959C48.6004 148.834 48.1854 148.713 47.7704 148.593ZM27.8434 114.414L28.2074 116.419C29.3184 122.517 30.1954 127.332 30.3054 130.217L30.3234 130.595C31.6934 131.245 32.9984 131.795 34.1984 132.255C31.7364 126.548 29.7484 120.649 28.2534 114.617C28.1154 114.548 27.9814 114.492 27.8434 114.414ZM41.1684 135.926C42.4604 139.721 44.2324 143.335 46.4414 146.681C47.4144 146.974 48.4114 147.263 49.4274 147.553C54.9004 149.136 61.1044 150.931 66.8384 154.407C68.2304 155.248 69.5844 156.059 70.9004 156.841C73.2974 155.729 75.6274 154.476 77.8774 153.09C74.8674 151.87 72.1474 150.031 69.8934 147.692L69.8784 147.675C67.6804 145.36 65.8954 142.687 64.5974 139.772C62.2564 139.143 59.9694 138.326 57.7594 137.327C57.3894 137.355 57.0124 137.379 56.6354 137.398C51.4354 137.628 46.2284 137.129 41.1654 135.917L41.1684 135.926ZM29.9524 115.389C31.5074 121.403 33.5624 127.275 36.0974 132.946C37.0554 133.271 38.0234 133.569 39.0014 133.84C37.8664 129.604 37.5174 125.548 37.9674 121.929C37.1144 120.825 36.3264 119.705 35.6044 118.569C35.2944 118.077 35.0004 117.588 34.7204 117.096C33.1004 116.618 31.5084 116.048 29.9524 115.389ZM70.8044 158.488C69.8794 158.905 68.9494 159.298 68.0144 159.669C66.5594 160.244 65.1264 160.748 63.7174 161.182C65.6594 161.799 67.6984 162.059 69.7334 161.948C71.5794 161.858 73.4084 161.549 75.1824 161.028C73.7394 160.206 72.2814 159.359 70.8104 158.487L70.8044 158.488ZM39.2864 123.552C39.0854 126.7 39.4974 130.16 40.4974 133.767C40.5444 133.941 40.5914 134.116 40.6374 134.29C45.3264 135.479 50.1514 136.047 54.9884 135.979C49.0294 132.849 43.7074 128.634 39.2964 123.55L39.2864 123.552ZM91.0474 168.758C88.1184 170.864 85.2434 172.84 82.3474 174.279C85.6344 175.161 88.9824 175.795 92.3644 176.177C103.195 174.389 114.529 170.108 126.367 163.332C132.19 160.031 137.679 156.172 142.756 151.809C141.955 151.273 141.16 150.73 140.372 150.18C131.582 155.148 123.259 157.871 118.14 157.303C115.616 157.026 113.062 157.188 110.593 157.781C111.574 163.676 112.249 168.3 109.006 169.855C104.207 172.159 98.0394 171.347 91.0574 168.755L91.0474 168.758ZM15.5934 54.3634C13.4234 56.8854 11.4044 59.5324 9.54644 62.2904C3.02544 71.9574 6.27044 85.9514 11.8534 99.8254C12.0754 99.4354 12.3124 99.0424 12.5634 98.6464C11.9224 96.7774 11.4834 94.8444 11.2524 92.8814C10.8794 89.5584 10.9444 86.2014 11.4464 82.8944C10.7694 79.1504 11.2644 75.6064 12.9184 72.3184C12.5674 68.9004 12.7764 65.2854 13.5454 61.4754C14.0494 59.0544 14.7374 56.6754 15.6024 54.3594L15.5934 54.3634ZM14.1884 98.8214C15.2594 101.67 16.9234 104.258 19.0714 106.413C21.1044 108.442 23.3824 110.209 25.8534 111.674C25.3674 108.946 24.8674 106.054 24.3904 103.033C21.7534 100.538 19.3324 97.8244 17.1524 94.9214C16.0914 96.1604 15.1054 97.4614 14.1974 98.8174L14.1884 98.8214ZM26.1414 104.669C26.5954 107.461 27.0604 110.119 27.5074 112.606C27.6044 112.657 27.6974 112.707 27.7944 112.757C27.1834 110.109 26.6614 107.435 26.2384 104.758L26.1414 104.669ZM27.9794 106.3C28.4074 108.744 28.9134 111.174 29.4974 113.59C30.8764 114.223 32.2884 114.781 33.7274 115.262C32.7594 113.33 32.0054 111.3 31.4774 109.205C30.2904 108.248 29.1234 107.288 27.9884 106.296L27.9794 106.3ZM12.5324 86.7534C12.4164 88.7384 12.4754 90.7304 12.7084 92.7054C12.8844 94.1904 13.1844 95.6594 13.6044 97.0944C14.3924 95.9804 15.2804 94.8504 16.2684 93.7054C14.7524 91.5434 13.5014 89.2084 12.5424 86.7484L12.5324 86.7534ZM79.5974 153.718C77.2794 155.198 74.8764 156.54 72.4004 157.737C73.9594 158.651 75.4724 159.52 76.9384 160.342C79.1954 159.271 80.6024 157.688 81.0914 155.661C81.2044 155.18 81.2684 154.689 81.2824 154.195C80.7294 154.05 80.1674 153.887 79.6164 153.711L79.5974 153.718ZM39.4934 121.517C43.7744 126.85 49.5424 131.473 55.6604 134.681C56.4374 135.087 57.2154 135.47 57.9954 135.828C59.6184 135.694 61.2314 135.46 62.8244 135.128C62.2414 133.207 61.7784 131.252 61.4404 129.274C58.7624 127.37 55.8654 125.498 52.7814 123.676C50.3674 122.251 47.8744 120.725 45.3624 119.111C43.6044 118.959 41.8914 118.731 40.2214 118.428C40.1234 118.726 40.0344 119.025 39.9524 119.336C39.7654 120.052 39.6194 120.778 39.5124 121.51L39.4934 121.517ZM36.7604 117.681C37.2394 118.449 37.7544 119.206 38.2964 119.949C38.3684 119.612 38.4514 119.28 38.5384 118.95C38.6124 118.679 38.6904 118.409 38.7744 118.146C38.1074 118.002 37.4424 117.844 36.7794 117.673L36.7604 117.681ZM82.7374 154.524C82.7044 155.025 82.6274 155.523 82.5084 156.011C82.0904 157.751 81.0064 159.72 78.4644 161.202C82.7174 163.536 86.6164 165.453 90.3184 166.918L90.8154 167.112C91.1514 166.87 91.4894 166.625 91.8274 166.381C97.2014 162.487 102.697 158.504 108.907 156.702C108.598 154.844 108.289 152.897 108.072 150.9C107.141 150.84 106.215 150.721 105.299 150.546C99.9384 153.588 94.4334 155.129 88.8854 155.103C86.8284 155.101 84.7764 154.905 82.7564 154.517L82.7374 154.524ZM33.4594 110.777C34.0514 112.542 34.8024 114.25 35.7024 115.88C36.8634 116.213 38.0564 116.503 39.2804 116.75C39.4614 116.302 39.6574 115.865 39.8694 115.439C37.7144 113.932 35.5664 112.376 33.4784 110.77L33.4594 110.777ZM18.1124 93.8094C19.9024 96.2354 21.8744 98.5214 24.0104 100.648C23.6364 98.1584 23.2824 95.5904 22.9624 92.9674C22.3394 92.2354 21.7314 91.4784 21.1374 90.6954C20.0784 91.7354 19.0644 92.7664 18.1314 93.8014L18.1124 93.8094ZM24.6904 94.9014C25.0224 97.4594 25.3854 99.9514 25.7604 102.349L25.8894 102.473C25.5664 100.128 25.3194 97.7854 25.1494 95.4434L25.1444 95.3694L24.6904 94.9014ZM26.7414 96.9464C26.9494 99.3124 27.2354 101.681 27.6004 104.052C28.6804 105.017 29.8174 105.994 31.0134 106.982C30.6654 104.81 30.6364 102.598 30.9264 100.417C30.5424 100.139 30.1604 99.8534 29.7854 99.5604C28.7584 98.7384 27.7494 97.8644 26.7604 96.9394L26.7414 96.9464ZM144.03 152.645C139.08 156.981 133.424 160.977 127.1 164.601C117.075 170.353 107.38 174.333 98.0154 176.54C106.902 176.692 115.454 174.824 123.797 170.942C132.391 166.942 140.104 161.171 147.254 154.676C146.17 154.012 145.095 153.335 144.03 152.645ZM41.0974 116.276C40.9784 116.517 40.8644 116.773 40.7574 117.028C41.3844 117.138 42.0184 117.237 42.6574 117.325C42.1444 116.978 41.6234 116.626 41.1034 116.274L41.0974 116.276ZM12.9344 82.8534L12.9944 83.1554C13.6314 86.1554 15.0604 89.3074 17.2664 92.5704C18.1284 91.6274 19.0524 90.6774 20.0374 89.7214L20.2724 89.4954C18.8004 87.4374 17.4544 85.2934 16.2414 83.0734C15.3064 81.3614 14.5544 79.5564 13.9974 77.6874C13.5574 79.3924 13.2044 81.1184 12.9424 82.8594L12.9344 82.8534ZM32.3144 101.353C32.0964 103.719 32.2634 106.104 32.8084 108.416C35.1964 110.308 37.7854 112.219 40.5754 114.15C42.2124 111.473 44.5404 109.344 47.5424 107.791L48.1384 107.481C47.3694 107.365 46.6064 107.227 45.8514 107.066C41.0224 106.036 36.4324 104.1 32.3264 101.359L32.3144 101.353ZM63.2944 136.53C62.4774 136.704 61.6344 136.855 60.7674 136.981C61.7984 137.376 62.8284 137.725 63.8504 138.036C63.6674 137.538 63.4814 137.04 63.3054 136.531L63.2944 136.53ZM66.4254 140.197C69.0164 145.356 73.0764 149.843 79.4044 152.095C79.8994 151.773 80.3904 151.443 80.8764 151.105C80.0764 148.23 78.1474 144.939 75.1844 141.446C75.0194 141.252 74.8524 141.058 74.6814 140.865C74.3695 140.886 74.0544 140.902 73.7324 140.911C71.2804 140.966 68.8314 140.727 66.4364 140.199L66.4254 140.197ZM109.181 158.159C103.25 159.926 97.9234 163.786 92.7164 167.558C92.6444 167.611 92.5724 167.664 92.5004 167.714C99.3304 170.111 104.541 170.376 108.382 168.534C110.632 167.452 110.048 163.378 109.181 158.159ZM50.7214 107.792C49.7804 108.289 48.9444 108.726 48.2244 109.088C45.4514 110.526 43.3014 112.498 41.7994 114.98C43.1104 115.872 44.4644 116.767 45.8634 117.664C48.9504 117.906 52.0504 117.924 55.1404 117.72C56.9284 117.607 58.7304 117.425 60.5454 117.173C60.5494 116.651 60.5564 116.124 60.5724 115.598C57.1314 113.29 53.9034 110.681 50.9264 107.8L50.7214 107.792ZM64.7444 136.191C65.0214 136.974 65.3244 137.749 65.6534 138.517C68.1884 139.164 70.7964 139.48 73.4124 139.458C71.9804 137.937 70.3874 136.413 68.6334 134.886C67.3704 135.414 66.0704 135.851 64.7444 136.191ZM60.5444 118.659C58.7604 118.9 56.9894 119.078 55.2294 119.193C52.9594 119.34 50.6834 119.372 48.4094 119.289C50.0694 120.325 51.7814 121.364 53.5464 122.407C56.2354 123.994 58.7704 125.614 61.1514 127.267C60.7684 124.413 60.5664 121.538 60.5444 118.659ZM63.1904 130.523C63.4794 131.932 63.8384 133.364 64.2794 134.786C65.3254 134.519 66.3544 134.195 67.3634 133.813C66.0504 132.71 64.6594 131.613 63.1904 130.523ZM82.5414 151.734C82.6254 152.159 82.6884 152.589 82.7274 153.022C84.7634 153.431 86.8344 153.635 88.9104 153.631C93.7224 153.644 98.5174 152.43 103.213 150.007C99.0204 148.719 95.6794 146.173 92.8754 142.744C89.7314 146.07 86.2704 149.081 82.5414 151.734ZM26.3814 86.1174C26.3254 88.9284 26.3974 91.7994 26.5994 94.7294C27.8924 96.0364 29.2674 97.2604 30.7164 98.3934C30.8904 98.5284 31.0664 98.6634 31.2414 98.7944C31.4834 97.6734 31.8124 96.5734 32.2264 95.5034C33.1914 92.9984 34.2784 90.3924 35.4304 87.7474C34.3494 85.7574 33.3814 83.7074 32.5314 81.6074C30.3524 83.0714 28.2994 84.5834 26.3814 86.1174ZM24.3954 92.3624C24.5994 92.6044 24.8094 92.8414 25.0254 93.0754C24.9234 91.1374 24.8824 89.2224 24.9014 87.3314C24.5754 87.6044 24.2514 87.8794 23.9344 88.1544C24.0754 89.5714 24.2294 90.9734 24.3954 92.3624ZM22.2274 89.6774C22.3714 89.8714 22.5184 90.0614 22.6654 90.2524L22.5694 89.3644L22.2274 89.6774ZM14.7944 74.8634C15.3194 77.4914 16.2424 80.0244 17.5324 82.3744C18.6834 84.4874 19.9604 86.5294 21.3554 88.4904C21.6894 88.1784 22.0334 87.8684 22.3874 87.5594C21.8654 82.1644 21.5414 76.6014 21.5604 71.0254C21.5654 68.8924 21.6244 66.8114 21.7364 64.7844C19.9054 65.9284 18.2734 67.3634 16.9044 69.0314C16.0954 70.9914 15.3924 72.9354 14.7964 74.8634H14.7944ZM36.3244 89.3534C35.3444 91.6334 34.4214 93.8724 33.5864 96.0314C33.1224 97.2324 32.7744 98.4744 32.5464 99.7404C36.6494 102.592 41.2794 104.596 46.1664 105.637C47.1804 105.854 48.2084 106.029 49.2484 106.162C46.7794 103.658 44.4634 101.007 42.3134 98.2254C40.1224 95.4054 38.1214 92.4404 36.3264 89.3534H36.3244ZM76.4494 140.682C79.2814 144.035 81.2274 147.268 82.1544 150.218C85.6914 147.661 88.9774 144.774 91.9664 141.593C90.3274 139.344 88.8954 136.95 87.6884 134.441C84.9594 137.854 81.1264 139.979 76.4434 140.678L76.4494 140.682ZM62.0044 118.454C62.0154 121.8 62.2814 125.141 62.8014 128.447C64.9794 130.016 67.0034 131.602 68.8654 133.185C70.1474 132.604 71.3484 131.86 72.4404 130.973C75.0674 128.787 76.1234 126.175 75.5854 123.205C75.4684 122.583 75.3194 121.967 75.1384 121.36C72.3444 120.915 69.8894 120.288 67.8214 119.477C66.7244 119.042 65.6514 118.549 64.6064 117.999C63.7374 118.165 62.8704 118.314 62.0044 118.448V118.454ZM23.2674 63.9564C22.8074 71.3954 23.0944 79.0294 23.7634 86.3694C24.1484 86.0434 24.5384 85.7184 24.9344 85.3944C25.1484 77.4174 26.3574 69.9864 28.5164 63.4954C28.6244 63.1624 28.7374 62.8334 28.8534 62.5074C28.8284 62.5144 28.8024 62.5214 28.7734 62.5124C26.8644 62.6514 24.9984 63.1404 23.2674 63.9564ZM76.7274 121.588C76.8514 122.049 76.9494 122.501 77.0304 122.943C77.6674 126.42 76.4074 129.59 73.3844 132.1C72.3684 132.934 71.2614 133.652 70.0844 134.238C71.9124 135.845 73.6494 137.552 75.2884 139.353C80.2834 138.838 84.2954 136.649 86.9834 132.958C85.4124 129.575 84.0084 125.896 82.6454 122.089C80.5464 121.994 78.5744 121.827 76.7274 121.588ZM30.0974 63.3894C30.0324 63.5774 29.9684 63.7664 29.9064 63.9564C27.9074 69.9744 26.7384 76.8384 26.4394 84.1954C28.1944 82.8284 30.0464 81.4914 31.9814 80.2024C30.2824 75.5864 29.4514 71.2084 29.5974 67.3184C29.6404 65.9964 29.8084 64.6804 30.0974 63.3894ZM18.4614 51.2294C16.9214 54.6024 15.7584 58.1344 14.9914 61.7614C14.4184 64.5014 14.1684 67.2984 14.2464 70.0964L14.4284 69.8384C14.8224 69.2884 15.2254 68.7624 15.6354 68.2614C17.6254 63.5294 20.0184 58.9774 22.7884 54.6554C23.2144 51.9254 23.7914 49.2204 24.5184 46.5544C24.6274 46.1824 24.7224 45.8184 24.8294 45.4554C22.5774 47.2314 20.4494 49.1614 18.4614 51.2294ZM37.0534 87.6744C38.9474 91.0494 41.0914 94.2774 43.4684 97.3304C45.8164 100.369 48.3634 103.247 51.0944 105.947C53.6714 104.573 56.8914 102.813 60.5124 100.748C54.0984 95.3834 48.3894 88.2674 43.9054 80.0044C43.2774 78.8474 42.6784 77.6764 42.1074 76.4914L42.0544 76.6084C40.3684 80.2704 38.6544 84.0134 37.0534 87.6744ZM61.1404 107.452C58.5094 107.843 55.8494 108.003 53.1904 107.933C55.5294 110.089 58.0184 112.076 60.6374 113.881C60.7264 111.775 60.8944 109.632 61.1404 107.452ZM62.0104 116.525L62.0044 116.966C62.2054 116.933 62.3914 116.904 62.5854 116.871C62.3964 116.766 62.2024 116.643 62.0104 116.525ZM61.7284 101.728C58.5374 103.556 55.6394 105.153 53.1994 106.47C55.9174 106.542 58.6354 106.367 61.3204 105.947C61.4904 104.601 61.6884 103.244 61.9144 101.875L61.7284 101.728ZM62.6394 107.21C62.3354 109.799 62.1384 112.361 62.0534 114.829C62.9944 115.428 63.9224 115.974 64.8374 116.466C67.3284 115.98 69.8294 115.373 72.3404 114.646C70.9744 111.941 69.3174 109.049 67.5824 106.071C65.9384 106.535 64.2904 106.915 62.6394 107.21ZM33.7644 80.7794C34.4764 82.5724 35.2814 84.3274 36.1744 86.0374C37.5234 82.9744 38.9404 79.8614 40.3454 76.8044C38.0624 78.0754 35.8624 79.4064 33.7644 80.7794ZM72.9964 115.979C70.9824 116.571 68.9724 117.086 66.9654 117.522C67.4404 117.735 67.9114 117.931 68.3594 118.114C70.3874 118.878 72.4854 119.439 74.6244 119.79C74.1824 118.579 73.6314 117.31 72.9964 115.979ZM22.2904 58.2714C20.9244 60.5924 19.6824 62.9414 18.5714 65.2674C19.5814 64.4084 20.6794 63.6574 21.8464 63.0264C21.9604 61.4034 22.1084 59.8184 22.2904 58.2714ZM31.8214 62.5464C31.3654 64.1144 31.1084 65.7344 31.0584 67.3664C30.9244 70.9844 31.6804 75.0614 33.2304 79.3714C35.7774 77.7174 38.4604 76.1354 41.2444 74.6454C39.6364 71.0984 38.2784 67.4434 37.1784 63.7074C35.4434 63.1174 33.6454 62.7274 31.8214 62.5464ZM93.8804 141.674C97.0844 145.636 100.737 148.029 105.075 148.99C105.919 148.499 106.752 147.97 107.576 147.402L107.83 147.228C107.659 141.816 108.594 136.342 112.511 131.818C113.561 130.612 114.754 129.537 116.062 128.617C113.929 126.38 111.893 124.142 109.953 121.906C109.265 121.417 108.582 120.923 107.905 120.425C107.323 120.513 106.742 120.599 106.162 120.683L106.137 120.69C103.923 127.733 100.125 134.464 94.8904 140.538C94.5604 140.913 94.2224 141.296 93.8804 141.674ZM88.6564 133.099C89.6704 135.262 90.8414 137.348 92.1574 139.341C92.4244 139.738 92.6934 140.124 92.9664 140.496C93.2404 140.19 93.5084 139.882 93.7764 139.572C98.7204 133.839 102.342 127.513 104.523 120.899C100.685 121.398 97.0174 121.75 93.5484 121.958C92.4174 125.959 90.8894 129.748 88.6624 133.098L88.6564 133.099ZM109.577 150.946C109.781 152.787 110.068 154.596 110.353 156.323C112.957 155.713 115.647 155.551 118.306 155.846C122.95 156.361 130.8 153.796 139.048 149.243C136.063 147.1 133.206 144.852 130.475 142.5C123.775 147.947 116.334 150.983 109.582 150.945L109.577 150.946ZM74.4144 115.551C75.1184 117.013 75.7364 118.515 76.2654 120.049C78.0984 120.306 80.0564 120.483 82.1134 120.586C81.6464 119.263 81.1804 117.925 80.7114 116.572L79.7194 113.718C77.9504 114.384 76.1824 114.995 74.4144 115.551ZM63.2304 102.871C63.0824 103.812 62.9474 104.748 62.8244 105.68C63.9544 105.468 65.0824 105.214 66.2104 104.919C65.2044 104.283 64.2124 103.603 63.2324 102.879L63.2304 102.871ZM84.2154 122.122C85.3994 125.415 86.6104 128.577 87.9294 131.509C89.7124 128.632 91.0044 125.418 92.0004 122.022C89.2654 122.159 86.6744 122.197 84.2254 122.134L84.2154 122.122ZM107.911 148.926C107.698 149.067 107.488 149.205 107.275 149.339C107.491 149.365 107.72 149.385 107.946 149.402L107.911 148.926ZM24.1934 55.1404C23.8264 57.4854 23.5574 59.8734 23.3714 62.2834C25.0524 61.5884 26.8344 61.1674 28.6494 61.0364C28.8934 61.0194 29.1404 61.0054 29.3874 60.9974C30.7194 57.4524 32.4774 54.0824 34.6244 50.9614C34.2894 47.5104 34.3014 44.2964 34.6934 41.4684C30.8214 45.7294 27.3144 50.3074 24.2074 55.1554L24.1934 55.1404ZM69.8284 107.035C71.2574 109.512 72.6004 111.919 73.7504 114.205C75.5754 113.641 77.3984 113.013 79.2194 112.322L78.6244 110.648C75.5864 109.74 72.6454 108.534 69.8434 107.05L69.8284 107.035ZM43.1344 75.2794C43.7754 76.6344 44.4534 77.9724 45.1664 79.2834C49.6644 87.5644 55.3994 94.6624 61.8434 99.9484L62.2684 99.7034C62.3974 98.9994 62.5344 98.2944 62.6774 97.5864C58.2844 89.6964 54.4304 81.5044 54.0414 73.9374C53.0304 73.0934 52.0344 72.2964 51.0524 71.5444C48.3794 72.7004 45.7474 73.9494 43.1584 75.2924L43.1344 75.2794ZM109.33 147.96C109.356 148.468 109.393 148.974 109.432 149.48C115.824 149.565 122.915 146.703 129.353 141.517C128.789 141.02 128.232 140.519 127.681 140.013C125.833 138.314 124.033 136.614 122.282 134.91C118.306 140.246 113.966 144.628 109.33 147.96ZM63.6004 100.642L63.4954 101.247C63.5364 101.277 63.5784 101.308 63.6184 101.341C64.3024 101.855 64.9924 102.348 65.6874 102.821C65.1994 101.982 64.7064 101.133 64.2204 100.287L63.6004 100.642ZM81.0824 113.196L82.0914 116.098C82.6234 117.628 83.1524 119.144 83.6804 120.647C86.4474 120.731 89.3744 120.692 92.4134 120.536C93.0904 117.977 93.6214 115.333 94.0824 112.662C93.1914 112.679 92.2704 112.677 91.3194 112.656C88.8964 112.601 86.4814 112.366 84.0934 111.952C83.0954 112.389 82.0944 112.805 81.0894 113.2L81.0824 113.196ZM65.4804 99.5424C66.3094 100.992 67.1424 102.416 67.9654 103.826L68.2644 104.34C70.6264 103.613 72.9354 102.725 75.1754 101.681C74.2734 99.5484 73.3154 97.4574 72.2814 95.4394C69.9524 96.8894 67.6724 98.2634 65.4874 99.5474L65.4804 99.5424ZM117.1 129.7C115.816 130.576 114.648 131.612 113.624 132.782C110.262 136.664 109.278 141.399 109.291 146.182C113.542 142.984 117.544 138.862 121.233 133.881C119.819 132.486 118.442 131.092 117.1 129.7ZM75.7434 103.04C73.8204 103.931 71.8484 104.712 69.8364 105.379C72.4444 106.82 75.1824 108.012 78.0144 108.938C77.2874 106.951 76.5354 104.981 75.7434 103.04ZM64.2444 97.3574L64.7624 98.2764C66.9594 96.9824 69.2584 95.6084 71.5984 94.1454C70.2344 91.5784 68.6734 89.1214 66.9284 86.7964C65.8804 90.3324 64.9714 93.8614 64.2444 97.3574ZM55.6444 75.3084C56.3484 81.7224 59.4874 88.6444 63.1684 95.4104C63.9074 92.0904 64.7974 88.7434 65.8334 85.3994C65.1454 84.5634 64.4274 83.7584 63.6784 82.9834C60.9154 80.1274 58.2374 77.5684 55.6444 75.3084ZM38.8804 64.3324C39.7924 67.2714 40.8684 70.1574 42.1014 72.9774C42.9804 71.0534 43.8534 69.1304 44.7014 67.2244C42.8384 66.1104 40.8924 65.1434 38.8804 64.3324ZM45.9624 67.9944C45.1584 69.8044 44.3244 71.6374 43.4804 73.4884C45.5274 72.4504 47.6084 71.4744 49.7234 70.5614C48.4444 69.6174 47.1904 68.7594 45.9614 67.9884L45.9624 67.9944ZM80.3684 111.157L80.6054 111.823C80.9194 111.699 81.2324 111.573 81.5494 111.444C81.1514 111.348 80.7604 111.252 80.3674 111.151L80.3684 111.157ZM35.3884 56.2464C34.0704 57.6724 33.0264 59.3284 32.3084 61.1324C33.7984 61.3044 35.2704 61.6094 36.7054 62.0444C36.1794 60.0724 35.7374 58.1344 35.3864 56.2404L35.3884 56.2464ZM77.0584 102.407C78.0064 104.729 78.8974 107.094 79.7564 109.473C81.1264 109.858 82.5135 110.183 83.9184 110.448C86.3035 109.406 88.6744 108.259 91.0304 107.006C88.0644 104.423 85.2645 101.843 82.6294 99.2664C80.8315 100.413 78.9714 101.462 77.0584 102.407ZM30.2984 32.8194C28.4404 35.0204 26.7074 37.2724 25.1254 39.5524C23.3864 42.0454 21.7984 44.6414 20.3704 47.3254C21.7264 46.0814 23.1604 44.8734 24.6734 43.7304C24.9784 43.4984 25.2854 43.2704 25.5934 43.0474C26.7844 39.4764 28.3624 36.0474 30.2984 32.8194ZM26.8474 43.9504C26.0344 46.4394 25.3684 48.9744 24.8534 51.5414C27.7704 47.3094 30.9954 43.2964 34.5024 39.5374C31.8104 40.7504 29.2454 42.2294 26.8474 43.9504ZM34.9004 53.2244C33.9364 54.7464 33.0674 56.3264 32.2994 57.9554C33.0814 56.6904 34.0184 55.5264 35.0874 54.4914C35.0224 54.0784 34.9594 53.6454 34.9004 53.2244ZM95.5834 112.617C95.1314 115.267 94.6144 117.893 93.9584 120.452C97.5334 120.228 101.245 119.852 105.012 119.346C105.098 119.054 105.181 118.761 105.261 118.466C104.432 117.844 103.61 117.22 102.793 116.594C101.013 115.227 99.2774 113.859 97.5834 112.489C96.9374 112.543 96.2694 112.586 95.5834 112.617ZM36.6384 55.0084C37.0744 57.5594 37.6484 60.0864 38.3594 62.5754C40.7664 63.4614 43.0864 64.5684 45.2904 65.8814C47.9874 59.7534 50.3764 53.8454 51.8234 48.7084C49.8434 49.0164 47.8884 49.4704 45.9754 50.0674C42.1234 51.2594 39.0114 52.9064 36.6384 55.0084ZM73.5364 94.6604C74.5994 96.7274 75.5804 98.8654 76.5014 101.047C78.2364 100.184 79.9254 99.2324 81.5634 98.1954C79.7624 96.4044 78.0454 94.6194 76.4134 92.8384C75.4504 93.4614 74.4914 94.0704 73.5374 94.6644L73.5364 94.6604ZM92.2214 108.016C90.3544 109.022 88.4744 109.964 86.5824 110.842C88.1674 111.038 89.7624 111.154 91.3594 111.19C92.3754 111.215 93.3674 111.215 94.3364 111.191C94.4034 110.787 94.4684 110.382 94.5314 109.975C93.7524 109.325 92.9824 108.673 92.2224 108.02L92.2214 108.016ZM53.4164 48.4994C51.9644 53.8774 49.4564 60.0784 46.5554 66.6414C48.0934 67.5994 49.6644 68.6784 51.2684 69.8774C52.3124 69.4414 53.3614 69.0214 54.4154 68.6164C54.7244 67.0644 55.2344 65.5594 55.9334 64.1394C56.3064 63.3814 56.7314 62.6494 57.2044 61.9494C55.8734 57.1554 55.5314 52.5854 56.1824 48.2914C55.2524 48.3314 54.3384 48.3964 53.4164 48.4994ZM67.4634 85.0774C69.4994 87.6734 71.3024 90.4444 72.8504 93.3584C73.7004 92.8264 74.5554 92.2854 75.4154 91.7344L75.2194 91.5174C72.6114 88.6044 70.2614 85.7374 68.1694 82.9174C67.9274 83.6444 67.6944 84.3634 67.4654 85.0854L67.4634 85.0774ZM54.1554 70.2844C53.6414 70.4874 53.1264 70.6944 52.6164 70.9064C53.0874 71.2734 53.5594 71.6504 54.0344 72.0374C54.0474 71.4544 54.0894 70.8724 54.1584 70.2924L54.1554 70.2844ZM55.7164 69.6824C55.5394 70.8634 55.4674 72.0574 55.5024 73.2514C58.4754 75.7684 61.5514 78.6694 64.7324 81.9544C65.2924 82.5324 65.8314 83.1234 66.3594 83.7364C66.6024 82.9744 66.8554 82.2184 67.1184 81.4684C63.8874 76.9454 61.3404 72.5654 59.4914 68.3324C58.2254 68.7664 56.9684 69.2184 55.7194 69.6904L55.7164 69.6824ZM36.1404 51.3834C36.2074 52.0254 36.2874 52.6764 36.3794 53.3364C38.8094 51.3604 41.8724 49.7864 45.5404 48.6554C47.7244 47.9784 49.9594 47.4824 52.2244 47.1694C53.1074 43.6614 53.4864 40.5604 53.1484 38.0764C50.4924 39.5064 47.8504 41.0504 45.2224 42.7084C41.6654 44.9914 38.5824 47.9394 36.1424 51.3914L36.1404 51.3834ZM34.7874 28.9624C31.7454 32.7034 29.4124 36.9864 27.6704 41.6154C30.1614 39.9744 32.8154 38.5924 35.5894 37.4924C35.9444 36.3514 36.4354 35.2564 37.0524 34.2324C38.8374 31.3384 41.4834 29.8644 44.7034 29.9674C44.7324 29.9594 44.7664 29.9694 44.7974 29.9694C47.2094 28.0364 49.7304 26.2444 52.3474 24.6014C46.2784 24.9774 40.3274 26.4554 34.7874 28.9644V28.9624ZM95.8424 111.063L95.8294 111.138C95.8604 111.13 95.8934 111.134 95.9264 111.133L95.8424 111.063ZM36.5664 39.4944C35.9374 42.2174 35.7274 45.5224 35.9564 49.2004C38.3274 46.1614 41.2004 43.5494 44.4514 41.4764C47.1044 39.7904 49.7744 38.2274 52.4634 36.7884C51.0864 36.6044 49.7004 36.5104 48.3114 36.5064C44.7264 36.5084 41.1664 37.1014 37.7744 38.2594C37.4024 38.6374 37.0334 39.0154 36.6644 39.3934L36.5664 39.4944ZM77.6634 92.0264C79.2964 93.8014 81.0154 95.5834 82.8204 97.3714C83.7734 96.7324 84.7094 96.0634 85.6264 95.3654C87.0724 94.2744 88.3294 92.9554 89.3504 91.4594C88.4384 89.4994 87.6384 87.5814 86.9534 85.7184C83.8904 87.9164 80.7594 90.0304 77.6654 92.0364L77.6634 92.0264ZM90.0814 92.9694C89.0654 94.3154 87.8674 95.5134 86.5224 96.5294C85.6554 97.1804 84.7785 97.8094 83.8924 98.4174C86.5614 101.018 89.4024 103.625 92.4154 106.238C92.5304 106.175 92.6474 106.111 92.7594 106.047C93.6334 105.562 94.5004 105.064 95.3634 104.553C95.4504 103.979 95.5384 103.409 95.6274 102.841C93.9704 100.213 92.4744 97.6184 91.1414 95.0554C90.7744 94.3614 90.4214 93.6694 90.0834 92.9794L90.0814 92.9694ZM68.7504 81.2294C71.1114 84.4584 73.6344 87.5644 76.3104 90.5374L76.6644 90.9294C79.7474 88.9324 82.8814 86.8264 85.9384 84.6464C80.2634 80.8164 75.5394 76.8374 72.0024 72.9124C71.6024 73.8394 71.2094 74.7804 70.8234 75.7364C70.0884 77.5644 69.3974 79.3984 68.7504 81.2394V81.2294ZM95.0784 106.417C94.5864 106.701 94.0904 106.982 93.5964 107.259C93.9924 107.598 94.3934 107.938 94.7944 108.276L95.0784 106.417ZM57.7604 63.8194C57.5754 64.1374 57.4024 64.4624 57.2434 64.7934C56.7394 65.8204 56.3434 66.8954 56.0614 68.0034C57.0124 67.6524 57.9674 67.3154 58.9254 66.9914C58.4904 65.9224 58.1014 64.8654 57.7604 63.8194ZM96.7054 105.467L96.5704 106.351C96.4224 107.359 96.2754 108.37 96.1084 109.385C96.7464 109.911 97.3934 110.442 98.0484 110.98C99.0324 110.885 99.9874 110.764 100.913 110.616C99.5894 108.798 98.3324 106.994 97.1404 105.204C96.9944 105.291 96.8514 105.379 96.7054 105.467ZM60.8854 67.8774C62.5724 71.7104 64.8484 75.6794 67.7134 79.7854C68.2654 78.2434 68.8504 76.7144 69.4664 75.1974C69.9434 74.0094 70.4344 72.8434 70.9394 71.7004C69.4474 69.9574 68.1364 68.0684 67.0244 66.0604C64.9694 66.6114 62.9224 67.2174 60.8854 67.8774ZM101.883 111.93C101.166 112.06 100.422 112.174 99.6534 112.273C100.97 113.327 102.313 114.38 103.685 115.431C104.345 115.938 104.999 116.436 105.654 116.929L105.681 116.811C104.361 115.179 103.096 113.552 101.883 111.93ZM118.355 128.889C119.575 130.155 120.823 131.417 122.101 132.674C122.516 132.091 122.926 131.493 123.332 130.881C122.011 130.054 120.679 129.201 119.336 128.323C119.002 128.513 118.673 128.697 118.355 128.889ZM115.241 125.6C115.92 126.333 116.607 127.063 117.305 127.795C117.513 127.668 117.728 127.54 117.943 127.415C117.043 126.819 116.142 126.214 115.241 125.6ZM124.58 131.667C124.113 132.365 123.64 133.049 123.161 133.72C124.949 135.462 126.787 137.199 128.677 138.931C129.278 139.483 129.885 140.028 130.499 140.566C131.179 139.984 131.847 139.377 132.505 138.745C133.043 138.227 133.572 137.698 134.086 137.159C132.214 136.162 130.492 135.183 129.312 134.5C127.765 133.602 126.182 132.655 124.58 131.667ZM110.292 120.057L110.962 120.833C113.875 122.92 116.706 124.86 119.4 126.636C122.018 125.375 124.775 124.426 127.614 123.808C129.091 121.079 130.446 118.251 131.678 115.322C124.644 117.304 117.504 118.883 110.291 120.053L110.292 120.057ZM107.27 116.446C107.892 117.209 108.526 117.973 109.17 118.74C117.009 117.501 124.764 115.777 132.389 113.578C133.665 110.383 134.79 107.099 135.75 103.756C130.914 103.508 125.335 102.431 119.398 100.642C119.318 100.795 119.236 100.945 119.153 101.093C117.353 104.309 114.101 107.858 108.23 110.171C108.046 112.282 107.726 114.378 107.27 116.448V116.446ZM135.435 137.87C134.816 138.529 134.177 139.174 133.52 139.805C132.895 140.407 132.261 140.986 131.617 141.541C134.427 143.951 137.375 146.251 140.461 148.444C142.122 147.485 143.793 146.448 145.451 145.341C149.159 142.875 152.682 140.142 155.991 137.161C159.769 131.694 162.693 125.683 164.661 119.335C162.66 120.711 160.45 121.753 158.116 122.422C154.39 132.827 147.932 140.763 144.126 141.156C142.602 141.309 138.923 139.663 135.434 137.866L135.435 137.87ZM103.475 111.612C104.317 112.728 105.186 113.847 106.08 114.969C106.352 113.563 106.561 112.147 106.706 110.721C105.644 111.072 104.566 111.369 103.475 111.612ZM98.3874 104.437C99.6794 106.387 101.055 108.351 102.516 110.329C103.983 110.034 105.427 109.639 106.839 109.145C107.065 105.719 106.934 102.278 106.446 98.8794C103.827 100.85 101.14 102.701 98.3864 104.433L98.3874 104.437ZM58.8004 62.2344L58.9994 62.8894C59.3754 64.0844 59.8124 65.2964 60.3114 66.5244C62.3124 65.8724 64.3264 65.2754 66.3554 64.7334L66.2554 64.5154C65.1664 62.1374 64.5694 59.5634 64.5014 56.9484C62.1324 58.5194 60.2284 60.2944 58.8004 62.2344ZM152.015 142.397C150.177 143.83 148.259 145.214 146.261 146.549C144.769 147.547 143.271 148.486 141.789 149.361C142.49 149.845 143.196 150.323 143.908 150.794C146.811 148.197 149.521 145.393 152.017 142.403L152.015 142.397ZM126.628 125.558C126.174 125.68 125.728 125.805 125.288 125.932C123.772 126.375 122.289 126.925 120.85 127.577C121.969 128.306 123.062 129.003 124.128 129.671C124.993 128.342 125.827 126.974 126.63 125.564L126.628 125.558ZM97.1594 102.538L97.5874 103.207C100.527 101.363 103.393 99.3714 106.186 97.2304C106.093 96.6864 105.988 96.1404 105.875 95.5934C103.685 94.6254 101.49 93.5834 99.2914 92.4664C98.3684 95.5104 97.7274 98.9394 97.1594 102.538ZM157.106 138.119C156.984 138.301 156.858 138.481 156.73 138.658C153.369 143.396 149.493 147.746 145.173 151.63C146.23 152.314 147.301 152.985 148.386 153.643C153.576 148.83 158.488 143.651 163.22 138.525C184.095 115.929 184.678 85.6614 164.957 48.5784C160.908 40.9154 155.15 34.2874 148.129 29.2054C143.316 25.7564 138.056 22.9784 132.493 20.9484C134.567 23.2744 136.36 25.8354 137.836 28.5794C139.287 29.6864 140.724 30.8614 142.148 32.1044C153.55 42.0654 163.397 56.2364 169.163 70.9834C173.453 81.9574 175.195 92.4744 174.274 101.09L174.296 101.17C175.45 106.647 174.713 112.457 172.112 118.436C169.24 125.035 163.983 131.87 157.104 138.119H157.106ZM91.0344 91.5834C91.4714 92.4944 91.9384 93.4304 92.4374 94.3914C93.5104 96.4524 94.6924 98.5404 95.9814 100.652C96.5124 97.5064 97.1224 94.4944 97.9654 91.7854C97.4234 91.5014 96.8824 91.2144 96.3444 90.9234C95.0144 90.2054 93.7164 89.4774 92.4504 88.7394C92.0634 89.7274 91.5904 90.6794 91.0344 91.5834ZM128.567 125.104C127.556 126.938 126.493 128.72 125.378 130.45C129.042 132.71 132.341 134.592 135.108 136.058C138.47 132.342 141.256 128.143 143.373 123.601C137.735 123.69 132.786 124.193 128.567 125.104ZM57.6624 48.2754C57.0484 52.1084 57.2714 56.1784 58.3184 60.4574C59.9344 58.5014 62.0114 56.7344 64.5484 55.1574C64.7014 53.1504 65.1554 51.1784 65.8944 49.3074C63.2024 48.6324 60.4384 48.2854 57.6624 48.2754ZM42.8384 31.5824C40.9814 31.9824 39.4624 33.1254 38.3054 35.0004C38.0324 35.4464 37.7904 35.9094 37.5794 36.3864C39.3074 34.6904 41.0604 33.0894 42.8384 31.5824ZM88.8334 86.5444C89.2664 87.6394 89.7474 88.7764 90.2764 89.9554C90.6164 89.3174 90.9154 88.6584 91.1714 87.9824C90.3764 87.5064 89.5974 87.0264 88.8334 86.5444ZM107.775 97.8544C108.34 101.392 108.53 104.98 108.344 108.558C108.505 108.49 108.666 108.419 108.825 108.348C112.889 106.527 115.935 103.844 117.879 100.372L117.974 100.198C115.037 99.2674 112.021 98.1674 108.969 96.9134C108.571 97.2314 108.173 97.5454 107.775 97.8544ZM72.6634 71.4244C76.0134 75.2304 80.5544 79.1344 85.9994 82.9014C83.6694 75.5014 83.2724 69.0794 84.9254 64.2184C85.0874 63.7404 85.2754 63.2714 85.4874 62.8134C84.3524 62.9144 83.2144 63.0334 82.0754 63.1714C80.1614 63.4054 78.2434 63.6904 76.3224 64.0254C75.0534 66.3564 73.8334 68.8234 72.6634 71.4244ZM68.4934 65.6924C69.4054 67.2764 70.4504 68.7814 71.6154 70.1904C72.5374 68.1704 73.4934 66.2274 74.4834 64.3614C72.4824 64.7494 70.4864 65.1934 68.4934 65.6924ZM144.984 123.581C142.831 128.383 139.953 132.826 136.45 136.754C140.391 138.762 143.072 139.787 143.975 139.695C145.574 139.53 148.841 136.847 152.238 131.347C153.887 128.654 155.281 125.813 156.402 122.861C153.683 123.445 150.904 123.698 148.124 123.615C147.055 123.59 146.008 123.578 144.984 123.581ZM45.2844 31.4584C43.5084 32.8974 41.7524 34.4354 40.0164 36.0724C44.0424 35.0474 48.2254 34.7834 52.3484 35.2934C52.2584 35.1134 52.1624 34.9404 52.0594 34.7744C50.8054 32.7634 48.5894 31.6764 45.2844 31.4584ZM65.9574 56.0314C65.8934 58.7484 66.4524 61.4444 67.5904 63.9134L67.7964 64.3554C70.3144 63.7154 72.8424 63.1634 75.3794 62.6994C76.6785 60.3574 78.0194 58.1584 79.4034 56.1014C77.6884 54.7144 75.8504 53.4884 73.9114 52.4374C72.0334 53.0844 70.1974 53.8444 68.4114 54.7134C67.5514 55.1364 66.7334 55.5754 65.9574 56.0314ZM92.3744 81.7364C91.1384 82.6824 89.8604 83.6354 88.5414 84.5944C89.5534 85.2514 90.5914 85.9024 91.6544 86.5474C91.9724 85.4204 92.1874 84.2684 92.2974 83.1034C92.3304 82.6574 92.3584 82.1924 92.3744 81.7384V81.7364ZM86.6084 63.8944C86.5024 64.1524 86.4044 64.4174 86.3114 64.6884C85.2794 67.7244 84.4384 73.6834 87.6864 83.4004C89.3104 82.2214 90.8674 81.0554 92.3574 79.9034C92.1664 75.9834 91.0044 71.8114 88.9714 67.8514C88.2684 66.4844 87.4794 65.1634 86.6094 63.8964L86.6084 63.8944ZM54.5274 37.3554C55.0054 40.0224 54.6854 43.2894 53.8024 46.9894C54.6834 46.9034 55.5634 46.8494 56.4404 46.8264C56.8164 45.0074 57.3774 43.2314 58.1164 41.5274C58.5574 40.5054 59.0584 39.5104 59.6174 38.5484C58.0544 37.9874 56.4554 37.5364 54.8304 37.1974C54.7314 37.2444 54.6284 37.2964 54.5274 37.3554ZM93.8464 80.6084C93.8634 81.4914 93.8304 82.3734 93.7464 83.2524C93.6164 84.6354 93.3484 86.0024 92.9454 87.3314C94.2694 88.1144 95.6354 88.8824 97.0414 89.6374C97.5034 89.8894 97.9684 90.1354 98.4354 90.3794C99.3484 87.8174 100.509 85.5584 102.066 83.7464C101.026 81.3634 99.8624 79.0364 98.5784 76.7754C97.0844 78.0334 95.5064 79.3094 93.8454 80.6044L93.8464 80.6084ZM133.469 114.792C132.263 117.75 130.929 120.633 129.474 123.408C133.678 122.601 138.516 122.175 144.013 122.121C145.043 119.677 145.823 117.135 146.341 114.534C146.627 113.077 146.81 111.602 146.889 110.119C142.498 111.906 138.019 113.465 133.469 114.792ZM89.1794 14.3644C87.6834 14.1344 86.1604 13.9414 84.6104 13.7874C73.1664 12.6414 63.1834 13.3224 54.9374 15.8104C47.7824 17.9694 41.7404 21.5534 36.9994 26.4694C42.0884 24.5004 47.4624 23.3654 52.9134 23.1084C53.5914 23.0794 54.2644 23.0654 54.9334 23.0664C60.2204 20.0654 65.5264 17.9874 70.6454 16.9544C76.7654 15.7054 82.9574 14.8404 89.1854 14.3634L89.1794 14.3644ZM102.708 85.2714C101.467 86.8814 100.528 88.8364 99.7474 91.0484C101.645 92.0124 103.551 92.9264 105.467 93.7904C104.76 90.8864 103.838 88.0384 102.708 85.2714ZM61.0104 39.0694C60.4304 40.0484 59.9114 41.0624 59.4584 42.1064C58.8024 43.6214 58.2934 45.1974 57.9414 46.8104C60.8224 46.8444 63.6894 47.2244 66.4794 47.9424C66.5574 47.7724 66.6394 47.6024 66.7244 47.4334C67.4324 46.0234 68.2674 44.6794 69.2194 43.4204C66.6364 41.6984 63.8864 40.2404 61.0104 39.0694ZM67.3064 49.6934C66.7154 51.1564 66.3104 52.6864 66.1004 54.2494C68.0314 53.1964 70.0354 52.2844 72.0974 51.5204C70.5484 50.7924 68.9474 50.1814 67.3064 49.6934ZM103.786 84.0424C105.214 87.4334 106.336 90.9454 107.139 94.5364C107.67 94.7654 108.201 94.9914 108.733 95.2124C112.686 92.0034 116.425 88.5374 119.925 84.8394C119.714 83.6144 119.44 82.4014 119.106 81.2044C113.581 80.0424 109.295 80.3904 106.121 82.2354C105.266 82.7314 104.48 83.3394 103.786 84.0424ZM80.5214 57.0414C79.3984 58.7174 78.3024 60.4964 77.2324 62.3764C78.7874 62.1194 80.3424 61.8964 81.8964 61.7084C82.8414 61.5944 83.7894 61.4924 84.7414 61.4014C83.4564 59.8364 82.0454 58.3794 80.5224 57.0454L80.5214 57.0414ZM87.5174 62.6514C88.5405 64.0964 89.4584 65.6124 90.2664 67.1864C92.2204 70.9904 93.4044 74.9974 93.7444 78.8214C95.1684 77.6954 96.5294 76.5844 97.8254 75.4894C97.0064 74.0994 96.1314 72.7084 95.2034 71.3174C93.1114 68.1904 91.0154 65.2724 88.9154 62.5634C88.4574 62.5884 87.9934 62.6164 87.5174 62.6514ZM120.176 86.6824C117.053 89.9234 113.747 92.9834 110.274 95.8464C113.096 96.9714 115.899 97.9844 118.627 98.8344C120.165 95.3624 120.694 91.2134 120.184 86.6804L120.176 86.6824ZM55.3164 24.5254C52.3934 26.2184 49.5864 28.1044 46.9144 30.1704C49.8764 30.6524 52.0184 31.9384 53.2974 34.0064C53.5984 34.4934 53.8484 35.0104 54.0454 35.5494C54.2364 35.5814 54.4274 35.6184 54.6194 35.6544C58.3834 33.7144 62.2494 31.9804 66.2024 30.4604C67.3104 29.4334 68.5054 28.4334 69.7884 27.4614C65.4064 25.5814 60.5174 24.5824 55.3164 24.5254ZM70.4224 44.2374C69.4474 45.5194 68.6014 46.8944 67.8954 48.3424C69.6754 48.8834 71.4094 49.5624 73.0844 50.3724C73.3944 50.5234 73.7054 50.6774 74.0114 50.8364C75.0744 50.4774 76.1824 50.1344 77.3344 49.8074C75.1584 47.7994 72.8514 45.9384 70.4284 44.2364L70.4224 44.2374ZM63.6274 33.0774C61.3714 34.0184 59.1154 35.0464 56.8604 36.1634C58.0394 36.4694 59.2184 36.8384 60.3994 37.2704C61.3654 35.7894 62.4464 34.3864 63.6334 33.0764L63.6274 33.0774ZM99.7064 75.8044C100.969 78.0114 102.122 80.2804 103.158 82.6034C103.836 81.9774 104.58 81.4284 105.377 80.9634C108.712 79.0244 113.097 78.5714 118.621 79.6154C117.458 76.0374 115.837 72.6244 113.798 69.4624C112.8 67.9094 111.697 66.4264 110.496 65.0254C107.656 68.4574 104.061 72.0504 99.7114 75.8034L99.7064 75.8044ZM121.483 85.3104C122.248 90.5044 121.758 95.2694 120.049 99.2814C125.955 101.042 131.466 102.105 136.157 102.311C137.242 98.3354 138.09 94.2984 138.698 90.2224C135.799 87.6734 132.171 85.5564 127.814 83.8724C126.499 83.3664 125.232 82.9174 124.012 82.5254C123.184 83.4644 122.341 84.3934 121.483 85.3104ZM137.258 103.804C136.366 106.942 135.333 110.032 134.168 113.047C138.498 111.755 142.759 110.242 146.935 108.514C146.935 106.494 146.7 104.481 146.235 102.515C143.794 103.415 140.803 103.853 137.307 103.803L137.258 103.804ZM66.9934 31.7364C65.0344 33.5544 63.2914 35.5924 61.8004 37.8104C64.7154 39.0194 67.5044 40.5124 70.1264 42.2684C72.7314 39.1894 75.8554 36.5914 79.3564 34.5904C79.7044 34.3884 80.0554 34.1924 80.4114 34.0024C78.8584 32.9764 77.2884 31.9024 75.7004 30.7814C75.0424 30.3164 74.3674 29.8774 73.6754 29.4634C71.4494 30.1354 69.2224 30.8924 66.9934 31.7364ZM78.6054 50.9914C77.6344 51.2514 76.6944 51.5274 75.7854 51.8174C77.3404 52.7354 78.8284 53.7644 80.2364 54.8954C80.5524 54.4454 80.8694 54.0024 81.1894 53.5684C80.3294 52.6714 79.4674 51.8114 78.6044 50.9894L78.6054 50.9914ZM90.7074 62.4804C92.6194 64.9834 94.5274 67.6584 96.4294 70.5044C97.3234 71.8444 98.1704 73.1834 98.9684 74.5204C103.24 70.8234 106.753 67.2944 109.51 63.9344C109.372 63.7874 109.233 63.6434 109.094 63.4984C103.011 62.5804 96.8544 62.2384 90.7064 62.4784L90.7074 62.4804ZM83.7694 58.1194C84.7004 59.0804 85.5794 60.0894 86.4044 61.1424C86.6114 60.8234 86.8324 60.5174 87.0634 60.2234C85.4484 58.2374 83.8274 56.3724 82.2004 54.6284C81.9164 55.0184 81.6334 55.4154 81.3514 55.8194C82.1924 56.5534 82.9974 57.3184 83.7694 58.1174V58.1194ZM148.388 109.49C148.331 111.278 148.129 113.059 147.785 114.814C147.29 117.312 146.559 119.757 145.603 122.117C146.44 122.119 147.29 122.13 148.156 122.15C151.134 122.248 154.112 121.927 157.001 121.197C158.048 118.149 158.784 115.002 159.199 111.806C159.558 109.072 159.639 106.309 159.44 103.558C156.961 105.295 153.647 107.167 149.226 109.123C148.953 109.251 148.67 109.366 148.387 109.488L148.388 109.49ZM127.063 17.6334C124.581 15.4914 121.917 13.5694 119.102 11.8884C110.811 6.90042 100.463 3.31243 89.9614 1.78243C80.2264 0.367431 68.0254 3.68944 55.6134 11.1624C52.0964 13.2854 48.7164 15.6264 45.4934 18.1714C48.3604 16.6024 51.3854 15.3404 54.5174 14.4074C62.9494 11.8634 73.1234 11.1644 84.7604 12.3274C88.3084 12.6764 91.8304 13.2494 95.3054 14.0444C106.113 13.7344 116.307 14.7874 125.498 17.2064C126.024 17.3454 126.545 17.4854 127.063 17.6334ZM81.8124 34.9164C81.2254 35.2164 80.6484 35.5274 80.0864 35.8534C76.7794 37.7494 73.8224 40.1974 71.3424 43.0924C74.0404 44.9954 76.6004 47.0874 79.0024 49.3524C81.1694 48.7874 83.4834 48.2764 85.9424 47.8194C88.2964 45.3214 90.7024 43.2644 93.1164 41.7014C89.3914 39.6184 85.6464 37.3994 81.8124 34.9164ZM88.9724 60.2554L89.6054 61.0594C95.5024 60.7704 101.413 61.0054 107.268 61.7614C103.55 58.5184 99.6264 56.8344 96.1234 57.1454C93.1654 57.3944 90.7534 58.4554 88.9664 60.2574L88.9724 60.2554ZM83.0894 53.4434C84.7484 55.2104 86.4034 57.1024 88.0534 59.1204C90.0704 57.1454 92.7684 55.9584 95.9964 55.6794C100.39 55.2984 105.322 57.6744 109.788 62.1184C110.131 62.1734 110.474 62.2274 110.817 62.2864C113.107 59.2714 114.762 56.4044 115.78 53.6844C112.995 52.2044 110.244 50.7784 107.516 49.3644C106.073 48.6174 104.638 47.8724 103.213 47.1294C99.8894 47.3684 96.6454 47.7104 93.5424 48.1134C91.1344 48.4264 88.8384 48.7834 86.6534 49.1834C85.4514 50.4864 84.2634 51.9064 83.0894 53.4434ZM84.3064 49.6394C82.9074 49.9264 81.5584 50.2314 80.2594 50.5564C80.8674 51.1484 81.4704 51.7554 82.0774 52.3814C82.8114 51.4234 83.5545 50.5094 84.3064 49.6394ZM166.644 117.756C165.201 123.019 163.111 128.081 160.421 132.829C165.038 127.938 168.608 122.819 170.763 117.85C172.501 113.858 173.367 109.958 173.354 106.199C173.086 107.228 172.76 108.24 172.378 109.232C171.039 112.678 169.115 115.529 166.644 117.756ZM95.1624 15.5124C87.0254 15.7864 78.9254 16.7454 70.9494 18.3774C66.6684 19.2424 62.2504 20.8614 57.8174 23.1504C62.4284 23.4374 66.9484 24.5644 71.1544 26.4754C73.1174 25.0894 75.1574 23.8154 77.2634 22.6574C83.8174 19.0354 90.5244 16.8264 97.2904 16.0374C96.5864 15.8584 95.8764 15.6824 95.1624 15.5124ZM139.995 91.4304C139.409 95.1054 138.631 98.7474 137.664 102.341C140.286 102.353 143.265 102.073 145.851 101.092C145.423 99.6884 144.859 98.3304 144.169 97.0364C143.057 94.9734 141.65 93.0854 139.991 91.4314L139.995 91.4304ZM120.724 81.5664C120.897 82.2124 121.038 82.8564 121.169 83.4984C121.608 83.0164 122.044 82.5324 122.476 82.0444C121.876 81.8704 121.293 81.7134 120.72 81.5674L120.724 81.5664ZM160.832 102.535C161.132 105.682 161.074 108.853 160.66 111.987C160.276 114.937 159.624 117.845 158.712 120.676C161.148 119.856 163.406 118.578 165.364 116.912C166.061 114.284 166.593 111.615 166.956 108.921C167.655 103.597 167.733 98.2104 167.19 92.8684C166.926 93.9804 166.591 95.0734 166.186 96.1424C165.554 97.8174 164.074 100.009 160.822 102.538L160.832 102.535ZM71.3034 28.1704C70.9044 28.4624 70.5144 28.7594 70.1314 29.0564C70.7234 28.8564 71.3154 28.6624 71.9074 28.4744C71.7054 28.3634 71.5054 28.2704 71.3034 28.1704ZM94.5724 42.5114C92.3334 43.8964 90.2604 45.5324 88.3944 47.3884C89.9874 47.1244 91.6394 46.8814 93.3514 46.6594C95.8804 46.3314 98.3534 46.0614 100.769 45.8484C98.6964 44.7504 96.6404 43.6524 94.5724 42.5114ZM111.436 63.8784C112.748 65.3854 113.949 66.9854 115.029 68.6664C117.29 72.1684 119.054 75.9684 120.27 79.9554C121.31 80.1994 122.398 80.4914 123.531 80.8314C124.935 79.2014 126.294 77.5344 127.609 75.8304C129.126 73.8574 130.511 71.8964 131.764 69.9484C130.463 69.3834 129.119 68.8424 127.732 68.3264C122.446 66.3554 116.992 64.8674 111.437 63.8804L111.436 63.8784ZM147.6 101.931C148.083 103.882 148.348 105.879 148.391 107.888L148.636 107.778C153.018 105.841 156.585 103.861 159.275 101.886C158.699 97.0344 157.085 92.3634 154.543 88.1904L154.423 87.9944C154.478 91.4434 153.898 94.5064 152.683 97.0164C151.644 99.1514 149.938 100.795 147.601 101.933L147.6 101.931ZM101.211 17.2134C93.9624 17.4624 86.1574 19.4154 77.9684 23.9404C76.0674 24.9894 74.2954 26.0794 72.6534 27.2104C73.0614 27.4244 73.4654 27.6454 73.8634 27.8724C82.0434 25.4504 90.1634 24.1784 98.0414 24.1114C105.632 24.0484 112.894 25.1194 119.687 27.2994C117.072 25.1194 114.253 23.1984 111.268 21.5624C108.055 19.8084 104.689 18.3524 101.211 17.2134ZM133.112 70.5554C131.805 72.6004 130.356 74.6574 128.765 76.7264C127.563 78.2884 126.322 79.8194 125.043 81.3164C126.104 81.6694 127.201 82.0634 128.334 82.5004C132.493 84.1034 136.024 86.1024 138.929 88.4964C139.27 85.9054 139.507 83.3154 139.64 80.7274C139.757 78.4664 139.793 76.2394 139.746 74.0474C137.603 72.7584 135.388 71.5924 133.112 70.5554ZM122.508 29.8504C114.947 26.9454 106.714 25.5124 98.0474 25.5794C90.7164 25.6394 83.1634 26.7664 75.5464 28.9124C75.8804 29.1294 76.2124 29.3604 76.5354 29.5834C78.3514 30.8684 80.1404 32.0854 81.9034 33.2364C92.6474 28.0864 106.689 27.6404 115.033 38.3044C116.837 38.7284 118.606 39.2914 120.323 39.9884C124.247 41.5744 128.135 43.9154 131.834 46.8994C132.707 47.0694 133.566 47.2524 134.41 47.4474C132.847 43.7264 130.884 40.1874 128.555 36.8924C126.759 34.3664 124.737 32.0084 122.514 29.8484L122.508 29.8504ZM141.294 90.6744C142.939 92.3614 144.341 94.2704 145.457 96.3464C146.165 97.6724 146.747 99.0624 147.197 100.497C148.964 99.5884 150.451 98.2714 151.365 96.3804C152.78 93.4624 153.224 89.7524 152.818 85.6154C149.883 81.6204 146.021 78.0724 141.233 74.9704C141.252 76.8854 141.212 78.8284 141.112 80.7984C140.96 83.7424 140.675 86.6924 140.256 89.6504C140.615 89.9844 140.963 90.3254 141.299 90.6734L141.294 90.6744ZM112.382 37.4924C104.655 29.5044 92.8174 29.9304 83.3594 34.1764C87.1454 36.6044 90.8634 38.7774 94.5494 40.8344C95.6994 40.1794 96.9054 39.6274 98.1524 39.1844C102.819 37.5254 107.829 37.0684 112.72 37.8554C112.612 37.7324 112.503 37.6084 112.388 37.4904L112.382 37.4924ZM117.074 54.3784C116.074 56.9854 114.52 59.7154 112.413 62.5714C117.805 63.5724 123.099 65.0394 128.237 66.9554C129.723 67.5104 131.16 68.0914 132.546 68.6984C133.37 67.3544 134.131 66.0184 134.829 64.6904C128.62 60.7244 122.764 57.4194 117.072 54.3794L117.074 54.3784ZM114.19 39.6184C109.021 38.4694 103.632 38.7974 98.6414 40.5644C97.7624 40.8744 96.9044 41.2434 96.0754 41.6694C98.5434 43.0234 101.013 44.3304 103.501 45.6304C108.14 45.3034 112.556 45.1994 116.749 45.3184C116.383 43.3534 115.575 41.4974 114.388 39.8894L114.19 39.6184ZM168.554 91.9524C169.192 97.6624 169.134 103.428 168.381 109.124C168.118 111.079 167.77 113.009 167.339 114.913C168.903 113.069 170.14 110.97 170.996 108.708C171.914 106.289 172.52 103.762 172.798 101.189C172.077 97.9774 170.663 94.8914 168.57 91.9484L168.554 91.9524ZM116.928 46.8174C113.274 46.7034 109.618 46.7654 106.034 46.9544C106.746 47.3264 107.46 47.6954 108.178 48.0674C110.846 49.4424 113.519 50.8394 116.242 52.2794C116.346 51.9324 116.438 51.5884 116.518 51.2484C116.874 49.8004 117.012 48.3064 116.928 46.8174ZM154.225 85.0774C154.779 85.8494 155.299 86.6354 155.787 87.4364C158.286 91.5364 159.925 96.1004 160.607 100.852C162.746 99.0834 164.164 97.3304 164.811 95.6294C165.579 93.5544 166.101 91.3964 166.366 89.2004C165.149 87.8334 163.842 86.5504 162.452 85.3584C159.03 82.4144 155.735 79.7214 152.543 77.2384C153.354 79.7904 153.921 82.4154 154.235 85.0754L154.225 85.0774ZM118.405 46.8714C118.478 48.4584 118.324 50.0484 117.948 51.5924C117.837 52.0524 117.709 52.5174 117.563 52.9874C123.301 56.0484 129.216 59.3854 135.497 63.3844C136.362 61.6364 137.133 59.8424 137.805 58.0104C137.427 56.3834 136.996 54.7914 136.512 53.2334C134.853 51.4824 133.085 49.8364 131.22 48.3054C126.987 47.5274 122.705 47.0484 118.405 46.8714ZM136.072 65.4834C135.403 66.7494 134.679 68.0224 133.899 69.3014C135.945 70.2444 137.878 71.2464 139.698 72.3084C139.635 70.7384 139.529 69.1904 139.38 67.6654C138.265 66.9174 137.163 66.1904 136.072 65.4834ZM140.947 68.7304C141.063 70.2064 141.147 71.7014 141.197 73.2134C145.677 76.0054 149.414 79.1774 152.409 82.7294C151.955 80.3134 151.307 77.9384 150.472 75.6254C147.178 73.1224 144.019 70.8354 140.947 68.7304ZM116.327 40.1544C117.305 41.7514 117.961 43.5254 118.257 45.3744C121.76 45.5104 125.252 45.8394 128.719 46.3584C125.95 44.3364 122.948 42.6524 119.777 41.3444C118.649 40.8884 117.497 40.4914 116.327 40.1544ZM138.366 60.6114C137.875 61.7914 137.334 62.9784 136.742 64.1714C137.546 64.6904 138.356 65.2204 139.171 65.7634C138.963 64.0124 138.694 62.2954 138.366 60.6114ZM139.334 58.0924C139.981 60.9754 140.459 63.8944 140.767 66.8344C143.578 68.7444 146.482 70.7984 149.472 73.0344C147.023 67.2124 143.747 61.7744 139.745 56.8884C139.613 57.2874 139.477 57.6904 139.334 58.0924ZM168.201 89.0734C170.232 91.4644 171.872 94.1624 173.06 97.0664C173.165 89.4844 171.383 80.6684 167.807 71.5094C162.125 56.9744 152.425 43.0124 141.194 33.2004C140.583 32.6674 139.938 32.1224 139.26 31.5654L139.372 31.8364C140.37 34.2954 141.071 36.8644 141.46 39.4894C142.841 40.6734 144.183 41.9204 145.487 43.2304C150.068 47.8454 154.236 53.3674 157.725 59.3914C163.474 65.0784 167.072 72.5844 167.905 80.6284C168.167 82.9974 168.201 85.3864 168.006 87.7624C168.071 88.2024 168.136 88.6384 168.201 89.0734ZM140.256 55.2094C145.21 61.1074 149.203 67.9184 151.696 74.7184C155.44 77.5844 159.333 80.7384 163.405 84.2404C164.472 85.1604 165.467 86.0984 166.389 87.0544C165.511 82.1514 164.181 77.3404 162.415 72.6824C160.794 68.4014 158.83 64.2584 156.543 60.2934C152.283 56.0984 147.032 53.0844 141.233 50.9824C141.157 51.4124 141.074 51.8424 140.983 52.2724C140.777 53.2454 140.534 54.2244 140.256 55.2094ZM129.503 19.9054C128.074 19.4424 126.616 19.0144 125.127 18.6224C117.559 16.6304 109.295 15.5774 100.559 15.4664C100.855 15.5584 101.15 15.6514 101.443 15.7484C105.025 15.6494 108.607 15.9394 112.127 16.6144C119.925 18.1014 127.538 21.3874 134.848 26.4124C133.291 24.0684 131.5 21.8874 129.503 19.9054ZM135.092 49.1344C134.796 49.0614 134.497 48.9914 134.198 48.9204C134.62 49.2984 135.037 49.6854 135.45 50.0824C135.333 49.7604 135.213 49.4454 135.091 49.1314L135.092 49.1344ZM137.813 52.4544C138.195 52.8604 138.571 53.2714 138.947 53.6914L139.098 53.8594C139.263 53.2224 139.412 52.5874 139.546 51.9564C139.65 51.4634 139.743 50.9694 139.826 50.4814C138.843 50.1674 137.843 49.8684 136.828 49.5834C137.177 50.5294 137.506 51.4864 137.813 52.4544ZM161.07 65.7754C162.061 67.8674 162.969 69.9984 163.783 72.1554C164.78 74.7914 165.643 77.4764 166.369 80.1994C165.725 75.0534 163.913 70.1224 161.072 65.7834L161.07 65.7754ZM136.702 29.5714C129.113 23.8714 118.377 18.0374 105.62 17.2714C107.797 18.1514 109.919 19.1594 111.976 20.2894C116.106 22.5504 119.921 25.3444 123.323 28.5994L123.41 28.6344C129.287 30.9394 134.784 34.1174 139.713 38.0624C139.321 36.1244 138.749 34.2274 138.006 32.3954C137.618 31.4404 137.183 30.4984 136.702 29.5714ZM125.933 31.2804C127.298 32.7954 128.574 34.3874 129.755 36.0504C132.35 39.7274 134.503 43.6974 136.17 47.8784C136.62 47.9984 137.072 48.1214 137.523 48.2474C138.38 48.4904 139.221 48.7474 140.046 49.0194C140.435 46.1084 140.443 43.1594 140.07 40.2464C135.787 36.6304 131.03 33.6134 125.933 31.2804ZM141.704 41.6564C141.913 44.2734 141.834 46.9054 141.47 49.5054C146.251 51.2234 150.433 53.4474 154.019 56.1764C151.234 51.8964 148.027 47.9074 144.444 44.2694C143.546 43.3654 142.631 42.4954 141.698 41.6584L141.704 41.6564Z" fill="#080435"/>
</g>
<defs>
<clipPath id="clip0_4737_81896">
<rect width="183" height="180" fill="white"/>
</clipPath>
</defs>
</svg>
