<svg width="48" height="76" viewBox="0 0 48 76" fill="none" xmlns="http://www.w3.org/2000/svg">
<g clip-path="url(#clip0_3349_71493)">
<path d="M11.4156 73.9568L11.7522 67.6369C11.7522 67.3385 11.3085 67.3385 11.2932 67.6369L10.9565 73.9568C10.9565 74.2476 11.4003 74.2476 11.4156 73.9568Z" fill="black"/>
<path d="M38.1622 73.9568L37.9404 67.6369C37.9404 67.3385 37.466 67.3385 37.4813 67.6369L37.7032 73.9568C37.7032 74.2476 38.1699 74.2552 38.1622 73.9568Z" fill="black"/>
<path d="M12.8447 55.0586C12.0233 55.3766 11.2384 55.7819 10.5036 56.2675C9.89418 56.6399 9.36693 57.1325 8.95394 57.7152C8.54095 58.2979 8.25084 58.9586 8.1013 59.657C7.98654 60.3379 7.87178 61.0878 7.74172 61.8606C7.47394 63.5285 7.19087 65.3495 6.9384 66.9793L6.17334 72.1668C7.83153 72.8683 9.53355 73.4612 11.2687 73.9419L11.3758 68.8385C12.8294 65.296 12.8906 58.188 12.8447 55.0586Z" fill="#FCCEB6"/>
<path d="M42.3299 66.3443L41.6108 61.3939L41.32 59.4275C40.7244 58.1133 39.8187 56.9633 38.6806 56.0763C38.4205 55.8697 38.1297 55.6631 37.8237 55.4642C37.3364 55.1508 36.8247 54.877 36.2936 54.6455C36.2324 57.5224 36.2247 65.1277 37.7778 68.8386L37.8849 74.1945C39.7032 73.6236 41.4734 72.9098 43.1791 72.0598L42.3299 66.3443Z" fill="#FCCEB6"/>
<path d="M36.3336 59.8251C36.2418 57.7134 36.2571 55.8006 36.28 54.6452C35.3016 54.2146 34.2737 53.9062 33.2198 53.7271C32.5715 53.6202 31.9175 53.5512 31.2612 53.5205L19.0202 53.6276C19.0202 53.6276 18.194 53.6965 17.0005 53.9107C15.9655 54.102 14.9434 54.3575 13.9402 54.6759C13.5959 54.7906 13.2593 54.9207 12.915 55.0508C12.915 56.0913 12.915 57.568 12.915 59.2054C20.5642 61.2489 28.5871 61.4612 36.3336 59.8251Z" fill="#3793B5"/>
<path d="M37.7027 68.6779C37.1369 67.0638 36.7745 65.3854 36.624 63.6816C28.5449 66.0535 20.2058 67.2089 12.3715 64.6533C12.2008 66.0841 11.8592 67.4892 11.354 68.8386V69.0146C19.5478 72.2205 28.9504 71.3865 37.7027 68.6779Z" fill="#3793B5"/>
<path d="M37.7024 68.6777C28.9501 71.3863 19.5475 72.2203 11.346 69.0144L11.2466 73.9418C17.1529 75.6327 27.42 77.469 37.8707 74.1713L37.7636 68.8155L37.7024 68.6777Z" fill="#64AD99"/>
<path d="M36.624 63.6819C36.4787 62.4041 36.3869 61.0804 36.3333 59.8562C28.553 61.5119 20.4913 61.3022 12.8077 59.2441C12.7465 60.9886 12.6164 62.9091 12.3716 64.6842C20.2058 67.2091 28.545 66.0538 36.624 63.6819Z" fill="#64AD99"/>
<path d="M11.8657 29.9168C11.8282 30.8157 11.5275 31.6837 11.0009 32.4131C10.4742 33.1425 9.74491 33.701 8.90353 34.0193C8.06214 34.3376 7.14578 34.4017 6.2683 34.2035C5.39081 34.0054 4.59089 33.5538 3.9679 32.9048C3.34492 32.2558 2.92634 31.438 2.76417 30.5531C2.602 29.6682 2.7034 28.7551 3.05575 27.9274C3.40811 27.0996 3.99589 26.3936 4.74607 25.8971C5.49626 25.4007 6.37578 25.1355 7.27535 25.1348C8.51725 25.1629 9.69745 25.6818 10.5577 26.578C11.418 27.4742 11.8883 28.6747 11.8657 29.9168Z" fill="#F9B28F"/>
<path d="M46.6833 29.8014C46.6443 30.6999 46.3423 31.5671 45.8148 32.2954C45.2873 33.0238 44.5576 33.5811 43.7161 33.8983C42.8746 34.2154 41.9586 34.2784 41.0816 34.0795C40.2047 33.8805 39.4055 33.4283 38.7832 32.7791C38.161 32.1298 37.7432 31.3121 37.5816 30.4274C37.42 29.5428 37.5218 28.6301 37.8743 27.8028C38.2268 26.9755 38.8145 26.2699 39.5645 25.7737C40.3145 25.2775 41.1937 25.0126 42.0929 25.0117C43.3361 25.0398 44.5175 25.5598 45.378 26.4577C46.2385 27.3555 46.7079 28.558 46.6833 29.8014Z" fill="#F9B28F"/>
<path d="M18.9897 53.6281C18.9897 53.6281 20.5887 55.6021 24.9266 55.5868C29.2645 55.5715 31.2307 53.5209 31.2307 53.5209C30.1449 52.4187 29.2778 51.1206 28.6754 49.6953C26.1134 50.8279 23.3638 51.4764 20.5658 51.6081C20.1775 52.378 19.6421 53.0643 18.9897 53.6281Z" fill="#FCCEB6"/>
<path d="M21.8895 46.5197C21.7691 48.2712 21.3201 49.9843 20.5659 51.5696C23.362 51.4475 26.1115 50.8094 28.6756 49.6873C28.2316 48.6382 27.9579 47.525 27.8646 46.3896C27.8646 46.3896 24.4295 47.2083 21.8895 46.5197Z" fill="#F9B28F"/>
<path d="M4.04562 30.0926C4.07619 30.0979 4.10763 30.0942 4.13614 30.082C4.16465 30.0697 4.18901 30.0495 4.20629 30.0238C4.38574 29.7305 4.62879 29.4813 4.91747 29.2946C5.20614 29.1079 5.53308 28.9884 5.87412 28.9449C6.8075 28.8608 7.25888 29.4805 7.70262 30.1844C7.82503 30.3757 8.16166 30.3145 8.14636 30.0697C8.06636 29.5902 7.82163 29.1536 7.45434 28.8352C7.08705 28.5167 6.62021 28.3364 6.13424 28.3252C5.57758 28.3287 5.03842 28.5202 4.60412 28.8684C4.51231 28.9449 3.93851 29.8478 4.06092 29.8325C3.93086 29.8325 3.93086 30.0697 4.06092 30.0926H4.04562Z" fill="black"/>
<path d="M5.64653 31.2703C5.99081 31.1172 6.30449 30.8801 6.63346 30.6964C7.0087 30.5534 7.41426 30.5086 7.81166 30.5663C7.89079 30.5663 7.96668 30.5349 8.02264 30.4789C8.0786 30.423 8.11003 30.3471 8.11003 30.2679C8.11003 30.1888 8.0786 30.1129 8.02264 30.0569C7.96668 30.001 7.89079 29.9695 7.81166 29.9695C7.35517 29.9152 6.89235 29.9757 6.46515 30.1455C6.24669 30.2732 6.03938 30.4191 5.84545 30.5816C5.66948 30.7347 5.64653 30.926 5.50117 31.079C5.48231 31.1002 5.4714 31.1273 5.47031 31.1556C5.46921 31.184 5.478 31.2118 5.49517 31.2344C5.51234 31.257 5.53682 31.2729 5.56443 31.2795C5.59204 31.286 5.62106 31.2828 5.64653 31.2703Z" fill="black"/>
<path d="M44.9854 29.6942C45.1078 29.6942 44.5264 28.8143 44.4346 28.7378C44.0014 28.3884 43.4609 28.1993 42.9044 28.2022C42.4101 28.2066 41.9331 28.3856 41.5579 28.7076C41.1828 29.0297 40.9335 29.4739 40.8541 29.962C40.8527 30.0149 40.8691 30.0668 40.9007 30.1093C40.9322 30.1518 40.9771 30.1825 41.0281 30.1966C41.0791 30.2107 41.1334 30.2073 41.1823 30.187C41.2312 30.1666 41.2718 30.1305 41.2978 30.0844C41.7339 29.3805 42.1929 28.7531 43.1187 28.8296C43.4607 28.8669 43.7896 28.9822 44.08 29.1666C44.3705 29.3509 44.6148 29.5995 44.7942 29.8931C44.8107 29.9196 44.835 29.9404 44.8637 29.9527C44.8924 29.9651 44.9242 29.9683 44.9548 29.962C45.0849 29.962 45.0849 29.7171 44.9548 29.7018L44.9854 29.6942Z" fill="black"/>
<path d="M43.5475 30.9493C43.3945 30.8039 43.3715 30.6126 43.1956 30.4596C43.004 30.2962 42.7964 30.1527 42.5759 30.0311C42.1468 29.8581 41.6807 29.7975 41.2217 29.8551C41.1426 29.8551 41.0667 29.8866 41.0107 29.9425C40.9548 29.9985 40.9233 30.0744 40.9233 30.1535C40.9233 30.2327 40.9548 30.3086 41.0107 30.3645C41.0667 30.4205 41.1426 30.4519 41.2217 30.4519C41.621 30.3918 42.029 30.4339 42.4076 30.5744C42.7365 30.758 43.0502 30.9952 43.3945 31.1482C43.4209 31.159 43.4501 31.1609 43.4777 31.1535C43.5052 31.1461 43.5296 31.1298 43.547 31.1072C43.5644 31.0846 43.5738 31.0568 43.5739 31.0283C43.574 30.9998 43.5647 30.972 43.5475 30.9493Z" fill="black"/>
<path d="M11.4156 73.9568L11.7522 67.6369C11.7522 67.3385 11.3085 67.3385 11.2932 67.6369L10.9565 73.9568C10.9565 74.2476 11.4003 74.2476 11.4156 73.9568Z" fill="black"/>
<path d="M38.1622 73.9568L37.9404 67.6369C37.9404 67.3385 37.466 67.3385 37.4813 67.6369L37.7032 73.9568C37.7032 74.2476 38.1699 74.2552 38.1622 73.9568Z" fill="black"/>
<path d="M41.0839 28.0957C40.9615 18.1873 37.8553 7.78161 24.4744 7.83517C12.7154 7.88107 8.19387 18.0802 8.01025 27.8891C8.01025 28.1416 8.01025 28.3941 8.01025 28.6542C8.01025 36.0071 12.0268 42.3194 17.7571 45.1657C26.7543 45.4029 34.9863 40.529 40.4718 33.5434C40.8917 31.9113 41.1025 30.2324 41.0992 28.5471C41.0915 28.3864 41.0839 28.2411 41.0839 28.0957Z" fill="#FCCEB6"/>
<path d="M17.748 45.1506C19.8863 46.2164 22.2445 46.7667 24.6336 46.7574C32.1924 46.7574 38.5424 41.1413 40.4933 33.5283C34.9772 40.5139 26.7452 45.3878 17.748 45.1506Z" fill="#F9B28F"/>
<path d="M18.531 28.8227C18.4837 29.0087 18.3853 29.1777 18.2467 29.3104C18.1082 29.4432 17.9352 29.5344 17.7474 29.5737C17.5596 29.613 17.3645 29.5989 17.1844 29.5328C17.0043 29.4667 16.8463 29.3514 16.7284 29.2C16.6106 29.0486 16.5376 28.8671 16.5177 28.6763C16.4979 28.4854 16.532 28.2928 16.6161 28.1204C16.7003 27.9479 16.8312 27.8026 16.9939 27.7009C17.1566 27.5991 17.3446 27.5451 17.5364 27.5449C17.8349 27.5887 18.1049 27.746 18.2902 27.9841C18.4755 28.2222 18.5618 28.5226 18.531 28.8227Z" fill="black"/>
<path d="M34.2219 28.8227C34.1747 29.0087 34.0762 29.1777 33.9376 29.3104C33.7991 29.4432 33.6261 29.5344 33.4383 29.5737C33.2505 29.613 33.0555 29.5989 32.8753 29.5328C32.6952 29.4667 32.5372 29.3514 32.4193 29.2C32.3015 29.0486 32.2285 28.8671 32.2086 28.6763C32.1888 28.4854 32.2229 28.2928 32.3071 28.1204C32.3912 27.9479 32.5221 27.8026 32.6848 27.7009C32.8475 27.5991 33.0355 27.5451 33.2273 27.5449C33.5266 27.5869 33.7979 27.7438 33.9835 27.9823C34.1692 28.2208 34.2547 28.5222 34.2219 28.8227Z" fill="black"/>
<path d="M11.9881 16.9704C12.0417 16.6567 12.0723 16.4118 12.0952 16.2588H11.8887C11.904 16.4118 11.9346 16.672 11.9881 16.9704Z" fill="#FEB01B"/>
<path d="M24.3977 34.2468C24.3588 34.5794 24.4018 34.9165 24.5232 35.2286C24.6446 35.5407 24.8405 35.8183 25.0939 36.0372C25.3618 36.2266 25.6718 36.3478 25.997 36.3905C26.3223 36.4331 26.653 36.3959 26.9607 36.2821C26.9971 36.2604 27.0273 36.2296 27.0483 36.1927C27.0693 36.1558 27.0803 36.1141 27.0803 36.0717C27.0803 36.0292 27.0693 35.9875 27.0483 35.9506C27.0273 35.9137 26.9971 35.8829 26.9607 35.8612C26.5322 35.6088 25.9584 35.8612 25.5071 35.5934C25.0557 35.3257 24.9256 34.6523 24.6731 34.2162C24.6606 34.1903 24.641 34.1685 24.6167 34.1533C24.5923 34.138 24.5642 34.1299 24.5354 34.1299C24.5067 34.1299 24.4785 34.138 24.4542 34.1533C24.4298 34.1685 24.4102 34.1903 24.3977 34.2162V34.2468Z" fill="black"/>
<path d="M25.1488 22.9082C25.3936 22.9082 24.1466 30.1004 25.539 30.9267C25.8986 31.141 26.0133 31.2634 26.4953 30.9726C26.9773 30.6819 26.962 29.4424 28.0254 30.2075C28.538 30.6054 26.9773 32.1662 26.5718 32.5029L27.1533 32.7401V32.6483C27.141 32.5667 27.0999 32.4923 27.0374 32.4385C26.975 32.3847 26.8953 32.3551 26.8128 32.3551C26.7304 32.3551 26.6507 32.3847 26.5882 32.4385C26.5257 32.4923 26.4846 32.5667 26.4724 32.6483V32.7401C26.4747 32.8064 26.4962 32.8706 26.5341 32.925C26.5721 32.9794 26.625 33.0216 26.6864 33.0467C26.7478 33.0718 26.8152 33.0785 26.8804 33.0662C26.9455 33.0539 27.0058 33.023 27.0538 32.9773C27.7577 32.3805 29.9075 29.6107 27.9948 29.0216C26.9391 28.7002 26.9467 30.0239 26.3041 30.2993C25.0876 30.8196 25.539 26.5119 25.539 26.1447C25.539 24.997 25.539 23.8493 25.4778 22.7016C25.4778 22.6098 25.4013 22.5103 25.3018 22.518H25.2024C25.1577 22.518 25.1149 22.5357 25.0834 22.5673C25.0518 22.5989 25.0341 22.6417 25.0341 22.6863C25.0341 22.731 25.0518 22.7738 25.0834 22.8053C25.1149 22.8369 25.1577 22.8547 25.2024 22.8547L25.1488 22.9082Z" fill="black"/>
<path d="M12.3707 24.2081C12.2713 24.0551 13.8244 20.0841 15.7141 19.7627C16.7469 19.7168 16.8311 20.2218 16.8311 20.2218C16.8311 20.2218 18.1776 18.6074 19.0574 19.6785C19.3098 20.1529 18.4453 20.9181 18.4453 20.9181C18.4453 20.9181 19.9755 20.5661 19.1415 21.8745C18.3076 23.1828 14.6047 22.5019 12.6615 24.1699" fill="#FEB01B"/>
<path d="M37.7256 24.2081C37.825 24.0551 36.272 20.0841 34.3899 19.7627C33.3571 19.7168 33.2653 20.2218 33.2653 20.2218C33.2653 20.2218 31.9188 18.6074 31.0466 19.6785C30.7865 20.1529 31.6586 20.9181 31.6586 20.9181C31.6586 20.9181 30.1285 20.5661 30.9548 21.8745C31.7811 23.1828 35.4916 22.5019 37.4349 24.1699" fill="#FEB01B"/>
<path d="M43.9914 13.749C43.9225 14.0857 43.8766 14.4147 43.8384 14.736C44.1368 14.6748 44.4428 14.606 44.7565 14.5141L43.9914 13.749Z" fill="#FEB01B"/>
<path d="M43.8383 14.7369C36.7921 16.183 33.1274 8.96784 29.4551 4.56836C26.3949 11.4545 16.4491 14.515 8.79846 12.2196C8.79846 16.8104 7.93394 21.822 4.92725 25.3416C5.14388 25.3976 5.36356 25.441 5.5852 25.4716C5.98707 25.2524 6.44756 25.1648 6.90184 25.2211C7.35612 25.2773 7.78131 25.4747 8.11756 25.7853C11.262 25.0661 12.8609 13.8417 12.8609 13.8417C12.8609 13.8417 16.4491 14.6068 21.422 16.0912C26.3949 17.5755 31.7503 13.3903 31.7503 13.3903C32.7014 15.04 33.5274 16.7587 34.2215 18.5319C35.7516 22.1663 40.0666 20.7278 40.4644 21.47C40.8622 22.2122 41.0841 28.096 41.6961 26.4969C42.3082 24.8978 45.1389 26.2444 45.1389 26.2444C46.235 25.5663 47.0891 24.5595 47.5795 23.3675C46.2554 22.382 45.213 21.0663 44.5566 19.5518C43.9001 18.0373 43.6524 16.3771 43.8383 14.7369Z" fill="#F79C0B"/>
<path d="M29.4544 4.56824C33.1191 8.96772 36.7914 16.1829 43.8376 14.7368C43.8376 14.4154 43.9218 14.0864 43.9906 13.7498L44.7557 14.5149C44.442 14.6067 44.136 14.6756 43.8376 14.7368C43.6517 16.3769 43.8994 18.0372 44.5559 19.5517C45.2123 21.0662 46.2547 22.3819 47.5788 23.3674C49.1548 19.3734 45.8038 14.5149 45.8038 14.5149C45.8038 14.5149 47.1427 14.1323 47.4334 11.1637C47.7241 8.19496 42.6518 7.83535 42.6518 7.83535C42.6518 7.83535 44.6562 4.08623 42.3381 1.40829C40.0199 -1.26965 35.5749 0.551349 29.9288 1.40829C24.2826 2.26523 24.3821 -0.121962 16.5402 0.0693197C8.6983 0.260601 5.5845 7.43747 5.5845 7.43747C4.85226 8.62271 3.97879 9.71463 2.98329 10.6893C1.18539 12.5026 -0.842023 18.5318 0.382077 21.7606C1.3078 24.1708 3.7407 25.0507 4.92654 25.3414C7.93324 21.8219 8.79776 16.8026 8.79776 12.2195C16.4484 14.5149 26.3942 11.4544 29.4544 4.56824Z" fill="#FEB01B"/>
</g>
<defs>
<clipPath id="clip0_3349_71493">
<rect width="48" height="76" fill="white"/>
</clipPath>
</defs>
</svg>
