<svg width="78" height="98" viewBox="0 0 78 98" fill="none" xmlns="http://www.w3.org/2000/svg">
<g clip-path="url(#clip0_3349_71456)">
<path d="M20.0898 37.9922C20.0353 39.1541 19.6396 40.2746 18.9516 41.2146C18.2637 42.1547 17.3139 42.873 16.2199 43.2806C15.1259 43.6881 13.9358 43.767 12.7972 43.5073C11.6587 43.2477 10.6216 42.6609 9.81475 41.8199C9.00786 40.9788 8.46658 39.9204 8.25801 38.7759C8.04944 37.6314 8.18276 36.4511 8.64144 35.3813C9.10012 34.3116 9.86398 33.3994 10.8383 32.7579C11.8127 32.1164 12.9547 31.7737 14.1227 31.7725C14.9247 31.7905 15.7152 31.9656 16.4492 32.288C17.1831 32.6103 17.8461 33.0736 18.4002 33.6512C18.9544 34.2287 19.3888 34.9094 19.6787 35.6543C19.9686 36.3991 20.1083 37.1935 20.0898 37.9922Z" fill="#F9B28F"/>
<path d="M65.3403 37.9922C65.2858 39.1541 64.8901 40.2746 64.2021 41.2146C63.5142 42.1547 62.5644 42.873 61.4704 43.2806C60.3764 43.6881 59.1863 43.767 58.0477 43.5073C56.9091 43.2477 55.8721 42.6609 55.0652 41.8199C54.2583 40.9788 53.7171 39.9204 53.5085 38.7759C53.2999 37.6314 53.4333 36.4511 53.8919 35.3813C54.3506 34.3116 55.1145 33.3994 56.0888 32.7579C57.0632 32.1164 58.2052 31.7737 59.3732 31.7725C60.1752 31.7905 60.9657 31.9656 61.6997 32.288C62.4336 32.6103 63.0966 33.0736 63.6507 33.6512C64.2049 34.2287 64.6393 34.9094 64.9292 35.6543C65.2191 36.3991 65.3588 37.1935 65.3403 37.9922Z" fill="#F9B28F"/>
<path d="M29.2493 68.714C29.2493 68.714 16.241 69.7044 15.0774 76.4688C14.0829 82.5697 12.4917 92.6519 12.4917 92.6519C12.4917 92.6519 37.4939 104.042 60.5965 92.6519L58.2594 76.3104C58.2594 76.3104 55.5245 69.0408 45.1616 68.6348L29.2493 68.714Z" fill="#FEB01B"/>
<path d="M40.3579 58.2352C39.9998 58.2352 41.7601 65.2968 40.8551 66.0495C39.9501 66.8022 47.0211 66.4357 49.9052 66.4159C52.7893 66.3961 57.0956 67.9708 58.6669 65.4948C60.2383 63.0188 56.9265 58.1461 56.7674 54.7688C56.6083 51.3916 56.4293 47.3408 56.4293 47.3408C56.4293 47.3408 43.6298 58.2352 40.3579 58.2352Z" fill="#DB4D28"/>
<path d="M29.2485 68.7138C29.2485 68.7138 31.3171 71.2691 36.956 71.2691C42.595 71.2691 45.1608 68.6346 45.1608 68.6346C43.7588 67.2062 42.6418 65.5258 41.869 63.6826C38.5309 65.1248 34.953 65.9374 31.3171 66.0794C30.8074 67.0839 30.1046 67.979 29.2485 68.7138Z" fill="#FCCFB6"/>
<path d="M33.0478 59.5234C32.8856 61.7876 32.2986 64.0014 31.3174 66.0502C34.9533 65.9082 38.5311 65.0955 41.8692 63.6534C41.303 62.2951 40.9669 60.8526 40.8747 59.3848C38.2846 59.79 35.6507 59.8367 33.0478 59.5234Z" fill="#F9B28F"/>
<path d="M58.0895 36.3182C58.0895 49.3122 48.4626 59.8402 36.5881 59.8402C24.7135 59.8402 15.0767 49.3122 15.0767 36.3182C15.0767 23.3242 20.9045 9.48828 36.5881 9.48828C54.2408 9.48828 58.0895 23.3539 58.0895 36.3182Z" fill="#FCCEB6"/>
<path d="M31.0988 44.4991C30.512 46.5888 27.5185 47.5891 24.4156 46.7275C21.3127 45.8659 19.264 43.479 19.8508 41.3793C20.4375 39.2797 23.431 38.2893 26.5339 39.141C29.6368 39.9928 31.6955 42.3995 31.0988 44.4991Z" fill="#F9B28F"/>
<path d="M53.8032 41.914C54.1811 44.0532 51.9236 46.242 48.7411 46.866C45.5587 47.4899 42.6845 46.1529 42.3066 44.0136C41.9287 41.8744 44.1763 39.6757 47.3587 39.0616C50.5412 38.4476 53.4154 39.7747 53.8032 41.914Z" fill="#F9B28F"/>
<path d="M9.93496 38.2097C9.97474 38.2179 10.0161 38.2137 10.0534 38.1977C10.0908 38.1818 10.1223 38.1549 10.1438 38.1206C10.3782 37.7428 10.6946 37.4221 11.0698 37.1822C11.445 36.9422 11.8694 36.7891 12.3119 36.734C13.5252 36.635 14.1119 37.4273 14.6888 38.3484C14.8379 38.5959 15.2855 38.5167 15.2656 38.1998C15.1624 37.5681 14.8383 36.993 14.3506 36.5762C13.8629 36.1593 13.2429 35.9276 12.6003 35.9219C11.8771 35.9288 11.1769 36.1763 10.6112 36.6251C10.4919 36.7241 9.746 37.8829 9.90512 37.8631C9.73605 37.8631 9.73605 38.18 9.90512 38.1998L9.93496 38.2097Z" fill="black"/>
<path d="M12.0144 39.7149C12.462 39.5168 12.8598 39.2098 13.2874 38.9721C13.7672 38.7969 14.2831 38.7425 14.7891 38.8136C14.8826 38.7987 14.9677 38.7512 15.0291 38.6795C15.0905 38.6078 15.1242 38.5166 15.1242 38.4224C15.1242 38.3281 15.0905 38.237 15.0291 38.1653C14.9677 38.0936 14.8826 38.046 14.7891 38.0312C14.1917 37.9648 13.587 38.0465 13.0288 38.2689C12.7444 38.4297 12.4748 38.6153 12.2233 38.8235C11.9945 39.0216 11.9747 39.2692 11.7757 39.4673C11.5768 39.6653 11.7757 39.7842 11.9746 39.7149H12.0144Z" fill="black"/>
<path d="M63.1516 37.8435C63.3108 37.8435 62.5549 36.7046 62.4356 36.6055C61.8718 36.1533 61.1704 35.9054 60.4466 35.9023C59.8039 35.9081 59.1839 36.1398 58.6962 36.5566C58.2085 36.9734 57.8844 37.5485 57.7812 38.1803C57.7812 38.4873 58.1989 38.5764 58.3581 38.3288C58.9249 37.4177 59.5216 36.6154 60.735 36.7145C61.1774 36.7696 61.6018 36.9227 61.977 37.1627C62.3522 37.4026 62.6686 37.7233 62.903 38.101C62.9245 38.1353 62.9561 38.1623 62.9934 38.1782C63.0307 38.1942 63.0721 38.1983 63.1119 38.1902C63.2809 38.1902 63.2809 37.8732 63.1119 37.8534L63.1516 37.8435Z" fill="black"/>
<path d="M61.2713 39.4677C61.0724 39.2696 61.0526 39.022 60.8139 38.8239C60.5658 38.6112 60.2957 38.4253 60.0083 38.2693C59.4538 38.0461 58.8522 37.9644 58.258 38.0316C58.1645 38.0465 58.0794 38.094 58.018 38.1657C57.9566 38.2374 57.9229 38.3286 57.9229 38.4228C57.9229 38.5171 57.9566 38.6082 58.018 38.6799C58.0794 38.7516 58.1645 38.7992 58.258 38.814C58.7737 38.7357 59.301 38.7902 59.7895 38.9725C60.2271 39.2102 60.6249 39.5172 61.0724 39.7153C61.2316 39.7846 61.4106 39.6063 61.2713 39.4677Z" fill="black"/>
<path d="M15.6935 43.9938C14.7914 44.1768 13.8599 44.1602 12.9649 43.9452C12.0699 43.7301 11.2333 43.3219 10.5142 42.7494C9.7951 42.1769 9.21107 41.454 8.80342 40.6319C8.39577 39.8099 8.17444 38.9086 8.15509 37.992C8.70207 31.3662 15.3256 31.7723 15.3256 31.7723C21.3623 26.5331 21.044 14.7374 21.044 14.7374L20.7556 12.3605C20.7556 12.3605 18.9555 3.26859 17.2748 3.82321C15.5941 4.37783 18.2097 12.2416 18.2097 12.2416C18.2097 12.2416 13.4658 6.5171 12.342 7.90366C11.2182 9.29022 18.0008 13.4499 18.0008 13.4499C6.3749 11.9643 2.4565 21.7395 3.45102 24.8395C4.44554 27.9394 9.05015 31.5247 4.3262 35.4863C-0.397762 39.4479 -0.835352 44.6772 1.03434 47.1235C2.90403 49.5698 6.18594 50.8375 5.56934 54.7297C4.95274 58.622 3.02338 63.0293 5.01241 65.0695C5.77819 65.8618 10.1541 66.5056 12.4912 66.4462C13.7642 66.4462 14.1222 61.7319 14.1222 61.7319C15.1764 61.6328 14.3609 66.1787 15.4151 66.0797C16.607 66.0448 17.7998 66.0911 18.9854 66.2184C21.3225 59.3549 16.6682 51.3921 15.6935 43.9938Z" fill="#E95F33"/>
<path d="M30.7001 58.9489C19.8798 55.0467 16.1901 43.8057 16.1901 43.8057C16.034 43.8911 15.8666 43.9544 15.6929 43.9938C16.6874 51.3921 21.3218 59.3549 18.9847 66.1887C20.2478 66.2976 21.4611 66.4264 22.1672 66.4264C27.9453 66.4264 31.0283 66.6542 31.3167 66.2778C32.9378 64.1386 33.0472 59.5233 33.0472 59.5233L30.7001 58.9489Z" fill="#DB4D28"/>
<path d="M13.5249 42.082C11.8541 42.082 11.1082 43.7855 10.7203 45.1919C10.5011 46.095 10.4975 47.0367 10.71 47.9415C10.9224 48.8462 11.3449 49.6887 11.9436 50.4014C14.0719 52.8477 17.6322 53.8777 20.1484 51.3918C20.2292 51.2965 20.2709 51.1743 20.2652 51.0497C20.2595 50.9251 20.2068 50.8072 20.1176 50.7196C20.0284 50.632 19.9093 50.5812 19.7841 50.5773C19.6589 50.5734 19.5368 50.6167 19.4423 50.6985C17.6521 52.501 15.1957 52.0752 13.3359 50.5995C11.0585 48.7771 10.2629 43.7459 13.5647 42.4485C13.6037 42.4391 13.6385 42.4169 13.6634 42.3855C13.6883 42.354 13.7018 42.3152 13.7018 42.2752C13.7018 42.2351 13.6883 42.1963 13.6634 42.1648C13.6385 42.1334 13.6037 42.1112 13.5647 42.1018L13.5249 42.082Z" fill="#FEB01B"/>
<path d="M36.667 71.2688L36.9156 97.7125C36.9156 97.7913 36.9471 97.8668 37.003 97.9225C37.059 97.9783 37.1349 98.0096 37.214 98.0096C37.2931 98.0096 37.369 97.9783 37.4249 97.9225C37.4809 97.8668 37.5123 97.7913 37.5123 97.7125L37.2637 71.2688C37.2637 71.19 37.2323 71.1144 37.1763 71.0587C37.1204 71.003 37.0445 70.9717 36.9654 70.9717C36.8862 70.9717 36.8103 71.003 36.7544 71.0587C36.6984 71.1144 36.667 71.19 36.667 71.2688Z" fill="black"/>
<path d="M19.6617 95.0489L20.0992 86.8682C20.0992 86.4918 19.5224 86.4918 19.5025 86.8682L19.0649 95.0489C19.0649 95.4253 19.6418 95.4253 19.6617 95.0489Z" fill="black"/>
<path d="M54.43 95.0485L54.1416 86.8678C54.1416 86.4816 53.525 86.4816 53.5449 86.8678L53.8333 95.0485C53.8333 95.4348 54.4499 95.4348 54.43 95.0485Z" fill="black"/>
<path d="M39.9387 78.2121C39.9051 78.3609 39.8301 78.4973 39.7222 78.6056C39.6143 78.7139 39.478 78.7898 39.3288 78.8245C39.1797 78.8593 39.0237 78.8515 38.8788 78.802C38.7339 78.7526 38.6059 78.6635 38.5094 78.5449C38.413 78.4264 38.3521 78.2832 38.3336 78.1317C38.3151 77.9803 38.3398 77.8267 38.4049 77.6886C38.47 77.5506 38.5729 77.4335 38.7017 77.3509C38.8305 77.2683 38.98 77.2235 39.1332 77.2217C39.3708 77.2491 39.5882 77.3681 39.7388 77.5533C39.8894 77.7384 39.9611 77.9749 39.9387 78.2121Z" fill="#E95F33"/>
<path d="M39.5023 95.0482C39.9472 95.0482 40.3079 94.6048 40.3079 94.0578C40.3079 93.5108 39.9472 93.0674 39.5023 93.0674C39.0574 93.0674 38.6968 93.5108 38.6968 94.0578C38.6968 94.6048 39.0574 95.0482 39.5023 95.0482Z" fill="#E95F33"/>
<path d="M39.9387 86.2931C39.9051 86.442 39.8301 86.5783 39.7222 86.6867C39.6143 86.795 39.478 86.8709 39.3288 86.9056C39.1797 86.9403 39.0237 86.9325 38.8788 86.8831C38.7339 86.8336 38.6059 86.7445 38.5094 86.626C38.413 86.5074 38.3521 86.3642 38.3336 86.2128C38.3151 86.0614 38.3398 85.9078 38.4049 85.7697C38.47 85.6316 38.5729 85.5146 38.7017 85.432C38.8305 85.3494 38.98 85.3046 39.1332 85.3027C39.3708 85.3302 39.5882 85.4492 39.7388 85.6343C39.8894 85.8195 39.9611 86.0559 39.9387 86.2931Z" fill="#E95F33"/>
<path d="M31.1079 66.416C31.1079 66.416 27.6569 66.9607 26.7619 68.2581C25.8668 69.5555 26.3442 78.0631 28.6713 79.1525C30.9985 80.2419 36.538 71.2293 36.538 71.2293C36.538 71.2293 41.1824 77.2806 44.1659 78.1621C47.1495 79.0436 48.4722 68.4463 47.3185 67.4064C46.1649 66.3665 43.1217 66 43.1217 66L45.1604 68.5849C42.5292 70.0509 39.5523 70.7895 36.538 70.7242C31.7941 70.7242 29.6758 69.0702 29.6758 69.0702L31.1079 66.416Z" fill="#2C2945"/>
<path d="M33.8138 42.8741C34.0166 43.5793 34.3888 44.2246 34.8983 44.7544C35.4077 45.2842 36.0391 45.6824 36.7377 45.9146C38.0306 46.3306 39.95 46.3405 40.7854 45.1025C41.0838 44.6568 40.5069 44.1914 40.0892 44.4092C39.6152 44.7166 39.0791 44.9167 38.519 44.9954C37.9588 45.0742 37.3881 45.0296 36.8471 44.8648C35.7439 44.4903 34.8283 43.7062 34.2912 42.676C34.2648 42.613 34.2144 42.563 34.151 42.537C34.0876 42.511 34.0164 42.5111 33.9531 42.5374C33.8898 42.5637 33.8395 42.6139 33.8134 42.677C33.7873 42.7402 33.7875 42.8111 33.8138 42.8741Z" fill="black"/>
<path d="M37.593 42.0325C39.0748 41.5868 41.6605 39.0613 39.7511 37.6648C39.035 37.1498 39.4428 37.8035 38.488 37.3974C36.499 36.5258 36.8073 35.7731 36.7874 33.9904C36.719 31.2218 36.8453 28.4518 37.1653 25.7008C37.2349 25.2254 36.3896 25.1065 36.32 25.5819C35.997 28.0078 35.8574 30.4543 35.9023 32.901C35.9023 34.654 35.594 36.7041 36.4692 38.2888C36.5067 38.3555 36.5616 38.411 36.6281 38.4494C36.6946 38.4877 36.7702 38.5075 36.8471 38.5066C38.7565 38.5066 38.9057 40.5469 37.3941 41.5769C37.1753 41.7353 37.3045 42.1216 37.593 42.0325Z" fill="black"/>
<path d="M20.2885 31.1283C21.5814 30.7817 22.6256 29.7021 23.8389 29.1475C25.5893 28.3255 27.1805 27.4638 29.1894 27.4539C29.5673 27.4539 29.7861 26.8597 29.3983 26.6913C27.9761 26.0872 25.818 26.83 24.555 27.5827C23.7892 28.0482 22.9339 28.4344 22.198 28.9395C21.4564 29.5152 20.7522 30.1371 20.0896 30.8015C20.0536 30.8316 20.0294 30.8735 20.0214 30.9196C20.0135 30.9658 20.0222 31.0133 20.046 31.0536C20.0699 31.094 20.1073 31.1247 20.1517 31.1401C20.1961 31.1556 20.2445 31.1549 20.2885 31.1382V31.1283Z" fill="black"/>
<path d="M44.1071 26.1368C45.5094 26.2259 47.4288 27.6124 48.5625 28.3949C49.6963 29.1773 50.5516 30.3757 51.7151 31.2769C51.7823 31.3517 51.8755 31.3984 51.9759 31.4074C52.0763 31.4164 52.1764 31.3872 52.2559 31.3256C52.3355 31.264 52.3886 31.1745 52.4045 31.0754C52.4204 30.9763 52.398 30.8749 52.3417 30.7916C51.4614 29.4066 50.2344 28.2734 48.7813 27.5035C47.6078 26.7706 45.5392 25.5227 44.1071 25.5821C44.0332 25.5821 43.9624 25.6113 43.9102 25.6633C43.858 25.7154 43.8286 25.7859 43.8286 25.8594C43.8286 25.933 43.858 26.0035 43.9102 26.0555C43.9624 26.1075 44.0332 26.1368 44.1071 26.1368Z" fill="black"/>
<path d="M26.3245 37.2385C27.2143 37.2385 27.9356 36.3118 27.9356 35.1686C27.9356 34.0254 27.2143 33.0986 26.3245 33.0986C25.4347 33.0986 24.7134 34.0254 24.7134 35.1686C24.7134 36.3118 25.4347 37.2385 26.3245 37.2385Z" fill="black"/>
<path d="M47.7068 37.2385C48.5966 37.2385 49.3179 36.3118 49.3179 35.1686C49.3179 34.0254 48.5966 33.0986 47.7068 33.0986C46.817 33.0986 46.0957 34.0254 46.0957 35.1686C46.0957 36.3118 46.817 37.2385 47.7068 37.2385Z" fill="black"/>
<path d="M24.7347 46.6582C22.7404 46.6641 20.7893 46.0804 19.1285 44.9812C17.4676 43.8819 16.1717 42.3165 15.4049 40.4832C14.6381 38.6499 14.4349 36.6312 14.8211 34.6828C15.2072 32.7344 16.1653 30.944 17.5741 29.5383C18.9828 28.1326 20.7788 27.1749 22.7345 26.7865C24.6902 26.3981 26.7177 26.5965 28.5601 27.3565C30.4026 28.1165 31.9771 29.4039 33.0842 31.0557C34.1913 32.7075 34.7813 34.6494 34.7793 36.6354C34.7767 39.2894 33.7182 41.8342 31.8356 43.7127C29.953 45.5912 27.3997 46.6504 24.7347 46.6582ZM24.7347 27.593C22.9384 27.5911 21.1819 28.1197 19.6874 29.1121C18.1929 30.1045 17.0276 31.5161 16.3388 33.1682C15.65 34.8203 15.4688 36.6387 15.818 38.3934C16.1673 40.1481 17.0313 41.7602 18.3007 43.0258C19.5702 44.2914 21.188 45.1535 22.9497 45.5032C24.7113 45.853 26.5374 45.6745 28.1972 44.9904C29.8569 44.3063 31.2756 43.1473 32.2737 41.6601C33.2719 40.1728 33.8047 38.4242 33.8047 36.6354C33.802 34.2397 32.8459 31.9428 31.1458 30.2479C29.4457 28.5529 27.1403 27.5983 24.7347 27.593Z" fill="#2C2945"/>
<path d="M49.4467 46.6582C47.4545 46.6543 45.5083 46.0623 43.854 44.9571C42.1997 43.8519 40.9115 42.283 40.1523 40.4489C39.3932 38.6147 39.1971 36.5976 39.5888 34.6525C39.9806 32.7073 40.9427 30.9215 42.3534 29.5208C43.7641 28.1201 45.5602 27.1673 47.5145 26.7829C49.4689 26.3985 51.4938 26.5998 53.3333 27.3612C55.1729 28.1227 56.7444 29.4101 57.8494 31.0609C58.9543 32.7116 59.543 34.6515 59.541 36.6354C59.5357 39.2972 58.4696 41.848 56.5768 43.7273C54.684 45.6067 52.1195 46.6609 49.4467 46.6582ZM49.4467 27.5931C47.6517 27.597 45.8981 28.1306 44.4075 29.1266C42.917 30.1226 41.7563 31.5361 41.0721 33.1888C40.3879 34.8414 40.2109 36.6589 40.5635 38.4116C40.9161 40.1643 41.7824 41.7737 43.0531 43.0363C44.3237 44.2989 45.9416 45.1581 47.7024 45.5054C49.4632 45.8527 51.2879 45.6725 52.9459 44.9875C54.6039 44.3026 56.0208 43.1436 57.0176 41.657C58.0145 40.1704 58.5465 38.423 58.5465 36.6354C58.5452 35.4467 58.3088 34.2698 57.8508 33.172C57.3927 32.0742 56.7221 31.0771 55.8771 30.2374C55.0321 29.3977 54.0293 28.732 52.926 28.2783C51.8226 27.8246 50.6404 27.5918 49.4467 27.5931Z" fill="#2C2945"/>
<path d="M34.4409 36.9319L33.874 36.3377C33.9536 36.2585 35.9227 34.4262 39.9008 35.9316L39.6124 36.6942C36.1415 35.3968 34.5105 36.8626 34.4409 36.9319Z" fill="#2C2945"/>
<path d="M34.0622 6.15016C29.4561 6.69805 24.9805 8.03851 20.8351 10.1118C20.7091 10.3759 20.5898 10.6532 20.4771 10.9437C20.4771 10.9437 20.6362 12.8453 21.0041 16.6088C23.5819 14.4497 26.6639 12.9715 29.9662 12.3103C33.2684 11.6492 36.6846 11.8263 39.9 12.8254C43.0924 13.5782 45.0019 15.1133 45.1709 17.3813C46.8517 11.9836 41.9686 5.46678 34.0622 6.15016Z" fill="#DB4D28"/>
<path d="M74.7478 47.3414C76.9258 43.459 80.5956 38.2 75.2153 31.3465C69.8349 24.4929 67.6669 28.4248 66.9608 19.5211C66.6651 15.3064 65.0753 11.2842 62.4068 7.99957C59.7383 4.71499 56.1202 2.32694 52.043 1.15909C42.9133 -1.33671 25.6684 -0.425547 20.8848 10.0727C25.0302 7.99944 29.5058 6.65899 34.1119 6.11109C42.068 5.42771 46.9013 11.9445 45.2206 17.3125C45.2605 18.1223 45.1318 18.9315 44.8427 19.6895C43.4603 23.3539 45.9566 28.1376 53.4055 33.7531C60.0389 38.7051 57.0951 41.914 54.6984 49.0053C52.3016 56.0965 51.9634 58.8201 56.6874 62.7223C58.4775 64.1881 58.0598 67.4564 58.0598 67.4564C60.3974 67.2939 62.7435 67.2939 65.0811 67.4564C65.9662 67.5852 64.2656 63.5641 65.3099 63.6533C66.0955 63.7127 66.8215 67.4465 67.647 67.4564C70.2427 67.4564 73.6141 67.7337 75.7324 67.1296C77.8507 66.5254 76.4982 59.5134 75.5932 57.1166C74.6882 54.7199 73.4649 49.7085 74.7478 47.3414Z" fill="#E95F33"/>
</g>
<defs>
<clipPath id="clip0_3349_71456">
<rect width="78" height="98" fill="white"/>
</clipPath>
</defs>
</svg>
