<svg width="32" height="28" viewBox="0 0 32 28" fill="currentColor" xmlns="http://www.w3.org/2000/svg">
<path d="M31.3114 26.7594L23.4714 10.7594C23.4016 10.617 23.2944 10.4973 23.1617 10.4136C23.029 10.3299 22.8761 10.2856 22.7201 10.2856C22.5641 10.2856 22.4112 10.3299 22.2785 10.4136C22.1458 10.4973 22.0385 10.617 21.9688 10.7594L18.8485 17.1273C16.2382 17.0176 13.7258 16.0831 11.6587 14.453C14.0607 11.9481 15.4943 8.64148 15.6948 5.14285H19.36C19.5828 5.14285 19.7965 5.05254 19.954 4.8918C20.1115 4.73105 20.2 4.51304 20.2 4.28571C20.2 4.05838 20.1115 3.84036 19.954 3.67962C19.7965 3.51887 19.5828 3.42857 19.36 3.42857H11.2401V0.857142C11.2401 0.629813 11.1516 0.411796 10.994 0.251051C10.8365 0.0903056 10.6228 0 10.4001 0C10.1773 0 9.96363 0.0903056 9.8061 0.251051C9.64857 0.411796 9.56007 0.629813 9.56007 0.857142V3.42857H1.44009C1.21731 3.42857 1.00366 3.51887 0.846127 3.67962C0.688597 3.84036 0.600098 4.05838 0.600098 4.28571C0.600098 4.51304 0.688597 4.73105 0.846127 4.8918C1.00366 5.05254 1.21731 5.14285 1.44009 5.14285H14.0114C13.8109 8.22216 12.5284 11.1243 10.3995 13.3163C9.09421 11.9742 8.0964 10.3538 7.47771 8.57142C7.4034 8.35708 7.24869 8.18165 7.04761 8.08372C6.84654 7.98579 6.61557 7.97337 6.40553 8.0492C6.19548 8.12504 6.02356 8.28291 5.92759 8.48808C5.83161 8.69326 5.81944 8.92894 5.89376 9.14327C6.5844 11.1338 7.69237 12.9465 9.14035 14.455C6.93796 16.1998 4.22836 17.1456 1.44009 17.1428C1.21731 17.1428 1.00366 17.2331 0.846127 17.3939C0.688597 17.5546 0.600098 17.7726 0.600098 18C0.600098 18.2273 0.688597 18.4453 0.846127 18.6061C1.00366 18.7668 1.21731 18.8571 1.44009 18.8571C4.70262 18.8602 7.86685 17.7178 10.4015 15.6217C12.5864 17.4184 15.2413 18.5193 18.0352 18.787L14.1288 26.7594C14.0795 26.8601 14.05 26.9697 14.0422 27.082C14.0344 27.1942 14.0483 27.307 14.0832 27.4138C14.118 27.5206 14.1732 27.6193 14.2455 27.7044C14.3177 27.7894 14.4057 27.8591 14.5044 27.9095C14.603 27.9598 14.7104 27.9898 14.8205 27.9978C14.9305 28.0058 15.041 27.9916 15.1457 27.956C15.2503 27.9205 15.3471 27.8642 15.4304 27.7904C15.5138 27.7167 15.5821 27.6269 15.6314 27.5262L17.6393 23.4285H27.8009L29.8088 27.5262C29.9084 27.7296 30.0831 27.8842 30.2945 27.956C30.5059 28.0279 30.7366 28.0112 30.9358 27.9095C31.1351 27.8078 31.2866 27.6295 31.357 27.4138C31.4274 27.1981 31.411 26.9627 31.3114 26.7594ZM18.4793 21.7143L22.72 13.0594L26.9609 21.7143H18.4793Z" fill="currentColor"/>
</svg>
