<svg width="23" height="23" viewBox="0 0 23 23" fill="none" xmlns="http://www.w3.org/2000/svg">
<path d="M22.5 11.5C22.5 14.4174 21.3411 17.2153 19.2782 19.2782C17.2153 21.3411 14.4174 22.5 11.5 22.5C8.58262 22.5 5.78473 21.3411 3.72183 19.2782C1.65893 17.2153 0.5 14.4174 0.5 11.5C0.501125 10.6449 0.603991 9.79295 0.806429 8.96214C0.823055 8.85503 0.861664 8.75252 0.919828 8.66105C0.977992 8.56958 1.05445 8.49114 1.1444 8.43065C1.23435 8.37016 1.33584 8.32894 1.4425 8.30958C1.54915 8.29022 1.65865 8.29313 1.76412 8.31814C1.86959 8.34315 1.96875 8.38971 2.05535 8.4549C2.14196 8.52008 2.21414 8.60248 2.26735 8.69692C2.32057 8.79135 2.35367 8.89577 2.36457 9.00362C2.37548 9.11146 2.36395 9.2204 2.33071 9.32357C1.79213 11.5292 2.06068 13.8548 3.0878 15.8797C4.11492 17.9045 5.83278 19.4949 7.93064 20.3632C10.0285 21.2315 12.3679 21.3204 14.5255 20.6137C16.6832 19.907 18.5168 18.4515 19.6945 16.5104C20.8723 14.5693 21.3165 12.2708 20.9467 10.0306C20.577 7.79048 19.4178 5.7566 17.6788 4.2969C15.9397 2.83719 13.7357 2.04804 11.4654 2.07219C9.19504 2.09634 7.0083 2.9322 5.30071 4.42857H7.57143C7.77981 4.42857 7.97966 4.51135 8.12701 4.6587C8.27436 4.80605 8.35714 5.0059 8.35714 5.21429C8.35714 5.42267 8.27436 5.62252 8.12701 5.76987C7.97966 5.91722 7.77981 6 7.57143 6H3.64286C3.43447 6 3.23462 5.91722 3.08727 5.76987C2.93992 5.62252 2.85714 5.42267 2.85714 5.21429V1.28571C2.85714 1.07733 2.93992 0.87748 3.08727 0.73013C3.23462 0.58278 3.43447 0.5 3.64286 0.5C3.85124 0.5 4.05109 0.58278 4.19844 0.73013C4.34579 0.87748 4.42857 1.07733 4.42857 1.28571V3.10857C6.0303 1.7643 7.982 0.90442 10.055 0.62971C12.1279 0.355 14.2362 0.67684 16.1328 1.55751C18.0294 2.43818 19.6356 3.8412 20.7633 5.60213C21.891 7.36305 22.4935 9.40894 22.5 11.5Z" fill="#EFEFEF"/>
</svg>
