<svg width="41" height="41" viewBox="0 0 41 41" fill="none" xmlns="http://www.w3.org/2000/svg">
<path d="M18.1911 15.2669H21.0908C22.751 15.2669 23.7913 16.2188 23.7913 17.735C23.7913 19.2734 22.8063 20.181 21.124 20.181H18.1911V15.2669ZM18.1911 22.7487H20.9248L23.902 28.5371H27.6872L24.3226 22.2285C26.1598 21.498 27.2223 19.7272 27.2223 17.6908C27.2223 14.5143 25.0641 12.5664 21.5557 12.5664H14.8486V28.5371H18.1911V22.7487Z" fill="#6B85FF"/>
<path d="M33.6693 8.08542L31.4038 2.77497L27.9375 7.39218L33.6693 8.08542ZM14.0209 5.02043L14.2452 5.46732L14.0209 5.02043ZM6.62568 12.304L6.18158 12.0743L6.62568 12.304ZM4.98961 22.4778L5.48327 22.3984L4.98961 22.4778ZM9.73767 31.6556L10.0885 31.2994L9.73767 31.6556ZM19.0563 36.332L19.1333 35.8379H19.1333L19.0563 36.332ZM29.386 34.7206L29.1617 34.2737H29.1617L29.386 34.7206ZM30.3145 4.94728C28.503 3.93246 26.5105 3.23994 24.4277 2.91504L24.2736 3.90309C26.2385 4.20961 28.1178 4.86286 29.8258 5.81971L30.3145 4.94728ZM24.4277 2.91504C20.7955 2.34844 17.0742 2.92881 13.7967 4.57355L14.2452 5.46732C17.336 3.91628 20.8466 3.3685 24.2736 3.90309L24.4277 2.91504ZM13.7967 4.57355C10.5191 6.21833 7.85295 8.84357 6.18158 12.0743L7.06977 12.5338C8.64317 9.49242 11.1545 7.01831 14.2452 5.46732L13.7967 4.57355ZM6.18158 12.0743C4.51016 15.3051 3.91987 18.9748 4.49595 22.5571L5.48327 22.3984C4.94128 19.0281 5.49642 15.575 7.06977 12.5338L6.18158 12.0743ZM4.49595 22.5571C5.07203 26.1394 6.78462 29.449 9.38681 32.0119L10.0885 31.2994C7.63686 28.8848 6.02526 25.7687 5.48327 22.3984L4.49595 22.5571ZM9.38681 32.0119C11.9889 34.5747 15.3469 36.2594 18.9792 36.826L19.1333 35.8379C15.7063 35.3034 12.5403 33.7141 10.0885 31.2994L9.38681 32.0119ZM18.9792 36.826C22.6114 37.3926 26.3328 36.8122 29.6102 35.1675L29.1617 34.2737C26.071 35.8248 22.5603 36.3725 19.1333 35.8379L18.9792 36.826ZM29.6102 35.1675C32.8878 33.5227 35.554 30.8975 37.2253 27.6668L36.3372 27.2073C34.7638 30.2486 32.2524 32.7227 29.1617 34.2737L29.6102 35.1675Z" fill="#6B85FF"/>
</svg>
