<svg width="40" height="41" viewBox="0 0 40 41" fill="none" xmlns="http://www.w3.org/2000/svg">
<path d="M32.888 9.41867L30.6225 4.10823L27.1563 8.72543L32.888 9.41867ZM13.2397 6.35368L13.464 6.80057L13.2397 6.35368ZM5.84443 13.6373L5.40033 13.4075L5.84443 13.6373ZM8.95642 32.9889L8.60556 33.3451L8.95642 32.9889ZM28.6047 36.0539L28.3805 35.607H28.3805L28.6047 36.0539ZM29.5333 6.28053C27.7218 5.26571 25.7293 4.57319 23.6465 4.2483L23.4924 5.23635C25.4573 5.54286 27.3365 6.19611 29.0445 7.15296L29.5333 6.28053ZM23.6465 4.2483C20.0143 3.6817 16.2929 4.26206 13.0154 5.9068L13.464 6.80057C16.5547 5.24953 20.0653 4.70176 23.4924 5.23635L23.6465 4.2483ZM13.0154 5.9068C9.73786 7.55158 7.0717 10.1768 5.40033 13.4075L6.28852 13.867C7.86192 10.8257 10.3733 8.35156 13.464 6.80057L13.0154 5.9068ZM5.40033 13.4075C3.72891 16.6384 3.13862 20.3081 3.7147 23.8904L4.70202 23.7316C4.16003 20.3613 4.71517 16.9083 6.28852 13.867L5.40033 13.4075ZM3.7147 23.8904C4.29078 27.4727 6.00337 30.7822 8.60556 33.3451L9.30727 32.6326C6.85561 30.218 5.24401 27.102 4.70202 23.7316L3.7147 23.8904ZM8.60556 33.3451C11.2077 35.9079 14.5657 37.5927 18.1979 38.1593L18.3521 37.1712C14.9251 36.6366 11.759 35.0474 9.30727 32.6326L8.60556 33.3451ZM18.1979 38.1593C21.8302 38.7259 25.5515 38.1455 28.829 36.5008L28.3805 35.607C25.2897 37.158 21.7791 37.7058 18.3521 37.1712L18.1979 38.1593ZM28.829 36.5008C32.1066 34.856 34.7727 32.2307 36.4441 29L35.5559 28.5405C33.9825 31.5819 31.4711 34.056 28.3805 35.607L28.829 36.5008Z" fill="#6B85FF"/>
<path fill-rule="evenodd" clip-rule="evenodd" d="M25.3217 22.6084C25.3296 22.4691 25.3337 22.3286 25.3337 22.1872C25.3337 18.3304 22.3489 15.2039 18.667 15.2039C14.9851 15.2039 12.0003 18.3304 12.0003 22.1872C12.0003 24.0552 12.7005 25.7519 13.841 27.005L10.2073 27.8794C9.80348 27.9766 9.87399 28.5709 10.2893 28.5709H23.6478C24.386 28.5709 25.1217 28.4855 25.8402 28.3165L28.2934 27.7392C30.0151 27.3341 31.0854 25.6135 30.6877 23.8901C30.4609 22.9072 31.298 21.9358 31.965 21.1618C31.981 21.1433 31.9968 21.1248 32.0126 21.1065C32.3663 20.6957 32.5801 20.161 32.5801 19.5764C32.5801 18.5149 31.8752 17.618 30.908 17.3283C30.906 17.3074 30.9003 17.3045 30.8905 17.3232C30.6821 17.2625 30.4617 17.23 30.2337 17.23C28.6122 17.23 27.7171 18.7985 26.8223 20.3667C26.4119 21.0859 26.0015 21.805 25.5212 22.3727L25.3217 22.6084Z" fill="#6B85FF"/>
<path d="M28 13.7492C28 13.1021 28.4439 12.5371 28.9524 12.5371C29.4608 12.5371 29.9048 13.1021 29.9048 13.7492C29.9048 14.3143 29.5947 14.8004 29.1508 14.9614C29.0863 15.5264 29.2649 18.3957 29.3294 18.7997C29.1384 18.7997 28.8854 18.8692 28.6944 18.9513C28.5035 18.3862 28 15.0434 28 13.7492Z" fill="#6B85FF"/>
<path d="M30.1627 18.8755C30.2892 16.6122 30.3487 12.5371 31.4921 12.5371C32.0005 12.5371 32.4444 13.1021 32.4444 13.7492C32.4444 14.3963 32.003 14.9677 31.4325 14.8856H31.2341C30.9812 15.4506 30.8571 18.3136 30.8571 19.2038C30.6662 19.0428 30.4157 18.9576 30.1627 18.8755Z" fill="#6B85FF"/>
</svg>
