<svg width="351" height="162" viewBox="0 0 351 162" fill="none" xmlns="http://www.w3.org/2000/svg">
<g clip-path="url(#clip0_2374_69364)">
<path d="M-1.08203 19.71H8.68935C18.4607 19.71 38.0035 19.71 57.5463 19.98C77.089 20.25 96.6318 20.79 116.175 20.52C135.717 20.25 155.26 19.17 174.803 18.9C194.346 18.63 213.888 19.17 233.431 19.44C252.974 19.71 272.517 19.71 292.059 18.36C311.602 17.01 331.145 14.31 340.916 12.96L350.688 11.61V0H340.916C331.145 0 311.602 0 292.059 0C272.517 0 252.974 0 233.431 0C213.888 0 194.346 0 174.803 0C155.26 0 135.717 0 116.175 0C96.6318 0 77.089 0 57.5463 0C38.0035 0 18.4607 0 8.68935 0H-1.08203V19.71Z" fill="#6198FF"/>
<path d="M-1.08203 32.6703L8.68935 32.4003C18.4607 32.1303 38.0035 31.5903 57.5463 32.6703C77.089 33.7503 96.6318 36.4503 116.175 38.0703C135.717 39.6903 155.26 40.2303 174.803 39.9603C194.346 39.6903 213.888 38.6103 233.431 38.3403C252.974 38.0703 272.517 38.6103 292.059 36.9903C311.602 35.3703 331.145 31.5903 340.916 29.7003L350.688 27.8103V11.0703L340.916 12.4203C331.145 13.7703 311.602 16.4703 292.059 17.8203C272.517 19.1703 252.974 19.1703 233.431 18.9003C213.888 18.6303 194.346 18.0903 174.803 18.3603C155.26 18.6303 135.717 19.7103 116.175 19.9803C96.6318 20.2503 77.089 19.7103 57.5463 19.4403C38.0035 19.1703 18.4607 19.1703 8.68935 19.1703H-1.08203V32.6703Z" fill="#4385FF"/>
<path d="M-1.08203 82.8895L8.68935 78.5695C18.4607 74.2495 38.0035 65.6095 57.5463 62.3695C77.089 59.1295 96.6318 61.2895 116.175 66.4195C135.717 71.5495 155.26 79.6495 174.803 80.9995C194.346 82.3495 213.888 76.9495 233.431 76.4095C252.974 75.8695 272.517 80.1895 292.059 79.6495C311.602 79.1095 331.145 73.7095 340.916 71.0095L350.688 68.3095V27.2695L340.916 29.1595C331.145 31.0495 311.602 34.8295 292.059 36.4495C272.517 38.0695 252.974 37.5295 233.431 37.7995C213.888 38.0695 194.346 39.1495 174.803 39.4195C155.26 39.6895 135.717 39.1495 116.175 37.5295C96.6318 35.9095 77.089 33.2095 57.5463 32.1295C38.0035 31.0495 18.4607 31.5895 8.68935 31.8595L-1.08203 32.1295V82.8895Z" fill="#2071FF"/>
<path d="M-1.08203 103.95L8.68935 99.3601C18.4607 94.7701 38.0035 85.5902 57.5463 82.0802C77.089 78.5702 96.6318 80.7302 116.175 85.8602C135.717 90.9902 155.26 99.0901 174.803 99.9002C194.346 100.71 213.888 94.2302 233.431 92.6101C252.974 90.9902 272.517 94.2301 292.059 95.3102C311.602 96.3901 331.145 95.3102 340.916 94.7702L350.688 94.2302V67.7701L340.916 70.4701C331.145 73.1701 311.602 78.5702 292.059 79.1102C272.517 79.6502 252.974 75.3301 233.431 75.8701C213.888 76.4101 194.346 81.8102 174.803 80.4602C155.26 79.1102 135.717 71.0101 116.175 65.8801C96.6318 60.7501 77.089 58.5901 57.5463 61.8301C38.0035 65.0701 18.4607 73.7102 8.68935 78.0302L-1.08203 82.3502V103.95Z" fill="#0061F1"/>
<path d="M-1.08203 128.25L8.68935 129.33C18.4607 130.41 38.0035 132.57 57.5463 132.57C77.089 132.57 96.6318 130.41 116.175 130.95C135.717 131.49 155.26 134.73 174.803 136.08C194.346 137.43 213.888 136.89 233.431 135C252.974 133.11 272.517 129.87 292.059 130.14C311.602 130.41 331.145 134.19 340.916 136.08L350.688 137.97V93.6905L340.916 94.2305C331.145 94.7705 311.602 95.8505 292.059 94.7705C272.517 93.6905 252.974 90.4505 233.431 92.0705C213.888 93.6905 194.346 100.17 174.803 99.3605C155.26 98.5505 135.717 90.4505 116.175 85.3205C96.6318 80.1905 77.089 78.0305 57.5463 81.5405C38.0035 85.0505 18.4607 94.2305 8.68935 98.8205L-1.08203 103.41V128.25Z" fill="#0056D6"/>
<path d="M-1.08203 162.27H8.68935C18.4607 162.27 38.0035 162.27 57.5463 162.27C77.089 162.27 96.6318 162.27 116.175 162.27C135.717 162.27 155.26 162.27 174.803 162.27C194.346 162.27 213.888 162.27 233.431 162.27C252.974 162.27 272.517 162.27 292.059 162.27C311.602 162.27 331.145 162.27 340.916 162.27H350.688V137.43L340.916 135.54C331.145 133.65 311.602 129.87 292.059 129.6C272.517 129.33 252.974 132.57 233.431 134.46C213.888 136.35 194.346 136.89 174.803 135.54C155.26 134.19 135.717 130.95 116.175 130.41C96.6318 129.87 77.089 132.03 57.5463 132.03C38.0035 132.03 18.4607 129.87 8.68935 128.79L-1.08203 127.71V162.27Z" fill="#004CBB"/>
</g>
<defs>
<clipPath id="clip0_2374_69364">
<rect width="351" height="162" rx="8" fill="white"/>
</clipPath>
</defs>
</svg>
