<svg width="164" height="164" viewBox="0 0 164 164" fill="none" xmlns="http://www.w3.org/2000/svg">
<path d="M31.8292 88.6508C31.1576 88.7151 30.5586 88.6914 30.0323 88.5797C29.5045 88.4534 29.0055 88.2433 28.5354 87.9494C28.0799 87.6541 27.5868 87.274 27.0561 86.8091C26.7993 86.4359 26.5979 86.1015 26.4518 85.8061C26.3188 85.4947 26.2314 85.12 26.1895 84.682C26.1559 84.3316 26.2069 84.0173 26.3424 83.7391C26.4778 83.461 26.7572 83.3016 27.1806 83.2611C27.4872 83.2318 27.7894 83.387 28.0871 83.7269C28.1853 83.9827 28.346 84.2767 28.5693 84.609C28.7927 84.9412 29.1095 85.2497 29.5198 85.5346C29.9448 85.8181 30.4875 86.024 31.1481 86.1523C31.3275 86.1794 31.5267 86.1824 31.7457 86.1614C32.1253 86.1251 32.5052 86.0151 32.8854 85.8314C33.2802 85.6462 33.6031 85.4017 33.8539 85.0978C34.1048 84.7938 34.2107 84.4374 34.1715 84.0286C34.138 83.6782 33.9926 83.3901 33.7352 83.1643C33.4925 82.937 33.2021 82.7512 32.8641 82.6067C32.5394 82.4463 32.2393 82.3129 31.9639 82.2067C31.4292 82.0074 30.8864 81.8015 30.3357 81.589C29.7849 81.3765 29.2738 81.116 28.8023 80.8075C28.3293 80.4844 27.9304 80.0879 27.6055 79.6181C27.2952 79.1468 27.1065 78.5608 27.0395 77.86C26.9626 77.057 27.1028 76.3658 27.4599 75.7865C27.8156 75.1926 28.3014 74.7262 28.9172 74.3873C29.5463 74.0325 30.2185 73.8208 30.9339 73.7523C31.1821 73.7286 31.4981 73.7204 31.8819 73.7279C32.2803 73.734 32.7033 73.7672 33.1511 73.8275C33.5989 73.8877 34.029 73.9939 34.4413 74.146C34.8523 74.2835 35.1952 74.479 35.4699 74.7327C35.7447 74.9863 35.9009 75.3103 35.9386 75.7045C35.9693 76.0257 35.8725 76.3222 35.648 76.5942C35.4368 76.8501 35.1706 76.9935 34.8494 77.0242C34.499 77.0577 34.1934 77.0207 33.9326 76.913C33.6718 76.8054 33.417 76.6824 33.168 76.5442C32.9336 76.4046 32.6642 76.283 32.3596 76.1796C32.055 76.0761 31.691 76.0446 31.2676 76.0851L30.6325 76.1459C30.2815 76.3269 29.9931 76.546 29.7672 76.8033C29.54 77.0461 29.4375 77.2843 29.4599 77.5179C29.5018 77.9559 29.6907 78.3135 30.0267 78.5908C30.3772 78.8666 30.8133 79.1122 31.3348 79.3275C31.8696 79.5268 32.4269 79.7313 33.0069 79.941C33.6014 80.1493 34.1643 80.4122 34.6957 80.7297C35.2402 81.0312 35.6909 81.4301 36.0478 81.9263C36.4179 82.4066 36.6393 83.0263 36.7119 83.7855C36.7804 84.5009 36.6872 85.1434 36.4323 85.7129C36.1774 86.2825 35.8119 86.7742 35.3358 87.1881C34.8597 87.602 34.3169 87.9339 33.7073 88.1838C33.0976 88.4336 32.4716 88.5893 31.8292 88.6508ZM43.6539 87.7402C42.9823 87.8045 42.3398 87.7113 41.7265 87.4606C41.1131 87.2098 40.5849 86.8479 40.1418 86.3746C39.6973 85.8867 39.3852 85.3199 39.2056 84.674L39.0987 83.5571C39.0204 82.7395 39.0875 81.9007 39.2999 81.0405C39.5122 80.1804 39.855 79.3741 40.3281 78.6216C40.7999 77.8545 41.3878 77.2236 42.0918 76.7289C42.7945 76.2197 43.5912 75.9225 44.4818 75.8372C44.8468 75.8023 45.167 75.838 45.4423 75.9442C45.7323 76.0491 45.9938 76.164 46.2267 76.2891C46.4729 76.3981 46.7069 76.4567 46.9287 76.465C46.9882 75.8552 47.1111 75.4456 47.2973 75.2363C47.4822 75.0123 47.7498 74.8836 48.1002 74.85C48.5236 74.8095 48.8216 74.921 48.9941 75.1844C49.1798 75.4318 49.2923 75.76 49.3314 76.1688C49.4082 76.9718 49.4618 77.7622 49.492 78.5402C49.5369 79.3168 49.5984 80.1139 49.6767 80.9315C49.7382 81.5739 49.8382 82.2347 49.9769 82.9139C50.1156 83.5932 50.2156 84.254 50.2771 84.8964L50.3211 85.3563C50.3519 85.6775 50.3148 85.983 50.2099 86.273C50.1183 86.547 49.8608 86.7042 49.4374 86.7448C49.0432 86.7825 48.7473 86.6929 48.5497 86.4761C48.3654 86.2433 48.2279 85.9617 48.1374 85.6315C48.0601 85.2853 47.9862 84.9756 47.9159 84.7024L47.8199 84.6232C47.371 85.1671 46.969 85.6623 46.6139 86.1088C46.2735 86.554 45.8815 86.923 45.4381 87.2159C44.9932 87.4942 44.3985 87.669 43.6539 87.7402ZM43.2232 85.5493C43.7342 85.5004 44.2013 85.301 44.6246 84.9511C45.0611 84.5852 45.438 84.1365 45.7555 83.6052C46.0716 83.0593 46.3053 82.4991 46.4567 81.9248C46.608 81.3504 46.6606 80.8223 46.6145 80.3405C46.5795 79.9755 46.4935 79.6154 46.3564 79.2602C46.2178 78.8904 46.0119 78.586 45.7386 78.3469C45.4798 78.1065 45.1314 78.0072 44.6934 78.0491C44.2116 78.0952 43.7532 78.3085 43.3181 78.689C42.8977 79.0682 42.5301 79.538 42.2154 80.0985C41.8993 80.6444 41.659 81.2126 41.4945 81.8029C41.3286 82.3787 41.2673 82.8929 41.3106 83.3455C41.3455 83.7105 41.4315 84.0706 41.5687 84.4258C41.7204 84.7796 41.9322 85.0687 42.2042 85.2932C42.4747 85.503 42.8144 85.5884 43.2232 85.5493ZM57.6818 85.5138C57.1416 85.5655 56.6605 85.4642 56.2383 85.2099C55.8148 84.941 55.4347 84.587 55.098 84.1477C54.7759 83.7071 54.4881 83.241 54.2348 82.7496C53.9815 82.2581 53.755 81.8157 53.5553 81.4223C53.2123 80.7626 52.8716 80.0512 52.5333 79.2879C52.2097 78.5233 52.0116 77.7613 51.9389 77.0022C51.9291 76.9 51.9113 76.7912 51.8856 76.6757C51.8744 76.5589 51.8632 76.4421 51.852 76.3253C51.8213 76.0041 51.8445 75.7073 51.9215 75.4347C51.9972 75.1475 52.2394 74.9844 52.6482 74.9452C52.984 74.9131 53.2573 74.9974 53.468 75.1983C53.6934 75.3977 53.8718 75.6459 54.0034 75.9427C54.1495 76.2381 54.2709 76.5064 54.3677 76.7476C54.4179 76.9638 54.4861 77.2151 54.5725 77.5015C54.6734 77.7866 54.7663 78.065 54.8513 78.3368C54.9494 78.5926 55.0069 78.8081 55.0237 78.9833C55.0376 79.1293 55.0808 79.2725 55.1532 79.4129C55.2401 79.5519 55.2906 79.6944 55.3046 79.8404C55.3088 79.8842 55.3658 80.0187 55.4758 80.244C55.5844 80.4546 55.711 80.7003 55.8558 80.9811C55.9991 81.2473 56.1258 81.4931 56.2357 81.7183C56.3603 81.9421 56.4406 82.0891 56.4768 82.1593C56.616 82.3817 56.7457 82.583 56.8661 82.763C56.9997 82.927 57.1175 83.0041 57.2197 82.9943C57.3657 82.9804 57.4895 82.8875 57.5909 82.7157C57.7055 82.5279 57.7969 82.3277 57.8649 82.1149C57.9475 81.9007 58.0059 81.7404 58.0399 81.634L59.6123 76.3562C59.7449 76.0489 59.9037 75.7832 60.0885 75.5592C60.2866 75.3193 60.5681 75.1818 60.9331 75.1469C61.2835 75.1134 61.555 75.2568 61.7478 75.5773L61.8148 76.2781C61.8609 76.7599 61.856 77.2466 61.7999 77.7381C61.7438 78.2297 61.6272 78.705 61.4501 79.1639L59.7168 83.6836C59.5383 84.128 59.2753 84.5362 58.9278 84.9083C58.579 85.2659 58.1636 85.4677 57.6818 85.5138ZM70.3955 85.2917C69.3443 85.3923 68.358 85.3246 67.4367 85.0886C66.5286 84.8366 65.7702 84.3788 65.1615 83.7151C64.5514 83.0368 64.1912 82.1209 64.0809 80.9675C63.997 80.0915 64.054 79.2242 64.2517 78.3654C64.4641 77.5053 64.8083 76.7136 65.2842 75.9903C65.7587 75.2524 66.3567 74.65 67.0782 74.1831C67.7983 73.7017 68.6328 73.4156 69.5818 73.3247C70.2242 73.2633 70.8354 73.3374 71.4153 73.5471C72.0085 73.7408 72.4967 74.0698 72.88 74.5341C73.2765 74.9823 73.5083 75.5569 73.5754 76.2577C73.6396 76.9293 73.5624 77.5849 73.3437 78.2247C73.125 78.8644 72.7978 79.4482 72.3621 79.9761C71.9264 80.5041 71.4152 80.936 70.8286 81.2721C70.2551 81.5922 69.6399 81.7837 68.9829 81.8466C68.8807 81.8563 68.6523 81.8561 68.2977 81.8458C67.9417 81.821 67.6587 81.7891 67.4487 81.7503C67.2999 81.735 67.1775 81.6878 67.0816 81.6086C67.051 81.5968 66.9978 81.5798 66.922 81.5576C66.8448 81.5208 66.7916 81.5037 66.7624 81.5065C66.9051 81.9202 67.151 82.2576 67.5002 82.5189C67.8625 82.7641 68.2617 82.9322 68.6977 83.0231C69.1482 83.1126 69.5706 83.1384 69.9648 83.1007C70.2422 83.0742 70.5182 83.033 70.7928 82.9773C71.0806 82.9055 71.3851 82.8543 71.7063 82.8236C72.0275 82.7928 72.3133 82.8539 72.5637 83.0067C72.814 83.1596 72.9581 83.4331 72.9958 83.8273C73.0266 84.1485 72.9481 84.4065 72.7605 84.6012C72.5874 84.7946 72.3504 84.9351 72.0494 85.0229C71.763 85.1092 71.4665 85.1671 71.1599 85.1964C70.8693 85.239 70.6145 85.2707 70.3955 85.2917ZM68.7398 79.3062C69.1778 79.2642 69.6008 79.1427 70.0088 78.9416C70.4301 78.7245 70.7633 78.4348 71.0086 78.0724C71.2684 77.7087 71.3746 77.2786 71.3271 76.7822C71.2866 76.3588 71.1231 76.0356 70.8365 75.8125C70.5646 75.5881 70.2169 75.4961 69.7935 75.5366C69.4139 75.573 69.0222 75.7136 68.6183 75.9585C68.2145 76.2034 67.8381 76.5046 67.4893 76.8622C67.155 77.2183 66.8892 77.5973 66.692 77.9993C66.4933 78.3866 66.4107 78.7555 66.4443 79.1059L66.4526 79.1935C66.8378 79.2156 67.2244 79.2523 67.6124 79.3035C67.999 79.3402 68.3748 79.3411 68.7398 79.3062ZM93.0036 83.1281C92.5656 83.1701 92.2311 83.0621 92.0002 82.8043C91.7678 82.5318 91.6029 82.194 91.5054 81.7908C91.4225 81.3862 91.3635 81.0014 91.3286 80.6364C91.2783 80.1108 91.2426 79.5838 91.2215 79.0554C91.2136 78.511 91.1876 77.9315 91.1436 77.3169L91.0236 77.2179L90.6075 77.2577C90.0673 77.3094 89.5292 77.383 88.9932 77.4785C88.4558 77.5594 87.917 77.6257 87.3768 77.6774L85.8657 77.822C85.2885 77.6415 84.8678 77.4018 84.6034 77.103C84.3391 76.8041 84.179 76.3627 84.1231 75.7787C84.091 75.4429 84.0859 75.0824 84.108 74.6972C84.1433 74.296 84.2279 73.949 84.362 73.6563L85.9087 69.265C85.99 69.0362 86.1258 68.839 86.3162 68.6735C86.5212 68.5065 86.7625 68.4097 87.0399 68.3832C87.3027 68.3581 87.562 68.4511 87.818 68.6623C88.0739 68.8736 88.218 69.1471 88.2501 69.4829C88.2669 69.6581 88.2249 69.9126 88.1243 70.2464C88.0236 70.5801 87.8952 70.9313 87.7389 71.2999C87.5972 71.667 87.4535 72.0123 87.3076 72.3357C87.1603 72.6444 87.0579 72.8826 87.0003 73.0502C86.8732 73.416 86.7628 73.8022 86.6691 74.209C86.5887 74.5998 86.5597 75.0667 86.5822 75.6097L88.0276 75.4713C88.0714 75.4672 88.224 75.4452 88.4854 75.4054C88.7468 75.3657 89.0294 75.3165 89.3332 75.258C89.6502 75.1835 89.8876 75.1239 90.0454 75.0793L90.0235 75.0814C90.0951 75.0599 90.2244 75.0254 90.4114 74.978C90.5984 74.9307 90.7774 74.8767 90.9484 74.8161C91.1181 74.741 91.2067 74.6662 91.2143 74.5918L91.6724 68.2935C91.7395 67.6093 92.0797 67.2379 92.6929 67.1792C93.0287 67.1471 93.3218 67.2074 93.5721 67.3603C93.8211 67.4985 93.9616 67.7355 93.9938 68.0713C94.0217 68.3633 93.9913 68.6609 93.9024 68.9641C93.8135 69.2673 93.7539 69.5677 93.7234 69.8653C93.7242 70.0273 93.7129 70.2935 93.6894 70.6641C93.6805 71.0333 93.6678 71.4397 93.6513 71.8833C93.6495 72.3255 93.6448 72.7385 93.6373 73.1223C93.6298 73.5061 93.6206 73.7943 93.6095 73.9869L93.62 74.0964C93.6312 74.2132 93.7206 74.3004 93.8882 74.358C94.0544 74.401 94.2431 74.4493 94.4545 74.5027C94.6805 74.5547 94.8815 74.6534 95.0575 74.7986C95.232 74.9292 95.334 75.1479 95.3633 75.4545C95.4024 75.8633 95.2945 76.1977 95.0394 76.4579C94.783 76.7034 94.3204 76.8729 93.6516 76.9664L93.5609 77.174C93.5855 77.5842 93.6389 78.0653 93.7212 78.6173C93.8166 79.1533 93.8902 79.6914 93.9419 80.2316C93.988 80.7134 94.0022 81.1688 93.9843 81.5978C93.9664 82.0268 93.8824 82.381 93.7324 82.6606C93.5823 82.9402 93.3394 83.096 93.0036 83.1281ZM105.001 81.538C104.038 81.6302 103.085 81.5298 102.143 81.2369C101.215 80.9279 100.381 80.4478 99.6409 79.7967C98.9009 79.1456 98.3307 78.3456 97.9305 77.3967C97.8456 77.1249 97.7769 76.7926 97.7246 76.3998C97.6869 76.0056 97.6569 75.6917 97.6345 75.4581C97.4682 73.7207 97.6768 72.2053 98.2603 70.9118C98.8437 69.6184 99.7398 68.5897 100.949 67.8257C102.156 67.0472 103.606 66.5769 105.3 66.4148C105.767 66.3701 106.26 66.3671 106.78 66.4058C107.299 66.4445 107.796 66.5517 108.269 66.7273C108.743 66.903 109.137 67.1747 109.452 67.5424C110.148 68.3451 110.707 69.183 111.129 70.056C111.565 70.9131 111.832 71.8599 111.932 72.8965C112.08 74.4441 111.89 75.8473 111.362 77.1059C110.847 78.3486 110.045 79.3609 108.956 80.1429C107.882 80.9235 106.563 81.3885 105.001 81.538ZM105.105 79.1633C105.616 79.1144 106.138 78.9466 106.671 78.6599C107.216 78.3572 107.71 77.9784 108.153 77.5235C108.596 77.0686 108.946 76.571 109.204 76.0306C109.461 75.4903 109.565 74.9573 109.515 74.4317L109.278 71.957C109.255 71.8708 109.214 71.7495 109.155 71.5931C109.096 71.4367 109.051 71.3526 109.02 71.3408C108.972 71.3012 108.888 71.1914 108.768 71.0114C108.662 70.8299 108.556 70.6485 108.45 70.4671C108.343 70.2711 108.273 70.1526 108.239 70.1116C108.168 69.9858 108.035 69.9027 107.84 69.8625C107.658 69.8063 107.469 69.758 107.274 69.7178C107.077 69.663 106.914 69.5827 106.786 69.4771C106.457 69.2728 106.176 69.1009 105.941 68.9613C105.722 68.8202 105.4 68.77 104.977 68.8105C104.232 68.8817 103.539 69.1028 102.896 69.4737C102.269 69.8431 101.732 70.3144 101.286 70.8875C100.838 71.446 100.501 72.075 100.273 72.7746C100.058 73.4581 99.986 74.1649 100.056 74.8949C100.134 75.7125 100.413 76.4667 100.891 77.1576C101.368 77.8339 101.971 78.3582 102.699 78.7305C103.442 79.1015 104.244 79.2457 105.105 79.1633ZM116.085 71.814C115.355 71.7364 114.819 71.4415 114.475 70.9293C114.144 70.401 113.947 69.8011 113.883 69.1295C113.814 68.4141 113.907 67.7643 114.16 67.1802C114.427 66.5801 114.83 66.0922 115.368 65.7165C115.906 65.3262 116.539 65.0961 117.269 65.0263C117.809 64.9746 118.298 65.0751 118.735 65.328C119.185 65.5649 119.548 65.8985 119.825 66.3287C120.116 66.7576 120.287 67.2275 120.336 67.7385C120.405 68.4685 120.299 69.127 120.016 69.7139C119.747 70.2848 119.342 70.7508 118.802 71.1119C118.261 71.4584 117.639 71.6652 116.939 71.7323L116.085 71.814ZM117.92 79.904C117.628 79.9319 117.38 79.882 117.176 79.7541C116.971 79.6117 116.856 79.4091 116.83 79.1463C116.802 78.8543 116.823 78.6092 116.893 78.411C116.961 78.1982 117.027 77.9708 117.093 77.7289C117.165 77.5599 117.286 77.2831 117.455 76.8985C117.625 76.514 117.813 76.0981 118.021 75.651C118.243 75.2024 118.447 74.7925 118.632 74.4211C118.817 74.0352 118.945 73.765 119.019 73.6106C119.081 73.4868 119.2 73.2692 119.376 72.9576C119.567 72.6446 119.784 72.2851 120.025 71.8789C120.264 71.4582 120.512 71.0441 120.768 70.6365C121.022 70.2144 121.25 69.8315 121.453 69.488C121.656 69.1444 121.808 68.8867 121.91 68.715C122.291 68.2365 122.649 67.7454 122.984 67.2419C123.332 66.7224 123.682 66.2175 124.033 65.7271C124.127 65.6298 124.247 65.5004 124.393 65.339C124.539 65.163 124.692 65.0674 124.852 65.052C125.144 65.0241 125.46 65.0896 125.799 65.2487C126.139 65.4078 126.324 65.6552 126.357 65.991C126.376 66.1954 126.369 66.3508 126.335 66.4572C126.299 66.549 126.244 66.6647 126.169 66.8045C125.72 67.3484 125.263 67.8784 124.796 68.3945C124.329 68.896 123.894 69.4312 123.491 70.0001C123.481 70.0453 123.449 70.0999 123.397 70.1639L120.542 75.2108C120.529 75.2268 120.499 75.296 120.452 75.4184C120.418 75.5247 120.396 75.6078 120.387 75.6676L120.363 75.6478C120.342 75.7382 120.293 75.9124 120.214 76.1704C120.136 76.4284 120.046 76.7169 119.944 77.0361C119.84 77.3407 119.749 77.622 119.671 77.88C119.591 78.1233 119.533 78.2909 119.498 78.3827C119.412 78.7151 119.229 79.0419 118.951 79.3633C118.687 79.6832 118.343 79.8635 117.92 79.904ZM116.927 69.7664C117.351 69.7259 117.694 69.5456 117.958 69.2257C118.236 68.8898 118.354 68.5101 118.314 68.0867C118.288 67.8239 118.172 67.6067 117.964 67.435C117.769 67.2474 117.548 67.1655 117.299 67.1892C116.891 67.2283 116.518 67.4187 116.183 67.7602C115.846 68.0871 115.697 68.4623 115.738 68.8857C115.766 69.1777 115.891 69.4088 116.114 69.579C116.335 69.7347 116.606 69.7971 116.927 69.7664ZM124.977 79.5159C124.071 79.6026 123.309 79.4103 122.689 78.9392C122.068 78.4535 121.714 77.7507 121.626 76.8309C121.561 76.1594 121.649 75.5322 121.888 74.9494C122.141 74.3653 122.508 73.8882 122.988 73.5181C123.482 73.132 124.064 72.9068 124.736 72.8425C125.32 72.7866 125.851 72.8757 126.331 73.1098C126.824 73.3425 127.226 73.6872 127.535 74.1438C127.857 74.5845 128.048 75.1187 128.108 75.7465L128.179 76.4911C127.992 77.3047 127.609 77.997 127.03 78.5681C126.464 79.1231 125.78 79.4391 124.977 79.5159ZM124.819 77.4094C125.155 77.3772 125.442 77.2245 125.682 76.9511C125.919 76.6632 126.021 76.3367 125.986 75.9717C125.92 75.2855 125.551 74.9745 124.88 75.0388C124.471 75.0779 124.148 75.2488 123.912 75.5513C123.69 75.8525 123.598 76.1928 123.634 76.5724C123.661 76.8498 123.785 77.0664 124.006 77.222C124.241 77.3762 124.513 77.4387 124.819 77.4094Z" fill="#6B85FF"/>
<path fill-rule="evenodd" clip-rule="evenodd" d="M98.177 111.542C91.0211 109.47 83.1935 104.12 80.5627 99.5014C79.9246 98.3812 79.5016 97.1683 79.7657 97.2166C79.9699 97.254 81.1355 98.4631 82.3268 99.8732C85.9279 104.136 90.2615 107.206 95.7216 109.364C98.1655 110.33 100.422 110.904 103.834 111.429C109.454 112.294 114.579 112.212 119.616 111.177C121.588 110.772 123.304 110.334 123.362 110.22C123.378 110.189 122.437 109.644 121.271 109.01C119.191 107.879 118.589 107.342 118.843 106.844C118.928 106.676 119.138 106.653 119.67 106.752C120.535 106.914 127.004 109.735 127.222 110.045C127.307 110.167 127.323 110.374 127.256 110.505C127.053 110.902 123.002 114.896 122.617 115.078C122.083 115.331 121.791 114.941 122.044 114.312C122.159 114.03 122.614 113.338 123.056 112.775C123.498 112.212 123.846 111.727 123.83 111.696C123.813 111.665 122.145 111.901 120.122 112.22C115.886 112.889 112.356 113.222 109.337 113.239C107.497 113.249 106.721 113.166 103.418 112.604C101.327 112.249 98.9688 111.771 98.177 111.542Z" fill="#6B85FF"/>
</svg>
