<svg width="91" height="90" viewBox="0 0 91 90" fill="none" xmlns="http://www.w3.org/2000/svg">
<path d="M14.0252 48.2394C13.5972 48.2721 13.2163 48.2497 12.8828 48.1723C12.5485 48.0855 12.2336 47.9458 11.9381 47.7531C11.6518 47.5597 11.3427 47.3119 11.0107 47.0097C10.8519 46.7691 10.7278 46.5539 10.6384 46.3642C10.5576 46.1644 10.5065 45.925 10.4851 45.6458C10.4681 45.4224 10.5043 45.2231 10.5938 45.0477C10.6834 44.8724 10.8631 44.7744 11.133 44.7538C11.3284 44.7388 11.5188 44.8413 11.7041 45.0611C11.7634 45.2251 11.8621 45.4141 12.0002 45.6282C12.1383 45.8423 12.3361 46.0424 12.5937 46.2287C12.8607 46.4142 13.2035 46.5518 13.6222 46.6414C13.736 46.6608 13.8627 46.6652 14.0023 46.6545C14.2443 46.636 14.4873 46.5706 14.7315 46.4583C14.9849 46.3453 15.1933 46.1937 15.3566 46.0033C15.5199 45.813 15.5916 45.5875 15.5716 45.3269C15.5546 45.1036 15.4655 44.9185 15.3045 44.7717C15.1528 44.6242 14.9703 44.5024 14.7571 44.4064C14.5524 44.3003 14.3631 44.2119 14.1892 44.1409C13.8513 44.0076 13.5085 43.87 13.1607 43.7281C12.8129 43.5863 12.4908 43.4143 12.1945 43.2123C11.8976 43.001 11.6486 42.7439 11.4475 42.441C11.2558 42.1374 11.1429 41.7623 11.1087 41.3156C11.0696 40.8038 11.1671 40.3657 11.4014 40.0015C11.6349 39.6279 11.9496 39.337 12.3456 39.1289C12.7501 38.9108 13.1804 38.7842 13.6364 38.7494C13.7946 38.7373 13.9957 38.7359 14.2398 38.7453C14.4932 38.754 14.762 38.7803 15.0462 38.8241C15.3304 38.8679 15.6027 38.9406 15.8632 39.0424C16.123 39.1349 16.3388 39.2634 16.5105 39.4282C16.6823 39.5929 16.7777 39.8009 16.7969 40.0521C16.8126 40.2569 16.7474 40.4444 16.6013 40.6147C16.4638 40.775 16.2926 40.863 16.0879 40.8786C15.8646 40.8957 15.6706 40.8684 15.506 40.7968C15.3414 40.7251 15.1807 40.6438 15.024 40.5528C14.8765 40.4611 14.7066 40.3805 14.514 40.311C14.3215 40.2415 14.0903 40.217 13.8204 40.2377L13.4156 40.2686C13.1901 40.3795 13.0039 40.5154 12.8571 40.6764C12.7096 40.8281 12.6415 40.9784 12.6529 41.1273C12.6742 41.4065 12.7901 41.6363 13.0005 41.8168C13.2201 41.9966 13.4946 42.1581 13.8238 42.3014C14.1616 42.4347 14.5138 42.5716 14.8802 42.7121C15.256 42.8518 15.6109 43.0259 15.9451 43.2344C16.2879 43.4328 16.5699 43.6921 16.7909 44.0121C17.0206 44.3222 17.1539 44.7192 17.1909 45.2031C17.2258 45.6591 17.1587 46.0667 16.9896 46.426C16.8205 46.7853 16.582 47.0937 16.2741 47.3513C15.9661 47.6088 15.6167 47.8134 15.2258 47.965C14.8349 48.1166 14.4347 48.208 14.0252 48.2394ZM21.5597 47.8035C21.1316 47.8362 20.724 47.7691 20.3368 47.6022C19.9496 47.4352 19.6179 47.1985 19.3417 46.892C19.0649 46.5762 18.8732 46.2117 18.7667 45.7987L18.7122 45.0867C18.6724 44.5656 18.7252 44.0327 18.8708 43.488C19.0163 42.9433 19.2442 42.4344 19.5544 41.9614C19.8638 41.4791 20.2455 41.0848 20.6995 40.7786C21.1528 40.4632 21.6632 40.2837 22.2309 40.2403C22.4636 40.2225 22.6668 40.2491 22.8408 40.32C23.024 40.3902 23.1889 40.4666 23.3357 40.5489C23.491 40.6213 23.6391 40.6615 23.7801 40.6694C23.8254 40.2821 23.9086 40.0231 24.0296 39.8921C24.1499 39.7519 24.3217 39.6732 24.5451 39.6561C24.815 39.6355 25.0032 39.71 25.1098 39.8797C25.225 40.0394 25.2925 40.2495 25.3124 40.5101C25.3516 41.0219 25.3761 41.5255 25.3859 42.0209C25.405 42.5155 25.4345 43.0234 25.4743 43.5446C25.5056 43.954 25.5613 44.3757 25.6413 44.8095C25.7213 45.2433 25.7769 45.665 25.8082 46.0745L25.8307 46.3676C25.8463 46.5723 25.819 46.7663 25.7488 46.9496C25.6872 47.1228 25.5214 47.2197 25.2515 47.2403C25.0003 47.2595 24.8131 47.199 24.69 47.0586C24.5756 46.9082 24.4915 46.7275 24.4379 46.5163C24.3929 46.295 24.3497 46.0971 24.3083 45.9224L24.2482 45.8708C23.956 46.2115 23.6942 46.5217 23.4628 46.8014C23.2408 47.0805 22.987 47.3106 22.7013 47.4915C22.4148 47.6632 22.0343 47.7672 21.5597 47.8035ZM21.3123 46.4043C21.638 46.3794 21.9376 46.2582 22.2112 46.0407C22.4933 45.8132 22.7386 45.5323 22.9471 45.1981C23.1548 44.8546 23.3103 44.501 23.4135 44.1374C23.5168 43.7739 23.5567 43.4385 23.5332 43.1314C23.5154 42.8987 23.465 42.6686 23.3821 42.4409C23.2984 42.2039 23.1711 42.0077 23.0001 41.8523C22.8384 41.6962 22.6179 41.6288 22.3387 41.6502C22.0316 41.6737 21.7374 41.8038 21.4559 42.0406C21.1838 42.2767 20.9442 42.5712 20.7372 42.924C20.5295 43.2675 20.3697 43.6261 20.2578 43.9997C20.1453 44.364 20.1001 44.6904 20.1221 44.9789C20.1399 45.2116 20.1903 45.4417 20.2732 45.6694C20.3655 45.8964 20.4967 46.0829 20.667 46.229C20.8366 46.3658 21.0517 46.4242 21.3123 46.4043ZM30.512 46.5572C30.1677 46.5835 29.8628 46.5132 29.5973 46.3463C29.331 46.1701 29.0935 45.9402 28.8846 45.6566C28.685 45.3724 28.5076 45.0724 28.3524 44.7566C28.1972 44.4409 28.0584 44.1566 27.9362 43.9039C27.7259 43.48 27.5178 43.0232 27.3118 42.5335C27.1152 42.0431 26.9984 41.5559 26.9614 41.072C26.9564 41.0068 26.9464 40.9374 26.9314 40.8636C26.9257 40.7892 26.92 40.7147 26.9143 40.6403C26.8986 40.4356 26.917 40.2469 26.9693 40.0745C27.0209 39.8927 27.177 39.7918 27.4376 39.7719C27.6516 39.7555 27.8245 39.8125 27.9561 39.9428C28.0971 40.0724 28.2076 40.2325 28.2877 40.4229C28.3771 40.6127 28.4511 40.7848 28.5098 40.9395C28.539 41.0777 28.5794 41.2384 28.6309 41.4217C28.6916 41.6042 28.7474 41.7825 28.7982 41.9565C28.8575 42.1204 28.8914 42.2582 28.9 42.3699C28.9071 42.463 28.9328 42.5546 28.9772 42.6448C29.0308 42.7343 29.0612 42.8256 29.0683 42.9187C29.0705 42.9466 29.1051 43.0329 29.1724 43.1775C29.2389 43.3128 29.3165 43.4707 29.4052 43.6511C29.4931 43.8222 29.5707 43.9801 29.638 44.1247C29.7145 44.2687 29.7638 44.3632 29.786 44.4083C29.8718 44.5515 29.952 44.6811 30.0264 44.7971C30.1093 44.9031 30.1834 44.9536 30.2486 44.9486C30.3416 44.9415 30.4215 44.8839 30.4881 44.7758C30.5633 44.6577 30.6238 44.5314 30.6697 44.3968C30.7249 44.2616 30.7639 44.1603 30.7869 44.093L31.8514 40.7541C31.9395 40.5602 32.0437 40.3931 32.164 40.2528C32.2929 40.1026 32.4737 40.0185 32.7064 40.0007C32.9297 39.9836 33.1008 40.0782 33.2195 40.2844L33.2537 40.7311C33.2772 41.0382 33.2681 41.3478 33.2264 41.6599C33.1848 41.972 33.1048 42.273 32.9866 42.5628L31.8289 45.4174C31.71 45.698 31.5377 45.9545 31.3121 46.1871C31.0858 46.4103 30.8191 46.5337 30.512 46.5572ZM38.6037 46.5701C37.9337 46.6214 37.307 46.5663 36.7237 46.405C36.1489 46.2337 35.6719 45.9332 35.2927 45.5035C34.9128 45.0645 34.6947 44.4775 34.6385 43.7423C34.5958 43.1839 34.6426 42.6327 34.7788 42.0888C34.9244 41.5441 35.153 41.0445 35.4645 40.5901C35.7754 40.1264 36.1632 39.7504 36.6279 39.4621C37.0919 39.1645 37.6263 38.9926 38.2312 38.9463C38.6407 38.915 39.0287 38.9696 39.3951 39.11C39.7702 39.2405 40.0768 39.4557 40.315 39.7558C40.5619 40.0458 40.7024 40.4142 40.7365 40.8608C40.7693 41.2889 40.7122 41.7052 40.5653 42.1095C40.4183 42.5139 40.2031 42.8814 39.9195 43.212C39.6358 43.5426 39.3054 43.8112 38.928 44.018C38.5593 44.2147 38.1655 44.329 37.7468 44.361C37.6816 44.366 37.5363 44.3631 37.3108 44.3523C37.0846 44.3321 36.905 44.3084 36.7718 44.2812C36.6773 44.2697 36.6 44.2381 36.5399 44.1866C36.5206 44.1787 36.487 44.1672 36.439 44.1522C36.3904 44.1278 36.3567 44.1163 36.3381 44.1178C36.4239 44.3827 36.5763 44.6003 36.7952 44.7708C37.0228 44.9312 37.2747 45.043 37.551 45.1061C37.8366 45.1685 38.105 45.1901 38.3563 45.1709C38.5331 45.1574 38.7092 45.1346 38.8846 45.1024C39.0686 45.0603 39.263 45.0314 39.4677 45.0157C39.6724 45.0001 39.8535 45.0424 40.011 45.1426C40.1684 45.2429 40.2567 45.4187 40.2759 45.67C40.2916 45.8747 40.2386 46.0379 40.1168 46.1595C40.0044 46.2805 39.8519 46.367 39.6593 46.4192C39.476 46.4706 39.2867 46.5038 39.0912 46.5188C38.9058 46.5423 38.7433 46.5594 38.6037 46.5701ZM37.6229 42.7418C37.9021 42.7204 38.1727 42.6482 38.4348 42.5252C38.7054 42.3922 38.921 42.2119 39.0814 41.9843C39.2511 41.7561 39.3239 41.4837 39.2997 41.1673C39.2791 40.8974 39.179 40.6898 38.9993 40.5444C38.829 40.3983 38.609 40.3356 38.3391 40.3562C38.0971 40.3747 37.8462 40.4594 37.5863 40.6104C37.3263 40.7613 37.0832 40.9484 36.8569 41.1716C36.6399 41.3941 36.4663 41.6321 36.3359 41.8854C36.2048 42.1295 36.1477 42.3632 36.1648 42.5865L36.1691 42.6424C36.4139 42.6611 36.6594 42.6891 36.9057 42.7264C37.1512 42.7545 37.3903 42.7596 37.6229 42.7418ZM53.0143 45.468C52.7352 45.4893 52.5237 45.4166 52.3798 45.2497C52.2353 45.0735 52.1345 44.8566 52.0773 44.5989C52.0295 44.3404 51.9967 44.0949 51.9789 43.8622C51.9532 43.5272 51.9369 43.1915 51.9299 42.855C51.9315 42.5086 51.922 42.1396 51.9014 41.748L51.8263 41.6835L51.5611 41.7038C51.2167 41.7302 50.8735 41.7704 50.5313 41.8247C50.1884 41.8697 49.8448 41.9053 49.5004 41.9316L48.5372 42.0053C48.1722 41.8834 47.9074 41.7258 47.7429 41.5325C47.5783 41.3391 47.4818 41.0564 47.4533 40.6841C47.437 40.4701 47.4381 40.2406 47.4568 39.9958C47.4842 39.741 47.5422 39.5213 47.6311 39.3366L48.6685 36.5614C48.7229 36.4169 48.8118 36.2931 48.9349 36.19C49.0674 36.0863 49.222 36.0277 49.3989 36.0141C49.5664 36.0013 49.7303 36.0637 49.8906 36.2012C50.0508 36.3387 50.1392 36.5145 50.1555 36.7285C50.1641 36.8402 50.1343 37.0016 50.0662 37.2127C49.9981 37.4239 49.9121 37.6457 49.8082 37.8784C49.7136 38.1102 49.618 38.3282 49.5212 38.5321C49.4238 38.7268 49.3557 38.8771 49.317 38.983C49.2317 39.2142 49.1568 39.4586 49.0923 39.7163C49.0363 39.964 49.0122 40.2607 49.02 40.6064L49.9413 40.5359C49.9692 40.5338 50.0665 40.5217 50.2333 40.4996C50.4001 40.4774 50.5805 40.4496 50.7746 40.416C50.9772 40.3725 51.1289 40.3375 51.2299 40.311L51.2159 40.3121C51.2617 40.2992 51.3444 40.2789 51.464 40.251C51.5835 40.2231 51.6981 40.191 51.8076 40.1545C51.9164 40.1087 51.9737 40.0622 51.9795 40.015L52.3474 36.0133C52.3984 35.5788 52.6193 35.3466 53.0102 35.3167C53.2242 35.3003 53.41 35.3423 53.5674 35.4426C53.7241 35.5336 53.8107 35.6861 53.8271 35.9001C53.8413 36.0862 53.8183 36.2752 53.7581 36.467C53.6979 36.6588 53.6563 36.8492 53.6333 37.0382C53.6318 37.1413 53.6214 37.3106 53.6019 37.5461C53.5918 37.7809 53.5788 38.0393 53.5629 38.3213C53.5564 38.6026 53.5484 38.8653 53.539 39.1094C53.5296 39.3535 53.5202 39.5368 53.5108 39.6592L53.5161 39.729C53.5218 39.8034 53.5776 39.86 53.6836 39.8987C53.7888 39.9281 53.9083 39.9611 54.0422 39.9976C54.1853 40.0335 54.312 40.0987 54.4222 40.1932C54.5317 40.2785 54.5939 40.4188 54.6088 40.6142C54.6288 40.8748 54.556 41.0863 54.3906 41.2487C54.2244 41.4018 53.928 41.5041 53.5014 41.5554L53.4412 41.6864C53.4518 41.9477 53.48 42.2544 53.5256 42.6066C53.5799 42.9488 53.6202 43.2921 53.6465 43.6364C53.67 43.9435 53.6734 44.2334 53.6569 44.5062C53.6403 44.7789 53.5826 45.0033 53.4837 45.1793C53.3848 45.3554 53.2284 45.4516 53.0143 45.468ZM60.6671 44.6018C60.0529 44.6488 59.448 44.5734 58.8525 44.3755C58.2656 44.1677 57.7407 43.8521 57.2778 43.4289C56.8148 43.0056 56.4618 42.4897 56.2186 41.8811C56.1679 41.7072 56.1283 41.4949 56.0997 41.2444C56.0805 40.9931 56.0652 40.793 56.0538 40.6441C55.9691 39.5367 56.1202 38.575 56.5071 37.7591C56.894 36.9433 57.4767 36.2996 58.255 35.8282C59.0326 35.3475 59.9611 35.0659 61.0407 34.9833C61.3384 34.9606 61.6523 34.9646 61.9823 34.9956C62.3123 35.0265 62.6269 35.1007 62.9261 35.2182C63.2252 35.3358 63.4728 35.5134 63.6689 35.7511C64.1017 36.2703 64.4472 36.8102 64.7054 37.3708C64.9722 37.9214 65.1308 38.5271 65.1813 39.1878C65.2568 40.1743 65.119 41.0647 64.7679 41.8591C64.4253 42.6435 63.9029 43.2779 63.2004 43.7622C62.5073 44.2458 61.6628 44.5257 60.6671 44.6018ZM60.7622 43.0922C61.0879 43.0673 61.4219 42.9668 61.7642 42.7909C62.115 42.6049 62.434 42.3699 62.7212 42.0859C63.0084 41.8018 63.2372 41.4894 63.4077 41.1488C63.5782 40.8081 63.6507 40.4703 63.6251 40.1352L63.5044 38.5579C63.4908 38.5027 63.4662 38.425 63.4304 38.3248C63.3947 38.2246 63.3672 38.1705 63.3478 38.1626C63.3178 38.1369 63.2655 38.066 63.1912 37.95C63.1261 37.8333 63.061 37.7166 62.9959 37.5998C62.9301 37.4738 62.8868 37.3976 62.8661 37.3711C62.8224 37.2902 62.7387 37.2357 62.6149 37.2078C62.4996 37.1698 62.3801 37.1368 62.2563 37.1088C62.1317 37.0715 62.0294 37.0185 61.9493 36.9498C61.7424 36.8158 61.5653 36.703 61.4179 36.6113C61.2798 36.5189 61.0758 36.483 60.8059 36.5037C60.3313 36.54 59.8874 36.6722 59.4743 36.9004C59.0705 37.1278 58.7231 37.4212 58.4324 37.7804C58.1409 38.1303 57.9184 38.5264 57.765 38.9687C57.6203 39.401 57.5657 39.8498 57.6012 40.3151C57.6411 40.8363 57.8091 41.3196 58.1053 41.7649C58.4007 42.201 58.7778 42.5419 59.2366 42.7876C59.7046 43.0327 60.2132 43.1342 60.7622 43.0922ZM67.8368 38.5494C67.3737 38.4913 67.0359 38.2971 66.8235 37.967C66.6196 37.6269 66.5013 37.2428 66.4685 36.8147C66.4337 36.3587 66.5004 35.9464 66.6688 35.5779C66.8458 35.1993 67.1079 34.8937 67.4552 34.6612C67.8018 34.4194 68.2077 34.2807 68.673 34.2451C69.0173 34.2188 69.3269 34.2887 69.6017 34.4549C69.8851 34.6111 70.1123 34.8277 70.2833 35.1048C70.4635 35.3812 70.5661 35.6823 70.591 36.008C70.6266 36.4733 70.5509 36.891 70.3639 37.261C70.1855 37.621 69.9223 37.9125 69.5743 38.1357C69.2256 38.3496 68.8279 38.4736 68.3812 38.5078L67.8368 38.5494ZM68.9062 43.7189C68.72 43.7332 68.5629 43.6984 68.4348 43.6146C68.306 43.5215 68.2352 43.3912 68.2224 43.2236C68.2082 43.0375 68.2243 42.8818 68.2709 42.7566C68.3168 42.622 68.362 42.4782 68.4064 42.325C68.4544 42.2184 68.5347 42.0437 68.6472 41.8011C68.7596 41.5585 68.8847 41.2962 69.0222 41.0142C69.1691 40.7315 69.3038 40.4732 69.4263 40.2391C69.5481 39.9958 69.6334 39.8255 69.6821 39.7281C69.7229 39.6501 69.8014 39.5131 69.9174 39.317C70.0428 39.1202 70.1846 38.8941 70.3429 38.6386C70.5005 38.3738 70.6631 38.1133 70.8307 37.8571C70.9976 37.5916 71.1477 37.3508 71.281 37.1347C71.4142 36.9185 71.5141 36.7564 71.5807 36.6484C71.8293 36.3486 72.0631 36.0405 72.2823 35.7242C72.5101 35.3979 72.7386 35.0809 72.9678 34.7731C73.0287 34.7123 73.1067 34.6315 73.202 34.5306C73.2965 34.4204 73.395 34.3614 73.4973 34.3535C73.6834 34.3393 73.8835 34.3849 74.0975 34.4902C74.3115 34.5955 74.4267 34.7552 74.443 34.9692C74.453 35.0995 74.4465 35.1983 74.4236 35.2656C74.3999 35.3235 74.3634 35.3965 74.314 35.4846C74.0217 35.8252 73.7242 36.1568 73.4212 36.4795C73.1176 36.7929 72.8343 37.1282 72.5715 37.4853C72.5643 37.5139 72.5435 37.5483 72.5091 37.5883L70.6319 40.7647C70.6233 40.7748 70.6032 40.8184 70.5717 40.8957C70.5488 40.963 70.5341 41.0156 70.5276 41.0535L70.5126 41.0406C70.4982 41.0979 70.4646 41.2081 70.4115 41.3713C70.3585 41.5345 70.2975 41.717 70.2287 41.9188C70.1592 42.1114 70.0979 42.2892 70.0449 42.4524C69.9911 42.6063 69.9524 42.7122 69.9288 42.7702C69.87 42.9806 69.75 43.1864 69.5688 43.3874C69.3969 43.5878 69.176 43.6983 68.9062 43.7189ZM68.3979 37.2569C68.6678 37.2362 68.8886 37.1257 69.0605 36.9254C69.241 36.715 69.3209 36.4749 69.3003 36.205C69.2875 36.0375 69.216 35.8979 69.0857 35.7861C68.9641 35.6644 68.8242 35.6096 68.666 35.6217C68.4054 35.6416 68.1662 35.7582 67.9485 35.9714C67.7301 36.1753 67.6312 36.4122 67.6519 36.6821C67.6661 36.8682 67.743 37.0168 67.8825 37.1278C68.0214 37.2295 68.1931 37.2725 68.3979 37.2569ZM73.401 43.5577C72.824 43.6018 72.3412 43.4703 71.9526 43.163C71.5634 42.8464 71.3463 42.395 71.3015 41.8087C71.2687 41.3806 71.3319 40.9827 71.491 40.6148C71.6593 40.2462 71.8986 39.9471 72.2086 39.7174C72.5273 39.4778 72.9006 39.3416 73.3287 39.3088C73.701 39.2804 74.0381 39.3435 74.3401 39.4983C74.6514 39.6523 74.9026 39.8765 75.0936 40.1708C75.2932 40.455 75.4083 40.7972 75.4389 41.1974L75.4752 41.672C75.3461 42.1874 75.094 42.6232 74.7187 42.9795C74.352 43.3258 73.9128 43.5185 73.401 43.5577ZM73.3264 42.2155C73.5404 42.1991 73.7251 42.1054 73.8806 41.9344C74.0353 41.7541 74.1037 41.5476 74.0859 41.3149C74.0525 40.8775 73.8217 40.6752 73.3936 40.708C73.133 40.7279 72.9258 40.8327 72.7718 41.0223C72.6271 41.2112 72.564 41.4267 72.5825 41.6686C72.596 41.8454 72.6722 41.9847 72.811 42.0864C72.9592 42.1874 73.131 42.2304 73.3264 42.2155Z" fill="#6B85FF"/>
<path fill-rule="evenodd" clip-rule="evenodd" d="M41.7284 53.7488C35.0781 54.5421 26.951 58.2708 23.4402 62.1395C22.5887 63.0778 21.8942 64.1361 22.1319 64.1329C22.3156 64.1304 23.6398 63.1927 25.0413 62.0727C29.2779 58.687 33.8072 56.5222 39.0411 55.3815C41.3837 54.8708 43.4587 54.6939 46.5022 54.745C51.5144 54.829 55.8444 55.713 59.837 57.4667C61.3994 58.153 62.736 58.8301 62.7538 58.9443C62.7588 58.9762 61.8094 59.3331 60.6439 59.7372C58.5646 60.4581 57.9042 60.8618 57.9825 61.364C58.0088 61.5332 58.1801 61.5876 58.6596 61.579C59.4397 61.5651 65.7134 59.9685 65.9841 59.7151C66.0904 59.6157 66.1604 59.4264 66.1398 59.2946C66.0775 58.8944 63.7403 54.551 63.4636 54.3212C63.0801 54.0025 62.7242 54.3187 62.7659 54.9415C62.7846 55.2218 62.98 55.9351 63.1998 56.5267C63.4198 57.1182 63.5814 57.6234 63.559 57.6494C63.5367 57.6755 62.1849 57.1936 60.5552 56.5788C57.1415 55.2907 54.2354 54.4251 51.6757 53.934C50.116 53.6347 49.4338 53.5894 46.4735 53.5894C44.5996 53.5892 42.4643 53.661 41.7284 53.7488Z" fill="#6B85FF"/>
</svg>
