<svg width="16" height="13" viewBox="0 0 16 13" fill="none" xmlns="http://www.w3.org/2000/svg">
<path d="M13.8018 4.07977L12.8766 5.47139C13.3228 6.36132 13.5412 7.34806 13.5123 8.34318C13.4834 9.33829 13.2081 10.3107 12.7111 11.1733H2.28522C1.63919 10.0525 1.37149 8.75344 1.52182 7.4686C1.67215 6.18375 2.2325 4.98156 3.1198 4.04022C4.0071 3.09889 5.17412 2.46853 6.44784 2.2426C7.72157 2.01668 9.03419 2.2072 10.1911 2.78594L11.5827 1.8607C10.1659 0.952176 8.48531 0.545063 6.80977 0.704483C5.13424 0.863903 3.56058 1.58065 2.3405 2.74006C1.12043 3.89948 0.324441 5.43458 0.0798586 7.09982C-0.164723 8.76505 0.156234 10.4642 0.991393 11.9255C1.12266 12.1529 1.31116 12.3419 1.53813 12.4739C1.76511 12.6059 2.02267 12.6761 2.28522 12.6777H12.7035C12.9686 12.6788 13.2293 12.6097 13.4592 12.4776C13.689 12.3456 13.8799 12.1551 14.0124 11.9255C14.7055 10.7249 15.0533 9.35608 15.0175 7.97024C14.9816 6.58441 14.5635 5.23543 13.8093 4.07225L13.8018 4.07977ZM6.43751 9.22499C6.57723 9.36487 6.74315 9.47584 6.92579 9.55155C7.10843 9.62726 7.3042 9.66623 7.50191 9.66623C7.69962 9.66623 7.89538 9.62726 8.07802 9.55155C8.26066 9.47584 8.42658 9.36487 8.56631 9.22499L12.8239 2.8386L6.43751 7.09619C6.29763 7.23592 6.18666 7.40184 6.11095 7.58448C6.03524 7.76712 5.99627 7.96288 5.99627 8.16059C5.99627 8.3583 6.03524 8.55407 6.11095 8.73671C6.18666 8.91934 6.29763 9.08527 6.43751 9.22499Z" fill="white"/>
</svg>
