<svg width="17" height="17" viewBox="0 0 17 17" fill="none" xmlns="http://www.w3.org/2000/svg">
<path fill-rule="evenodd" clip-rule="evenodd" d="M7.49805 2.5V5.83333C7.49805 6.75 6.74805 7.5 5.83138 7.5H2.49805V5.83333H5.83138L5.83138 2.5H7.49805ZM7.49805 17.5H5.83138V14.1667H2.49805V12.5H5.83138C6.74805 12.5 7.49805 13.25 7.49805 14.1667V17.5ZM14.1647 14.1667H17.498V12.5H14.1647C13.248 12.5 12.498 13.25 12.498 14.1667V17.5H14.1647V14.1667ZM17.498 7.5H14.1647C13.248 7.5 12.498 6.75 12.498 5.83333V2.5H14.1647V5.83333L17.498 5.83333V7.5Z" fill="#F8FAFF"/>
</svg>
