<svg width="25" height="24" viewBox="0 0 25 24" fill="none" xmlns="http://www.w3.org/2000/svg">
<path d="M12.25 19V18.99V19ZM12.25 12V11.99V12ZM12.25 5V4.99V5ZM12.25 18C11.6977 18 11.25 18.4477 11.25 19C11.25 19.5523 11.6977 20 12.25 20C12.8023 20 13.25 19.5523 13.25 19C13.25 18.4477 12.8023 18 12.25 18ZM12.25 11C11.6977 11 11.25 11.4477 11.25 12C11.25 12.5523 11.6977 13 12.25 13C12.8023 13 13.25 12.5523 13.25 12C13.25 11.4477 12.8023 11 12.25 11ZM12.25 4C11.6977 4 11.25 4.4477 11.25 5C11.25 5.5523 11.6977 6 12.25 6C12.8023 6 13.25 5.5523 13.25 5C13.25 4.4477 12.8023 4 12.25 4Z" stroke="white" stroke-width="2" stroke-linecap="round" stroke-linejoin="round"/>
</svg>
