<svg width="16" height="16" viewBox="0 0 16 16" fill="none" xmlns="http://www.w3.org/2000/svg">
<path d="M5.53339 0.000290901C5.39398 0.000290901 5.26031 0.0557609 5.16183 0.154243C5.06323 0.252843 5.00788 0.386514 5.00788 0.525805V5.00808H0.525606C0.337932 5.00808 0.164428 5.10826 0.0705911 5.27089C-0.0233676 5.43339 -0.0233676 5.63379 0.0705911 5.79628C0.164428 5.95891 0.337929 6.0591 0.525606 6.0591H5.53367C5.67308 6.0591 5.80663 6.00375 5.90524 5.90515C6.00384 5.80654 6.05919 5.673 6.05919 5.53358V0.525514C6.05919 0.386226 6.00384 0.252555 5.90524 0.153952C5.80664 0.0554732 5.67309 0 5.53367 0L5.53339 0.000290901Z" fill="white"/>
<path d="M15.474 5.00775H10.9917V0.525484C10.9917 0.33781 10.8915 0.164306 10.7289 0.0704691C10.5664 -0.0234897 10.366 -0.0234897 10.2035 0.0704691C10.0409 0.164306 9.94067 0.337807 9.94067 0.525484V5.53355C9.94067 5.67296 9.99602 5.80651 10.0946 5.90512C10.1932 6.00372 10.3268 6.05907 10.4662 6.05907H15.4743C15.6619 6.05907 15.8354 5.95888 15.9293 5.79625C16.0232 5.63375 16.0232 5.43335 15.9293 5.27086C15.8354 5.10823 15.6619 5.00804 15.4743 5.00804L15.474 5.00775Z" fill="white"/>
<path d="M5.53355 9.9417H0.525484C0.33781 9.9417 0.164306 10.0419 0.0704691 10.2045C-0.0234897 10.367 -0.0234897 10.5674 0.0704691 10.7299C0.164306 10.8925 0.337807 10.9927 0.525484 10.9927H5.00775V15.475C5.00775 15.6627 5.10794 15.8362 5.27057 15.93C5.43307 16.024 5.63347 16.024 5.79596 15.93C5.95859 15.8362 6.05878 15.6627 6.05878 15.475V10.4669C6.05878 10.3275 6.00343 10.194 5.90482 10.0954C5.80622 9.99675 5.67267 9.94141 5.53326 9.94141L5.53355 9.9417Z" fill="white"/>
<path d="M15.474 9.94141H10.4659C10.3265 9.94141 10.193 9.99675 10.0944 10.0954C9.99578 10.194 9.94043 10.3275 9.94043 10.4669V15.475C9.94043 15.6627 10.0406 15.8362 10.2032 15.93C10.3657 16.024 10.5661 16.024 10.7286 15.93C10.8913 15.8362 10.9915 15.6627 10.9915 15.475V10.9927H15.4737C15.6614 10.9927 15.8349 10.8925 15.9287 10.7299C16.0227 10.5674 16.0227 10.367 15.9287 10.2045C15.8349 10.0419 15.6614 9.9417 15.4737 9.9417L15.474 9.94141Z" fill="white"/>
</svg>
