<svg width="18" height="14" viewBox="0 0 18 14" fill="none" xmlns="http://www.w3.org/2000/svg">
<path d="M15.6665 0.333984H2.33317C1.4165 0.333984 0.666504 1.08398 0.666504 2.00065V12.0007C0.666504 12.9173 1.4165 13.6673 2.33317 13.6673H15.6665C16.5832 13.6673 17.3332 12.9173 17.3332 12.0007V2.00065C17.3332 1.08398 16.5832 0.333984 15.6665 0.333984ZM3.1665 7.00065H4.83317C5.2915 7.00065 5.6665 7.37565 5.6665 7.83398C5.6665 8.29232 5.2915 8.66732 4.83317 8.66732H3.1665C2.70817 8.66732 2.33317 8.29232 2.33317 7.83398C2.33317 7.37565 2.70817 7.00065 3.1665 7.00065ZM9.83317 12.0007H3.1665C2.70817 12.0007 2.33317 11.6257 2.33317 11.1673C2.33317 10.709 2.70817 10.334 3.1665 10.334H9.83317C10.2915 10.334 10.6665 10.709 10.6665 11.1673C10.6665 11.6257 10.2915 12.0007 9.83317 12.0007ZM14.8332 12.0007H13.1665C12.7082 12.0007 12.3332 11.6257 12.3332 11.1673C12.3332 10.709 12.7082 10.334 13.1665 10.334H14.8332C15.2915 10.334 15.6665 10.709 15.6665 11.1673C15.6665 11.6257 15.2915 12.0007 14.8332 12.0007ZM14.8332 8.66732H8.1665C7.70817 8.66732 7.33317 8.29232 7.33317 7.83398C7.33317 7.37565 7.70817 7.00065 8.1665 7.00065H14.8332C15.2915 7.00065 15.6665 7.37565 15.6665 7.83398C15.6665 8.29232 15.2915 8.66732 14.8332 8.66732Z" fill="#7B839D"/>
</svg>
