<svg width="31" height="31" viewBox="0 0 31 31" fill="none" xmlns="http://www.w3.org/2000/svg">
<path d="M29.76 16.1205C29.76 19.738 28.3229 23.2074 25.7649 25.7654C23.2069 28.3234 19.7375 29.7605 16.12 29.7605C12.5024 29.7605 9.03304 28.3234 6.47504 25.7654C3.91705 23.2074 2.47998 19.738 2.47998 16.1205C2.48138 15.0601 2.60893 14.0037 2.85995 12.9735C2.88057 12.8407 2.92844 12.7136 3.00057 12.6002C3.07269 12.4867 3.1675 12.3895 3.27904 12.3145C3.39058 12.2395 3.51643 12.1884 3.64867 12.1643C3.78092 12.1403 3.91671 12.144 4.04749 12.175C4.17828 12.206 4.30123 12.2637 4.40862 12.3445C4.51601 12.4254 4.60551 12.5275 4.6715 12.6446C4.73749 12.7617 4.77853 12.8912 4.79205 13.025C4.80557 13.1587 4.79128 13.2938 4.75007 13.4217C4.08222 16.1567 4.41523 19.0404 5.68886 21.5512C6.96248 24.0621 9.09262 26.0342 11.694 27.1109C14.2953 28.1876 17.1961 28.2977 19.8717 27.4215C22.5472 26.5452 24.8208 24.7404 26.2812 22.3334C27.7416 19.9264 28.2924 17.0763 27.8339 14.2985C27.3755 11.5207 25.938 8.99866 23.7816 7.18862C21.6252 5.37858 18.8923 4.40004 16.077 4.42998C13.2618 4.45993 10.5503 5.4964 8.43287 7.3519H11.2486C11.5069 7.3519 11.7548 7.45455 11.9375 7.63726C12.1202 7.81997 12.2228 8.06779 12.2228 8.32618C12.2228 8.58458 12.1202 8.83239 11.9375 9.01511C11.7548 9.19782 11.5069 9.30047 11.2486 9.30047H6.37712C6.11873 9.30047 5.87091 9.19782 5.6882 9.01511C5.50549 8.83239 5.40284 8.58458 5.40284 8.32618V3.45475C5.40284 3.19636 5.50549 2.94854 5.6882 2.76583C5.87091 2.58312 6.11873 2.48047 6.37712 2.48047C6.63552 2.48047 6.88333 2.58312 7.06605 2.76583C7.24876 2.94854 7.35141 3.19636 7.35141 3.45475V5.7151C9.33755 4.0482 11.7577 2.98195 14.3281 2.64131C16.8986 2.30067 19.5129 2.69975 21.8646 3.79178C24.2164 4.88382 26.2082 6.62355 27.6065 8.8071C29.0049 10.9907 29.7519 13.5276 29.76 16.1205Z" fill="#E0DFDF"/>
</svg>
