<svg width="18" height="14" preserveAspectRatio="none" viewBox="0 0 18 14" fill="none" xmlns="http://www.w3.org/2000/svg">
<path d="M15.667 0.332031H2.33366C1.41699 0.332031 0.666992 1.08203 0.666992 1.9987V11.9987C0.666992 12.9154 1.41699 13.6654 2.33366 13.6654H15.667C16.5837 13.6654 17.3337 12.9154 17.3337 11.9987V1.9987C17.3337 1.08203 16.5837 0.332031 15.667 0.332031ZM3.16699 6.9987H4.83366C5.29199 6.9987 5.66699 7.3737 5.66699 7.83203C5.66699 8.29036 5.29199 8.66537 4.83366 8.66537H3.16699C2.70866 8.66537 2.33366 8.29036 2.33366 7.83203C2.33366 7.3737 2.70866 6.9987 3.16699 6.9987ZM9.83366 11.9987H3.16699C2.70866 11.9987 2.33366 11.6237 2.33366 11.1654C2.33366 10.707 2.70866 10.332 3.16699 10.332H9.83366C10.292 10.332 10.667 10.707 10.667 11.1654C10.667 11.6237 10.292 11.9987 9.83366 11.9987ZM14.8337 11.9987H13.167C12.7087 11.9987 12.3337 11.6237 12.3337 11.1654C12.3337 10.707 12.7087 10.332 13.167 10.332H14.8337C15.292 10.332 15.667 10.707 15.667 11.1654C15.667 11.6237 15.292 11.9987 14.8337 11.9987ZM14.8337 8.66537H8.16699C7.70866 8.66537 7.33366 8.29036 7.33366 7.83203C7.33366 7.3737 7.70866 6.9987 8.16699 6.9987H14.8337C15.292 6.9987 15.667 7.3737 15.667 7.83203C15.667 8.29036 15.292 8.66537 14.8337 8.66537Z" fill="white"/>
</svg>
