<svg width="11" height="10" viewBox="0 0 11 10" fill="none" xmlns="http://www.w3.org/2000/svg">
<path d="M10.9683 9.55692L8.16832 3.84265C8.1434 3.7918 8.1051 3.74904 8.05771 3.71915C8.01032 3.68926 7.95571 3.67343 7.9 3.67343C7.84428 3.67343 7.78967 3.68926 7.74228 3.71915C7.69489 3.74904 7.65659 3.7918 7.63167 3.84265L6.51728 6.11688C5.58504 6.07771 4.68775 5.74396 3.94949 5.16178C4.80737 4.26718 5.31934 3.08624 5.39098 1.83673H6.69998C6.77954 1.83673 6.85585 1.80448 6.91211 1.74707C6.96837 1.68966 6.99998 1.6118 6.99998 1.53061C6.99998 1.44942 6.96837 1.37156 6.91211 1.31415C6.85585 1.25674 6.77954 1.22449 6.69998 1.22449H3.79999V0.306122C3.79999 0.224933 3.76838 0.14707 3.71212 0.089661C3.65586 0.032252 3.57955 0 3.49999 0C3.42042 0 3.34412 0.032252 3.28786 0.089661C3.2316 0.14707 3.19999 0.224933 3.19999 0.306122V1.22449H0.299999C0.220434 1.22449 0.144128 1.25674 0.0878676 1.31415C0.0316069 1.37156 0 1.44942 0 1.53061C0 1.6118 0.0316069 1.68966 0.0878676 1.74707C0.144128 1.80448 0.220434 1.83673 0.299999 1.83673H4.78973C4.71814 2.93648 4.26012 3.97296 3.49979 4.75581C3.03361 4.27649 2.67725 3.69777 2.45629 3.06122C2.42975 2.98467 2.3745 2.92202 2.30268 2.88704C2.23087 2.85207 2.14838 2.84763 2.07337 2.87472C1.99835 2.9018 1.93695 2.95818 1.90267 3.03146C1.8684 3.10474 1.86405 3.18891 1.89059 3.26545C2.13725 3.97634 2.53295 4.62374 3.05009 5.16249C2.26352 5.78565 1.29581 6.12344 0.299999 6.12244C0.220434 6.12244 0.144128 6.15469 0.0878676 6.2121C0.0316069 6.26951 0 6.34737 0 6.42856C0 6.50975 0.0316069 6.58761 0.0878676 6.64502C0.144128 6.70243 0.220434 6.73468 0.299999 6.73468C1.46518 6.7358 2.59527 6.3278 3.50049 5.57918C4.28084 6.22087 5.22901 6.61403 6.22683 6.70963L4.83168 9.55692C4.81406 9.59288 4.80355 9.63203 4.80075 9.67213C4.79796 9.71223 4.80293 9.7525 4.81538 9.79064C4.82783 9.82878 4.84753 9.86405 4.87334 9.89442C4.89915 9.92479 4.93057 9.94968 4.96581 9.96766C5.00104 9.98565 5.03941 9.99637 5.07871 9.99923C5.118 10.0021 5.15747 9.99701 5.19485 9.9843C5.23223 9.97159 5.26678 9.95149 5.29655 9.92516C5.32632 9.89882 5.35071 9.86676 5.36833 9.8308L6.08543 8.36734H9.71457L10.4317 9.8308C10.4673 9.90342 10.5297 9.95863 10.6051 9.9843C10.6806 10.01 10.763 10.004 10.8342 9.96766C10.9054 9.93135 10.9595 9.86767 10.9846 9.79064C11.0098 9.71361 11.0039 9.62954 10.9683 9.55692ZM6.38543 7.75509L7.89997 4.66407L9.41457 7.75509H6.38543Z" fill="currentColor" fill-opacity="0.86"/>
</svg>
