<svg width="16" height="16" viewBox="0 0 16 16" fill="none" xmlns="http://www.w3.org/2000/svg">
<path d="M0.525814 6.05881C0.665224 6.05881 0.798895 6.00334 0.897377 5.90486C0.995977 5.80625 1.05133 5.67258 1.05133 5.53329L1.05133 1.05102L5.5336 1.05102C5.72127 1.05102 5.89478 0.950833 5.98861 0.788208C6.08257 0.625704 6.08257 0.42531 5.98861 0.262815C5.89478 0.10019 5.72128 9.24142e-07 5.5336 9.07735e-07L0.52553 4.69916e-07C0.38612 4.57728e-07 0.252572 0.0553484 0.153968 0.153952C0.0553642 0.252556 1.62315e-05 0.386101 1.62194e-05 0.525515L1.57815e-05 5.53358C1.57694e-05 5.67287 0.0553637 5.80654 0.153967 5.90515C0.252568 6.00362 0.386401 6.05881 0.525814 6.05881Z" fill="white"/>
<path d="M10.4674 1.05175L14.9497 1.05176L14.9497 5.53403C14.9497 5.7217 15.0499 5.8952 15.2125 5.98904C15.375 6.083 15.5754 6.083 15.7379 5.98904C15.9005 5.8952 16.0007 5.7217 16.0007 5.53403L16.0007 0.525957C16.0007 0.386547 15.9454 0.252998 15.8468 0.154394C15.7482 0.0557904 15.6146 0.000442471 15.4752 0.000442459L10.4672 0.000442021C10.2795 0.000442005 10.106 0.100632 10.0121 0.263257C9.91818 0.42576 9.91818 0.626155 10.0121 0.788649C10.106 0.951274 10.2798 1.05175 10.4674 1.05175Z" fill="white"/>
<path d="M0.52675 15.9989L5.53482 15.9989C5.72249 15.9989 5.896 15.8987 5.98983 15.7361C6.08379 15.5736 6.08379 15.3732 5.98983 15.2107C5.896 15.048 5.7225 14.9478 5.53482 14.9478L1.05255 14.9478L1.05255 10.4656C1.05255 10.2779 0.952359 10.1044 0.789734 10.0106C0.627231 9.9166 0.426836 9.9166 0.264342 10.0106C0.101717 10.1044 0.00152733 10.2779 0.00152732 10.4656L0.00152688 15.4736C0.00152687 15.6131 0.0568743 15.7466 0.155478 15.8452C0.254082 15.9438 0.387337 15.9989 0.52675 15.9989Z" fill="white"/>
<path d="M10.4667 15.9989L15.4747 15.9989C15.6141 15.9989 15.7477 15.9435 15.8463 15.8449C15.9449 15.7463 16.0002 15.6128 16.0002 15.4734L16.0002 10.4653C16.0002 10.2776 15.9001 10.1041 15.7374 10.0103C15.5749 9.91632 15.3745 9.91632 15.212 10.0103C15.0494 10.1041 14.9492 10.2776 14.9492 10.4653L14.9492 14.9476L10.467 14.9476C10.2793 14.9476 10.1058 15.0477 10.0119 15.2104C9.91798 15.3729 9.91798 15.5733 10.0119 15.7358C10.1058 15.8984 10.2793 15.9986 10.467 15.9986L10.4667 15.9989Z" fill="white"/>
</svg>
