<svg width="20" height="20" viewBox="0 0 20 20" fill="none" xmlns="http://www.w3.org/2000/svg">
<g clip-path="url(#clip0_6238_44087)">
<path d="M13.75 10.0001C13.75 8.52506 12.9 7.25839 11.6667 6.64173V8.48339L13.7083 10.5251C13.7333 10.3584 13.75 10.1834 13.75 10.0001ZM15.8333 10.0001C15.8333 10.7834 15.6667 11.5167 15.3833 12.2001L16.6417 13.4584C17.1917 12.4251 17.5 11.2501 17.5 10.0001C17.5 6.43339 15.0083 3.45006 11.6667 2.69173V4.40839C14.075 5.12506 15.8333 7.35839 15.8333 10.0001ZM3.55833 2.50006L2.5 3.55839L6.44167 7.50006H2.5V12.5001H5.83333L10 16.6667V11.0584L13.5417 14.6001C12.9833 15.0334 12.3583 15.3751 11.6667 15.5834V17.3001C12.8167 17.0417 13.8583 16.5084 14.7417 15.7917L16.4417 17.5001L17.5 16.4417L10 8.94173L3.55833 2.50006ZM10 3.33339L8.25833 5.07506L10 6.81673V3.33339Z" fill="white"/>
</g>
<defs>
<clipPath id="clip0_6238_44087">
<rect width="20" height="20" fill="white"/>
</clipPath>
</defs>
</svg>
