<svg width="16" height="16" viewBox="0 0 16 16" fill="none" xmlns="http://www.w3.org/2000/svg">
<path fill-rule="evenodd" clip-rule="evenodd" d="M9.66705 2.40844V0.691772C13.0087 1.45011 15.5004 4.43344 15.5004 8.00011C15.5004 11.5668 13.0087 14.5501 9.66705 15.3084V13.5918C12.0754 12.8751 13.8337 10.6418 13.8337 8.00011C13.8337 5.35844 12.0754 3.12511 9.66705 2.40844ZM0.5 10.4999V5.49992H3.83333L8 1.33325V14.6666L3.83333 10.4999H0.5ZM6.33317 10.6416V5.35826L4.52483 7.1666H2.1665V8.83326H4.52483L6.33317 10.6416ZM11.7504 8.00022C11.7504 6.52522 10.9004 5.25855 9.66705 4.64188V11.3502C10.9004 10.7419 11.7504 9.47522 11.7504 8.00022Z" fill="#F8FAFF"/>
</svg>
