<svg width="32" height="32" viewBox="0 0 32 32" fill="none" xmlns="http://www.w3.org/2000/svg">
<rect width="32" height="32" rx="13" fill="#FFCF26"/>
<rect width="24" height="24" transform="translate(4 4)" fill="#FFCF26"/>
<path fill-rule="evenodd" clip-rule="evenodd" d="M16.3749 6.00177C19.2949 6.00177 21.6729 8.37977 21.6729 11.3028L21.6728 12.8794C23.448 13.4972 24.725 15.1872 24.725 17.1706V21.4596C24.725 23.9646 22.688 26.0016 20.183 26.0016H12.542C10.037 26.0016 8 23.9646 8 21.4596V17.1706C8 15.1876 9.27652 13.4978 11.0512 12.8797L11.0519 11.3028C11.0579 9.86277 11.6149 8.53377 12.6199 7.53777C13.6259 6.54077 14.9539 5.96377 16.3749 6.00177ZM20.183 14.1286H12.542C10.864 14.1286 9.5 15.4926 9.5 17.1706V21.4596C9.5 23.1376 10.864 24.5016 12.542 24.5016H20.183C21.86 24.5016 23.225 23.1376 23.225 21.4596V17.1706C23.225 15.4926 21.86 14.1286 20.183 14.1286ZM16.3623 17.4544C16.7763 17.4544 17.1123 17.7904 17.1123 18.2044V20.4254C17.1123 20.8394 16.7763 21.1754 16.3623 21.1754C15.9483 21.1754 15.6123 20.8394 15.6123 20.4254V18.2044C15.6123 17.7904 15.9483 17.4544 16.3623 17.4544ZM16.3719 7.50177H16.3559C15.3429 7.50177 14.3939 7.89177 13.6769 8.60277C12.9549 9.31677 12.5559 10.2698 12.5519 11.2858L12.551 12.628H20.172L20.1729 11.3028C20.1729 9.20677 18.4679 7.50177 16.3719 7.50177Z" fill="#353D52"/>
</svg>
