<svg width="60" height="60" viewBox="0 0 60 60" fill="none" xmlns="http://www.w3.org/2000/svg">
<rect width="60" height="60" rx="8" fill="#6B85FF"/>
<path d="M30.375 36.4616C29.4028 36.4616 28.625 36.1699 28.0417 35.5866C27.4583 35.0033 27.1667 34.2671 27.1667 33.3783C27.1944 31.8783 27.4789 30.6283 28.02 29.6283C28.5622 28.6283 29.4583 27.6838 30.7083 26.7949C31.7361 26.0727 32.4861 25.3849 32.9583 24.7316C33.4306 24.0794 33.6667 23.3088 33.6667 22.4199C33.6667 21.531 33.3611 20.7877 32.75 20.1899C32.1389 19.5933 31.3472 19.2949 30.375 19.2949C29.625 19.2949 28.9583 19.4266 28.375 19.6899C27.7917 19.9544 27.2639 20.3783 26.7917 20.9616C26.2361 21.6838 25.5767 22.121 24.8133 22.2733C24.0489 22.4266 23.3194 22.3366 22.625 22.0033C21.5417 21.5033 20.9167 20.7255 20.75 19.6699C20.5833 18.6144 20.8611 17.6421 21.5833 16.7533C22.5556 15.5033 23.7778 14.5099 25.25 13.7733C26.7222 13.0377 28.4306 12.6699 30.375 12.6699C33.625 12.6699 36.125 13.6071 37.875 15.4816C39.625 17.3571 40.5 19.6283 40.5 22.2949C40.5 24.1283 40.2017 25.656 39.605 26.8783C39.0072 28.1005 38.0417 29.281 36.7083 30.4199C36.0694 30.9755 35.5417 31.5033 35.125 32.0033C34.7083 32.5033 34.3611 33.0588 34.0833 33.6699C33.6389 34.5588 33.1044 35.2466 32.48 35.7333C31.8544 36.2188 31.1528 36.4616 30.375 36.4616ZM30.375 48.2533C29.0972 48.2533 28.0072 47.8088 27.105 46.9199C26.2017 46.031 25.75 44.9477 25.75 43.6699C25.75 42.3921 26.2017 41.3021 27.105 40.3999C28.0072 39.4966 29.0972 39.0449 30.375 39.0449C31.6528 39.0449 32.7433 39.4966 33.6467 40.3999C34.5489 41.3021 35 42.3921 35 43.6699C35 44.9477 34.5489 46.031 33.6467 46.9199C32.7433 47.8088 31.6528 48.2533 30.375 48.2533Z" fill="#F3F5FF"/>
</svg>
