<svg width="24" height="24" viewBox="0 0 24 24" fill="none" xmlns="http://www.w3.org/2000/svg">
<rect width="24" height="24" rx="12" fill="currentColor"/>
<path d="M11.1844 4.22318C11.441 3.43349 12.5582 3.43349 12.8148 4.22318L14.1164 8.22926C14.2312 8.58242 14.5603 8.82153 14.9316 8.82153L19.1439 8.82153C19.9742 8.82153 20.3194 9.88406 19.6477 10.3721L16.2399 12.848C15.9395 13.0663 15.8138 13.4532 15.9285 13.8063L17.2302 17.8124C17.4868 18.6021 16.5829 19.2588 15.9112 18.7707L12.5034 16.2948C12.203 16.0766 11.7962 16.0766 11.4958 16.2948L8.08799 18.7707C7.41623 19.2588 6.51239 18.6021 6.76898 17.8124L8.07064 13.8063C8.18539 13.4532 8.05968 13.0663 7.75926 12.848L4.35149 10.3721C3.67973 9.88406 4.02497 8.82153 4.8553 8.82153L9.06754 8.82153C9.43888 8.82153 9.76799 8.58242 9.88273 8.22926L11.1844 4.22318Z" fill="white"/>
</svg>
