<svg width="17" height="17" viewBox="0 0 17 17" fill="none" xmlns="http://www.w3.org/2000/svg">
<path d="M8.62295 0.118989C4.53133 -0.208988 0.836748 3.35282 0.201525 7.259C-0.453975 11.3087 2.22257 14.8728 5.95928 16.2155C13.3404 18.8654 19.0237 10.7635 14.5285 6.46316C10.3326 2.44939 4.18778 3.81116 4.24007 8.19937C4.26046 9.85252 5.682 12.5025 7.67663 11.4215C7.77473 11.3604 7.85543 11.275 7.91091 11.1736C7.96639 11.0722 7.99479 10.9582 7.99336 10.8426C7.99194 10.727 7.96074 10.6138 7.90277 10.5138C7.8448 10.4138 7.76203 10.3304 7.66244 10.2717C6.74848 9.75018 6.71596 9.79468 6.51087 9.55103C6.20726 9.13742 6.0545 8.63232 6.07803 8.11978C6.09822 3.64985 16.3605 6.49388 13.9494 11.7943C12.624 14.7022 9.34479 15.5969 6.46143 14.6276C3.68508 13.6955 1.51137 11.1302 1.66724 8.12826C1.85264 4.54177 5.10901 1.49607 8.63654 1.22109C8.78269 1.21928 8.92213 1.1595 9.0242 1.05489C9.12627 0.950269 9.1826 0.809388 9.18079 0.663241C9.17899 0.517093 9.1192 0.377645 9.01459 0.275578C8.90997 0.173511 8.76909 0.117186 8.62295 0.118989Z" fill="#5C77F2"/>
</svg>
