<svg width="52" height="52" viewBox="0 0 52 52" fill="none" xmlns="http://www.w3.org/2000/svg">
    <rect width="52" height="52" rx="16" fill="#F3F5FF"/>
    <path fill-rule="evenodd" clip-rule="evenodd" d="M19.9288 12.2243C19.6664 12.3463 19.3279 12.5861 19.1695 12.7623C18.6053 13.3894 18.6203 13.1957 18.6446 19.5538L18.6664 25.2429L16.1752 25.2674L13.6839 25.292L13.2186 25.5301C12.7025 25.7942 12.2383 26.3271 12.0884 26.8276C12.0257 27.0366 11.9995 28.7875 12 32.7179L12.0008 38.3108L12.1878 38.7053C12.4153 39.1851 12.864 39.628 13.3405 39.8433C13.6867 39.9996 13.836 40.0037 19.2976 40.0049C22.7331 40.0058 25.0077 39.9762 25.179 39.9286C25.3327 39.8859 25.5752 39.7648 25.7179 39.6596L25.9774 39.4682L26.2566 39.6576C26.4102 39.7618 26.6647 39.8829 26.8223 39.9267C27.0024 39.9767 29.167 40.0064 32.6487 40.0067C37.99 40.0071 38.2037 40.0015 38.609 39.8498C39.0861 39.6713 39.5125 39.2709 39.7856 38.7447L39.9698 38.3897L39.9911 32.7929C40.0147 26.5809 40.0308 26.797 39.4932 26.0929C39.3167 25.8618 39.0648 25.6613 38.7679 25.5155L38.3129 25.292L35.7741 25.2674L33.2353 25.2427L33.3105 25.0271C33.3562 24.8961 33.3771 22.631 33.3639 19.2525L33.3421 13.6935L33.1219 13.2452C32.8509 12.6933 32.5039 12.3795 31.9253 12.163C31.4899 12 31.3833 11.9972 25.9421 12.0007L20.4022 12.0044L19.9288 12.2243ZM31.4952 13.6184C31.6251 13.6855 31.7654 13.8299 31.8069 13.9391C31.8523 14.0583 31.8824 16.2342 31.8824 19.3835C31.8824 25.0041 31.8853 24.9609 31.4922 25.1713C31.3924 25.2248 29.4923 25.2526 25.9376 25.2526H20.5346L20.3303 25.0098L20.1261 24.7671V19.4026C20.1261 15.8895 20.154 13.986 20.2069 13.887C20.4149 13.4986 20.3529 13.5028 25.9885 13.4994C30.5958 13.4966 31.2887 13.5116 31.4952 13.6184ZM24.8229 26.846C25.2641 27.0469 25.2547 26.9196 25.2547 32.7109V38.0468L25.024 38.2774L24.7934 38.508H19.3579H13.9224L13.7104 38.2867L13.4983 38.0655V32.6392V27.2129L13.729 26.9823L13.9596 26.7517H19.2878C23.2508 26.7517 24.6691 26.7758 24.8229 26.846ZM38.0784 26.846C38.5195 27.0469 38.5101 26.9196 38.5101 32.7109V38.0468L38.2795 38.2774L38.0489 38.508H32.6441H27.2393L26.9966 38.3037L26.7538 38.0995V32.6965C26.7538 29.1572 26.7817 27.2415 26.8347 27.1425C27.0425 26.7541 26.9813 26.7582 32.6085 26.7548C36.5267 26.7525 37.9244 26.7758 38.0784 26.846Z" fill="#5C77F2"/>
</svg>
