<svg width="154" height="40" viewBox="0 0 154 40" fill="none" xmlns="http://www.w3.org/2000/svg">
    <path d="M64.9708 29.6931C63.1308 29.6931 61.5108 29.3331 60.1108 28.6131C58.7308 27.8931 57.6608 26.9131 56.9008 25.6731C56.1408 24.4131 55.7608 22.9831 55.7608 21.3831C55.7608 19.7631 56.1308 18.3331 56.8708 17.0931C57.6308 15.8331 58.6608 14.8531 59.9608 14.1531C61.2608 13.4331 62.7308 13.0731 64.3708 13.0731C65.9508 13.0731 67.3708 13.4131 68.6308 14.0931C69.9108 14.7531 70.9208 15.7131 71.6608 16.9731C72.4008 18.2131 72.7708 19.7031 72.7708 21.4431C72.7708 21.6231 72.7608 21.8331 72.7408 22.0731C72.7208 22.2931 72.7008 22.5031 72.6808 22.7031H59.5708V19.9731H70.2208L68.4208 20.7831C68.4208 19.9431 68.2508 19.2131 67.9108 18.5931C67.5708 17.9731 67.1008 17.4931 66.5008 17.1531C65.9008 16.7931 65.2008 16.6131 64.4008 16.6131C63.6008 16.6131 62.8908 16.7931 62.2708 17.1531C61.6708 17.4931 61.2008 17.9831 60.8608 18.6231C60.5208 19.2431 60.3508 19.9831 60.3508 20.8431V21.5631C60.3508 22.4431 60.5408 23.2231 60.9208 23.9031C61.3208 24.5631 61.8708 25.0731 62.5708 25.4331C63.2908 25.7731 64.1308 25.9431 65.0908 25.9431C65.9508 25.9431 66.7008 25.8131 67.3408 25.5531C68.0008 25.2931 68.6008 24.9031 69.1408 24.3831L71.6308 27.0831C70.8908 27.9231 69.9608 28.5731 68.8408 29.0331C67.7208 29.4731 66.4308 29.6931 64.9708 29.6931ZM76.6237 29.4531V8.45312H81.4837V25.4931H92.0137V29.4531H76.6237ZM104.824 29.4531V26.3031L104.524 25.6131V19.9731C104.524 18.9731 104.214 18.1931 103.594 17.6331C102.994 17.0731 102.064 16.7931 100.804 16.7931C99.9435 16.7931 99.0935 16.9331 98.2535 17.2131C97.4335 17.4731 96.7335 17.8331 96.1535 18.2931L94.4735 15.0231C95.3535 14.4031 96.4135 13.9231 97.6535 13.5831C98.8935 13.2431 100.154 13.0731 101.434 13.0731C103.894 13.0731 105.804 13.6531 107.164 14.8131C108.524 15.9731 109.204 17.7831 109.204 20.2431V29.4531H104.824ZM99.9035 29.6931C98.6435 29.6931 97.5635 29.4831 96.6635 29.0631C95.7635 28.6231 95.0735 28.0331 94.5935 27.2931C94.1135 26.5531 93.8735 25.7231 93.8735 24.8031C93.8735 23.8431 94.1035 23.0031 94.5635 22.2831C95.0435 21.5631 95.7935 21.0031 96.8135 20.6031C97.8335 20.1831 99.1635 19.9731 100.804 19.9731H105.094V22.7031H101.314C100.214 22.7031 99.4535 22.8831 99.0335 23.2431C98.6335 23.6031 98.4335 24.0531 98.4335 24.5931C98.4335 25.1931 98.6635 25.6731 99.1235 26.0331C99.6035 26.3731 100.254 26.5431 101.074 26.5431C101.854 26.5431 102.554 26.3631 103.174 26.0031C103.794 25.6231 104.244 25.0731 104.524 24.3531L105.244 26.5131C104.904 27.5531 104.284 28.3431 103.384 28.8831C102.484 29.4231 101.324 29.6931 99.9035 29.6931ZM123.656 13.0731C124.936 13.0731 126.076 13.3331 127.076 13.8531C128.096 14.3531 128.896 15.1331 129.476 16.1931C130.056 17.2331 130.346 18.5731 130.346 20.2131V29.4531H125.666V20.9331C125.666 19.6331 125.376 18.6731 124.796 18.0531C124.236 17.4331 123.436 17.1231 122.396 17.1231C121.656 17.1231 120.986 17.2831 120.386 17.6031C119.806 17.9031 119.346 18.3731 119.006 19.0131C118.686 19.6531 118.526 20.4731 118.526 21.4731V29.4531H113.846V13.3131H118.316V17.7831L117.476 16.4331C118.056 15.3531 118.886 14.5231 119.966 13.9431C121.046 13.3631 122.276 13.0731 123.656 13.0731ZM142.703 35.5131C141.183 35.5131 139.713 35.3231 138.293 34.9431C136.893 34.5831 135.723 34.0331 134.783 33.2931L136.643 29.9331C137.323 30.4931 138.183 30.9331 139.223 31.2531C140.283 31.5931 141.323 31.7631 142.343 31.7631C144.003 31.7631 145.203 31.3931 145.943 30.6531C146.703 29.9131 147.083 28.8131 147.083 27.3531V24.9231L147.383 20.8731L147.323 16.7931V13.3131H151.763V26.7531C151.763 29.7531 150.983 31.9631 149.423 33.3831C147.863 34.8031 145.623 35.5131 142.703 35.5131ZM141.983 28.6731C140.483 28.6731 139.123 28.3531 137.903 27.7131C136.703 27.0531 135.733 26.1431 134.993 24.9831C134.273 23.8031 133.913 22.4331 133.913 20.8731C133.913 19.2931 134.273 17.9231 134.993 16.7631C135.733 15.5831 136.703 14.6731 137.903 14.0331C139.123 13.3931 140.483 13.0731 141.983 13.0731C143.343 13.0731 144.543 13.3531 145.583 13.9131C146.623 14.4531 147.433 15.3031 148.013 16.4631C148.593 17.6031 148.883 19.0731 148.883 20.8731C148.883 22.6531 148.593 24.1231 148.013 25.2831C147.433 26.4231 146.623 27.2731 145.583 27.8331C144.543 28.3931 143.343 28.6731 141.983 28.6731ZM142.913 24.8331C143.733 24.8331 144.463 24.6731 145.103 24.3531C145.743 24.0131 146.243 23.5431 146.603 22.9431C146.963 22.3431 147.143 21.6531 147.143 20.8731C147.143 20.0731 146.963 19.3831 146.603 18.8031C146.243 18.2031 145.743 17.7431 145.103 17.4231C144.463 17.0831 143.733 16.9131 142.913 16.9131C142.093 16.9131 141.363 17.0831 140.723 17.4231C140.083 17.7431 139.573 18.2031 139.193 18.8031C138.833 19.3831 138.653 20.0731 138.653 20.8731C138.653 21.6531 138.833 22.3431 139.193 22.9431C139.573 23.5431 140.083 24.0131 140.723 24.3531C141.363 24.6731 142.093 24.8331 142.913 24.8331Z" fill="#4F6EFD"/>
    <path d="M29.0988 36.6479C38.3762 31.2921 41.5549 19.4303 36.1986 10.1538C30.8422 0.877362 18.9792 -2.30097 9.70173 3.0548C0.424291 8.41057 -2.7544 20.2723 2.60196 29.5489C7.95829 38.8253 19.8213 42.0035 29.0988 36.6479Z" fill="#4F6EFD"/>
    <path fill-rule="evenodd" clip-rule="evenodd" d="M3.50855 31.791C3.04911 31.1736 2.62107 30.5224 2.22795 29.8381C1.74919 29.0048 1.3385 28.1508 0.994141 27.2825C1.52262 26.9735 2.29395 26.525 3.37176 25.8997C3.65569 25.735 4.22349 25.4037 4.63354 25.1633C5.04364 24.9231 5.805 24.4784 6.32546 24.1753L6.8835 23.8499C6.86174 23.7979 6.84052 23.7464 6.81988 23.6955C6.29432 22.2831 6.01724 20.5132 6.07125 18.9119C6.13323 17.0738 6.47233 15.643 7.22584 14.0402C8.28604 11.785 9.77013 10.0777 11.9002 8.66245C13.638 7.50784 15.5411 6.73709 17.236 6.50133C17.9944 6.39588 19.559 6.39529 20.3444 6.5002C22.4208 6.7776 24.4442 7.7485 26.3086 9.36208C26.6339 9.64351 27.0644 10.0543 27.2654 10.2751C28.183 11.2826 29.2421 12.7724 29.6535 13.6342C30.0323 14.428 30.0328 15.2311 29.6548 16.012C29.3644 16.612 28.9588 16.9817 27.9322 17.5813C27.4591 17.8577 26.5558 18.3848 25.9249 18.7525C22.9735 20.473 22.46 20.7726 21.2793 21.463C19.2588 22.6447 16.2669 24.3898 15.8308 24.6411C15.61 24.7684 15.1882 25.0153 14.8935 25.1901L14.3577 25.5077L14.5781 25.7373C15.1066 26.288 16.0702 26.8939 16.9517 27.2298C17.9841 27.6232 18.2612 27.6694 19.5874 27.6694C20.6844 27.6694 20.8035 27.6588 21.3654 27.5104C22.1088 27.3143 22.6724 27.0971 23.4082 26.7233C25.0824 25.8726 26.3092 24.576 27.2962 22.6137C27.5676 22.0742 27.6889 21.9021 28.0213 21.5849C28.8296 20.8138 29.738 20.5388 30.7108 20.7706C32.3306 21.1567 33.1788 22.5449 32.6952 24.0181C31.9436 26.3078 29.5455 29.2421 27.1006 30.8637C26.5101 31.2554 25.2416 31.9158 24.4624 32.2371C21.7418 33.3591 18.9201 33.5795 16.1774 32.884C15.0788 32.6055 13.821 32.085 12.8997 31.5277C11.6231 30.7557 10.2028 29.4838 9.38093 28.3772L9.37531 28.3695L9.33647 28.3922C7.31594 29.5739 4.32409 31.319 3.88793 31.5703C3.79099 31.6262 3.65527 31.7051 3.50855 31.791ZM22.0246 13.141C21.285 12.6364 20.5212 12.2987 19.6161 12.0763C18.3115 11.7557 16.8297 12.042 15.3679 12.8972C13.4246 14.034 12.3074 15.4137 11.8125 17.288C11.6073 18.0647 11.5534 19.4942 11.6975 20.3323C11.7977 20.9147 11.8494 21.0275 11.9714 20.9294C12.0349 20.8783 12.9157 20.3622 15.3146 18.9706C15.5985 18.8059 16.1663 18.4745 16.5764 18.2341C16.9864 17.9939 17.7478 17.5492 18.2683 17.2461C18.7888 16.9429 19.6534 16.4384 20.1896 16.1249C20.7258 15.8115 21.6292 15.2842 22.197 14.9535C22.7647 14.6226 23.25 14.3313 23.2754 14.3061C23.3387 14.243 22.5147 13.4754 22.0246 13.141Z" fill="white"/>
</svg>
