<svg width="572" height="439" viewBox="0 0 572 439" fill="none" xmlns="http://www.w3.org/2000/svg">
    <rect x="52" width="520" height="395.63" rx="20" fill="#5C77F2"/>
    <g filter="url(#filter0_d_1185_36695)">
        <g clip-path="url(#clip0_1185_36695)">
            <rect x="12" y="25" width="520" height="395.634" rx="20" fill="#F8FAFF"/>
            <path d="M263.265 83.4177C263.188 82.6929 262.861 82.1286 262.286 81.7247C261.716 81.3208 260.974 81.1188 260.062 81.1188C259.42 81.1188 258.869 81.2157 258.41 81.4093C257.951 81.603 257.599 81.8658 257.356 82.1978C257.112 82.5297 256.988 82.9087 256.982 83.3348C256.982 83.6889 257.063 83.9959 257.223 84.256C257.389 84.516 257.613 84.7373 257.895 84.9199C258.178 85.097 258.49 85.2464 258.833 85.3681C259.176 85.4898 259.522 85.5922 259.871 85.6752L261.464 86.0735C262.106 86.2229 262.723 86.4249 263.315 86.6794C263.912 86.9339 264.446 87.2548 264.917 87.6421C265.392 88.0294 265.769 88.4969 266.045 89.0447C266.322 89.5924 266.46 90.2342 266.46 90.9701C266.46 91.966 266.206 92.843 265.697 93.601C265.188 94.3534 264.452 94.9427 263.489 95.3687C262.532 95.7892 261.373 95.9995 260.012 95.9995C258.689 95.9995 257.541 95.7947 256.568 95.3853C255.599 94.9759 254.841 94.3783 254.294 93.5927C253.751 92.807 253.458 91.8498 253.414 90.7211H256.443C256.487 91.3131 256.67 91.8056 256.991 92.1984C257.312 92.5912 257.729 92.8845 258.244 93.0781C258.764 93.2718 259.345 93.3686 259.987 93.3686C260.656 93.3686 261.243 93.269 261.746 93.0698C262.255 92.8651 262.654 92.5829 262.941 92.2233C263.229 91.8581 263.376 91.4321 263.381 90.9452C263.376 90.5026 263.246 90.1374 262.991 89.8497C262.737 89.5565 262.38 89.313 261.921 89.1194C261.467 88.9202 260.936 88.7431 260.327 88.5882L258.393 88.0902C256.994 87.7306 255.887 87.1856 255.074 86.4553C254.266 85.7194 253.862 84.7429 253.862 83.5256C253.862 82.5242 254.133 81.6472 254.675 80.8948C255.223 80.1423 255.967 79.5586 256.908 79.1436C257.848 78.7231 258.913 78.5129 260.103 78.5129C261.309 78.5129 262.366 78.7231 263.273 79.1436C264.186 79.5586 264.903 80.1368 265.423 80.8782C265.943 81.614 266.211 82.4606 266.228 83.4177H263.265ZM274.716 95.9912C273.438 95.9912 272.334 95.7256 271.405 95.1944C270.481 94.6577 269.77 93.8997 269.272 92.9204C268.774 91.9356 268.525 90.7764 268.525 89.443C268.525 88.1317 268.774 86.9809 269.272 85.9905C269.775 84.9946 270.478 84.22 271.38 83.6667C272.282 83.1079 273.341 82.8285 274.558 82.8285C275.344 82.8285 276.085 82.9558 276.782 83.2103C277.485 83.4592 278.105 83.8465 278.642 84.3722C279.184 84.8978 279.61 85.5673 279.92 86.3806C280.229 87.1884 280.384 88.1511 280.384 89.2687V90.19H269.936V88.1649H277.505C277.499 87.5895 277.375 87.0777 277.131 86.6296C276.888 86.1759 276.547 85.819 276.11 85.559C275.679 85.2989 275.175 85.1689 274.6 85.1689C273.986 85.1689 273.446 85.3183 272.981 85.6171C272.517 85.9103 272.154 86.2976 271.894 86.779C271.64 87.2548 271.51 87.7776 271.504 88.3475V90.1153C271.504 90.8567 271.64 91.493 271.911 92.0241C272.182 92.5497 272.561 92.9536 273.048 93.2358C273.535 93.5124 274.105 93.6508 274.757 93.6508C275.195 93.6508 275.59 93.5899 275.944 93.4682C276.298 93.3409 276.605 93.1556 276.865 92.9121C277.126 92.6687 277.322 92.3671 277.455 92.0075L280.26 92.3229C280.083 93.0643 279.745 93.7116 279.247 94.2649C278.755 94.8127 278.124 95.2387 277.355 95.543C276.586 95.8418 275.706 95.9912 274.716 95.9912ZM282.926 95.7422V82.9945H285.839V85.1191H285.972C286.204 84.3832 286.603 83.8161 287.167 83.4177C287.737 83.0138 288.387 82.8119 289.117 82.8119C289.283 82.8119 289.469 82.8202 289.673 82.8368C289.884 82.8479 290.058 82.8672 290.196 82.8949V85.6586C290.069 85.6143 289.867 85.5756 289.59 85.5424C289.319 85.5036 289.056 85.4843 288.802 85.4843C288.254 85.4843 287.762 85.6032 287.325 85.8411C286.893 86.0735 286.553 86.3972 286.304 86.8122C286.055 87.2271 285.93 87.7057 285.93 88.2479V95.7422H282.926Z" fill="#131C32"/>
            <g clip-path="url(#clip1_1185_36695)">
                <g filter="url(#filter1_d_1185_36695)">
                    <rect x="98" y="141.855" width="83.7737" height="41.0321" rx="8" fill="white" shape-rendering="crispEdges"/>
                    <path d="M133.029 166.871V157.159H134.148V160.744H134.243C134.325 160.617 134.439 160.456 134.585 160.26C134.733 160.061 134.945 159.884 135.22 159.729C135.498 159.571 135.875 159.492 136.349 159.492C136.962 159.492 137.503 159.645 137.971 159.952C138.439 160.259 138.804 160.693 139.066 161.256C139.329 161.819 139.46 162.483 139.46 163.248C139.46 164.019 139.329 164.688 139.066 165.254C138.804 165.817 138.44 166.253 137.976 166.563C137.511 166.87 136.975 167.023 136.368 167.023C135.9 167.023 135.525 166.945 135.244 166.79C134.962 166.632 134.746 166.454 134.594 166.255C134.442 166.052 134.325 165.885 134.243 165.752H134.11V166.871H133.029ZM134.129 163.229C134.129 163.779 134.21 164.264 134.371 164.685C134.532 165.102 134.768 165.429 135.078 165.667C135.388 165.9 135.767 166.017 136.216 166.017C136.684 166.017 137.074 165.894 137.387 165.648C137.704 165.398 137.941 165.063 138.099 164.642C138.26 164.218 138.341 163.747 138.341 163.229C138.341 162.717 138.262 162.255 138.104 161.844C137.949 161.43 137.713 161.103 137.397 160.862C137.084 160.619 136.69 160.497 136.216 160.497C135.761 160.497 135.378 160.613 135.068 160.843C134.759 161.071 134.525 161.39 134.367 161.801C134.208 162.209 134.129 162.685 134.129 163.229ZM144.226 167.023C143.524 167.023 142.919 166.868 142.41 166.558C141.904 166.245 141.513 165.809 141.238 165.249C140.966 164.686 140.83 164.032 140.83 163.286C140.83 162.54 140.966 161.882 141.238 161.313C141.513 160.741 141.896 160.295 142.386 159.976C142.879 159.653 143.455 159.492 144.112 159.492C144.492 159.492 144.866 159.555 145.236 159.682C145.606 159.808 145.943 160.014 146.246 160.298C146.55 160.579 146.792 160.953 146.972 161.417C147.152 161.882 147.242 162.454 147.242 163.134V163.608H141.627V162.641H146.104C146.104 162.23 146.022 161.863 145.857 161.541C145.696 161.218 145.465 160.964 145.165 160.777C144.868 160.591 144.517 160.497 144.112 160.497C143.666 160.497 143.281 160.608 142.955 160.829C142.633 161.047 142.384 161.332 142.211 161.683C142.037 162.034 141.95 162.41 141.95 162.812V163.457C141.95 164.007 142.045 164.473 142.234 164.856C142.427 165.235 142.694 165.524 143.036 165.723C143.377 165.919 143.774 166.017 144.226 166.017C144.52 166.017 144.786 165.976 145.023 165.894C145.263 165.809 145.47 165.682 145.644 165.515C145.818 165.344 145.952 165.132 146.047 164.879L147.128 165.183C147.015 165.55 146.823 165.872 146.555 166.15C146.286 166.425 145.954 166.64 145.559 166.795C145.163 166.947 144.719 167.023 144.226 167.023Z" fill="#131C32"/>
                    <rect x="98.5" y="142.355" width="82.7737" height="40.0321" rx="7.5" stroke="#359A94" shape-rendering="crispEdges"/>
                </g>
                <path d="M118.637 192.066V200.564H117.608V192.066H118.637ZM121.547 196.73V200.564H120.568V194.191H121.514V195.187H121.597C121.746 194.863 121.973 194.603 122.277 194.406C122.581 194.207 122.974 194.108 123.456 194.108C123.887 194.108 124.265 194.196 124.589 194.373C124.912 194.547 125.164 194.813 125.344 195.17C125.524 195.524 125.614 195.972 125.614 196.514V200.564H124.634V196.581C124.634 196.08 124.504 195.69 124.244 195.411C123.984 195.128 123.627 194.987 123.174 194.987C122.861 194.987 122.581 195.055 122.335 195.191C122.092 195.326 121.9 195.524 121.758 195.784C121.617 196.044 121.547 196.359 121.547 196.73ZM130.241 194.191V195.021H126.805V194.191H130.241ZM127.835 200.564V193.311C127.835 192.946 127.92 192.641 128.092 192.398C128.263 192.155 128.486 191.972 128.76 191.85C129.034 191.728 129.323 191.668 129.627 191.668C129.868 191.668 130.064 191.687 130.216 191.726C130.369 191.764 130.482 191.8 130.557 191.834L130.275 192.68C130.225 192.664 130.156 192.643 130.067 192.618C129.981 192.593 129.868 192.581 129.727 192.581C129.403 192.581 129.169 192.662 129.026 192.825C128.884 192.989 128.814 193.228 128.814 193.543V200.564H127.835ZM131.614 200.564V194.191H132.593V200.564H131.614ZM132.112 193.128C131.921 193.128 131.756 193.063 131.618 192.933C131.482 192.803 131.415 192.647 131.415 192.464C131.415 192.282 131.482 192.125 131.618 191.995C131.756 191.865 131.921 191.8 132.112 191.8C132.303 191.8 132.466 191.865 132.602 191.995C132.74 192.125 132.809 192.282 132.809 192.464C132.809 192.647 132.74 192.803 132.602 192.933C132.466 193.063 132.303 193.128 132.112 193.128ZM135.366 196.73V200.564H134.387V194.191H135.333V195.187H135.416C135.565 194.863 135.792 194.603 136.097 194.406C136.401 194.207 136.794 194.108 137.275 194.108C137.707 194.108 138.084 194.196 138.408 194.373C138.732 194.547 138.983 194.813 139.163 195.17C139.343 195.524 139.433 195.972 139.433 196.514V200.564H138.454V196.581C138.454 196.08 138.324 195.69 138.063 195.411C137.803 195.128 137.447 194.987 136.993 194.987C136.68 194.987 136.401 195.055 136.155 195.191C135.911 195.326 135.719 195.524 135.578 195.784C135.437 196.044 135.366 196.359 135.366 196.73ZM141.222 200.564V194.191H142.202V200.564H141.222ZM141.72 193.128C141.529 193.128 141.365 193.063 141.227 192.933C141.091 192.803 141.023 192.647 141.023 192.464C141.023 192.282 141.091 192.125 141.227 191.995C141.365 191.865 141.529 191.8 141.72 191.8C141.911 191.8 142.074 191.865 142.21 191.995C142.348 192.125 142.417 192.282 142.417 192.464C142.417 192.647 142.348 192.803 142.21 192.933C142.074 193.063 141.911 193.128 141.72 193.128ZM146.767 194.191V195.021H143.464V194.191H146.767ZM144.427 192.664H145.406V198.739C145.406 199.015 145.446 199.223 145.527 199.361C145.61 199.497 145.715 199.588 145.842 199.635C145.972 199.679 146.109 199.701 146.253 199.701C146.361 199.701 146.449 199.696 146.518 199.685C146.588 199.671 146.643 199.66 146.684 199.652L146.884 200.531C146.817 200.556 146.724 200.581 146.606 200.606C146.487 200.634 146.336 200.647 146.153 200.647C145.877 200.647 145.605 200.588 145.34 200.469C145.077 200.35 144.859 200.169 144.684 199.925C144.513 199.682 144.427 199.375 144.427 199.004V192.664ZM148.24 200.564V194.191H149.22V200.564H148.24ZM148.738 193.128C148.548 193.128 148.383 193.063 148.245 192.933C148.109 192.803 148.041 192.647 148.041 192.464C148.041 192.282 148.109 192.125 148.245 191.995C148.383 191.865 148.548 191.8 148.738 191.8C148.929 191.8 149.093 191.865 149.228 191.995C149.366 192.125 149.436 192.282 149.436 192.464C149.436 192.647 149.366 192.803 149.228 192.933C149.093 193.063 148.929 193.128 148.738 193.128ZM156.225 194.191L153.868 200.564H152.873L150.516 194.191H151.578L153.337 199.27H153.404L155.163 194.191H156.225ZM159.962 200.697C159.348 200.697 158.818 200.562 158.373 200.291C157.93 200.017 157.589 199.635 157.348 199.145C157.11 198.653 156.991 198.08 156.991 197.427C156.991 196.774 157.11 196.199 157.348 195.701C157.589 195.2 157.923 194.81 158.352 194.531C158.784 194.249 159.287 194.108 159.863 194.108C160.195 194.108 160.522 194.163 160.846 194.274C161.17 194.384 161.464 194.564 161.73 194.813C161.995 195.059 162.207 195.386 162.365 195.792C162.523 196.199 162.601 196.7 162.601 197.295V197.709H157.688V196.863H161.605C161.605 196.503 161.534 196.182 161.39 195.9C161.249 195.618 161.047 195.395 160.784 195.232C160.524 195.069 160.217 194.987 159.863 194.987C159.473 194.987 159.135 195.084 158.85 195.278C158.568 195.469 158.351 195.718 158.199 196.025C158.046 196.332 157.97 196.661 157.97 197.012V197.577C157.97 198.058 158.053 198.466 158.219 198.801C158.388 199.133 158.622 199.386 158.921 199.56C159.219 199.732 159.567 199.818 159.962 199.818C160.219 199.818 160.452 199.782 160.659 199.71C160.87 199.635 161.051 199.524 161.203 199.378C161.355 199.228 161.473 199.043 161.556 198.822L162.502 199.087C162.402 199.408 162.235 199.69 162 199.934C161.764 200.174 161.474 200.363 161.128 200.498C160.782 200.631 160.394 200.697 159.962 200.697Z" fill="#B6C1E6"/>
            </g>
            <g filter="url(#filter2_d_1185_36695)">
                <rect x="188.451" y="141.855" width="135.774" height="44.0321" rx="8" fill="white" shape-rendering="crispEdges"/>
                <path d="M225.029 168.871L222.532 160.676H223.856L225.627 166.95H225.712L227.462 160.676H228.807L230.535 166.929H230.621L232.392 160.676H233.715L231.218 168.871H229.98L228.188 162.575H228.06L226.267 168.871H225.029ZM237.791 169.063C237.272 169.063 236.801 168.965 236.377 168.77C235.954 168.571 235.618 168.284 235.369 167.911C235.12 167.534 234.996 167.078 234.996 166.545C234.996 166.075 235.088 165.695 235.273 165.403C235.458 165.108 235.705 164.877 236.015 164.71C236.324 164.542 236.665 164.418 237.039 164.336C237.416 164.251 237.795 164.183 238.175 164.133C238.673 164.069 239.077 164.021 239.386 163.989C239.699 163.954 239.927 163.895 240.069 163.813C240.215 163.731 240.288 163.589 240.288 163.386V163.344C240.288 162.817 240.144 162.408 239.856 162.117C239.571 161.825 239.139 161.679 238.559 161.679C237.958 161.679 237.487 161.811 237.146 162.074C236.804 162.337 236.564 162.618 236.425 162.917L235.23 162.49C235.444 161.992 235.728 161.604 236.084 161.327C236.443 161.046 236.834 160.85 237.258 160.74C237.685 160.626 238.104 160.569 238.517 160.569C238.78 160.569 239.082 160.601 239.424 160.665C239.769 160.726 240.101 160.852 240.421 161.044C240.745 161.236 241.014 161.526 241.227 161.914C241.441 162.302 241.547 162.821 241.547 163.472V168.871H240.288V167.761H240.224C240.139 167.939 239.996 168.129 239.797 168.332C239.598 168.535 239.333 168.707 239.002 168.85C238.672 168.992 238.268 169.063 237.791 169.063ZM237.983 167.932C238.481 167.932 238.901 167.834 239.242 167.639C239.587 167.443 239.847 167.19 240.021 166.881C240.199 166.572 240.288 166.246 240.288 165.905V164.752C240.235 164.816 240.117 164.875 239.936 164.928C239.758 164.978 239.552 165.023 239.317 165.062C239.086 165.097 238.86 165.129 238.64 165.158C238.423 165.183 238.246 165.204 238.111 165.222C237.784 165.264 237.478 165.334 237.194 165.43C236.913 165.522 236.685 165.663 236.511 165.851C236.34 166.036 236.255 166.289 236.255 166.609C236.255 167.046 236.416 167.377 236.74 167.601C237.067 167.822 237.482 167.932 237.983 167.932ZM249.65 162.511L248.519 162.832C248.448 162.643 248.343 162.46 248.204 162.282C248.069 162.101 247.884 161.951 247.649 161.834C247.415 161.717 247.114 161.658 246.748 161.658C246.246 161.658 245.828 161.773 245.494 162.005C245.163 162.232 244.998 162.522 244.998 162.874C244.998 163.187 245.112 163.434 245.339 163.616C245.567 163.797 245.923 163.948 246.406 164.069L247.623 164.368C248.355 164.546 248.901 164.818 249.261 165.184C249.62 165.547 249.8 166.015 249.8 166.588C249.8 167.057 249.664 167.477 249.394 167.847C249.127 168.217 248.754 168.508 248.274 168.722C247.793 168.935 247.235 169.042 246.598 169.042C245.763 169.042 245.071 168.86 244.523 168.498C243.975 168.135 243.628 167.605 243.483 166.908L244.678 166.609C244.792 167.05 245.007 167.381 245.323 167.601C245.643 167.822 246.061 167.932 246.577 167.932C247.164 167.932 247.63 167.808 247.975 167.559C248.323 167.306 248.498 167.004 248.498 166.652C248.498 166.367 248.398 166.129 248.199 165.937C248 165.741 247.694 165.595 247.281 165.499L245.915 165.179C245.165 165.001 244.614 164.726 244.262 164.352C243.913 163.975 243.739 163.504 243.739 162.938C243.739 162.476 243.869 162.067 244.128 161.711C244.391 161.355 244.749 161.076 245.201 160.874C245.656 160.671 246.172 160.569 246.748 160.569C247.559 160.569 248.195 160.747 248.658 161.103C249.124 161.459 249.455 161.928 249.65 162.511ZM255.558 157.432L252.036 170.514H250.884L254.405 157.432H255.558ZM258.907 168.871L256.41 160.676H257.733L259.504 166.95H259.59L261.34 160.676H262.684L264.413 166.929H264.498L266.269 160.676H267.593L265.096 168.871H263.858L262.065 162.575H261.937L260.145 168.871H258.907ZM272.414 169.042C271.625 169.042 270.944 168.868 270.371 168.519C269.802 168.167 269.363 167.676 269.053 167.046C268.747 166.413 268.594 165.677 268.594 164.838C268.594 163.998 268.747 163.258 269.053 162.618C269.363 161.974 269.793 161.473 270.344 161.114C270.899 160.751 271.546 160.569 272.286 160.569C272.713 160.569 273.135 160.641 273.551 160.783C273.967 160.925 274.346 161.156 274.687 161.476C275.029 161.793 275.301 162.213 275.503 162.736C275.706 163.258 275.808 163.902 275.808 164.667V165.2H269.491V164.112H274.527C274.527 163.65 274.435 163.237 274.25 162.874C274.068 162.511 273.809 162.225 273.471 162.015C273.136 161.805 272.742 161.701 272.286 161.701C271.785 161.701 271.351 161.825 270.984 162.074C270.622 162.319 270.342 162.64 270.147 163.034C269.951 163.429 269.853 163.852 269.853 164.304V165.03C269.853 165.649 269.96 166.173 270.174 166.604C270.391 167.03 270.691 167.356 271.075 167.58C271.459 167.8 271.906 167.911 272.414 167.911C272.745 167.911 273.044 167.865 273.311 167.772C273.581 167.676 273.814 167.534 274.01 167.345C274.205 167.153 274.356 166.915 274.463 166.63L275.68 166.972C275.551 167.384 275.336 167.747 275.034 168.06C274.732 168.37 274.358 168.611 273.914 168.786C273.469 168.956 272.969 169.042 272.414 169.042ZM277.723 168.871V160.676H278.939V161.914H279.025C279.174 161.508 279.444 161.179 279.836 160.927C280.227 160.674 280.668 160.548 281.159 160.548C281.251 160.548 281.367 160.55 281.506 160.553C281.644 160.557 281.749 160.562 281.82 160.569V161.85C281.778 161.839 281.68 161.823 281.527 161.802C281.378 161.777 281.219 161.765 281.052 161.765C280.654 161.765 280.298 161.848 279.985 162.015C279.676 162.179 279.43 162.407 279.249 162.698C279.071 162.986 278.982 163.315 278.982 163.685V168.871H277.723ZM286.499 169.042C285.71 169.042 285.029 168.868 284.456 168.519C283.887 168.167 283.448 167.676 283.138 167.046C282.832 166.413 282.679 165.677 282.679 164.838C282.679 163.998 282.832 163.258 283.138 162.618C283.448 161.974 283.878 161.473 284.429 161.114C284.984 160.751 285.632 160.569 286.371 160.569C286.798 160.569 287.22 160.641 287.636 160.783C288.052 160.925 288.431 161.156 288.772 161.476C289.114 161.793 289.386 162.213 289.589 162.736C289.791 163.258 289.893 163.902 289.893 164.667V165.2H283.576V164.112H288.612C288.612 163.65 288.52 163.237 288.335 162.874C288.153 162.511 287.894 162.225 287.556 162.015C287.221 161.805 286.827 161.701 286.371 161.701C285.87 161.701 285.436 161.825 285.07 162.074C284.707 162.319 284.428 162.64 284.232 163.034C284.036 163.429 283.938 163.852 283.938 164.304V165.03C283.938 165.649 284.045 166.173 284.259 166.604C284.476 167.03 284.776 167.356 285.16 167.58C285.544 167.8 285.991 167.911 286.499 167.911C286.83 167.911 287.129 167.865 287.396 167.772C287.666 167.676 287.899 167.534 288.095 167.345C288.29 167.153 288.441 166.915 288.548 166.63L289.765 166.972C289.637 167.384 289.421 167.747 289.119 168.06C288.817 168.37 288.443 168.611 287.999 168.786C287.554 168.956 287.054 169.042 286.499 169.042Z" fill="#131C32"/>
                <rect x="188.951" y="142.355" width="134.774" height="43.0321" rx="7.5" stroke="#359A94" shape-rendering="crispEdges"/>
            </g>
            <path d="M225.01 203.564V195.066H227.881C228.548 195.066 229.093 195.186 229.516 195.427C229.942 195.665 230.258 195.987 230.462 196.394C230.667 196.801 230.769 197.254 230.769 197.755C230.769 198.256 230.667 198.711 230.462 199.12C230.26 199.53 229.948 199.856 229.524 200.1C229.101 200.34 228.559 200.461 227.898 200.461H225.84V199.548H227.865C228.321 199.548 228.688 199.469 228.964 199.311C229.241 199.153 229.441 198.94 229.566 198.672C229.693 198.401 229.757 198.095 229.757 197.755C229.757 197.415 229.693 197.11 229.566 196.842C229.441 196.574 229.24 196.363 228.96 196.211C228.681 196.056 228.31 195.979 227.848 195.979H226.039V203.564H225.01ZM234.17 203.714C233.766 203.714 233.4 203.638 233.07 203.486C232.741 203.331 232.48 203.108 232.286 202.818C232.092 202.524 231.996 202.17 231.996 201.755C231.996 201.39 232.067 201.094 232.211 200.867C232.355 200.638 232.547 200.458 232.788 200.328C233.029 200.198 233.294 200.101 233.585 200.037C233.878 199.971 234.173 199.918 234.469 199.88C234.856 199.83 235.17 199.792 235.411 199.768C235.654 199.74 235.831 199.694 235.942 199.631C236.055 199.567 236.112 199.456 236.112 199.299V199.265C236.112 198.856 236 198.538 235.776 198.311C235.555 198.084 235.218 197.971 234.768 197.971C234.3 197.971 233.933 198.073 233.668 198.278C233.402 198.483 233.216 198.701 233.108 198.933L232.178 198.601C232.344 198.214 232.565 197.913 232.842 197.697C233.122 197.478 233.426 197.326 233.755 197.24C234.087 197.152 234.413 197.108 234.734 197.108C234.939 197.108 235.174 197.133 235.44 197.182C235.708 197.229 235.967 197.328 236.216 197.477C236.467 197.626 236.676 197.852 236.842 198.153C237.008 198.455 237.091 198.859 237.091 199.365V203.564H236.112V202.701H236.062C235.996 202.84 235.885 202.988 235.73 203.145C235.575 203.303 235.369 203.437 235.112 203.548C234.855 203.659 234.541 203.714 234.17 203.714ZM234.319 202.834C234.707 202.834 235.033 202.758 235.299 202.606C235.567 202.454 235.769 202.257 235.905 202.017C236.043 201.776 236.112 201.523 236.112 201.257V200.361C236.071 200.411 235.979 200.456 235.838 200.498C235.7 200.537 235.539 200.571 235.357 200.602C235.177 200.629 235.001 200.654 234.83 200.676C234.661 200.696 234.524 200.712 234.419 200.726C234.164 200.759 233.927 200.813 233.705 200.888C233.487 200.96 233.31 201.069 233.174 201.216C233.041 201.36 232.975 201.556 232.975 201.805C232.975 202.145 233.101 202.403 233.352 202.577C233.607 202.748 233.929 202.834 234.319 202.834ZM243.394 198.618L242.514 198.867C242.459 198.72 242.377 198.578 242.269 198.44C242.164 198.299 242.02 198.182 241.837 198.091C241.655 198 241.421 197.954 241.136 197.954C240.746 197.954 240.421 198.044 240.161 198.224C239.904 198.401 239.775 198.626 239.775 198.9C239.775 199.144 239.864 199.336 240.041 199.477C240.218 199.618 240.494 199.736 240.871 199.83L241.817 200.062C242.387 200.2 242.811 200.412 243.091 200.697C243.37 200.979 243.51 201.343 243.51 201.788C243.51 202.154 243.405 202.48 243.194 202.768C242.987 203.055 242.696 203.282 242.323 203.448C241.95 203.614 241.515 203.697 241.02 203.697C240.37 203.697 239.832 203.556 239.406 203.274C238.98 202.992 238.71 202.58 238.597 202.037L239.526 201.805C239.615 202.148 239.782 202.405 240.028 202.577C240.277 202.748 240.602 202.834 241.003 202.834C241.46 202.834 241.822 202.737 242.091 202.544C242.362 202.347 242.497 202.112 242.497 201.838C242.497 201.617 242.42 201.432 242.265 201.282C242.11 201.13 241.872 201.017 241.551 200.942L240.489 200.693C239.905 200.555 239.476 200.34 239.202 200.05C238.931 199.756 238.796 199.39 238.796 198.95C238.796 198.59 238.897 198.272 239.099 197.996C239.303 197.719 239.581 197.502 239.933 197.344C240.287 197.186 240.688 197.108 241.136 197.108C241.767 197.108 242.262 197.246 242.622 197.523C242.984 197.799 243.241 198.164 243.394 198.618ZM247.756 197.191V198.021H244.453V197.191H247.756ZM245.416 195.664H246.395V201.739C246.395 202.015 246.435 202.223 246.515 202.361C246.598 202.497 246.703 202.588 246.831 202.635C246.961 202.679 247.097 202.701 247.241 202.701C247.349 202.701 247.438 202.696 247.507 202.685C247.576 202.671 247.631 202.66 247.673 202.652L247.872 203.531C247.806 203.556 247.713 203.581 247.594 203.606C247.475 203.634 247.324 203.647 247.142 203.647C246.865 203.647 246.594 203.588 246.328 203.469C246.066 203.35 245.847 203.169 245.673 202.925C245.501 202.682 245.416 202.375 245.416 202.004V195.664ZM257.296 197.191C257.246 196.77 257.044 196.444 256.69 196.211C256.336 195.979 255.902 195.863 255.387 195.863C255.011 195.863 254.682 195.924 254.399 196.045C254.12 196.167 253.902 196.334 253.744 196.547C253.589 196.76 253.511 197.002 253.511 197.274C253.511 197.5 253.565 197.695 253.673 197.859C253.784 198.019 253.925 198.153 254.097 198.261C254.268 198.366 254.448 198.453 254.636 198.523C254.824 198.589 254.997 198.643 255.155 198.684L256.018 198.917C256.239 198.975 256.485 199.055 256.756 199.158C257.03 199.26 257.292 199.4 257.541 199.577C257.793 199.751 258 199.975 258.163 200.249C258.326 200.523 258.408 200.859 258.408 201.257C258.408 201.716 258.288 202.131 258.047 202.502C257.809 202.873 257.461 203.167 257.001 203.386C256.545 203.605 255.99 203.714 255.337 203.714C254.729 203.714 254.202 203.616 253.756 203.419C253.314 203.223 252.965 202.949 252.711 202.598C252.459 202.246 252.316 201.838 252.283 201.373H253.345C253.373 201.694 253.481 201.96 253.669 202.17C253.86 202.378 254.101 202.533 254.391 202.635C254.684 202.735 255 202.784 255.337 202.784C255.73 202.784 256.083 202.721 256.395 202.593C256.708 202.463 256.956 202.284 257.138 202.054C257.321 201.822 257.412 201.55 257.412 201.241C257.412 200.958 257.333 200.729 257.176 200.552C257.018 200.375 256.81 200.231 256.553 200.12C256.296 200.01 256.018 199.913 255.719 199.83L254.673 199.531C254.009 199.34 253.484 199.068 253.096 198.714C252.709 198.359 252.516 197.896 252.516 197.323C252.516 196.848 252.644 196.433 252.901 196.078C253.162 195.722 253.51 195.445 253.947 195.249C254.387 195.049 254.878 194.95 255.42 194.95C255.968 194.95 256.455 195.048 256.881 195.244C257.307 195.438 257.645 195.704 257.893 196.041C258.145 196.379 258.278 196.762 258.292 197.191H257.296ZM259.967 203.564V197.191H260.947V203.564H259.967ZM260.465 196.128C260.274 196.128 260.11 196.063 259.971 195.933C259.836 195.803 259.768 195.647 259.768 195.464C259.768 195.282 259.836 195.125 259.971 194.995C260.11 194.865 260.274 194.8 260.465 194.8C260.656 194.8 260.819 194.865 260.955 194.995C261.093 195.125 261.162 195.282 261.162 195.464C261.162 195.647 261.093 195.803 260.955 195.933C260.819 196.063 260.656 196.128 260.465 196.128ZM262.74 203.564V197.191H263.686V198.187H263.769C263.902 197.846 264.117 197.582 264.413 197.394C264.709 197.203 265.064 197.108 265.479 197.108C265.9 197.108 266.249 197.203 266.529 197.394C266.811 197.582 267.031 197.846 267.189 198.187H267.255C267.418 197.857 267.663 197.596 267.99 197.402C268.316 197.206 268.707 197.108 269.164 197.108C269.734 197.108 270.2 197.286 270.562 197.643C270.925 197.997 271.106 198.549 271.106 199.299V203.564H270.127V199.299C270.127 198.828 269.998 198.492 269.741 198.29C269.483 198.088 269.181 197.987 268.832 197.987C268.384 197.987 268.037 198.123 267.79 198.394C267.544 198.662 267.421 199.003 267.421 199.415V203.564H266.425V199.199C266.425 198.837 266.308 198.545 266.072 198.323C265.837 198.099 265.534 197.987 265.164 197.987C264.909 197.987 264.671 198.055 264.45 198.191C264.231 198.326 264.054 198.514 263.919 198.755C263.786 198.993 263.72 199.268 263.72 199.581V203.564H262.74ZM272.897 205.955V197.191H273.843V198.203H273.959C274.031 198.092 274.13 197.951 274.258 197.78C274.388 197.606 274.573 197.451 274.814 197.315C275.057 197.177 275.386 197.108 275.801 197.108C276.338 197.108 276.811 197.242 277.22 197.51C277.63 197.778 277.949 198.159 278.179 198.651C278.409 199.144 278.523 199.725 278.523 200.394C278.523 201.069 278.409 201.654 278.179 202.149C277.949 202.642 277.631 203.024 277.225 203.295C276.818 203.563 276.349 203.697 275.818 203.697C275.408 203.697 275.081 203.629 274.834 203.494C274.588 203.356 274.399 203.199 274.266 203.025C274.133 202.848 274.031 202.701 273.959 202.585H273.876V205.955H272.897ZM273.859 200.378C273.859 200.859 273.93 201.284 274.071 201.651C274.212 202.017 274.418 202.303 274.689 202.51C274.96 202.715 275.292 202.818 275.685 202.818C276.095 202.818 276.436 202.71 276.71 202.494C276.987 202.275 277.194 201.982 277.332 201.614C277.474 201.243 277.544 200.831 277.544 200.378C277.544 199.929 277.475 199.525 277.337 199.166C277.201 198.803 276.995 198.517 276.718 198.307C276.444 198.094 276.1 197.987 275.685 197.987C275.287 197.987 274.952 198.088 274.681 198.29C274.41 198.489 274.205 198.769 274.067 199.128C273.928 199.485 273.859 199.902 273.859 200.378ZM280.997 195.066V203.564H280.017V195.066H280.997ZM285.463 203.697C284.849 203.697 284.319 203.562 283.873 203.291C283.431 203.017 283.089 202.635 282.848 202.145C282.61 201.653 282.492 201.08 282.492 200.427C282.492 199.774 282.61 199.199 282.848 198.701C283.089 198.2 283.424 197.81 283.853 197.531C284.284 197.249 284.788 197.108 285.363 197.108C285.695 197.108 286.023 197.163 286.347 197.274C286.67 197.384 286.965 197.564 287.23 197.813C287.496 198.059 287.708 198.386 287.865 198.792C288.023 199.199 288.102 199.7 288.102 200.295V200.709H283.189V199.863H287.106C287.106 199.503 287.034 199.182 286.89 198.9C286.749 198.618 286.547 198.395 286.284 198.232C286.024 198.069 285.717 197.987 285.363 197.987C284.973 197.987 284.636 198.084 284.351 198.278C284.068 198.469 283.851 198.718 283.699 199.025C283.547 199.332 283.471 199.661 283.471 200.012V200.577C283.471 201.058 283.554 201.466 283.72 201.801C283.889 202.133 284.122 202.386 284.421 202.56C284.72 202.732 285.067 202.818 285.463 202.818C285.72 202.818 285.952 202.782 286.16 202.71C286.37 202.635 286.551 202.524 286.703 202.378C286.856 202.228 286.973 202.043 287.056 201.822L288.002 202.087C287.903 202.408 287.735 202.69 287.5 202.934C287.265 203.174 286.975 203.363 286.629 203.498C286.283 203.631 285.894 203.697 285.463 203.697Z" fill="#B6C1E6"/>
            <g filter="url(#filter3_d_1185_36695)">
                <rect x="330.902" y="141.855" width="114.774" height="41.0321" rx="8" fill="white" shape-rendering="crispEdges"/>
                <path d="M365.605 166.871V157.159H366.725V160.744H366.819C366.902 160.617 367.015 160.456 367.161 160.26C367.309 160.061 367.521 159.884 367.796 159.729C368.075 159.571 368.451 159.492 368.925 159.492C369.538 159.492 370.079 159.645 370.547 159.952C371.015 160.259 371.38 160.693 371.642 161.256C371.905 161.819 372.036 162.483 372.036 163.248C372.036 164.019 371.905 164.688 371.642 165.254C371.38 165.817 371.016 166.253 370.552 166.563C370.087 166.87 369.551 167.023 368.944 167.023C368.476 167.023 368.101 166.945 367.82 166.79C367.539 166.632 367.322 166.454 367.17 166.255C367.019 166.052 366.902 165.885 366.819 165.752H366.687V166.871H365.605ZM366.706 163.229C366.706 163.779 366.786 164.264 366.947 164.685C367.109 165.102 367.344 165.429 367.654 165.667C367.964 165.9 368.343 166.017 368.792 166.017C369.26 166.017 369.651 165.894 369.964 165.648C370.28 165.398 370.517 165.063 370.675 164.642C370.836 164.218 370.917 163.747 370.917 163.229C370.917 162.717 370.838 162.255 370.68 161.844C370.525 161.43 370.289 161.103 369.973 160.862C369.66 160.619 369.267 160.497 368.792 160.497C368.337 160.497 367.954 160.613 367.645 160.843C367.335 161.071 367.101 161.39 366.943 161.801C366.785 162.209 366.706 162.685 366.706 163.229ZM376.802 167.023C376.1 167.023 375.495 166.868 374.986 166.558C374.48 166.245 374.09 165.809 373.815 165.249C373.543 164.686 373.407 164.032 373.407 163.286C373.407 162.54 373.543 161.882 373.815 161.313C374.09 160.741 374.472 160.295 374.962 159.976C375.455 159.653 376.031 159.492 376.688 159.492C377.068 159.492 377.442 159.555 377.812 159.682C378.182 159.808 378.519 160.014 378.823 160.298C379.126 160.579 379.368 160.953 379.548 161.417C379.728 161.882 379.818 162.454 379.818 163.134V163.608H374.203V162.641H378.68C378.68 162.23 378.598 161.863 378.434 161.541C378.272 161.218 378.042 160.964 377.741 160.777C377.444 160.591 377.093 160.497 376.688 160.497C376.243 160.497 375.857 160.608 375.531 160.829C375.209 161.047 374.961 161.332 374.787 161.683C374.613 162.034 374.526 162.41 374.526 162.812V163.457C374.526 164.007 374.621 164.473 374.81 164.856C375.003 165.235 375.27 165.524 375.612 165.723C375.953 165.919 376.35 166.017 376.802 166.017C377.096 166.017 377.362 165.976 377.599 165.894C377.839 165.809 378.046 165.682 378.22 165.515C378.394 165.344 378.529 165.132 378.623 164.879L379.705 165.183C379.591 165.55 379.4 165.872 379.131 166.15C378.862 166.425 378.53 166.64 378.135 166.795C377.74 166.947 377.295 167.023 376.802 167.023ZM384.575 167.023C383.873 167.023 383.268 166.868 382.759 166.558C382.253 166.245 381.862 165.809 381.587 165.249C381.315 164.686 381.18 164.032 381.18 163.286C381.18 162.54 381.315 161.882 381.587 161.313C381.862 160.741 382.245 160.295 382.735 159.976C383.228 159.653 383.804 159.492 384.461 159.492C384.841 159.492 385.215 159.555 385.585 159.682C385.955 159.808 386.292 160.014 386.595 160.298C386.899 160.579 387.141 160.953 387.321 161.417C387.501 161.882 387.591 162.454 387.591 163.134V163.608H381.976V162.641H386.453C386.453 162.23 386.371 161.863 386.207 161.541C386.045 161.218 385.814 160.964 385.514 160.777C385.217 160.591 384.866 160.497 384.461 160.497C384.016 160.497 383.63 160.608 383.304 160.829C382.982 161.047 382.733 161.332 382.56 161.683C382.386 162.034 382.299 162.41 382.299 162.812V163.457C382.299 164.007 382.394 164.473 382.583 164.856C382.776 165.235 383.043 165.524 383.385 165.723C383.726 165.919 384.123 166.017 384.575 166.017C384.869 166.017 385.135 165.976 385.372 165.894C385.612 165.809 385.819 165.682 385.993 165.515C386.167 165.344 386.301 165.132 386.396 164.879L387.478 165.183C387.364 165.55 387.172 165.872 386.904 166.15C386.635 166.425 386.303 166.64 385.908 166.795C385.513 166.947 385.068 167.023 384.575 167.023ZM390.413 162.489V166.871H389.294V159.587H390.375V160.725H390.47C390.641 160.355 390.9 160.058 391.248 159.833C391.596 159.606 392.044 159.492 392.595 159.492C393.088 159.492 393.519 159.593 393.889 159.795C394.259 159.995 394.547 160.298 394.752 160.706C394.958 161.111 395.061 161.623 395.061 162.242V166.871H393.941V162.318C393.941 161.746 393.793 161.3 393.496 160.981C393.198 160.658 392.791 160.497 392.272 160.497C391.915 160.497 391.596 160.575 391.314 160.73C391.036 160.885 390.816 161.111 390.655 161.408C390.494 161.705 390.413 162.065 390.413 162.489ZM400.16 167.023C399.458 167.023 398.853 166.868 398.344 166.558C397.838 166.245 397.447 165.809 397.172 165.249C396.9 164.686 396.764 164.032 396.764 163.286C396.764 162.54 396.9 161.882 397.172 161.313C397.447 160.741 397.83 160.295 398.32 159.976C398.813 159.653 399.389 159.492 400.046 159.492C400.426 159.492 400.8 159.555 401.17 159.682C401.54 159.808 401.877 160.014 402.18 160.298C402.484 160.579 402.726 160.953 402.906 161.417C403.086 161.882 403.176 162.454 403.176 163.134V163.608H397.561V162.641H402.038C402.038 162.23 401.956 161.863 401.791 161.541C401.63 161.218 401.399 160.964 401.099 160.777C400.802 160.591 400.451 160.497 400.046 160.497C399.6 160.497 399.215 160.608 398.889 160.829C398.567 161.047 398.318 161.332 398.144 161.683C397.971 162.034 397.884 162.41 397.884 162.812V163.457C397.884 164.007 397.978 164.473 398.168 164.856C398.361 165.235 398.628 165.524 398.97 165.723C399.311 165.919 399.708 166.017 400.16 166.017C400.454 166.017 400.72 165.976 400.957 165.894C401.197 165.809 401.404 165.682 401.578 165.515C401.752 165.344 401.886 165.132 401.981 164.879L403.062 165.183C402.949 165.55 402.757 165.872 402.489 166.15C402.22 166.425 401.888 166.64 401.493 166.795C401.097 166.947 400.653 167.023 400.16 167.023ZM407.629 167.023C407.022 167.023 406.486 166.87 406.022 166.563C405.557 166.253 405.193 165.817 404.931 165.254C404.668 164.688 404.537 164.019 404.537 163.248C404.537 162.483 404.668 161.819 404.931 161.256C405.193 160.693 405.558 160.259 406.026 159.952C406.494 159.645 407.035 159.492 407.648 159.492C408.123 159.492 408.497 159.571 408.772 159.729C409.051 159.884 409.262 160.061 409.408 160.26C409.556 160.456 409.672 160.617 409.754 160.744H409.849V157.159H410.968V166.871H409.887V165.752H409.754C409.672 165.885 409.555 166.052 409.403 166.255C409.251 166.454 409.035 166.632 408.753 166.79C408.472 166.945 408.097 167.023 407.629 167.023ZM407.781 166.017C408.23 166.017 408.609 165.9 408.919 165.667C409.229 165.429 409.465 165.102 409.626 164.685C409.787 164.264 409.868 163.779 409.868 163.229C409.868 162.685 409.789 162.209 409.631 161.801C409.473 161.39 409.239 161.071 408.929 160.843C408.619 160.613 408.236 160.497 407.781 160.497C407.307 160.497 406.912 160.619 406.596 160.862C406.283 161.103 406.047 161.43 405.889 161.844C405.734 162.255 405.657 162.717 405.657 163.229C405.657 163.747 405.736 164.218 405.894 164.642C406.055 165.063 406.292 165.398 406.605 165.648C406.921 165.894 407.313 166.017 407.781 166.017Z" fill="#131C32"/>
                <rect x="331.402" y="142.355" width="113.774" height="40.0321" rx="7.5" stroke="#E0076F" shape-rendering="crispEdges"/>
            </g>
            <path d="M349.618 200.564V192.066H352.489C353.156 192.066 353.701 192.186 354.124 192.427C354.55 192.665 354.865 192.987 355.07 193.394C355.275 193.801 355.377 194.254 355.377 194.755C355.377 195.256 355.275 195.711 355.07 196.12C354.868 196.53 354.556 196.856 354.132 197.1C353.709 197.34 353.167 197.461 352.506 197.461H350.447V196.548H352.472C352.929 196.548 353.295 196.469 353.572 196.311C353.849 196.153 354.049 195.94 354.174 195.672C354.301 195.401 354.365 195.095 354.365 194.755C354.365 194.415 354.301 194.11 354.174 193.842C354.049 193.574 353.847 193.363 353.568 193.211C353.289 193.056 352.918 192.979 352.456 192.979H350.647V200.564H349.618ZM358.778 200.714C358.374 200.714 358.007 200.638 357.678 200.486C357.349 200.331 357.088 200.108 356.894 199.818C356.7 199.524 356.603 199.17 356.603 198.755C356.603 198.39 356.675 198.094 356.819 197.867C356.963 197.638 357.155 197.458 357.396 197.328C357.637 197.198 357.902 197.101 358.193 197.037C358.486 196.971 358.781 196.918 359.077 196.88C359.464 196.83 359.778 196.792 360.019 196.768C360.262 196.74 360.439 196.694 360.55 196.631C360.663 196.567 360.72 196.456 360.72 196.299V196.265C360.72 195.856 360.608 195.538 360.384 195.311C360.162 195.084 359.826 194.971 359.375 194.971C358.908 194.971 358.541 195.073 358.276 195.278C358.01 195.483 357.823 195.701 357.716 195.933L356.786 195.601C356.952 195.214 357.173 194.913 357.45 194.697C357.729 194.478 358.034 194.326 358.363 194.24C358.695 194.152 359.021 194.108 359.342 194.108C359.547 194.108 359.782 194.133 360.048 194.182C360.316 194.229 360.575 194.328 360.824 194.477C361.075 194.626 361.284 194.852 361.45 195.153C361.616 195.455 361.699 195.859 361.699 196.365V200.564H360.72V199.701H360.67C360.604 199.84 360.493 199.988 360.338 200.145C360.183 200.303 359.977 200.437 359.72 200.548C359.463 200.659 359.149 200.714 358.778 200.714ZM358.927 199.834C359.315 199.834 359.641 199.758 359.907 199.606C360.175 199.454 360.377 199.257 360.512 199.017C360.651 198.776 360.72 198.523 360.72 198.257V197.361C360.678 197.411 360.587 197.456 360.446 197.498C360.308 197.537 360.147 197.571 359.965 197.602C359.785 197.629 359.609 197.654 359.438 197.676C359.269 197.696 359.132 197.712 359.027 197.726C358.772 197.759 358.534 197.813 358.313 197.888C358.095 197.96 357.917 198.069 357.782 198.216C357.649 198.36 357.583 198.556 357.583 198.805C357.583 199.145 357.709 199.403 357.96 199.577C358.215 199.748 358.537 199.834 358.927 199.834ZM368.001 195.618L367.122 195.867C367.066 195.72 366.985 195.578 366.877 195.44C366.772 195.299 366.628 195.182 366.445 195.091C366.263 195 366.029 194.954 365.744 194.954C365.354 194.954 365.029 195.044 364.769 195.224C364.512 195.401 364.383 195.626 364.383 195.9C364.383 196.144 364.471 196.336 364.649 196.477C364.826 196.618 365.102 196.736 365.478 196.83L366.425 197.062C366.994 197.2 367.419 197.412 367.699 197.697C367.978 197.979 368.118 198.343 368.118 198.788C368.118 199.154 368.013 199.48 367.802 199.768C367.595 200.055 367.304 200.282 366.931 200.448C366.557 200.614 366.123 200.697 365.628 200.697C364.978 200.697 364.44 200.556 364.014 200.274C363.588 199.992 363.318 199.58 363.204 199.037L364.134 198.805C364.223 199.148 364.39 199.405 364.636 199.577C364.885 199.748 365.21 199.834 365.611 199.834C366.068 199.834 366.43 199.737 366.698 199.544C366.97 199.347 367.105 199.112 367.105 198.838C367.105 198.617 367.028 198.432 366.873 198.282C366.718 198.13 366.48 198.017 366.159 197.942L365.097 197.693C364.513 197.555 364.084 197.34 363.81 197.05C363.539 196.756 363.404 196.39 363.404 195.95C363.404 195.59 363.505 195.272 363.707 194.996C363.911 194.719 364.189 194.502 364.541 194.344C364.895 194.186 365.296 194.108 365.744 194.108C366.375 194.108 366.87 194.246 367.23 194.523C367.592 194.799 367.849 195.164 368.001 195.618ZM372.364 194.191V195.021H369.061V194.191H372.364ZM370.023 192.664H371.003V198.739C371.003 199.015 371.043 199.223 371.123 199.361C371.206 199.497 371.311 199.588 371.438 199.635C371.568 199.679 371.705 199.701 371.849 199.701C371.957 199.701 372.046 199.696 372.115 199.685C372.184 199.671 372.239 199.66 372.281 199.652L372.48 200.531C372.414 200.556 372.321 200.581 372.202 200.606C372.083 200.634 371.932 200.647 371.75 200.647C371.473 200.647 371.202 200.588 370.936 200.469C370.673 200.35 370.455 200.169 370.281 199.925C370.109 199.682 370.023 199.375 370.023 199.004V192.664ZM377.256 200.564V192.066H380.128C380.794 192.066 381.339 192.186 381.763 192.427C382.189 192.665 382.504 192.987 382.709 193.394C382.914 193.801 383.016 194.254 383.016 194.755C383.016 195.256 382.914 195.711 382.709 196.12C382.507 196.53 382.194 196.856 381.771 197.1C381.348 197.34 380.806 197.461 380.144 197.461H378.086V196.548H380.111C380.568 196.548 380.934 196.469 381.211 196.311C381.487 196.153 381.688 195.94 381.813 195.672C381.94 195.401 382.003 195.095 382.003 194.755C382.003 194.415 381.94 194.11 381.813 193.842C381.688 193.574 381.486 193.363 381.207 193.211C380.927 193.056 380.557 192.979 380.095 192.979H378.285V200.564H377.256ZM386.417 200.714C386.013 200.714 385.646 200.638 385.317 200.486C384.988 200.331 384.726 200.108 384.533 199.818C384.339 199.524 384.242 199.17 384.242 198.755C384.242 198.39 384.314 198.094 384.458 197.867C384.602 197.638 384.794 197.458 385.035 197.328C385.275 197.198 385.541 197.101 385.831 197.037C386.125 196.971 386.419 196.918 386.715 196.88C387.103 196.83 387.417 196.792 387.657 196.768C387.901 196.74 388.078 196.694 388.188 196.631C388.302 196.567 388.359 196.456 388.359 196.299V196.265C388.359 195.856 388.247 195.538 388.022 195.311C387.801 195.084 387.465 194.971 387.014 194.971C386.547 194.971 386.18 195.073 385.914 195.278C385.649 195.483 385.462 195.701 385.354 195.933L384.425 195.601C384.591 195.214 384.812 194.913 385.089 194.697C385.368 194.478 385.672 194.326 386.002 194.24C386.334 194.152 386.66 194.108 386.981 194.108C387.186 194.108 387.421 194.133 387.686 194.182C387.955 194.229 388.213 194.328 388.462 194.477C388.714 194.626 388.923 194.852 389.089 195.153C389.255 195.455 389.338 195.859 389.338 196.365V200.564H388.359V199.701H388.309C388.242 199.84 388.132 199.988 387.977 200.145C387.822 200.303 387.616 200.437 387.359 200.548C387.101 200.659 386.787 200.714 386.417 200.714ZM386.566 199.834C386.953 199.834 387.28 199.758 387.545 199.606C387.814 199.454 388.016 199.257 388.151 199.017C388.289 198.776 388.359 198.523 388.359 198.257V197.361C388.317 197.411 388.226 197.456 388.085 197.498C387.946 197.537 387.786 197.571 387.603 197.602C387.424 197.629 387.248 197.654 387.076 197.676C386.908 197.696 386.771 197.712 386.666 197.726C386.411 197.759 386.173 197.813 385.952 197.888C385.733 197.96 385.556 198.069 385.421 198.216C385.288 198.36 385.221 198.556 385.221 198.805C385.221 199.145 385.347 199.403 385.599 199.577C385.854 199.748 386.176 199.834 386.566 199.834ZM391.125 200.564V194.191H392.071V195.153H392.138C392.254 194.838 392.464 194.582 392.769 194.386C393.073 194.189 393.416 194.091 393.798 194.091C393.87 194.091 393.96 194.092 394.067 194.095C394.175 194.098 394.257 194.102 394.312 194.108V195.104C394.279 195.095 394.203 195.083 394.084 195.066C393.968 195.047 393.845 195.037 393.715 195.037C393.405 195.037 393.128 195.102 392.885 195.232C392.644 195.359 392.453 195.536 392.312 195.763C392.174 195.987 392.105 196.243 392.105 196.531V200.564H391.125ZM398.644 194.191V195.021H395.341V194.191H398.644ZM396.304 192.664H397.283V198.739C397.283 199.015 397.324 199.223 397.404 199.361C397.487 199.497 397.592 199.588 397.719 199.635C397.849 199.679 397.986 199.701 398.13 199.701C398.238 199.701 398.326 199.696 398.396 199.685C398.465 199.671 398.52 199.66 398.562 199.652L398.761 200.531C398.694 200.556 398.602 200.581 398.483 200.606C398.364 200.634 398.213 200.647 398.03 200.647C397.754 200.647 397.483 200.588 397.217 200.469C396.954 200.35 396.736 200.169 396.561 199.925C396.39 199.682 396.304 199.375 396.304 199.004V192.664ZM400.118 200.564V194.191H401.097V200.564H400.118ZM400.616 193.128C400.425 193.128 400.26 193.063 400.122 192.933C399.986 192.803 399.918 192.647 399.918 192.464C399.918 192.282 399.986 192.125 400.122 191.995C400.26 191.865 400.425 191.8 400.616 191.8C400.806 191.8 400.97 191.865 401.105 191.995C401.244 192.125 401.313 192.282 401.313 192.464C401.313 192.647 401.244 192.803 401.105 192.933C400.97 193.063 400.806 193.128 400.616 193.128ZM405.48 200.697C404.882 200.697 404.368 200.556 403.936 200.274C403.505 199.992 403.173 199.603 402.94 199.108C402.708 198.613 402.592 198.047 402.592 197.411C402.592 196.763 402.711 196.192 402.949 195.697C403.189 195.199 403.524 194.81 403.953 194.531C404.384 194.249 404.888 194.108 405.463 194.108C405.912 194.108 406.315 194.191 406.675 194.357C407.035 194.523 407.329 194.755 407.559 195.054C407.789 195.353 407.931 195.701 407.986 196.099H407.007C406.932 195.809 406.766 195.552 406.509 195.328C406.255 195.101 405.912 194.987 405.48 194.987C405.098 194.987 404.763 195.087 404.476 195.286C404.191 195.483 403.968 195.761 403.808 196.12C403.65 196.477 403.571 196.896 403.571 197.378C403.571 197.87 403.649 198.299 403.804 198.664C403.961 199.029 404.183 199.313 404.467 199.515C404.755 199.717 405.093 199.818 405.48 199.818C405.735 199.818 405.966 199.773 406.173 199.685C406.38 199.596 406.556 199.469 406.7 199.303C406.844 199.137 406.946 198.938 407.007 198.705H407.986C407.931 199.082 407.794 199.421 407.576 199.722C407.36 200.021 407.073 200.259 406.717 200.436C406.362 200.61 405.95 200.697 405.48 200.697ZM409.418 200.564V194.191H410.397V200.564H409.418ZM409.916 193.128C409.725 193.128 409.56 193.063 409.422 192.933C409.287 192.803 409.219 192.647 409.219 192.464C409.219 192.282 409.287 192.125 409.422 191.995C409.56 191.865 409.725 191.8 409.916 191.8C410.107 191.8 410.27 191.865 410.406 191.995C410.544 192.125 410.613 192.282 410.613 192.464C410.613 192.647 410.544 192.803 410.406 192.933C410.27 193.063 410.107 193.128 409.916 193.128ZM412.191 202.955V194.191H413.137V195.203H413.253C413.325 195.092 413.425 194.951 413.552 194.78C413.682 194.606 413.867 194.451 414.108 194.315C414.352 194.177 414.681 194.108 415.096 194.108C415.632 194.108 416.106 194.242 416.515 194.51C416.924 194.778 417.244 195.159 417.474 195.651C417.703 196.144 417.818 196.725 417.818 197.394C417.818 198.069 417.703 198.654 417.474 199.149C417.244 199.642 416.926 200.024 416.519 200.295C416.112 200.563 415.644 200.697 415.112 200.697C414.703 200.697 414.375 200.629 414.129 200.494C413.883 200.356 413.693 200.199 413.56 200.025C413.428 199.848 413.325 199.701 413.253 199.585H413.17V202.955H412.191ZM413.154 197.378C413.154 197.859 413.224 198.284 413.365 198.651C413.506 199.017 413.713 199.303 413.984 199.51C414.255 199.715 414.587 199.818 414.98 199.818C415.389 199.818 415.731 199.71 416.005 199.494C416.281 199.275 416.489 198.982 416.627 198.614C416.768 198.243 416.839 197.831 416.839 197.378C416.839 196.929 416.769 196.525 416.631 196.166C416.496 195.803 416.289 195.517 416.013 195.307C415.739 195.094 415.395 194.987 414.98 194.987C414.581 194.987 414.246 195.088 413.975 195.29C413.704 195.489 413.5 195.769 413.361 196.128C413.223 196.485 413.154 196.902 413.154 197.378ZM420.291 192.066V200.564H419.312V192.066H420.291ZM424.757 200.697C424.143 200.697 423.613 200.562 423.168 200.291C422.725 200.017 422.384 199.635 422.143 199.145C421.905 198.653 421.786 198.08 421.786 197.427C421.786 196.774 421.905 196.199 422.143 195.701C422.384 195.2 422.718 194.81 423.147 194.531C423.579 194.249 424.082 194.108 424.658 194.108C424.99 194.108 425.317 194.163 425.641 194.274C425.965 194.384 426.259 194.564 426.525 194.813C426.79 195.059 427.002 195.386 427.16 195.792C427.317 196.199 427.396 196.7 427.396 197.295V197.709H422.483V196.863H426.4C426.4 196.503 426.328 196.182 426.185 195.9C426.044 195.618 425.842 195.395 425.579 195.232C425.319 195.069 425.012 194.987 424.658 194.987C424.267 194.987 423.93 195.084 423.645 195.278C423.363 195.469 423.146 195.718 422.994 196.025C422.841 196.332 422.765 196.661 422.765 197.012V197.577C422.765 198.058 422.848 198.466 423.014 198.801C423.183 199.133 423.417 199.386 423.716 199.56C424.014 199.732 424.362 199.818 424.757 199.818C425.014 199.818 425.247 199.782 425.454 199.71C425.665 199.635 425.846 199.524 425.998 199.378C426.15 199.228 426.268 199.043 426.351 198.822L427.297 199.087C427.197 199.408 427.03 199.69 426.795 199.934C426.559 200.174 426.269 200.363 425.923 200.498C425.577 200.631 425.189 200.697 424.757 200.697Z" fill="#B6C1E6"/>
            <g filter="url(#filter4_d_1185_36695)">
                <rect x="276.869" y="270.393" width="116.854" height="40.0642" rx="8" fill="white" shape-rendering="crispEdges"/>
                <path d="M314.377 295.424V284.497H315.636V288.531H315.743C315.836 288.388 315.964 288.207 316.127 287.986C316.294 287.762 316.533 287.563 316.842 287.389C317.155 287.211 317.578 287.122 318.112 287.122C318.802 287.122 319.41 287.295 319.937 287.64C320.463 287.985 320.874 288.474 321.169 289.107C321.464 289.74 321.612 290.487 321.612 291.348C321.612 292.216 321.464 292.968 321.169 293.605C320.874 294.238 320.465 294.728 319.942 295.077C319.419 295.422 318.816 295.595 318.133 295.595C317.607 295.595 317.185 295.507 316.869 295.333C316.552 295.155 316.309 294.954 316.138 294.73C315.967 294.503 315.836 294.314 315.743 294.165H315.594V295.424H314.377ZM315.615 291.326C315.615 291.945 315.706 292.491 315.887 292.964C316.069 293.434 316.334 293.802 316.682 294.069C317.031 294.332 317.458 294.463 317.963 294.463C318.489 294.463 318.928 294.325 319.28 294.047C319.636 293.766 319.903 293.389 320.081 292.916C320.262 292.44 320.353 291.91 320.353 291.326C320.353 290.75 320.264 290.231 320.086 289.768C319.912 289.303 319.647 288.934 319.291 288.664C318.939 288.39 318.496 288.253 317.963 288.253C317.45 288.253 317.02 288.383 316.671 288.643C316.323 288.899 316.06 289.258 315.882 289.72C315.704 290.179 315.615 290.715 315.615 291.326ZM326.974 295.595C326.184 295.595 325.503 295.42 324.93 295.072C324.361 294.72 323.922 294.229 323.613 293.599C323.307 292.966 323.154 292.23 323.154 291.39C323.154 290.551 323.307 289.811 323.613 289.171C323.922 288.527 324.352 288.026 324.904 287.666C325.459 287.304 326.106 287.122 326.846 287.122C327.273 287.122 327.694 287.193 328.11 287.336C328.526 287.478 328.905 287.709 329.247 288.029C329.588 288.346 329.86 288.765 330.063 289.288C330.266 289.811 330.367 290.455 330.367 291.22V291.753H324.05V290.665H329.087C329.087 290.202 328.994 289.79 328.809 289.427C328.628 289.064 328.368 288.778 328.03 288.568C327.696 288.358 327.301 288.253 326.846 288.253C326.344 288.253 325.91 288.378 325.544 288.627C325.181 288.872 324.902 289.192 324.706 289.587C324.511 289.982 324.413 290.405 324.413 290.857V291.582C324.413 292.201 324.52 292.726 324.733 293.156C324.95 293.583 325.251 293.909 325.635 294.133C326.019 294.353 326.465 294.463 326.974 294.463C327.305 294.463 327.603 294.417 327.87 294.325C328.141 294.229 328.373 294.086 328.569 293.898C328.765 293.706 328.916 293.468 329.023 293.183L330.239 293.524C330.111 293.937 329.896 294.3 329.593 294.613C329.291 294.922 328.918 295.164 328.473 295.338C328.028 295.509 327.529 295.595 326.974 295.595ZM335.59 298.668C334.982 298.668 334.459 298.589 334.022 298.433C333.584 298.28 333.22 298.077 332.928 297.825C332.64 297.576 332.411 297.309 332.24 297.024L333.243 296.32C333.357 296.47 333.501 296.64 333.675 296.832C333.849 297.028 334.088 297.197 334.39 297.339C334.696 297.485 335.096 297.558 335.59 297.558C336.252 297.558 336.798 297.398 337.228 297.078C337.659 296.758 337.874 296.256 337.874 295.573V293.909H337.767C337.675 294.058 337.543 294.243 337.372 294.463C337.205 294.68 336.963 294.874 336.647 295.045C336.334 295.212 335.91 295.296 335.377 295.296C334.715 295.296 334.121 295.139 333.595 294.826C333.072 294.513 332.658 294.058 332.352 293.46C332.049 292.863 331.898 292.137 331.898 291.284C331.898 290.444 332.046 289.713 332.341 289.091C332.636 288.465 333.047 287.981 333.574 287.64C334.1 287.295 334.708 287.122 335.398 287.122C335.932 287.122 336.355 287.211 336.668 287.389C336.985 287.563 337.226 287.762 337.394 287.986C337.564 288.207 337.696 288.388 337.788 288.531H337.916V287.229H339.133V295.659C339.133 296.363 338.973 296.935 338.653 297.377C338.336 297.821 337.909 298.147 337.372 298.353C336.839 298.563 336.245 298.668 335.59 298.668ZM335.548 294.165C336.053 294.165 336.48 294.049 336.828 293.818C337.177 293.587 337.442 293.254 337.623 292.82C337.804 292.386 337.895 291.867 337.895 291.262C337.895 290.672 337.806 290.151 337.628 289.699C337.451 289.247 337.187 288.893 336.839 288.637C336.49 288.381 336.06 288.253 335.548 288.253C335.014 288.253 334.57 288.388 334.214 288.659C333.862 288.929 333.597 289.292 333.419 289.747C333.245 290.202 333.157 290.707 333.157 291.262C333.157 291.831 333.246 292.335 333.424 292.772C333.606 293.206 333.872 293.548 334.224 293.797C334.58 294.042 335.021 294.165 335.548 294.165ZM343.849 295.616C343.33 295.616 342.859 295.518 342.435 295.322C342.012 295.123 341.676 294.837 341.427 294.463C341.178 294.086 341.054 293.631 341.054 293.098C341.054 292.628 341.146 292.248 341.331 291.956C341.516 291.661 341.763 291.43 342.073 291.262C342.382 291.095 342.724 290.971 343.097 290.889C343.474 290.803 343.853 290.736 344.233 290.686C344.731 290.622 345.135 290.574 345.445 290.542C345.758 290.507 345.985 290.448 346.127 290.366C346.273 290.284 346.346 290.142 346.346 289.939V289.897C346.346 289.37 346.202 288.961 345.914 288.669C345.629 288.378 345.197 288.232 344.618 288.232C344.016 288.232 343.545 288.364 343.204 288.627C342.862 288.89 342.622 289.171 342.483 289.47L341.288 289.043C341.502 288.545 341.786 288.157 342.142 287.88C342.501 287.599 342.892 287.403 343.316 287.293C343.743 287.179 344.162 287.122 344.575 287.122C344.838 287.122 345.14 287.154 345.482 287.218C345.827 287.279 346.159 287.405 346.48 287.597C346.803 287.789 347.072 288.079 347.285 288.467C347.499 288.854 347.605 289.374 347.605 290.025V295.424H346.346V294.314H346.282C346.197 294.492 346.055 294.682 345.855 294.885C345.656 295.088 345.391 295.26 345.06 295.402C344.73 295.545 344.326 295.616 343.849 295.616ZM344.041 294.485C344.539 294.485 344.959 294.387 345.3 294.191C345.645 293.996 345.905 293.743 346.079 293.434C346.257 293.124 346.346 292.799 346.346 292.457V291.305C346.293 291.369 346.175 291.428 345.994 291.481C345.816 291.531 345.61 291.575 345.375 291.614C345.144 291.65 344.918 291.682 344.698 291.71C344.481 291.735 344.305 291.757 344.169 291.775C343.842 291.817 343.536 291.887 343.252 291.983C342.971 292.075 342.743 292.216 342.569 292.404C342.398 292.589 342.313 292.842 342.313 293.162C342.313 293.599 342.475 293.93 342.798 294.154C343.125 294.375 343.54 294.485 344.041 294.485ZM351.163 290.494V295.424H349.903V287.229H351.12V288.509H351.227C351.419 288.093 351.71 287.759 352.102 287.506C352.493 287.25 352.998 287.122 353.617 287.122C354.172 287.122 354.657 287.236 355.073 287.464C355.489 287.688 355.813 288.029 356.044 288.488C356.276 288.943 356.391 289.519 356.391 290.217V295.424H355.132V290.302C355.132 289.658 354.965 289.157 354.631 288.797C354.296 288.435 353.837 288.253 353.254 288.253C352.852 288.253 352.493 288.34 352.176 288.515C351.863 288.689 351.616 288.943 351.435 289.278C351.253 289.612 351.163 290.017 351.163 290.494Z" fill="#131C32"/>
            </g>
            <g filter="url(#filter5_d_1185_36695)">
                <rect x="150" y="320.473" width="116.854" height="40.0642" rx="8" fill="white" shape-rendering="crispEdges"/>
                <path d="M179.1 345.504L176.603 337.309H177.926L179.697 343.583H179.783L181.533 337.309H182.877L184.606 343.562H184.691L186.462 337.309H187.786L185.289 345.504H184.051L182.258 339.208H182.13L180.338 345.504H179.1ZM189.45 345.504V337.309H190.709V345.504H189.45ZM190.09 335.943C189.845 335.943 189.633 335.86 189.456 335.692C189.281 335.525 189.194 335.324 189.194 335.089C189.194 334.855 189.281 334.654 189.456 334.487C189.633 334.319 189.845 334.236 190.09 334.236C190.336 334.236 190.546 334.319 190.72 334.487C190.898 334.654 190.987 334.855 190.987 335.089C190.987 335.324 190.898 335.525 190.72 335.692C190.546 335.86 190.336 335.943 190.09 335.943ZM194.275 340.574V345.504H193.016V337.309H194.232V338.589H194.339C194.531 338.173 194.822 337.839 195.214 337.586C195.605 337.33 196.11 337.202 196.729 337.202C197.284 337.202 197.769 337.316 198.185 337.544C198.602 337.768 198.925 338.109 199.156 338.568C199.388 339.023 199.503 339.6 199.503 340.297V345.504H198.244V340.382C198.244 339.738 198.077 339.237 197.743 338.878C197.408 338.515 196.949 338.333 196.366 338.333C195.964 338.333 195.605 338.42 195.288 338.595C194.975 338.769 194.728 339.023 194.547 339.358C194.365 339.692 194.275 340.098 194.275 340.574ZM205.667 334.065L202.145 347.147H200.993L204.514 334.065H205.667ZM209.016 345.504L206.519 337.309H207.842L209.613 343.583H209.699L211.449 337.309H212.793L214.522 343.562H214.607L216.379 337.309H217.702L215.205 345.504H213.967L212.174 339.208H212.046L210.254 345.504H209.016ZM222.523 345.675C221.734 345.675 221.053 345.5 220.48 345.152C219.911 344.8 219.472 344.309 219.162 343.679C218.856 343.046 218.703 342.31 218.703 341.47C218.703 340.631 218.856 339.891 219.162 339.251C219.472 338.607 219.902 338.106 220.453 337.746C221.008 337.384 221.656 337.202 222.395 337.202C222.822 337.202 223.244 337.273 223.66 337.416C224.076 337.558 224.455 337.789 224.796 338.109C225.138 338.426 225.41 338.846 225.613 339.368C225.815 339.891 225.917 340.535 225.917 341.3V341.833H219.6V340.745H224.636C224.636 340.282 224.544 339.87 224.359 339.507C224.177 339.144 223.918 338.858 223.58 338.648C223.246 338.438 222.851 338.333 222.395 338.333C221.894 338.333 221.46 338.458 221.094 338.707C220.731 338.952 220.452 339.272 220.256 339.667C220.06 340.062 219.963 340.485 219.963 340.937V341.663C219.963 342.281 220.069 342.806 220.283 343.236C220.5 343.663 220.8 343.989 221.184 344.213C221.568 344.433 222.015 344.544 222.523 344.544C222.854 344.544 223.153 344.497 223.42 344.405C223.69 344.309 223.923 344.167 224.119 343.978C224.314 343.786 224.466 343.548 224.572 343.263L225.789 343.605C225.661 344.017 225.445 344.38 225.143 344.693C224.841 345.002 224.467 345.244 224.023 345.419C223.578 345.589 223.078 345.675 222.523 345.675ZM227.832 345.504V337.309H229.048V338.547H229.134C229.283 338.141 229.554 337.812 229.945 337.56C230.336 337.307 230.777 337.181 231.268 337.181C231.36 337.181 231.476 337.183 231.615 337.186C231.753 337.19 231.858 337.195 231.93 337.202V338.483C231.887 338.472 231.789 338.456 231.636 338.435C231.487 338.41 231.328 338.397 231.161 338.397C230.763 338.397 230.407 338.481 230.094 338.648C229.785 338.812 229.539 339.039 229.358 339.331C229.18 339.619 229.091 339.948 229.091 340.318V345.504H227.832ZM236.609 345.675C235.819 345.675 235.138 345.5 234.565 345.152C233.996 344.8 233.557 344.309 233.247 343.679C232.941 343.046 232.789 342.31 232.789 341.47C232.789 340.631 232.941 339.891 233.247 339.251C233.557 338.607 233.987 338.106 234.538 337.746C235.093 337.384 235.741 337.202 236.481 337.202C236.907 337.202 237.329 337.273 237.745 337.416C238.161 337.558 238.54 337.789 238.881 338.109C239.223 338.426 239.495 338.846 239.698 339.368C239.9 339.891 240.002 340.535 240.002 341.3V341.833H233.685V340.745H238.721C238.721 340.282 238.629 339.87 238.444 339.507C238.262 339.144 238.003 338.858 237.665 338.648C237.331 338.438 236.936 338.333 236.481 338.333C235.979 338.333 235.545 338.458 235.179 338.707C234.816 338.952 234.537 339.272 234.341 339.667C234.145 340.062 234.048 340.485 234.048 340.937V341.663C234.048 342.281 234.154 342.806 234.368 343.236C234.585 343.663 234.885 343.989 235.269 344.213C235.654 344.433 236.1 344.544 236.609 344.544C236.939 344.544 237.238 344.497 237.505 344.405C237.775 344.309 238.008 344.167 238.204 343.978C238.399 343.786 238.551 343.548 238.657 343.263L239.874 343.605C239.746 344.017 239.53 344.38 239.228 344.693C238.926 345.002 238.552 345.244 238.108 345.419C237.663 345.589 237.163 345.675 236.609 345.675Z" fill="#131C32"/>
            </g>
        </g>
    </g>
    <defs>
        <filter id="filter0_d_1185_36695" x="0" y="19" width="544" height="419.635" filterUnits="userSpaceOnUse" color-interpolation-filters="sRGB">
            <feFlood flood-opacity="0" result="BackgroundImageFix"/>
            <feColorMatrix in="SourceAlpha" type="matrix" values="0 0 0 0 0 0 0 0 0 0 0 0 0 0 0 0 0 0 127 0" result="hardAlpha"/>
            <feOffset dy="6"/>
            <feGaussianBlur stdDeviation="6"/>
            <feComposite in2="hardAlpha" operator="out"/>
            <feColorMatrix type="matrix" values="0 0 0 0 0.360784 0 0 0 0 0.466667 0 0 0 0 0.94902 0 0 0 0.2 0"/>
            <feBlend mode="normal" in2="BackgroundImageFix" result="effect1_dropShadow_1185_36695"/>
            <feBlend mode="normal" in="SourceGraphic" in2="effect1_dropShadow_1185_36695" result="shape"/>
        </filter>
        <filter id="filter1_d_1185_36695" x="94.6613" y="140.186" width="90.4508" height="47.7086" filterUnits="userSpaceOnUse" color-interpolation-filters="sRGB">
            <feFlood flood-opacity="0" result="BackgroundImageFix"/>
            <feColorMatrix in="SourceAlpha" type="matrix" values="0 0 0 0 0 0 0 0 0 0 0 0 0 0 0 0 0 0 127 0" result="hardAlpha"/>
            <feOffset dy="1.66934"/>
            <feGaussianBlur stdDeviation="1.66934"/>
            <feComposite in2="hardAlpha" operator="out"/>
            <feColorMatrix type="matrix" values="0 0 0 0 0.360784 0 0 0 0 0.466667 0 0 0 0 0.94902 0 0 0 0.3 0"/>
            <feBlend mode="normal" in2="BackgroundImageFix" result="effect1_dropShadow_1185_36695"/>
            <feBlend mode="normal" in="SourceGraphic" in2="effect1_dropShadow_1185_36695" result="shape"/>
        </filter>
        <filter id="filter2_d_1185_36695" x="185.112" y="140.186" width="142.451" height="50.7086" filterUnits="userSpaceOnUse" color-interpolation-filters="sRGB">
            <feFlood flood-opacity="0" result="BackgroundImageFix"/>
            <feColorMatrix in="SourceAlpha" type="matrix" values="0 0 0 0 0 0 0 0 0 0 0 0 0 0 0 0 0 0 127 0" result="hardAlpha"/>
            <feOffset dy="1.66934"/>
            <feGaussianBlur stdDeviation="1.66934"/>
            <feComposite in2="hardAlpha" operator="out"/>
            <feColorMatrix type="matrix" values="0 0 0 0 0.360784 0 0 0 0 0.466667 0 0 0 0 0.94902 0 0 0 0.3 0"/>
            <feBlend mode="normal" in2="BackgroundImageFix" result="effect1_dropShadow_1185_36695"/>
            <feBlend mode="normal" in="SourceGraphic" in2="effect1_dropShadow_1185_36695" result="shape"/>
        </filter>
        <filter id="filter3_d_1185_36695" x="327.564" y="140.186" width="121.451" height="47.7086" filterUnits="userSpaceOnUse" color-interpolation-filters="sRGB">
            <feFlood flood-opacity="0" result="BackgroundImageFix"/>
            <feColorMatrix in="SourceAlpha" type="matrix" values="0 0 0 0 0 0 0 0 0 0 0 0 0 0 0 0 0 0 127 0" result="hardAlpha"/>
            <feOffset dy="1.66934"/>
            <feGaussianBlur stdDeviation="1.66934"/>
            <feComposite in2="hardAlpha" operator="out"/>
            <feColorMatrix type="matrix" values="0 0 0 0 0.360784 0 0 0 0 0.466667 0 0 0 0 0.94902 0 0 0 0.3 0"/>
            <feBlend mode="normal" in2="BackgroundImageFix" result="effect1_dropShadow_1185_36695"/>
            <feBlend mode="normal" in="SourceGraphic" in2="effect1_dropShadow_1185_36695" result="shape"/>
        </filter>
        <filter id="filter4_d_1185_36695" x="273.53" y="268.723" width="123.531" height="46.7418" filterUnits="userSpaceOnUse" color-interpolation-filters="sRGB">
            <feFlood flood-opacity="0" result="BackgroundImageFix"/>
            <feColorMatrix in="SourceAlpha" type="matrix" values="0 0 0 0 0 0 0 0 0 0 0 0 0 0 0 0 0 0 127 0" result="hardAlpha"/>
            <feOffset dy="1.66934"/>
            <feGaussianBlur stdDeviation="1.66934"/>
            <feComposite in2="hardAlpha" operator="out"/>
            <feColorMatrix type="matrix" values="0 0 0 0 0.360784 0 0 0 0 0.466667 0 0 0 0 0.94902 0 0 0 0.3 0"/>
            <feBlend mode="normal" in2="BackgroundImageFix" result="effect1_dropShadow_1185_36695"/>
            <feBlend mode="normal" in="SourceGraphic" in2="effect1_dropShadow_1185_36695" result="shape"/>
        </filter>
        <filter id="filter5_d_1185_36695" x="146.661" y="318.803" width="123.531" height="46.7418" filterUnits="userSpaceOnUse" color-interpolation-filters="sRGB">
            <feFlood flood-opacity="0" result="BackgroundImageFix"/>
            <feColorMatrix in="SourceAlpha" type="matrix" values="0 0 0 0 0 0 0 0 0 0 0 0 0 0 0 0 0 0 127 0" result="hardAlpha"/>
            <feOffset dy="1.66934"/>
            <feGaussianBlur stdDeviation="1.66934"/>
            <feComposite in2="hardAlpha" operator="out"/>
            <feColorMatrix type="matrix" values="0 0 0 0 0.360784 0 0 0 0 0.466667 0 0 0 0 0.94902 0 0 0 0.3 0"/>
            <feBlend mode="normal" in2="BackgroundImageFix" result="effect1_dropShadow_1185_36695"/>
            <feBlend mode="normal" in="SourceGraphic" in2="effect1_dropShadow_1185_36695" result="shape"/>
        </filter>
        <clipPath id="clip0_1185_36695">
            <rect x="12" y="25" width="520" height="395.634" rx="20" fill="white"/>
        </clipPath>
        <clipPath id="clip1_1185_36695">
            <rect width="83.7737" height="61.7095" fill="white" transform="translate(98 141.855)"/>
        </clipPath>
    </defs>
</svg>
