<svg width="366" height="146" viewBox="0 0 366 146" fill="none" xmlns="http://www.w3.org/2000/svg">
<g clip-path="url(#clip0_7672_169365)">
<rect x="33" y="80" width="426" height="63" rx="4.68548" fill="#F3F5FF" fill-opacity="0.1"/>
<rect x="33" y="59.8945" width="442.778" height="83.0209" rx="7.61391" stroke="#F8FAFF" stroke-width="1.17137" stroke-linecap="round" stroke-linejoin="round" stroke-dasharray="7.61 7.61"/>
<path d="M188.601 110.235H178.661" stroke="#F8FAFF" stroke-width="1.17137" stroke-linecap="round" stroke-linejoin="round"/>
<path d="M183.445 105.367V115.307" stroke="#F8FAFF" stroke-width="1.17137" stroke-linecap="round" stroke-linejoin="round"/>
<path d="M197.521 114H195.873L198.873 105.481H200.778L203.781 114H202.134L199.858 107.228H199.792L197.521 114ZM197.575 110.66H202.067V111.899H197.575V110.66ZM207.013 114.112C206.511 114.112 206.062 113.983 205.665 113.725C205.269 113.468 204.955 113.093 204.725 112.602C204.495 112.111 204.38 111.515 204.38 110.814C204.38 110.104 204.496 109.505 204.729 109.017C204.965 108.526 205.283 108.156 205.682 107.906C206.081 107.654 206.526 107.528 207.017 107.528C207.392 107.528 207.699 107.591 207.941 107.719C208.182 107.844 208.373 107.995 208.515 108.172C208.656 108.347 208.766 108.512 208.843 108.667H208.906V105.481H210.416V114H208.935V112.993H208.843C208.766 113.149 208.653 113.314 208.506 113.488C208.359 113.66 208.165 113.807 207.924 113.929C207.683 114.051 207.379 114.112 207.013 114.112ZM207.433 112.877C207.752 112.877 208.024 112.791 208.248 112.619C208.473 112.444 208.644 112.202 208.76 111.891C208.877 111.58 208.935 111.219 208.935 110.805C208.935 110.392 208.877 110.033 208.76 109.728C208.646 109.423 208.477 109.186 208.253 109.017C208.031 108.848 207.758 108.763 207.433 108.763C207.098 108.763 206.818 108.85 206.593 109.025C206.368 109.2 206.199 109.441 206.085 109.749C205.972 110.057 205.915 110.409 205.915 110.805C205.915 111.205 205.972 111.561 206.085 111.874C206.202 112.185 206.372 112.43 206.597 112.611C206.824 112.788 207.103 112.877 207.433 112.877ZM214.391 114.112C213.889 114.112 213.44 113.983 213.044 113.725C212.647 113.468 212.334 113.093 212.103 112.602C211.873 112.111 211.758 111.515 211.758 110.814C211.758 110.104 211.875 109.505 212.108 109.017C212.343 108.526 212.661 108.156 213.06 107.906C213.46 107.654 213.905 107.528 214.395 107.528C214.77 107.528 215.078 107.591 215.319 107.719C215.56 107.844 215.752 107.995 215.893 108.172C216.034 108.347 216.144 108.512 216.222 108.667H216.284V105.481H217.794V114H216.313V112.993H216.222C216.144 113.149 216.032 113.314 215.885 113.488C215.738 113.66 215.544 113.807 215.302 113.929C215.061 114.051 214.757 114.112 214.391 114.112ZM214.811 112.877C215.13 112.877 215.402 112.791 215.627 112.619C215.851 112.444 216.022 112.202 216.138 111.891C216.255 111.58 216.313 111.219 216.313 110.805C216.313 110.392 216.255 110.033 216.138 109.728C216.025 109.423 215.856 109.186 215.631 109.017C215.409 108.848 215.136 108.763 214.811 108.763C214.476 108.763 214.196 108.85 213.971 109.025C213.747 109.2 213.577 109.441 213.464 109.749C213.35 110.057 213.293 110.409 213.293 110.805C213.293 111.205 213.35 111.561 213.464 111.874C213.58 112.185 213.751 112.43 213.975 112.611C214.203 112.788 214.481 112.877 214.811 112.877ZM224.143 114.129C223.738 114.129 223.373 114.057 223.049 113.913C222.727 113.766 222.472 113.549 222.283 113.264C222.098 112.978 222.005 112.626 222.005 112.207C222.005 111.847 222.071 111.549 222.204 111.313C222.337 111.077 222.519 110.889 222.749 110.747C222.979 110.606 223.239 110.499 223.527 110.427C223.818 110.352 224.119 110.298 224.43 110.265C224.804 110.226 225.108 110.191 225.341 110.161C225.574 110.127 225.743 110.077 225.848 110.011C225.956 109.942 226.01 109.835 226.01 109.691V109.666C226.01 109.352 225.917 109.11 225.732 108.938C225.546 108.766 225.278 108.68 224.929 108.68C224.56 108.68 224.267 108.76 224.051 108.921C223.838 109.082 223.693 109.272 223.619 109.491L222.213 109.291C222.324 108.903 222.507 108.579 222.762 108.318C223.017 108.054 223.329 107.858 223.698 107.727C224.066 107.594 224.474 107.528 224.921 107.528C225.228 107.528 225.535 107.564 225.84 107.636C226.145 107.708 226.424 107.827 226.676 107.993C226.928 108.157 227.131 108.38 227.283 108.663C227.439 108.946 227.516 109.3 227.516 109.724V114H226.069V113.122H226.019C225.927 113.3 225.798 113.466 225.632 113.621C225.468 113.774 225.262 113.897 225.012 113.992C224.765 114.083 224.475 114.129 224.143 114.129ZM224.534 113.022C224.836 113.022 225.098 112.963 225.32 112.844C225.542 112.722 225.712 112.561 225.832 112.361C225.954 112.161 226.015 111.944 226.015 111.708V110.955C225.967 110.994 225.887 111.03 225.773 111.063C225.662 111.097 225.538 111.126 225.399 111.151C225.26 111.176 225.123 111.198 224.987 111.217C224.851 111.237 224.733 111.253 224.634 111.267C224.409 111.298 224.208 111.347 224.03 111.417C223.853 111.486 223.713 111.583 223.61 111.708C223.508 111.83 223.456 111.988 223.456 112.182C223.456 112.46 223.558 112.669 223.76 112.81C223.962 112.952 224.22 113.022 224.534 113.022ZM233.442 110.256V114H231.936V107.611H233.375V108.696H233.45C233.597 108.339 233.831 108.054 234.153 107.844C234.477 107.633 234.878 107.528 235.355 107.528C235.796 107.528 236.18 107.622 236.507 107.81C236.837 107.999 237.093 108.272 237.273 108.63C237.456 108.988 237.546 109.422 237.543 109.932V114H236.037V110.165C236.037 109.738 235.926 109.404 235.705 109.162C235.485 108.921 235.182 108.8 234.794 108.8C234.53 108.8 234.296 108.859 234.091 108.975C233.888 109.089 233.729 109.254 233.612 109.47C233.499 109.686 233.442 109.948 233.442 110.256ZM241.903 114.125C241.262 114.125 240.709 113.992 240.243 113.725C239.78 113.456 239.423 113.077 239.174 112.586C238.924 112.092 238.799 111.511 238.799 110.843C238.799 110.186 238.924 109.609 239.174 109.112C239.426 108.613 239.778 108.225 240.23 107.948C240.682 107.668 241.213 107.528 241.823 107.528C242.217 107.528 242.589 107.591 242.938 107.719C243.29 107.844 243.601 108.038 243.87 108.301C244.142 108.565 244.355 108.9 244.511 109.308C244.666 109.713 244.744 110.195 244.744 110.755V111.217H239.507V110.202H243.3C243.297 109.914 243.235 109.657 243.113 109.433C242.991 109.205 242.82 109.026 242.601 108.896C242.385 108.766 242.133 108.701 241.844 108.701C241.536 108.701 241.266 108.775 241.033 108.925C240.8 109.072 240.619 109.266 240.488 109.508C240.361 109.746 240.295 110.008 240.293 110.294V111.18C240.293 111.551 240.361 111.87 240.497 112.136C240.632 112.4 240.822 112.602 241.066 112.744C241.31 112.882 241.596 112.952 241.923 112.952C242.142 112.952 242.341 112.921 242.518 112.86C242.696 112.796 242.85 112.704 242.98 112.582C243.11 112.46 243.209 112.308 243.275 112.128L244.681 112.286C244.592 112.658 244.423 112.982 244.174 113.26C243.927 113.534 243.611 113.748 243.225 113.9C242.84 114.05 242.399 114.125 241.903 114.125ZM247.302 114L245.496 107.611H247.031L248.155 112.103H248.213L249.361 107.611H250.879L252.027 112.078H252.09L253.196 107.611H254.735L252.926 114H251.358L250.16 109.682H250.072L248.874 114H247.302ZM261.479 114.125C260.841 114.125 260.294 113.985 259.836 113.705C259.381 113.425 259.03 113.038 258.784 112.544C258.54 112.048 258.418 111.476 258.418 110.83C258.418 110.181 258.542 109.609 258.792 109.112C259.042 108.613 259.394 108.225 259.848 107.948C260.306 107.668 260.847 107.528 261.471 107.528C261.989 107.528 262.448 107.623 262.848 107.815C263.25 108.003 263.57 108.271 263.809 108.617C264.047 108.961 264.183 109.363 264.216 109.824H262.777C262.719 109.516 262.58 109.259 262.361 109.054C262.145 108.846 261.855 108.742 261.492 108.742C261.184 108.742 260.913 108.825 260.68 108.992C260.447 109.155 260.266 109.391 260.136 109.699C260.008 110.007 259.944 110.376 259.944 110.805C259.944 111.241 260.008 111.615 260.136 111.928C260.263 112.239 260.442 112.479 260.672 112.648C260.905 112.814 261.178 112.898 261.492 112.898C261.713 112.898 261.912 112.856 262.086 112.773C262.264 112.687 262.412 112.564 262.531 112.403C262.651 112.242 262.733 112.046 262.777 111.816H264.216C264.18 112.268 264.047 112.669 263.817 113.018C263.587 113.365 263.273 113.637 262.877 113.834C262.48 114.028 262.014 114.125 261.479 114.125ZM267.291 114.129C266.886 114.129 266.522 114.057 266.197 113.913C265.876 113.766 265.62 113.549 265.432 113.264C265.246 112.978 265.153 112.626 265.153 112.207C265.153 111.847 265.22 111.549 265.353 111.313C265.486 111.077 265.668 110.889 265.898 110.747C266.128 110.606 266.387 110.499 266.676 110.427C266.967 110.352 267.268 110.298 267.578 110.265C267.953 110.226 268.256 110.191 268.489 110.161C268.722 110.127 268.891 110.077 268.997 110.011C269.105 109.942 269.159 109.835 269.159 109.691V109.666C269.159 109.352 269.066 109.11 268.88 108.938C268.694 108.766 268.427 108.68 268.077 108.68C267.709 108.68 267.416 108.76 267.2 108.921C266.986 109.082 266.842 109.272 266.767 109.491L265.361 109.291C265.472 108.903 265.655 108.579 265.91 108.318C266.165 108.054 266.477 107.858 266.846 107.727C267.215 107.594 267.623 107.528 268.069 107.528C268.377 107.528 268.683 107.564 268.988 107.636C269.293 107.708 269.572 107.827 269.824 107.993C270.077 108.157 270.279 108.38 270.432 108.663C270.587 108.946 270.665 109.3 270.665 109.724V114H269.217V113.122H269.167C269.076 113.3 268.947 113.466 268.78 113.621C268.617 113.774 268.41 113.897 268.161 113.992C267.914 114.083 267.624 114.129 267.291 114.129ZM267.682 113.022C267.985 113.022 268.247 112.963 268.468 112.844C268.69 112.722 268.861 112.561 268.98 112.361C269.102 112.161 269.163 111.944 269.163 111.708V110.955C269.116 110.994 269.036 111.03 268.922 111.063C268.811 111.097 268.686 111.126 268.547 111.151C268.409 111.176 268.272 111.198 268.136 111.217C268 111.237 267.882 111.253 267.782 111.267C267.557 111.298 267.356 111.347 267.179 111.417C267.001 111.486 266.861 111.583 266.759 111.708C266.656 111.83 266.605 111.988 266.605 112.182C266.605 112.46 266.706 112.669 266.909 112.81C267.111 112.952 267.369 113.022 267.682 113.022ZM272.179 114V107.611H273.639V108.676H273.705C273.822 108.307 274.022 108.023 274.304 107.823C274.59 107.62 274.916 107.519 275.282 107.519C275.365 107.519 275.458 107.523 275.561 107.532C275.666 107.537 275.753 107.547 275.823 107.561V108.946C275.759 108.924 275.658 108.904 275.519 108.888C275.383 108.868 275.251 108.859 275.124 108.859C274.849 108.859 274.603 108.918 274.384 109.037C274.167 109.154 273.997 109.316 273.872 109.524C273.747 109.732 273.685 109.972 273.685 110.244V114H272.179ZM278.931 114.112C278.429 114.112 277.98 113.983 277.583 113.725C277.187 113.468 276.873 113.093 276.643 112.602C276.413 112.111 276.298 111.515 276.298 110.814C276.298 110.104 276.414 109.505 276.647 109.017C276.883 108.526 277.201 108.156 277.6 107.906C277.999 107.654 278.444 107.528 278.935 107.528C279.31 107.528 279.617 107.591 279.859 107.719C280.1 107.844 280.291 107.995 280.433 108.172C280.574 108.347 280.684 108.512 280.761 108.667H280.824V105.481H282.334V114H280.853V112.993H280.761C280.684 113.149 280.571 113.314 280.424 113.488C280.277 113.66 280.083 113.807 279.842 113.929C279.601 114.051 279.297 114.112 278.931 114.112ZM279.351 112.877C279.67 112.877 279.942 112.791 280.167 112.619C280.391 112.444 280.562 112.202 280.678 111.891C280.795 111.58 280.853 111.219 280.853 110.805C280.853 110.392 280.795 110.033 280.678 109.728C280.564 109.423 280.395 109.186 280.171 109.017C279.949 108.848 279.676 108.763 279.351 108.763C279.016 108.763 278.736 108.85 278.511 109.025C278.286 109.2 278.117 109.441 278.003 109.749C277.89 110.057 277.833 110.409 277.833 110.805C277.833 111.205 277.89 111.561 278.003 111.874C278.12 112.185 278.29 112.43 278.515 112.611C278.743 112.788 279.021 112.877 279.351 112.877Z" fill="#F8FAFF"/>
<g clip-path="url(#clip1_7672_169365)">
<g filter="url(#filter0_d_7672_169365)">
<path d="M0 10.9625C0 5.46037 4.46037 1 9.96251 1H366V80H9.9625C4.46036 80 0 75.5396 0 70.0375V10.9625Z" fill="white" shape-rendering="crispEdges"/>
<path d="M18.3456 15.5493V24.0684H16.8023V17.0509H16.7524L14.7599 18.3238V16.9095L16.8772 15.5493H18.3456Z" fill="#7B839D"/>
<path d="M38.38 29.8928V29.2782H42.6713V29.8928H40.8721V35H40.1792V29.8928H38.38ZM44.8282 35.0894C44.4147 35.0894 44.058 34.9981 43.7581 34.8156C43.4601 34.6312 43.2301 34.3742 43.0681 34.0445C42.9079 33.713 42.8278 33.3274 42.8278 32.8878C42.8278 32.4483 42.9079 32.0609 43.0681 31.7256C43.2301 31.3885 43.4555 31.1259 43.7442 30.9377C44.0347 30.7477 44.3737 30.6528 44.7611 30.6528C44.9846 30.6528 45.2054 30.69 45.4233 30.7645C45.6412 30.839 45.8396 30.9601 46.0184 31.1277C46.1972 31.2935 46.3397 31.5133 46.4458 31.7871C46.552 32.0609 46.6051 32.398 46.6051 32.7984V33.0778H43.2972V32.5079H45.9346C45.9346 32.2657 45.8861 32.0497 45.7893 31.8597C45.6943 31.6697 45.5583 31.5198 45.3814 31.4099C45.2063 31.3 44.9995 31.2451 44.7611 31.2451C44.4985 31.2451 44.2713 31.3102 44.0794 31.4406C43.8895 31.5691 43.7432 31.7368 43.6408 31.9435C43.5384 32.1503 43.4871 32.3719 43.4871 32.6085V32.9884C43.4871 33.3125 43.543 33.5872 43.6548 33.8126C43.7684 34.0361 43.9258 34.2065 44.1269 34.3239C44.3281 34.4394 44.5618 34.4971 44.8282 34.4971C45.0014 34.4971 45.1579 34.4729 45.2976 34.4245C45.4391 34.3742 45.5611 34.2997 45.6636 34.201C45.766 34.1004 45.8452 33.9756 45.901 33.8266L46.538 34.0054C46.471 34.2214 46.3583 34.4114 46.2 34.5753C46.0417 34.7374 45.8461 34.864 45.6133 34.9553C45.3804 35.0447 45.1187 35.0894 44.8282 35.0894ZM47.6081 35V30.7086H48.2451V31.3568H48.2898C48.368 31.1445 48.5096 30.9722 48.7144 30.8399C48.9193 30.7077 49.1503 30.6416 49.4073 30.6416C49.4557 30.6416 49.5163 30.6425 49.5889 30.6444C49.6616 30.6462 49.7165 30.649 49.7538 30.6528V31.3233C49.7314 31.3177 49.6802 31.3093 49.6001 31.2981C49.5219 31.2851 49.439 31.2786 49.3514 31.2786C49.1428 31.2786 48.9566 31.3224 48.7927 31.4099C48.6306 31.4956 48.5021 31.6148 48.4071 31.7675C48.314 31.9184 48.2674 32.0907 48.2674 32.2844V35H47.6081ZM50.5353 35V30.7086H51.1723V31.3792H51.2282C51.3176 31.1501 51.462 30.9722 51.6613 30.8455C51.8606 30.717 52.0999 30.6528 52.3793 30.6528C52.6624 30.6528 52.898 30.717 53.0861 30.8455C53.2761 30.9722 53.4242 31.1501 53.5304 31.3792H53.5751C53.685 31.1575 53.8498 30.9815 54.0696 30.8511C54.2894 30.7189 54.5529 30.6528 54.8602 30.6528C55.2439 30.6528 55.5578 30.7729 55.8018 31.0132C56.0458 31.2516 56.1678 31.6232 56.1678 32.1279V35H55.5084V32.1279C55.5084 31.8113 55.4218 31.585 55.2486 31.449C55.0754 31.313 54.8714 31.2451 54.6367 31.2451C54.335 31.2451 54.1012 31.3363 53.9355 31.5189C53.7697 31.6995 53.6868 31.9286 53.6868 32.2061V35H53.0163V32.0609C53.0163 31.8169 52.9371 31.6204 52.7788 31.4714C52.6205 31.3205 52.4165 31.2451 52.167 31.2451C51.9956 31.2451 51.8354 31.2907 51.6864 31.382C51.5393 31.4732 51.4201 31.5999 51.3288 31.7619C51.2394 31.9221 51.1947 32.1074 51.1947 32.3179V35H50.5353Z" fill="#7B839D"/>
<path d="M39.8477 42.994V50.623H38.9238V42.994H39.8477ZM44.0692 44.9012V45.6463H41.104V44.9012H44.0692ZM41.9682 43.5304H42.8473V48.984C42.8473 49.2323 42.8834 49.4186 42.9554 49.5428C43.0299 49.6644 43.1242 49.7464 43.2385 49.7886C43.3552 49.8283 43.4781 49.8482 43.6073 49.8482C43.7041 49.8482 43.7836 49.8433 43.8457 49.8333C43.9078 49.8209 43.9574 49.811 43.9947 49.8035L44.1735 50.5932C44.1139 50.6156 44.0307 50.6379 43.9239 50.6603C43.8171 50.6851 43.6818 50.6975 43.5179 50.6975C43.2695 50.6975 43.0261 50.6442 42.7877 50.5374C42.5518 50.4306 42.3556 50.2679 42.1992 50.0494C42.0452 49.8308 41.9682 49.5552 41.9682 49.2224V43.5304ZM46.1515 42.994V45.6165H45.332V42.994H46.1515ZM51.77 46.1827L50.9803 46.4062C50.9306 46.2746 50.8573 46.1467 50.7605 46.0225C50.6661 45.8958 50.537 45.7915 50.3731 45.7096C50.2092 45.6276 49.9993 45.5867 49.7435 45.5867C49.3934 45.5867 49.1015 45.6674 48.8681 45.8288C48.6371 45.9877 48.5217 46.1901 48.5217 46.436C48.5217 46.6545 48.6011 46.8271 48.7601 46.9538C48.919 47.0804 49.1674 47.186 49.5051 47.2704L50.3544 47.479C50.866 47.6032 51.2472 47.7932 51.4981 48.049C51.7489 48.3023 51.8743 48.6289 51.8743 49.0287C51.8743 49.3565 51.7799 49.6495 51.5912 49.9078C51.4049 50.1661 51.1442 50.3697 50.8089 50.5187C50.4736 50.6677 50.0837 50.7423 49.6392 50.7423C49.0556 50.7423 48.5726 50.6156 48.1901 50.3623C47.8077 50.109 47.5655 49.7389 47.4637 49.2522L48.2982 49.0436C48.3776 49.3515 48.5279 49.5825 48.7489 49.7365C48.9724 49.8904 49.2642 49.9674 49.6243 49.9674C50.0341 49.9674 50.3594 49.8805 50.6003 49.7067C50.8437 49.5303 50.9654 49.3192 50.9654 49.0734C50.9654 48.8747 50.8958 48.7083 50.7568 48.5742C50.6177 48.4376 50.4041 48.3358 50.116 48.2688L49.1624 48.0452C48.6384 47.9211 48.2535 47.7286 48.0076 47.4679C47.7642 47.2046 47.6425 46.8756 47.6425 46.4807C47.6425 46.1578 47.7332 45.8722 47.9145 45.6239C48.0982 45.3756 48.3478 45.1806 48.6632 45.0391C48.9811 44.8975 49.3412 44.8267 49.7435 44.8267C50.3097 44.8267 50.7543 44.9509 51.0771 45.1992C51.4024 45.4476 51.6334 45.7754 51.77 46.1827ZM57.8317 50.7572C57.4692 50.7572 57.1401 50.6889 56.8446 50.5523C56.549 50.4132 56.3144 50.2133 56.1405 49.9525C55.9667 49.6893 55.8798 49.3714 55.8798 48.9989C55.8798 48.6711 55.9443 48.4053 56.0735 48.2017C56.2026 47.9956 56.3752 47.8342 56.5913 47.7174C56.8073 47.6007 57.0457 47.5138 57.3065 47.4567C57.5697 47.3971 57.8342 47.3499 58.0999 47.3151C58.4476 47.2704 58.7295 47.2369 58.9455 47.2145C59.1641 47.1897 59.323 47.1487 59.4224 47.0916C59.5242 47.0345 59.5751 46.9352 59.5751 46.7936V46.7638C59.5751 46.3963 59.4745 46.1107 59.2734 45.907C59.0747 45.7034 58.773 45.6016 58.3682 45.6016C57.9485 45.6016 57.6194 45.6934 57.381 45.8772C57.1426 46.061 56.9749 46.2572 56.8781 46.4658L56.0437 46.1678C56.1927 45.8201 56.3913 45.5494 56.6397 45.3557C56.8905 45.1595 57.1637 45.0229 57.4592 44.9459C57.7572 44.8665 58.0503 44.8267 58.3384 44.8267C58.5221 44.8267 58.7332 44.8491 58.9716 44.8938C59.2125 44.936 59.4447 45.0242 59.6682 45.1583C59.8942 45.2924 60.0817 45.4948 60.2307 45.7655C60.3797 46.0362 60.4542 46.3987 60.4542 46.8532V50.623H59.5751V49.8482H59.5304C59.4708 49.9724 59.3715 50.1053 59.2324 50.2468C59.0933 50.3884 58.9083 50.5088 58.6773 50.6081C58.4464 50.7075 58.1645 50.7572 57.8317 50.7572ZM57.9658 49.9674C58.3135 49.9674 58.6066 49.8991 58.845 49.7625C59.0859 49.626 59.2672 49.4496 59.3888 49.2336C59.513 49.0175 59.5751 48.7903 59.5751 48.5519V47.7472C59.5378 47.7919 59.4559 47.8329 59.3292 47.8702C59.2051 47.9049 59.061 47.936 58.8971 47.9633C58.7357 47.9881 58.578 48.0105 58.424 48.0303C58.2725 48.0477 58.1496 48.0626 58.0552 48.075C57.8268 48.1048 57.6132 48.1533 57.4145 48.2203C57.2183 48.2849 57.0594 48.383 56.9377 48.5146C56.8185 48.6438 56.7589 48.8201 56.7589 49.0436C56.7589 49.349 56.8719 49.58 57.0979 49.7365C57.3264 49.8904 57.6157 49.9674 57.9658 49.9674ZM65.0092 52.7687V44.9012H65.8585V45.8102H65.9628C66.0274 45.7108 66.1168 45.5842 66.231 45.4302C66.3477 45.2737 66.5141 45.1347 66.7302 45.013C66.9487 44.8888 67.2442 44.8267 67.6168 44.8267C68.0985 44.8267 68.5232 44.9472 68.8908 45.1881C69.2583 45.429 69.5451 45.7704 69.7513 46.2125C69.9574 46.6545 70.0604 47.176 70.0604 47.777C70.0604 48.383 69.9574 48.9082 69.7513 49.3528C69.5451 49.7948 69.2595 50.1375 68.8945 50.3809C68.5294 50.6218 68.1085 50.7423 67.6317 50.7423C67.2641 50.7423 66.9698 50.6814 66.7488 50.5597C66.5278 50.4355 66.3577 50.2952 66.2384 50.1388C66.1192 49.9798 66.0274 49.8482 65.9628 49.7439H65.8883V52.7687H65.0092ZM65.8734 47.7621C65.8734 48.1943 65.9367 48.5755 66.0634 48.9058C66.19 49.2336 66.375 49.4906 66.6184 49.6769C66.8618 49.8606 67.1598 49.9525 67.5124 49.9525C67.88 49.9525 68.1867 49.8557 68.4326 49.662C68.6809 49.4658 68.8672 49.2025 68.9913 48.8722C69.118 48.5394 69.1813 48.1694 69.1813 47.7621C69.1813 47.3598 69.1192 46.9972 68.9951 46.6744C68.8734 46.3491 68.6884 46.092 68.44 45.9033C68.1941 45.7121 67.885 45.6165 67.5124 45.6165C67.1548 45.6165 66.8543 45.7071 66.611 45.8884C66.3676 46.0672 66.1838 46.318 66.0596 46.6409C65.9355 46.9612 65.8734 47.335 65.8734 47.7621ZM71.4015 50.623V44.9012H72.2806V50.623H71.4015ZM71.8485 43.9476C71.6772 43.9476 71.5294 43.8892 71.4052 43.7725C71.2835 43.6558 71.2227 43.5155 71.2227 43.3516C71.2227 43.1877 71.2835 43.0473 71.4052 42.9306C71.5294 42.8139 71.6772 42.7555 71.8485 42.7555C72.0199 42.7555 72.1664 42.8139 72.2881 42.9306C72.4123 43.0473 72.4743 43.1877 72.4743 43.3516C72.4743 43.5155 72.4123 43.6558 72.2881 43.7725C72.1664 43.8892 72.0199 43.9476 71.8485 43.9476ZM76.2898 50.7423C75.7385 50.7423 75.2629 50.6206 74.8631 50.3772C74.4657 50.1313 74.159 49.7886 73.943 49.349C73.7294 48.907 73.6226 48.3929 73.6226 47.8068C73.6226 47.2207 73.7294 46.7042 73.943 46.2572C74.159 45.8077 74.4595 45.4575 74.8445 45.2067C75.2319 44.9534 75.6839 44.8267 76.2004 44.8267C76.4984 44.8267 76.7927 44.8764 77.0833 44.9757C77.3738 45.0751 77.6383 45.2365 77.8767 45.46C78.1151 45.681 78.3051 45.9741 78.4467 46.3391C78.5882 46.7042 78.659 47.1537 78.659 47.6876V48.0601H74.2484V47.3002H77.765C77.765 46.9774 77.7004 46.6893 77.5713 46.436C77.4446 46.1827 77.2633 45.9828 77.0274 45.8362C76.794 45.6897 76.5183 45.6165 76.2004 45.6165C75.8502 45.6165 75.5473 45.7034 75.2915 45.8772C75.0382 46.0486 74.8432 46.2721 74.7066 46.5477C74.57 46.8234 74.5017 47.1189 74.5017 47.4343V47.9409C74.5017 48.3731 74.5763 48.7394 74.7253 49.0399C74.8767 49.3379 75.0866 49.5651 75.3548 49.7216C75.623 49.8755 75.9347 49.9525 76.2898 49.9525C76.5208 49.9525 76.7294 49.9202 76.9156 49.8557C77.1044 49.7886 77.267 49.6893 77.4036 49.5577C77.5402 49.4236 77.6458 49.2572 77.7203 49.0585L78.5696 49.2969C78.4802 49.585 78.33 49.8383 78.1189 50.0568C77.9078 50.2729 77.647 50.4418 77.3366 50.5634C77.0262 50.6826 76.6772 50.7423 76.2898 50.7423ZM82.3208 50.7423C81.7844 50.7423 81.3225 50.6156 80.9351 50.3623C80.5477 50.109 80.2496 49.7601 80.041 49.3155C79.8324 48.871 79.7281 48.3631 79.7281 47.7919C79.7281 47.2108 79.8349 46.698 80.0485 46.2535C80.2645 45.8064 80.565 45.4575 80.95 45.2067C81.3374 44.9534 81.7894 44.8267 82.3059 44.8267C82.7082 44.8267 83.0708 44.9012 83.3937 45.0502C83.7165 45.1992 83.981 45.4078 84.1871 45.6761C84.3932 45.9443 84.5211 46.2572 84.5708 46.6148H83.6917C83.6246 46.354 83.4756 46.1231 83.2447 45.9219C83.0162 45.7183 82.7082 45.6165 82.3208 45.6165C81.9781 45.6165 81.6776 45.7059 81.4193 45.8847C81.1635 46.061 80.9636 46.3106 80.8196 46.6334C80.678 46.9538 80.6073 47.33 80.6073 47.7621C80.6073 48.2042 80.6768 48.5891 80.8159 48.9169C80.9574 49.2447 81.1561 49.4993 81.4119 49.6806C81.6702 49.8619 81.9731 49.9525 82.3208 49.9525C82.5493 49.9525 82.7567 49.9128 82.9429 49.8333C83.1292 49.7538 83.2869 49.6396 83.416 49.4906C83.5452 49.3416 83.637 49.1628 83.6917 48.9542H84.5708C84.5211 49.2919 84.3982 49.5961 84.202 49.8668C84.0083 50.1351 83.7513 50.3486 83.4309 50.5076C83.113 50.664 82.743 50.7423 82.3208 50.7423ZM88.255 50.7423C87.7037 50.7423 87.2281 50.6206 86.8282 50.3772C86.4309 50.1313 86.1242 49.7886 85.9081 49.349C85.6946 48.907 85.5878 48.3929 85.5878 47.8068C85.5878 47.2207 85.6946 46.7042 85.9081 46.2572C86.1242 45.8077 86.4247 45.4575 86.8096 45.2067C87.197 44.9534 87.649 44.8267 88.1656 44.8267C88.4636 44.8267 88.7579 44.8764 89.0484 44.9757C89.339 45.0751 89.6035 45.2365 89.8419 45.46C90.0803 45.681 90.2703 45.9741 90.4118 46.3391C90.5534 46.7042 90.6242 47.1537 90.6242 47.6876V48.0601H86.2136V47.3002H89.7301C89.7301 46.9774 89.6656 46.6893 89.5364 46.436C89.4098 46.1827 89.2285 45.9828 88.9926 45.8362C88.7591 45.6897 88.4835 45.6165 88.1656 45.6165C87.8154 45.6165 87.5124 45.7034 87.2566 45.8772C87.0033 46.0486 86.8084 46.2721 86.6718 46.5477C86.5352 46.8234 86.4669 47.1189 86.4669 47.4343V47.9409C86.4669 48.3731 86.5414 48.7394 86.6904 49.0399C86.8419 49.3379 87.0518 49.5651 87.32 49.7216C87.5882 49.8755 87.8998 49.9525 88.255 49.9525C88.4859 49.9525 88.6945 49.9202 88.8808 49.8557C89.0695 49.7886 89.2322 49.6893 89.3688 49.5577C89.5054 49.4236 89.6109 49.2572 89.6854 49.0585L90.5348 49.2969C90.4454 49.585 90.2951 49.8383 90.084 50.0568C89.8729 50.2729 89.6122 50.4418 89.3017 50.5634C88.9913 50.6826 88.6424 50.7423 88.255 50.7423ZM97.2363 50.7423C96.7197 50.7423 96.2665 50.6193 95.8766 50.3735C95.4892 50.1276 95.1862 49.7836 94.9677 49.3416C94.7516 48.8995 94.6436 48.383 94.6436 47.7919C94.6436 47.1959 94.7516 46.6756 94.9677 46.2311C95.1862 45.7866 95.4892 45.4414 95.8766 45.1955C96.2665 44.9497 96.7197 44.8267 97.2363 44.8267C97.7529 44.8267 98.2048 44.9497 98.5923 45.1955C98.9821 45.4414 99.2851 45.7866 99.5012 46.2311C99.7197 46.6756 99.829 47.1959 99.829 47.7919C99.829 48.383 99.7197 48.8995 99.5012 49.3416C99.2851 49.7836 98.9821 50.1276 98.5923 50.3735C98.2048 50.6193 97.7529 50.7423 97.2363 50.7423ZM97.2363 49.9525C97.6287 49.9525 97.9515 49.8519 98.2048 49.6508C98.4581 49.4496 98.6456 49.1851 98.7673 48.8573C98.889 48.5295 98.9499 48.1744 98.9499 47.7919C98.9499 47.4095 98.889 47.0531 98.7673 46.7228C98.6456 46.3925 98.4581 46.1256 98.2048 45.9219C97.9515 45.7183 97.6287 45.6165 97.2363 45.6165C96.8439 45.6165 96.5211 45.7183 96.2678 45.9219C96.0145 46.1256 95.827 46.3925 95.7053 46.7228C95.5836 47.0531 95.5227 47.4095 95.5227 47.7919C95.5227 48.1744 95.5836 48.5295 95.7053 48.8573C95.827 49.1851 96.0145 49.4496 96.2678 49.6508C96.5211 49.8519 96.8439 49.9525 97.2363 49.9525ZM103.719 44.9012V45.6463H100.635V44.9012H103.719ZM101.558 50.623V44.1115C101.558 43.7837 101.635 43.5105 101.789 43.292C101.943 43.0734 102.143 42.9095 102.389 42.8002C102.635 42.691 102.894 42.6363 103.168 42.6363C103.384 42.6363 103.56 42.6537 103.697 42.6885C103.833 42.7233 103.935 42.7555 104.002 42.7853L103.749 43.5453C103.704 43.5304 103.642 43.5117 103.563 43.4894C103.486 43.467 103.384 43.4559 103.257 43.4559C102.966 43.4559 102.757 43.5291 102.628 43.6757C102.501 43.8222 102.438 44.037 102.438 44.3201V50.623H101.558ZM110.226 50.7423C109.689 50.7423 109.228 50.6156 108.84 50.3623C108.453 50.109 108.155 49.7601 107.946 49.3155C107.737 48.871 107.633 48.3631 107.633 47.7919C107.633 47.2108 107.74 46.698 107.954 46.2535C108.17 45.8064 108.47 45.4575 108.855 45.2067C109.242 44.9534 109.694 44.8267 110.211 44.8267C110.613 44.8267 110.976 44.9012 111.299 45.0502C111.622 45.1992 111.886 45.4078 112.092 45.6761C112.298 45.9443 112.426 46.2572 112.476 46.6148H111.597C111.53 46.354 111.381 46.1231 111.15 45.9219C110.921 45.7183 110.613 45.6165 110.226 45.6165C109.883 45.6165 109.583 45.7059 109.324 45.8847C109.069 46.061 108.869 46.3106 108.725 46.6334C108.583 46.9538 108.512 47.33 108.512 47.7621C108.512 48.2042 108.582 48.5891 108.721 48.9169C108.862 49.2447 109.061 49.4993 109.317 49.6806C109.575 49.8619 109.878 49.9525 110.226 49.9525C110.454 49.9525 110.662 49.9128 110.848 49.8333C111.034 49.7538 111.192 49.6396 111.321 49.4906C111.45 49.3416 111.542 49.1628 111.597 48.9542H112.476C112.426 49.2919 112.303 49.5961 112.107 49.8668C111.913 50.1351 111.656 50.3486 111.336 50.5076C111.018 50.664 110.648 50.7423 110.226 50.7423ZM115.445 50.7572C115.082 50.7572 114.753 50.6889 114.458 50.5523C114.162 50.4132 113.927 50.2133 113.754 49.9525C113.58 49.6893 113.493 49.3714 113.493 48.9989C113.493 48.6711 113.557 48.4053 113.687 48.2017C113.816 47.9956 113.988 47.8342 114.204 47.7174C114.42 47.6007 114.659 47.5138 114.92 47.4567C115.183 47.3971 115.447 47.3499 115.713 47.3151C116.061 47.2704 116.343 47.2369 116.559 47.2145C116.777 47.1897 116.936 47.1487 117.035 47.0916C117.137 47.0345 117.188 46.9352 117.188 46.7936V46.7638C117.188 46.3963 117.088 46.1107 116.886 45.907C116.688 45.7034 116.386 45.6016 115.981 45.6016C115.562 45.6016 115.232 45.6934 114.994 45.8772C114.756 46.061 114.588 46.2572 114.491 46.4658L113.657 46.1678C113.806 45.8201 114.004 45.5494 114.253 45.3557C114.504 45.1595 114.777 45.0229 115.072 44.9459C115.37 44.8665 115.663 44.8267 115.951 44.8267C116.135 44.8267 116.346 44.8491 116.585 44.8938C116.826 44.936 117.058 45.0242 117.281 45.1583C117.507 45.2924 117.695 45.4948 117.844 45.7655C117.993 46.0362 118.067 46.3987 118.067 46.8532V50.623H117.188V49.8482H117.143C117.084 49.9724 116.985 50.1053 116.845 50.2468C116.706 50.3884 116.521 50.5088 116.29 50.6081C116.059 50.7075 115.778 50.7572 115.445 50.7572ZM115.579 49.9674C115.927 49.9674 116.22 49.8991 116.458 49.7625C116.699 49.626 116.88 49.4496 117.002 49.2336C117.126 49.0175 117.188 48.7903 117.188 48.5519V47.7472C117.151 47.7919 117.069 47.8329 116.942 47.8702C116.818 47.9049 116.674 47.936 116.51 47.9633C116.349 47.9881 116.191 48.0105 116.037 48.0303C115.886 48.0477 115.763 48.0626 115.668 48.075C115.44 48.1048 115.226 48.1533 115.028 48.2203C114.831 48.2849 114.672 48.383 114.551 48.5146C114.432 48.6438 114.372 48.8201 114.372 49.0436C114.372 49.349 114.485 49.58 114.711 49.7365C114.939 49.8904 115.229 49.9674 115.579 49.9674ZM120.491 48.537L120.477 47.4492H120.655L123.159 44.9012H124.246L121.579 47.5982H121.505L120.491 48.537ZM119.672 50.623V42.994H120.551V50.623H119.672ZM123.308 50.623L121.073 47.7919L121.698 47.181L124.425 50.623H123.308ZM127.541 50.7423C126.99 50.7423 126.514 50.6206 126.115 50.3772C125.717 50.1313 125.41 49.7886 125.194 49.349C124.981 48.907 124.874 48.3929 124.874 47.8068C124.874 47.2207 124.981 46.7042 125.194 46.2572C125.41 45.8077 125.711 45.4575 126.096 45.2067C126.483 44.9534 126.935 44.8267 127.452 44.8267C127.75 44.8267 128.044 44.8764 128.335 44.9757C128.625 45.0751 128.89 45.2365 129.128 45.46C129.367 45.681 129.557 45.9741 129.698 46.3391C129.84 46.7042 129.91 47.1537 129.91 47.6876V48.0601H125.5V47.3002H129.016C129.016 46.9774 128.952 46.6893 128.823 46.436C128.696 46.1827 128.515 45.9828 128.279 45.8362C128.045 45.6897 127.77 45.6165 127.452 45.6165C127.102 45.6165 126.799 45.7034 126.543 45.8772C126.29 46.0486 126.095 46.2721 125.958 46.5477C125.821 46.8234 125.753 47.1189 125.753 47.4343V47.9409C125.753 48.3731 125.828 48.7394 125.977 49.0399C126.128 49.3379 126.338 49.5651 126.606 49.7216C126.874 49.8755 127.186 49.9525 127.541 49.9525C127.772 49.9525 127.981 49.9202 128.167 49.8557C128.356 49.7886 128.518 49.6893 128.655 49.5577C128.792 49.4236 128.897 49.2572 128.972 49.0585L129.821 49.2969C129.732 49.585 129.581 49.8383 129.37 50.0568C129.159 50.2729 128.898 50.4418 128.588 50.5634C128.278 50.6826 127.929 50.7423 127.541 50.7423Z" fill="#131C32"/>
<path d="M232.721 59.3227H38V60.6339H232.721V59.3227Z" fill="#B6C1E6" mask="url(#path-9-inside-1_7672_169365)"/>
<path d="M258.782 35H257.016V29.2782H258.86C259.415 29.2782 259.89 29.3927 260.285 29.6218C260.68 29.8491 260.982 30.1759 261.193 30.6025C261.403 31.0271 261.509 31.5356 261.509 32.1279C261.509 32.7239 261.402 33.2371 261.19 33.6673C260.978 34.0957 260.669 34.4254 260.263 34.6564C259.857 34.8855 259.363 35 258.782 35ZM257.709 34.3854H258.737C259.21 34.3854 259.602 34.2941 259.913 34.1116C260.224 33.929 260.456 33.6692 260.609 33.3321C260.762 32.9949 260.838 32.5936 260.838 32.1279C260.838 31.666 260.763 31.2683 260.612 30.9349C260.461 30.5997 260.236 30.3426 259.936 30.1638C259.636 29.9832 259.262 29.8928 258.815 29.8928H257.709V34.3854ZM264.381 35.0894C263.967 35.0894 263.611 34.9981 263.311 34.8156C263.013 34.6312 262.783 34.3742 262.621 34.0445C262.46 33.713 262.38 33.3274 262.38 32.8878C262.38 32.4483 262.46 32.0609 262.621 31.7256C262.783 31.3885 263.008 31.1259 263.297 30.9377C263.587 30.7477 263.926 30.6528 264.314 30.6528C264.537 30.6528 264.758 30.69 264.976 30.7645C265.194 30.839 265.392 30.9601 265.571 31.1277C265.75 31.2935 265.892 31.5133 265.998 31.7871C266.105 32.0609 266.158 32.398 266.158 32.7984V33.0778H262.85V32.5079H265.487C265.487 32.2657 265.439 32.0497 265.342 31.8597C265.247 31.6697 265.111 31.5198 264.934 31.4099C264.759 31.3 264.552 31.2451 264.314 31.2451C264.051 31.2451 263.824 31.3102 263.632 31.4406C263.442 31.5691 263.296 31.7368 263.193 31.9435C263.091 32.1503 263.04 32.3719 263.04 32.6085V32.9884C263.04 33.3125 263.096 33.5872 263.207 33.8126C263.321 34.0361 263.478 34.2065 263.679 34.3239C263.881 34.4394 264.114 34.4971 264.381 34.4971C264.554 34.4971 264.71 34.4729 264.85 34.4245C264.992 34.3742 265.114 34.2997 265.216 34.201C265.319 34.1004 265.398 33.9756 265.454 33.8266L266.091 34.0054C266.024 34.2214 265.911 34.4114 265.753 34.5753C265.594 34.7374 265.399 34.864 265.166 34.9553C264.933 35.0447 264.671 35.0894 264.381 35.0894ZM269.072 30.7086V31.2674H266.758V30.7086H269.072ZM267.451 35V30.1163C267.451 29.8705 267.509 29.6656 267.624 29.5017C267.74 29.3378 267.89 29.2149 268.074 29.1329C268.259 29.0509 268.453 29.01 268.658 29.01C268.82 29.01 268.952 29.023 269.055 29.0491C269.157 29.0752 269.234 29.0994 269.284 29.1217L269.094 29.6917C269.06 29.6805 269.014 29.6665 268.954 29.6498C268.897 29.633 268.82 29.6246 268.725 29.6246C268.507 29.6246 268.35 29.6796 268.253 29.7895C268.158 29.8993 268.111 30.0605 268.111 30.2728V35H267.451ZM269.996 35V30.7086H270.655V35H269.996ZM270.331 29.9934C270.202 29.9934 270.092 29.9496 269.998 29.8621C269.907 29.7746 269.862 29.6693 269.862 29.5464C269.862 29.4235 269.907 29.3182 269.998 29.2307C270.092 29.1431 270.202 29.0994 270.331 29.0994C270.459 29.0994 270.569 29.1431 270.661 29.2307C270.754 29.3182 270.8 29.4235 270.8 29.5464C270.8 29.6693 270.754 29.7746 270.661 29.8621C270.569 29.9496 270.459 29.9934 270.331 29.9934ZM272.522 32.4185V35H271.863V30.7086H272.5V31.3792H272.556C272.656 31.1612 272.809 30.9862 273.014 30.8539C273.219 30.7198 273.483 30.6528 273.807 30.6528C274.098 30.6528 274.352 30.7124 274.57 30.8316C274.788 30.9489 274.957 31.1277 275.078 31.368C275.199 31.6064 275.26 31.9081 275.26 32.2732V35H274.601V32.3179C274.601 31.9808 274.513 31.7181 274.338 31.53C274.163 31.34 273.923 31.2451 273.617 31.2451C273.407 31.2451 273.219 31.2907 273.053 31.382C272.889 31.4732 272.76 31.6064 272.665 31.7815C272.57 31.9566 272.522 32.1689 272.522 32.4185ZM276.465 35V30.7086H277.124V35H276.465ZM276.8 29.9934C276.672 29.9934 276.561 29.9496 276.468 29.8621C276.376 29.7746 276.331 29.6693 276.331 29.5464C276.331 29.4235 276.376 29.3182 276.468 29.2307C276.561 29.1431 276.672 29.0994 276.8 29.0994C276.929 29.0994 277.039 29.1431 277.13 29.2307C277.223 29.3182 277.269 29.4235 277.269 29.5464C277.269 29.6693 277.223 29.7746 277.13 29.8621C277.039 29.9496 276.929 29.9934 276.8 29.9934ZM280.198 30.7086V31.2674H277.974V30.7086H280.198ZM278.622 29.6805H279.282V33.7707C279.282 33.957 279.309 34.0967 279.363 34.1898C279.419 34.281 279.489 34.3425 279.575 34.3742C279.663 34.404 279.755 34.4189 279.852 34.4189C279.924 34.4189 279.984 34.4152 280.031 34.4077C280.077 34.3984 280.114 34.3909 280.142 34.3854L280.276 34.9776C280.232 34.9944 280.169 35.0112 280.089 35.0279C280.009 35.0466 279.908 35.0559 279.785 35.0559C279.598 35.0559 279.416 35.0158 279.237 34.9357C279.06 34.8557 278.913 34.7337 278.796 34.5697C278.68 34.4058 278.622 34.1991 278.622 33.9495V29.6805ZM281.19 35V30.7086H281.849V35H281.19ZM281.525 29.9934C281.397 29.9934 281.286 29.9496 281.193 29.8621C281.102 29.7746 281.056 29.6693 281.056 29.5464C281.056 29.4235 281.102 29.3182 281.193 29.2307C281.286 29.1431 281.397 29.0994 281.525 29.0994C281.654 29.0994 281.764 29.1431 281.855 29.2307C281.948 29.3182 281.995 29.4235 281.995 29.5464C281.995 29.6693 281.948 29.7746 281.855 29.8621C281.764 29.9496 281.654 29.9934 281.525 29.9934ZM284.8 35.0894C284.413 35.0894 284.073 34.9972 283.781 34.8128C283.49 34.6284 283.263 34.3705 283.099 34.0389C282.937 33.7074 282.856 33.32 282.856 32.8767C282.856 32.4297 282.937 32.0394 283.099 31.706C283.263 31.3726 283.49 31.1137 283.781 30.9293C284.073 30.745 284.413 30.6528 284.8 30.6528C285.188 30.6528 285.527 30.745 285.817 30.9293C286.11 31.1137 286.337 31.3726 286.499 31.706C286.663 32.0394 286.745 32.4297 286.745 32.8767C286.745 33.32 286.663 33.7074 286.499 34.0389C286.337 34.3705 286.11 34.6284 285.817 34.8128C285.527 34.9972 285.188 35.0894 284.8 35.0894ZM284.8 34.4971C285.095 34.4971 285.337 34.4217 285.527 34.2708C285.717 34.1199 285.857 33.9216 285.949 33.6757C286.04 33.4299 286.086 33.1635 286.086 32.8767C286.086 32.5898 286.04 32.3226 285.949 32.0748C285.857 31.8271 285.717 31.6269 285.527 31.4742C285.337 31.3214 285.095 31.2451 284.8 31.2451C284.506 31.2451 284.264 31.3214 284.074 31.4742C283.884 31.6269 283.743 31.8271 283.652 32.0748C283.561 32.3226 283.515 32.5898 283.515 32.8767C283.515 33.1635 283.561 33.4299 283.652 33.6757C283.743 33.9216 283.884 34.1199 284.074 34.2708C284.264 34.4217 284.506 34.4971 284.8 34.4971ZM288.411 32.4185V35H287.751V30.7086H288.388V31.3792H288.444C288.545 31.1612 288.698 30.9862 288.902 30.8539C289.107 30.7198 289.372 30.6528 289.696 30.6528C289.986 30.6528 290.241 30.7124 290.459 30.8316C290.677 30.9489 290.846 31.1277 290.967 31.368C291.088 31.6064 291.149 31.9081 291.149 32.2732V35H290.489V32.3179C290.489 31.9808 290.402 31.7181 290.227 31.53C290.052 31.34 289.811 31.2451 289.506 31.2451C289.295 31.2451 289.107 31.2907 288.942 31.382C288.778 31.4732 288.648 31.6064 288.553 31.7815C288.458 31.9566 288.411 32.1689 288.411 32.4185Z" fill="#7B839D"/>
<path d="M258.171 42.994V50.623H257.247V42.994H258.171ZM262.392 44.9012V45.6463H259.427V44.9012H262.392ZM260.291 43.5304H261.171V48.984C261.171 49.2323 261.207 49.4186 261.279 49.5428C261.353 49.6644 261.447 49.7464 261.562 49.7886C261.678 49.8283 261.801 49.8482 261.931 49.8482C262.027 49.8482 262.107 49.8433 262.169 49.8333C262.231 49.8209 262.281 49.811 262.318 49.8035L262.497 50.5932C262.437 50.6156 262.354 50.6379 262.247 50.6603C262.14 50.6851 262.005 50.6975 261.841 50.6975C261.593 50.6975 261.349 50.6442 261.111 50.5374C260.875 50.4306 260.679 50.2679 260.522 50.0494C260.368 49.8308 260.291 49.5552 260.291 49.2224V43.5304ZM264.475 42.994V45.6165H263.655V42.994H264.475ZM270.093 46.1827L269.304 46.4062C269.254 46.2746 269.181 46.1467 269.084 46.0225C268.989 45.8958 268.86 45.7915 268.696 45.7096C268.532 45.6276 268.323 45.5867 268.067 45.5867C267.717 45.5867 267.425 45.6674 267.191 45.8288C266.96 45.9877 266.845 46.1901 266.845 46.436C266.845 46.6545 266.924 46.8271 267.083 46.9538C267.242 47.0804 267.491 47.186 267.828 47.2704L268.678 47.479C269.189 47.6032 269.57 47.7932 269.821 48.049C270.072 48.3023 270.198 48.6289 270.198 49.0287C270.198 49.3565 270.103 49.6495 269.914 49.9078C269.728 50.1661 269.467 50.3697 269.132 50.5187C268.797 50.6677 268.407 50.7423 267.962 50.7423C267.379 50.7423 266.896 50.6156 266.513 50.3623C266.131 50.109 265.889 49.7389 265.787 49.2522L266.621 49.0436C266.701 49.3515 266.851 49.5825 267.072 49.7365C267.296 49.8904 267.587 49.9674 267.948 49.9674C268.357 49.9674 268.683 49.8805 268.924 49.7067C269.167 49.5303 269.289 49.3192 269.289 49.0734C269.289 48.8747 269.219 48.7083 269.08 48.5742C268.941 48.4376 268.727 48.3358 268.439 48.2688L267.486 48.0452C266.962 47.9211 266.577 47.7286 266.331 47.4679C266.087 47.2046 265.966 46.8756 265.966 46.4807C265.966 46.1578 266.056 45.8722 266.238 45.6239C266.421 45.3756 266.671 45.1806 266.986 45.0391C267.304 44.8975 267.664 44.8267 268.067 44.8267C268.633 44.8267 269.078 44.9509 269.4 45.1992C269.726 45.4476 269.957 45.7754 270.093 46.1827ZM276.87 50.7423C276.319 50.7423 275.843 50.6206 275.443 50.3772C275.046 50.1313 274.739 49.7886 274.523 49.349C274.31 48.907 274.203 48.3929 274.203 47.8068C274.203 47.2207 274.31 46.7042 274.523 46.2572C274.739 45.8077 275.04 45.4575 275.425 45.2067C275.812 44.9534 276.264 44.8267 276.781 44.8267C277.079 44.8267 277.373 44.8764 277.664 44.9757C277.954 45.0751 278.219 45.2365 278.457 45.46C278.696 45.681 278.886 45.9741 279.027 46.3391C279.169 46.7042 279.239 47.1537 279.239 47.6876V48.0601H274.829V47.3002H278.345C278.345 46.9774 278.281 46.6893 278.152 46.436C278.025 46.1827 277.844 45.9828 277.608 45.8362C277.374 45.6897 277.099 45.6165 276.781 45.6165C276.431 45.6165 276.128 45.7034 275.872 45.8772C275.619 46.0486 275.424 46.2721 275.287 46.5477C275.15 46.8234 275.082 47.1189 275.082 47.4343V47.9409C275.082 48.3731 275.157 48.7394 275.306 49.0399C275.457 49.3379 275.667 49.5651 275.935 49.7216C276.203 49.8755 276.515 49.9525 276.87 49.9525C277.101 49.9525 277.31 49.9202 277.496 49.8557C277.685 49.7886 277.847 49.6893 277.984 49.5577C278.121 49.4236 278.226 49.2572 278.301 49.0585L279.15 49.2969C279.061 49.585 278.91 49.8383 278.699 50.0568C278.488 50.2729 278.227 50.4418 277.917 50.5634C277.607 50.6826 277.258 50.7423 276.87 50.7423ZM282.26 50.7572C281.898 50.7572 281.569 50.6889 281.273 50.5523C280.978 50.4132 280.743 50.2133 280.569 49.9525C280.395 49.6893 280.309 49.3714 280.309 48.9989C280.309 48.6711 280.373 48.4053 280.502 48.2017C280.631 47.9956 280.804 47.8342 281.02 47.7174C281.236 47.6007 281.474 47.5138 281.735 47.4567C281.998 47.3971 282.263 47.3499 282.529 47.3151C282.876 47.2704 283.158 47.2369 283.374 47.2145C283.593 47.1897 283.752 47.1487 283.851 47.0916C283.953 47.0345 284.004 46.9352 284.004 46.7936V46.7638C284.004 46.3963 283.903 46.1107 283.702 45.907C283.503 45.7034 283.202 45.6016 282.797 45.6016C282.377 45.6016 282.048 45.6934 281.81 45.8772C281.571 46.061 281.404 46.2572 281.307 46.4658L280.472 46.1678C280.621 45.8201 280.82 45.5494 281.068 45.3557C281.319 45.1595 281.592 45.0229 281.888 44.9459C282.186 44.8665 282.479 44.8267 282.767 44.8267C282.951 44.8267 283.162 44.8491 283.4 44.8938C283.641 44.936 283.873 45.0242 284.097 45.1583C284.323 45.2924 284.51 45.4948 284.659 45.7655C284.808 46.0362 284.883 46.3987 284.883 46.8532V50.623H284.004V49.8482H283.959C283.9 49.9724 283.8 50.1053 283.661 50.2468C283.522 50.3884 283.337 50.5088 283.106 50.6081C282.875 50.7075 282.593 50.7572 282.26 50.7572ZM282.395 49.9674C282.742 49.9674 283.035 49.8991 283.274 49.7625C283.515 49.626 283.696 49.4496 283.818 49.2336C283.942 49.0175 284.004 48.7903 284.004 48.5519V47.7472C283.967 47.7919 283.885 47.8329 283.758 47.8702C283.634 47.9049 283.49 47.936 283.326 47.9633C283.164 47.9881 283.007 48.0105 282.853 48.0303C282.701 48.0477 282.578 48.0626 282.484 48.075C282.256 48.1048 282.042 48.1533 281.843 48.2203C281.647 48.2849 281.488 48.383 281.366 48.5146C281.247 48.6438 281.188 48.8201 281.188 49.0436C281.188 49.349 281.301 49.58 281.527 49.7365C281.755 49.8904 282.044 49.9674 282.395 49.9674ZM290.541 46.1827L289.751 46.4062C289.701 46.2746 289.628 46.1467 289.531 46.0225C289.437 45.8958 289.308 45.7915 289.144 45.7096C288.98 45.6276 288.77 45.5867 288.514 45.5867C288.164 45.5867 287.872 45.6674 287.639 45.8288C287.408 45.9877 287.292 46.1901 287.292 46.436C287.292 46.6545 287.372 46.8271 287.531 46.9538C287.69 47.0804 287.938 47.186 288.276 47.2704L289.125 47.479C289.637 47.6032 290.018 47.7932 290.269 48.049C290.519 48.3023 290.645 48.6289 290.645 49.0287C290.645 49.3565 290.55 49.6495 290.362 49.9078C290.175 50.1661 289.915 50.3697 289.579 50.5187C289.244 50.6677 288.854 50.7423 288.41 50.7423C287.826 50.7423 287.343 50.6156 286.961 50.3623C286.578 50.109 286.336 49.7389 286.234 49.2522L287.069 49.0436C287.148 49.3515 287.298 49.5825 287.519 49.7365C287.743 49.8904 288.035 49.9674 288.395 49.9674C288.805 49.9674 289.13 49.8805 289.371 49.7067C289.614 49.5303 289.736 49.3192 289.736 49.0734C289.736 48.8747 289.666 48.7083 289.527 48.5742C289.388 48.4376 289.175 48.3358 288.887 48.2688L287.933 48.0452C287.409 47.9211 287.024 47.7286 286.778 47.4679C286.535 47.2046 286.413 46.8756 286.413 46.4807C286.413 46.1578 286.504 45.8722 286.685 45.6239C286.869 45.3756 287.118 45.1806 287.434 45.0391C287.752 44.8975 288.112 44.8267 288.514 44.8267C289.08 44.8267 289.525 44.9509 289.848 45.1992C290.173 45.4476 290.404 45.7754 290.541 46.1827ZM292.534 52.7687C292.385 52.7687 292.253 52.7563 292.136 52.7315C292.019 52.7091 291.938 52.6868 291.894 52.6644L292.117 51.8896C292.331 51.9442 292.52 51.9641 292.683 51.9492C292.847 51.9343 292.993 51.861 293.119 51.7294C293.248 51.6003 293.366 51.3904 293.473 51.0999L293.637 50.6528L291.521 44.9012H292.475L294.054 49.4608H294.114L295.693 44.9012H296.647L294.218 51.4575C294.109 51.753 293.974 51.9976 293.812 52.1913C293.651 52.3875 293.463 52.5328 293.25 52.6272C293.039 52.7215 292.8 52.7687 292.534 52.7687Z" fill="#131C32"/>
<path d="M451.044 59.3227H256.323V60.6339H451.044V59.3227Z" fill="#B6C1E6" mask="url(#path-13-inside-2_7672_169365)"/>
<path d="M366.293 1V0.707157H366H9.96251C4.29863 0.707157 -0.292843 5.29863 -0.292843 10.9625V70.0375C-0.292843 75.7014 4.29863 80.2928 9.9625 80.2928H366H366.293V80V1Z" stroke="#E2E7FF" stroke-width="0.585685" shape-rendering="crispEdges"/>
</g>
</g>
</g>
<defs>
<filter id="filter0_d_7672_169365" x="-2.92868" y="-0.757308" width="724.169" height="84.8574" filterUnits="userSpaceOnUse" color-interpolation-filters="sRGB">
<feFlood flood-opacity="0" result="BackgroundImageFix"/>
<feColorMatrix in="SourceAlpha" type="matrix" values="0 0 0 0 0 0 0 0 0 0 0 0 0 0 0 0 0 0 127 0" result="hardAlpha"/>
<feOffset dy="1.17137"/>
<feGaussianBlur stdDeviation="1.17137"/>
<feComposite in2="hardAlpha" operator="out"/>
<feColorMatrix type="matrix" values="0 0 0 0 0.360784 0 0 0 0 0.466667 0 0 0 0 0.94902 0 0 0 0.4 0"/>
<feBlend mode="normal" in2="BackgroundImageFix" result="effect1_dropShadow_7672_169365"/>
<feBlend mode="normal" in="SourceGraphic" in2="effect1_dropShadow_7672_169365" result="shape"/>
</filter>
<clipPath id="clip0_7672_169365">
<rect width="366" height="152" fill="white"/>
</clipPath>
<clipPath id="clip1_7672_169365">
<rect width="442.778" height="87.2748" fill="white"/>
</clipPath>
</defs>
</svg>
