<svg width="52" height="52" viewBox="0 0 52 52" fill="none" xmlns="http://www.w3.org/2000/svg">
    <rect width="52" height="52" rx="16" fill="#F3F5FF"/>
    <mask id="path-2-inside-1_1210_38441" fill="white">
        <path fill-rule="evenodd" clip-rule="evenodd" d="M28.4523 12.0211C27.3411 12.1496 26.4293 12.7478 25.8653 13.7182C25.4867 14.3698 25.4231 14.6864 25.3806 16.1309L25.3422 17.4353H21.7542C17.8466 17.4353 17.8429 17.4356 17.6997 17.8156C17.6616 17.9167 17.6354 19.5112 17.6354 21.7328V25.4794L16.2077 25.5169C14.6232 25.5584 14.3475 25.6124 13.6683 26.0138C12.6339 26.6253 12.0717 27.5765 12.0106 28.8186C11.9834 29.3713 12.0021 29.5352 12.143 29.9771C12.4338 30.8902 12.9786 31.5531 13.8015 31.9955C14.4129 32.3241 14.931 32.4073 16.3757 32.4087L17.6354 32.4098V35.966V39.5222L17.8314 39.7435L18.0274 39.9648L21.9653 39.9839C24.5402 39.9963 25.9929 39.9785 26.1626 39.9324C26.6573 39.7981 26.6675 39.7519 26.7055 37.4917C26.742 35.3195 26.7347 35.3628 27.1638 34.7935C27.7092 34.0699 28.7892 33.7998 29.6427 34.1734C30.0503 34.3519 30.5612 34.8622 30.7455 35.275C30.8974 35.6152 30.9041 35.7016 30.926 37.6063L30.9488 39.5844L31.1124 39.7494C31.2024 39.8402 31.3701 39.9334 31.485 39.9566C31.8456 40.0293 39.2134 40.0042 39.4807 39.9293C39.6206 39.8901 39.7791 39.7813 39.8502 39.6756C39.967 39.5019 39.976 39.2606 39.9951 35.7638C40.0064 33.7141 39.9974 31.9102 39.9751 31.7551C39.9507 31.5845 39.8677 31.4056 39.7651 31.3022L39.5956 31.1311L37.5344 31.1084C35.5787 31.0869 35.4538 31.0779 35.0941 30.9325C34.845 30.8319 34.6113 30.6675 34.4127 30.4533C34.0363 30.0475 33.926 29.8351 33.8355 29.3409C33.6619 28.3939 34.1359 27.4597 34.9991 27.048L35.4061 26.8538L37.3209 26.8533C38.4063 26.8531 39.3418 26.8231 39.4807 26.7843C39.6206 26.745 39.7791 26.6362 39.8502 26.5305C39.9681 26.3552 39.9747 26.1212 39.9747 22.0952V17.8449L39.7885 17.657L39.6022 17.4691L35.9085 17.4505L32.2147 17.4319L32.2136 16.2986C32.2129 15.577 32.1774 14.9987 32.116 14.7066C31.7596 13.0104 30.1431 11.8255 28.4523 12.0211ZM29.6617 13.4679C30.144 13.7182 30.4806 14.0597 30.6954 14.5168L30.9046 14.9621L30.9382 16.6713C30.9709 18.3375 30.9756 18.3843 31.1248 18.5346L31.2778 18.6888L34.9712 18.7074L38.6646 18.726V22.1035V25.4809L37.0017 25.5162C35.1335 25.5561 34.9069 25.5981 34.1517 26.0456C33.3333 26.5306 32.7112 27.4535 32.5484 28.4243C32.2567 30.1623 33.4775 31.9379 35.22 32.3103C35.5359 32.3778 36.1315 32.4078 37.1697 32.4087L38.6646 32.4098V35.5267V38.6436H35.4397H32.2147L32.2136 37.2715C32.2118 35.2193 32.037 34.6077 31.2088 33.7574C30.6753 33.2098 30.0358 32.8695 29.3055 32.7449C27.6888 32.469 26.0312 33.5414 25.5295 35.1879C25.4431 35.4714 25.4073 35.9294 25.3797 37.1021L25.3435 38.6436H22.1277H18.9119L18.9117 35.1371C18.9115 31.7708 18.9062 31.6218 18.7794 31.4122C18.7068 31.2921 18.5784 31.1783 18.4941 31.1593C18.4098 31.1404 17.5699 31.1167 16.6276 31.1067L14.9144 31.0885L14.4728 30.8775C14.0226 30.6623 13.6922 30.3327 13.4279 29.835C13.2312 29.4646 13.2485 28.4121 13.4579 28.016C13.6972 27.5631 14.1356 27.1621 14.5705 26.998C14.9229 26.865 15.0838 26.8536 16.6134 26.8535C18.4287 26.8534 18.6443 26.8138 18.826 26.4471C18.8901 26.3178 18.9102 25.3836 18.9109 22.5002L18.9119 18.7227H22.5586C25.8213 18.7227 26.2218 18.711 26.3617 18.6121C26.6684 18.3955 26.7054 18.1652 26.7062 16.4719C26.7068 14.9428 26.7118 14.8834 26.8706 14.5395C27.0826 14.0802 27.5588 13.6175 28.001 13.4409C28.4428 13.2645 29.2964 13.2784 29.6617 13.4679Z"/>
    </mask>
    <path fill-rule="evenodd" clip-rule="evenodd" d="M28.4523 12.0211C27.3411 12.1496 26.4293 12.7478 25.8653 13.7182C25.4867 14.3698 25.4231 14.6864 25.3806 16.1309L25.3422 17.4353H21.7542C17.8466 17.4353 17.8429 17.4356 17.6997 17.8156C17.6616 17.9167 17.6354 19.5112 17.6354 21.7328V25.4794L16.2077 25.5169C14.6232 25.5584 14.3475 25.6124 13.6683 26.0138C12.6339 26.6253 12.0717 27.5765 12.0106 28.8186C11.9834 29.3713 12.0021 29.5352 12.143 29.9771C12.4338 30.8902 12.9786 31.5531 13.8015 31.9955C14.4129 32.3241 14.931 32.4073 16.3757 32.4087L17.6354 32.4098V35.966V39.5222L17.8314 39.7435L18.0274 39.9648L21.9653 39.9839C24.5402 39.9963 25.9929 39.9785 26.1626 39.9324C26.6573 39.7981 26.6675 39.7519 26.7055 37.4917C26.742 35.3195 26.7347 35.3628 27.1638 34.7935C27.7092 34.0699 28.7892 33.7998 29.6427 34.1734C30.0503 34.3519 30.5612 34.8622 30.7455 35.275C30.8974 35.6152 30.9041 35.7016 30.926 37.6063L30.9488 39.5844L31.1124 39.7494C31.2024 39.8402 31.3701 39.9334 31.485 39.9566C31.8456 40.0293 39.2134 40.0042 39.4807 39.9293C39.6206 39.8901 39.7791 39.7813 39.8502 39.6756C39.967 39.5019 39.976 39.2606 39.9951 35.7638C40.0064 33.7141 39.9974 31.9102 39.9751 31.7551C39.9507 31.5845 39.8677 31.4056 39.7651 31.3022L39.5956 31.1311L37.5344 31.1084C35.5787 31.0869 35.4538 31.0779 35.0941 30.9325C34.845 30.8319 34.6113 30.6675 34.4127 30.4533C34.0363 30.0475 33.926 29.8351 33.8355 29.3409C33.6619 28.3939 34.1359 27.4597 34.9991 27.048L35.4061 26.8538L37.3209 26.8533C38.4063 26.8531 39.3418 26.8231 39.4807 26.7843C39.6206 26.745 39.7791 26.6362 39.8502 26.5305C39.9681 26.3552 39.9747 26.1212 39.9747 22.0952V17.8449L39.7885 17.657L39.6022 17.4691L35.9085 17.4505L32.2147 17.4319L32.2136 16.2986C32.2129 15.577 32.1774 14.9987 32.116 14.7066C31.7596 13.0104 30.1431 11.8255 28.4523 12.0211ZM29.6617 13.4679C30.144 13.7182 30.4806 14.0597 30.6954 14.5168L30.9046 14.9621L30.9382 16.6713C30.9709 18.3375 30.9756 18.3843 31.1248 18.5346L31.2778 18.6888L34.9712 18.7074L38.6646 18.726V22.1035V25.4809L37.0017 25.5162C35.1335 25.5561 34.9069 25.5981 34.1517 26.0456C33.3333 26.5306 32.7112 27.4535 32.5484 28.4243C32.2567 30.1623 33.4775 31.9379 35.22 32.3103C35.5359 32.3778 36.1315 32.4078 37.1697 32.4087L38.6646 32.4098V35.5267V38.6436H35.4397H32.2147L32.2136 37.2715C32.2118 35.2193 32.037 34.6077 31.2088 33.7574C30.6753 33.2098 30.0358 32.8695 29.3055 32.7449C27.6888 32.469 26.0312 33.5414 25.5295 35.1879C25.4431 35.4714 25.4073 35.9294 25.3797 37.1021L25.3435 38.6436H22.1277H18.9119L18.9117 35.1371C18.9115 31.7708 18.9062 31.6218 18.7794 31.4122C18.7068 31.2921 18.5784 31.1783 18.4941 31.1593C18.4098 31.1404 17.5699 31.1167 16.6276 31.1067L14.9144 31.0885L14.4728 30.8775C14.0226 30.6623 13.6922 30.3327 13.4279 29.835C13.2312 29.4646 13.2485 28.4121 13.4579 28.016C13.6972 27.5631 14.1356 27.1621 14.5705 26.998C14.9229 26.865 15.0838 26.8536 16.6134 26.8535C18.4287 26.8534 18.6443 26.8138 18.826 26.4471C18.8901 26.3178 18.9102 25.3836 18.9109 22.5002L18.9119 18.7227H22.5586C25.8213 18.7227 26.2218 18.711 26.3617 18.6121C26.6684 18.3955 26.7054 18.1652 26.7062 16.4719C26.7068 14.9428 26.7118 14.8834 26.8706 14.5395C27.0826 14.0802 27.5588 13.6175 28.001 13.4409C28.4428 13.2645 29.2964 13.2784 29.6617 13.4679Z" fill="#5C77F2"/>
    <path d="M28.4523 12.0211L29.0268 16.988L29.027 16.988L28.4523 12.0211ZM25.8653 13.7182L21.5423 11.206L21.5422 11.2062L25.8653 13.7182ZM25.3806 16.1309L30.3784 16.2782L30.3784 16.2781L25.3806 16.1309ZM25.3422 17.4353V22.4353H30.197L30.34 17.5825L25.3422 17.4353ZM17.6997 17.8156L13.0211 16.0519L13.0205 16.0535L17.6997 17.8156ZM17.6354 25.4794L17.7666 30.4777L22.6354 30.3499V25.4794H17.6354ZM16.2077 25.5169L16.3387 30.5152L16.3389 30.5152L16.2077 25.5169ZM13.6683 26.0138L16.2125 30.3182L16.2126 30.3181L13.6683 26.0138ZM12.0106 28.8186L17.0046 29.0645L17.0046 29.0642L12.0106 28.8186ZM12.143 29.9771L16.9071 28.4595L16.907 28.4593L12.143 29.9771ZM13.8015 31.9955L11.4342 36.3995L11.4343 36.3996L13.8015 31.9955ZM16.3757 32.4087L16.371 37.4086H16.3711L16.3757 32.4087ZM17.6354 32.4098H22.6354V27.4144L17.64 27.4098L17.6354 32.4098ZM17.6354 39.5222H12.6354V41.418L13.8922 42.8372L17.6354 39.5222ZM17.8314 39.7435L14.0882 43.0585L14.0888 43.0591L17.8314 39.7435ZM18.0274 39.9648L14.2849 43.2804L15.7675 44.954L18.0033 44.9648L18.0274 39.9648ZM21.9653 39.9839L21.9895 34.9839H21.9894L21.9653 39.9839ZM26.1626 39.9324L27.4731 44.7576L27.4732 44.7576L26.1626 39.9324ZM26.7055 37.4917L21.7062 37.4077L26.7055 37.4917ZM27.1638 34.7935L23.1711 31.7837L23.171 31.7839L27.1638 34.7935ZM29.6427 34.1734L31.6478 29.5931L31.6478 29.5931L29.6427 34.1734ZM30.7455 35.275L26.1799 37.3134L26.18 37.3136L30.7455 35.275ZM30.926 37.6063L35.9257 37.5489L35.9257 37.5486L30.926 37.6063ZM30.9488 39.5844L25.9491 39.6418L25.9723 41.6674L27.3989 43.1056L30.9488 39.5844ZM31.1124 39.7494L34.6642 36.2302L34.6622 36.2282L31.1124 39.7494ZM31.485 39.9566L32.4733 35.0552L32.4731 35.0552L31.485 39.9566ZM39.4807 39.9293L40.8295 44.744L40.8303 44.7437L39.4807 39.9293ZM39.8502 39.6756L35.7017 36.8846L35.7011 36.8854L39.8502 39.6756ZM39.9951 35.7638L34.9952 35.7363L34.9952 35.7365L39.9951 35.7638ZM39.9751 31.7551L35.0257 32.4646L35.026 32.4669L39.9751 31.7551ZM39.7651 31.3022L36.2139 34.822L36.2146 34.8227L39.7651 31.3022ZM39.5956 31.1311L43.1468 27.6113L41.7024 26.154L39.6506 26.1314L39.5956 31.1311ZM37.5344 31.1084L37.4793 36.1081H37.4793L37.5344 31.1084ZM35.0941 30.9325L33.2205 35.5682L33.221 35.5684L35.0941 30.9325ZM34.4127 30.4533L38.079 27.0536L38.0786 27.0532L34.4127 30.4533ZM33.8355 29.3409L38.7535 28.4395L38.7535 28.4393L33.8355 29.3409ZM34.9991 27.048L37.1519 31.5607L37.1521 31.5606L34.9991 27.048ZM35.4061 26.8538L35.4048 21.8538L34.2738 21.8541L33.253 22.3411L35.4061 26.8538ZM37.3209 26.8533L37.3199 21.8533H37.3196L37.3209 26.8533ZM39.4807 26.7843L40.8291 31.599L40.8303 31.5987L39.4807 26.7843ZM39.8502 26.5305L35.7015 23.7398L35.7011 23.7403L39.8502 26.5305ZM39.9747 17.8449H44.9747V15.7862L43.5252 14.3243L39.9747 17.8449ZM39.7885 17.657L36.2373 21.1769L36.238 21.1775L39.7885 17.657ZM39.6022 17.4691L43.1534 13.9493L41.6967 12.4796L39.6274 12.4692L39.6022 17.4691ZM35.9085 17.4505L35.8833 22.4504H35.8833L35.9085 17.4505ZM32.2147 17.4319L27.2147 17.4369L27.2197 22.4067L32.1895 22.4318L32.2147 17.4319ZM32.2136 16.2986L37.2136 16.2936V16.2935L32.2136 16.2986ZM32.116 14.7066L37.0093 13.6791L37.0092 13.6784L32.116 14.7066ZM29.6617 13.4679L27.359 17.9062L27.3591 17.9062L29.6617 13.4679ZM30.6954 14.5168L35.2208 12.3906L35.2207 12.3903L30.6954 14.5168ZM30.9046 14.9621L35.9036 14.8638L35.8827 13.7994L35.43 12.8359L30.9046 14.9621ZM30.9382 16.6713L35.9372 16.5731L35.9372 16.573L30.9382 16.6713ZM31.1248 18.5346L34.6737 15.0126L34.6737 15.0125L31.1248 18.5346ZM31.2778 18.6888L27.7288 22.2108L29.1851 23.6783L31.2525 23.6887L31.2778 18.6888ZM34.9712 18.7074L34.9964 13.7075L34.9712 18.7074ZM38.6646 18.726H43.6646V13.7512L38.6898 13.7261L38.6646 18.726ZM38.6646 25.4809L38.7709 30.4797L43.6646 30.3756V25.4809H38.6646ZM37.0017 25.5162L36.8954 20.5174L36.8951 20.5174L37.0017 25.5162ZM34.1517 26.0456L31.6028 21.7441L31.6028 21.7441L34.1517 26.0456ZM32.5484 28.4243L37.4794 29.2518L37.4795 29.2515L32.5484 28.4243ZM35.22 32.3103L34.175 37.1998L34.1754 37.1999L35.22 32.3103ZM37.1697 32.4087L37.1658 37.4086H37.1658L37.1697 32.4087ZM38.6646 32.4098H43.6646V27.4137L38.6684 27.4098L38.6646 32.4098ZM38.6646 38.6436V43.6436H43.6646V38.6436H38.6646ZM32.2147 38.6436L27.2147 38.6477L27.2189 43.6436H32.2147V38.6436ZM32.2136 37.2715L37.2136 37.2673V37.2672L32.2136 37.2715ZM31.2088 33.7574L34.7906 30.2688L34.7904 30.2685L31.2088 33.7574ZM29.3055 32.7449L30.1469 27.8162L30.1467 27.8161L29.3055 32.7449ZM25.5295 35.1879L30.3124 36.6455L30.3124 36.6452L25.5295 35.1879ZM25.3797 37.1021L20.3811 36.9844L20.3811 36.9846L25.3797 37.1021ZM25.3435 38.6436V43.6436H30.2274L30.3421 38.761L25.3435 38.6436ZM18.9119 38.6436L13.9119 38.6439L13.9123 43.6436H18.9119V38.6436ZM18.9117 35.1371L13.9117 35.1374V35.1375L18.9117 35.1371ZM18.7794 31.4122L14.5005 33.999L14.5009 33.9996L18.7794 31.4122ZM16.6276 31.1067L16.6808 26.107L16.6806 26.107L16.6276 31.1067ZM14.9144 31.0885L12.7585 35.5999L13.756 36.0765L14.8614 36.0882L14.9144 31.0885ZM14.4728 30.8775L12.3165 35.3887L12.317 35.3889L14.4728 30.8775ZM13.4279 29.835L9.01195 32.1801L9.012 32.1802L13.4279 29.835ZM13.4579 28.016L17.8782 30.3529L17.8787 30.352L13.4579 28.016ZM14.5705 26.998L16.3351 31.6763L16.3358 31.676L14.5705 26.998ZM16.6134 26.8535L16.6132 21.8535H16.6129L16.6134 26.8535ZM18.826 26.4471L14.3463 24.2262L14.3457 24.2275L18.826 26.4471ZM18.9109 22.5002L13.9109 22.4988V22.4989L18.9109 22.5002ZM18.9119 18.7227V13.7227H13.9133L13.9119 18.7213L18.9119 18.7227ZM26.3617 18.6121L23.4772 14.5281L23.4769 14.5283L26.3617 18.6121ZM26.7062 16.4719L31.7062 16.4741V16.4738L26.7062 16.4719ZM26.8706 14.5395L31.41 16.6357L31.4104 16.6348L26.8706 14.5395ZM28.001 13.4409L26.1472 8.79726L26.1468 8.79741L28.001 13.4409ZM27.8778 7.05422C25.1936 7.3647 22.8956 8.87739 21.5423 11.206L30.1884 16.2305C30.1005 16.3816 29.9411 16.574 29.6962 16.7346C29.4511 16.8954 29.2078 16.9671 29.0268 16.988L27.8778 7.05422ZM21.5422 11.2062C21.1966 11.8009 20.8099 12.5724 20.5949 13.6423C20.4303 14.4615 20.4024 15.3155 20.3828 15.9838L30.3784 16.2781C30.3833 16.1115 30.3881 15.975 30.3932 15.86C30.3983 15.7447 30.4032 15.6621 30.4076 15.6027C30.4119 15.5433 30.4149 15.5189 30.4149 15.5195C30.4147 15.5211 30.4104 15.5551 30.399 15.6122C30.3871 15.6714 30.3688 15.7484 30.3418 15.8374C30.3146 15.9273 30.2838 16.0119 30.2521 16.0879C30.1922 16.2319 30.1461 16.3032 30.1885 16.2302L21.5422 11.2062ZM20.3828 15.9837L20.3443 17.288L30.34 17.5825L30.3784 16.2782L20.3828 15.9837ZM25.3422 12.4353H21.7542V22.4353H25.3422V12.4353ZM21.7542 12.4353C19.9765 12.4353 18.658 12.4288 17.8484 12.5048C17.5741 12.5305 16.3134 12.6206 15.1025 13.4145C14.3481 13.9092 13.8112 14.5339 13.4474 15.1511C13.2881 15.4214 13.1827 15.655 13.1225 15.7972C13.0672 15.9275 13.0232 16.0463 13.0211 16.0519L22.3783 19.5792C22.431 19.4394 22.3005 19.8248 22.0622 20.2291C21.7412 20.7736 21.2587 21.336 20.5858 21.7772C19.9923 22.1663 19.4594 22.3224 19.2037 22.3849C19.0653 22.4188 18.9575 22.4372 18.8948 22.4467C18.8308 22.4564 18.7904 22.4603 18.7823 22.4611C18.7728 22.462 18.8212 22.4574 18.9649 22.4524C19.1028 22.4476 19.2899 22.4437 19.5464 22.441C20.0649 22.4353 20.7655 22.4353 21.7542 22.4353V12.4353ZM13.0205 16.0535C12.8691 16.4556 12.8048 16.7884 12.7866 16.8828C12.7589 17.0265 12.7424 17.1449 12.7335 17.2145C12.7154 17.3553 12.7055 17.4757 12.7003 17.5444C12.6892 17.6907 12.6823 17.8394 12.6775 17.9612C12.6674 18.2161 12.6598 18.5384 12.6539 18.8969C12.642 19.623 12.6354 20.6065 12.6354 21.7328H22.6354C22.6354 20.6374 22.6419 19.7129 22.6526 19.0611C22.658 18.7307 22.6641 18.4966 22.6697 18.3547C22.6727 18.278 22.6741 18.2682 22.6717 18.2993C22.6709 18.3104 22.6654 18.3839 22.6519 18.4891C22.6453 18.541 22.6311 18.6444 22.6057 18.776C22.5899 18.8583 22.528 19.1819 22.3789 19.5776L13.0205 16.0535ZM12.6354 21.7328V25.4794H22.6354V21.7328H12.6354ZM17.5042 20.4812L16.0765 20.5186L16.3389 30.5152L17.7666 30.4777L17.5042 20.4812ZM16.0767 20.5186C15.3734 20.5371 14.4752 20.5597 13.6383 20.7235C12.5 20.9462 11.7029 21.3674 11.1241 21.7096L16.2126 30.3181C16.2583 30.2911 16.2631 30.2893 16.244 30.2994C16.2217 30.3112 16.1664 30.3395 16.0862 30.3736C16.0033 30.4089 15.9096 30.4437 15.8087 30.4744C15.709 30.5047 15.6234 30.5247 15.5588 30.5373C15.4969 30.5494 15.4615 30.5534 15.4637 30.5532C15.4671 30.5528 15.498 30.5494 15.5684 30.5447C15.6387 30.54 15.7341 30.5351 15.8656 30.5299C15.9966 30.5249 16.1511 30.5201 16.3387 30.5152L16.0767 20.5186ZM11.1242 21.7095C8.58318 23.2115 7.15678 25.7227 7.01664 28.5731L17.0046 29.0642C17.0006 29.145 16.9665 29.4063 16.7788 29.7238C16.5876 30.0473 16.3507 30.2365 16.2125 30.3182L11.1242 21.7095ZM7.01665 28.5727C7.0018 28.8744 6.9773 29.4049 7.04609 30.007C7.12086 30.6614 7.27887 31.181 7.37892 31.495L16.907 28.4593C16.8662 28.3313 16.9445 28.548 16.9814 28.8718C16.9982 29.0188 16.9999 29.126 17 29.1641C17 29.1896 16.9992 29.1737 17.0046 29.0645L7.01665 28.5727ZM7.37884 31.4948C8.05243 33.6093 9.43581 35.3253 11.4342 36.3995L16.1688 27.5914C16.2834 27.653 16.4643 27.7797 16.6357 27.9884C16.8053 28.1947 16.8812 28.3784 16.9071 28.4595L7.37884 31.4948ZM11.4343 36.3996C13.2105 37.3543 14.8108 37.4072 16.371 37.4086L16.3804 27.4087C16.0586 27.4084 15.8464 27.4033 15.7008 27.396C15.5563 27.3888 15.5282 27.3815 15.5686 27.388C15.623 27.3967 15.7381 27.4199 15.8845 27.4703C16.0304 27.5204 16.1326 27.5719 16.1687 27.5914L11.4343 36.3996ZM16.3711 37.4086L17.6308 37.4098L17.64 27.4098L16.3802 27.4087L16.3711 37.4086ZM12.6354 32.4098V35.966H22.6354V32.4098H12.6354ZM12.6354 35.966V39.5222H22.6354V35.966H12.6354ZM13.8922 42.8372L14.0882 43.0585L21.5746 36.4286L21.3786 36.2073L13.8922 42.8372ZM14.0888 43.0591L14.2849 43.2804L21.77 36.6493L21.574 36.428L14.0888 43.0591ZM18.0033 44.9648L21.9411 44.9838L21.9894 34.9839L18.0516 34.9649L18.0033 44.9648ZM21.9411 44.9838C23.2385 44.9901 24.2785 44.9889 25.0272 44.9797C25.3971 44.9752 25.7279 44.9684 25.9957 44.9577C26.126 44.9526 26.2813 44.945 26.4373 44.9325C26.4432 44.932 26.9362 44.9035 27.4731 44.7576L24.852 35.1073C25.177 35.019 25.4319 34.9876 25.4754 34.9819C25.5634 34.9706 25.6247 34.9656 25.6409 34.9643C25.6749 34.9616 25.6688 34.9628 25.5988 34.9656C25.4661 34.9709 25.2409 34.9764 24.9046 34.9805C24.2408 34.9886 23.267 34.9901 21.9895 34.9839L21.9411 44.9838ZM27.4732 44.7576C27.521 44.7446 27.8129 44.6683 28.1376 44.5421C28.5003 44.4012 29.0563 44.1436 29.6284 43.6726C30.9109 42.617 31.3306 41.2936 31.486 40.5949C31.6247 39.9714 31.6549 39.3626 31.6695 39.0238C31.687 38.6194 31.6957 38.1193 31.7048 37.5756L21.7062 37.4077C21.6964 37.9941 21.6895 38.3474 21.6789 38.5915C21.6655 38.9013 21.655 38.7362 21.7246 38.4236C21.8109 38.0357 22.1329 36.8904 23.2731 35.9518C23.7741 35.5395 24.2479 35.3252 24.5152 35.2213C24.7444 35.1322 24.9278 35.0867 24.852 35.1073L27.4732 44.7576ZM31.7048 37.5756C31.7094 37.2995 31.7131 37.0728 31.7171 36.8748C31.721 36.6765 31.7248 36.5288 31.7289 36.4133C31.7331 36.2958 31.7368 36.2408 31.7381 36.224C31.7395 36.2061 31.7355 36.2685 31.7168 36.3788C31.6968 36.4966 31.6579 36.6818 31.5828 36.9069C31.5045 37.1418 31.4071 37.359 31.3014 37.552C31.2037 37.7304 31.1187 37.851 31.0965 37.8823C31.0851 37.8983 31.0812 37.9032 31.0936 37.8866C31.1088 37.8663 31.1217 37.8494 31.1566 37.8031L23.171 31.7839C23.1545 31.8057 22.8067 32.2444 22.5312 32.7475C22.164 33.4177 21.9644 34.0779 21.858 34.7042C21.771 35.2166 21.7477 35.7117 21.7354 36.0542C21.7221 36.4249 21.7149 36.8907 21.7062 37.4077L31.7048 37.5756ZM31.1564 37.8033C30.6575 38.4651 30.0242 38.7917 29.501 38.9226C28.9749 39.0542 28.3167 39.051 27.6375 38.7537L31.6478 29.5931C28.7588 28.3284 25.1666 29.1366 23.1711 31.7837L31.1564 37.8033ZM27.6375 38.7537C27.3156 38.6128 27.1031 38.4674 27.0014 38.3927C26.8873 38.309 26.8048 38.2343 26.7443 38.1738C26.6835 38.1132 26.6106 38.0324 26.5293 37.9222C26.4563 37.8234 26.3169 37.6204 26.1799 37.3134L35.3112 33.2367C34.8872 32.2871 34.2754 31.5623 33.8115 31.0989C33.3514 30.6394 32.6173 30.0175 31.6478 29.5931L27.6375 38.7537ZM26.18 37.3136C26.19 37.336 26.1611 37.273 26.1252 37.1792C26.0836 37.0702 26.0373 36.9333 25.9962 36.7756C25.9158 36.4668 25.9 36.2471 25.8994 36.24C25.8989 36.2336 25.9007 36.2551 25.9033 36.3198C25.9058 36.3833 25.9084 36.4712 25.9111 36.5945C25.9165 36.8459 25.9208 37.1823 25.9264 37.664L35.9257 37.5486C35.9158 36.6911 35.9091 35.9785 35.8696 35.468C35.8456 35.1587 35.7983 34.7346 35.6732 34.2543C35.5428 33.7538 35.3737 33.3768 35.3111 33.2365L26.18 37.3136ZM25.9264 37.6637L25.9491 39.6418L35.9484 39.527L35.9257 37.5489L25.9264 37.6637ZM27.3989 43.1056L27.5626 43.2706L34.6622 36.2282L34.4986 36.0632L27.3989 43.1056ZM27.5606 43.2685C28.0316 43.7439 28.5156 44.057 28.8595 44.2482C29.184 44.4286 29.7556 44.7085 30.497 44.858L32.4731 35.0552C32.8245 35.126 33.0944 35.2229 33.26 35.2897C33.4384 35.3616 33.591 35.4372 33.7192 35.5084C33.928 35.6246 34.2832 35.8456 34.6642 36.2302L27.5606 43.2685ZM30.4968 44.8579C30.8091 44.9209 31.0716 44.9414 31.1159 44.9452C31.2171 44.9538 31.3088 44.9591 31.3749 44.9625C31.51 44.9694 31.6558 44.9741 31.7917 44.9777C32.0696 44.9849 32.4204 44.9899 32.8039 44.9933C33.5769 45.0003 34.5621 45.0016 35.5349 44.9983C36.5075 44.995 37.4873 44.987 38.2493 44.9748C38.6268 44.9687 38.9724 44.9613 39.2443 44.9521C39.376 44.9477 39.5233 44.9417 39.6615 44.9331C39.7274 44.929 39.8303 44.922 39.9468 44.91C40.0048 44.904 40.0977 44.8936 40.2092 44.8768C40.2874 44.865 40.5303 44.8278 40.8295 44.744L38.1319 35.1147C38.4227 35.0332 38.6538 34.9983 38.7169 34.9888C38.8132 34.9743 38.8876 34.9662 38.9237 34.9624C38.9645 34.9582 38.9949 34.9558 39.0103 34.9546C39.0269 34.9533 39.0374 34.9526 39.0402 34.9524C39.0408 34.9524 39.0021 34.9546 38.906 34.9578C38.7224 34.9641 38.4458 34.9703 38.0893 34.976C37.3835 34.9873 36.4486 34.9951 35.5008 34.9983C34.5532 35.0015 33.6121 35.0002 32.8938 34.9937C32.5317 34.9905 32.2457 34.9861 32.0506 34.981C31.9501 34.9784 31.9003 34.9763 31.8878 34.9756C31.88 34.9752 31.9098 34.9766 31.962 34.981C31.9886 34.9833 32.0401 34.9879 32.1072 34.9961C32.1611 35.0026 32.2978 35.0198 32.4733 35.0552L30.4968 44.8579ZM40.8303 44.7437C41.5269 44.5485 42.0961 44.2414 42.5216 43.9492C42.9218 43.6744 43.5052 43.2005 43.9993 42.4657L35.7011 36.8854C36.1241 36.2563 36.5928 35.8897 36.8609 35.7056C37.1545 35.504 37.5744 35.271 38.1311 35.1149L40.8303 44.7437ZM43.9987 42.4666C44.9909 40.9919 44.9481 39.3598 44.9559 39.151C44.9788 38.5318 44.9857 37.4945 44.9951 35.7912L34.9952 35.7365C34.9904 36.6122 34.9863 37.271 34.9811 37.774C34.9758 38.2863 34.9697 38.5927 34.9627 38.7808C34.9593 38.8726 34.9569 38.9028 34.9575 38.8944C34.9577 38.8928 34.9651 38.7896 34.9924 38.6316C35.0208 38.4673 35.0821 38.174 35.2176 37.8188C35.3683 37.4238 35.5505 37.1092 35.7017 36.8846L43.9987 42.4666ZM44.9951 35.7914C45.0008 34.7533 45.0014 33.7719 44.9977 33.024C44.9958 32.6521 44.9928 32.3253 44.9885 32.0734C44.9882 32.0527 44.9872 31.4815 44.9242 31.0434L35.026 32.4669C35.0065 32.3309 34.9975 32.2263 34.9945 32.191C34.9906 32.1437 34.9884 32.1085 34.9875 32.0925C34.9857 32.0607 34.9853 32.0465 34.9858 32.0607C34.9867 32.0866 34.9883 32.1448 34.99 32.244C34.9933 32.4379 34.996 32.7193 34.9978 33.074C35.0013 33.7793 35.0008 34.7247 34.9952 35.7363L44.9951 35.7914ZM44.9245 31.0457C44.7763 30.0116 44.3048 28.7793 43.3156 27.7817L36.2146 34.8227C35.7633 34.3675 35.507 33.9166 35.3634 33.6069C35.2109 33.278 35.0878 32.8975 35.0257 32.4646L44.9245 31.0457ZM43.3163 27.7824L43.1468 27.6113L36.0444 34.6509L36.2139 34.822L43.3163 27.7824ZM39.6506 26.1314L37.5894 26.1087L37.4793 36.1081L39.5405 36.1308L39.6506 26.1314ZM37.5895 26.1087C37.0967 26.1033 36.747 26.0989 36.4837 26.0934C36.2091 26.0876 36.1033 26.0819 36.0753 26.0799C36.0572 26.0786 36.2301 26.089 36.4861 26.1486C36.7687 26.2144 36.9736 26.2992 36.9672 26.2967L33.221 35.5684C33.8789 35.8343 34.5104 35.993 35.3562 36.054C35.8686 36.0909 36.5822 36.0983 37.4793 36.1081L37.5895 26.1087ZM36.9677 26.2969C37.4574 26.4947 37.8222 26.7767 38.079 27.0536L30.7463 33.853C31.4004 34.5584 32.2326 35.169 33.2205 35.5682L36.9677 26.2969ZM38.0786 27.0532C37.9923 26.9601 38.2307 27.1952 38.455 27.6273C38.6968 28.0933 38.7588 28.4681 38.7535 28.4395L28.9174 30.2423C29.0027 30.7079 29.1651 31.4359 29.5788 32.2332C29.9749 32.9965 30.4567 33.5407 30.7467 33.8534L38.0786 27.0532ZM38.7535 28.4393C38.9834 29.6933 38.3474 30.9904 37.1519 31.5607L32.8462 22.5352C29.9244 23.929 28.3403 27.0946 28.9174 30.2425L38.7535 28.4393ZM37.1521 31.5606L37.5592 31.3664L33.253 22.3411L32.846 22.5353L37.1521 31.5606ZM35.4073 31.8538L37.3221 31.8533L37.3196 21.8533L35.4048 21.8538L35.4073 31.8538ZM37.3218 31.8533C37.9042 31.8532 38.4639 31.8452 38.9156 31.8307C39.1372 31.8236 39.3648 31.814 39.5699 31.8003C39.6697 31.7937 39.8015 31.7837 39.9431 31.768C39.9875 31.7631 40.3799 31.7248 40.8291 31.599L38.1323 21.9695C38.2751 21.9295 38.3924 21.9038 38.4671 21.8885C38.5457 21.8725 38.6108 21.8614 38.6566 21.8541C38.7455 21.8399 38.812 21.8321 38.8419 21.8288C38.9015 21.8222 38.929 21.8209 38.9046 21.8225C38.8614 21.8254 38.7612 21.8306 38.5959 21.8358C38.2737 21.8461 37.823 21.8532 37.3199 21.8533L37.3218 31.8533ZM40.8303 31.5987C41.5269 31.4034 42.0961 31.0963 42.5216 30.8041C42.9218 30.5293 43.5052 30.0554 43.9993 29.3207L35.7011 23.7403C36.1241 23.1113 36.5928 22.7446 36.8609 22.5605C37.1544 22.359 37.5744 22.1259 38.1311 21.9698L40.8303 31.5987ZM43.9989 29.3212C45.0227 27.7993 44.9497 26.076 44.9547 25.8972C44.9736 25.2241 44.9747 24.066 44.9747 22.0952H34.9747C34.9747 24.1503 34.9725 25.1223 34.9586 25.6165C34.9571 25.67 34.9557 25.7099 34.9544 25.7389C34.9538 25.7531 34.9533 25.7638 34.9529 25.7712C34.9527 25.7749 34.9526 25.7777 34.9524 25.7795C34.9523 25.7814 34.9523 25.7823 34.9523 25.7822C34.9523 25.7822 34.9524 25.7811 34.9525 25.779C34.9527 25.7769 34.9529 25.7737 34.9533 25.7695C34.9539 25.7611 34.9551 25.7477 34.9569 25.7298C34.9604 25.6959 34.9673 25.6347 34.98 25.5539C35.0041 25.3999 35.0612 25.0957 35.1991 24.7223C35.3559 24.2978 35.5494 23.9659 35.7015 23.7398L43.9989 29.3212ZM44.9747 22.0952V17.8449H34.9747V22.0952H44.9747ZM43.5252 14.3243L43.339 14.1365L36.238 21.1775L36.4242 21.3654L43.5252 14.3243ZM43.3396 14.1372L43.1534 13.9493L36.0511 20.989L36.2373 21.1769L43.3396 14.1372ZM39.6274 12.4692L35.9337 12.4506L35.8833 22.4504L39.577 22.4691L39.6274 12.4692ZM35.9337 12.4506L32.24 12.4319L32.1895 22.4318L35.8833 22.4504L35.9337 12.4506ZM37.2147 17.4268L37.2136 16.2936L27.2136 16.3036L27.2147 17.4369L37.2147 17.4268ZM37.2136 16.2935C37.2129 15.5743 37.188 14.5299 37.0093 13.6791L27.2228 15.7342C27.2071 15.6594 27.1983 15.605 27.1942 15.578C27.1919 15.5632 27.1904 15.5522 27.1896 15.5455C27.1887 15.5387 27.1883 15.5351 27.1883 15.535C27.1882 15.5348 27.1885 15.5372 27.189 15.5425C27.1895 15.5477 27.1902 15.5552 27.1911 15.5651C27.1927 15.5851 27.1948 15.6125 27.1969 15.6475C27.206 15.7952 27.2133 16.0167 27.2136 16.3037L37.2136 16.2935ZM37.0092 13.6784C36.1369 9.52747 32.209 6.55313 27.8777 7.05424L29.027 16.988C28.5275 17.0458 28.1081 16.8919 27.8286 16.6871C27.5495 16.4825 27.3117 16.1575 27.2229 15.7348L37.0092 13.6784ZM27.3591 17.9062C27.1913 17.8192 26.957 17.6673 26.7178 17.4246C26.4744 17.1777 26.2928 16.9043 26.1701 16.6432L35.2207 12.3903C34.5025 10.8619 33.3423 9.74464 31.9642 9.02968L27.3591 17.9062ZM26.17 16.643L26.3792 17.0883L35.43 12.8359L35.2208 12.3906L26.17 16.643ZM25.9056 15.0603L25.9392 16.7695L35.9372 16.573L35.9036 14.8638L25.9056 15.0603ZM25.9392 16.7694C25.9529 17.4712 25.9632 18.1747 26.0127 18.6696C26.0383 18.9254 26.1113 19.6075 26.4361 20.3712C26.8426 21.3269 27.4296 21.9093 27.5759 22.0567L34.6737 15.0125C34.6752 15.014 34.853 15.1887 35.047 15.4424C35.2721 15.7368 35.4765 16.0767 35.6385 16.4576C35.7891 16.8116 35.8655 17.1135 35.9054 17.3068C35.9441 17.4938 35.9586 17.6298 35.9629 17.6732C35.9697 17.7405 35.965 17.7239 35.9578 17.4914C35.9515 17.2832 35.9456 16.9975 35.9372 16.5731L25.9392 16.7694ZM27.5758 22.0567L27.7288 22.2108L34.8267 15.1667L34.6737 15.0126L27.5758 22.0567ZM31.2525 23.6887L34.9459 23.7073L34.9964 13.7075L31.303 13.6888L31.2525 23.6887ZM34.9459 23.7073L38.6394 23.726L38.6898 13.7261L34.9964 13.7075L34.9459 23.7073ZM33.6646 18.726V22.1035H43.6646V18.726H33.6646ZM33.6646 22.1035V25.4809H43.6646V22.1035H33.6646ZM38.5583 20.482L36.8954 20.5174L37.1081 30.5151L38.7709 30.4797L38.5583 20.482ZM36.8951 20.5174C36.0914 20.5345 35.1156 20.5507 34.2462 20.7121C33.0104 20.9417 32.1712 21.4073 31.6028 21.7441L36.7006 30.3472C36.7677 30.3074 36.7853 30.2981 36.778 30.3021C36.7665 30.3082 36.7137 30.3361 36.6315 30.3716C36.5453 30.4087 36.4451 30.4463 36.3357 30.4792C36.2278 30.5118 36.1371 30.532 36.0724 30.544C36.0114 30.5553 35.9813 30.5579 35.9965 30.5563C36.0129 30.5546 36.0603 30.5502 36.1536 30.545C36.2466 30.5398 36.3678 30.5347 36.5303 30.5296C36.6923 30.5245 36.881 30.5199 37.1083 30.5151L36.8951 20.5174ZM31.6028 21.7441C29.4676 23.0093 28.0141 25.232 27.6173 27.597L37.4795 29.2515C37.4345 29.5196 37.3425 29.7106 37.2503 29.8474C37.1596 29.982 36.9951 30.1727 36.7006 30.3471L31.6028 21.7441ZM27.6173 27.5968C26.8749 32.0213 29.8642 36.2785 34.175 37.1998L36.265 27.4207C36.7577 27.526 37.0724 27.8006 37.2416 28.0467C37.4105 28.2924 37.5703 28.71 37.4794 29.2518L27.6173 27.5968ZM34.1754 37.1999C35.1001 37.3975 36.2446 37.4079 37.1658 37.4086L37.1736 27.4087C36.6898 27.4083 36.3748 27.4009 36.176 27.3908C36.1296 27.3885 36.095 27.3863 36.0708 27.3845C36.0463 27.3827 36.0361 27.3816 36.0379 27.3817C36.0393 27.3819 36.0591 27.384 36.0936 27.3892C36.1275 27.3942 36.1864 27.4039 36.2645 27.4206L34.1754 37.1999ZM37.1658 37.4086L38.6607 37.4098L38.6684 27.4098L37.1735 27.4087L37.1658 37.4086ZM33.6646 32.4098V35.5267H43.6646V32.4098H33.6646ZM33.6646 35.5267V38.6436H43.6646V35.5267H33.6646ZM38.6646 33.6436H35.4397V43.6436H38.6646V33.6436ZM35.4397 33.6436H32.2147V43.6436H35.4397V33.6436ZM37.2147 38.6394L37.2136 37.2673L27.2136 37.2756L27.2147 38.6477L37.2147 38.6394ZM37.2136 37.2672C37.2127 36.2442 37.1878 34.9459 36.8284 33.6891C36.3824 32.1292 35.569 31.0679 34.7906 30.2688L27.6271 37.2461C27.6935 37.3144 27.6102 37.2396 27.4957 37.0596C27.4365 36.9664 27.378 36.8596 27.3257 36.7427C27.2737 36.6265 27.2378 36.5222 27.2138 36.4383C27.1689 36.2815 27.1764 36.2308 27.1892 36.3865C27.1953 36.4603 27.2016 36.5672 27.2062 36.7189C27.2109 36.8703 27.2134 37.0525 27.2136 37.2757L37.2136 37.2672ZM34.7904 30.2685C33.5441 28.9891 31.9551 28.1249 30.1469 27.8162L28.4641 37.6736C28.3165 37.6484 28.1485 37.595 27.9826 37.5067C27.8179 37.4191 27.7 37.321 27.6273 37.2464L34.7904 30.2685ZM30.1467 27.8161C25.8649 27.0854 21.9263 29.8591 20.7466 33.7305L30.3124 36.6452C30.2034 37.0031 29.9802 37.2722 29.7155 37.4435C29.4511 37.6145 29.0134 37.7673 28.4644 37.6736L30.1467 27.8161ZM20.7467 33.7303C20.4156 34.8168 20.4027 36.0688 20.3811 36.9844L30.3783 37.2198C30.3849 36.9419 30.3915 36.7239 30.3985 36.5503C30.4057 36.3745 30.4123 36.2657 30.4173 36.2016C30.4225 36.1351 30.4233 36.1522 30.4126 36.2201C30.4009 36.2941 30.373 36.4466 30.3124 36.6455L20.7467 33.7303ZM20.3811 36.9846L20.3449 38.5261L30.3421 38.761L30.3783 37.2195L20.3811 36.9846ZM25.3435 33.6436H22.1277V43.6436H25.3435V33.6436ZM22.1277 33.6436H18.9119V43.6436H22.1277V33.6436ZM23.9119 38.6432L23.9117 35.1367L13.9117 35.1375L13.9119 38.6439L23.9119 38.6432ZM23.9117 35.1368C23.9116 33.5093 23.9111 32.5109 23.8898 31.9134C23.8804 31.6464 23.8605 31.1731 23.7649 30.672C23.618 29.9025 23.3454 29.3003 23.0579 28.8248L14.5009 33.9996C14.4472 33.9108 14.3087 33.6754 14.1788 33.3506C14.0505 33.0296 13.9808 32.7491 13.9421 32.5466C13.907 32.3626 13.8962 32.2347 13.8941 32.2101C13.8917 32.1807 13.8934 32.1914 13.8961 32.2684C13.9018 32.4282 13.9063 32.7031 13.9088 33.1899C13.9112 33.6656 13.9116 34.2931 13.9117 35.1374L23.9117 35.1368ZM23.0582 28.8254C22.7359 28.2923 22.3482 27.8523 21.9579 27.5063C21.7026 27.2799 20.8775 26.5706 19.5917 26.2813L17.3965 36.0374C16.703 35.8813 16.2093 35.6099 15.9669 35.4625C15.6892 35.2937 15.4762 35.124 15.3244 34.9894C15.0374 34.735 14.7502 34.4119 14.5005 33.999L23.0582 28.8254ZM19.5917 26.2813C19.2998 26.2156 19.0601 26.1905 19.0191 26.186C18.9292 26.1761 18.8527 26.1698 18.8047 26.1662C18.7063 26.1588 18.6115 26.1537 18.5385 26.1502C18.3863 26.1429 18.2073 26.1368 18.0235 26.1316C17.65 26.1211 17.1745 26.1122 16.6808 26.107L16.5744 36.1064C17.023 36.1112 17.4387 36.1191 17.7417 36.1277C17.8962 36.132 18.0019 36.136 18.0603 36.1388C18.0926 36.1403 18.0846 36.1403 18.0519 36.1378C18.0369 36.1367 17.988 36.1329 17.9201 36.1254C17.8855 36.1216 17.8282 36.1149 17.7567 36.1044C17.6959 36.0954 17.5635 36.075 17.3965 36.0374L19.5917 26.2813ZM16.6806 26.107L14.9674 26.0888L14.8614 36.0882L16.5746 36.1064L16.6806 26.107ZM17.0702 26.5772L16.6287 26.3662L12.317 35.3889L12.7585 35.5999L17.0702 26.5772ZM16.6291 26.3664C16.8894 26.4908 17.1649 26.676 17.4121 26.9225C17.6505 27.1604 17.7838 27.3769 17.8438 27.4898L9.012 32.1802C9.71047 33.4954 10.778 34.6532 12.3165 35.3887L16.6291 26.3664ZM17.8438 27.4899C18.0419 27.8629 18.139 28.1737 18.1838 28.3363C18.2332 28.5151 18.2568 28.6529 18.2684 28.7324C18.2907 28.8862 18.2905 28.9799 18.2899 29.0176C18.2893 29.0569 18.2862 29.1407 18.2625 29.2764C18.252 29.3362 18.1793 29.7834 17.8782 30.3529L9.03765 25.6791C8.35561 26.9692 8.29989 28.3313 8.29129 28.8527C8.28474 29.2493 8.3041 29.7004 8.37193 30.168C8.4257 30.5387 8.56468 31.3379 9.01195 32.1801L17.8438 27.4899ZM17.8787 30.352C17.7063 30.6783 17.5066 30.9133 17.3162 31.0875C17.1344 31.2538 16.8207 31.4931 16.3351 31.6763L12.8058 22.3198C11.1099 22.9595 9.78381 24.267 9.03716 25.68L17.8787 30.352ZM16.3358 31.676C16.3353 31.6762 16.2848 31.6954 16.2083 31.7197C16.1252 31.746 16.0252 31.7741 15.913 31.7991C15.6863 31.8498 15.5263 31.8619 15.5033 31.8635C15.4936 31.8642 15.5069 31.863 15.5544 31.8614C15.6013 31.8599 15.6688 31.8583 15.7656 31.857C15.9639 31.8543 16.2301 31.8535 16.6138 31.8535L16.6129 21.8535C15.4472 21.8536 14.2071 21.791 12.8051 22.3201L16.3358 31.676ZM16.6136 31.8535C17.3246 31.8535 18.3768 31.8633 19.2357 31.7055C19.7773 31.606 20.7164 31.3683 21.6482 30.6733C22.6286 29.9421 23.1053 29.0726 23.3063 28.6667L14.3457 24.2275C14.4559 24.005 14.8375 23.2779 15.6696 22.6573C16.4532 22.0729 17.1909 21.9138 17.429 21.8701C17.6518 21.8291 17.7485 21.837 17.5296 21.8444C17.3447 21.8507 17.0664 21.8535 16.6132 21.8535L16.6136 31.8535ZM23.3057 28.668C23.6887 27.8954 23.78 27.1835 23.7901 27.1173C23.8258 26.885 23.8434 26.6774 23.8532 26.542C23.8735 26.2612 23.8841 25.9399 23.8911 25.614C23.9055 24.9435 23.9106 23.9389 23.9109 22.5015L13.9109 22.4989C13.9106 23.9449 13.9052 24.8491 13.8934 25.3989C13.8905 25.5321 13.8875 25.6333 13.8846 25.7086C13.8831 25.7457 13.8819 25.7736 13.8808 25.7935C13.8797 25.8137 13.8791 25.822 13.8792 25.8206C13.8793 25.82 13.8806 25.8019 13.8838 25.7706C13.8868 25.7413 13.8935 25.6812 13.9059 25.6C13.9172 25.5262 13.9413 25.382 13.9873 25.1985C14.0244 25.0504 14.1243 24.674 14.3463 24.2262L23.3057 28.668ZM23.9109 22.5015L23.9119 18.724L13.9119 18.7213L13.9109 22.4988L23.9109 22.5015ZM18.9119 23.7227H22.5586V13.7227H18.9119V23.7227ZM22.5586 23.7227C24.1572 23.7227 25.1606 23.7203 25.7764 23.7024C26.0567 23.6942 26.4555 23.6789 26.8536 23.6238C27.2262 23.5722 28.2307 23.4136 29.2465 22.696L23.4769 14.5283C23.9392 14.2017 24.3948 14.002 24.775 13.8809C25.1122 13.7736 25.376 13.733 25.4809 13.7184C25.5957 13.7025 25.6622 13.6992 25.6435 13.7004C25.6312 13.7012 25.5844 13.7037 25.4859 13.7066C25.0509 13.7192 24.2227 13.7227 22.5586 13.7227V23.7227ZM29.2462 22.6962C29.6529 22.409 30.3125 21.8725 30.8442 20.977C31.3335 20.1528 31.5079 19.3701 31.5852 18.8902C31.7107 18.1099 31.7059 17.1663 31.7062 16.4741L21.7062 16.4697C21.706 16.8898 21.7034 17.1533 21.6977 17.3313C21.6912 17.5345 21.6844 17.4741 21.7122 17.3014C21.7417 17.1178 21.8494 16.5391 22.2454 15.872C22.6839 15.1334 23.2239 14.707 23.4772 14.5281L29.2462 22.6962ZM31.7062 16.4738C31.7063 16.0835 31.7068 15.8275 31.7093 15.6405C31.7105 15.5502 31.712 15.4955 31.7132 15.4641C31.7144 15.4318 31.7146 15.4442 31.7111 15.4852C31.7074 15.5278 31.6984 15.6188 31.6775 15.7415C31.6553 15.8709 31.6228 16.0188 31.5761 16.1782C31.5296 16.3365 31.4815 16.4643 31.4463 16.5504C31.4167 16.6227 31.3944 16.6695 31.41 16.6357L22.3313 12.4433C22.089 12.968 21.8316 13.6445 21.7471 14.6372C21.7031 15.1536 21.7064 15.8266 21.7062 16.4699L31.7062 16.4738ZM31.4104 16.6348C31.2114 17.066 30.9837 17.3245 30.8342 17.4698C30.6939 17.6062 30.3878 17.8717 29.8551 18.0844L26.1468 8.79741C24.4376 9.47989 23.0424 10.9024 22.3309 12.4442L31.4104 16.6348ZM29.8547 18.0846C29.4739 18.2366 29.1881 18.282 29.0834 18.2965C28.9527 18.3147 28.8536 18.3178 28.7786 18.3166C28.7067 18.3154 28.5849 18.3091 28.414 18.278C28.292 18.2558 27.8781 18.1755 27.359 17.9062L31.9643 9.02972C30.7447 8.39695 29.504 8.32704 28.9414 8.31788C28.2946 8.30735 27.2293 8.36528 26.1472 8.79726L29.8547 18.0846Z" fill="#5C77F2" mask="url(#path-2-inside-1_1210_38441)"/>
</svg>
