<svg width="387" height="134" preserveAspectRatio="none" viewBox="0 0 387 134" fill="none" xmlns="http://www.w3.org/2000/svg">
    <g clip-path="url(#clip0_1116_34877)">
        <g clip-path="url(#clip1_1116_34877)">
            <path d="M-284.672 118.256C-285.363 118.256 -285.99 118.125 -286.554 117.865C-287.117 117.6 -287.565 117.219 -287.896 116.722C-288.228 116.22 -288.393 115.614 -288.393 114.903C-288.393 114.278 -288.27 113.772 -288.024 113.384C-287.778 112.991 -287.449 112.683 -287.037 112.46C-286.625 112.238 -286.17 112.072 -285.673 111.963C-285.171 111.849 -284.667 111.759 -284.16 111.693C-283.497 111.608 -282.96 111.544 -282.548 111.501C-282.131 111.454 -281.828 111.376 -281.639 111.267C-281.445 111.158 -281.348 110.969 -281.348 110.699V110.642C-281.348 109.941 -281.54 109.397 -281.923 109.009C-282.302 108.62 -282.877 108.426 -283.649 108.426C-284.449 108.426 -285.077 108.601 -285.531 108.952C-285.986 109.302 -286.305 109.676 -286.49 110.074L-288.081 109.506C-287.797 108.843 -287.418 108.327 -286.944 107.957C-286.466 107.583 -285.945 107.323 -285.382 107.176C-284.814 107.025 -284.255 106.949 -283.706 106.949C-283.355 106.949 -282.953 106.991 -282.498 107.077C-282.039 107.157 -281.596 107.325 -281.17 107.581C-280.739 107.837 -280.382 108.223 -280.098 108.739C-279.814 109.255 -279.672 109.946 -279.672 110.812V118H-281.348V116.523H-281.433C-281.547 116.759 -281.736 117.013 -282.001 117.283C-282.266 117.553 -282.619 117.782 -283.059 117.972C-283.5 118.161 -284.037 118.256 -284.672 118.256ZM-284.416 116.75C-283.753 116.75 -283.194 116.62 -282.74 116.359C-282.281 116.099 -281.935 115.763 -281.703 115.351C-281.466 114.939 -281.348 114.506 -281.348 114.051V112.517C-281.419 112.602 -281.575 112.68 -281.817 112.751C-282.053 112.818 -282.328 112.877 -282.64 112.929C-282.948 112.976 -283.249 113.019 -283.542 113.057C-283.831 113.09 -284.066 113.118 -284.246 113.142C-284.681 113.199 -285.088 113.291 -285.467 113.419C-285.841 113.542 -286.144 113.729 -286.376 113.98C-286.604 114.226 -286.717 114.562 -286.717 114.989C-286.717 115.571 -286.502 116.011 -286.071 116.31C-285.635 116.603 -285.084 116.75 -284.416 116.75ZM-274.936 111.438V118H-276.612V107.091H-274.993V108.795H-274.851C-274.595 108.241 -274.207 107.796 -273.686 107.46C-273.165 107.119 -272.493 106.949 -271.669 106.949C-270.931 106.949 -270.284 107.1 -269.73 107.403C-269.176 107.702 -268.745 108.156 -268.438 108.767C-268.13 109.373 -267.976 110.14 -267.976 111.068V118H-269.652V111.182C-269.652 110.325 -269.875 109.657 -270.32 109.179C-270.765 108.696 -271.376 108.455 -272.152 108.455C-272.687 108.455 -273.165 108.571 -273.587 108.803C-274.003 109.035 -274.333 109.373 -274.574 109.818C-274.816 110.263 -274.936 110.803 -274.936 111.438ZM-260.794 118.227C-261.703 118.227 -262.506 117.998 -263.202 117.538C-263.898 117.074 -264.442 116.421 -264.835 115.578C-265.228 114.731 -265.425 113.729 -265.425 112.574C-265.425 111.428 -265.228 110.434 -264.835 109.591C-264.442 108.748 -263.895 108.097 -263.194 107.638C-262.494 107.179 -261.684 106.949 -260.765 106.949C-260.055 106.949 -259.494 107.067 -259.082 107.304C-258.666 107.536 -258.348 107.801 -258.131 108.099C-257.908 108.393 -257.735 108.634 -257.612 108.824H-257.47V103.455H-255.794V118H-257.413V116.324H-257.612C-257.735 116.523 -257.91 116.774 -258.138 117.077C-258.365 117.375 -258.689 117.643 -259.111 117.879C-259.532 118.111 -260.093 118.227 -260.794 118.227ZM-260.567 116.722C-259.894 116.722 -259.326 116.546 -258.862 116.196C-258.398 115.841 -258.045 115.351 -257.804 114.726C-257.562 114.096 -257.442 113.369 -257.442 112.545C-257.442 111.731 -257.56 111.018 -257.797 110.408C-258.033 109.792 -258.384 109.314 -258.848 108.973C-259.312 108.627 -259.885 108.455 -260.567 108.455C-261.277 108.455 -261.869 108.637 -262.342 109.001C-262.811 109.361 -263.164 109.851 -263.4 110.472C-263.632 111.087 -263.748 111.778 -263.748 112.545C-263.748 113.322 -263.63 114.027 -263.393 114.662C-263.152 115.292 -262.797 115.794 -262.328 116.168C-261.854 116.537 -261.267 116.722 -260.567 116.722ZM-246.866 118V107.091H-245.19V118H-246.866ZM-246.014 105.273C-246.341 105.273 -246.622 105.161 -246.859 104.939C-247.091 104.716 -247.207 104.449 -247.207 104.136C-247.207 103.824 -247.091 103.556 -246.859 103.334C-246.622 103.111 -246.341 103 -246.014 103C-245.687 103 -245.408 103.111 -245.176 103.334C-244.939 103.556 -244.821 103.824 -244.821 104.136C-244.821 104.449 -244.939 104.716 -245.176 104.939C-245.408 105.161 -245.687 105.273 -246.014 105.273ZM-237.376 107.091V108.511H-243.029V107.091H-237.376ZM-241.382 104.477H-239.705V114.875C-239.705 115.348 -239.637 115.704 -239.499 115.94C-239.357 116.172 -239.177 116.329 -238.96 116.409C-238.737 116.485 -238.503 116.523 -238.257 116.523C-238.072 116.523 -237.92 116.513 -237.802 116.494C-237.684 116.471 -237.589 116.452 -237.518 116.438L-237.177 117.943C-237.291 117.986 -237.449 118.028 -237.653 118.071C-237.856 118.118 -238.115 118.142 -238.427 118.142C-238.901 118.142 -239.365 118.04 -239.819 117.837C-240.269 117.633 -240.643 117.323 -240.941 116.906C-241.235 116.49 -241.382 115.964 -241.382 115.33V104.477ZM-233.406 103.455V108.455H-234.968V103.455H-233.406ZM-222.694 109.534L-224.199 109.96C-224.294 109.709 -224.434 109.465 -224.618 109.229C-224.798 108.987 -225.045 108.788 -225.357 108.632C-225.67 108.476 -226.07 108.398 -226.557 108.398C-227.225 108.398 -227.781 108.552 -228.226 108.859C-228.667 109.162 -228.887 109.548 -228.887 110.017C-228.887 110.434 -228.735 110.763 -228.432 111.004C-228.129 111.246 -227.656 111.447 -227.012 111.608L-225.393 112.006C-224.417 112.242 -223.69 112.605 -223.212 113.092C-222.734 113.575 -222.495 114.198 -222.495 114.96C-222.495 115.585 -222.675 116.144 -223.035 116.636C-223.39 117.129 -223.887 117.517 -224.526 117.801C-225.165 118.085 -225.909 118.227 -226.756 118.227C-227.869 118.227 -228.79 117.986 -229.519 117.503C-230.248 117.02 -230.71 116.314 -230.904 115.386L-229.313 114.989C-229.162 115.576 -228.875 116.016 -228.454 116.31C-228.028 116.603 -227.471 116.75 -226.785 116.75C-226.003 116.75 -225.383 116.584 -224.924 116.253C-224.46 115.917 -224.228 115.514 -224.228 115.045C-224.228 114.667 -224.36 114.349 -224.626 114.094C-224.891 113.833 -225.298 113.639 -225.847 113.511L-227.665 113.085C-228.664 112.848 -229.398 112.482 -229.867 111.984C-230.331 111.482 -230.563 110.855 -230.563 110.102C-230.563 109.487 -230.39 108.942 -230.045 108.469C-229.694 107.995 -229.218 107.624 -228.617 107.354C-228.011 107.084 -227.324 106.949 -226.557 106.949C-225.478 106.949 -224.63 107.186 -224.015 107.659C-223.394 108.133 -222.954 108.758 -222.694 109.534ZM-211.137 118.256C-211.828 118.256 -212.455 118.125 -213.019 117.865C-213.582 117.6 -214.03 117.219 -214.361 116.722C-214.692 116.22 -214.858 115.614 -214.858 114.903C-214.858 114.278 -214.735 113.772 -214.489 113.384C-214.243 112.991 -213.914 112.683 -213.502 112.46C-213.09 112.238 -212.635 112.072 -212.138 111.963C-211.636 111.849 -211.132 111.759 -210.625 111.693C-209.962 111.608 -209.425 111.544 -209.013 111.501C-208.596 111.454 -208.293 111.376 -208.104 111.267C-207.91 111.158 -207.813 110.969 -207.813 110.699V110.642C-207.813 109.941 -208.004 109.397 -208.388 109.009C-208.767 108.62 -209.342 108.426 -210.114 108.426C-210.914 108.426 -211.541 108.601 -211.996 108.952C-212.45 109.302 -212.77 109.676 -212.955 110.074L-214.546 109.506C-214.262 108.843 -213.883 108.327 -213.409 107.957C-212.931 107.583 -212.41 107.323 -211.847 107.176C-211.279 107.025 -210.72 106.949 -210.171 106.949C-209.82 106.949 -209.418 106.991 -208.963 107.077C-208.504 107.157 -208.061 107.325 -207.635 107.581C-207.204 107.837 -206.847 108.223 -206.563 108.739C-206.279 109.255 -206.137 109.946 -206.137 110.812V118H-207.813V116.523H-207.898C-208.012 116.759 -208.201 117.013 -208.466 117.283C-208.731 117.553 -209.084 117.782 -209.524 117.972C-209.965 118.161 -210.502 118.256 -211.137 118.256ZM-210.881 116.75C-210.218 116.75 -209.659 116.62 -209.205 116.359C-208.745 116.099 -208.4 115.763 -208.168 115.351C-207.931 114.939 -207.813 114.506 -207.813 114.051V112.517C-207.884 112.602 -208.04 112.68 -208.281 112.751C-208.518 112.818 -208.793 112.877 -209.105 112.929C-209.413 112.976 -209.714 113.019 -210.007 113.057C-210.296 113.09 -210.53 113.118 -210.71 113.142C-211.146 113.199 -211.553 113.291 -211.932 113.419C-212.306 113.542 -212.609 113.729 -212.841 113.98C-213.068 114.226 -213.182 114.562 -213.182 114.989C-213.182 115.571 -212.967 116.011 -212.536 116.31C-212.1 116.603 -211.548 116.75 -210.881 116.75ZM-201.401 103.455V118H-203.077V103.455H-201.401ZM-196.655 103.455V118H-198.331V103.455H-196.655ZM-184.75 118.256C-185.441 118.256 -186.068 118.125 -186.632 117.865C-187.195 117.6 -187.643 117.219 -187.974 116.722C-188.306 116.22 -188.471 115.614 -188.471 114.903C-188.471 114.278 -188.348 113.772 -188.102 113.384C-187.856 112.991 -187.527 112.683 -187.115 112.46C-186.703 112.238 -186.248 112.072 -185.751 111.963C-185.249 111.849 -184.745 111.759 -184.238 111.693C-183.576 111.608 -183.038 111.544 -182.626 111.501C-182.21 111.454 -181.907 111.376 -181.717 111.267C-181.523 111.158 -181.426 110.969 -181.426 110.699V110.642C-181.426 109.941 -181.618 109.397 -182.001 109.009C-182.38 108.62 -182.955 108.426 -183.727 108.426C-184.527 108.426 -185.155 108.601 -185.609 108.952C-186.064 109.302 -186.383 109.676 -186.568 110.074L-188.159 109.506C-187.875 108.843 -187.496 108.327 -187.023 107.957C-186.544 107.583 -186.023 107.323 -185.46 107.176C-184.892 107.025 -184.333 106.949 -183.784 106.949C-183.434 106.949 -183.031 106.991 -182.577 107.077C-182.117 107.157 -181.675 107.325 -181.248 107.581C-180.818 107.837 -180.46 108.223 -180.176 108.739C-179.892 109.255 -179.75 109.946 -179.75 110.812V118H-181.426V116.523H-181.511C-181.625 116.759 -181.814 117.013 -182.079 117.283C-182.345 117.553 -182.697 117.782 -183.138 117.972C-183.578 118.161 -184.115 118.256 -184.75 118.256ZM-184.494 116.75C-183.831 116.75 -183.273 116.62 -182.818 116.359C-182.359 116.099 -182.013 115.763 -181.781 115.351C-181.544 114.939 -181.426 114.506 -181.426 114.051V112.517C-181.497 112.602 -181.653 112.68 -181.895 112.751C-182.131 112.818 -182.406 112.877 -182.719 112.929C-183.026 112.976 -183.327 113.019 -183.621 113.057C-183.909 113.09 -184.144 113.118 -184.324 113.142C-184.759 113.199 -185.166 113.291 -185.545 113.419C-185.919 113.542 -186.222 113.729 -186.454 113.98C-186.682 114.226 -186.795 114.562 -186.795 114.989C-186.795 115.571 -186.58 116.011 -186.149 116.31C-185.713 116.603 -185.162 116.75 -184.494 116.75ZM-176.463 118V103.455H-174.787V108.824H-174.645C-174.522 108.634 -174.352 108.393 -174.134 108.099C-173.911 107.801 -173.594 107.536 -173.182 107.304C-172.765 107.067 -172.202 106.949 -171.492 106.949C-170.573 106.949 -169.763 107.179 -169.063 107.638C-168.362 108.097 -167.815 108.748 -167.422 109.591C-167.029 110.434 -166.833 111.428 -166.833 112.574C-166.833 113.729 -167.029 114.731 -167.422 115.578C-167.815 116.421 -168.36 117.074 -169.056 117.538C-169.752 117.998 -170.554 118.227 -171.463 118.227C-172.164 118.227 -172.725 118.111 -173.146 117.879C-173.568 117.643 -173.892 117.375 -174.119 117.077C-174.347 116.774 -174.522 116.523 -174.645 116.324H-174.844V118H-176.463ZM-174.816 112.545C-174.816 113.369 -174.695 114.096 -174.453 114.726C-174.212 115.351 -173.859 115.841 -173.395 116.196C-172.931 116.546 -172.363 116.722 -171.691 116.722C-170.99 116.722 -170.405 116.537 -169.936 116.168C-169.463 115.794 -169.108 115.292 -168.871 114.662C-168.629 114.027 -168.509 113.322 -168.509 112.545C-168.509 111.778 -168.627 111.087 -168.864 110.472C-169.096 109.851 -169.449 109.361 -169.922 109.001C-170.391 108.637 -170.98 108.455 -171.691 108.455C-172.372 108.455 -172.945 108.627 -173.409 108.973C-173.873 109.314 -174.224 109.792 -174.46 110.408C-174.697 111.018 -174.816 111.731 -174.816 112.545ZM-159.837 118.227C-160.822 118.227 -161.686 117.993 -162.429 117.524C-163.168 117.055 -163.745 116.4 -164.162 115.557C-164.574 114.714 -164.78 113.729 -164.78 112.602C-164.78 111.466 -164.574 110.474 -164.162 109.626C-163.745 108.779 -163.168 108.121 -162.429 107.652C-161.686 107.183 -160.822 106.949 -159.837 106.949C-158.852 106.949 -157.99 107.183 -157.252 107.652C-156.508 108.121 -155.931 108.779 -155.519 109.626C-155.102 110.474 -154.894 111.466 -154.894 112.602C-154.894 113.729 -155.102 114.714 -155.519 115.557C-155.931 116.4 -156.508 117.055 -157.252 117.524C-157.99 117.993 -158.852 118.227 -159.837 118.227ZM-159.837 116.722C-159.089 116.722 -158.473 116.53 -157.99 116.146C-157.507 115.763 -157.15 115.259 -156.918 114.634C-156.686 114.009 -156.57 113.331 -156.57 112.602C-156.57 111.873 -156.686 111.194 -156.918 110.564C-157.15 109.934 -157.507 109.425 -157.99 109.037C-158.473 108.649 -159.089 108.455 -159.837 108.455C-160.585 108.455 -161.2 108.649 -161.683 109.037C-162.166 109.425 -162.524 109.934 -162.756 110.564C-162.988 111.194 -163.104 111.873 -163.104 112.602C-163.104 113.331 -162.988 114.009 -162.756 114.634C-162.524 115.259 -162.166 115.763 -161.683 116.146C-161.2 116.53 -160.585 116.722 -159.837 116.722ZM-145.46 113.54V107.091H-143.784V118H-145.46V116.153H-145.574C-145.829 116.707 -146.227 117.179 -146.767 117.567C-147.307 117.95 -147.988 118.142 -148.812 118.142C-149.494 118.142 -150.1 117.993 -150.631 117.695C-151.161 117.392 -151.577 116.937 -151.881 116.331C-152.184 115.72 -152.335 114.951 -152.335 114.023V107.091H-150.659V113.909C-150.659 114.705 -150.436 115.339 -149.991 115.812C-149.541 116.286 -148.969 116.523 -148.273 116.523C-147.856 116.523 -147.432 116.416 -147.001 116.203C-146.566 115.99 -146.201 115.663 -145.907 115.223C-145.609 114.783 -145.46 114.222 -145.46 113.54ZM-135.97 107.091V108.511H-141.623V107.091H-135.97ZM-139.975 104.477H-138.299V114.875C-138.299 115.348 -138.231 115.704 -138.093 115.94C-137.951 116.172 -137.771 116.329 -137.553 116.409C-137.331 116.485 -137.097 116.523 -136.85 116.523C-136.666 116.523 -136.514 116.513 -136.396 116.494C-136.277 116.471 -136.183 116.452 -136.112 116.438L-135.771 117.943C-135.884 117.986 -136.043 118.028 -136.247 118.071C-136.45 118.118 -136.708 118.142 -137.021 118.142C-137.494 118.142 -137.958 118.04 -138.413 117.837C-138.863 117.633 -139.237 117.323 -139.535 116.906C-139.829 116.49 -139.975 115.964 -139.975 115.33V104.477ZM-122.738 103.455V118H-124.499V105.301H-124.585L-128.136 107.659V105.869L-124.499 103.455H-122.738ZM-113.811 118.199C-114.881 118.199 -115.792 117.908 -116.545 117.325C-117.298 116.738 -117.873 115.888 -118.271 114.776C-118.669 113.658 -118.867 112.309 -118.867 110.727C-118.867 109.155 -118.669 107.813 -118.271 106.7C-117.868 105.583 -117.291 104.731 -116.538 104.143C-115.78 103.552 -114.871 103.256 -113.811 103.256C-112.75 103.256 -111.843 103.552 -111.09 104.143C-110.333 104.731 -109.755 105.583 -109.357 106.7C-108.955 107.813 -108.754 109.155 -108.754 110.727C-108.754 112.309 -108.953 113.658 -109.35 114.776C-109.748 115.888 -110.323 116.738 -111.076 117.325C-111.829 117.908 -112.74 118.199 -113.811 118.199ZM-113.811 116.636C-112.75 116.636 -111.926 116.125 -111.339 115.102C-110.752 114.08 -110.458 112.621 -110.458 110.727C-110.458 109.468 -110.593 108.395 -110.863 107.51C-111.128 106.625 -111.512 105.95 -112.014 105.486C-112.511 105.022 -113.11 104.79 -113.811 104.79C-114.862 104.79 -115.683 105.308 -116.275 106.345C-116.867 107.377 -117.163 108.838 -117.163 110.727C-117.163 111.987 -117.03 113.057 -116.765 113.938C-116.5 114.818 -116.119 115.488 -115.622 115.947C-115.12 116.407 -114.516 116.636 -113.811 116.636ZM-97.9299 118L-101.254 107.091H-99.4924L-97.1344 115.443H-97.0208L-94.6912 107.091H-92.9015L-90.6003 115.415H-90.4867L-88.1287 107.091H-86.3674L-89.6912 118H-91.339L-93.7253 109.619H-93.8958L-96.2821 118H-97.9299ZM-80.0907 118.227C-81.0756 118.227 -81.9397 117.993 -82.6831 117.524C-83.4217 117.055 -83.9993 116.4 -84.416 115.557C-84.8279 114.714 -85.0339 113.729 -85.0339 112.602C-85.0339 111.466 -84.8279 110.474 -84.416 109.626C-83.9993 108.779 -83.4217 108.121 -82.6831 107.652C-81.9397 107.183 -81.0756 106.949 -80.0907 106.949C-79.1059 106.949 -78.2441 107.183 -77.5055 107.652C-76.7621 108.121 -76.1845 108.779 -75.7725 109.626C-75.3559 110.474 -75.1475 111.466 -75.1475 112.602C-75.1475 113.729 -75.3559 114.714 -75.7725 115.557C-76.1845 116.4 -76.7621 117.055 -77.5055 117.524C-78.2441 117.993 -79.1059 118.227 -80.0907 118.227ZM-80.0907 116.722C-79.3426 116.722 -78.7271 116.53 -78.2441 116.146C-77.7612 115.763 -77.4037 115.259 -77.1717 114.634C-76.9397 114.009 -76.8237 113.331 -76.8237 112.602C-76.8237 111.873 -76.9397 111.194 -77.1717 110.564C-77.4037 109.934 -77.7612 109.425 -78.2441 109.037C-78.7271 108.649 -79.3426 108.455 -80.0907 108.455C-80.8388 108.455 -81.4544 108.649 -81.9373 109.037C-82.4203 109.425 -82.7778 109.934 -83.0098 110.564C-83.2418 111.194 -83.3578 111.873 -83.3578 112.602C-83.3578 113.331 -83.2418 114.009 -83.0098 114.634C-82.7778 115.259 -82.4203 115.763 -81.9373 116.146C-81.4544 116.53 -80.8388 116.722 -80.0907 116.722ZM-72.589 118V107.091H-70.9696V108.739H-70.856C-70.6571 108.199 -70.2973 107.761 -69.7765 107.425C-69.2556 107.089 -68.6685 106.92 -68.0151 106.92C-67.892 106.92 -67.7381 106.923 -67.5534 106.928C-67.3688 106.932 -67.2291 106.939 -67.1344 106.949V108.653C-67.1912 108.639 -67.3214 108.618 -67.525 108.589C-67.7239 108.556 -67.9346 108.54 -68.1571 108.54C-68.6874 108.54 -69.1609 108.651 -69.5776 108.874C-69.9895 109.091 -70.3162 109.394 -70.5577 109.783C-70.7944 110.166 -70.9128 110.604 -70.9128 111.097V118H-72.589ZM-61.3603 118.227C-62.2694 118.227 -63.0719 117.998 -63.7679 117.538C-64.464 117.074 -65.0085 116.421 -65.4015 115.578C-65.7944 114.731 -65.9909 113.729 -65.9909 112.574C-65.9909 111.428 -65.7944 110.434 -65.4015 109.591C-65.0085 108.748 -64.4616 108.097 -63.7608 107.638C-63.0601 107.179 -62.2504 106.949 -61.3319 106.949C-60.6216 106.949 -60.0605 107.067 -59.6486 107.304C-59.2319 107.536 -58.9147 107.801 -58.6969 108.099C-58.4744 108.393 -58.3016 108.634 -58.1784 108.824H-58.0364V103.455H-56.3603V118H-57.9796V116.324H-58.1784C-58.3016 116.523 -58.4767 116.774 -58.704 117.077C-58.9313 117.375 -59.2556 117.643 -59.677 117.879C-60.0984 118.111 -60.6595 118.227 -61.3603 118.227ZM-61.133 116.722C-60.4606 116.722 -59.8925 116.546 -59.4284 116.196C-58.9644 115.841 -58.6117 115.351 -58.3702 114.726C-58.1287 114.096 -58.008 113.369 -58.008 112.545C-58.008 111.731 -58.1264 111.018 -58.3631 110.408C-58.5998 109.792 -58.9502 109.314 -59.4142 108.973C-59.8783 108.627 -60.4512 108.455 -61.133 108.455C-61.8432 108.455 -62.4351 108.637 -62.9086 109.001C-63.3773 109.361 -63.7301 109.851 -63.9668 110.472C-64.1988 111.087 -64.3148 111.778 -64.3148 112.545C-64.3148 113.322 -64.1964 114.027 -63.9597 114.662C-63.7182 115.292 -63.3631 115.794 -62.8944 116.168C-62.4209 116.537 -61.8337 116.722 -61.133 116.722ZM-45.3304 109.534L-46.8361 109.96C-46.9308 109.709 -47.0705 109.465 -47.2551 109.229C-47.4351 108.987 -47.6813 108.788 -47.9938 108.632C-48.3063 108.476 -48.7064 108.398 -49.1941 108.398C-49.8617 108.398 -50.418 108.552 -50.8631 108.859C-51.3034 109.162 -51.5236 109.548 -51.5236 110.017C-51.5236 110.434 -51.3721 110.763 -51.0691 111.004C-50.766 111.246 -50.2926 111.447 -49.6486 111.608L-48.0293 112.006C-47.0539 112.242 -46.3271 112.605 -45.8489 113.092C-45.3707 113.575 -45.1316 114.198 -45.1316 114.96C-45.1316 115.585 -45.3115 116.144 -45.6713 116.636C-46.0265 117.129 -46.5236 117.517 -47.1628 117.801C-47.802 118.085 -48.5454 118.227 -49.3929 118.227C-50.5056 118.227 -51.4266 117.986 -52.1557 117.503C-52.8849 117.02 -53.3465 116.314 -53.5407 115.386L-51.9498 114.989C-51.7982 115.576 -51.5118 116.016 -51.0904 116.31C-50.6642 116.603 -50.1079 116.75 -49.4213 116.75C-48.6401 116.75 -48.0198 116.584 -47.5605 116.253C-47.0965 115.917 -46.8645 115.514 -46.8645 115.045C-46.8645 114.667 -46.9971 114.349 -47.2623 114.094C-47.5274 113.833 -47.9346 113.639 -48.4838 113.511L-50.302 113.085C-51.3011 112.848 -52.035 112.482 -52.5037 111.984C-52.9677 111.482 -53.1998 110.855 -53.1998 110.102C-53.1998 109.487 -53.0269 108.942 -52.6813 108.469C-52.3309 107.995 -51.8551 107.624 -51.2537 107.354C-50.6477 107.084 -49.9611 106.949 -49.1941 106.949C-48.1145 106.949 -47.267 107.186 -46.6515 107.659C-46.0312 108.133 -45.5908 108.758 -45.3304 109.534ZM-32.2392 107.091V108.511H-37.8926V107.091H-32.2392ZM-36.2449 104.477H-34.5687V114.875C-34.5687 115.348 -34.5001 115.704 -34.3627 115.94C-34.2207 116.172 -34.0408 116.329 -33.823 116.409C-33.6004 116.485 -33.3661 116.523 -33.1199 116.523C-32.9352 116.523 -32.7837 116.513 -32.6653 116.494C-32.5469 116.471 -32.4522 116.452 -32.3812 116.438L-32.0403 117.943C-32.1539 117.986 -32.3126 118.028 -32.5162 118.071C-32.7198 118.118 -32.9778 118.142 -33.2903 118.142C-33.7638 118.142 -34.2278 118.04 -34.6824 117.837C-35.1322 117.633 -35.5062 117.323 -35.8045 116.906C-36.0981 116.49 -36.2449 115.964 -36.2449 115.33V104.477ZM-27.8074 111.438V118H-29.4835V103.455H-27.8074V108.795H-27.6653C-27.4096 108.232 -27.0261 107.785 -26.5147 107.453C-25.9986 107.117 -25.3121 106.949 -24.4551 106.949C-23.7117 106.949 -23.0607 107.098 -22.502 107.396C-21.9432 107.69 -21.51 108.142 -21.2022 108.753C-20.8897 109.359 -20.7335 110.131 -20.7335 111.068V118H-22.4096V111.182C-22.4096 110.315 -22.6345 109.645 -23.0843 109.172C-23.5294 108.694 -24.1473 108.455 -24.938 108.455C-25.4873 108.455 -25.9797 108.571 -26.4153 108.803C-26.8462 109.035 -27.1871 109.373 -27.438 109.818C-27.6842 110.263 -27.8074 110.803 -27.8074 111.438ZM-14.4569 118.256C-15.1481 118.256 -15.7755 118.125 -16.339 117.865C-16.9024 117.6 -17.3498 117.219 -17.6813 116.722C-18.0127 116.22 -18.1784 115.614 -18.1784 114.903C-18.1784 114.278 -18.0553 113.772 -17.8091 113.384C-17.5629 112.991 -17.2338 112.683 -16.8219 112.46C-16.41 112.238 -15.9554 112.072 -15.4583 111.963C-14.9564 111.849 -14.4521 111.759 -13.9455 111.693C-13.2826 111.608 -12.7452 111.544 -12.3333 111.501C-11.9166 111.454 -11.6136 111.376 -11.4242 111.267C-11.2301 111.158 -11.133 110.969 -11.133 110.699V110.642C-11.133 109.941 -11.3248 109.397 -11.7083 109.009C-12.0871 108.62 -12.6623 108.426 -13.4341 108.426C-14.2343 108.426 -14.8617 108.601 -15.3162 108.952C-15.7708 109.302 -16.0904 109.676 -16.275 110.074L-17.8659 109.506C-17.5819 108.843 -17.2031 108.327 -16.7296 107.957C-16.2514 107.583 -15.7305 107.323 -15.1671 107.176C-14.5989 107.025 -14.0402 106.949 -13.4909 106.949C-13.1406 106.949 -12.7381 106.991 -12.2836 107.077C-11.8243 107.157 -11.3816 107.325 -10.9554 107.581C-10.5246 107.837 -10.1671 108.223 -9.88299 108.739C-9.5989 109.255 -9.45685 109.946 -9.45685 110.812V118H-11.133V116.523H-11.2182C-11.3319 116.759 -11.5212 117.013 -11.7864 117.283C-12.0516 117.553 -12.4043 117.782 -12.8446 117.972C-13.285 118.161 -13.8224 118.256 -14.4569 118.256ZM-14.2012 116.75C-13.5383 116.75 -12.9796 116.62 -12.525 116.359C-12.0658 116.099 -11.7201 115.763 -11.4881 115.351C-11.2514 114.939 -11.133 114.506 -11.133 114.051V112.517C-11.204 112.602 -11.3603 112.68 -11.6017 112.751C-11.8385 112.818 -12.1131 112.877 -12.4256 112.929C-12.7334 112.976 -13.034 113.019 -13.3276 113.057C-13.6164 113.09 -13.8508 113.118 -14.0307 113.142C-14.4663 113.199 -14.8735 113.291 -15.2523 113.419C-15.6264 113.542 -15.9294 113.729 -16.1614 113.98C-16.3887 114.226 -16.5023 114.562 -16.5023 114.989C-16.5023 115.571 -16.2869 116.011 -15.856 116.31C-15.4204 116.603 -14.8688 116.75 -14.2012 116.75ZM-1.65323 107.091V108.511H-7.30664V107.091H-1.65323ZM-5.65891 104.477H-3.98278V114.875C-3.98278 115.348 -3.91412 115.704 -3.77681 115.94C-3.63477 116.172 -3.45484 116.329 -3.23704 116.409C-3.0145 116.485 -2.78013 116.523 -2.53391 116.523C-2.34925 116.523 -2.19774 116.513 -2.07937 116.494C-1.961 116.471 -1.8663 116.452 -1.79528 116.438L-1.45437 117.943C-1.568 117.986 -1.72662 118.028 -1.93022 118.071C-2.13382 118.118 -2.39187 118.142 -2.70437 118.142C-3.17785 118.142 -3.64187 118.04 -4.09641 117.837C-4.54622 117.633 -4.92028 117.323 -5.21857 116.906C-5.51213 116.49 -5.65891 115.964 -5.65891 115.33V104.477ZM7.57262 122.091C7.28853 122.091 7.03522 122.067 6.81268 122.02C6.59014 121.977 6.43626 121.935 6.35103 121.892L6.77717 120.415C7.18436 120.519 7.54421 120.557 7.85671 120.528C8.16921 120.5 8.4462 120.36 8.68768 120.109C8.93389 119.863 9.1588 119.463 9.36239 118.909L9.67489 118.057L5.6408 107.091H7.45898L10.4703 115.784H10.584L13.5953 107.091H15.4135L10.7828 119.591C10.5745 120.154 10.3165 120.621 10.0087 120.99C9.70094 121.364 9.34345 121.641 8.93626 121.821C8.5338 122.001 8.07925 122.091 7.57262 122.091ZM21.6671 118.227C20.6822 118.227 19.8181 117.993 19.0748 117.524C18.3361 117.055 17.7585 116.4 17.3418 115.557C16.9299 114.714 16.7239 113.729 16.7239 112.602C16.7239 111.466 16.9299 110.474 17.3418 109.626C17.7585 108.779 18.3361 108.121 19.0748 107.652C19.8181 107.183 20.6822 106.949 21.6671 106.949C22.6519 106.949 23.5137 107.183 24.2523 107.652C24.9957 108.121 25.5733 108.779 25.9853 109.626C26.4019 110.474 26.6103 111.466 26.6103 112.602C26.6103 113.729 26.4019 114.714 25.9853 115.557C25.5733 116.4 24.9957 117.055 24.2523 117.524C23.5137 117.993 22.6519 118.227 21.6671 118.227ZM21.6671 116.722C22.4152 116.722 23.0307 116.53 23.5137 116.146C23.9966 115.763 24.3541 115.259 24.5861 114.634C24.8181 114.009 24.9341 113.331 24.9341 112.602C24.9341 111.873 24.8181 111.194 24.5861 110.564C24.3541 109.934 23.9966 109.425 23.5137 109.037C23.0307 108.649 22.4152 108.455 21.6671 108.455C20.919 108.455 20.3034 108.649 19.8205 109.037C19.3375 109.425 18.9801 109.934 18.748 110.564C18.516 111.194 18.4 111.873 18.4 112.602C18.4 113.331 18.516 114.009 18.748 114.634C18.9801 115.259 19.3375 115.763 19.8205 116.146C20.3034 116.53 20.919 116.722 21.6671 116.722ZM36.0439 113.54V107.091H37.72V118H36.0439V116.153H35.9302C35.6745 116.707 35.2768 117.179 34.737 117.567C34.1973 117.95 33.5154 118.142 32.6916 118.142C32.0098 118.142 31.4037 117.993 30.8734 117.695C30.3431 117.392 29.9264 116.937 29.6234 116.331C29.3204 115.72 29.1689 114.951 29.1689 114.023V107.091H30.845V113.909C30.845 114.705 31.0675 115.339 31.5126 115.812C31.9624 116.286 32.5353 116.523 33.2314 116.523C33.648 116.523 34.0718 116.416 34.5027 116.203C34.9383 115.99 35.3029 115.663 35.5964 115.223C35.8947 114.783 36.0439 114.222 36.0439 113.54ZM46.415 118V107.091H48.0343V108.795H48.1763C48.4036 108.213 48.7705 107.761 49.2772 107.439C49.7838 107.112 50.3922 106.949 51.1025 106.949C51.8221 106.949 52.4211 107.112 52.8993 107.439C53.3823 107.761 53.7587 108.213 54.0286 108.795H54.1422C54.4216 108.232 54.8406 107.785 55.3993 107.453C55.958 107.117 56.628 106.949 57.4093 106.949C58.3846 106.949 59.1825 107.254 59.8027 107.865C60.423 108.471 60.7331 109.416 60.7331 110.699V118H59.057V110.699C59.057 109.894 58.8368 109.319 58.3965 108.973C57.9561 108.627 57.4377 108.455 56.8411 108.455C56.074 108.455 55.4798 108.687 55.0584 109.151C54.637 109.61 54.4263 110.192 54.4263 110.898V118H52.7218V110.528C52.7218 109.908 52.5205 109.409 52.1181 109.03C51.7156 108.646 51.1971 108.455 50.5627 108.455C50.1271 108.455 49.7199 108.571 49.3411 108.803C48.967 109.035 48.664 109.357 48.432 109.768C48.2047 110.176 48.0911 110.647 48.0911 111.182V118H46.415ZM63.7978 118V107.091H65.4739V118H63.7978ZM64.65 105.273C64.3233 105.273 64.0416 105.161 63.8049 104.939C63.5729 104.716 63.4569 104.449 63.4569 104.136C63.4569 103.824 63.5729 103.556 63.8049 103.334C64.0416 103.111 64.3233 103 64.65 103C64.9767 103 65.2561 103.111 65.4881 103.334C65.7248 103.556 65.8432 103.824 65.8432 104.136C65.8432 104.449 65.7248 104.716 65.4881 104.939C65.2561 105.161 64.9767 105.273 64.65 105.273ZM72.9473 122.318C72.1376 122.318 71.4416 122.214 70.8592 122.006C70.2768 121.802 69.7915 121.532 69.4032 121.196C69.0197 120.865 68.7143 120.509 68.487 120.131L69.8223 119.193C69.9738 119.392 70.1655 119.619 70.3975 119.875C70.6296 120.135 70.9468 120.36 71.3493 120.55C71.7565 120.744 72.2891 120.841 72.9473 120.841C73.8279 120.841 74.5547 120.628 75.1277 120.202C75.7006 119.776 75.987 119.108 75.987 118.199V115.983H75.845C75.7219 116.182 75.5467 116.428 75.3194 116.722C75.0969 117.01 74.7749 117.268 74.3535 117.496C73.9368 117.718 73.3734 117.83 72.6632 117.83C71.7825 117.83 70.9918 117.621 70.291 117.205C69.595 116.788 69.0434 116.182 68.6362 115.386C68.2337 114.591 68.0325 113.625 68.0325 112.489C68.0325 111.371 68.229 110.398 68.622 109.57C69.015 108.736 69.5618 108.092 70.2626 107.638C70.9634 107.179 71.773 106.949 72.6916 106.949C73.4018 106.949 73.9653 107.067 74.3819 107.304C74.8033 107.536 75.1253 107.801 75.3478 108.099C75.5751 108.393 75.7503 108.634 75.8734 108.824H76.0439V107.091H77.6632V118.312C77.6632 119.25 77.4501 120.012 77.024 120.599C76.6026 121.191 76.0344 121.625 75.3194 121.899C74.6092 122.179 73.8185 122.318 72.9473 122.318ZM72.8904 116.324C73.5628 116.324 74.131 116.17 74.595 115.862C75.059 115.554 75.4118 115.112 75.6532 114.534C75.8947 113.956 76.0154 113.265 76.0154 112.46C76.0154 111.674 75.8971 110.981 75.6603 110.379C75.4236 109.778 75.0732 109.307 74.6092 108.966C74.1452 108.625 73.5723 108.455 72.8904 108.455C72.1802 108.455 71.5884 108.634 71.1149 108.994C70.6461 109.354 70.2934 109.837 70.0566 110.443C69.8246 111.049 69.7086 111.722 69.7086 112.46C69.7086 113.218 69.827 113.888 70.0637 114.47C70.3052 115.048 70.6603 115.502 71.1291 115.834C71.6026 116.161 72.1897 116.324 72.8904 116.324ZM82.4075 111.438V118H80.7314V103.455H82.4075V108.795H82.5495C82.8052 108.232 83.1887 107.785 83.7001 107.453C84.2162 107.117 84.9028 106.949 85.7598 106.949C86.5031 106.949 87.1542 107.098 87.7129 107.396C88.2716 107.69 88.7048 108.142 89.0126 108.753C89.3251 109.359 89.4814 110.131 89.4814 111.068V118H87.8052V111.182C87.8052 110.315 87.5803 109.645 87.1305 109.172C86.6854 108.694 86.0675 108.455 85.2768 108.455C84.7276 108.455 84.2351 108.571 83.7995 108.803C83.3687 109.035 83.0278 109.373 82.7768 109.818C82.5306 110.263 82.4075 110.803 82.4075 111.438ZM97.2921 107.091V108.511H91.6387V107.091H97.2921ZM93.2864 104.477H94.9625V114.875C94.9625 115.348 95.0312 115.704 95.1685 115.94C95.3105 116.172 95.4905 116.329 95.7083 116.409C95.9308 116.485 96.1652 116.523 96.4114 116.523C96.5961 116.523 96.7476 116.513 96.8659 116.494C96.9843 116.471 97.079 116.452 97.15 116.438L97.4909 117.943C97.3773 117.986 97.2187 118.028 97.0151 118.071C96.8115 118.118 96.5534 118.142 96.2409 118.142C95.7675 118.142 95.3034 118.04 94.8489 117.837C94.3991 117.633 94.025 117.323 93.7267 116.906C93.4332 116.49 93.2864 115.964 93.2864 115.33V104.477ZM105.666 118V103.455H107.342V108.824H107.484C107.607 108.634 107.777 108.393 107.995 108.099C108.218 107.801 108.535 107.536 108.947 107.304C109.364 107.067 109.927 106.949 110.637 106.949C111.556 106.949 112.365 107.179 113.066 107.638C113.767 108.097 114.314 108.748 114.707 109.591C115.1 110.434 115.296 111.428 115.296 112.574C115.296 113.729 115.1 114.731 114.707 115.578C114.314 116.421 113.769 117.074 113.073 117.538C112.377 117.998 111.575 118.227 110.666 118.227C109.965 118.227 109.404 118.111 108.982 117.879C108.561 117.643 108.237 117.375 108.009 117.077C107.782 116.774 107.607 116.523 107.484 116.324H107.285V118H105.666ZM107.313 112.545C107.313 113.369 107.434 114.096 107.676 114.726C107.917 115.351 108.27 115.841 108.734 116.196C109.198 116.546 109.766 116.722 110.438 116.722C111.139 116.722 111.724 116.537 112.193 116.168C112.666 115.794 113.021 115.292 113.258 114.662C113.499 114.027 113.62 113.322 113.62 112.545C113.62 111.778 113.502 111.087 113.265 110.472C113.033 109.851 112.68 109.361 112.207 109.001C111.738 108.637 111.149 108.455 110.438 108.455C109.757 108.455 109.184 108.627 108.72 108.973C108.256 109.314 107.905 109.792 107.669 110.408C107.432 111.018 107.313 111.731 107.313 112.545ZM122.434 118.227C121.383 118.227 120.476 117.995 119.714 117.531C118.956 117.062 118.372 116.409 117.96 115.571C117.552 114.728 117.349 113.748 117.349 112.631C117.349 111.513 117.552 110.528 117.96 109.676C118.372 108.819 118.945 108.152 119.678 107.673C120.417 107.19 121.279 106.949 122.264 106.949C122.832 106.949 123.393 107.044 123.947 107.233C124.501 107.422 125.005 107.73 125.46 108.156C125.914 108.578 126.276 109.136 126.546 109.832C126.816 110.528 126.951 111.385 126.951 112.403V113.114H118.542V111.665H125.247C125.247 111.049 125.124 110.5 124.877 110.017C124.636 109.534 124.29 109.153 123.84 108.874C123.395 108.594 122.87 108.455 122.264 108.455C121.596 108.455 121.018 108.62 120.531 108.952C120.048 109.278 119.676 109.705 119.416 110.23C119.155 110.756 119.025 111.319 119.025 111.92V112.886C119.025 113.71 119.167 114.409 119.451 114.982C119.74 115.55 120.14 115.983 120.651 116.281C121.163 116.575 121.757 116.722 122.434 116.722C122.874 116.722 123.272 116.66 123.627 116.537C123.987 116.409 124.297 116.22 124.558 115.969C124.818 115.713 125.019 115.396 125.161 115.017L126.781 115.472C126.61 116.021 126.324 116.504 125.921 116.92C125.519 117.332 125.022 117.654 124.43 117.886C123.838 118.114 123.173 118.227 122.434 118.227ZM135.126 122.091V107.091H136.745V108.824H136.944C137.067 108.634 137.238 108.393 137.455 108.099C137.678 107.801 137.995 107.536 138.407 107.304C138.824 107.067 139.387 106.949 140.097 106.949C141.016 106.949 141.826 107.179 142.526 107.638C143.227 108.097 143.774 108.748 144.167 109.591C144.56 110.434 144.757 111.428 144.757 112.574C144.757 113.729 144.56 114.731 144.167 115.578C143.774 116.421 143.23 117.074 142.534 117.538C141.838 117.998 141.035 118.227 140.126 118.227C139.425 118.227 138.864 118.111 138.443 117.879C138.021 117.643 137.697 117.375 137.47 117.077C137.242 116.774 137.067 116.523 136.944 116.324H136.802V122.091H135.126ZM136.774 112.545C136.774 113.369 136.894 114.096 137.136 114.726C137.377 115.351 137.73 115.841 138.194 116.196C138.658 116.546 139.226 116.722 139.899 116.722C140.599 116.722 141.184 116.537 141.653 116.168C142.126 115.794 142.481 115.292 142.718 114.662C142.96 114.027 143.08 113.322 143.08 112.545C143.08 111.778 142.962 111.087 142.725 110.472C142.493 109.851 142.141 109.361 141.667 109.001C141.198 108.637 140.609 108.455 139.899 108.455C139.217 108.455 138.644 108.627 138.18 108.973C137.716 109.314 137.365 109.792 137.129 110.408C136.892 111.018 136.774 111.731 136.774 112.545ZM147.313 118V107.091H148.933V108.739H149.046C149.245 108.199 149.605 107.761 150.126 107.425C150.647 107.089 151.234 106.92 151.887 106.92C152.01 106.92 152.164 106.923 152.349 106.928C152.534 106.932 152.673 106.939 152.768 106.949V108.653C152.711 108.639 152.581 108.618 152.377 108.589C152.178 108.556 151.968 108.54 151.745 108.54C151.215 108.54 150.741 108.651 150.325 108.874C149.913 109.091 149.586 109.394 149.345 109.783C149.108 110.166 148.99 110.604 148.99 111.097V118H147.313ZM158.855 118.227C157.87 118.227 157.006 117.993 156.262 117.524C155.524 117.055 154.946 116.4 154.529 115.557C154.117 114.714 153.911 113.729 153.911 112.602C153.911 111.466 154.117 110.474 154.529 109.626C154.946 108.779 155.524 108.121 156.262 107.652C157.006 107.183 157.87 106.949 158.855 106.949C159.839 106.949 160.701 107.183 161.44 107.652C162.183 108.121 162.761 108.779 163.173 109.626C163.589 110.474 163.798 111.466 163.798 112.602C163.798 113.729 163.589 114.714 163.173 115.557C162.761 116.4 162.183 117.055 161.44 117.524C160.701 117.993 159.839 118.227 158.855 118.227ZM158.855 116.722C159.603 116.722 160.218 116.53 160.701 116.146C161.184 115.763 161.542 115.259 161.774 114.634C162.006 114.009 162.122 113.331 162.122 112.602C162.122 111.873 162.006 111.194 161.774 110.564C161.542 109.934 161.184 109.425 160.701 109.037C160.218 108.649 159.603 108.455 158.855 108.455C158.106 108.455 157.491 108.649 157.008 109.037C156.525 109.425 156.168 109.934 155.936 110.564C155.704 111.194 155.588 111.873 155.588 112.602C155.588 113.331 155.704 114.009 155.936 114.634C156.168 115.259 156.525 115.763 157.008 116.146C157.491 116.53 158.106 116.722 158.855 116.722ZM168.032 111.438V118H166.356V107.091H167.976V108.795H168.118C168.373 108.241 168.762 107.796 169.282 107.46C169.803 107.119 170.476 106.949 171.3 106.949C172.038 106.949 172.684 107.1 173.238 107.403C173.792 107.702 174.223 108.156 174.531 108.767C174.839 109.373 174.993 110.14 174.993 111.068V118H173.317V111.182C173.317 110.325 173.094 109.657 172.649 109.179C172.204 108.696 171.593 108.455 170.817 108.455C170.282 108.455 169.803 108.571 169.382 108.803C168.965 109.035 168.636 109.373 168.395 109.818C168.153 110.263 168.032 110.803 168.032 111.438ZM182.487 118.227C181.503 118.227 180.638 117.993 179.895 117.524C179.156 117.055 178.579 116.4 178.162 115.557C177.75 114.714 177.544 113.729 177.544 112.602C177.544 111.466 177.75 110.474 178.162 109.626C178.579 108.779 179.156 108.121 179.895 107.652C180.638 107.183 181.503 106.949 182.487 106.949C183.472 106.949 184.334 107.183 185.073 107.652C185.816 108.121 186.394 108.779 186.806 109.626C187.222 110.474 187.431 111.466 187.431 112.602C187.431 113.729 187.222 114.714 186.806 115.557C186.394 116.4 185.816 117.055 185.073 117.524C184.334 117.993 183.472 118.227 182.487 118.227ZM182.487 116.722C183.235 116.722 183.851 116.53 184.334 116.146C184.817 115.763 185.174 115.259 185.406 114.634C185.638 114.009 185.754 113.331 185.754 112.602C185.754 111.873 185.638 111.194 185.406 110.564C185.174 109.934 184.817 109.425 184.334 109.037C183.851 108.649 183.235 108.455 182.487 108.455C181.739 108.455 181.124 108.649 180.641 109.037C180.158 109.425 179.8 109.934 179.568 110.564C179.336 111.194 179.22 111.873 179.22 112.602C179.22 113.331 179.336 114.009 179.568 114.634C179.8 115.259 180.158 115.763 180.641 116.146C181.124 116.53 181.739 116.722 182.487 116.722ZM196.864 113.54V107.091H198.54V118H196.864V116.153H196.751C196.495 116.707 196.097 117.179 195.557 117.567C195.018 117.95 194.336 118.142 193.512 118.142C192.83 118.142 192.224 117.993 191.694 117.695C191.163 117.392 190.747 116.937 190.444 116.331C190.141 115.72 189.989 114.951 189.989 114.023V107.091H191.665V113.909C191.665 114.705 191.888 115.339 192.333 115.812C192.783 116.286 193.356 116.523 194.052 116.523C194.468 116.523 194.892 116.416 195.323 116.203C195.759 115.99 196.123 115.663 196.417 115.223C196.715 114.783 196.864 114.222 196.864 113.54ZM203.286 111.438V118H201.61V107.091H203.23V108.795H203.372C203.627 108.241 204.016 107.796 204.536 107.46C205.057 107.119 205.73 106.949 206.553 106.949C207.292 106.949 207.938 107.1 208.492 107.403C209.046 107.702 209.477 108.156 209.785 108.767C210.093 109.373 210.247 110.14 210.247 111.068V118H208.57V111.182C208.57 110.325 208.348 109.657 207.903 109.179C207.458 108.696 206.847 108.455 206.07 108.455C205.535 108.455 205.057 108.571 204.636 108.803C204.219 109.035 203.89 109.373 203.649 109.818C203.407 110.263 203.286 110.803 203.286 111.438ZM217.741 118.227C216.719 118.227 215.838 117.986 215.099 117.503C214.361 117.02 213.792 116.355 213.395 115.507C212.997 114.66 212.798 113.691 212.798 112.602C212.798 111.494 213.002 110.517 213.409 109.669C213.821 108.817 214.394 108.152 215.128 107.673C215.866 107.19 216.728 106.949 217.713 106.949C218.48 106.949 219.171 107.091 219.787 107.375C220.402 107.659 220.907 108.057 221.3 108.568C221.693 109.08 221.936 109.676 222.031 110.358H220.355C220.227 109.861 219.943 109.42 219.503 109.037C219.067 108.649 218.48 108.455 217.741 108.455C217.088 108.455 216.515 108.625 216.023 108.966C215.535 109.302 215.154 109.778 214.879 110.393C214.609 111.004 214.474 111.722 214.474 112.545C214.474 113.388 214.607 114.122 214.872 114.747C215.142 115.372 215.521 115.857 216.008 116.203C216.501 116.549 217.078 116.722 217.741 116.722C218.177 116.722 218.572 116.646 218.927 116.494C219.282 116.343 219.583 116.125 219.829 115.841C220.076 115.557 220.251 115.216 220.355 114.818H222.031C221.936 115.462 221.702 116.042 221.328 116.558C220.959 117.07 220.469 117.477 219.858 117.78C219.252 118.078 218.546 118.227 217.741 118.227ZM224.481 118V107.091H226.157V118H224.481ZM225.334 105.273C225.007 105.273 224.725 105.161 224.488 104.939C224.256 104.716 224.14 104.449 224.14 104.136C224.14 103.824 224.256 103.556 224.488 103.334C224.725 103.111 225.007 103 225.334 103C225.66 103 225.94 103.111 226.172 103.334C226.408 103.556 226.527 103.824 226.527 104.136C226.527 104.449 226.408 104.716 226.172 104.939C225.94 105.161 225.66 105.273 225.334 105.273ZM230.904 111.438V118H229.227V107.091H230.847V108.795H230.989C231.244 108.241 231.633 107.796 232.154 107.46C232.674 107.119 233.347 106.949 234.171 106.949C234.909 106.949 235.556 107.1 236.11 107.403C236.664 107.702 237.094 108.156 237.402 108.767C237.71 109.373 237.864 110.14 237.864 111.068V118H236.188V111.182C236.188 110.325 235.965 109.657 235.52 109.179C235.075 108.696 234.464 108.455 233.688 108.455C233.153 108.455 232.674 108.571 232.253 108.803C231.836 109.035 231.507 109.373 231.266 109.818C231.024 110.263 230.904 110.803 230.904 111.438ZM245.33 122.318C244.52 122.318 243.824 122.214 243.242 122.006C242.66 121.802 242.174 121.532 241.786 121.196C241.403 120.865 241.097 120.509 240.87 120.131L242.205 119.193C242.357 119.392 242.548 119.619 242.78 119.875C243.012 120.135 243.33 120.36 243.732 120.55C244.139 120.744 244.672 120.841 245.33 120.841C246.211 120.841 246.938 120.628 247.51 120.202C248.083 119.776 248.37 119.108 248.37 118.199V115.983H248.228C248.105 116.182 247.93 116.428 247.702 116.722C247.48 117.01 247.158 117.268 246.736 117.496C246.32 117.718 245.756 117.83 245.046 117.83C244.165 117.83 243.375 117.621 242.674 117.205C241.978 116.788 241.426 116.182 241.019 115.386C240.617 114.591 240.415 113.625 240.415 112.489C240.415 111.371 240.612 110.398 241.005 109.57C241.398 108.736 241.945 108.092 242.645 107.638C243.346 107.179 244.156 106.949 245.074 106.949C245.785 106.949 246.348 107.067 246.765 107.304C247.186 107.536 247.508 107.801 247.731 108.099C247.958 108.393 248.133 108.634 248.256 108.824H248.427V107.091H250.046V118.312C250.046 119.25 249.833 120.012 249.407 120.599C248.985 121.191 248.417 121.625 247.702 121.899C246.992 122.179 246.201 122.318 245.33 122.318ZM245.273 116.324C245.946 116.324 246.514 116.17 246.978 115.862C247.442 115.554 247.795 115.112 248.036 114.534C248.278 113.956 248.398 113.265 248.398 112.46C248.398 111.674 248.28 110.981 248.043 110.379C247.806 109.778 247.456 109.307 246.992 108.966C246.528 108.625 245.955 108.455 245.273 108.455C244.563 108.455 243.971 108.634 243.498 108.994C243.029 109.354 242.676 109.837 242.439 110.443C242.207 111.049 242.091 111.722 242.091 112.46C242.091 113.218 242.21 113.888 242.447 114.47C242.688 115.048 243.043 115.502 243.512 115.834C243.985 116.161 244.573 116.324 245.273 116.324ZM258.739 118V107.091H260.415V118H258.739ZM259.591 105.273C259.265 105.273 258.983 105.161 258.746 104.939C258.514 104.716 258.398 104.449 258.398 104.136C258.398 103.824 258.514 103.556 258.746 103.334C258.983 103.111 259.265 103 259.591 103C259.918 103 260.198 103.111 260.43 103.334C260.666 103.556 260.785 103.824 260.785 104.136C260.785 104.449 260.666 104.716 260.43 104.939C260.198 105.161 259.918 105.273 259.591 105.273ZM265.161 111.438V118H263.485V107.091H265.105V108.795H265.247C265.502 108.241 265.891 107.796 266.411 107.46C266.932 107.119 267.605 106.949 268.428 106.949C269.167 106.949 269.813 107.1 270.367 107.403C270.921 107.702 271.352 108.156 271.66 108.767C271.968 109.373 272.122 110.14 272.122 111.068V118H270.445V111.182C270.445 110.325 270.223 109.657 269.778 109.179C269.333 108.696 268.722 108.455 267.945 108.455C267.41 108.455 266.932 108.571 266.511 108.803C266.094 109.035 265.765 109.373 265.524 109.818C265.282 110.263 265.161 110.803 265.161 111.438ZM279.616 118.227C278.594 118.227 277.713 117.986 276.974 117.503C276.236 117.02 275.667 116.355 275.27 115.507C274.872 114.66 274.673 113.691 274.673 112.602C274.673 111.494 274.877 110.517 275.284 109.669C275.696 108.817 276.269 108.152 277.003 107.673C277.741 107.19 278.603 106.949 279.588 106.949C280.355 106.949 281.046 107.091 281.662 107.375C282.277 107.659 282.782 108.057 283.175 108.568C283.568 109.08 283.811 109.676 283.906 110.358H282.23C282.102 109.861 281.818 109.42 281.378 109.037C280.942 108.649 280.355 108.455 279.616 108.455C278.963 108.455 278.39 108.625 277.898 108.966C277.41 109.302 277.029 109.778 276.754 110.393C276.484 111.004 276.349 111.722 276.349 112.545C276.349 113.388 276.482 114.122 276.747 114.747C277.017 115.372 277.396 115.857 277.883 116.203C278.376 116.549 278.953 116.722 279.616 116.722C280.052 116.722 280.447 116.646 280.802 116.494C281.157 116.343 281.458 116.125 281.704 115.841C281.951 115.557 282.126 115.216 282.23 114.818H283.906C283.811 115.462 283.577 116.042 283.203 116.558C282.834 117.07 282.344 117.477 281.733 117.78C281.127 118.078 280.421 118.227 279.616 118.227ZM290.788 118.227C289.803 118.227 288.939 117.993 288.196 117.524C287.457 117.055 286.88 116.4 286.463 115.557C286.051 114.714 285.845 113.729 285.845 112.602C285.845 111.466 286.051 110.474 286.463 109.626C286.88 108.779 287.457 108.121 288.196 107.652C288.939 107.183 289.803 106.949 290.788 106.949C291.773 106.949 292.635 107.183 293.373 107.652C294.117 108.121 294.694 108.779 295.106 109.626C295.523 110.474 295.731 111.466 295.731 112.602C295.731 113.729 295.523 114.714 295.106 115.557C294.694 116.4 294.117 117.055 293.373 117.524C292.635 117.993 291.773 118.227 290.788 118.227ZM290.788 116.722C291.536 116.722 292.152 116.53 292.635 116.146C293.118 115.763 293.475 115.259 293.707 114.634C293.939 114.009 294.055 113.331 294.055 112.602C294.055 111.873 293.939 111.194 293.707 110.564C293.475 109.934 293.118 109.425 292.635 109.037C292.152 108.649 291.536 108.455 290.788 108.455C290.04 108.455 289.425 108.649 288.942 109.037C288.459 109.425 288.101 109.934 287.869 110.564C287.637 111.194 287.521 111.873 287.521 112.602C287.521 113.331 287.637 114.009 287.869 114.634C288.101 115.259 288.459 115.763 288.942 116.146C289.425 116.53 290.04 116.722 290.788 116.722ZM298.29 118V107.091H299.909V108.739H300.023C300.222 108.199 300.582 107.761 301.102 107.425C301.623 107.089 302.21 106.92 302.864 106.92C302.987 106.92 303.141 106.923 303.325 106.928C303.51 106.932 303.65 106.939 303.744 106.949V108.653C303.688 108.639 303.557 108.618 303.354 108.589C303.155 108.556 302.944 108.54 302.722 108.54C302.191 108.54 301.718 108.651 301.301 108.874C300.889 109.091 300.563 109.394 300.321 109.783C300.084 110.166 299.966 110.604 299.966 111.097V118H298.29ZM305.731 118V107.091H307.351V108.739H307.464C307.663 108.199 308.023 107.761 308.544 107.425C309.065 107.089 309.652 106.92 310.305 106.92C310.428 106.92 310.582 106.923 310.767 106.928C310.952 106.932 311.091 106.939 311.186 106.949V108.653C311.129 108.639 310.999 108.618 310.795 108.589C310.596 108.556 310.386 108.54 310.163 108.54C309.633 108.54 309.159 108.651 308.743 108.874C308.331 109.091 308.004 109.394 307.763 109.783C307.526 110.166 307.407 110.604 307.407 111.097V118H305.731ZM317.415 118.227C316.363 118.227 315.457 117.995 314.694 117.531C313.937 117.062 313.352 116.409 312.94 115.571C312.533 114.728 312.329 113.748 312.329 112.631C312.329 111.513 312.533 110.528 312.94 109.676C313.352 108.819 313.925 108.152 314.659 107.673C315.398 107.19 316.259 106.949 317.244 106.949C317.812 106.949 318.373 107.044 318.927 107.233C319.481 107.422 319.986 107.73 320.44 108.156C320.895 108.578 321.257 109.136 321.527 109.832C321.797 110.528 321.932 111.385 321.932 112.403V113.114H313.523V111.665H320.227C320.227 111.049 320.104 110.5 319.858 110.017C319.616 109.534 319.271 109.153 318.821 108.874C318.376 108.594 317.85 108.455 317.244 108.455C316.577 108.455 315.999 108.62 315.511 108.952C315.028 109.278 314.657 109.705 314.396 110.23C314.136 110.756 314.006 111.319 314.006 111.92V112.886C314.006 113.71 314.148 114.409 314.432 114.982C314.72 115.55 315.121 115.983 315.632 116.281C316.143 116.575 316.738 116.722 317.415 116.722C317.855 116.722 318.253 116.66 318.608 116.537C318.968 116.409 319.278 116.22 319.538 115.969C319.799 115.713 320 115.396 320.142 115.017L321.761 115.472C321.591 116.021 321.304 116.504 320.902 116.92C320.499 117.332 320.002 117.654 319.41 117.886C318.818 118.114 318.153 118.227 317.415 118.227ZM328.913 118.227C327.89 118.227 327.01 117.986 326.271 117.503C325.532 117.02 324.964 116.355 324.567 115.507C324.169 114.66 323.97 113.691 323.97 112.602C323.97 111.494 324.174 110.517 324.581 109.669C324.993 108.817 325.566 108.152 326.3 107.673C327.038 107.19 327.9 106.949 328.885 106.949C329.652 106.949 330.343 107.091 330.959 107.375C331.574 107.659 332.078 108.057 332.471 108.568C332.864 109.08 333.108 109.676 333.203 110.358H331.527C331.399 109.861 331.115 109.42 330.675 109.037C330.239 108.649 329.652 108.455 328.913 108.455C328.26 108.455 327.687 108.625 327.194 108.966C326.707 109.302 326.326 109.778 326.051 110.393C325.781 111.004 325.646 111.722 325.646 112.545C325.646 113.388 325.779 114.122 326.044 114.747C326.314 115.372 326.693 115.857 327.18 116.203C327.673 116.549 328.25 116.722 328.913 116.722C329.349 116.722 329.744 116.646 330.099 116.494C330.454 116.343 330.755 116.125 331.001 115.841C331.247 115.557 331.423 115.216 331.527 114.818H333.203C333.108 115.462 332.874 116.042 332.5 116.558C332.131 117.07 331.64 117.477 331.03 117.78C330.424 118.078 329.718 118.227 328.913 118.227ZM340.398 107.091V108.511H334.744V107.091H340.398ZM336.392 104.477H338.068V114.875C338.068 115.348 338.137 115.704 338.274 115.94C338.416 116.172 338.596 116.329 338.814 116.409C339.036 116.485 339.271 116.523 339.517 116.523C339.702 116.523 339.853 116.513 339.971 116.494C340.09 116.471 340.184 116.452 340.256 116.438L340.596 117.943C340.483 117.986 340.324 118.028 340.121 118.071C339.917 118.118 339.659 118.142 339.346 118.142C338.873 118.142 338.409 118.04 337.954 117.837C337.505 117.633 337.131 117.323 336.832 116.906C336.539 116.49 336.392 115.964 336.392 115.33V104.477ZM344.829 103.455V118H343.153V103.455H344.829ZM348.979 122.091C348.695 122.091 348.441 122.067 348.219 122.02C347.996 121.977 347.843 121.935 347.757 121.892L348.183 120.415C348.591 120.519 348.95 120.557 349.263 120.528C349.575 120.5 349.852 120.36 350.094 120.109C350.34 119.863 350.565 119.463 350.769 118.909L351.081 118.057L347.047 107.091H348.865L351.877 115.784H351.99L355.002 107.091H356.82L352.189 119.591C351.981 120.154 351.723 120.621 351.415 120.99C351.107 121.364 350.75 121.641 350.343 121.821C349.94 122.001 349.485 122.091 348.979 122.091Z" fill="white"/>
        </g>
        <path d="M248 130L136 130" stroke="#6B85FF" stroke-width="4" stroke-linecap="round"/>
        <g filter="url(#filter0_d_1116_34877)">
            <rect x="92" y="13" width="214.449" height="71.5608" rx="7.01351" fill="#F3F5FF"/>
            <path d="M106.969 42.5379V33.3326H107.963V34.3961H108.085C108.16 34.2799 108.265 34.1317 108.398 33.9515C108.535 33.7685 108.73 33.6058 108.982 33.4634C109.238 33.3181 109.584 33.2455 110.02 33.2455C110.583 33.2455 111.08 33.3864 111.51 33.6682C111.94 33.9501 112.276 34.3496 112.517 34.8668C112.758 35.3841 112.879 35.9942 112.879 36.6974C112.879 37.4064 112.758 38.021 112.517 38.5411C112.276 39.0583 111.942 39.4593 111.515 39.744C111.088 40.0259 110.595 40.1668 110.037 40.1668C109.607 40.1668 109.263 40.0956 109.004 39.9532C108.746 39.808 108.547 39.6438 108.407 39.4607C108.268 39.2748 108.16 39.1208 108.085 38.9987H107.997V42.5379H106.969ZM107.98 36.68C107.98 37.1856 108.054 37.6316 108.202 38.0181C108.35 38.4016 108.567 38.7023 108.852 38.9203C109.136 39.1353 109.485 39.2428 109.898 39.2428C110.328 39.2428 110.687 39.1295 110.974 38.9028C111.265 38.6733 111.483 38.3653 111.628 37.9788C111.776 37.5895 111.85 37.1565 111.85 36.68C111.85 36.2093 111.778 35.785 111.632 35.4073C111.49 35.0267 111.274 34.7259 110.983 34.5051C110.695 34.2813 110.334 34.1695 109.898 34.1695C109.479 34.1695 109.128 34.2755 108.843 34.4876C108.558 34.6969 108.343 34.9903 108.198 35.3681C108.053 35.7429 107.98 36.1802 107.98 36.68ZM114.448 40.0273V33.3326H115.442V34.3438H115.512C115.634 34.0126 115.854 33.7438 116.174 33.5375C116.494 33.3312 116.854 33.228 117.255 33.228C117.33 33.228 117.425 33.2295 117.538 33.2324C117.652 33.2353 117.737 33.2397 117.795 33.2455V34.2915C117.761 34.2828 117.681 34.2697 117.556 34.2523C117.434 34.2319 117.304 34.2218 117.168 34.2218C116.842 34.2218 116.552 34.2901 116.296 34.4266C116.043 34.5603 115.843 34.7463 115.695 34.9845C115.549 35.2199 115.477 35.4887 115.477 35.7908V40.0273H114.448ZM121.531 40.1668C120.926 40.1668 120.396 40.023 119.94 39.7353C119.487 39.4477 119.132 39.0452 118.876 38.528C118.624 38.0108 118.497 37.4064 118.497 36.7149C118.497 36.0175 118.624 35.4087 118.876 34.8886C119.132 34.3685 119.487 33.9646 119.94 33.677C120.396 33.3893 120.926 33.2455 121.531 33.2455C122.135 33.2455 122.664 33.3893 123.117 33.677C123.573 33.9646 123.928 34.3685 124.181 34.8886C124.436 35.4087 124.564 36.0175 124.564 36.7149C124.564 37.4064 124.436 38.0108 124.181 38.528C123.928 39.0452 123.573 39.4477 123.117 39.7353C122.664 40.023 122.135 40.1668 121.531 40.1668ZM121.531 39.2428C121.99 39.2428 122.367 39.1251 122.664 38.8898C122.96 38.6544 123.18 38.3449 123.322 37.9614C123.464 37.5778 123.536 37.1623 123.536 36.7149C123.536 36.2674 123.464 35.8504 123.322 35.464C123.18 35.0775 122.96 34.7651 122.664 34.5269C122.367 34.2886 121.99 34.1695 121.531 34.1695C121.072 34.1695 120.694 34.2886 120.397 34.5269C120.101 34.7651 119.882 35.0775 119.739 35.464C119.597 35.8504 119.526 36.2674 119.526 36.7149C119.526 37.1623 119.597 37.5778 119.739 37.9614C119.882 38.3449 120.101 38.6544 120.397 38.8898C120.694 39.1251 121.072 39.2428 121.531 39.2428ZM127.163 36.0001V40.0273H126.134V33.3326H127.128V34.3787H127.215C127.372 34.0387 127.61 33.7656 127.93 33.5593C128.25 33.3501 128.662 33.2455 129.168 33.2455C129.621 33.2455 130.018 33.3384 130.358 33.5244C130.698 33.7075 130.962 33.9864 131.151 34.3612C131.34 34.7332 131.434 35.2039 131.434 35.7734V40.0273H130.406V35.8431C130.406 35.3172 130.269 34.9075 129.996 34.614C129.723 34.3177 129.348 34.1695 128.872 34.1695C128.543 34.1695 128.25 34.2407 127.991 34.383C127.735 34.5254 127.533 34.7332 127.385 35.0063C127.237 35.2794 127.163 35.6107 127.163 36.0001ZM136.034 40.1668C135.429 40.1668 134.899 40.023 134.443 39.7353C133.99 39.4477 133.635 39.0452 133.379 38.528C133.127 38.0108 133 37.4064 133 36.7149C133 36.0175 133.127 35.4087 133.379 34.8886C133.635 34.3685 133.99 33.9646 134.443 33.677C134.899 33.3893 135.429 33.2455 136.034 33.2455C136.638 33.2455 137.167 33.3893 137.62 33.677C138.076 33.9646 138.431 34.3685 138.684 34.8886C138.939 35.4087 139.067 36.0175 139.067 36.7149C139.067 37.4064 138.939 38.0108 138.684 38.528C138.431 39.0452 138.076 39.4477 137.62 39.7353C137.167 40.023 136.638 40.1668 136.034 40.1668ZM136.034 39.2428C136.493 39.2428 136.871 39.1251 137.167 38.8898C137.463 38.6544 137.683 38.3449 137.825 37.9614C137.967 37.5778 138.039 37.1623 138.039 36.7149C138.039 36.2674 137.967 35.8504 137.825 35.464C137.683 35.0775 137.463 34.7651 137.167 34.5269C136.871 34.2886 136.493 34.1695 136.034 34.1695C135.575 34.1695 135.197 34.2886 134.9 34.5269C134.604 34.7651 134.385 35.0775 134.242 35.464C134.1 35.8504 134.029 36.2674 134.029 36.7149C134.029 37.1623 134.1 37.5778 134.242 37.9614C134.385 38.3449 134.604 38.6544 134.9 38.8898C135.197 39.1251 135.575 39.2428 136.034 39.2428ZM144.856 37.2902V33.3326H145.885V40.0273H144.856V38.8941H144.787C144.63 39.2341 144.386 39.5232 144.054 39.7615C143.723 39.9968 143.305 40.1145 142.799 40.1145C142.381 40.1145 142.009 40.023 141.683 39.8399C141.358 39.654 141.102 39.375 140.916 39.0031C140.73 38.6283 140.637 38.1561 140.637 37.5866V33.3326H141.666V37.5168C141.666 38.005 141.803 38.3943 142.076 38.6849C142.352 38.9755 142.703 39.1208 143.13 39.1208C143.386 39.1208 143.646 39.0554 143.911 38.9246C144.178 38.7939 144.402 38.5934 144.582 38.3232C144.765 38.0529 144.856 37.7086 144.856 37.2902ZM148.798 36.0001V40.0273H147.769V33.3326H148.763V34.3787H148.85C149.007 34.0387 149.245 33.7656 149.565 33.5593C149.884 33.3501 150.297 33.2455 150.803 33.2455C151.256 33.2455 151.652 33.3384 151.992 33.5244C152.332 33.7075 152.597 33.9864 152.786 34.3612C152.975 34.7332 153.069 35.2039 153.069 35.7734V40.0273H152.04V35.8431C152.04 35.3172 151.904 34.9075 151.631 34.614C151.358 34.3177 150.983 34.1695 150.506 34.1695C150.178 34.1695 149.884 34.2407 149.626 34.383C149.37 34.5254 149.168 34.7332 149.02 35.0063C148.872 35.2794 148.798 35.6107 148.798 36.0001ZM157.668 40.1668C157.041 40.1668 156.5 40.0186 156.047 39.7222C155.594 39.4259 155.245 39.0176 155.001 38.4975C154.757 37.9774 154.635 37.3832 154.635 36.7149C154.635 36.0349 154.76 35.4349 155.01 34.9148C155.262 34.3918 155.614 33.9835 156.064 33.69C156.518 33.3937 157.047 33.2455 157.651 33.2455C158.122 33.2455 158.546 33.3326 158.924 33.507C159.301 33.6813 159.611 33.9254 159.852 34.2392C160.093 34.553 160.243 34.9191 160.301 35.3376H159.272C159.194 35.0325 159.02 34.7622 158.749 34.5269C158.482 34.2886 158.122 34.1695 157.668 34.1695C157.267 34.1695 156.916 34.2741 156.614 34.4833C156.314 34.6896 156.08 34.9816 155.912 35.3594C155.746 35.7342 155.663 36.1744 155.663 36.68C155.663 37.1972 155.745 37.6476 155.908 38.0311C156.073 38.4147 156.306 38.7125 156.605 38.9246C156.907 39.1367 157.262 39.2428 157.668 39.2428C157.936 39.2428 158.178 39.1963 158.396 39.1033C158.614 39.0104 158.799 38.8767 158.95 38.7023C159.101 38.528 159.208 38.3188 159.272 38.0747H160.301C160.243 38.4699 160.099 38.8258 159.869 39.1426C159.643 39.4564 159.342 39.7063 158.967 39.8922C158.595 40.0753 158.162 40.1668 157.668 40.1668ZM161.805 40.0273V33.3326H162.833V40.0273H161.805ZM162.328 32.2168C162.127 32.2168 161.954 32.1486 161.809 32.012C161.667 31.8754 161.595 31.7113 161.595 31.5195C161.595 31.3277 161.667 31.1635 161.809 31.027C161.954 30.8904 162.127 30.8221 162.328 30.8221C162.528 30.8221 162.7 30.8904 162.842 31.027C162.987 31.1635 163.06 31.3277 163.06 31.5195C163.06 31.7113 162.987 31.8754 162.842 32.012C162.7 32.1486 162.528 32.2168 162.328 32.2168ZM165.746 36.0001V40.0273H164.717V33.3326H165.711V34.3787H165.798C165.955 34.0387 166.193 33.7656 166.513 33.5593C166.833 33.3501 167.245 33.2455 167.751 33.2455C168.204 33.2455 168.601 33.3384 168.941 33.5244C169.281 33.7075 169.545 33.9864 169.734 34.3612C169.923 34.7332 170.017 35.2039 170.017 35.7734V40.0273H168.989V35.8431C168.989 35.3172 168.852 34.9075 168.579 34.614C168.306 34.3177 167.931 34.1695 167.454 34.1695C167.126 34.1695 166.833 34.2407 166.574 34.383C166.318 34.5254 166.116 34.7332 165.968 35.0063C165.82 35.2794 165.746 35.6107 165.746 36.0001ZM174.599 42.6773C174.102 42.6773 173.675 42.6134 173.318 42.4856C172.96 42.3606 172.662 42.195 172.424 41.9887C172.189 41.7853 172.001 41.5674 171.862 41.3349L172.681 40.7596C172.774 40.8816 172.892 41.0211 173.034 41.178C173.177 41.3378 173.371 41.4758 173.618 41.5921C173.868 41.7112 174.195 41.7708 174.599 41.7708C175.14 41.7708 175.586 41.64 175.937 41.3785C176.289 41.117 176.465 40.7073 176.465 40.1494V38.7895H176.377C176.302 38.9116 176.194 39.0627 176.055 39.2428C175.918 39.4201 175.721 39.5784 175.462 39.7179C175.206 39.8545 174.861 39.9227 174.425 39.9227C173.884 39.9227 173.399 39.7949 172.969 39.5392C172.542 39.2835 172.203 38.9116 171.953 38.4234C171.706 37.9352 171.583 37.3425 171.583 36.6451C171.583 35.9594 171.704 35.3623 171.945 34.8538C172.186 34.3424 172.522 33.9472 172.952 33.6682C173.382 33.3864 173.878 33.2455 174.442 33.2455C174.878 33.2455 175.224 33.3181 175.48 33.4634C175.738 33.6058 175.936 33.7685 176.072 33.9515C176.212 34.1317 176.319 34.2799 176.395 34.3961H176.499V33.3326H177.493V40.2191C177.493 40.7944 177.362 41.2623 177.101 41.6226C176.842 41.9858 176.494 42.2516 176.055 42.4202C175.619 42.5916 175.134 42.6773 174.599 42.6773ZM174.564 38.9987C174.977 38.9987 175.326 38.9043 175.61 38.7154C175.895 38.5266 176.112 38.2549 176.26 37.9004C176.408 37.5459 176.482 37.1217 176.482 36.6277C176.482 36.1453 176.409 35.7197 176.264 35.3506C176.119 34.9816 175.904 34.6925 175.619 34.4833C175.334 34.2741 174.983 34.1695 174.564 34.1695C174.128 34.1695 173.765 34.2799 173.475 34.5007C173.187 34.7216 172.97 35.0179 172.825 35.3899C172.683 35.7618 172.612 36.1744 172.612 36.6277C172.612 37.0926 172.684 37.5038 172.83 37.8612C172.978 38.2156 173.196 38.4946 173.483 38.698C173.774 38.8985 174.134 38.9987 174.564 38.9987Z" fill="#7B839D"/>
            <path d="M107.103 67.4024V56.8821H108.239V58.0975H108.378C108.465 57.9647 108.584 57.7953 108.737 57.5894C108.893 57.3802 109.116 57.1943 109.405 57.0315C109.697 56.8655 110.092 56.7825 110.59 56.7825C111.234 56.7825 111.802 56.9435 112.294 57.2657C112.785 57.5878 113.169 58.0444 113.444 58.6355C113.72 59.2266 113.858 59.9239 113.858 60.7276C113.858 61.5379 113.72 62.2402 113.444 62.8346C113.169 63.4257 112.787 63.884 112.299 64.2094C111.81 64.5315 111.248 64.6926 110.61 64.6926C110.119 64.6926 109.725 64.6112 109.429 64.4485C109.134 64.2825 108.906 64.0949 108.747 63.8856C108.588 63.6731 108.465 63.4971 108.378 63.3576H108.279V67.4024H107.103ZM108.259 60.7077C108.259 61.2855 108.344 61.7952 108.513 62.2369C108.682 62.6752 108.93 63.0189 109.255 63.268C109.581 63.5137 109.979 63.6366 110.451 63.6366C110.942 63.6366 111.352 63.5071 111.681 63.2481C112.013 62.9857 112.262 62.6337 112.428 62.192C112.598 61.7471 112.682 61.2523 112.682 60.7077C112.682 60.1697 112.599 59.6849 112.433 59.2531C112.27 58.8181 112.023 58.4744 111.691 58.222C111.362 57.9663 110.949 57.8385 110.451 57.8385C109.972 57.8385 109.571 57.9597 109.245 58.2021C108.92 58.4412 108.674 58.7766 108.508 59.2083C108.342 59.6367 108.259 60.1365 108.259 60.7077ZM115.651 64.5332V56.8821H116.787V58.0377H116.866C117.006 57.6592 117.258 57.352 117.624 57.1162C117.989 56.8804 118.401 56.7626 118.859 56.7626C118.945 56.7626 119.053 56.7642 119.183 56.7675C119.312 56.7709 119.41 56.7758 119.477 56.7825V57.978C119.437 57.968 119.345 57.9531 119.203 57.9331C119.063 57.9099 118.915 57.8983 118.759 57.8983C118.387 57.8983 118.055 57.9763 117.763 58.1324C117.474 58.2851 117.245 58.4977 117.076 58.77C116.91 59.039 116.827 59.3461 116.827 59.6915V64.5332H115.651ZM123.745 64.6926C123.055 64.6926 122.449 64.5282 121.927 64.1995C121.409 63.8707 121.004 63.4108 120.712 62.8197C120.423 62.2286 120.279 61.5379 120.279 60.7475C120.279 59.9505 120.423 59.2548 120.712 58.6604C121.004 58.066 121.409 57.6044 121.927 57.2756C122.449 56.9469 123.055 56.7825 123.745 56.7825C124.436 56.7825 125.041 56.9469 125.559 57.2756C126.08 57.6044 126.485 58.066 126.774 58.6604C127.066 59.2548 127.212 59.9505 127.212 60.7475C127.212 61.5379 127.066 62.2286 126.774 62.8197C126.485 63.4108 126.08 63.8707 125.559 64.1995C125.041 64.5282 124.436 64.6926 123.745 64.6926ZM123.745 63.6366C124.27 63.6366 124.702 63.5021 125.041 63.2331C125.379 62.9641 125.63 62.6105 125.793 62.1721C125.955 61.7338 126.037 61.2589 126.037 60.7475C126.037 60.2361 125.955 59.7596 125.793 59.3179C125.63 58.8762 125.379 58.5193 125.041 58.2469C124.702 57.9746 124.27 57.8385 123.745 57.8385C123.221 57.8385 122.789 57.9746 122.45 58.2469C122.112 58.5193 121.861 58.8762 121.698 59.3179C121.535 59.7596 121.454 60.2361 121.454 60.7475C121.454 61.2589 121.535 61.7338 121.698 62.1721C121.861 62.6105 122.112 62.9641 122.45 63.2331C122.789 63.5021 123.221 63.6366 123.745 63.6366ZM130.182 59.9306V64.5332H129.007V56.8821H130.142V58.0776H130.242C130.421 57.6891 130.694 57.3769 131.059 57.1411C131.424 56.902 131.896 56.7825 132.474 56.7825C132.992 56.7825 133.445 56.8887 133.834 57.1013C134.222 57.3105 134.524 57.6293 134.74 58.0577C134.956 58.4827 135.064 59.0207 135.064 59.6716V64.5332H133.888V59.7513C133.888 59.1502 133.732 58.682 133.42 58.3466C133.108 58.0079 132.68 57.8385 132.135 57.8385C131.76 57.8385 131.424 57.9199 131.129 58.0826C130.837 58.2453 130.606 58.4827 130.436 58.7949C130.267 59.107 130.182 59.4856 130.182 59.9306ZM142.034 61.405V56.8821H143.209V64.5332H142.034V63.2381H141.954C141.775 63.6266 141.496 63.957 141.117 64.2294C140.739 64.4983 140.261 64.6328 139.683 64.6328C139.205 64.6328 138.779 64.5282 138.408 64.319C138.036 64.1065 137.743 63.7877 137.531 63.3626C137.318 62.9342 137.212 62.3946 137.212 61.7437V56.8821H138.388V61.664C138.388 62.2219 138.544 62.6669 138.856 62.999C139.171 63.3311 139.573 63.4971 140.061 63.4971C140.354 63.4971 140.651 63.4224 140.953 63.273C141.258 63.1235 141.514 62.8944 141.72 62.5856C141.929 62.2767 142.034 61.8832 142.034 61.405ZM146.538 59.9306V64.5332H145.363V56.8821H146.498V58.0776H146.598C146.777 57.6891 147.049 57.3769 147.415 57.1411C147.78 56.902 148.252 56.7825 148.829 56.7825C149.347 56.7825 149.801 56.8887 150.189 57.1013C150.578 57.3105 150.88 57.6293 151.096 58.0577C151.312 58.4827 151.42 59.0207 151.42 59.6716V64.5332H150.244V59.7513C150.244 59.1502 150.088 58.682 149.776 58.3466C149.464 58.0079 149.035 57.8385 148.491 57.8385C148.115 57.8385 147.78 57.9199 147.484 58.0826C147.192 58.2453 146.961 58.4827 146.792 58.7949C146.623 59.107 146.538 59.4856 146.538 59.9306ZM156.676 64.6926C155.959 64.6926 155.341 64.5232 154.823 64.1845C154.305 63.8458 153.906 63.3792 153.628 62.7848C153.349 62.1904 153.209 61.5113 153.209 60.7475C153.209 59.9704 153.352 59.2847 153.637 58.6903C153.926 58.0925 154.328 57.626 154.843 57.2906C155.361 56.9518 155.965 56.7825 156.656 56.7825C157.194 56.7825 157.679 56.8821 158.111 57.0814C158.542 57.2806 158.896 57.5595 159.172 57.9182C159.447 58.2768 159.618 58.6953 159.685 59.1734H158.509C158.419 58.8248 158.22 58.5159 157.911 58.2469C157.606 57.9746 157.194 57.8385 156.676 57.8385C156.218 57.8385 155.816 57.958 155.471 58.1971C155.129 58.4329 154.861 58.7667 154.669 59.1984C154.479 59.6267 154.385 60.1298 154.385 60.7077C154.385 61.2988 154.478 61.8135 154.664 62.2518C154.853 62.6902 155.119 63.0305 155.461 63.273C155.806 63.5154 156.211 63.6366 156.676 63.6366C156.982 63.6366 157.259 63.5835 157.508 63.4772C157.757 63.3709 157.968 63.2182 158.14 63.0189C158.313 62.8197 158.436 62.5806 158.509 62.3016H159.685C159.618 62.7533 159.454 63.1601 159.192 63.522C158.932 63.8807 158.589 64.1663 158.16 64.3788C157.735 64.588 157.241 64.6926 156.676 64.6926ZM161.403 64.5332V56.8821H162.579V64.5332H161.403ZM162.001 55.6069C161.772 55.6069 161.574 55.5289 161.408 55.3728C161.245 55.2167 161.164 55.0291 161.164 54.8099C161.164 54.5908 161.245 54.4031 161.408 54.2471C161.574 54.091 161.772 54.0129 162.001 54.0129C162.23 54.0129 162.426 54.091 162.589 54.2471C162.755 54.4031 162.838 54.5908 162.838 54.8099C162.838 55.0291 162.755 55.2167 162.589 55.3728C162.426 55.5289 162.23 55.6069 162.001 55.6069ZM166.983 64.7125C166.498 64.7125 166.058 64.6212 165.663 64.4386C165.268 64.2526 164.954 63.9853 164.722 63.6366C164.489 63.2846 164.373 62.8595 164.373 62.3614C164.373 61.9231 164.46 61.5677 164.632 61.2954C164.805 61.0198 165.036 60.804 165.325 60.6479C165.614 60.4918 165.932 60.3756 166.281 60.2992C166.633 60.2195 166.987 60.1564 167.342 60.1099C167.807 60.0501 168.184 60.0053 168.473 59.9754C168.765 59.9422 168.977 59.8874 169.11 59.811C169.246 59.7347 169.315 59.6018 169.315 59.4125V59.3727C169.315 58.8812 169.18 58.4993 168.911 58.227C168.645 57.9547 168.242 57.8186 167.701 57.8186C167.139 57.8186 166.699 57.9414 166.381 58.1872C166.062 58.4329 165.838 58.6953 165.708 58.9742L164.592 58.5757C164.792 58.1108 165.057 57.7488 165.389 57.4898C165.725 57.2275 166.09 57.0448 166.485 56.9419C166.884 56.8356 167.276 56.7825 167.661 56.7825C167.907 56.7825 168.189 56.8124 168.508 56.8721C168.83 56.9286 169.14 57.0465 169.439 57.2258C169.741 57.4051 169.992 57.6758 170.191 58.0377C170.39 58.3997 170.49 58.8845 170.49 59.4922V64.5332H169.315V63.4971H169.255C169.175 63.6632 169.042 63.8408 168.856 64.0301C168.67 64.2194 168.423 64.3804 168.114 64.5133C167.805 64.6461 167.428 64.7125 166.983 64.7125ZM167.163 63.6565C167.628 63.6565 168.019 63.5652 168.338 63.3825C168.66 63.1999 168.903 62.9641 169.065 62.6752C169.231 62.3863 169.315 62.0825 169.315 61.7637V60.6877C169.265 60.7475 169.155 60.8023 168.986 60.8521C168.82 60.8986 168.627 60.9401 168.408 60.9766C168.192 61.0098 167.981 61.0397 167.775 61.0663C167.573 61.0895 167.408 61.1095 167.282 61.1261C166.977 61.1659 166.691 61.2307 166.425 61.3203C166.163 61.4067 165.951 61.5379 165.788 61.7139C165.628 61.8865 165.549 62.1223 165.549 62.4212C165.549 62.8296 165.7 63.1385 166.002 63.3477C166.308 63.5536 166.694 63.6565 167.163 63.6565ZM172.636 64.5332V56.8821H173.771V58.0776H173.871C174.03 57.6691 174.288 57.352 174.643 57.1262C174.998 56.897 175.425 56.7825 175.923 56.7825C176.428 56.7825 176.848 56.897 177.184 57.1262C177.522 57.352 177.786 57.6691 177.976 58.0776H178.055C178.251 57.6824 178.545 57.3686 178.937 57.1361C179.329 56.9004 179.799 56.7825 180.347 56.7825C181.031 56.7825 181.59 56.9967 182.025 57.4251C182.46 57.8501 182.678 58.5126 182.678 59.4125V64.5332H181.502V59.4125C181.502 58.848 181.348 58.4445 181.039 58.2021C180.73 57.9597 180.367 57.8385 179.948 57.8385C179.41 57.8385 178.993 58.0012 178.698 58.3266C178.402 58.6488 178.255 59.0572 178.255 59.552V64.5332H177.059V59.293C177.059 58.858 176.918 58.5076 176.636 58.242C176.353 57.973 175.99 57.8385 175.545 57.8385C175.239 57.8385 174.954 57.9199 174.688 58.0826C174.426 58.2453 174.213 58.4711 174.05 58.76C173.891 59.0456 173.811 59.376 173.811 59.7513V64.5332H172.636ZM184.827 64.5332V56.8821H186.003V64.5332H184.827ZM185.425 55.6069C185.196 55.6069 184.998 55.5289 184.832 55.3728C184.669 55.2167 184.588 55.0291 184.588 54.8099C184.588 54.5908 184.669 54.4031 184.832 54.2471C184.998 54.091 185.196 54.0129 185.425 54.0129C185.654 54.0129 185.85 54.091 186.013 54.2471C186.179 54.4031 186.262 54.5908 186.262 54.8099C186.262 55.0291 186.179 55.2167 186.013 55.3728C185.85 55.5289 185.654 55.6069 185.425 55.6069ZM191.364 64.6926C190.627 64.6926 189.991 64.5299 189.456 64.2044C188.925 63.8757 188.514 63.4174 188.226 62.8296C187.94 62.2385 187.797 61.5511 187.797 60.7674C187.797 59.9837 187.94 59.293 188.226 58.6953C188.514 58.0942 188.916 57.626 189.431 57.2906C189.949 56.9518 190.553 56.7825 191.244 56.7825C191.643 56.7825 192.036 56.8489 192.425 56.9817C192.813 57.1146 193.167 57.3304 193.486 57.6293C193.805 57.9248 194.059 58.3167 194.248 58.8048C194.437 59.293 194.532 59.8941 194.532 60.608V61.1061H188.634V60.09H193.336C193.336 59.6583 193.25 59.2731 193.077 58.9344C192.908 58.5956 192.665 58.3283 192.35 58.1324C192.038 57.9365 191.669 57.8385 191.244 57.8385C190.776 57.8385 190.371 57.9547 190.029 58.1872C189.69 58.4163 189.429 58.7152 189.247 59.0838C189.064 59.4524 188.973 59.8476 188.973 60.2693V60.9468C188.973 61.5246 189.072 62.0144 189.272 62.4162C189.474 62.8147 189.755 63.1185 190.113 63.3278C190.472 63.5336 190.889 63.6366 191.364 63.6366C191.673 63.6366 191.952 63.5934 192.201 63.5071C192.453 63.4174 192.67 63.2846 192.853 63.1086C193.036 62.9293 193.177 62.7068 193.277 62.4411L194.412 62.7599C194.293 63.1451 194.092 63.4838 193.809 63.7761C193.527 64.065 193.179 64.2908 192.763 64.4535C192.348 64.6129 191.882 64.6926 191.364 64.6926ZM197.496 59.9306V64.5332H196.32V56.8821H197.456V58.0776H197.555C197.735 57.6891 198.007 57.3769 198.372 57.1411C198.738 56.902 199.209 56.7825 199.787 56.7825C200.305 56.7825 200.758 56.8887 201.147 57.1013C201.535 57.3105 201.837 57.6293 202.053 58.0577C202.269 58.4827 202.377 59.0207 202.377 59.6716V64.5332H201.202V59.7513C201.202 59.1502 201.045 58.682 200.733 58.3466C200.421 58.0079 199.993 57.8385 199.448 57.8385C199.073 57.8385 198.738 57.9199 198.442 58.0826C198.15 58.2453 197.919 58.4827 197.75 58.7949C197.58 59.107 197.496 59.4856 197.496 59.9306ZM207.853 56.8821V57.8783H203.888V56.8821H207.853ZM205.043 55.049H206.219V62.3415C206.219 62.6736 206.267 62.9226 206.363 63.0887C206.463 63.2514 206.589 63.361 206.742 63.4174C206.898 63.4706 207.062 63.4971 207.235 63.4971C207.365 63.4971 207.471 63.4905 207.554 63.4772C207.637 63.4606 207.703 63.4473 207.753 63.4373L207.992 64.4934C207.912 64.5232 207.801 64.5531 207.658 64.583C207.516 64.6162 207.335 64.6328 207.115 64.6328C206.783 64.6328 206.458 64.5614 206.139 64.4186C205.824 64.2758 205.561 64.0583 205.352 63.7661C205.146 63.4739 205.043 63.1053 205.043 62.6603V55.049ZM212.647 64.6926C211.956 64.6926 211.35 64.5282 210.829 64.1995C210.311 63.8707 209.906 63.4108 209.614 62.8197C209.325 62.2286 209.18 61.5379 209.18 60.7475C209.18 59.9505 209.325 59.2548 209.614 58.6604C209.906 58.066 210.311 57.6044 210.829 57.2756C211.35 56.9469 211.956 56.7825 212.647 56.7825C213.338 56.7825 213.942 56.9469 214.46 57.2756C214.982 57.6044 215.387 58.066 215.676 58.6604C215.968 59.2548 216.114 59.9505 216.114 60.7475C216.114 61.5379 215.968 62.2286 215.676 62.8197C215.387 63.4108 214.982 63.8707 214.46 64.1995C213.942 64.5282 213.338 64.6926 212.647 64.6926ZM212.647 63.6366C213.172 63.6366 213.603 63.5021 213.942 63.2331C214.281 62.9641 214.532 62.6105 214.694 62.1721C214.857 61.7338 214.938 61.2589 214.938 60.7475C214.938 60.2361 214.857 59.7596 214.694 59.3179C214.532 58.8762 214.281 58.5193 213.942 58.2469C213.603 57.9746 213.172 57.8385 212.647 57.8385C212.122 57.8385 211.691 57.9746 211.352 58.2469C211.013 58.5193 210.763 58.8762 210.6 59.3179C210.437 59.7596 210.356 60.2361 210.356 60.7475C210.356 61.2589 210.437 61.7338 210.6 62.1721C210.763 62.6105 211.013 62.9641 211.352 63.2331C211.691 63.5021 212.122 63.6366 212.647 63.6366Z" fill="#131C32"/>
            <circle cx="279.271" cy="48.7812" r="12.2736" stroke="#6B85FF" stroke-width="1.75338"/>
            <path d="M279.271 42.6445V54.9182" stroke="#6B85FF" stroke-width="1.75338" stroke-linecap="round" stroke-linejoin="round"/>
            <path d="M273.135 48.7812H285.408" stroke="#6B85FF" stroke-width="1.75338" stroke-linecap="round" stroke-linejoin="round"/>
            <path d="M200.757 95.8362C200.089 97.0368 198.362 97.0368 197.693 95.8362L190.427 82.7837C189.776 81.615 190.621 80.1774 191.959 80.1774L206.492 80.1774C207.83 80.1774 208.675 81.615 208.024 82.7837L200.757 95.8362Z" fill="#F3F5FF"/>
        </g>
        <rect x="-6" y="95" width="45" height="30" fill="url(#paint0_linear_1116_34877)"/>
        <rect width="50" height="30" transform="matrix(-1 0 0 1 373 95)" fill="url(#paint1_linear_1116_34877)"/>
    </g>
    <defs>
        <filter id="filter0_d_1116_34877" x="84.9865" y="9.49325" width="228.476" height="99.6149" filterUnits="userSpaceOnUse" color-interpolation-filters="sRGB">
            <feFlood flood-opacity="0" result="BackgroundImageFix"/>
            <feColorMatrix in="SourceAlpha" type="matrix" values="0 0 0 0 0 0 0 0 0 0 0 0 0 0 0 0 0 0 127 0" result="hardAlpha"/>
            <feOffset dy="3.50675"/>
            <feGaussianBlur stdDeviation="3.50675"/>
            <feComposite in2="hardAlpha" operator="out"/>
            <feColorMatrix type="matrix" values="0 0 0 0 0.360784 0 0 0 0 0.466667 0 0 0 0 0.94902 0 0 0 0.3 0"/>
            <feBlend mode="normal" in2="BackgroundImageFix" result="effect1_dropShadow_1116_34877"/>
            <feBlend mode="normal" in="SourceGraphic" in2="effect1_dropShadow_1116_34877" result="shape"/>
        </filter>
        <linearGradient id="paint0_linear_1116_34877" x1="1" y1="95" x2="91.5" y2="95" gradientUnits="userSpaceOnUse">
            <stop stop-color="#131C32"/>
            <stop offset="1" stop-color="#131C32" stop-opacity="0"/>
        </linearGradient>
        <linearGradient id="paint1_linear_1116_34877" x1="7.77778" y1="0" x2="61.6667" y2="0" gradientUnits="userSpaceOnUse">
            <stop stop-color="#131C32"/>
            <stop offset="1" stop-color="#131C32" stop-opacity="0"/>
        </linearGradient>
        <clipPath id="clip0_1116_34877">
            <rect width="387" height="134" fill="white"/>
        </clipPath>
        <clipPath id="clip1_1116_34877">
            <rect width="363" height="28" fill="white" transform="translate(0 97)"/>
        </clipPath>
    </defs>
</svg>
