<svg width="328" height="150" viewBox="0 0 328 150" fill="none" xmlns="http://www.w3.org/2000/svg">
    <rect x="1" y="1" width="256" height="85.3333" rx="5.54667" stroke="#E2E7FF" stroke-width="0.853333" stroke-linecap="round" stroke-linejoin="round" stroke-dasharray="5.55 5.55"/>
    <path d="M96.0326 47.666H94.4267L97.3506 39.3606H99.208L102.136 47.666H100.53L98.3117 41.0638H98.2469L96.0326 47.666ZM96.0853 44.4095H100.465V45.618H96.0853V44.4095ZM105.287 47.7755C104.798 47.7755 104.36 47.6498 103.973 47.3984C103.586 47.1469 103.281 46.7819 103.057 46.3034C102.832 45.8249 102.72 45.2436 102.72 44.5596C102.72 43.8675 102.834 43.2835 103.061 42.8076C103.29 42.3291 103.6 41.9682 103.989 41.7249C104.379 41.4788 104.813 41.3558 105.291 41.3558C105.656 41.3558 105.956 41.418 106.191 41.5424C106.427 41.664 106.613 41.8114 106.751 41.9844C106.889 42.1547 106.996 42.3156 107.071 42.467H107.132V39.3606H108.604V47.666H107.161V46.6846H107.071C106.996 46.836 106.886 46.9969 106.743 47.1672C106.6 47.3348 106.41 47.4781 106.175 47.5971C105.94 47.716 105.644 47.7755 105.287 47.7755ZM105.697 46.5711C106.008 46.5711 106.272 46.4872 106.491 46.3196C106.71 46.1493 106.877 45.9127 106.99 45.6099C107.104 45.3071 107.161 44.9543 107.161 44.5515C107.161 44.1486 107.104 43.7985 106.99 43.5011C106.879 43.2037 106.715 42.9726 106.496 42.8076C106.279 42.6427 106.013 42.5603 105.697 42.5603C105.369 42.5603 105.096 42.6454 104.877 42.8158C104.658 42.9861 104.494 43.2213 104.383 43.5214C104.272 43.8215 104.216 44.1649 104.216 44.5515C104.216 44.9408 104.272 45.2882 104.383 45.5937C104.496 45.8965 104.662 46.1358 104.881 46.3115C105.103 46.4845 105.375 46.5711 105.697 46.5711ZM112.48 47.7755C111.991 47.7755 111.553 47.6498 111.166 47.3984C110.78 47.1469 110.474 46.7819 110.25 46.3034C110.025 45.8249 109.913 45.2436 109.913 44.5596C109.913 43.8675 110.027 43.2835 110.254 42.8076C110.484 42.3291 110.793 41.9682 111.183 41.7249C111.572 41.4788 112.006 41.3558 112.484 41.3558C112.849 41.3558 113.149 41.418 113.385 41.5424C113.62 41.664 113.806 41.8114 113.944 41.9844C114.082 42.1547 114.189 42.3156 114.265 42.467H114.325V39.3606H115.798V47.666H114.354V46.6846H114.265C114.189 46.836 114.079 46.9969 113.936 47.1672C113.793 47.3348 113.604 47.4781 113.368 47.5971C113.133 47.716 112.837 47.7755 112.48 47.7755ZM112.89 46.5711C113.201 46.5711 113.466 46.4872 113.685 46.3196C113.904 46.1493 114.07 45.9127 114.184 45.6099C114.297 45.3071 114.354 44.9543 114.354 44.5515C114.354 44.1486 114.297 43.7985 114.184 43.5011C114.073 43.2037 113.908 42.9726 113.689 42.8076C113.473 42.6427 113.206 42.5603 112.89 42.5603C112.563 42.5603 112.29 42.6454 112.071 42.8158C111.852 42.9861 111.687 43.2213 111.576 43.5214C111.465 43.8215 111.41 44.1649 111.41 44.5515C111.41 44.9408 111.465 45.2882 111.576 45.5937C111.689 45.8965 111.856 46.1358 112.075 46.3115C112.296 46.4845 112.568 46.5711 112.89 46.5711ZM121.987 47.7917C121.592 47.7917 121.237 47.7214 120.921 47.5809C120.607 47.4376 120.358 47.2267 120.174 46.9482C119.993 46.6697 119.903 46.3264 119.903 45.9181C119.903 45.5667 119.968 45.276 120.097 45.0462C120.227 44.8164 120.404 44.6326 120.629 44.4947C120.853 44.3568 121.106 44.2527 121.387 44.1824C121.671 44.1094 121.964 44.0567 122.267 44.0243C122.632 43.9864 122.928 43.9526 123.155 43.9229C123.382 43.8904 123.547 43.8418 123.65 43.7769C123.755 43.7093 123.808 43.6052 123.808 43.4646V43.4403C123.808 43.1348 123.717 42.8982 123.536 42.7306C123.355 42.563 123.094 42.4792 122.754 42.4792C122.394 42.4792 122.109 42.5576 121.898 42.7144C121.69 42.8712 121.549 43.0564 121.476 43.27L120.105 43.0753C120.214 42.6968 120.392 42.3805 120.641 42.1263C120.889 41.8695 121.194 41.6775 121.553 41.5505C121.913 41.4207 122.31 41.3558 122.746 41.3558C123.046 41.3558 123.344 41.391 123.642 41.4613C123.939 41.5316 124.211 41.6478 124.457 41.81C124.703 41.9695 124.9 42.1872 125.049 42.4629C125.2 42.7387 125.276 43.0834 125.276 43.4971V47.666H123.865V46.8103H123.816C123.727 46.9834 123.601 47.1456 123.439 47.297C123.279 47.4457 123.078 47.566 122.835 47.6579C122.594 47.7471 122.312 47.7917 121.987 47.7917ZM122.368 46.713C122.663 46.713 122.919 46.6549 123.135 46.5386C123.351 46.4197 123.517 46.2628 123.634 46.0682C123.753 45.8735 123.812 45.6613 123.812 45.4315V44.6975C123.766 44.7353 123.688 44.7705 123.577 44.8029C123.469 44.8353 123.347 44.8637 123.212 44.8881C123.077 44.9124 122.943 44.934 122.81 44.953C122.678 44.9719 122.563 44.9881 122.466 45.0016C122.247 45.0314 122.051 45.08 121.878 45.1476C121.705 45.2152 121.568 45.3098 121.468 45.4315C121.368 45.5504 121.318 45.7046 121.318 45.8938C121.318 46.1642 121.417 46.3683 121.614 46.5062C121.811 46.6441 122.063 46.713 122.368 46.713ZM131.053 44.0162V47.666H129.585V41.4369H130.988V42.4954H131.061C131.204 42.1466 131.433 41.8695 131.746 41.664C132.063 41.4586 132.453 41.3558 132.918 41.3558C133.348 41.3558 133.723 41.4477 134.042 41.6316C134.364 41.8154 134.612 42.0817 134.788 42.4305C134.966 42.7793 135.054 43.2024 135.052 43.6998V47.666H133.584V43.9269C133.584 43.5106 133.475 43.1848 133.259 42.9496C133.046 42.7144 132.749 42.5968 132.371 42.5968C132.114 42.5968 131.886 42.6535 131.686 42.7671C131.488 42.8779 131.333 43.0388 131.219 43.2497C131.108 43.4606 131.053 43.7161 131.053 44.0162ZM139.302 47.7877C138.677 47.7877 138.138 47.6579 137.684 47.3984C137.232 47.1361 136.885 46.7657 136.641 46.2872C136.398 45.8059 136.276 45.2395 136.276 44.588C136.276 43.9472 136.398 43.3849 136.641 42.9009C136.887 42.4143 137.231 42.0358 137.671 41.7654C138.112 41.4923 138.63 41.3558 139.225 41.3558C139.609 41.3558 139.971 41.418 140.311 41.5424C140.655 41.664 140.958 41.8533 141.22 42.1101C141.485 42.367 141.693 42.6941 141.844 43.0915C141.996 43.4863 142.072 43.9567 142.072 44.5028V44.953H136.966V43.9634H140.664C140.662 43.6823 140.601 43.4322 140.482 43.2132C140.363 42.9915 140.197 42.8171 139.983 42.69C139.772 42.563 139.526 42.4994 139.245 42.4994C138.945 42.4994 138.681 42.5724 138.454 42.7184C138.227 42.8617 138.05 43.051 137.923 43.2862C137.798 43.5187 137.735 43.7742 137.732 44.0527V44.9165C137.732 45.2787 137.798 45.5897 137.931 45.8492C138.063 46.106 138.249 46.3034 138.487 46.4413C138.724 46.5765 139.003 46.6441 139.322 46.6441C139.536 46.6441 139.729 46.6143 139.902 46.5548C140.075 46.4927 140.225 46.4021 140.352 46.2831C140.479 46.1642 140.575 46.0168 140.64 45.8411L142.011 45.9952C141.924 46.3575 141.759 46.6738 141.516 46.9442C141.275 47.2118 140.967 47.42 140.591 47.5687C140.215 47.7147 139.786 47.7877 139.302 47.7877ZM144.566 47.666L142.806 41.4369H144.302L145.397 45.8168H145.454L146.573 41.4369H148.053L149.173 45.7924H149.233L150.312 41.4369H151.813L150.048 47.666H148.52L147.352 43.4565H147.266L146.099 47.666H144.566ZM158.387 47.7877C157.766 47.7877 157.232 47.6511 156.786 47.3781C156.342 47.105 156 46.7279 155.759 46.2466C155.522 45.7627 155.403 45.2057 155.403 44.5758C155.403 43.9432 155.524 43.3849 155.768 42.9009C156.011 42.4143 156.354 42.0358 156.798 41.7654C157.244 41.4923 157.771 41.3558 158.379 41.3558C158.885 41.3558 159.332 41.4491 159.722 41.6356C160.114 41.8195 160.426 42.0804 160.658 42.4183C160.891 42.7536 161.023 43.1456 161.056 43.5944H159.653C159.596 43.2943 159.461 43.0442 159.247 42.8441C159.036 42.6414 158.754 42.54 158.4 42.54C158.099 42.54 157.836 42.6211 157.609 42.7833C157.382 42.9428 157.205 43.1726 157.077 43.4727C156.953 43.7728 156.891 44.1324 156.891 44.5515C156.891 44.9759 156.953 45.3409 157.077 45.6464C157.202 45.9492 157.376 46.1831 157.601 46.348C157.828 46.5102 158.094 46.5913 158.4 46.5913C158.616 46.5913 158.809 46.5508 158.979 46.4697C159.153 46.3859 159.297 46.2656 159.413 46.1087C159.53 45.9519 159.609 45.7613 159.653 45.5369H161.056C161.021 45.9776 160.891 46.3683 160.667 46.7089C160.442 47.0469 160.137 47.3118 159.75 47.5038C159.363 47.6931 158.909 47.7877 158.387 47.7877ZM164.054 47.7917C163.659 47.7917 163.304 47.7214 162.987 47.5809C162.674 47.4376 162.425 47.2267 162.241 46.9482C162.06 46.6697 161.969 46.3264 161.969 45.9181C161.969 45.5667 162.034 45.276 162.164 45.0462C162.294 44.8164 162.471 44.6326 162.695 44.4947C162.92 44.3568 163.172 44.2527 163.454 44.1824C163.737 44.1094 164.031 44.0567 164.334 44.0243C164.699 43.9864 164.995 43.9526 165.222 43.9229C165.449 43.8904 165.614 43.8418 165.716 43.7769C165.822 43.7093 165.875 43.6052 165.875 43.4646V43.4403C165.875 43.1348 165.784 42.8982 165.603 42.7306C165.422 42.563 165.161 42.4792 164.82 42.4792C164.461 42.4792 164.175 42.5576 163.965 42.7144C163.756 42.8712 163.616 43.0564 163.543 43.27L162.172 43.0753C162.28 42.6968 162.459 42.3805 162.707 42.1263C162.956 41.8695 163.26 41.6775 163.62 41.5505C163.979 41.4207 164.377 41.3558 164.812 41.3558C165.112 41.3558 165.411 41.391 165.708 41.4613C166.006 41.5316 166.277 41.6478 166.524 41.81C166.77 41.9695 166.967 42.1872 167.116 42.4629C167.267 42.7387 167.343 43.0834 167.343 43.4971V47.666H165.931V46.8103H165.883C165.794 46.9834 165.668 47.1456 165.506 47.297C165.346 47.4457 165.145 47.566 164.901 47.6579C164.661 47.7471 164.378 47.7917 164.054 47.7917ZM164.435 46.713C164.73 46.713 164.985 46.6549 165.201 46.5386C165.418 46.4197 165.584 46.2628 165.7 46.0682C165.819 45.8735 165.879 45.6613 165.879 45.4315V44.6975C165.833 44.7353 165.754 44.7705 165.644 44.8029C165.535 44.8353 165.414 44.8637 165.279 44.8881C165.143 44.9124 165.01 44.934 164.877 44.953C164.745 44.9719 164.63 44.9881 164.532 45.0016C164.313 45.0314 164.117 45.08 163.944 45.1476C163.771 45.2152 163.635 45.3098 163.535 45.4315C163.435 45.5504 163.385 45.7046 163.385 45.8938C163.385 46.1642 163.483 46.3683 163.681 46.5062C163.878 46.6441 164.129 46.713 164.435 46.713ZM168.819 47.666V41.4369H170.242V42.4751H170.307C170.421 42.1155 170.615 41.8384 170.891 41.6437C171.17 41.4464 171.487 41.3477 171.844 41.3477C171.925 41.3477 172.016 41.3518 172.116 41.3599C172.219 41.3653 172.304 41.3747 172.371 41.3883V42.7387C172.309 42.7171 172.211 42.6982 172.075 42.6819C171.943 42.663 171.814 42.6535 171.69 42.6535C171.422 42.6535 171.182 42.7117 170.968 42.8279C170.757 42.9415 170.591 43.0996 170.469 43.3024C170.348 43.5052 170.287 43.739 170.287 44.004V47.666H168.819ZM175.402 47.7755C174.912 47.7755 174.474 47.6498 174.088 47.3984C173.701 47.1469 173.396 46.7819 173.171 46.3034C172.947 45.8249 172.835 45.2436 172.835 44.5596C172.835 43.8675 172.948 43.2835 173.175 42.8076C173.405 42.3291 173.715 41.9682 174.104 41.7249C174.493 41.4788 174.927 41.3558 175.406 41.3558C175.771 41.3558 176.071 41.418 176.306 41.5424C176.541 41.664 176.728 41.8114 176.866 41.9844C177.004 42.1547 177.11 42.3156 177.186 42.467H177.247V39.3606H178.719V47.666H177.275V46.6846H177.186C177.11 46.836 177.001 46.9969 176.858 47.1672C176.714 47.3348 176.525 47.4781 176.29 47.5971C176.055 47.716 175.759 47.7755 175.402 47.7755ZM175.811 46.5711C176.122 46.5711 176.387 46.4872 176.606 46.3196C176.825 46.1493 176.992 45.9127 177.105 45.6099C177.219 45.3071 177.275 44.9543 177.275 44.5515C177.275 44.1486 177.219 43.7985 177.105 43.5011C176.994 43.2037 176.829 42.9726 176.61 42.8076C176.394 42.6427 176.128 42.5603 175.811 42.5603C175.484 42.5603 175.211 42.6454 174.992 42.8158C174.773 42.9861 174.608 43.2213 174.497 43.5214C174.387 43.8215 174.331 44.1649 174.331 44.5515C174.331 44.9408 174.387 45.2882 174.497 45.5937C174.611 45.8965 174.777 46.1358 174.996 46.3115C175.218 46.4845 175.49 46.5711 175.811 46.5711Z" fill="#E2E7FF"/>
    <path d="M78.678 43.9494H67.2947" stroke="#E2E7FF" stroke-width="1.34153" stroke-linecap="round" stroke-linejoin="round"/>
    <path d="M72.7793 38.375V49.7582" stroke="#E2E7FF" stroke-width="1.34153" stroke-linecap="round" stroke-linejoin="round"/>
    <rect x="70.7867" y="63.4527" width="256.427" height="85.76" rx="6.21333" fill="white"/>
    <path d="M299.154 129.393C298.794 128.912 299.137 128.227 299.738 128.227H304.501C305.102 128.227 305.445 128.912 305.084 129.393V129.393C304.821 129.744 304.679 130.17 304.679 130.608V132.493C304.679 133.907 303.533 135.053 302.119 135.053V135.053C300.705 135.053 299.559 133.907 299.559 132.493V130.608C299.559 130.17 299.417 129.744 299.154 129.393V129.393Z" stroke="#E0076F" stroke-width="0.64"/>
    <path d="M302.973 132.921L302.973 130.361" stroke="#E0076F" stroke-width="0.64" stroke-linecap="round" stroke-linejoin="round"/>
    <path d="M301.266 132.921L301.266 130.361" stroke="#E0076F" stroke-width="0.64" stroke-linecap="round" stroke-linejoin="round"/>
    <path d="M303.825 128.227L303.804 128.162C303.562 127.436 302.883 126.947 302.119 126.947V126.947C301.354 126.947 300.676 127.436 300.434 128.162L300.412 128.227" stroke="#E0076F" stroke-width="0.64" stroke-linecap="round"/>
    <path d="M101.05 86.2168L99.9904 82.343H100.467L101.277 85.498H101.315L102.139 82.343H102.669L103.494 85.498H103.531L104.341 82.343H104.818L103.758 86.2168H103.274L102.419 83.1298H102.389L101.534 86.2168H101.05ZM106.251 86.2773C105.989 86.2773 105.759 86.2149 105.561 86.0901C105.364 85.9652 105.21 85.7906 105.099 85.5661C104.99 85.3417 104.935 85.0794 104.935 84.7792C104.935 84.4766 104.99 84.2124 105.099 83.9867C105.21 83.761 105.364 83.5857 105.561 83.4609C105.759 83.336 105.989 83.2736 106.251 83.2736C106.514 83.2736 106.743 83.336 106.94 83.4609C107.138 83.5857 107.292 83.761 107.401 83.9867C107.512 84.2124 107.568 84.4766 107.568 84.7792C107.568 85.0794 107.512 85.3417 107.401 85.5661C107.292 85.7906 107.138 85.9652 106.94 86.0901C106.743 86.2149 106.514 86.2773 106.251 86.2773ZM106.251 85.8763C106.451 85.8763 106.615 85.8253 106.743 85.7231C106.872 85.621 106.967 85.4867 107.029 85.3202C107.091 85.1538 107.121 84.9734 107.121 84.7792C107.121 84.585 107.091 84.4041 107.029 84.2364C106.967 84.0687 106.872 83.9331 106.743 83.8297C106.615 83.7263 106.451 83.6746 106.251 83.6746C106.052 83.6746 105.888 83.7263 105.76 83.8297C105.631 83.9331 105.536 84.0687 105.474 84.2364C105.412 84.4041 105.381 84.585 105.381 84.7792C105.381 84.9734 105.412 85.1538 105.474 85.3202C105.536 85.4867 105.631 85.621 105.76 85.7231C105.888 85.8253 106.052 85.8763 106.251 85.8763ZM108.249 86.2168V83.3114H108.681V83.7503H108.711C108.764 83.6065 108.86 83.4899 108.998 83.4003C109.137 83.3108 109.293 83.266 109.467 83.266C109.5 83.266 109.541 83.2667 109.59 83.2679C109.64 83.2692 109.677 83.2711 109.702 83.2736V83.7276C109.687 83.7238 109.652 83.7181 109.598 83.7105C109.545 83.7017 109.489 83.6973 109.43 83.6973C109.288 83.6973 109.162 83.7269 109.051 83.7862C108.942 83.8442 108.855 83.9249 108.79 84.0283C108.727 84.1305 108.696 84.2471 108.696 84.3782V86.2168H108.249ZM111.24 86.2773C110.998 86.2773 110.784 86.2162 110.599 86.0938C110.413 85.9703 110.268 85.7962 110.163 85.5718C110.059 85.3461 110.007 85.0794 110.007 84.7717C110.007 84.4665 110.059 84.2017 110.163 83.9772C110.268 83.7528 110.414 83.5794 110.6 83.4571C110.787 83.3348 111.003 83.2736 111.247 83.2736C111.436 83.2736 111.586 83.3051 111.696 83.3682C111.807 83.43 111.891 83.5006 111.949 83.58C112.008 83.6582 112.054 83.7225 112.087 83.773H112.125V82.343H112.571V86.2168H112.14V85.7704H112.087C112.054 85.8234 112.008 85.8902 111.947 85.9709C111.887 86.0503 111.8 86.1216 111.688 86.1846C111.576 86.2464 111.426 86.2773 111.24 86.2773ZM111.3 85.8763C111.479 85.8763 111.631 85.8297 111.754 85.7364C111.878 85.6418 111.972 85.5113 112.036 85.3448C112.1 85.1771 112.133 84.9835 112.133 84.7641C112.133 84.5472 112.101 84.3574 112.038 84.1948C111.975 84.0308 111.882 83.9035 111.758 83.8127C111.634 83.7206 111.482 83.6746 111.3 83.6746C111.111 83.6746 110.954 83.7231 110.827 83.8202C110.703 83.9161 110.609 84.0466 110.546 84.2118C110.484 84.3757 110.453 84.5598 110.453 84.7641C110.453 84.9709 110.484 85.1588 110.547 85.3278C110.612 85.4955 110.706 85.6292 110.831 85.7288C110.957 85.8271 111.114 85.8763 111.3 85.8763Z" fill="#535869"/>
    <path d="M103.327 92.4445C103.297 92.189 103.174 91.9906 102.959 91.8493C102.744 91.7081 102.48 91.6375 102.167 91.6375C101.938 91.6375 101.738 91.6745 101.567 91.7485C101.397 91.8224 101.264 91.9242 101.168 92.0536C101.074 92.1831 101.027 92.3302 101.027 92.495C101.027 92.6328 101.06 92.7514 101.125 92.8506C101.193 92.9481 101.278 93.0296 101.383 93.0952C101.487 93.1591 101.596 93.2121 101.71 93.2541C101.825 93.2945 101.93 93.3272 102.026 93.3525L102.55 93.4937C102.685 93.529 102.834 93.5778 102.999 93.64C103.166 93.7022 103.325 93.7871 103.476 93.8947C103.629 94.0006 103.755 94.1368 103.854 94.3033C103.953 94.4697 104.003 94.674 104.003 94.9161C104.003 95.1952 103.93 95.4474 103.784 95.6727C103.639 95.898 103.427 96.0771 103.148 96.2099C102.871 96.3427 102.533 96.4092 102.137 96.4092C101.767 96.4092 101.446 96.3495 101.176 96.2301C100.907 96.1107 100.695 95.9443 100.54 95.7307C100.387 95.5172 100.301 95.2692 100.28 94.9867H100.926C100.943 95.1818 101.009 95.3432 101.123 95.471C101.239 95.5971 101.385 95.6912 101.562 95.7534C101.74 95.814 101.932 95.8442 102.137 95.8442C102.375 95.8442 102.59 95.8055 102.78 95.7282C102.97 95.6492 103.12 95.5399 103.231 95.4003C103.342 95.2591 103.398 95.0943 103.398 94.906C103.398 94.7345 103.35 94.595 103.254 94.4874C103.158 94.3798 103.032 94.2923 102.876 94.2251C102.719 94.1578 102.55 94.099 102.369 94.0485L101.733 93.867C101.33 93.7509 101.01 93.5853 100.775 93.3701C100.539 93.1549 100.422 92.8733 100.422 92.5252C100.422 92.236 100.5 91.9838 100.656 91.7686C100.814 91.5517 101.026 91.3836 101.292 91.2642C101.559 91.1432 101.858 91.0826 102.187 91.0826C102.52 91.0826 102.816 91.1423 103.075 91.2617C103.334 91.3794 103.539 91.5408 103.69 91.7459C103.843 91.9511 103.924 92.1839 103.932 92.4445H103.327ZM106.635 92.4445V92.9489H104.628V92.4445H106.635ZM105.213 91.5164H105.808V95.2087C105.808 95.3768 105.833 95.5029 105.881 95.587C105.932 95.6694 105.996 95.7248 106.073 95.7534C106.152 95.7803 106.235 95.7938 106.323 95.7938C106.388 95.7938 106.442 95.7904 106.484 95.7837C106.526 95.7753 106.56 95.7686 106.585 95.7635L106.706 96.2982C106.666 96.3133 106.609 96.3284 106.537 96.3436C106.465 96.3604 106.373 96.3688 106.262 96.3688C106.094 96.3688 105.929 96.3327 105.768 96.2604C105.608 96.1881 105.475 96.0779 105.369 95.93C105.265 95.782 105.213 95.5954 105.213 95.3701V91.5164ZM109.972 94.7345V92.4445H110.567V96.3184H109.972V95.6626H109.932C109.841 95.8594 109.7 96.0266 109.508 96.1645C109.316 96.3007 109.074 96.3688 108.782 96.3688C108.539 96.3688 108.324 96.3158 108.136 96.2099C107.948 96.1023 107.8 95.9409 107.692 95.7257C107.584 95.5088 107.531 95.2356 107.531 94.906V92.4445H108.126V94.8657C108.126 95.1481 108.205 95.3734 108.363 95.5416C108.523 95.7097 108.726 95.7938 108.973 95.7938C109.121 95.7938 109.272 95.7559 109.425 95.6803C109.579 95.6046 109.709 95.4886 109.813 95.3322C109.919 95.1759 109.972 94.9766 109.972 94.7345ZM112.253 93.988V96.3184H111.657V92.4445H112.232V93.0498H112.283C112.374 92.8531 112.511 92.6951 112.696 92.5757C112.881 92.4546 113.12 92.3941 113.413 92.3941C113.675 92.3941 113.904 92.4479 114.101 92.5555C114.298 92.6614 114.451 92.8228 114.56 93.0397C114.669 93.2549 114.724 93.5273 114.724 93.8569V96.3184H114.129V93.8972C114.129 93.5929 114.05 93.3558 113.892 93.186C113.734 93.0145 113.517 92.9288 113.241 92.9288C113.051 92.9288 112.881 92.97 112.732 93.0523C112.584 93.1347 112.467 93.2549 112.381 93.413C112.295 93.571 112.253 93.7627 112.253 93.988ZM116.407 93.988V96.3184H115.812V92.4445H116.387V93.0498H116.437C116.528 92.8531 116.666 92.6951 116.851 92.5757C117.036 92.4546 117.275 92.3941 117.567 92.3941C117.829 92.3941 118.059 92.4479 118.256 92.5555C118.452 92.6614 118.605 92.8228 118.715 93.0397C118.824 93.2549 118.879 93.5273 118.879 93.8569V96.3184H118.283V93.8972C118.283 93.5929 118.204 93.3558 118.046 93.186C117.888 93.0145 117.671 92.9288 117.396 92.9288C117.206 92.9288 117.036 92.97 116.886 93.0523C116.738 93.1347 116.621 93.2549 116.536 93.413C116.45 93.571 116.407 93.7627 116.407 93.988ZM119.966 96.3184V92.4445H120.561V96.3184H119.966ZM120.269 91.7989C120.153 91.7989 120.053 91.7594 119.969 91.6804C119.886 91.6013 119.845 91.5063 119.845 91.3954C119.845 91.2844 119.886 91.1894 119.969 91.1104C120.053 91.0314 120.153 90.9918 120.269 90.9918C120.385 90.9918 120.484 91.0314 120.566 91.1104C120.65 91.1894 120.692 91.2844 120.692 91.3954C120.692 91.5063 120.65 91.6013 120.566 91.6804C120.484 91.7594 120.385 91.7989 120.269 91.7989ZM122.247 93.988V96.3184H121.651V92.4445H122.226V93.0498H122.277C122.368 92.8531 122.506 92.6951 122.691 92.5757C122.875 92.4546 123.114 92.3941 123.407 92.3941C123.669 92.3941 123.899 92.4479 124.095 92.5555C124.292 92.6614 124.445 92.8228 124.554 93.0397C124.664 93.2549 124.718 93.5273 124.718 93.8569V96.3184H124.123V93.8972C124.123 93.5929 124.044 93.3558 123.886 93.186C123.728 93.0145 123.511 92.9288 123.235 92.9288C123.045 92.9288 122.875 92.97 122.726 93.0523C122.578 93.1347 122.461 93.2549 122.375 93.413C122.29 93.571 122.247 93.7627 122.247 93.988ZM127.37 97.8517C127.082 97.8517 126.835 97.8148 126.628 97.7408C126.421 97.6685 126.249 97.5726 126.111 97.4533C125.975 97.3356 125.866 97.2095 125.786 97.075L126.26 96.7421C126.314 96.8127 126.382 96.8934 126.464 96.9842C126.547 97.0766 126.659 97.1565 126.802 97.2238C126.947 97.2927 127.136 97.3272 127.37 97.3272C127.682 97.3272 127.94 97.2515 128.144 97.1002C128.347 96.9489 128.449 96.7118 128.449 96.389V95.6021H128.399C128.355 95.6727 128.293 95.7602 128.212 95.8644C128.133 95.967 128.019 96.0586 127.869 96.1393C127.721 96.2183 127.521 96.2578 127.269 96.2578C126.956 96.2578 126.675 96.1839 126.426 96.0359C126.179 95.8879 125.983 95.6727 125.839 95.3903C125.696 95.1078 125.624 94.7648 125.624 94.3613C125.624 93.9645 125.694 93.619 125.834 93.3247C125.973 93.0288 126.167 92.8001 126.416 92.6387C126.665 92.4756 126.953 92.3941 127.279 92.3941C127.531 92.3941 127.731 92.4361 127.879 92.5202C128.029 92.6026 128.143 92.6967 128.222 92.8027C128.303 92.9069 128.365 92.9927 128.409 93.0599H128.469V92.4445H129.044V96.4293C129.044 96.7622 128.968 97.0329 128.817 97.2414C128.668 97.4516 128.466 97.6054 128.212 97.703C127.96 97.8021 127.679 97.8517 127.37 97.8517ZM127.349 95.7232C127.588 95.7232 127.79 95.6685 127.955 95.5592C128.119 95.4499 128.245 95.2927 128.33 95.0876C128.416 94.8825 128.459 94.637 128.459 94.3512C128.459 94.0721 128.417 93.8258 128.333 93.6122C128.249 93.3987 128.124 93.2314 127.96 93.1103C127.795 92.9893 127.591 92.9288 127.349 92.9288C127.097 92.9288 126.887 92.9927 126.719 93.1204C126.552 93.2482 126.427 93.4197 126.343 93.6349C126.261 93.8501 126.219 94.0889 126.219 94.3512C126.219 94.6202 126.262 94.8581 126.346 95.0649C126.431 95.27 126.557 95.4314 126.724 95.5491C126.892 95.6652 127.101 95.7232 127.349 95.7232Z" fill="#131C32"/>
    <rect x="91.5" y="78.166" width="172.999" height="23.8571" rx="3.5" stroke="#6B85FF"/>
    <rect x="91" y="110.523" width="173.999" height="24.8571" rx="4" fill="#F8FAFF"/>
    <path d="M100.22 121.015V120.46H104.094V121.015H102.47V125.625H101.844V121.015H100.22ZM104.576 125.625V121.751H105.151V122.336H105.191C105.262 122.145 105.39 121.989 105.575 121.87C105.76 121.75 105.968 121.691 106.2 121.691C106.244 121.691 106.299 121.691 106.364 121.693C106.43 121.695 106.479 121.697 106.513 121.701V122.306C106.493 122.301 106.447 122.293 106.374 122.283C106.304 122.272 106.229 122.266 106.15 122.266C105.962 122.266 105.793 122.305 105.645 122.384C105.499 122.462 105.383 122.569 105.297 122.707C105.213 122.843 105.171 122.999 105.171 123.174V125.625H104.576ZM108.359 125.716C108.113 125.716 107.89 125.67 107.69 125.577C107.49 125.483 107.331 125.348 107.214 125.171C107.096 124.993 107.037 124.778 107.037 124.525C107.037 124.303 107.081 124.124 107.168 123.986C107.256 123.846 107.372 123.737 107.519 123.658C107.665 123.579 107.826 123.52 108.003 123.481C108.181 123.441 108.36 123.409 108.54 123.385C108.775 123.355 108.966 123.332 109.113 123.317C109.261 123.301 109.368 123.273 109.435 123.234C109.504 123.195 109.539 123.128 109.539 123.032V123.012C109.539 122.763 109.471 122.57 109.335 122.432C109.2 122.294 108.996 122.225 108.722 122.225C108.438 122.225 108.215 122.288 108.053 122.412C107.892 122.536 107.778 122.669 107.713 122.81L107.148 122.609C107.249 122.373 107.383 122.19 107.551 122.059C107.721 121.926 107.906 121.834 108.106 121.781C108.308 121.728 108.506 121.701 108.702 121.701C108.826 121.701 108.969 121.716 109.13 121.746C109.293 121.775 109.451 121.834 109.602 121.925C109.755 122.016 109.882 122.153 109.983 122.336C110.084 122.52 110.134 122.765 110.134 123.073V125.625H109.539V125.1H109.509C109.468 125.184 109.401 125.274 109.307 125.37C109.213 125.466 109.087 125.548 108.931 125.615C108.775 125.682 108.584 125.716 108.359 125.716ZM108.449 125.181C108.685 125.181 108.883 125.135 109.045 125.042C109.208 124.95 109.33 124.831 109.413 124.684C109.497 124.538 109.539 124.384 109.539 124.223V123.678C109.514 123.708 109.458 123.736 109.372 123.761C109.288 123.785 109.191 123.806 109.08 123.824C108.971 123.841 108.864 123.856 108.76 123.87C108.657 123.881 108.574 123.892 108.51 123.9C108.355 123.92 108.211 123.953 108.076 123.998C107.943 124.042 107.836 124.108 107.753 124.198C107.673 124.285 107.632 124.404 107.632 124.556C107.632 124.762 107.709 124.919 107.862 125.025C108.016 125.129 108.212 125.181 108.449 125.181ZM111.816 123.295V125.625H111.22V121.751H111.795V122.356H111.846C111.937 122.16 112.075 122.002 112.259 121.882C112.444 121.761 112.683 121.701 112.976 121.701C113.238 121.701 113.468 121.755 113.664 121.862C113.861 121.968 114.014 122.129 114.123 122.346C114.233 122.562 114.287 122.834 114.287 123.164V125.625H113.692V123.204C113.692 122.9 113.613 122.662 113.455 122.493C113.297 122.321 113.08 122.235 112.804 122.235C112.614 122.235 112.444 122.277 112.295 122.359C112.147 122.441 112.03 122.562 111.944 122.72C111.858 122.878 111.816 123.069 111.816 123.295ZM118.119 122.619L117.584 122.77C117.55 122.681 117.501 122.594 117.435 122.51C117.371 122.425 117.284 122.354 117.173 122.298C117.062 122.243 116.92 122.215 116.747 122.215C116.51 122.215 116.312 122.27 116.154 122.379C115.998 122.487 115.92 122.624 115.92 122.79C115.92 122.938 115.973 123.055 116.081 123.141C116.189 123.227 116.357 123.298 116.585 123.355L117.16 123.496C117.507 123.58 117.765 123.709 117.935 123.882C118.104 124.054 118.189 124.275 118.189 124.546C118.189 124.768 118.125 124.966 117.998 125.141C117.872 125.316 117.695 125.454 117.468 125.554C117.241 125.655 116.977 125.706 116.676 125.706C116.281 125.706 115.954 125.62 115.695 125.448C115.436 125.277 115.272 125.026 115.203 124.697L115.768 124.556C115.822 124.764 115.924 124.921 116.073 125.025C116.225 125.129 116.422 125.181 116.666 125.181C116.943 125.181 117.164 125.122 117.327 125.005C117.492 124.885 117.574 124.742 117.574 124.576C117.574 124.441 117.527 124.329 117.433 124.238C117.339 124.145 117.194 124.076 116.999 124.031L116.353 123.88C115.999 123.796 115.738 123.665 115.572 123.489C115.407 123.311 115.324 123.088 115.324 122.821C115.324 122.602 115.386 122.409 115.508 122.24C115.633 122.072 115.802 121.94 116.015 121.844C116.231 121.749 116.474 121.701 116.747 121.701C117.13 121.701 117.431 121.785 117.65 121.953C117.87 122.121 118.026 122.343 118.119 122.619ZM119.681 120.46V125.625H119.085V120.46H119.681ZM121.911 125.716C121.665 125.716 121.442 125.67 121.242 125.577C121.042 125.483 120.883 125.348 120.766 125.171C120.648 124.993 120.589 124.778 120.589 124.525C120.589 124.303 120.633 124.124 120.72 123.986C120.808 123.846 120.925 123.737 121.071 123.658C121.217 123.579 121.378 123.52 121.555 123.481C121.733 123.441 121.912 123.409 122.092 123.385C122.328 123.355 122.518 123.332 122.665 123.317C122.813 123.301 122.92 123.273 122.988 123.234C123.056 123.195 123.091 123.128 123.091 123.032V123.012C123.091 122.763 123.023 122.57 122.887 122.432C122.752 122.294 122.548 122.225 122.274 122.225C121.99 122.225 121.767 122.288 121.605 122.412C121.444 122.536 121.331 122.669 121.265 122.81L120.7 122.609C120.801 122.373 120.935 122.19 121.104 122.059C121.273 121.926 121.458 121.834 121.658 121.781C121.86 121.728 122.059 121.701 122.254 121.701C122.378 121.701 122.521 121.716 122.682 121.746C122.845 121.775 123.003 121.834 123.154 121.925C123.307 122.016 123.434 122.153 123.535 122.336C123.636 122.52 123.686 122.765 123.686 123.073V125.625H123.091V125.1H123.061C123.02 125.184 122.953 125.274 122.859 125.37C122.765 125.466 122.639 125.548 122.483 125.615C122.327 125.682 122.136 125.716 121.911 125.716ZM122.001 125.181C122.237 125.181 122.435 125.135 122.597 125.042C122.76 124.95 122.882 124.831 122.965 124.684C123.049 124.538 123.091 124.384 123.091 124.223V123.678C123.066 123.708 123.01 123.736 122.924 123.761C122.84 123.785 122.743 123.806 122.632 123.824C122.523 123.841 122.416 123.856 122.312 123.87C122.209 123.881 122.126 123.892 122.062 123.9C121.907 123.92 121.763 123.953 121.628 123.998C121.495 124.042 121.388 124.108 121.305 124.198C121.225 124.285 121.184 124.404 121.184 124.556C121.184 124.762 121.261 124.919 121.414 125.025C121.568 125.129 121.764 125.181 122.001 125.181ZM126.457 121.751V122.256H124.45V121.751H126.457ZM125.035 120.823H125.63V124.515C125.63 124.683 125.654 124.81 125.703 124.894C125.754 124.976 125.817 125.031 125.895 125.06C125.974 125.087 126.057 125.1 126.144 125.1C126.21 125.1 126.264 125.097 126.306 125.09C126.348 125.082 126.382 125.075 126.407 125.07L126.528 125.605C126.487 125.62 126.431 125.635 126.359 125.65C126.287 125.667 126.195 125.675 126.084 125.675C125.916 125.675 125.751 125.639 125.59 125.567C125.43 125.495 125.297 125.385 125.191 125.237C125.087 125.089 125.035 124.902 125.035 124.677V120.823ZM127.353 125.625V121.751H127.948V125.625H127.353ZM127.655 121.106C127.539 121.106 127.439 121.066 127.355 120.987C127.273 120.908 127.231 120.813 127.231 120.702C127.231 120.591 127.273 120.496 127.355 120.417C127.439 120.338 127.539 120.298 127.655 120.298C127.771 120.298 127.87 120.338 127.953 120.417C128.037 120.496 128.079 120.591 128.079 120.702C128.079 120.813 128.037 120.908 127.953 120.987C127.87 121.066 127.771 121.106 127.655 121.106ZM130.612 125.706C130.262 125.706 129.955 125.622 129.691 125.456C129.429 125.29 129.224 125.057 129.076 124.757C128.929 124.458 128.856 124.108 128.856 123.708C128.856 123.305 128.929 122.952 129.076 122.652C129.224 122.351 129.429 122.117 129.691 121.95C129.955 121.784 130.262 121.701 130.612 121.701C130.961 121.701 131.267 121.784 131.53 121.95C131.794 122.117 131.999 122.351 132.145 122.652C132.293 122.952 132.367 123.305 132.367 123.708C132.367 124.108 132.293 124.458 132.145 124.757C131.999 125.057 131.794 125.29 131.53 125.456C131.267 125.622 130.961 125.706 130.612 125.706ZM130.612 125.171C130.877 125.171 131.096 125.103 131.267 124.967C131.439 124.831 131.566 124.651 131.648 124.43C131.731 124.208 131.772 123.967 131.772 123.708C131.772 123.449 131.731 123.208 131.648 122.984C131.566 122.761 131.439 122.58 131.267 122.442C131.096 122.304 130.877 122.235 130.612 122.235C130.346 122.235 130.127 122.304 129.956 122.442C129.784 122.58 129.657 122.761 129.575 122.984C129.493 123.208 129.451 123.449 129.451 123.708C129.451 123.967 129.493 124.208 129.575 124.43C129.657 124.651 129.784 124.831 129.956 124.967C130.127 125.103 130.346 125.171 130.612 125.171ZM133.871 123.295V125.625H133.275V121.751H133.851V122.356H133.901C133.992 122.16 134.13 122.002 134.315 121.882C134.5 121.761 134.738 121.701 135.031 121.701C135.293 121.701 135.523 121.755 135.719 121.862C135.916 121.968 136.069 122.129 136.178 122.346C136.288 122.562 136.342 122.834 136.342 123.164V125.625H135.747V123.204C135.747 122.9 135.668 122.662 135.51 122.493C135.352 122.321 135.135 122.235 134.859 122.235C134.669 122.235 134.5 122.277 134.35 122.359C134.202 122.441 134.085 122.562 133.999 122.72C133.914 122.878 133.871 123.069 133.871 123.295Z" fill="#535869"/>
    <rect x="70.7867" y="63.4527" width="256.427" height="85.76" rx="6.21333" stroke="#B6C1E6" stroke-width="0.426667"/>
</svg>
