<svg width="195" height="109" viewBox="0 0 195 109" fill="none" xmlns="http://www.w3.org/2000/svg">
    <g filter="url(#filter0_d_1107_35631)">
        <rect x="11" y="27.4746" width="165.227" height="64.379" rx="8" transform="rotate(-7.81743 11 27.4746)" fill="#6B85FF" shape-rendering="crispEdges"/>
        <path d="M50.7492 60.6384L48.688 63.3556C46.7907 65.8567 43.2251 66.3462 40.724 64.449V64.449C38.2229 62.5517 37.7333 58.9861 39.6306 56.485L41.6918 53.7678M53.4974 57.0154L55.5586 54.2982C57.4559 51.797 56.9663 48.2314 54.4652 46.3342V46.3342C51.9641 44.4369 48.3985 44.9264 46.5012 47.4276L44.44 50.1448" stroke="white" stroke-width="1.70527" stroke-linecap="round"/>
        <path d="M45.5339 58.1083L49.6562 52.6738" stroke="white" stroke-width="1.70527" stroke-linecap="round" stroke-linejoin="round"/>
        <path d="M84.3048 46.6392L82.5194 46.8843C82.3433 46.3853 82.0965 45.9595 81.7792 45.607C81.4667 45.2538 81.1051 44.971 80.6945 44.7584C80.288 44.5403 79.85 44.3951 79.3804 44.3227C78.9108 44.2502 78.4312 44.2476 77.9417 44.3148C77.049 44.4374 76.2712 44.774 75.6084 45.3246C74.9504 45.8746 74.4682 46.6181 74.1616 47.555C73.8598 48.4913 73.7966 49.5978 73.9719 50.8745C74.1471 52.1511 74.5062 53.1996 75.0492 54.0199C75.5969 54.8396 76.2617 55.4256 77.0436 55.7779C77.8303 56.1296 78.6699 56.2441 79.5626 56.1215C80.0522 56.0543 80.5133 55.9226 80.946 55.7262C81.3787 55.5299 81.7617 55.2744 82.095 54.9597C82.4325 54.6395 82.7041 54.2673 82.9099 53.8429C83.1199 53.4131 83.2427 52.9366 83.2785 52.4134L85.0639 52.1682C85.0329 52.9402 84.8807 53.6481 84.6073 54.292C84.3338 54.9359 83.9618 55.5029 83.4912 55.9929C83.0199 56.4782 82.4703 56.8739 81.8424 57.1802C81.2194 57.4858 80.5359 57.6896 79.792 57.7918C78.5345 57.9644 77.374 57.8108 76.3106 57.3309C75.2472 56.8509 74.3569 56.0832 73.6399 55.0276C72.9228 53.972 72.4575 52.6667 72.244 51.1117C72.0306 49.5567 72.1268 48.1743 72.5329 46.9645C72.9389 45.7547 73.5893 44.7754 74.484 44.0267C75.3788 43.2779 76.4549 42.8172 77.7124 42.6446C78.4563 42.5425 79.1694 42.5546 79.8518 42.6809C80.539 42.8066 81.1752 43.042 81.7605 43.3871C82.3451 43.7274 82.8558 44.1707 83.2927 44.7171C83.7289 45.2586 84.0663 45.8994 84.3048 46.6392ZM92.8751 56.0249C91.8768 56.1619 90.9683 56.0446 90.1495 55.6729C89.3356 55.3006 88.6588 54.7162 88.1191 53.9199C87.5843 53.1229 87.2384 52.1533 87.0816 51.011C86.9235 49.8591 86.9942 48.825 87.2938 47.9085C87.5982 46.9915 88.0922 46.2439 88.7756 45.666C89.4639 45.0874 90.3072 44.7296 91.3055 44.5925C92.3038 44.4554 93.2099 44.5731 94.0239 44.9454C94.8426 45.3171 95.5198 45.9039 96.0553 46.7057C96.5956 47.5068 96.9448 48.4833 97.1029 49.6352C97.2598 50.7774 97.1857 51.8047 96.8806 52.717C96.5803 53.6287 96.0861 54.3738 95.3978 54.9524C94.7143 55.5303 93.8734 55.8878 92.8751 56.0249ZM92.6656 54.4986C93.4239 54.3945 94.0211 54.1145 94.4573 53.6585C94.8935 53.2025 95.1857 52.6417 95.3339 51.9758C95.482 51.31 95.5054 50.6075 95.4039 49.8684C95.3025 49.1293 95.0903 48.4567 94.7675 47.8507C94.4447 47.2446 94.0115 46.7784 93.4679 46.4521C92.9243 46.1257 92.2734 46.0146 91.5151 46.1187C90.7567 46.2229 90.1598 46.5053 89.7243 46.9661C89.2888 47.4268 88.9973 47.9925 88.8497 48.6631C88.7022 49.3338 88.6792 50.0386 88.7806 50.7778C88.8821 51.5169 89.0939 52.1871 89.4161 52.7883C89.7382 53.3895 90.1708 53.8509 90.7137 54.1725C91.2566 54.494 91.9072 54.6028 92.6656 54.4986ZM101.017 58.8973L98.9295 43.6925L100.571 43.4671L100.812 45.2237L101.014 45.1961C101.112 44.987 101.251 44.7185 101.431 44.3906C101.615 44.0572 101.9 43.7443 102.285 43.4518C102.675 43.1539 103.229 42.9555 103.949 42.8566C104.88 42.7288 105.733 42.8489 106.507 43.2169C107.281 43.5849 107.926 44.1688 108.442 44.9684C108.958 45.768 109.295 46.7485 109.455 47.91C109.615 49.0811 109.556 50.1235 109.275 51.0373C108.994 51.9463 108.533 52.6844 107.892 53.2516C107.251 53.8141 106.469 54.1585 105.548 54.285C104.837 54.3826 104.252 54.3431 103.793 54.1665C103.333 53.9852 102.967 53.7592 102.695 53.4884C102.422 53.2129 102.21 52.9829 102.057 52.7985L101.913 52.8182L102.716 58.664L101.017 58.8973ZM101.359 48.9922C101.473 49.8273 101.697 50.5472 102.029 51.1519C102.361 51.7519 102.787 52.1995 103.307 52.4949C103.826 52.7855 104.426 52.884 105.108 52.7904C105.818 52.6929 106.385 52.4244 106.809 51.9848C107.237 51.5397 107.527 50.9815 107.679 50.3103C107.836 49.6335 107.86 48.9016 107.752 48.1145C107.645 47.337 107.429 46.6527 107.103 46.0617C106.782 45.4653 106.356 45.0176 105.826 44.7188C105.3 44.4144 104.677 44.3117 103.957 44.4105C103.266 44.5054 102.709 44.7603 102.287 45.1753C101.864 45.5854 101.576 46.1189 101.421 46.7758C101.266 47.4279 101.245 48.1667 101.359 48.9922ZM114.069 57.1053C113.781 57.1448 113.521 57.1561 113.289 57.139C113.057 57.1268 112.896 57.105 112.803 57.0737L113.03 55.517C113.457 55.5659 113.827 55.5542 114.14 55.4819C114.453 55.4096 114.714 55.2295 114.924 54.9415C115.139 54.6577 115.311 54.2208 115.441 53.6309L115.639 52.7236L110.023 42.1694L111.866 41.9163L116.129 50.3091L116.244 50.2933L118.087 41.0623L119.93 40.8093L116.975 54.1244C116.843 54.7245 116.646 55.2332 116.385 55.6504C116.125 56.0724 115.802 56.4029 115.414 56.6419C115.031 56.8803 114.583 57.0348 114.069 57.1053ZM129.067 35.7993L131.091 50.5434L129.392 50.7766L127.368 36.0326L129.067 35.7993ZM134.203 50.1161L132.685 39.0581L134.384 38.8248L135.902 49.8829L134.203 50.1161ZM133.296 37.0965C132.965 37.142 132.663 37.0684 132.393 36.8758C132.126 36.6825 131.972 36.4274 131.928 36.1107C131.885 35.7939 131.965 35.5066 132.169 35.2487C132.378 34.9902 132.648 34.8382 132.979 34.7928C133.311 34.7473 133.609 34.8212 133.875 35.0145C134.146 35.2071 134.304 35.4618 134.347 35.7786C134.391 36.0953 134.308 36.383 134.099 36.6415C133.895 36.8994 133.627 37.051 133.296 37.0965ZM139.8 42.5703L140.713 49.2224L139.014 49.4556L137.496 38.3976L139.137 38.1723L139.374 39.9001L139.518 39.8803C139.7 39.2832 140.032 38.778 140.513 38.3648C140.994 37.9467 141.652 37.6804 142.487 37.5657C143.235 37.4629 143.912 37.5265 144.515 37.7566C145.118 37.9819 145.618 38.3827 146.015 38.959C146.412 39.5305 146.674 40.2866 146.803 41.2273L147.768 48.2537L146.069 48.487L145.12 41.5757C145.001 40.707 144.683 40.0613 144.165 39.6385C143.646 39.2109 142.994 39.0511 142.207 39.1591C141.664 39.2336 141.196 39.4177 140.801 39.7116C140.411 40.0047 140.124 40.3937 139.941 40.8784C139.759 41.3632 139.711 41.9271 139.8 42.5703ZM151.903 43.5785L151.586 41.4802L151.931 41.4328L156.093 35.8443L158.195 35.5557L153.756 41.4756L153.612 41.4954L151.903 43.5785ZM150.873 47.8275L148.849 33.0835L150.548 32.8502L152.572 47.5942L150.873 47.8275ZM157.899 46.8628L152.829 41.9844L153.876 40.6377L160.059 46.5663L157.899 46.8628Z" fill="white"/>
    </g>
    <defs>
        <filter id="filter0_d_1107_35631" x="-1" y="-1" width="196.447" height="110.256" filterUnits="userSpaceOnUse" color-interpolation-filters="sRGB">
            <feFlood flood-opacity="0" result="BackgroundImageFix"/>
            <feColorMatrix in="SourceAlpha" type="matrix" values="0 0 0 0 0 0 0 0 0 0 0 0 0 0 0 0 0 0 127 0" result="hardAlpha"/>
            <feOffset dy="6"/>
            <feGaussianBlur stdDeviation="6"/>
            <feComposite in2="hardAlpha" operator="out"/>
            <feColorMatrix type="matrix" values="0 0 0 0 0.360784 0 0 0 0 0.466667 0 0 0 0 0.94902 0 0 0 0.2 0"/>
            <feBlend mode="normal" in2="BackgroundImageFix" result="effect1_dropShadow_1107_35631"/>
            <feBlend mode="normal" in="SourceGraphic" in2="effect1_dropShadow_1107_35631" result="shape"/>
        </filter>
    </defs>
</svg>
