<svg width="192" height="301" viewBox="0 0 192 301" fill="none" xmlns="http://www.w3.org/2000/svg">
    <g clip-path="url(#clip0_324_6549)">
        <path d="M158.378 39.399L96.5207 2.7941C96.5207 2.7941 90.4263 -1.39078 83.8241 1.41615C77.2219 4.22307 75.0889 12.6056 75.0889 12.6056C74.9619 13.0309 74.8476 13.4562 74.7461 13.8815L37.9388 180.064C36.0724 188.472 39.5385 198.245 45.6837 201.894L107.541 238.55C109.398 239.728 111.515 240.428 113.705 240.588C115.895 240.748 118.091 240.364 120.098 239.469C123.455 237.898 126.153 235.187 127.716 231.814C127.792 231.686 127.856 231.558 127.919 231.431L128.033 231.176C128.401 230.389 128.707 229.574 128.948 228.739C129.082 228.32 129.192 227.894 129.278 227.463L166.174 61.2292C167.99 52.8084 164.523 43.048 158.378 39.399Z" fill="#131C32"/>
        <path d="M114.702 241.013C112.074 241.011 109.499 240.263 107.275 238.856L45.4552 202.226C39.1831 198.513 35.628 188.536 37.5198 179.988L74.4033 13.7794C74.4922 13.3328 74.6065 12.9245 74.7334 12.5035C74.8223 12.159 77.0188 3.92963 83.6845 1.02063C90.3502 -1.88836 96.4699 2.29651 96.7238 2.42409L158.556 39.0672C164.815 42.78 168.383 52.7574 166.479 61.3057L129.659 227.514C129.566 227.945 129.452 228.371 129.316 228.79C129.061 229.64 128.748 230.472 128.376 231.278L128.199 231.661L128.059 231.928C126.45 235.391 123.688 238.18 120.251 239.813C118.505 240.6 116.615 241.009 114.702 241.013ZM75.4952 12.6311C75.3682 13.0521 75.254 13.4732 75.1524 13.907L38.2689 180.141C36.4406 188.383 39.8306 198.003 45.8869 201.55L107.744 238.206C109.551 239.345 111.607 240.023 113.733 240.181C115.86 240.339 117.993 239.972 119.946 239.112C123.224 237.547 125.859 234.886 127.399 231.584C127.433 231.495 127.476 231.41 127.526 231.329L127.703 230.946C128.064 230.175 128.365 229.377 128.605 228.56C128.821 227.833 128.922 227.348 128.922 227.348L165.806 61.1271C167.634 52.8849 164.231 43.2648 158.188 39.7179L96.3429 3.07479C96.2541 3.07479 90.3121 -0.969726 84.0146 1.72237C77.9584 4.31239 75.711 11.8401 75.4952 12.5928V12.6311Z" fill="#131C32"/>
        <path d="M106.767 236.701C108.61 237.857 110.708 238.539 112.875 238.688C115.043 238.837 117.214 238.448 119.197 237.556C126.637 234.252 128.287 225.652 128.287 225.652L106.703 234.89L106.767 236.701Z" fill="#5C77F2"/>
        <path d="M113.903 239.139C111.301 239.142 108.752 238.403 106.552 237.008C106.501 236.976 106.459 236.93 106.43 236.877C106.401 236.823 106.386 236.763 106.387 236.702V235.005C106.387 234.93 106.409 234.856 106.449 234.793C106.49 234.73 106.547 234.679 106.615 234.648L128.199 225.41C128.26 225.377 128.327 225.359 128.396 225.359C128.465 225.359 128.533 225.377 128.593 225.41C128.645 225.456 128.684 225.513 128.709 225.578C128.733 225.642 128.741 225.712 128.733 225.78C128.733 225.87 126.955 234.622 119.413 237.978C117.68 238.755 115.801 239.151 113.903 239.139ZM107.149 236.498C108.925 237.569 110.931 238.197 112.998 238.33C115.065 238.463 117.134 238.097 119.033 237.263C124.962 234.622 127.146 228.473 127.73 226.355L107.149 235.196V236.498Z" fill="#131C32"/>
        <path d="M74.7578 13.001C74.7578 13.001 76.8908 4.72061 83.4042 1.92644C89.9175 -0.867724 95.9484 3.29163 95.9484 3.29163C95.9484 3.29163 107.02 11.8655 106.69 11.8655L74.7578 13.001Z" fill="#5C77F2"/>
        <path d="M74.7595 13.397C74.7032 13.3985 74.6474 13.3865 74.5966 13.3621C74.5459 13.3377 74.5016 13.3016 74.4674 13.2566C74.4301 13.211 74.4038 13.1573 74.3906 13.0997C74.3774 13.0422 74.3776 12.9823 74.3912 12.9249C74.4801 12.5804 76.6512 4.42756 83.2788 1.60788C89.9064 -1.21181 95.9754 2.88376 96.1785 2.99859C107.225 11.5597 107.186 11.6745 107.072 12.0063C107.046 12.0837 106.996 12.1511 106.93 12.199C106.865 12.247 106.785 12.2733 106.704 12.2742C106.272 12.2742 75.1022 13.397 74.7848 13.397H74.7595ZM88.1289 1.37822C86.5581 1.37252 85.0027 1.68947 83.5582 2.30961C78.2129 4.59343 75.8641 10.8069 75.28 12.6187L105.752 11.5342C104 10.0797 99.1114 6.25206 95.7088 3.611C93.4088 2.19635 90.7743 1.42547 88.0781 1.37822H88.1289Z" fill="#131C32"/>
        <path d="M113.928 234.25L52.705 198.003C46.6233 194.392 43.1953 184.721 45.087 176.402L81.5388 11.8527C83.3798 3.53397 89.817 -0.293646 95.8986 3.31708L157.121 39.5902C163.203 43.2009 166.631 52.8721 164.739 61.1908L128.288 225.702C126.447 234.021 120.009 237.848 113.928 234.25Z" fill="#5C77F2"/>
        <path d="M113.928 234.25L52.705 198.003C46.6233 194.392 43.1953 184.721 45.087 176.402L81.5388 11.8527C83.3798 3.53397 89.817 -0.293646 95.8986 3.31708L157.121 39.5902C163.203 43.2009 166.631 52.8721 164.739 61.1908L128.288 225.702C126.447 234.021 120.009 237.848 113.928 234.25Z" fill="#8CA0FF"/>
        <path d="M118.589 235.986C116.877 235.963 115.202 235.479 113.739 234.582L52.5166 198.296C46.308 194.622 42.791 184.746 44.6701 176.275L81.1727 11.7251C82.1884 7.10642 84.6643 3.6488 87.94 2.21982C89.2549 1.66765 90.6834 1.44421 92.1031 1.56865C93.5228 1.6931 94.8913 2.16171 96.0912 2.93431L157.289 39.2585C163.484 42.9457 167.014 52.821 165.135 61.2801L128.658 225.779C127.642 230.397 125.166 233.855 121.891 235.284C120.852 235.749 119.727 235.988 118.589 235.986ZM114.12 233.919C115.221 234.627 116.476 235.058 117.778 235.174C119.081 235.289 120.391 235.086 121.599 234.582C124.646 233.306 126.944 229.989 127.947 225.651L164.437 61.1525C166.252 52.9869 162.888 43.4816 156.946 39.9602L95.7103 3.63604C94.6096 2.92725 93.3545 2.4967 92.0522 2.38117C90.75 2.26564 89.4393 2.46855 88.232 2.97258C85.1848 4.24846 82.8868 7.56573 81.8837 11.9037L45.4193 176.441C43.6037 184.606 46.9682 194.111 52.9102 197.633L114.12 233.919Z" fill="#131C32"/>
        <path d="M96.1523 223.635L114.118 234.263C120.2 237.873 126.624 234.046 128.478 225.714L164.904 61.2156C165.724 57.3131 165.518 53.2632 164.307 49.4648C161.747 49.8232 159.234 50.4694 156.816 51.3914L127.741 62.4405L96.1523 223.635Z" fill="#5C77F2"/>
        <path d="M118.74 235.998C117.031 235.975 115.361 235.49 113.902 234.595L95.9495 223.954C95.8835 223.914 95.8311 223.855 95.7994 223.784C95.7676 223.714 95.758 223.635 95.7717 223.559L127.412 62.3646C127.42 62.3011 127.446 62.2412 127.486 62.1916C127.526 62.142 127.58 62.1047 127.64 62.0839L156.715 51.0348C159.174 50.1016 161.729 49.4469 164.333 49.0827C164.423 49.0722 164.514 49.0931 164.59 49.1419C164.666 49.1907 164.724 49.2644 164.752 49.3507C165.98 53.2113 166.19 57.3262 165.361 61.2929L128.821 225.804C127.792 230.41 125.329 233.88 122.054 235.309C121.008 235.765 119.88 235.999 118.74 235.998ZM96.5716 223.444L114.283 233.931C115.381 234.642 116.633 235.075 117.933 235.193C119.233 235.311 120.543 235.11 121.749 234.608C124.796 233.268 127.107 230.002 128.097 225.677L164.6 61.1653C165.378 57.4362 165.207 53.5702 164.105 49.9248C161.68 50.294 159.301 50.9183 157.007 51.7876L128.084 62.7601L96.5716 223.444Z" fill="#131C32"/>
        <path d="M107.022 236.271L107.022 236.27L45.8115 199.985L45.8111 199.984C42.8991 198.262 40.5829 195.056 39.229 191.223C37.8768 187.395 37.503 182.99 38.4262 178.925L38.4268 178.922L74.8659 14.3854L74.866 14.3852C75.765 10.3167 77.7684 7.41334 80.2184 5.95444C82.6502 4.50647 85.5837 4.44162 88.4827 6.15914L149.693 42.445L149.693 42.4452C152.605 44.1681 154.925 47.3738 156.28 51.2068C157.634 55.0347 158.007 59.4389 157.078 63.504L157.077 63.5073L120.638 228.044C119.733 232.112 117.727 235.016 115.276 236.475C112.844 237.923 109.914 237.988 107.022 236.271Z" fill="#F3F5FF" stroke="black"/>
        <path d="M152.615 84.8962L157.288 63.7804C159.129 55.449 155.701 45.7778 149.67 42.1799L141.988 37.625L152.615 84.8962Z" fill="#8CA0FF"/>
        <path d="M47.1314 136.939L37.9391 178.571C36.0981 186.89 39.5262 196.561 45.557 200.172L63.8274 210.991L47.1314 136.939Z" fill="#8CA0FF"/>
        <path d="M121.126 228.151L144.107 124.55L121.736 25.3252L88.7248 5.76609C82.6431 2.15536 76.2187 5.98298 74.365 14.3144L57.25 91.4538L87.4551 225.242L106.792 236.725C112.848 240.31 119.273 236.483 121.126 228.151Z" fill="#8CA0FF"/>
        <path d="M111.427 238.436C109.715 238.414 108.039 237.929 106.577 237.032L45.3545 200.747C39.1459 197.072 35.6289 187.197 37.508 178.738L73.9979 14.2774C75.0263 9.67151 77.4895 6.20113 80.7652 4.77215C82.0832 4.22421 83.513 4.00307 84.934 4.12743C86.3549 4.25179 87.7252 4.71799 88.9291 5.48664L150.139 41.7725C156.348 45.447 159.865 55.3223 157.998 63.7814L121.496 228.242C120.467 232.848 118.004 236.318 114.728 237.747C113.686 238.201 112.563 238.435 111.427 238.436ZM84.079 4.79767C83.0438 4.79561 82.0194 5.00845 81.0699 5.42284C78.0227 6.69872 75.712 10.0287 74.7216 14.354L38.2444 178.865C36.4415 187.018 39.7934 196.523 45.7354 200.045L106.958 236.331C108.055 237.041 109.308 237.474 110.608 237.592C111.908 237.71 113.218 237.509 114.424 237.007C117.471 235.667 119.782 232.401 120.772 228.076L157.287 63.5645C159.103 55.3989 155.738 45.8936 149.796 42.3722L88.5355 6.09905C87.1947 5.26764 85.6544 4.81783 84.079 4.79767Z" fill="#131C32"/>
        <path d="M107.299 231.368L47.1937 195.745C42.8896 193.194 40.4645 186.355 41.7723 180.435L78.0971 16.8294C79.3668 10.9476 83.9502 8.24279 88.2544 10.7818L148.398 46.3659C152.702 48.9177 155.127 55.7564 153.819 61.6764L117.456 225.32C116.149 231.176 111.578 233.92 107.299 231.368Z" fill="#131C32"/>
        <path d="M110.602 232.706C109.37 232.688 108.165 232.34 107.111 231.699L47.0051 196.076C42.574 193.448 40.0601 186.418 41.406 180.383L77.7308 16.7136C78.4672 13.4091 80.2701 10.9339 82.5809 9.91321C83.5269 9.51592 84.5547 9.35482 85.5762 9.4437C86.5977 9.53258 87.5826 9.86878 88.4467 10.4236L148.552 46.046C152.983 48.5977 155.497 55.7044 154.164 61.7265L117.827 225.408C117.605 226.845 117.05 228.208 116.208 229.389C115.365 230.571 114.258 231.536 112.976 232.209C112.227 232.537 111.419 232.706 110.602 232.706ZM84.9805 10.1684C84.2585 10.1659 83.5444 10.3181 82.8856 10.6149C81.7132 11.238 80.7034 12.1299 79.938 13.2183C79.1726 14.3067 78.673 15.5609 78.4799 16.8795L42.1423 180.549C40.8727 186.277 43.2343 192.95 47.386 195.413L107.504 231.035C108.261 231.533 109.128 231.837 110.029 231.919C110.93 232.001 111.838 231.86 112.672 231.507C113.843 230.882 114.853 229.989 115.62 228.901C116.387 227.814 116.891 226.561 117.09 225.243L153.478 61.5606C154.748 55.8319 152.399 49.1719 148.235 46.6967L88.0658 11.0742C87.1356 10.5026 86.0707 10.1899 84.9805 10.1684Z" fill="#131C32"/>
        <path d="M148.4 46.3012L88.256 10.6787C87.3666 10.1049 86.3405 9.78102 85.2844 9.74063C84.2283 9.70024 83.1807 9.94487 82.2505 10.4491C80.3379 11.9039 79.0449 14.0329 78.632 16.4074L42.3072 180.14C41.0375 186.022 43.4244 192.899 47.7286 195.451L107.834 231.073C108.721 231.653 109.747 231.981 110.804 232.024C111.861 232.067 112.909 231.822 113.84 231.316C115.755 229.864 117.049 227.733 117.458 225.357L153.783 61.6117C155.091 55.6916 152.666 48.8529 148.4 46.3012Z" fill="#F3F5FF"/>
        <path d="M51.3852 139.416L42.3072 180.321C41.0375 186.215 43.4244 193.079 47.7286 195.631L66.5703 206.808L51.3852 139.416Z" fill="#E2E7FF"/>
        <path d="M151.98 71.6145L154.126 61.9689C155.395 56.0743 152.996 49.2101 148.704 46.6584L146 45.0508L151.98 71.6145Z" fill="#E2E7FF"/>
        <path d="M117.573 225.319L143.55 108.283L126.651 33.4148L88.3835 10.6787C87.4942 10.1049 86.4681 9.78102 85.4119 9.74063C84.3558 9.70024 83.3082 9.94487 82.378 10.4491C80.4655 11.9039 79.1725 14.0329 78.7595 16.4074L61.2383 95.3586L89.3611 220.024L107.962 231.048C108.846 231.626 109.87 231.954 110.925 231.997C111.98 232.04 113.026 231.795 113.954 231.29C115.876 229.839 117.171 227.702 117.573 225.319Z" fill="#E2E7FF"/>
        <path d="M111.097 232.451C109.877 232.431 108.685 232.083 107.644 231.443L47.5383 195.821C43.1072 193.193 40.5933 186.163 41.9392 180.128L78.264 16.3818C78.7133 13.9109 80.0735 11.7012 82.073 10.1938C83.058 9.66843 84.1633 9.41303 85.2777 9.45335C86.3922 9.49367 87.4764 9.82827 88.4213 10.4235L148.527 46.0459C152.958 48.6742 155.472 55.7043 154.139 61.7392L117.826 225.472C117.382 227.945 116.021 230.156 114.018 231.66C113.126 232.166 112.121 232.438 111.097 232.451ZM84.9805 10.1683C84.0923 10.1735 83.2194 10.4016 82.4412 10.8318C80.6257 12.2322 79.4018 14.2684 79.0131 16.5349L42.6756 180.281C41.4059 186.009 43.7548 192.682 47.9192 195.145L108.025 230.767C108.857 231.309 109.819 231.617 110.81 231.66C111.802 231.703 112.786 231.478 113.662 231.009C115.47 229.602 116.692 227.569 117.09 225.306L153.478 61.5606C154.748 55.8319 152.399 49.159 148.235 46.6966L88.0658 11.0742C87.1368 10.4996 86.0711 10.1868 84.9805 10.1683Z" fill="#131C32"/>
        <path d="M95.4041 219.029C95.3374 219.047 95.2675 219.047 95.2009 219.029L61.1615 198.845C61.1181 198.82 61.08 198.787 61.0496 198.747C61.0191 198.707 60.9967 198.661 60.9837 198.613C60.9708 198.564 60.9674 198.513 60.974 198.464C60.9805 198.414 60.9967 198.366 61.0218 198.322C61.0745 198.236 61.1577 198.174 61.2544 198.148C61.3511 198.122 61.4541 198.134 61.5423 198.182L95.5945 218.366C95.6796 218.419 95.7414 218.503 95.7674 218.6C95.7933 218.697 95.7814 218.8 95.7341 218.889C95.6948 218.938 95.6441 218.976 95.5866 219.001C95.529 219.025 95.4663 219.035 95.4041 219.029Z" fill="#131C32"/>
        <path d="M161.401 86.5173C161.392 86.2326 161.324 85.9528 161.202 85.6958C161.079 85.4388 160.905 85.2102 160.69 85.0246C160.339 84.7174 159.917 84.5029 159.462 84.4004C159.008 84.298 158.535 84.3108 158.087 84.4377C157.181 84.7387 156.367 85.2707 155.726 85.9818C155.086 86.6929 154.639 87.5588 154.431 88.495L150.558 105.758C150.448 106.188 150.469 106.642 150.618 107.061C150.767 107.479 151.038 107.843 151.396 108.105C151.757 108.32 152.163 108.448 152.581 108.479C153 108.51 153.42 108.443 153.808 108.284H153.897C154.145 108.197 154.386 108.095 154.621 107.978C155.348 107.61 155.984 107.086 156.485 106.442C156.985 105.797 157.338 105.05 157.516 104.252L161.249 87.6656C161.358 87.363 161.414 87.0435 161.414 86.7215C161.424 86.6533 161.42 86.5837 161.401 86.5173Z" fill="#131C32"/>
        <path d="M152.64 108.869C152.113 108.881 151.596 108.72 151.168 108.41C150.749 108.099 150.432 107.669 150.258 107.176C150.084 106.682 150.06 106.148 150.19 105.641L153.999 88.417C154.227 87.4159 154.707 86.4908 155.394 85.7309C156.082 84.971 156.952 84.4021 157.922 84.079C158.433 83.927 158.973 83.9082 159.493 84.0243C160.013 84.1403 160.495 84.3875 160.893 84.7424C161.146 84.9596 161.351 85.2271 161.495 85.528C161.639 85.8289 161.72 86.1566 161.731 86.4904C161.737 86.5412 161.737 86.5926 161.731 86.6435C161.734 87.0148 161.665 87.3831 161.528 87.728L157.833 104.314C157.641 105.156 157.27 105.946 156.747 106.631C156.223 107.316 155.559 107.879 154.799 108.282C154.552 108.418 154.293 108.529 154.024 108.614H153.872C153.477 108.763 153.062 108.849 152.64 108.869ZM158.862 84.7169C158.642 84.7071 158.423 84.7373 158.214 84.8062C157.363 85.0915 156.601 85.5944 156.002 86.2655C155.403 86.9366 154.989 87.7528 154.799 88.6338L150.939 105.833C150.851 106.193 150.87 106.571 150.994 106.921C151.118 107.27 151.342 107.575 151.637 107.797C151.951 107.973 152.301 108.074 152.659 108.094C153.018 108.114 153.376 108.052 153.707 107.912H153.796C154.004 107.84 154.208 107.755 154.405 107.657C155.084 107.313 155.678 106.822 156.146 106.22C156.613 105.618 156.942 104.919 157.11 104.174L160.83 87.5876C160.938 87.3156 160.994 87.0256 160.995 86.7328C160.995 86.7328 160.995 86.6435 160.995 86.6307C160.993 86.3886 160.94 86.1497 160.839 85.9297C160.739 85.7098 160.592 85.5138 160.411 85.3549C159.99 84.9583 159.439 84.7312 158.862 84.7169Z" fill="#131C32"/>
        <path d="M160.309 84.7425C159.965 84.4459 159.553 84.2385 159.11 84.1385C158.668 84.0384 158.208 84.0487 157.77 84.1684C156.875 84.4646 156.072 84.9897 155.439 85.6921C154.807 86.3945 154.368 87.25 154.164 88.1747L150.355 105.208C150.245 105.633 150.265 106.082 150.412 106.496C150.56 106.91 150.827 107.27 151.18 107.53C152.45 108.448 154.367 107.377 154.367 107.377L153.897 105.68C154.784 104.912 155.403 103.879 155.662 102.732L158.963 87.996L160.906 87.2688C161.07 86.8361 161.101 86.3639 160.994 85.9134C160.888 85.4629 160.649 85.055 160.309 84.7425Z" fill="#F3F5FF"/>
        <path d="M160.309 84.7425C159.965 84.4459 159.553 84.2385 159.11 84.1385C158.668 84.0384 158.208 84.0487 157.77 84.1684C156.875 84.4646 156.072 84.9897 155.439 85.6921C154.807 86.3945 154.368 87.25 154.164 88.1747L150.355 105.208C150.245 105.633 150.265 106.082 150.412 106.496C150.56 106.91 150.827 107.27 151.18 107.53C152.45 108.448 154.367 107.377 154.367 107.377L153.897 105.68C154.784 104.912 155.403 103.879 155.662 102.732L158.963 87.996L160.906 87.2688C161.07 86.8361 161.101 86.3639 160.994 85.9134C160.888 85.4629 160.649 85.055 160.309 84.7425Z" fill="#6B85FF"/>
        <path d="M152.361 108.283C151.839 108.297 151.326 108.141 150.901 107.837C150.481 107.533 150.163 107.107 149.991 106.617C149.818 106.127 149.799 105.595 149.936 105.094L153.745 88.0864C153.971 87.0984 154.446 86.1854 155.124 85.4347C155.802 84.6841 156.66 84.121 157.617 83.7994C158.124 83.6509 158.66 83.6338 159.175 83.7498C159.69 83.8658 160.167 84.1112 160.563 84.4629C160.958 84.8313 161.23 85.3129 161.344 85.8424C161.458 86.3719 161.406 86.9237 161.197 87.4229C161.179 87.471 161.15 87.5143 161.113 87.5496C161.075 87.585 161.03 87.6114 160.982 87.6271L159.229 88.2778L156.017 102.823C155.757 103.965 155.165 105.004 154.316 105.808L154.722 107.276C154.744 107.359 154.736 107.447 154.702 107.526C154.667 107.604 154.607 107.669 154.532 107.709C153.863 108.069 153.119 108.266 152.361 108.283ZM158.557 84.4501C158.338 84.4517 158.12 84.4818 157.909 84.5394C157.065 84.8091 156.305 85.296 155.706 85.9518C155.107 86.6075 154.689 87.4094 154.494 88.2778L150.685 105.311C150.596 105.664 150.614 106.036 150.736 106.379C150.858 106.722 151.079 107.021 151.37 107.237C151.762 107.444 152.198 107.552 152.64 107.552C153.082 107.552 153.518 107.444 153.91 107.237L153.529 105.847C153.512 105.776 153.514 105.703 153.534 105.634C153.554 105.565 153.592 105.502 153.643 105.451C154.471 104.745 155.047 103.786 155.281 102.721L158.582 87.9715C158.6 87.9101 158.631 87.8533 158.672 87.8048C158.714 87.7564 158.765 87.7175 158.823 87.6908L160.601 87.0402C160.713 86.7013 160.726 86.3371 160.638 85.991C160.551 85.6449 160.366 85.3315 160.106 85.0881C159.687 84.6883 159.134 84.4608 158.557 84.4501Z" fill="#131C32"/>
        <path d="M159.307 85.1142C159.528 85.0256 159.769 85.0012 160.003 85.0439C160.238 85.0866 160.455 85.1946 160.631 85.3556C160.807 85.5165 160.935 85.724 160.999 85.9543C161.064 86.1846 161.062 86.4284 160.995 86.658L157.186 103.691C156.978 104.615 156.535 105.47 155.901 106.172C155.267 106.874 154.463 107.399 153.568 107.697C153.348 107.784 153.108 107.808 152.876 107.766C152.643 107.723 152.427 107.617 152.251 107.458C152.076 107.298 151.948 107.093 151.882 106.865C151.816 106.637 151.815 106.395 151.879 106.166L155.688 89.1204C155.896 88.1958 156.339 87.3411 156.973 86.6391C157.607 85.9372 158.411 85.4119 159.307 85.1142Z" fill="#5C77F2"/>
        <path d="M159.307 85.1142C159.528 85.0256 159.769 85.0012 160.003 85.0439C160.238 85.0866 160.455 85.1946 160.631 85.3556C160.807 85.5165 160.935 85.724 160.999 85.9543C161.064 86.1846 161.062 86.4284 160.995 86.658L157.186 103.691C156.978 104.615 156.535 105.47 155.901 106.172C155.267 106.874 154.463 107.399 153.568 107.697C153.348 107.784 153.108 107.808 152.876 107.766C152.643 107.723 152.427 107.617 152.251 107.458C152.076 107.298 151.948 107.093 151.882 106.865C151.816 106.637 151.815 106.395 151.879 106.166L155.688 89.1204C155.896 88.1958 156.339 87.3411 156.973 86.6391C157.607 85.9372 158.411 85.4119 159.307 85.1142Z" fill="#4A65DF"/>
        <path d="M153.136 108.143C152.883 108.142 152.635 108.083 152.408 107.973C152.181 107.862 151.982 107.702 151.825 107.503C151.668 107.305 151.557 107.074 151.5 106.827C151.444 106.58 151.443 106.324 151.498 106.076L155.307 89.0433C155.524 88.061 155.988 87.1511 156.655 86.4006C157.321 85.65 158.169 85.0839 159.116 84.7564C159.399 84.6568 159.705 84.6356 159.999 84.6952C160.294 84.7548 160.567 84.893 160.79 85.0952C161.014 85.2974 161.179 85.5562 161.268 85.8445C161.358 86.1328 161.369 86.4401 161.299 86.734L157.49 103.767C157.273 104.749 156.809 105.659 156.142 106.41C155.476 107.16 154.628 107.726 153.681 108.054C153.506 108.115 153.321 108.145 153.136 108.143ZM159.725 85.4326C159.624 85.4142 159.521 85.4142 159.42 85.4326C158.587 85.7086 157.839 86.1969 157.249 86.8498C156.66 87.5027 156.249 88.298 156.056 89.1582L152.247 106.191C152.212 106.351 152.22 106.518 152.269 106.674C152.319 106.831 152.409 106.971 152.53 107.081C152.652 107.191 152.8 107.267 152.959 107.301C153.119 107.335 153.285 107.327 153.44 107.276C154.274 107 155.021 106.511 155.611 105.858C156.201 105.205 156.612 104.41 156.805 103.55L160.614 86.5171C160.653 86.3568 160.647 86.1889 160.598 86.0315C160.549 85.8741 160.458 85.7332 160.334 85.624C160.159 85.4916 159.944 85.424 159.725 85.4326Z" fill="#131C32"/>
        <path d="M155.331 113.578C155.319 113.294 155.25 113.015 155.128 112.759C155.005 112.502 154.833 112.273 154.62 112.085C154.268 111.775 153.844 111.559 153.387 111.456C152.93 111.354 152.454 111.368 152.004 111.498C151.099 111.802 150.287 112.334 149.647 113.045C149.006 113.756 148.559 114.621 148.348 115.556L144.539 132.806C144.429 133.235 144.449 133.688 144.596 134.106C144.743 134.524 145.01 134.888 145.364 135.153C145.724 135.371 146.13 135.501 146.549 135.532C146.968 135.563 147.389 135.494 147.776 135.332C148.022 135.251 148.26 135.148 148.487 135.026C149.216 134.656 149.854 134.129 150.357 133.483C150.859 132.837 151.214 132.087 151.395 131.287L155.115 114.701C155.225 114.403 155.281 114.087 155.28 113.77L155.331 113.578Z" fill="#131C32"/>
        <path d="M146.571 135.92C146.039 135.935 145.517 135.773 145.085 135.461C144.663 135.156 144.344 134.728 144.171 134.235C143.999 133.742 143.981 133.208 144.12 132.705L147.929 115.468C148.156 114.468 148.634 113.544 149.319 112.784C150.004 112.024 150.872 111.455 151.84 111.13C152.352 110.978 152.895 110.959 153.417 111.075C153.938 111.191 154.422 111.438 154.823 111.793C155.076 112.016 155.281 112.288 155.425 112.593C155.569 112.898 155.649 113.229 155.661 113.567V113.694C155.656 114.068 155.592 114.438 155.471 114.791L151.763 131.378C151.577 132.22 151.209 133.012 150.685 133.695C150.16 134.379 149.493 134.938 148.729 135.333C148.474 135.461 148.211 135.572 147.942 135.665H147.789C147.399 135.814 146.988 135.9 146.571 135.92ZM152.792 111.768C152.569 111.769 152.347 111.799 152.132 111.857C151.281 112.143 150.52 112.647 149.921 113.317C149.322 113.988 148.907 114.804 148.716 115.685L144.907 132.947C144.811 133.304 144.826 133.682 144.948 134.03C145.07 134.379 145.295 134.682 145.593 134.899C145.906 135.076 146.255 135.18 146.613 135.202C146.972 135.224 147.33 135.164 147.662 135.027H147.764C147.968 134.955 148.168 134.87 148.361 134.772H148.424C149.102 134.432 149.696 133.943 150.161 133.343C150.627 132.742 150.953 132.045 151.116 131.301L154.849 114.715C154.941 114.439 154.993 114.151 155.001 113.86V113.745C155.001 113.503 154.948 113.263 154.848 113.043C154.747 112.823 154.6 112.627 154.417 112.469C153.987 112.032 153.404 111.78 152.792 111.768Z" fill="#131C32"/>
        <path d="M154.227 111.792C153.884 111.494 153.473 111.285 153.03 111.185C152.587 111.085 152.126 111.096 151.688 111.218C150.793 111.516 149.989 112.041 149.355 112.743C148.721 113.445 148.278 114.3 148.07 115.224L144.261 132.27C144.155 132.694 144.178 133.139 144.325 133.55C144.471 133.962 144.736 134.32 145.086 134.579C146.356 135.511 148.273 134.439 148.273 134.439L147.803 132.742C148.687 131.972 149.305 130.94 149.568 129.795L152.869 115.046L154.812 114.331C154.982 113.898 155.017 113.424 154.913 112.97C154.808 112.517 154.569 112.106 154.227 111.792Z" fill="#F3F5FF"/>
        <path d="M154.227 111.792C153.884 111.494 153.473 111.285 153.03 111.185C152.587 111.085 152.126 111.096 151.688 111.218C150.793 111.516 149.989 112.041 149.355 112.743C148.721 113.445 148.278 114.3 148.07 115.224L144.261 132.27C144.155 132.694 144.178 133.139 144.325 133.55C144.471 133.962 144.736 134.32 145.086 134.579C146.356 135.511 148.273 134.439 148.273 134.439L147.803 132.742C148.687 131.972 149.305 130.94 149.568 129.795L152.869 115.046L154.812 114.331C154.982 113.898 155.017 113.424 154.913 112.97C154.808 112.517 154.569 112.106 154.227 111.792Z" fill="#6B85FF"/>
        <path d="M146.279 135.344C145.755 135.36 145.24 135.198 144.819 134.885C144.404 134.58 144.09 134.156 143.92 133.669C143.75 133.181 143.731 132.653 143.866 132.155L147.675 115.147C147.892 114.165 148.356 113.255 149.023 112.504C149.69 111.754 150.538 111.188 151.484 110.86C151.99 110.708 152.526 110.687 153.041 110.801C153.557 110.915 154.035 111.159 154.43 111.511C154.826 111.879 155.1 112.36 155.216 112.889C155.331 113.418 155.283 113.97 155.077 114.471C155.032 114.57 154.95 114.648 154.849 114.688L153.109 115.339L149.847 129.871C149.597 131.021 149.003 132.067 148.145 132.869L148.551 134.336C148.575 134.42 148.569 134.509 148.534 134.588C148.5 134.667 148.438 134.732 148.361 134.77C147.716 135.109 147.006 135.305 146.279 135.344ZM152.424 111.498C152.205 111.498 151.987 111.528 151.776 111.588C150.943 111.864 150.195 112.352 149.606 113.005C149.016 113.658 148.605 114.453 148.412 115.313L144.603 132.346C144.506 132.698 144.518 133.071 144.638 133.415C144.759 133.76 144.981 134.059 145.276 134.273C145.667 134.479 146.103 134.587 146.545 134.587C146.988 134.587 147.423 134.479 147.815 134.273L147.434 132.895C147.417 132.823 147.419 132.749 147.442 132.679C147.464 132.609 147.506 132.547 147.561 132.499C148.386 131.785 148.96 130.823 149.199 129.756L152.5 115.02C152.513 114.956 152.542 114.897 152.585 114.848C152.627 114.799 152.681 114.761 152.741 114.739L154.506 114.075C154.624 113.739 154.64 113.375 154.552 113.03C154.464 112.685 154.275 112.374 154.011 112.136C153.584 111.725 153.015 111.497 152.424 111.498Z" fill="#131C32"/>
        <path d="M153.224 112.175C153.443 112.088 153.683 112.064 153.916 112.106C154.148 112.149 154.365 112.255 154.54 112.415C154.716 112.574 154.844 112.779 154.909 113.007C154.975 113.235 154.976 113.477 154.912 113.706L151.103 130.739C150.9 131.664 150.46 132.519 149.828 133.222C149.196 133.924 148.393 134.449 147.497 134.745C147.278 134.832 147.038 134.856 146.805 134.814C146.573 134.772 146.356 134.665 146.181 134.506C146.005 134.347 145.878 134.141 145.812 133.913C145.746 133.685 145.745 133.443 145.809 133.214L149.618 116.181C149.827 115.259 150.269 114.407 150.9 113.705C151.532 113.004 152.332 112.477 153.224 112.175Z" fill="#5C77F2"/>
        <path d="M153.109 112.175C153.329 112.088 153.568 112.064 153.801 112.106C154.034 112.149 154.25 112.255 154.425 112.415C154.601 112.574 154.729 112.779 154.794 113.007C154.86 113.235 154.861 113.477 154.797 113.706L150.988 130.739C150.784 131.665 150.342 132.522 149.708 133.224C149.073 133.927 148.267 134.451 147.37 134.745C147.151 134.829 146.913 134.85 146.682 134.807C146.452 134.763 146.238 134.656 146.064 134.497C145.89 134.338 145.764 134.135 145.699 133.908C145.633 133.682 145.632 133.441 145.694 133.214L149.503 116.181C149.71 115.258 150.151 114.404 150.783 113.703C151.414 113.001 152.216 112.475 153.109 112.175Z" fill="#4A65DF"/>
        <path d="M146.94 135.204C146.525 135.203 146.126 135.044 145.823 134.758C145.6 134.556 145.434 134.299 145.342 134.012C145.251 133.725 145.237 133.419 145.302 133.125L149.111 116.104C149.336 115.114 149.81 114.198 150.488 113.445C151.166 112.692 152.025 112.127 152.984 111.805C153.268 111.711 153.571 111.695 153.863 111.759C154.156 111.822 154.426 111.962 154.647 112.164C154.867 112.366 155.031 112.624 155.12 112.911C155.209 113.197 155.221 113.502 155.155 113.795L151.346 130.828C151.12 131.816 150.645 132.729 149.967 133.48C149.289 134.23 148.43 134.793 147.473 135.115C147.302 135.175 147.122 135.205 146.94 135.204ZM153.479 112.519C153.382 112.506 153.284 112.506 153.187 112.519C152.354 112.798 151.608 113.289 151.021 113.944C150.433 114.6 150.025 115.396 149.835 116.258L146.026 133.29C145.987 133.451 145.993 133.619 146.042 133.776C146.091 133.933 146.182 134.074 146.305 134.184C146.427 134.294 146.576 134.37 146.737 134.403C146.897 134.437 147.064 134.427 147.22 134.375C148.053 134.099 148.801 133.611 149.39 132.958C149.98 132.305 150.391 131.51 150.584 130.649L154.393 113.616C154.426 113.453 154.416 113.284 154.365 113.125C154.314 112.966 154.223 112.824 154.101 112.711C153.925 112.57 153.703 112.502 153.479 112.519Z" fill="#131C32"/>
        <path d="M145.606 138.495C145.826 138.408 146.065 138.384 146.298 138.427C146.531 138.469 146.747 138.576 146.922 138.735C147.098 138.894 147.226 139.099 147.291 139.327C147.357 139.556 147.358 139.798 147.294 140.026L145.403 148.307C145.194 149.231 144.751 150.086 144.117 150.788C143.483 151.49 142.68 152.015 141.784 152.313C141.565 152.397 141.327 152.418 141.096 152.374C140.866 152.331 140.652 152.223 140.478 152.065C140.304 151.906 140.178 151.702 140.113 151.476C140.047 151.249 140.046 151.009 140.108 150.782L142.051 142.502C142.25 141.583 142.682 140.731 143.304 140.029C143.927 139.327 144.72 138.799 145.606 138.495Z" fill="#5C77F2"/>
        <path d="M145.606 138.495C145.826 138.408 146.065 138.384 146.298 138.427C146.531 138.469 146.747 138.576 146.922 138.735C147.098 138.894 147.226 139.099 147.291 139.327C147.357 139.556 147.358 139.798 147.294 140.026L145.403 148.307C145.194 149.231 144.751 150.086 144.117 150.788C143.483 151.49 142.68 152.015 141.784 152.313C141.565 152.397 141.327 152.418 141.096 152.374C140.866 152.331 140.652 152.223 140.478 152.065C140.304 151.906 140.178 151.702 140.113 151.476C140.047 151.249 140.046 151.009 140.108 150.782L142.051 142.502C142.25 141.583 142.682 140.731 143.304 140.029C143.927 139.327 144.72 138.799 145.606 138.495Z" fill="#4A65DF"/>
        <path d="M141.366 152.761C141.114 152.76 140.865 152.702 140.638 152.591C140.412 152.48 140.212 152.32 140.055 152.122C139.898 151.923 139.787 151.692 139.731 151.445C139.674 151.198 139.673 150.942 139.728 150.695L141.62 142.414C141.839 141.433 142.304 140.524 142.971 139.774C143.637 139.024 144.483 138.457 145.429 138.127C145.712 138.031 146.017 138.013 146.309 138.076C146.602 138.139 146.873 138.28 147.092 138.484C147.315 138.683 147.481 138.938 147.57 139.224C147.66 139.509 147.67 139.814 147.6 140.105L145.708 148.385C145.489 149.368 145.024 150.278 144.357 151.03C143.691 151.783 142.845 152.352 141.899 152.685C141.726 152.734 141.546 152.76 141.366 152.761ZM146.026 138.803C145.929 138.785 145.83 138.785 145.734 138.803C144.9 139.079 144.152 139.568 143.563 140.221C142.973 140.873 142.562 141.669 142.369 142.529L140.477 150.809C140.442 150.97 140.45 151.136 140.5 151.293C140.55 151.449 140.64 151.589 140.761 151.699C140.882 151.809 141.03 151.885 141.19 151.92C141.35 151.954 141.515 151.945 141.671 151.894C142.504 151.618 143.252 151.13 143.842 150.477C144.431 149.824 144.843 149.028 145.035 148.168L146.927 139.888C146.963 139.727 146.956 139.56 146.907 139.403C146.858 139.247 146.769 139.106 146.648 138.995C146.469 138.86 146.249 138.792 146.026 138.803Z" fill="#131C32"/>
        <path d="M145.696 138.418H145.608C144.712 138.716 143.908 139.241 143.274 139.943C142.64 140.645 142.197 141.5 141.989 142.424L140.097 150.794C140.039 151.078 140.075 151.374 140.199 151.636H140.3C141.195 151.335 141.998 150.807 142.629 150.103C143.261 149.399 143.701 148.542 143.906 147.617L145.862 139.311C145.894 139.159 145.896 139.001 145.867 138.848C145.839 138.695 145.781 138.549 145.696 138.418Z" fill="#5C77F2"/>
        <path d="M145.696 138.418H145.608C144.712 138.716 143.908 139.241 143.274 139.943C142.64 140.645 142.197 141.5 141.989 142.424L140.097 150.794C140.039 151.078 140.075 151.374 140.199 151.636H140.3C141.195 151.335 141.998 150.807 142.629 150.103C143.261 149.399 143.701 148.542 143.906 147.617L145.862 139.311C145.894 139.159 145.896 139.001 145.867 138.848C145.839 138.695 145.781 138.549 145.696 138.418Z" fill="#4A65DF"/>
        <path d="M140.197 151.956C140.126 151.955 140.056 151.934 139.996 151.896C139.935 151.857 139.887 151.804 139.854 151.74C139.693 151.398 139.649 151.012 139.727 150.642L141.619 142.362C141.836 141.38 142.3 140.47 142.967 139.719C143.634 138.968 144.481 138.402 145.428 138.075H145.542C145.626 138.063 145.712 138.075 145.789 138.112C145.866 138.148 145.93 138.206 145.974 138.279C146.145 138.618 146.195 139.005 146.114 139.376L144.222 147.657C143.997 148.645 143.522 149.559 142.844 150.31C142.166 151.06 141.307 151.623 140.349 151.944H140.235L140.197 151.956ZM145.453 138.904C144.684 139.21 144.001 139.7 143.464 140.332C142.926 140.963 142.55 141.717 142.368 142.528L140.476 150.795C140.464 150.884 140.464 150.974 140.476 151.063C141.244 150.759 141.926 150.271 142.464 149.641C143.001 149.012 143.378 148.261 143.562 147.453L145.453 139.172C145.464 139.083 145.464 138.993 145.453 138.904Z" fill="#131C32"/>
        <path d="M149.556 141.163C149.556 141.163 149.556 141.074 149.556 141.035C149.547 140.751 149.479 140.471 149.357 140.214C149.234 139.957 149.06 139.728 148.845 139.543C148.502 139.243 148.091 139.033 147.648 138.93C147.205 138.828 146.744 138.837 146.306 138.956C145.399 139.257 144.586 139.789 143.945 140.5C143.304 141.211 142.858 142.077 142.649 143.013L142.332 144.659C142.221 145.09 142.242 145.544 142.391 145.962C142.541 146.381 142.812 146.745 143.17 147.007C143.531 147.221 143.936 147.349 144.355 147.38C144.773 147.411 145.193 147.345 145.582 147.185H145.671C145.918 147.099 146.16 146.996 146.394 146.879C147.122 146.513 147.76 145.989 148.26 145.345C148.761 144.7 149.113 143.952 149.289 143.153L149.518 141.992C149.572 141.719 149.585 141.44 149.556 141.163Z" fill="#131C32"/>
        <path d="M144.336 147.772C143.809 147.784 143.292 147.623 142.863 147.313C142.439 147.007 142.118 146.577 141.945 146.082C141.773 145.586 141.756 145.05 141.898 144.544L142.19 142.95C142.418 141.945 142.898 141.017 143.585 140.253C144.272 139.488 145.143 138.915 146.114 138.586C146.625 138.441 147.164 138.426 147.682 138.542C148.201 138.657 148.683 138.901 149.085 139.249C149.337 139.472 149.542 139.744 149.686 140.049C149.83 140.354 149.911 140.686 149.923 141.023V141.151C149.922 141.458 149.875 141.763 149.783 142.056L149.58 143.166C149.392 144.013 149.022 144.808 148.495 145.496C147.969 146.184 147.299 146.747 146.533 147.147C146.28 147.279 146.016 147.389 145.746 147.479H145.593C145.193 147.644 144.768 147.744 144.336 147.772ZM147.002 139.224C146.783 139.222 146.565 139.252 146.355 139.313C145.506 139.602 144.745 140.106 144.147 140.776C143.549 141.447 143.133 142.261 142.94 143.141L142.635 144.761C142.537 145.122 142.55 145.504 142.672 145.857C142.795 146.21 143.021 146.517 143.321 146.739C143.634 146.914 143.984 147.015 144.342 147.035C144.701 147.055 145.059 146.993 145.39 146.854C145.631 146.783 145.865 146.689 146.088 146.573H146.152C146.831 146.232 147.426 145.741 147.891 145.139C148.357 144.536 148.683 143.836 148.844 143.09L149.059 141.942C149.136 141.711 149.174 141.47 149.174 141.227V141.138C149.172 140.896 149.119 140.657 149.018 140.437C148.917 140.217 148.771 140.021 148.59 139.862C148.162 139.452 147.593 139.224 147.002 139.224Z" fill="#131C32"/>
        <path d="M148.235 139.108C147.892 138.808 147.481 138.597 147.038 138.494C146.595 138.392 146.134 138.401 145.695 138.522C144.8 138.822 143.998 139.35 143.366 140.055C142.735 140.759 142.295 141.615 142.089 142.541L141.785 144.148C141.674 144.572 141.692 145.021 141.837 145.434C141.981 145.848 142.246 146.209 142.597 146.47C143.867 147.402 145.797 146.33 145.797 146.33L145.327 144.633C146.208 143.862 146.821 142.83 147.079 141.686L146.876 142.349L148.819 141.635C148.984 141.203 149.017 140.732 148.913 140.281C148.809 139.831 148.572 139.422 148.235 139.108Z" fill="white"/>
        <path d="M148.235 139.12C147.892 138.819 147.481 138.608 147.038 138.506C146.595 138.404 146.134 138.413 145.695 138.533C144.8 138.834 143.998 139.362 143.366 140.066C142.735 140.77 142.295 141.627 142.089 142.552L141.785 144.16C141.674 144.584 141.692 145.032 141.837 145.446C141.981 145.86 142.246 146.221 142.597 146.482C143.867 147.413 145.797 146.329 145.797 146.329L145.327 144.645C146.208 143.874 146.821 142.842 147.079 141.697L146.876 142.361L148.819 141.646C148.984 141.215 149.017 140.744 148.913 140.293C148.809 139.843 148.572 139.434 148.235 139.12Z" fill="#5C77F2"/>
        <path d="M143.803 147.234C143.279 147.251 142.764 147.09 142.343 146.775C141.926 146.472 141.61 146.049 141.437 145.561C141.265 145.073 141.244 144.545 141.378 144.045L141.67 142.463C141.894 141.472 142.368 140.557 143.046 139.804C143.725 139.051 144.584 138.486 145.542 138.163C146.048 138.01 146.584 137.99 147.099 138.104C147.615 138.218 148.093 138.462 148.488 138.814C148.884 139.184 149.158 139.668 149.271 140.2C149.385 140.731 149.333 141.285 149.123 141.787C149.102 141.833 149.073 141.875 149.036 141.911C148.998 141.946 148.955 141.973 148.907 141.991L147.142 142.641C146.826 143.442 146.34 144.164 145.72 144.759L146.114 146.227C146.136 146.308 146.131 146.395 146.099 146.474C146.067 146.553 146.009 146.618 145.936 146.66C145.276 147.007 144.547 147.203 143.803 147.234ZM146.431 138.801C146.212 138.796 145.993 138.826 145.784 138.89C144.95 139.166 144.202 139.655 143.613 140.307C143.023 140.96 142.612 141.756 142.419 142.616L142.114 144.223C142.02 144.577 142.034 144.951 142.154 145.297C142.274 145.643 142.494 145.945 142.787 146.163C143.179 146.371 143.614 146.479 144.057 146.479C144.5 146.479 144.935 146.371 145.327 146.163L144.946 144.785C144.925 144.715 144.925 144.64 144.945 144.57C144.966 144.5 145.005 144.437 145.06 144.389C145.688 143.837 146.176 143.141 146.482 142.361C146.482 142.361 146.482 142.361 146.482 142.284L146.698 141.621C146.709 141.573 146.731 141.528 146.761 141.488C146.79 141.449 146.828 141.416 146.871 141.392C146.914 141.368 146.961 141.354 147.01 141.349C147.059 141.344 147.108 141.35 147.155 141.365C147.243 141.387 147.321 141.44 147.373 141.516C147.424 141.591 147.446 141.683 147.434 141.774L148.488 141.391C148.6 141.052 148.614 140.688 148.526 140.342C148.438 139.996 148.253 139.682 147.993 139.439C147.571 139.036 147.013 138.808 146.431 138.801Z" fill="#131C32"/>
        <path d="M147.232 139.48C147.452 139.392 147.692 139.369 147.924 139.411C148.157 139.453 148.373 139.56 148.549 139.719C148.724 139.878 148.852 140.084 148.918 140.312C148.983 140.54 148.984 140.782 148.921 141.011L148.616 142.631C148.41 143.557 147.968 144.413 147.334 145.115C146.699 145.817 145.894 146.342 144.997 146.637C144.778 146.725 144.538 146.748 144.305 146.706C144.073 146.664 143.856 146.557 143.681 146.398C143.505 146.239 143.378 146.034 143.312 145.805C143.246 145.577 143.245 145.335 143.309 145.106L143.614 143.486C143.822 142.561 144.265 141.707 144.899 141.005C145.533 140.303 146.336 139.777 147.232 139.48Z" fill="white"/>
        <path d="M147.232 139.669C147.452 139.582 147.692 139.558 147.924 139.6C148.157 139.643 148.373 139.75 148.549 139.909C148.724 140.068 148.852 140.273 148.918 140.501C148.983 140.729 148.984 140.971 148.921 141.2L148.616 142.821C148.41 143.746 147.968 144.602 147.334 145.304C146.699 146.007 145.894 146.531 144.997 146.827C144.778 146.914 144.538 146.938 144.305 146.895C144.073 146.853 143.856 146.746 143.681 146.587C143.505 146.428 143.378 146.223 143.312 145.995C143.246 145.767 143.245 145.525 143.309 145.296L143.614 143.675C143.822 142.751 144.265 141.896 144.899 141.194C145.533 140.492 146.336 139.967 147.232 139.669Z" fill="#4A65DF"/>
        <path d="M144.59 147.146C144.171 147.144 143.768 146.985 143.46 146.699C143.237 146.501 143.071 146.245 142.982 145.96C142.892 145.674 142.882 145.37 142.952 145.079L143.257 143.471C143.472 142.487 143.935 141.574 144.602 140.821C145.269 140.068 146.117 139.5 147.066 139.172C147.349 139.075 147.652 139.056 147.945 139.117C148.238 139.178 148.509 139.317 148.73 139.518C148.952 139.72 149.116 139.978 149.205 140.264C149.294 140.551 149.305 140.857 149.237 141.149L148.932 142.757C148.717 143.741 148.254 144.654 147.587 145.407C146.92 146.16 146.072 146.728 145.123 147.056C144.952 147.117 144.772 147.147 144.59 147.146ZM147.358 139.899C146.524 140.175 145.777 140.663 145.187 141.316C144.597 141.969 144.186 142.764 143.993 143.624L143.701 145.232C143.661 145.394 143.666 145.564 143.716 145.724C143.765 145.884 143.856 146.027 143.98 146.138C144.1 146.252 144.249 146.33 144.411 146.364C144.572 146.398 144.74 146.386 144.895 146.329C145.726 146.051 146.471 145.562 147.058 144.909C147.646 144.257 148.055 143.462 148.247 142.604L148.551 140.996C148.591 140.834 148.586 140.664 148.537 140.504C148.488 140.344 148.396 140.201 148.272 140.09C148.152 139.976 148.003 139.898 147.842 139.864C147.68 139.83 147.513 139.842 147.358 139.899Z" fill="#131C32"/>
        <path d="M136.033 182.206C136.253 182.119 136.493 182.095 136.726 182.138C136.958 182.18 137.174 182.287 137.35 182.446C137.525 182.605 137.653 182.81 137.719 183.038C137.785 183.266 137.786 183.509 137.722 183.737L132.783 205.797C132.579 206.722 132.14 207.577 131.508 208.28C130.875 208.982 130.072 209.507 129.177 209.803C128.957 209.891 128.718 209.914 128.485 209.872C128.252 209.83 128.036 209.723 127.861 209.564C127.685 209.405 127.557 209.2 127.491 208.971C127.426 208.743 127.425 208.501 127.488 208.272L132.415 186.213C132.628 185.29 133.072 184.438 133.705 183.736C134.339 183.035 135.14 182.508 136.033 182.206Z" fill="#5C77F2"/>
        <path d="M136.033 182.206C136.253 182.119 136.493 182.095 136.726 182.138C136.958 182.18 137.174 182.287 137.35 182.446C137.525 182.605 137.653 182.81 137.719 183.038C137.785 183.266 137.786 183.509 137.722 183.737L132.783 205.797C132.579 206.722 132.14 207.577 131.508 208.28C130.875 208.982 130.072 209.507 129.177 209.803C128.957 209.891 128.718 209.914 128.485 209.872C128.252 209.83 128.036 209.723 127.861 209.564C127.685 209.405 127.557 209.2 127.491 208.971C127.426 208.743 127.425 208.501 127.488 208.272L132.415 186.213C132.628 185.29 133.072 184.438 133.705 183.736C134.339 183.035 135.14 182.508 136.033 182.206Z" fill="#4A65DF"/>
        <path d="M128.757 210.265C128.504 210.263 128.256 210.205 128.029 210.094C127.802 209.984 127.603 209.823 127.446 209.625C127.289 209.427 127.178 209.196 127.121 208.949C127.065 208.702 127.064 208.445 127.119 208.198L132.045 186.138C132.27 185.15 132.745 184.236 133.423 183.485C134.101 182.734 134.96 182.172 135.917 181.851C136.201 181.755 136.504 181.736 136.797 181.797C137.09 181.858 137.361 181.996 137.582 182.198C137.804 182.4 137.967 182.657 138.056 182.944C138.145 183.231 138.157 183.536 138.089 183.829L133.162 205.889C132.936 206.877 132.461 207.79 131.783 208.54C131.105 209.291 130.247 209.854 129.29 210.176C129.117 210.23 128.938 210.26 128.757 210.265ZM136.159 182.578C135.325 182.854 134.577 183.343 133.988 183.996C133.398 184.649 132.987 185.444 132.794 186.304L127.855 208.364C127.819 208.524 127.826 208.691 127.875 208.848C127.924 209.005 128.014 209.146 128.135 209.257C128.255 209.37 128.404 209.447 128.565 209.481C128.726 209.515 128.893 209.503 129.049 209.448C129.882 209.172 130.63 208.684 131.22 208.031C131.809 207.378 132.22 206.583 132.413 205.723L137.352 183.663C137.388 183.503 137.381 183.335 137.332 183.179C137.283 183.022 137.194 182.881 137.073 182.77C136.952 182.657 136.804 182.58 136.642 182.546C136.481 182.512 136.314 182.523 136.159 182.578Z" fill="#131C32"/>
        <path d="M88.2317 26.4245C88.1416 26.4174 88.057 26.3784 87.9929 26.3144C87.9288 26.2504 87.8894 26.1656 87.8817 26.0752C87.8741 25.9847 87.8987 25.8945 87.9512 25.8206C88.0037 25.7466 88.0806 25.6939 88.1682 25.6717C88.7285 25.5233 89.2326 25.2115 89.6167 24.7755C90.0009 24.3395 90.2479 23.7989 90.3266 23.222C90.5655 22.0167 90.4433 20.7673 89.9755 19.6317C89.5076 18.4962 88.7152 17.5256 87.6984 16.8426C87.3287 16.5943 86.9049 16.4392 86.4629 16.3903C86.0209 16.3414 85.5737 16.4003 85.1591 16.5619C84.7195 16.7801 84.3387 17.1016 84.0492 17.4992C83.7596 17.8968 83.5698 18.3587 83.4959 18.8458C83.2004 20.384 83.4903 21.9777 84.3084 23.3113C84.3557 23.4 84.3676 23.5035 84.3417 23.6007C84.3157 23.6979 84.2539 23.7815 84.1688 23.8344C84.0828 23.8863 83.9799 23.9021 83.8824 23.8782C83.7849 23.8543 83.7008 23.7927 83.6482 23.7068C82.7393 22.2009 82.4181 20.4099 82.7468 18.6799C82.8474 18.0745 83.0914 17.5023 83.4582 17.0116C83.825 16.5209 84.3039 16.126 84.8544 15.8602C85.3832 15.6431 85.9566 15.5587 86.5251 15.6143C87.0937 15.6698 87.6402 15.8637 88.1174 16.1792C89.2575 16.9507 90.1477 18.041 90.678 19.3153C91.2082 20.5896 91.3553 21.9922 91.1011 23.3496C90.991 24.0744 90.6692 24.7499 90.1764 25.2906C89.6836 25.8312 89.0421 26.2125 88.3332 26.3862L88.2317 26.4245Z" fill="#131C32"/>
        <path d="M89.6659 21.9336C89.6206 22.3722 89.463 22.7915 89.2084 23.1507C88.9538 23.5098 88.6109 23.7965 88.2132 23.9829C87.8155 24.1692 87.3765 24.2488 86.9391 24.2139C86.5017 24.1789 86.0807 24.0307 85.7173 23.7836C84.8371 23.1848 84.1505 22.3402 83.7422 21.354C83.3338 20.3678 83.2216 19.2831 83.4192 18.2336C83.4645 17.795 83.6221 17.3757 83.8767 17.0165C84.1313 16.6574 84.4742 16.3707 84.8719 16.1843C85.2696 15.998 85.7086 15.9184 86.146 15.9533C86.5834 15.9882 87.0044 16.1365 87.3678 16.3836C88.248 16.9824 88.9346 17.827 89.3429 18.8132C89.7513 19.7994 89.8635 20.8841 89.6659 21.9336Z" fill="#131C32"/>
        <path d="M87.2019 24.4844C86.6084 24.476 86.0287 24.3039 85.526 23.9868C84.566 23.3551 83.8129 22.4528 83.3612 21.3928C82.9095 20.3329 82.7792 19.1625 82.9867 18.0284C83.0698 17.5212 83.2737 17.0417 83.5809 16.6307C83.8882 16.2197 84.2898 15.8895 84.7515 15.6681C85.1962 15.4868 85.6779 15.4166 86.1555 15.4632C86.6331 15.5099 87.0923 15.6721 87.4939 15.936C88.4538 16.5754 89.2037 17.4862 89.6488 18.5534C90.094 19.6207 90.2145 20.7966 89.9952 21.9326C89.9099 22.4407 89.7054 22.921 89.3984 23.3337C89.0915 23.7464 88.691 24.0796 88.2303 24.3057C87.9017 24.4294 87.5528 24.49 87.2019 24.4844ZM85.9323 16.2167C85.6707 16.2157 85.4116 16.2677 85.1705 16.3698C84.8193 16.5446 84.5149 16.8015 84.2829 17.119C84.051 17.4365 83.8982 17.8052 83.8373 18.1943C83.6667 19.161 83.7772 20.1567 84.1555 21.0619C84.5339 21.9671 85.164 22.7434 85.9703 23.2978C86.2687 23.4958 86.6096 23.6199 86.9649 23.6599C87.3203 23.6998 87.68 23.6544 88.0145 23.5275C88.3554 23.3437 88.6482 23.0814 88.8689 22.7621C89.0896 22.4427 89.2319 22.0754 89.2842 21.6902C89.4561 20.7247 89.3476 19.7299 88.9716 18.8248C88.5955 17.9197 87.9679 17.1427 87.1638 16.5867C86.7719 16.3685 86.3295 16.2585 85.8815 16.2677L85.9323 16.2167Z" fill="#131C32"/>
        <path d="M88.7258 21.2813C88.6961 21.5824 88.589 21.8706 88.4152 22.1177C88.2414 22.3647 88.0067 22.5622 87.7341 22.6908C87.4616 22.8194 87.1604 22.8747 86.8602 22.8513C86.56 22.8278 86.271 22.7265 86.0214 22.5572C85.4105 22.1478 84.9338 21.5659 84.6514 20.8847C84.369 20.2036 84.2935 19.4537 84.4344 18.7295C84.4641 18.4284 84.5712 18.1402 84.745 17.8932C84.9188 17.6461 85.1535 17.4486 85.4261 17.32C85.6986 17.1914 85.9998 17.1361 86.3 17.1595C86.6002 17.183 86.8892 17.2843 87.1387 17.4537C87.7509 17.8618 88.2286 18.4436 88.5112 19.1251C88.7937 19.8066 88.8685 20.557 88.7258 21.2813Z" fill="#5C77F2"/>
        <path d="M88.7258 21.2813C88.6961 21.5824 88.589 21.8706 88.4152 22.1177C88.2414 22.3647 88.0067 22.5622 87.7341 22.6908C87.4616 22.8194 87.1604 22.8747 86.8602 22.8513C86.56 22.8278 86.271 22.7265 86.0214 22.5572C85.4105 22.1478 84.9338 21.5659 84.6514 20.8847C84.369 20.2036 84.2935 19.4537 84.4344 18.7295C84.4641 18.4284 84.5712 18.1402 84.745 17.8932C84.9188 17.6461 85.1535 17.4486 85.4261 17.32C85.6986 17.1914 85.9998 17.1361 86.3 17.1595C86.6002 17.183 86.8892 17.2843 87.1387 17.4537C87.7509 17.8618 88.2286 18.4436 88.5112 19.1251C88.7937 19.8066 88.8685 20.557 88.7258 21.2813Z" fill="#4A65DF"/>
        <path d="M86.9996 23.2077C86.5525 23.203 86.1145 23.0798 85.7299 22.8504C85.0529 22.4016 84.5244 21.76 84.2123 21.0076C83.9001 20.2553 83.8185 19.4265 83.9778 18.6273C84.0381 18.2611 84.1848 17.9147 84.4057 17.6173C84.6266 17.3198 84.9153 17.0799 85.2475 16.9176C85.5699 16.7831 85.9203 16.7303 86.2679 16.7636C86.6154 16.797 86.9495 16.9156 87.2408 17.109C87.9192 17.5566 88.4486 18.198 88.7609 18.9507C89.0732 19.7034 89.154 20.5329 88.9929 21.3321C88.9297 21.6973 88.7819 22.0423 88.5613 22.3393C88.3407 22.6363 88.0536 22.877 87.7233 23.0418C87.494 23.1405 87.2488 23.1967 86.9996 23.2077ZM86.0854 17.5173C85.9238 17.5209 85.7643 17.5556 85.6156 17.6193C85.3909 17.7325 85.1964 17.8981 85.0484 18.1024C84.9004 18.3066 84.8032 18.5434 84.765 18.7931C84.6457 19.4353 84.7154 20.0985 84.9658 20.7013C85.2161 21.3042 85.6361 21.8205 86.1743 22.187C86.3593 22.3103 86.5705 22.3884 86.791 22.415C87.0115 22.4416 87.2351 22.4159 87.4439 22.3401C87.667 22.2262 87.8595 22.0601 88.0054 21.8558C88.1512 21.6515 88.246 21.4151 88.2819 21.1663C88.4069 20.5234 88.3411 19.8578 88.0928 19.2522C87.8445 18.6465 87.4246 18.1275 86.8853 17.7597C86.6386 17.6286 86.3644 17.5586 86.0854 17.5555V17.5173Z" fill="#131C32"/>
        <path d="M87.0376 19.5332C87.1412 19.5594 87.2399 19.6025 87.3296 19.6608C87.6676 19.8841 87.9316 20.2038 88.0877 20.5789C88.2438 20.954 88.2848 21.3673 88.2057 21.766C88.1917 21.934 88.1337 22.0953 88.0377 22.2335C87.9418 22.3718 87.8111 22.4821 87.6591 22.5534C87.507 22.6246 87.3389 22.6542 87.1718 22.6391C87.0047 22.6241 86.8445 22.565 86.7075 22.4677C86.3719 22.242 86.11 21.922 85.9542 21.5476C85.7984 21.1732 85.7557 20.7611 85.8314 20.3625C85.8583 20.2425 85.901 20.1267 85.9584 20.018L87.0376 19.5332Z" fill="#F3F5FF"/>
        <path d="M87.0376 19.5332C87.1412 19.5594 87.2399 19.6025 87.3296 19.6608C87.6676 19.8841 87.9316 20.2038 88.0877 20.5789C88.2438 20.954 88.2848 21.3673 88.2057 21.766C88.1917 21.934 88.1337 22.0953 88.0377 22.2335C87.9418 22.3718 87.8111 22.4821 87.6591 22.5534C87.507 22.6246 87.3389 22.6542 87.1718 22.6391C87.0047 22.6241 86.8445 22.565 86.7075 22.4677C86.3719 22.242 86.11 21.922 85.9542 21.5476C85.7984 21.1732 85.7557 20.7611 85.8314 20.3625C85.8583 20.2425 85.901 20.1267 85.9584 20.018L87.0376 19.5332Z" fill="white"/>
        <path d="M87.266 23.0163C87.0008 23.0176 86.7408 22.9423 86.5169 22.7994C86.1049 22.5312 85.7835 22.1437 85.5954 21.6881C85.4072 21.2325 85.3611 20.7302 85.4631 20.2476C85.4991 20.0924 85.5546 19.9423 85.6282 19.8011C85.6764 19.7143 85.7564 19.6497 85.8512 19.6212C85.946 19.5926 86.0481 19.6022 86.136 19.648C86.2255 19.6968 86.2927 19.7785 86.3235 19.8761C86.3543 19.9736 86.3462 20.0794 86.3011 20.1711C86.2544 20.2459 86.2201 20.3277 86.1995 20.4135C86.1438 20.7356 86.1798 21.067 86.3033 21.3695C86.4269 21.672 86.6329 21.9333 86.8978 22.1232C86.9861 22.169 87.0841 22.193 87.1835 22.193C87.2829 22.193 87.3809 22.169 87.4692 22.1232C87.5662 22.07 87.6498 21.9952 87.7137 21.9046C87.7775 21.8139 87.8198 21.7097 87.8373 21.6001C87.8936 21.2798 87.8578 20.95 87.7342 20.6494C87.6105 20.3488 87.404 20.09 87.139 19.9032C87.0764 19.8629 87.0078 19.8328 86.9359 19.8138C86.8399 19.7842 86.7588 19.7188 86.7093 19.631C86.6597 19.5433 86.6454 19.4398 86.6693 19.3418C86.6988 19.2453 86.7639 19.1639 86.8512 19.114C86.9385 19.0642 87.0415 19.0499 87.139 19.0738C87.2733 19.1104 87.4015 19.1663 87.5199 19.2397C87.932 19.5079 88.2533 19.8954 88.4415 20.351C88.6296 20.8066 88.6758 21.3089 88.5738 21.7914C88.5325 22.0204 88.4371 22.2361 88.2958 22.4203C88.1544 22.6046 87.971 22.7521 87.7612 22.8504C87.6121 22.9456 87.4421 23.0025 87.266 23.0163Z" fill="#131C32"/>
    </g>
    <g filter="url(#filter0_f_324_6549)">
        <ellipse cx="96.0001" cy="271.501" rx="72.8784" ry="5.5" transform="rotate(0.897831 96.0001 271.501)" fill="#B6C1E6"/>
    </g>
    <defs>
        <filter id="filter0_f_324_6549" x="0.130859" y="242.883" width="191.738" height="57.2354" filterUnits="userSpaceOnUse" color-interpolation-filters="sRGB">
            <feFlood flood-opacity="0" result="BackgroundImageFix"/>
            <feBlend mode="normal" in="SourceGraphic" in2="BackgroundImageFix" result="shape"/>
            <feGaussianBlur stdDeviation="11.5" result="effect1_foregroundBlur_324_6549"/>
        </filter>
        <clipPath id="clip0_324_6549">
            <rect width="130" height="241" fill="white" transform="translate(37)"/>
        </clipPath>
    </defs>
</svg>
