<svg width="184" height="179" viewBox="0 0 184 179" fill="none" xmlns="http://www.w3.org/2000/svg">
<path d="M51.8095 71.5026C51.3986 71.6127 51.0518 71.5082 50.7689 71.1892C50.4823 70.8561 50.2877 70.4982 50.1852 70.1157C50.0755 68.4597 49.8601 66.8623 49.5389 65.3237C49.2139 63.7709 48.8289 62.1355 48.3837 60.4175C47.835 60.5797 47.3803 60.7243 47.0195 60.8514C46.6588 60.9784 46.2942 61.0913 45.9259 61.19L44.5659 61.5544C44.2069 61.5746 43.9036 61.5193 43.6559 61.3882C43.4224 61.2534 43.2581 61.0089 43.1632 60.6548C43.0342 60.1731 43.0834 59.8183 43.3108 59.5903C43.5486 59.3444 43.8587 59.1702 44.2412 59.0677C44.3262 59.0449 44.4112 59.0221 44.4962 58.9994C44.5812 58.9766 44.6681 58.9609 44.7569 58.9523C45.0185 58.8518 45.4198 58.7063 45.961 58.5158C46.4983 58.3111 47.08 58.102 47.7061 57.8887C48.3285 57.6612 48.9031 57.4541 49.4301 57.2674C49.957 57.0806 50.3442 56.9389 50.5916 56.8422L51.4416 56.6145C51.7533 56.531 52.1344 56.4516 52.585 56.3765C53.0497 56.2975 53.5206 56.27 53.9978 56.294C54.4711 56.3038 54.8855 56.4053 55.241 56.5986C55.6106 56.7881 55.8562 57.1095 55.9776 57.5628C56.0498 57.832 56.0227 58.1277 55.8965 58.45C55.7665 58.7582 55.5456 58.954 55.234 59.0375C55.064 59.0831 54.8717 59.0738 54.6572 59.0099C54.4388 58.9317 54.239 58.8942 54.0576 58.8972C53.6589 58.8826 53.2593 58.9213 52.8588 59.0134C52.4583 59.1056 52.0739 59.201 51.7056 59.2997L50.8768 59.5217L50.8089 59.6083C50.8583 59.7924 50.9309 60.0918 51.0268 60.5065C51.1227 60.9211 51.2338 61.3924 51.3601 61.9204C51.4826 62.4342 51.6051 62.948 51.7276 63.4618C51.8642 63.9718 51.9819 64.411 52.0806 64.7793C52.2438 65.3885 52.3665 66.0161 52.4485 66.6623C52.5409 67.2904 52.6076 67.766 52.6486 68.0891C52.681 68.3233 52.6984 68.6148 52.7007 68.9634C52.6992 69.2978 52.6868 69.62 52.6636 69.9299C52.6403 70.2398 52.5948 70.495 52.527 70.6954C52.4734 70.8919 52.3909 71.0659 52.2796 71.2172C52.1645 71.3543 52.0078 71.4494 51.8095 71.5026ZM62.3873 69.3515C62.1323 69.4199 61.9183 69.3861 61.7453 69.2503C61.5722 69.1144 61.4341 68.9389 61.3308 68.7236C61.2238 68.4941 61.1243 68.293 61.0325 68.1202L60.6111 66.5477C60.3986 65.7544 60.2195 64.9444 60.074 64.1179C59.9246 63.2773 59.7456 62.4674 59.5368 61.6882C59.4381 61.3198 59.3078 60.9752 59.1458 60.6541C58.9839 60.3331 58.8555 59.9955 58.7606 59.6413L58.6068 59.0676C58.6632 58.8247 58.7702 58.629 58.9278 58.4805C59.0996 58.3282 59.2917 58.2236 59.5042 58.1666C59.8159 58.0831 60.0743 58.1126 60.2795 58.255C60.4809 58.3832 60.6422 58.5602 60.7634 58.7858C60.8988 59.0077 61.0214 59.2102 61.1312 59.3933C61.2372 59.5623 61.3577 59.6439 61.4928 59.6381C61.8315 59.2588 62.1509 58.8923 62.4509 58.5386C62.7651 58.1811 63.1067 57.8694 63.4758 57.6035C63.8553 57.3196 64.3 57.1094 64.81 56.9727C65.065 56.9044 65.3494 56.8889 65.6631 56.9263C65.991 56.9599 66.2896 57.0545 66.5591 57.2101C66.8247 57.3515 66.9974 57.5709 67.0771 57.8685C67.1758 58.2368 67.0992 58.5458 66.8472 58.7955C66.6094 59.0415 66.363 59.1986 66.108 59.2669C65.938 59.3125 65.7656 59.3207 65.5908 59.2916C65.416 59.2626 65.2436 59.2708 65.0736 59.3163C64.5777 59.4492 64.1444 59.702 63.7735 60.0747C63.4131 60.4294 63.1155 60.8204 62.8807 61.2477C62.646 61.675 62.4693 62.064 62.3507 62.4146C62.3282 62.5573 62.3426 62.7812 62.394 63.0863C62.4454 63.3914 62.5152 63.7371 62.6036 64.1234C62.6881 64.4956 62.7707 64.8606 62.8515 65.2186C62.9464 65.5728 63.0209 65.8792 63.0751 66.138C63.1862 66.6093 63.258 67.076 63.2907 67.5379C63.3338 67.9819 63.2941 68.3721 63.1717 68.7086C63.0455 69.0309 62.784 69.2452 62.3873 69.3515ZM74.5595 71.8296C74.3045 71.8979 74.0791 71.8217 73.8832 71.6008C73.6912 71.3941 73.5629 71.1704 73.4984 70.9296C73.3769 70.4762 73.3603 70.0175 73.4485 69.5536C73.5406 69.1037 73.6095 68.6525 73.6552 68.1999C73.6767 67.9968 73.6972 67.7332 73.7167 67.4091C73.7541 67.0954 73.7825 66.7765 73.802 66.4524C73.8356 66.1246 73.8593 65.8449 73.8732 65.6134C73.8871 65.3819 73.8903 65.252 73.8827 65.2237L73.8656 65.1599C73.0712 65.312 72.3645 65.2812 71.7454 65.0675C71.1264 64.8538 70.5889 64.5195 70.1329 64.0647C69.677 63.6098 69.2857 63.0846 68.9591 62.4888C68.6286 61.8789 68.3459 61.2486 68.1108 60.5979C67.8899 59.9435 67.7016 59.3258 67.546 58.745C67.4966 58.5608 67.4392 58.3181 67.3736 58.0168C67.3043 57.7013 67.2562 57.3801 67.2293 57.0533C67.2166 56.7226 67.2527 56.4321 67.3374 56.1816C67.4363 55.9273 67.6203 55.7642 67.8895 55.692C68.4137 55.5516 68.8049 55.6517 69.0633 55.9925C69.3357 56.3294 69.5327 56.7246 69.6542 57.1779C69.7377 57.4896 69.7943 57.7857 69.8239 58.0663C69.8677 58.343 69.9332 58.6443 70.0206 58.9702L70.0775 59.1827C70.1041 59.2818 70.1823 59.4887 70.3121 59.8031C70.4419 60.1176 70.5736 60.4391 70.7072 60.7677C70.855 61.0925 70.9658 61.3361 71.0397 61.4986C71.2358 61.9471 71.4875 62.32 71.7949 62.6172C72.0985 62.9003 72.4416 62.9905 72.8241 62.8881C73.2775 62.7666 73.6267 62.4832 73.8718 62.0379C74.1311 61.5889 74.3194 61.0449 74.4367 60.4061C74.5682 59.7635 74.6779 59.0964 74.7659 58.4047C74.8501 57.6989 74.9438 57.0285 75.0469 56.3935C75.1501 55.7584 75.303 55.224 75.5056 54.7901C75.7223 54.3524 76.022 54.0823 76.4045 53.9798C77.042 53.809 77.4557 54.0778 77.6455 54.7861C77.7745 55.2678 77.82 55.7491 77.7818 56.23C77.7578 56.7072 77.6875 57.1815 77.571 57.6531C77.4685 58.1209 77.35 58.5854 77.2155 59.0466C77.0809 59.5078 76.9766 59.9685 76.9025 60.4287C76.6585 61.7847 76.4665 63.1648 76.3265 64.5689C76.1968 65.955 76.0832 67.3444 75.9857 68.7371C75.9597 69.0933 75.9148 69.4925 75.8511 69.9347C75.7874 70.377 75.6589 70.7758 75.4656 71.1313C75.2865 71.4829 74.9845 71.7157 74.5595 71.8296ZM89.3384 47.8722C88.9134 47.9861 88.509 47.9502 88.1252 47.7645C87.7414 47.5789 87.4793 47.2239 87.3388 46.6998C87.1984 46.1756 87.2839 45.7579 87.5953 45.4467C87.9067 45.1355 88.2536 44.9287 88.6361 44.8262C89.0753 44.7085 89.4797 44.7444 89.8493 44.9338C90.2331 45.1195 90.4971 45.4815 90.6414 46.0198C90.778 46.5298 90.6907 46.9404 90.3793 47.2516C90.082 47.5591 89.7351 47.7659 89.3384 47.8722ZM91.9105 60.8714C91.6413 60.9435 91.398 60.8569 91.1804 60.6115C90.9628 60.3662 90.7806 60.1113 90.6338 59.8469L89.8993 57.1056C89.8803 57.0348 89.8452 56.8468 89.7938 56.5417C89.7528 56.2187 89.6985 55.846 89.6309 55.4238C89.5737 54.9836 89.5151 54.5666 89.4551 54.1727C89.4055 53.7608 89.3644 53.4378 89.332 53.2035C89.2986 52.9088 89.2647 52.5838 89.2303 52.2286C89.21 51.8696 89.2507 51.5399 89.3524 51.2393C89.454 50.9388 89.6607 50.7467 89.9724 50.6632C90.3124 50.5721 90.576 50.5926 90.7632 50.7246C90.9608 50.8387 91.106 51.0124 91.1989 51.2456C91.2918 51.4788 91.3724 51.723 91.4407 51.978L91.64 52.7217C91.6476 52.7501 91.6576 52.8157 91.67 52.9187C91.6786 53.0075 91.6839 53.1123 91.686 53.2333C91.7196 53.7557 91.7404 54.1449 91.7483 54.4009C91.7665 54.639 91.7843 54.8468 91.8015 55.0244C91.8291 55.184 91.8808 55.4055 91.9567 55.6889C92.0023 55.8589 92.0592 56.0714 92.1276 56.3264C92.2101 56.5776 92.3063 56.9086 92.4164 57.3194C92.4658 57.5036 92.5222 57.6859 92.5857 57.8663C92.6454 58.0325 92.7019 58.2147 92.755 58.4131C92.812 58.6256 92.8514 58.8579 92.8735 59.1102C92.9117 59.4795 92.8715 59.8395 92.7529 60.1902C92.6305 60.5267 92.3497 60.7537 91.9105 60.8714ZM99.754 59.5669C99.3148 59.6846 98.9529 59.6373 98.6682 59.4251C98.3836 59.2129 98.1546 58.925 97.9813 58.5615C97.8184 58.18 97.6932 57.8263 97.6059 57.5005L97.3895 56.693C97.1504 55.8004 96.9235 54.8971 96.7089 53.9828C96.5085 53.0647 96.2749 52.0796 96.0081 51.0275C95.6578 51.1365 95.3589 51.2394 95.1114 51.336C94.8782 51.4289 94.6341 51.5095 94.3791 51.5778C93.7274 51.7525 93.3161 51.521 93.1453 50.8835C93.0808 50.6427 93.0626 50.4046 93.0906 50.1693C93.1149 49.9199 93.254 49.7308 93.508 49.602L95.2642 48.6759C95.4898 48.5547 95.6058 48.3642 95.6121 48.1044C95.6288 47.8266 95.5934 47.5248 95.5061 47.1989C95.4292 46.8551 95.3612 46.5165 95.3023 46.1831C95.2575 45.8458 95.2916 45.5482 95.4046 45.2901C95.5319 45.0283 95.808 44.8404 96.233 44.7266C96.5305 44.6468 96.7729 44.673 96.9601 44.805C97.1577 44.9191 97.3152 45.0819 97.4326 45.2934C97.55 45.5049 97.6372 45.7169 97.6941 45.9294C97.7017 45.9577 97.7212 46.0588 97.7526 46.2326C97.7802 46.3922 97.8007 46.5537 97.8141 46.7172C97.8417 46.8768 97.8612 46.9779 97.8726 47.0204L98.0548 47.7004L100.647 47.0057C100.959 46.9222 101.24 47.0064 101.489 47.2584C101.735 47.4962 101.898 47.7638 101.978 48.0613C101.993 48.118 102 48.2299 102 48.3971C101.999 48.5644 101.961 48.734 101.885 48.906C101.806 49.0639 101.667 49.1694 101.469 49.2226L98.749 49.9514C98.7349 49.9552 98.7103 49.9769 98.6754 50.0167C98.6367 50.0422 98.5985 50.098 98.5608 50.184L98.5354 50.2592C98.5671 50.6607 98.601 50.9856 98.6372 51.234C98.6696 51.4683 98.7053 51.6865 98.7443 51.8886C98.7936 52.0728 98.8543 52.2995 98.9265 52.5686C99.1352 53.3478 99.3582 54.1232 99.5953 54.8948C99.8466 55.6626 100.088 56.4786 100.32 57.3428C100.395 57.6261 100.452 57.9222 100.489 58.2311C100.526 58.54 100.494 58.8145 100.391 59.0546C100.292 59.3088 100.08 59.4796 99.754 59.5669ZM36.7845 103.129C36.5295 103.197 36.3155 103.164 36.1424 103.028C35.9694 102.892 35.8312 102.716 35.728 102.501C35.621 102.272 35.5215 102.07 35.4297 101.898L35.0083 100.325C34.7957 99.5318 34.6167 98.7219 34.4712 97.8954C34.3218 97.0547 34.1428 96.2448 33.934 95.4656C33.8353 95.0973 33.705 94.7526 33.543 94.4316C33.3811 94.1105 33.2527 93.7729 33.1578 93.4188L33.004 92.845C33.0604 92.6021 33.1674 92.4064 33.325 92.2579C33.4968 92.1056 33.6889 92.001 33.9014 91.944C34.2131 91.8605 34.4715 91.89 34.6767 92.0324C34.8781 92.1606 35.0394 92.3376 35.1606 92.5633C35.296 92.7851 35.4185 92.9876 35.5284 93.1708C35.6344 93.3398 35.7549 93.4213 35.89 93.4155C36.2287 93.0362 36.5481 92.6698 36.8481 92.3161C37.1623 91.9586 37.5039 91.6469 37.873 91.3809C38.2525 91.0971 38.6972 90.8868 39.2072 90.7501C39.4622 90.6818 39.7466 90.6663 40.0603 90.7038C40.3881 90.7374 40.6868 90.832 40.9562 90.9875C41.2219 91.1289 41.3946 91.3484 41.4743 91.6459C41.573 92.0142 41.4964 92.3233 41.2444 92.573C41.0066 92.8189 40.7602 92.976 40.5052 93.0444C40.3352 93.0899 40.1628 93.0981 39.988 93.0691C39.8132 93.04 39.6408 93.0482 39.4708 93.0938C38.9749 93.2266 38.5416 93.4794 38.1707 93.8521C37.8103 94.2068 37.5127 94.5978 37.2779 95.0251C37.0432 95.4524 36.8665 95.8414 36.7479 96.1921C36.7254 96.3348 36.7398 96.5587 36.7912 96.8638C36.8426 97.1689 36.9124 97.5146 37.0008 97.9009C37.0853 98.273 37.1679 98.638 37.2487 98.996C37.3436 99.3502 37.4181 99.6567 37.4723 99.9155C37.5834 100.387 37.6552 100.853 37.6879 101.315C37.731 101.759 37.6913 102.15 37.5689 102.486C37.4426 102.808 37.1812 103.023 36.7845 103.129ZM43.1286 87.1713C42.7035 87.2851 42.2991 87.2493 41.9154 87.0636C41.5316 86.8779 41.2694 86.523 41.129 85.9988C40.9885 85.4747 41.074 85.057 41.3854 84.7458C41.6968 84.4346 42.0438 84.2277 42.4263 84.1252C42.8654 84.0076 43.2698 84.0435 43.6395 84.2329C44.0233 84.4186 44.2873 84.7806 44.4315 85.3189C44.5682 85.8289 44.4808 86.2395 44.1694 86.5507C43.8722 86.8581 43.5252 87.065 43.1286 87.1713ZM45.7006 100.17C45.4315 100.243 45.1881 100.156 44.9705 99.9106C44.7529 99.6652 44.5707 99.4104 44.424 99.146L43.6895 96.4047C43.6705 96.3339 43.6353 96.1459 43.5839 95.8408C43.5429 95.5178 43.4886 95.1451 43.421 94.7229C43.3638 94.2827 43.3052 93.8656 43.2452 93.4718C43.1956 93.0599 43.1546 92.7368 43.1222 92.5026C43.0888 92.2078 43.0548 91.8829 43.0204 91.5277C43.0001 91.1687 43.0408 90.8389 43.1425 90.5384C43.2442 90.2378 43.4509 90.0458 43.7625 89.9623C44.1025 89.8712 44.3661 89.8916 44.5534 90.0237C44.751 90.1378 44.8962 90.3114 44.9891 90.5447C45.0819 90.7779 45.1625 91.022 45.2308 91.2771L45.4301 92.0208C45.4377 92.0491 45.4477 92.1148 45.4601 92.2178C45.4687 92.3066 45.4741 92.4114 45.4761 92.5323C45.5098 93.0548 45.5306 93.444 45.5384 93.7C45.5567 93.9381 45.5744 94.1459 45.5916 94.3235C45.6192 94.4831 45.671 94.7046 45.7469 94.9879C45.7924 95.1579 45.8494 95.3704 45.9177 95.6254C46.0002 95.8767 46.0965 96.2077 46.2066 96.6185C46.2559 96.8027 46.3123 96.985 46.3759 97.1653C46.4356 97.3315 46.492 97.5138 46.5452 97.7122C46.6021 97.9247 46.6416 98.157 46.6636 98.4092C46.7018 98.7786 46.6617 99.1386 46.543 99.4893C46.4206 99.8257 46.1398 100.053 45.7006 100.17ZM55.5672 104.291C55.1184 104.26 54.6705 104.175 54.2234 104.036C53.7944 103.908 53.4176 103.721 53.0933 103.474C52.7869 103.237 52.5863 102.941 52.4914 102.587C52.404 102.261 52.4529 101.99 52.6378 101.774C52.8368 101.553 53.071 101.407 53.3401 101.335C53.6518 101.251 53.9315 101.275 54.1792 101.406C54.4448 101.548 54.7157 101.68 54.9917 101.803C55.2857 101.937 55.6027 101.959 55.9427 101.867C56.3535 101.757 56.6787 101.526 56.9182 101.173C57.1578 100.821 57.3269 100.403 57.4255 99.9214C57.5241 99.4394 57.5656 98.9424 57.5498 98.4304C57.5483 97.9146 57.4976 97.4422 57.3979 97.0134C57.3855 96.9105 57.3498 96.6923 57.2909 96.3588C57.2281 96.0113 57.1615 95.6495 57.0912 95.2736C57.035 94.8938 56.9841 94.619 56.9385 94.449L56.8816 94.2365C56.8512 94.1231 56.8077 94.074 56.751 94.0892L56.666 94.112C56.3739 94.7217 56.0714 95.3494 55.7585 95.9951C55.4598 96.6369 55.0816 97.2089 54.624 97.7112C54.1626 98.1992 53.5706 98.54 52.8481 98.7336C52.2956 98.8817 51.7406 98.8786 51.183 98.7243C50.6254 98.57 50.1333 98.2919 49.7067 97.8899C49.2801 97.488 48.9871 96.9895 48.8277 96.3945C48.5658 95.417 48.497 94.3953 48.6214 93.3294C48.742 92.2494 49.036 91.2217 49.5034 90.2461C49.9708 89.2705 50.5863 88.4224 51.3497 87.7015C52.1274 86.9769 53.0403 86.4741 54.0887 86.1932C54.372 86.1173 54.6828 86.0872 55.0211 86.1028C55.3593 86.1185 55.6651 86.2112 55.9383 86.3809C56.2219 86.5327 56.4131 86.7927 56.5118 87.1611C56.5991 87.4869 56.5489 87.7813 56.3612 88.0442C56.1877 88.3032 55.938 88.4764 55.6121 88.5637C55.3855 88.6245 55.1493 88.6498 54.9037 88.6397C54.6722 88.6258 54.4431 88.6492 54.2164 88.7099L53.7914 88.8238C53.073 89.2593 52.4728 89.8528 51.9909 90.6045C51.5194 91.3382 51.202 92.1369 51.0386 93.0006C50.8715 93.8502 50.8923 94.6645 51.1011 95.4437L51.2947 96.1662C51.5181 96.5467 51.8069 96.6895 52.1611 96.5946C52.4869 96.5073 52.7805 96.2995 53.0418 95.9714C53.3031 95.6432 53.5421 95.2603 53.7589 94.8226C53.9719 94.3708 54.1655 93.9317 54.3398 93.5054C54.5103 93.065 54.6766 92.6939 54.8387 92.3924C54.9525 91.9671 55.1003 91.5555 55.2822 91.1575C55.4603 90.7454 55.6133 90.3248 55.7413 89.8957C55.844 89.6556 55.9567 89.4811 56.0793 89.3724C56.202 89.2636 56.3625 89.1826 56.5609 89.1294C56.9151 89.0345 57.1966 89.0654 57.4056 89.222C57.625 89.3606 57.808 89.5621 57.9548 89.8264C58.1015 90.0908 58.2232 90.3467 58.3199 90.5941L58.7469 92.1879C58.9026 92.7687 59.0578 93.4332 59.2127 94.1812C59.3818 94.9255 59.5159 95.7095 59.6152 96.5332C59.7248 97.339 59.765 98.1405 59.7357 98.938C59.7064 99.7354 59.5802 100.483 59.3572 101.18C59.1483 101.874 58.8079 102.474 58.3361 102.98C57.8644 103.486 57.2247 103.847 56.4172 104.063L55.5672 104.291ZM63.4953 95.6302C63.0987 95.7365 62.7651 95.6816 62.4946 95.4656C62.2345 95.2316 62.0552 94.9304 61.9565 94.5621C61.7287 93.7121 61.5467 92.8346 61.4105 91.9297C61.2885 91.021 61.1174 90.1558 60.8973 89.3341C60.5177 87.9174 60.0909 86.5513 59.6169 85.2358C59.1571 83.9165 58.7374 82.5485 58.3578 81.1318L58.2098 80.5793C58.2482 80.3261 58.3411 80.1342 58.4883 80.0036C58.6459 79.8551 58.8238 79.7543 59.0222 79.7012C59.348 79.6138 59.6405 79.657 59.8995 79.8305C60.1728 80.0002 60.4097 80.2328 60.6104 80.5283C60.811 80.8238 60.9762 81.1287 61.1061 81.4432C61.25 81.7538 61.3505 82.0154 61.4074 82.2279L63.2978 89.283L63.4595 89.3764L63.4751 89.3494C63.7551 88.8644 64.0006 88.3355 64.2115 87.7628C64.4366 87.1862 64.6745 86.629 64.9252 86.0911C65.1862 85.5352 65.5035 85.0478 65.8771 84.6289C66.2649 84.2061 66.7634 83.9131 67.3726 83.7499C67.9109 83.6056 68.4093 83.6239 68.8678 83.8048C69.3403 83.9818 69.7507 84.2666 70.0989 84.6592C70.447 85.0518 70.7229 85.4866 70.9266 85.9634L72.7713 90.2977L72.9421 90.9352C73.0028 91.1619 73.0532 91.4065 73.0932 91.6691C73.1294 91.9175 73.0994 92.1457 73.0033 92.3537C72.9213 92.5579 72.7175 92.7036 72.3916 92.7909C72.0233 92.8896 71.6949 92.8258 71.4065 92.5994C71.1284 92.355 70.8899 92.0317 70.6911 91.6295C70.4922 91.2272 70.3235 90.8245 70.1851 90.4213C70.0467 90.018 69.9311 89.6998 69.8382 89.4665C69.7975 89.3711 69.7269 89.1927 69.6264 88.9311C69.5401 88.6657 69.4283 88.3616 69.2909 88.0188C69.1535 87.6761 69.0057 87.3512 68.8475 87.0444C68.6856 86.7234 68.5195 86.4718 68.3492 86.2896C68.1893 86.0895 68.0314 86.0104 67.8756 86.0521C67.6348 86.1167 67.4205 86.2804 67.2328 86.5432C67.0451 86.8061 66.9018 87.0647 66.8029 87.3189C66.3244 88.4797 65.8893 89.6895 65.4978 90.9484C65.1167 92.1893 64.7298 93.409 64.3373 94.6074C64.2733 94.822 64.1772 95.0299 64.049 95.2313C63.9207 95.4327 63.7362 95.5657 63.4953 95.6302ZM79.1109 92.0154C78.6718 92.1331 78.3099 92.0858 78.0252 91.8736C77.7406 91.6613 77.5116 91.3735 77.3383 91.0099C77.1754 90.6284 77.0502 90.2748 76.9629 89.9489L76.7465 89.1414C76.5074 88.2489 76.2805 87.3455 76.0659 86.4312C75.8655 85.5132 75.6319 84.5281 75.3651 83.4759C75.0148 83.585 74.7159 83.6878 74.4684 83.7845C74.2352 83.8774 73.9911 83.958 73.7361 84.0263C73.0844 84.2009 72.6731 83.9695 72.5023 83.332C72.4378 83.0911 72.4196 82.8531 72.4476 82.6178C72.4719 82.3683 72.611 82.1792 72.865 82.0504L74.6211 81.1243C74.8468 81.0031 74.9628 80.8126 74.9691 80.5528C74.9858 80.275 74.9504 79.9732 74.8631 79.6474C74.7862 79.3036 74.7182 78.965 74.6593 78.6315C74.6145 78.2943 74.6486 77.9967 74.7616 77.7386C74.8889 77.4768 75.165 77.2889 75.59 77.175C75.8875 77.0953 76.1299 77.1215 76.3171 77.2535C76.5147 77.3676 76.6722 77.5304 76.7896 77.7418C76.907 77.9533 76.9942 78.1653 77.0511 78.3778C77.0587 78.4062 77.0782 78.5072 77.1096 78.681C77.1372 78.8407 77.1577 79.0022 77.1711 79.1656C77.1987 79.3253 77.2182 79.4263 77.2295 79.4688L77.4118 80.1488L80.0043 79.4542C80.316 79.3707 80.5967 79.4549 80.8464 79.7068C81.0923 79.9446 81.2551 80.2123 81.3348 80.5098C81.35 80.5664 81.3572 80.6784 81.3565 80.8456C81.3558 81.0128 81.3177 81.1825 81.2423 81.3545C81.1632 81.5124 81.0244 81.6179 80.8261 81.671L78.106 82.3998C78.0918 82.4036 78.0673 82.4254 78.0324 82.4651C77.9937 82.4907 77.9555 82.5465 77.9178 82.6325L77.8924 82.7076C77.9241 83.1091 77.958 83.4341 77.9942 83.6825C78.0266 83.9168 78.0623 84.135 78.1012 84.3371C78.1506 84.5213 78.2113 84.7479 78.2835 85.0171C78.4922 85.7963 78.7152 86.5717 78.9523 87.3433C79.2036 88.111 79.445 88.927 79.6766 89.7912C79.7525 90.0746 79.809 90.3707 79.8463 90.6796C79.8835 90.9885 79.8507 91.263 79.748 91.503C79.6492 91.7573 79.4368 91.9281 79.1109 92.0154ZM95.2671 87.117C94.8705 87.2232 94.5369 87.1684 94.2664 86.9524C94.0063 86.7184 93.8269 86.4172 93.7282 86.0489C93.5005 85.1988 93.3185 84.3214 93.1823 83.4165C93.0603 82.5077 92.8892 81.6425 92.6691 80.8209C92.2894 79.4042 91.8627 78.0381 91.3887 76.7226C90.9289 75.4033 90.5092 74.0353 90.1296 72.6186L89.9816 72.0661C90.02 71.8129 90.1128 71.621 90.2601 71.4904C90.4177 71.3419 90.5956 71.2411 90.794 71.1879C91.1198 71.1006 91.4123 71.1437 91.6713 71.3173C91.9446 71.487 92.1815 71.7196 92.3822 72.0151C92.5828 72.3105 92.748 72.6155 92.8778 72.9299C93.0218 73.2406 93.1223 73.5022 93.1792 73.7147L95.0696 80.7698L95.2313 80.8631L95.2469 80.8362C95.5269 80.3512 95.7723 79.8223 95.9833 79.2495C96.2084 78.6729 96.4463 78.1157 96.6969 77.5779C96.958 77.022 97.2753 76.5346 97.6489 76.1156C98.0367 75.6929 98.5352 75.3999 99.1444 75.2366C99.6827 75.0924 100.181 75.1107 100.64 75.2915C101.112 75.4686 101.523 75.7534 101.871 76.146C102.219 76.5386 102.495 76.9734 102.698 77.4502L104.543 81.7845L104.714 82.422C104.775 82.6487 104.825 82.8933 104.865 83.1559C104.901 83.4043 104.871 83.6325 104.775 83.8405C104.693 84.0446 104.489 84.1904 104.163 84.2777C103.795 84.3764 103.467 84.3125 103.178 84.0861C102.9 83.8418 102.662 83.5185 102.463 83.1162C102.264 82.714 102.095 82.3113 101.957 81.908C101.818 81.5048 101.703 81.1865 101.61 80.9533C101.569 80.8579 101.499 80.6794 101.398 80.4179C101.312 80.1525 101.2 79.8484 101.063 79.5056C100.925 79.1628 100.777 78.838 100.619 78.5312C100.457 78.2101 100.291 77.9585 100.121 77.7764C99.9611 77.5763 99.8032 77.4971 99.6474 77.5389C99.4066 77.6034 99.1923 77.7671 99.0046 78.03C98.8169 78.2929 98.6736 78.5514 98.5747 78.8057C98.0962 79.9664 97.6611 81.1763 97.2696 82.4351C96.8885 83.6761 96.5016 84.8958 96.1091 86.0942C96.0451 86.3087 95.949 86.5167 95.8208 86.7181C95.6925 86.9195 95.508 87.0524 95.2671 87.117ZM112.852 82.8607C111.832 83.134 110.848 83.2306 109.9 83.1505C108.963 83.0524 108.139 82.7265 107.429 82.1728C106.715 81.6049 106.208 80.7613 105.908 79.6422C105.68 78.7921 105.593 77.9273 105.646 77.0477C105.713 76.1642 105.921 75.3265 106.271 74.5343C106.616 73.728 107.106 73.0349 107.74 72.455C108.371 71.861 109.146 71.4406 110.067 71.1938C110.691 71.0268 111.306 70.9987 111.912 71.1094C112.529 71.2022 113.065 71.4458 113.52 71.8402C113.986 72.2166 114.309 72.7448 114.491 73.4248C114.666 74.0765 114.699 74.7359 114.589 75.403C114.479 76.0701 114.253 76.7001 113.911 77.2929C113.569 77.8856 113.136 78.3963 112.613 78.8249C112.101 79.2356 111.526 79.5263 110.888 79.6971C110.789 79.7237 110.564 79.7613 110.212 79.8099C109.857 79.8443 109.573 79.8598 109.359 79.8563C109.21 79.8659 109.081 79.8396 108.974 79.7774C108.942 79.7708 108.886 79.7628 108.808 79.7535C108.726 79.7299 108.67 79.722 108.642 79.7296C108.851 80.1138 109.15 80.4059 109.537 80.6057C109.935 80.7876 110.357 80.8872 110.802 80.9046C111.261 80.9183 111.682 80.8738 112.064 80.7713C112.333 80.6992 112.599 80.6129 112.86 80.5125C113.132 80.394 113.424 80.2931 113.736 80.2096C114.047 80.126 114.339 80.1389 114.612 80.2482C114.884 80.3575 115.071 80.6033 115.174 80.9859C115.257 81.2975 115.223 81.5649 115.07 81.7881C114.931 82.0074 114.721 82.1853 114.438 82.3217C114.17 82.4543 113.887 82.5604 113.59 82.6401C113.31 82.7302 113.064 82.8037 112.852 82.8607ZM110.228 77.2321C110.653 77.1182 111.05 76.9283 111.419 76.6624C111.798 76.3785 112.079 76.0376 112.261 75.6396C112.457 75.2379 112.49 74.7961 112.361 74.3145C112.251 73.9036 112.036 73.6119 111.717 73.4394C111.411 73.2631 111.053 73.23 110.642 73.3401C110.274 73.4388 109.911 73.6424 109.553 73.9508C109.196 74.2592 108.874 74.6186 108.59 75.029C108.319 75.4355 108.12 75.8534 107.992 76.2824C107.86 76.6973 107.84 77.0748 107.931 77.4148L107.953 77.4998C108.337 77.4578 108.724 77.4299 109.115 77.4162C109.503 77.3884 109.873 77.327 110.228 77.2321ZM120.064 80.8144C119.809 80.8827 119.595 80.849 119.421 80.7131C119.248 80.5773 119.11 80.4017 119.007 80.1865C118.9 79.957 118.801 79.7559 118.709 79.5831L118.287 78.0106C118.075 77.2172 117.896 76.4073 117.75 75.5808C117.601 74.7402 117.422 73.9302 117.213 73.1511C117.114 72.7827 116.984 72.438 116.822 72.117C116.66 71.796 116.532 71.4584 116.437 71.1042L116.283 70.5305C116.339 70.2876 116.446 70.0919 116.604 69.9434C116.776 69.7911 116.968 69.6864 117.18 69.6295C117.492 69.546 117.751 69.5754 117.956 69.7179C118.157 69.8461 118.318 70.023 118.44 70.2487C118.575 70.4706 118.698 70.6731 118.807 70.8562C118.913 71.0252 119.034 71.1068 119.169 71.101C119.508 70.7217 119.827 70.3552 120.127 70.0015C120.441 69.644 120.783 69.3323 121.152 69.0664C121.531 68.7825 121.976 68.5722 122.486 68.4356C122.741 68.3673 123.026 68.3518 123.339 68.3892C123.667 68.4228 123.966 68.5174 124.235 68.673C124.501 68.8144 124.674 69.0338 124.753 69.3313C124.852 69.6997 124.775 70.0087 124.523 70.2584C124.286 70.5043 124.039 70.6615 123.784 70.7298C123.614 70.7754 123.442 70.7836 123.267 70.7545C123.092 70.7254 122.92 70.7337 122.75 70.7792C122.254 70.9121 121.821 71.1649 121.45 71.5375C121.089 71.8923 120.792 72.2833 120.557 72.7106C120.322 73.1379 120.146 73.5269 120.027 73.8775C120.004 74.0202 120.019 74.2441 120.07 74.5492C120.122 74.8543 120.191 75.2 120.28 75.5863C120.364 75.9584 120.447 76.3235 120.528 76.6815C120.623 77.0356 120.697 77.3421 120.751 77.6009C120.862 78.0722 120.934 78.5389 120.967 79.0008C121.01 79.4448 120.97 79.835 120.848 80.1715C120.722 80.4938 120.46 80.7081 120.064 80.8144ZM133.231 77.4002C132.211 77.6735 131.227 77.7701 130.279 77.69C129.342 77.5919 128.518 77.266 127.808 76.7123C127.094 76.1444 126.587 75.3009 126.287 74.1817C126.059 73.3317 125.972 72.4668 126.025 71.5872C126.091 70.7038 126.3 69.866 126.649 69.0738C126.995 68.2676 127.485 67.5745 128.119 66.9946C128.75 66.4005 129.525 65.9801 130.446 65.7333C131.069 65.5663 131.684 65.5382 132.291 65.6489C132.908 65.7417 133.444 65.9853 133.899 66.3797C134.364 66.7561 134.688 67.2843 134.87 67.9643C135.045 68.616 135.077 69.2754 134.968 69.9425C134.858 70.6097 134.632 71.2396 134.29 71.8324C133.947 72.4252 133.515 72.9359 132.992 73.3645C132.479 73.7751 131.904 74.0658 131.267 74.2367C131.168 74.2632 130.942 74.3008 130.591 74.3494C130.236 74.3839 129.951 74.3993 129.738 74.3958C129.589 74.4054 129.46 74.3791 129.352 74.3169C129.32 74.3103 129.265 74.3023 129.187 74.293C129.104 74.2695 129.049 74.2615 129.021 74.2691C129.23 74.6534 129.528 74.9454 129.916 75.1452C130.314 75.3271 130.735 75.4267 131.18 75.4442C131.64 75.4578 132.06 75.4134 132.443 75.3109C132.712 75.2387 132.978 75.1524 133.239 75.052C133.511 74.9336 133.803 74.8326 134.115 74.7491C134.426 74.6656 134.718 74.6785 134.99 74.7877C135.263 74.897 135.45 75.1429 135.552 75.5254C135.636 75.837 135.601 76.1045 135.449 76.3276C135.31 76.547 135.099 76.7248 134.817 76.8612C134.549 76.9938 134.266 77.0999 133.969 77.1797C133.689 77.2698 133.443 77.3433 133.231 77.4002ZM130.606 71.7716C131.031 71.6577 131.428 71.4678 131.798 71.2019C132.177 70.918 132.458 70.5771 132.639 70.1791C132.836 69.7774 132.869 69.3357 132.74 68.854C132.63 68.4431 132.415 68.1515 132.096 67.979C131.79 67.8027 131.432 67.7695 131.021 67.8796C130.653 67.9783 130.29 68.1819 129.932 68.4903C129.574 68.7987 129.253 69.1581 128.968 69.5685C128.698 69.9751 128.498 70.3929 128.37 70.822C128.239 71.2369 128.218 71.6143 128.309 71.9543L128.332 72.0393C128.716 71.9973 129.103 71.9694 129.494 71.9558C129.881 71.9279 130.252 71.8665 130.606 71.7716Z" fill="#6B85FF"/>
<path fill-rule="evenodd" clip-rule="evenodd" d="M110.032 103.055C100.962 103.462 89.396 107.73 84.0044 112.658C82.6968 113.853 81.5789 115.228 81.8987 115.248C82.1459 115.264 84.0883 114.117 86.1663 112.73C92.448 108.535 98.9092 106.038 106.138 105.012C109.373 104.553 112.19 104.522 116.269 104.902C122.985 105.526 128.645 107.174 133.7 109.976C135.678 111.073 137.355 112.134 137.359 112.292C137.36 112.336 136.022 112.727 134.386 113.16C131.468 113.934 130.51 114.418 130.528 115.112C130.534 115.346 130.754 115.438 131.399 115.475C132.449 115.535 141.154 113.992 141.562 113.673C141.722 113.548 141.849 113.297 141.845 113.115C141.831 112.562 139.452 106.39 139.121 106.048C138.661 105.574 138.128 105.969 138.075 106.824C138.051 107.209 138.189 108.204 138.381 109.034C138.573 109.865 138.701 110.571 138.666 110.605C138.632 110.638 136.901 109.842 134.82 108.836C130.461 106.729 126.71 105.251 123.358 104.32C121.316 103.752 120.408 103.621 116.432 103.32C113.916 103.129 111.036 103.01 110.032 103.055Z" fill="#6B85FF"/>
</svg>
