<svg width="60" height="60" viewBox="0 0 60 60" fill="none" xmlns="http://www.w3.org/2000/svg">
    <rect width="60" height="60" rx="12" fill="#F3F5FF"/>
    <path fill-rule="evenodd" clip-rule="evenodd" d="M22.2511 20.4165C21.3241 20.5875 20.7129 20.8204 20.1772 21.2066C19.5654 21.6477 18.8125 22.494 18.3186 23.2959C17.1516 25.1908 16.2406 28.2036 15.8504 31.4593C15.7296 32.467 15.7146 34.5534 15.8229 35.267C16.0941 37.0521 16.869 38.1318 18.0356 38.3501C19.5451 38.6325 21.3036 37.7432 24.1625 35.2519C25.0041 34.5185 25.4896 34.2244 26.3198 33.9452C28.3251 33.2707 30.7482 33.2707 32.7534 33.9452C33.5837 34.2244 34.0692 34.5185 34.9108 35.2519C37.5739 37.5726 39.3067 38.5061 40.7294 38.3866C42.9174 38.2028 43.7652 35.6178 43.1598 30.9766C42.7731 28.0121 41.8395 24.9919 40.798 23.3359C39.813 21.7695 38.7961 20.9074 37.496 20.5362C37.1293 20.4315 36.9401 20.4133 36.2285 20.4135C35.2619 20.4138 34.9798 20.4615 32.7645 20.9994C31.0285 21.4208 30.1386 21.5813 29.5366 21.5813C28.944 21.5813 28.122 21.434 26.2946 21.0003C25.4814 20.8073 24.5485 20.6014 24.2216 20.5428C23.641 20.4387 22.5202 20.3668 22.2511 20.4165ZM24.5177 21.8533C24.8591 21.9273 25.5313 22.0856 26.0116 22.2053C28.1739 22.7438 29.1968 22.8949 30.0403 22.8003C30.8423 22.7104 31.3403 22.6138 32.9635 22.2333C35.0523 21.7436 35.2859 21.7044 36.0936 21.707C36.7028 21.7091 36.852 21.728 37.2269 21.8509C38.4153 22.2405 39.2797 23.1218 40.1283 24.809C40.9446 26.4322 41.5371 28.5912 41.9313 31.3788C42.0632 32.3114 42.0679 34.8125 41.9388 35.4011C41.5487 37.1798 40.7417 37.5632 39.0618 36.7679C38.1371 36.3301 37.1956 35.6524 35.7968 34.4177C34.9149 33.6393 34.6097 33.4184 33.9847 33.1063C31.5046 31.8677 27.4993 31.8761 24.9955 33.1251C24.3596 33.4424 23.9436 33.734 23.1955 34.3867C21.5276 35.8422 20.5166 36.5316 19.4898 36.9133C18.6009 37.2439 17.9498 37.1247 17.5703 36.562C17.1387 35.9219 16.9879 34.9764 17.0314 33.1823C17.1257 29.2923 18.419 24.9662 20.0539 23.0722C20.6348 22.3993 21.4281 21.9045 22.1702 21.752C22.7168 21.6398 23.7347 21.6837 24.5177 21.8533ZM22.864 23.8225C22.4694 23.8721 22.0274 24.09 21.7383 24.3774C21.4717 24.6422 21.1719 25.2012 21.1718 25.4335C21.1718 25.5802 21.0882 25.6403 20.884 25.6404C20.6784 25.6404 20.1273 25.9382 19.8817 26.182C19.5814 26.48 19.3354 26.9928 19.2984 27.3977C19.2447 27.9862 19.5229 28.6863 19.9629 29.0702C20.2074 29.2835 20.4287 29.3954 20.8204 29.5036C21.1357 29.5907 21.1445 29.5982 21.1809 29.8098C21.2368 30.1353 21.4555 30.5175 21.7475 30.7996C22.7313 31.7506 24.3104 31.4627 24.9415 30.2173C25.0037 30.0946 25.07 29.8979 25.089 29.78C25.1219 29.5755 25.1342 29.5642 25.3577 29.5308C26.1519 29.4125 26.8715 28.5952 26.933 27.7418C27.0068 26.7159 26.328 25.851 25.2668 25.619C25.1535 25.5943 25.1187 25.548 25.0917 25.3863C25.0362 25.0544 24.8206 24.6627 24.5396 24.3834C24.0984 23.9449 23.4952 23.743 22.864 23.8225ZM35.0138 24.0778C34.1744 24.4567 34.1035 25.646 34.8894 26.1627C35.0857 26.2919 35.1668 26.3107 35.5269 26.3107C35.8871 26.3107 35.9682 26.2919 36.1645 26.1627C36.5033 25.94 36.6786 25.6412 36.7041 25.2433C36.7281 24.8691 36.6532 24.6405 36.4143 24.359C36.1057 23.9952 35.4765 23.8689 35.0138 24.0778ZM23.3429 25.0529C23.4679 25.0874 23.5982 25.1787 23.6865 25.2938C23.8075 25.4514 23.8345 25.5549 23.8674 25.9881C23.922 26.7059 24.0965 26.8738 24.7876 26.8738C25.0279 26.8738 25.2309 26.9048 25.3323 26.9569C25.6668 27.1288 25.8087 27.6213 25.6167 27.9443C25.4695 28.192 25.244 28.2861 24.735 28.3127C24.0422 28.3488 23.8701 28.5159 23.8701 29.1522C23.8701 29.7847 23.6217 30.0911 23.1084 30.0915C22.6395 30.0918 22.413 29.7897 22.413 29.1638C22.413 28.8393 22.3905 28.7336 22.29 28.5853C22.1191 28.3334 21.962 28.2699 21.5064 28.269C20.8846 28.2677 20.5782 28.0326 20.5782 27.5566C20.5782 27.1127 20.8893 26.8738 21.4676 26.8738C22.1663 26.8738 22.4125 26.6392 22.4128 25.9728C22.4131 25.4395 22.5713 25.1597 22.9334 25.0519C23.1402 24.9903 23.1159 24.9903 23.3429 25.0529ZM32.6937 26.4481C32.6046 26.474 32.44 26.5707 32.3279 26.663C31.6493 27.2207 31.7864 28.2899 32.5847 28.6664C32.8084 28.7719 33.2652 28.7873 33.503 28.6974C34.1282 28.461 34.4558 27.699 34.1832 27.1152C33.9201 26.5516 33.2963 26.2723 32.6937 26.4481ZM37.4967 26.4919C36.8641 26.7803 36.605 27.4662 36.8965 28.0805C37.1145 28.5399 37.4654 28.7586 37.9845 28.7586C38.329 28.7586 38.6261 28.6198 38.8681 28.3459C39.0886 28.0963 39.1506 27.9333 39.153 27.5978C39.1589 26.7329 38.2701 26.1394 37.4967 26.4919ZM35.1479 28.8868C34.0585 29.2206 34.094 30.8271 35.1978 31.1461C35.9509 31.3636 36.7094 30.8013 36.713 30.0229C36.7154 29.5073 36.3643 29.0256 35.8824 28.8834C35.5619 28.7888 35.4664 28.7893 35.1479 28.8868Z" fill="#5C77F2"/>
</svg>
