<svg width="60" height="60" viewBox="0 0 60 60" fill="none" xmlns="http://www.w3.org/2000/svg">
    <rect width="60" height="60" rx="12" fill="#F3F5FF"/>
    <path fill-rule="evenodd" clip-rule="evenodd" d="M21.8538 23.3242C18.0639 24.8936 14.8832 26.2229 14.7856 26.2782C14.536 26.4194 14.3928 26.778 14.4667 27.0767C14.4964 27.1966 14.5698 27.3432 14.6299 27.4026C14.6899 27.462 15.8542 27.9715 17.2173 28.5348L19.6956 29.5589L19.7216 32.9479C19.7475 36.329 19.7478 36.3374 19.8664 36.6171C20.3491 37.7562 21.5781 38.559 23.7604 39.1609C25.1911 39.5554 26.777 39.7315 28.9004 39.7315C30.622 39.7315 31.4106 39.6722 32.7168 39.4447C34.0988 39.2039 35.2193 38.8521 36.129 38.3732C37.0654 37.8804 37.6077 37.3572 37.9174 36.648L38.0532 36.3368L38.068 34.2176C38.084 31.937 38.0773 31.8691 37.8173 31.6677C37.6199 31.5147 37.2537 31.5179 37.0711 31.6741C36.783 31.9206 36.7791 31.9529 36.7791 34.0454C36.7791 36.1601 36.7838 36.1243 36.4585 36.4584C36.0438 36.8841 35.0288 37.4071 34.0749 37.6864C33.3748 37.8914 32.3136 38.0946 31.3446 38.2091C30.2048 38.3438 27.6213 38.3451 26.4667 38.2117C24.0977 37.9377 22.3711 37.3656 21.445 36.5476C20.9944 36.1497 21.0221 36.3773 21.0219 33.0628C21.0217 30.295 21.0268 30.1299 21.1127 30.1566C21.1628 30.1722 22.8973 30.8881 24.9673 31.7474C27.097 32.6316 28.8041 33.3099 28.8997 33.3099C29.0942 33.3099 42.9173 27.6016 43.1211 27.437C43.4059 27.2073 43.4221 26.6908 43.1536 26.3988C43.0052 26.2374 29.1211 20.4654 28.8892 20.4688C28.8095 20.4699 25.6436 21.7549 21.8538 23.3242ZM34.9254 24.4485L40.8465 26.9021L40.4379 27.0716C40.2132 27.1649 37.5253 28.2757 34.4647 29.5401L28.9 31.839L23.0757 29.4338C19.8723 28.111 17.1856 26.9997 17.1052 26.9643C16.9706 26.9051 17.4325 26.7038 22.9293 24.4259C26.213 23.0651 28.9232 21.9615 28.952 21.9734C28.9808 21.9852 31.6689 23.0991 34.9254 24.4485Z" fill="#5C77F2"/>
</svg>
