<svg width="16" height="16" viewBox="0 0 16 16" fill="none" xmlns="http://www.w3.org/2000/svg">
<path d="M4.13205 1.53056C3.972 0.77758 4.869 0.259699 5.44108 0.774798L8.34319 3.38787C8.59903 3.61823 8.97411 3.65765 9.27225 3.48552L12.6542 1.53293C13.3209 1.14803 14.0906 1.84109 13.7775 2.54434L12.1891 6.1119C12.0491 6.4264 12.1275 6.7953 12.3834 7.02566L15.2855 9.63873C15.8576 10.1538 15.4363 11.1001 14.6707 11.0196L10.7869 10.6114C10.4445 10.5754 10.1179 10.764 9.97788 11.0785L8.3895 14.646C8.07639 15.3493 7.0463 15.241 6.88625 14.488L6.07432 10.6682C6.00274 10.3314 5.72247 10.0791 5.38009 10.0431L1.49631 9.6349C0.730718 9.55444 0.515371 8.5413 1.18204 8.1564L4.56402 6.20381C4.86217 6.03168 5.01556 5.68715 4.94399 5.3504L4.13205 1.53056Z" fill="#5C77F2"/>
</svg>
