<svg width="52" height="52" viewBox="0 0 52 52" fill="none" xmlns="http://www.w3.org/2000/svg">
    <rect width="52" height="52" rx="16" fill="#F3F5FF"/>
    <path fill-rule="evenodd" clip-rule="evenodd" d="M13.9686 15.0608C13.2144 15.1709 12.5431 15.6922 12.2004 16.4339L12 16.8675V25.7637V34.6599L12.2004 35.0935C12.5562 35.8635 13.2051 36.351 14.0333 36.4708C14.6246 36.5563 37.3754 36.5563 37.9667 36.4708C38.7949 36.351 39.4438 35.8635 39.7996 35.0935L40 34.6599V25.7637V16.8675L39.7996 16.4339C39.4438 15.6639 38.7949 15.1764 37.9667 15.0566C37.4265 14.9785 14.5049 14.9825 13.9686 15.0608ZM37.9919 17.0203C38.1161 17.1327 38.1215 17.4965 38.1215 25.7514C38.1215 33.6672 38.112 34.3757 38.0042 34.4948C37.8914 34.6194 37.4262 34.6245 26.0123 34.6245C15.0623 34.6245 14.1276 34.6153 14.0081 34.5072C13.8839 34.3947 13.8785 34.0309 13.8785 25.776C13.8785 17.8603 13.888 17.1517 13.9958 17.0326C14.1086 16.908 14.5738 16.903 25.9877 16.903C36.9377 16.903 37.8724 16.9121 37.9919 17.0203ZM15.7431 28.2416C15.1944 28.5762 15.1031 29.2519 15.5466 29.6955L15.7972 29.946H17.8054C19.7347 29.946 19.8212 29.9402 20.002 29.798C20.3967 29.4875 20.4994 29.0304 20.2705 28.6035C20.0168 28.1305 19.8815 28.103 17.8138 28.1032C16.1109 28.1034 15.9523 28.1141 15.7431 28.2416ZM22.2384 28.2635C21.9345 28.4684 21.8201 28.6925 21.8188 29.086C21.8179 29.3518 21.8566 29.4345 22.0929 29.6708L22.3682 29.946L29.2347 29.9457C35.8704 29.9455 36.1087 29.9409 36.3235 29.81C36.4656 29.7233 36.5897 29.5594 36.6676 29.3553C36.8171 28.9639 36.7402 28.6576 36.4139 28.345L36.1983 28.1384L29.339 28.1196L22.4797 28.1009L22.2384 28.2635ZM15.7431 31.5024C15.6185 31.5784 15.4617 31.7242 15.3946 31.8267C15.2349 32.0704 15.2382 32.5561 15.4013 32.805C15.6776 33.2268 15.3114 33.2067 22.7425 33.2067C28.9244 33.2067 29.5761 33.196 29.7541 33.0908C30.1755 32.8419 30.3099 32.2472 30.0433 31.8102C29.7553 31.3376 30.1825 31.3637 22.7251 31.364C16.1541 31.3642 15.9635 31.368 15.7431 31.5024ZM32.1006 31.4932C31.4978 31.8165 31.4449 32.6236 31.998 33.0587C32.1784 33.2007 32.2662 33.2067 34.1296 33.2067C36.2442 33.2067 36.3464 33.1901 36.5987 32.805C36.7618 32.5561 36.7651 32.0704 36.6054 31.8267C36.5383 31.7242 36.3815 31.5784 36.2569 31.5024C36.0477 31.3748 35.8891 31.3642 34.1862 31.364C32.5353 31.3637 32.3168 31.3772 32.1006 31.4932Z" fill="#5C77F2"/>
</svg>
