<svg width="46" height="46" viewBox="0 0 46 46" fill="none" xmlns="http://www.w3.org/2000/svg">
<path d="M24.4952 4.93306C24.155 4.95982 23.8236 5.05503 23.5207 5.21305L11.5338 12.7726C11.3012 12.92 11.0981 13.11 10.9351 13.3326C10.6388 13.1586 10.3036 13.0623 9.96057 13.0526H8.0254C7.69082 13.0824 7.36546 13.1787 7.06825 13.3361C6.77103 13.4934 6.5079 13.7086 6.29414 13.9691C6.08039 14.2297 5.92028 14.5303 5.82313 14.8537C5.72599 15.177 5.69374 15.5165 5.72827 15.8525V29.4317C5.68053 30.1057 5.89242 30.7723 6.32005 31.2935C6.74768 31.8147 7.35828 32.1506 8.0254 32.2315H9.96057C10.3008 32.2048 10.6322 32.1096 10.9351 31.9516C11.0668 32.2003 11.2776 32.3974 11.5338 32.5115L23.5207 39.6511C23.7796 39.8067 24.0697 39.9023 24.3699 39.9311C24.6388 39.924 24.9028 39.8576 25.1433 39.7367C25.3839 39.6157 25.5951 39.4432 25.7621 39.2312C26.1385 38.7518 26.3488 38.1619 26.3608 37.5513V7.17294C26.4176 6.89771 26.4118 6.6131 26.3436 6.34047C26.2755 6.06784 26.1469 5.81425 25.9674 5.59874C25.7879 5.38323 25.5622 5.21139 25.3072 5.0961C25.0523 4.98081 24.7746 4.92507 24.4952 4.93306Z" fill="currentColor"/>
<path d="M24.6192 5.35326C24.2789 5.38001 23.9475 5.47523 23.6446 5.63324L11.5463 13.1648C11.3137 13.3122 11.1107 13.5022 10.9477 13.7248C10.6513 13.5508 10.3162 13.4545 9.97315 13.4448H8.02406C7.33571 13.4986 6.69598 13.8223 6.24281 14.3461C5.78964 14.8698 5.55936 15.5517 5.60162 16.2447V29.8239C5.55936 30.5168 5.78964 31.1987 6.24281 31.7225C6.69598 32.2463 7.33571 32.5699 8.02406 32.6237H9.95922C10.2994 32.597 10.6308 32.5018 10.9338 32.3438C11.0654 32.5925 11.2762 32.7896 11.5324 32.9037L23.6446 40.0433C23.9035 40.1989 24.1936 40.2945 24.4939 40.3233C24.7627 40.3162 25.0267 40.2498 25.2673 40.1289C25.5079 40.0079 25.7191 39.8354 25.8861 39.6234C26.2839 39.1562 26.4969 38.5583 26.4847 37.9434V7.56513C26.5405 7.29458 26.5357 7.01494 26.4707 6.74648C26.4056 6.47803 26.282 6.2275 26.1087 6.01305C25.9354 5.79861 25.7169 5.62563 25.4689 5.50667C25.2209 5.3877 24.9496 5.32574 24.6748 5.32526L24.6192 5.35326Z" fill="currentColor"/>
<path d="M24.73 6.51425C24.4297 6.54307 24.1397 6.63871 23.8807 6.79424L12.6178 13.7938C12.392 13.9134 12.2184 14.1129 12.1305 14.3538C11.8627 14.2392 11.5714 14.1912 11.2813 14.2138H9.4714C8.84939 14.2569 8.26981 14.5465 7.85998 15.019C7.45015 15.4914 7.24358 16.1082 7.28564 16.7337V29.193C7.24358 29.8185 7.45015 30.4352 7.85998 30.9077C8.26981 31.3802 8.84939 31.6698 9.4714 31.7129H11.2813C11.5179 31.7129 11.8799 31.5729 12.1305 31.5729C12.3016 31.7881 12.5033 31.9768 12.7292 32.1328L23.9921 38.7125C24.2427 38.8857 24.5374 38.9829 24.8414 38.9925C25.352 38.9395 25.8234 38.6928 26.1596 38.3027C26.4958 37.9126 26.6716 37.4084 26.6512 36.8926V9.03411C26.5538 7.4942 25.8159 6.51425 24.73 6.51425Z" fill="currentColor"/>
<path d="M32.3992 14.2972C32.2738 14.1047 32.1093 13.9422 31.9171 13.8209C31.7248 13.6996 31.5093 13.6222 31.2852 13.5942C30.9273 13.6096 30.5893 13.7672 30.3426 14.0336L30.2569 14.1214C30.045 14.3727 29.9147 14.6854 29.8839 15.0161C29.8532 15.3468 29.9237 15.6791 30.0855 15.9669C31.4734 18.3434 32.2064 21.0617 32.2064 23.8318C32.2064 26.602 31.4734 29.3202 30.0855 31.6968C29.9224 31.9842 29.8512 32.3167 29.882 32.6478C29.9127 32.9788 30.0439 33.2916 30.2569 33.5422L30.3426 33.6301C30.5893 33.8965 30.9273 34.0541 31.2852 34.0695C31.5141 34.06 31.7367 33.9903 31.9318 33.8672C32.1268 33.7441 32.2878 33.5717 32.3992 33.3665C34.0815 30.4853 34.9699 27.19 34.9699 23.8318C34.9699 20.4736 34.0815 17.1784 32.3992 14.2972Z" fill="currentColor"/>
<path d="M38.7007 12.2758C38.5842 12.049 38.4126 11.857 38.2023 11.7184C37.9921 11.5798 37.7505 11.4993 37.501 11.4849C37.3006 11.4798 37.1021 11.5252 36.9228 11.6172C36.7435 11.7091 36.589 11.8447 36.4727 12.0121L36.387 12.1879C36.1389 12.4726 35.988 12.8325 35.9571 13.213C35.9262 13.5935 36.0169 13.974 36.2156 14.2969C37.7349 17.2335 38.5293 20.5072 38.5293 23.8316C38.5293 27.1559 37.7349 30.4296 36.2156 33.3662C36.0523 33.6999 35.9819 34.0733 36.0121 34.4454C36.0424 34.8175 36.1721 35.1739 36.387 35.4752L36.4727 35.651C36.5951 35.8118 36.7509 35.9426 36.9288 36.0338C37.1067 36.125 37.3021 36.1744 37.501 36.1783C37.7567 36.1926 38.0103 36.124 38.2257 35.982C38.441 35.84 38.6073 35.6319 38.7007 35.3874C40.5571 31.8331 41.5285 27.8636 41.5285 23.8316C41.5285 19.7996 40.5571 15.83 38.7007 12.2758Z" fill="currentColor"/>
</svg>
