<svg width="13" height="15" viewBox="0 0 13 15" fill="none" xmlns="http://www.w3.org/2000/svg">
<path d="M0.930753 15V0.454545H6.3853C7.50272 0.454545 8.44022 0.648674 9.1978 1.03693C9.96011 1.42519 10.5354 1.9697 10.9237 2.67045C11.3166 3.36648 11.5131 4.1785 11.5131 5.10653C11.5131 6.0393 11.3143 6.84896 10.9165 7.53551C10.5236 8.21733 9.94354 8.74526 9.17649 9.11932C8.40945 9.48864 7.46721 9.6733 6.34979 9.6733H2.46484V7.4858H5.99467C6.64808 7.4858 7.18312 7.39583 7.59979 7.21591C8.01645 7.03125 8.32422 6.76373 8.52308 6.41335C8.72668 6.05824 8.82848 5.62263 8.82848 5.10653C8.82848 4.59044 8.72668 4.15009 8.52308 3.78551C8.31948 3.41619 8.00935 3.13684 7.59268 2.94744C7.17602 2.75331 6.63861 2.65625 5.98047 2.65625H3.5657V15H0.930753ZM8.44496 8.40909L12.0458 15H9.10547L5.56854 8.40909H8.44496Z" fill="white"/>
</svg>
