<svg width="16" height="11" viewBox="0 0 16 11" fill="none" xmlns="http://www.w3.org/2000/svg">
<path fill-rule="evenodd" clip-rule="evenodd" d="M14.8077 0.319916C14.723 0.507935 14.8077 0.730138 15.0196 0.866879L14.2357 2.45649C14.1298 2.45649 14.0451 2.45649 13.918 2.47358L13.2613 0.901063C13.5578 0.764323 13.6002 0.490842 13.4943 0.285731C13.3884 0.0806201 13.0494 -0.039028 12.774 0.0122497C12.4351 0.0806199 12.2444 0.354101 12.3504 0.627582C12.4139 0.798508 12.6257 0.952341 12.9435 0.969434L13.3036 2.54195C12.774 2.6616 12.4775 3.106 12.4351 3.67006C12.3292 4.86654 11.736 5.49896 10.465 6.04593C9.19392 6.01174 8.87615 2.26847 4.53341 2.49067C1.82184 2.6445 -1.09254e-06 4.16574 -1.66186e-06 6.3365C-2.00256e-06 7.63553 0.995652 8.84911 2.33025 9.48153C1.48289 9.53281 0.296575 9.99431 -2.84982e-06 10.866L13.1765 10.866C13.0494 10.3191 12.7105 10.1481 12.3715 9.94303C15.5068 8.90039 15.9305 5.92628 15.8457 3.85808C15.8034 3.17438 15.4221 2.71288 14.7865 2.54195L15.3373 0.952342C15.6763 0.969434 15.8881 0.798509 15.9517 0.61049C16.0364 0.422472 15.9305 0.131898 15.5915 0.029343C15.2738 -0.05612 14.9348 0.0464354 14.8077 0.319916Z" fill="white"/>
</svg>
