<svg width="22" height="22" viewBox="0 0 22 22" fill="none" xmlns="http://www.w3.org/2000/svg">
<path d="M14.8904 5.33822C13.7848 4.57605 12.4464 4.125 11.0002 4.125C8.25154 4.125 5.88767 5.7405 4.78817 8.06882L1.85936 5.75662C3.67905 2.5907 7.08923 0.458333 11.0002 0.458332C13.4905 0.458332 15.7727 1.32859 17.5769 2.77519L14.8904 5.33822Z" fill="#F44336" stroke="#6B85FF" stroke-width="0.916667"/>
<path d="M21.45 12.3188L21.4499 12.3197C21.138 14.8116 19.9563 17.0326 18.2184 18.6717L15.2721 16.3457C16.2019 15.5907 16.9338 14.5988 17.3735 13.4562L17.6131 12.8333L16.9457 12.8333L11.4583 12.8333L11.4583 9.16659L21.3796 9.16658C21.485 9.76271 21.5417 10.3748 21.5417 10.9999C21.5417 11.4416 21.5057 11.8813 21.45 12.3188Z" fill="#2196F3" stroke="#6B85FF" stroke-width="0.916667"/>
<path d="M4.58333 11C4.58333 10.2269 4.72712 9.48902 4.97772 8.80259L1.27032 5.87573C0.462306 7.40672 2.86116e-07 9.14852 4.47981e-07 11C6.08036e-07 12.8309 0.453802 14.5534 1.24503 16.0719L4.95713 13.1413C4.7194 12.4708 4.58333 11.7521 4.58333 11Z" fill="#FFC107"/>
<path d="M11.0001 17.4167C8.20835 17.4167 5.83964 15.6306 4.95721 13.1414L1.24512 16.072C3.0794 19.5924 6.75575 22.0001 11.0001 22.0001C13.7755 22.0001 16.3064 20.969 18.2394 19.2723L14.5183 16.3346C13.5129 17.0124 12.3095 17.4167 11.0001 17.4167Z" fill="#00B060"/>
<path opacity="0.1" d="M10.9994 21.7709C7.76201 21.7709 4.85105 20.4352 2.79297 18.3071C4.80763 20.5681 7.73281 22.0001 10.9994 22.0001C14.2357 22.0001 17.1367 20.5963 19.1468 18.3708C17.0948 20.4643 14.206 21.7709 10.9994 21.7709Z" fill="black"/>
<path opacity="0.1" d="M11 13.0625L11 13.2917L16.9457 13.2917L17.0385 13.0625L11 13.0625Z" fill="black"/>
<path d="M21.9952 11.1347C21.9959 11.0895 22.0003 11.0452 22.0003 10.9999C22.0003 10.9871 21.9983 10.9747 21.9982 10.9619C21.9976 11.0197 21.9947 11.0767 21.9952 11.1347Z" fill="#E6E6E6"/>
<path opacity="0.2" d="M11 8.70825L11 8.93742L21.8034 8.93742C21.789 8.86177 21.7732 8.78333 21.7573 8.70825L11 8.70825Z" fill="white"/>
<path d="M21.7573 8.70833L11 8.70833L11 13.2917L16.9457 13.2917C16.0211 15.6948 13.7291 17.4167 11 17.4167C7.4562 17.4167 4.58333 14.5438 4.58333 11C4.58333 7.45614 7.4562 4.58333 11 4.58333C12.285 4.58333 13.4694 4.97811 14.4728 5.62896C14.6264 5.72877 14.7848 5.82249 14.9291 5.93455L18.2632 2.75375L18.188 2.6959C16.2589 1.02398 13.7532 -1.20235e-06 11 -9.61651e-07C4.92485 -4.30544e-07 4.30544e-07 4.92485 9.61651e-07 11C1.49275e-06 17.0751 4.92485 22 11 22C16.6079 22 21.2258 17.8005 21.9047 12.3767C21.962 11.926 22 11.4663 22 11C22 10.2136 21.9141 9.44792 21.7573 8.70833Z" fill="url(#paint0_linear_841_4858)"/>
<path opacity="0.1" d="M14.4725 5.39995C13.4691 4.7491 12.2847 4.35432 10.9997 4.35432C7.45587 4.35432 4.58301 7.22713 4.58301 10.771C4.58301 10.8097 4.58353 10.8399 4.5842 10.8784C4.64602 7.38804 7.49453 4.58349 10.9997 4.58349C12.2847 4.58349 13.4691 4.97827 14.4725 5.62912C14.6261 5.72893 14.7845 5.82265 14.9288 5.93471L18.2628 2.75391L14.9288 5.70555C14.7845 5.59348 14.6261 5.49977 14.4725 5.39995Z" fill="black"/>
<path opacity="0.2" d="M11 0.229166C13.7271 0.229165 16.2093 1.23602 18.131 2.8798L18.2632 2.75375L18.1623 2.66592C16.2332 0.993994 13.7532 -1.20235e-06 11 -9.61651e-07C4.92485 -4.30544e-07 4.30544e-07 4.92485 9.61651e-07 11C9.6503e-07 11.0387 0.00537209 11.076 0.00576369 11.1146C0.0678664 5.09286 4.96351 0.229166 11 0.229166Z" fill="white"/>
<defs>
<linearGradient id="paint0_linear_841_4858" x1="9.61651e-07" y1="11" x2="22" y2="11" gradientUnits="userSpaceOnUse">
<stop stop-color="white" stop-opacity="0.2"/>
<stop offset="1" stop-color="white" stop-opacity="0"/>
</linearGradient>
</defs>
</svg>
