<svg width="140" height="160" viewBox="0 0 140 160" fill="none" xmlns="http://www.w3.org/2000/svg">
<g clip-path="url(#clip0_5789_114613)">
<path d="M0 0H140V160H0V0Z" fill="#8CA0FF"/>
<path fill-rule="evenodd" clip-rule="evenodd" d="M32.5212 45.8302C31.6118 46.596 31.5 50.9933 31.5 86C31.5 121.007 31.6118 125.404 32.5212 126.17C33.738 127.193 35.4904 127.281 36.57 126.373C37.6984 125.423 37.6984 46.5769 36.57 45.6272C35.4904 44.7185 33.738 44.8066 32.5212 45.8302ZM44.3375 52.6733C43.2741 53.1946 43.2 55.3703 43.2 86.0388V118.847L44.8224 119.469C46.1627 119.983 46.671 119.919 47.7474 119.099C49.0227 118.128 49.05 117.434 49.05 86C49.05 55.5902 48.9869 53.8456 47.8612 52.9879C46.4968 51.9484 45.9209 51.897 44.3375 52.6733ZM90.4875 59.785C89.43 60.3036 89.35 62.1418 89.35 86.0082C89.35 111.113 89.3786 111.686 90.65 112.259C91.5737 112.674 92.3264 112.674 93.25 112.259C94.5214 111.686 94.55 111.113 94.55 86C94.55 61.1778 94.5084 60.308 93.2929 59.7604C91.7966 59.0864 91.9149 59.0854 90.4875 59.785ZM21.1722 62.6768C20.6431 63.2134 20.4832 69.8613 20.6054 86.2774C20.762 107.357 20.8634 109.178 21.9125 109.735C22.7419 110.175 23.3581 110.175 24.1875 109.735C25.2366 109.178 25.338 107.357 25.4947 86.2774C25.6702 62.6554 25.5974 61.9295 23.05 61.9295C22.4228 61.9295 21.5778 62.2659 21.1722 62.6768ZM56.0375 64.7085C54.9858 65.2239 54.9 66.8311 54.9 86.0082C54.9 106.19 54.9351 106.766 56.2 107.335C57.1237 107.751 57.8764 107.751 58.8 107.335C60.0649 106.766 60.1 106.19 60.1 86C60.1 66.0455 60.0519 65.2288 58.8429 64.6839C57.3466 64.01 57.4649 64.0089 56.0375 64.7085ZM78.7875 64.7085C77.7358 65.2244 77.65 66.8328 77.65 86.0388V106.812L79.2724 107.434C80.6127 107.948 81.121 107.883 82.1974 107.064C83.4558 106.105 83.5 105.39 83.5 86C83.5 67.2496 83.422 65.8689 82.3112 65.0231C80.9468 63.9837 80.3709 63.9323 78.7875 64.7085ZM101.073 67.911C100.65 68.5757 100.4 75.3067 100.4 86C100.4 96.6933 100.65 103.424 101.073 104.089C101.825 105.272 104.276 105.495 105.47 104.491C106.587 103.551 106.587 68.4493 105.47 67.5095C104.276 66.5045 101.825 66.7283 101.073 67.911ZM9.53 72.433C8.9671 72.9067 8.75 76.688 8.75 86C8.75 99.5555 8.88715 100.223 11.675 100.223C14.4629 100.223 14.6 99.5555 14.6 86C14.6 72.4445 14.4629 71.7765 11.675 71.7765C10.9243 71.7765 9.959 72.0719 9.53 72.433ZM66.73 72.433C66.1671 72.9067 65.95 76.688 65.95 86C65.95 99.5555 66.0872 100.223 68.875 100.223C71.6629 100.223 71.8 99.5555 71.8 86C71.8 72.4445 71.6629 71.7765 68.875 71.7765C68.1243 71.7765 67.159 72.0719 66.73 72.433ZM-1.92885 74.8242C-3.4479 76.1032 -3.4479 95.8968 -1.92885 97.1758C-0.712049 98.1994 1.04035 98.2874 2.12 97.3788C3.22175 96.4515 3.22175 75.5485 2.12 74.6212C1.04035 73.7126 -0.712049 73.8006 -1.92885 74.8242ZM112.88 74.6212C111.778 75.5485 111.778 96.4515 112.88 97.3788C113.96 98.2874 115.712 98.1994 116.929 97.1758C117.785 96.4548 117.95 94.649 117.95 86C117.95 77.351 117.785 75.5452 116.929 74.8242C115.712 73.8006 113.96 73.7126 112.88 74.6212ZM-13.22 79.5447C-13.7289 79.9731 -14 82.2286 -14 86.0427C-14 92.4673 -13.4488 93.5259 -10.4334 92.8891C-8.8039 92.5444 -8.8 92.5297 -8.8 86.0481C-8.8 80.6295 -8.9703 79.4971 -9.8283 79.2203C-11.3714 78.722 -12.3542 78.816 -13.22 79.5447ZM124.613 79.2504C124.026 79.4495 123.8 81.3402 123.8 86.035C123.8 92.5302 123.803 92.5444 125.433 92.8891C128.449 93.5259 129 92.4673 129 86.0427C129 79.2537 128.209 78.0294 124.613 79.2504Z" fill="#6B85FF"/>
<path fill-rule="evenodd" clip-rule="evenodd" d="M33.5212 39.8302C32.6118 40.596 32.5 44.9933 32.5 80C32.5 115.007 32.6118 119.404 33.5212 120.17C34.738 121.193 36.4904 121.281 37.57 120.373C38.6984 119.423 38.6984 40.5769 37.57 39.6272C36.4904 38.7185 34.738 38.8066 33.5212 39.8302ZM45.3375 46.6733C44.2741 47.1946 44.2 49.3703 44.2 80.0388V112.847L45.8224 113.469C47.1627 113.983 47.671 113.919 48.7474 113.099C50.0227 112.128 50.05 111.434 50.05 80C50.05 49.5902 49.9869 47.8456 48.8612 46.9879C47.4968 45.9484 46.9209 45.897 45.3375 46.6733ZM91.4875 53.785C90.43 54.3036 90.35 56.1418 90.35 80.0082C90.35 105.113 90.3786 105.686 91.65 106.259C92.5737 106.674 93.3264 106.674 94.25 106.259C95.5214 105.686 95.55 105.113 95.55 80C95.55 55.1778 95.5084 54.308 94.2929 53.7604C92.7966 53.0864 92.9149 53.0854 91.4875 53.785ZM22.1722 56.6768C21.6431 57.2134 21.4832 63.8613 21.6054 80.2774C21.762 101.357 21.8634 103.178 22.9125 103.735C23.7419 104.175 24.3581 104.175 25.1875 103.735C26.2366 103.178 26.338 101.357 26.4947 80.2774C26.6702 56.6554 26.5974 55.9295 24.05 55.9295C23.4228 55.9295 22.5778 56.2659 22.1722 56.6768ZM57.0375 58.7085C55.9858 59.2239 55.9 60.8311 55.9 80.0082C55.9 100.19 55.9351 100.766 57.2 101.335C58.1237 101.751 58.8764 101.751 59.8 101.335C61.0649 100.766 61.1 100.19 61.1 80C61.1 60.0455 61.0519 59.2288 59.8429 58.6839C58.3466 58.01 58.4649 58.0089 57.0375 58.7085ZM79.7875 58.7085C78.7358 59.2244 78.65 60.8328 78.65 80.0388V100.812L80.2724 101.434C81.6127 101.948 82.121 101.883 83.1974 101.064C84.4558 100.105 84.5 99.3904 84.5 80C84.5 61.2496 84.422 59.8689 83.3112 59.0231C81.9468 57.9837 81.3709 57.9323 79.7875 58.7085ZM102.073 61.911C101.65 62.5757 101.4 69.3067 101.4 80C101.4 90.6933 101.65 97.4243 102.073 98.089C102.825 99.2717 105.276 99.4955 106.47 98.4905C107.587 97.5507 107.587 62.4493 106.47 61.5095C105.276 60.5045 102.825 60.7283 102.073 61.911ZM10.53 66.433C9.9671 66.9067 9.75 70.688 9.75 80C9.75 93.5555 9.88715 94.2235 12.675 94.2235C15.4629 94.2235 15.6 93.5555 15.6 80C15.6 66.4445 15.4629 65.7765 12.675 65.7765C11.9243 65.7765 10.959 66.0719 10.53 66.433ZM67.73 66.433C67.1671 66.9067 66.95 70.688 66.95 80C66.95 93.5555 67.0872 94.2235 69.875 94.2235C72.6629 94.2235 72.8 93.5555 72.8 80C72.8 66.4445 72.6629 65.7765 69.875 65.7765C69.1243 65.7765 68.159 66.0719 67.73 66.433ZM-0.92885 68.8242C-2.4479 70.1032 -2.4479 89.8968 -0.92885 91.1758C0.287951 92.1994 2.04035 92.2874 3.12 91.3788C4.22175 90.4515 4.22175 69.5485 3.12 68.6212C2.04035 67.7126 0.287951 67.8006 -0.92885 68.8242ZM113.88 68.6212C112.778 69.5485 112.778 90.4515 113.88 91.3788C114.96 92.2874 116.712 92.1994 117.929 91.1758C118.785 90.4548 118.95 88.649 118.95 80C118.95 71.351 118.785 69.5452 117.929 68.8242C116.712 67.8006 114.96 67.7126 113.88 68.6212ZM-12.22 73.5447C-12.7289 73.9731 -13 76.2286 -13 80.0427C-13 86.4673 -12.4488 87.5259 -9.43345 86.8891C-7.8039 86.5444 -7.8 86.5297 -7.8 80.0481C-7.8 74.6295 -7.9703 73.4971 -8.8283 73.2203C-10.3714 72.722 -11.3542 72.816 -12.22 73.5447ZM125.613 73.2504C125.026 73.4495 124.8 75.3402 124.8 80.035C124.8 86.5302 124.803 86.5444 126.433 86.8891C129.449 87.5259 130 86.4673 130 80.0427C130 73.2537 129.209 72.0294 125.613 73.2504Z" fill="white"/>
</g>
<defs>
<clipPath id="clip0_5789_114613">
<rect width="140" height="160" fill="white"/>
</clipPath>
</defs>
</svg>
