<svg width="140" height="160" viewBox="0 0 140 160" fill="none" xmlns="http://www.w3.org/2000/svg">
<path d="M0 0H140V160H0V0Z" fill="#8CA0FF"/>
<rect x="34.2" y="68.2" width="72.6" height="21.6" rx="3.8" fill="#F8FAFF" stroke="#6B85FF" stroke-width="1.6" stroke-linecap="round"/>
<path d="M77.3327 75L69.9993 82.3333L66.666 79" stroke="#5C77F2" stroke-width="1.8" stroke-linecap="round" stroke-linejoin="round"/>
<rect x="35" y="93" width="71" height="20" rx="3" fill="#F3F5FF"/>
<rect x="35" y="117" width="71" height="20" rx="3" fill="#F3F5FF"/>
<path d="M39.1513 43V31.3636H43.2195C44.0301 31.3636 44.6986 31.5038 45.2251 31.7841C45.7517 32.0606 46.1437 32.4337 46.4013 32.9034C46.6589 33.3693 46.7876 33.8864 46.7876 34.4545C46.7876 34.9545 46.6986 35.3674 46.5206 35.6932C46.3464 36.0189 46.1153 36.2765 45.8274 36.4659C45.5433 36.6553 45.2346 36.7955 44.9013 36.8864V37C45.2573 37.0227 45.6153 37.1477 45.9751 37.375C46.335 37.6023 46.6361 37.928 46.8786 38.3523C47.121 38.7765 47.2422 39.2955 47.2422 39.9091C47.2422 40.4924 47.1096 41.017 46.8445 41.483C46.5793 41.9489 46.1607 42.3182 45.5888 42.5909C45.0168 42.8636 44.2725 43 43.3558 43H39.1513ZM40.5604 41.75H43.3558C44.2763 41.75 44.9297 41.572 45.3161 41.2159C45.7062 40.8561 45.9013 40.4205 45.9013 39.9091C45.9013 39.5152 45.8009 39.1515 45.6001 38.8182C45.3994 38.4811 45.1134 38.2121 44.7422 38.0114C44.371 37.8068 43.9316 37.7045 43.424 37.7045H40.5604V41.75ZM40.5604 36.4773H43.174C43.5982 36.4773 43.9808 36.3939 44.3217 36.2273C44.6664 36.0606 44.9392 35.8258 45.1399 35.5227C45.3445 35.2197 45.4467 34.8636 45.4467 34.4545C45.4467 33.9432 45.2687 33.5095 44.9126 33.1534C44.5566 32.7936 43.9922 32.6136 43.2195 32.6136H40.5604V36.4773ZM54.8757 39.4318V34.2727H56.2166V43H54.8757V41.5227H54.7848C54.5803 41.9659 54.2621 42.3428 53.8303 42.6534C53.3984 42.9602 52.853 43.1136 52.1939 43.1136C51.6484 43.1136 51.1636 42.9943 50.7393 42.7557C50.3151 42.5133 49.9818 42.1496 49.7393 41.6648C49.4969 41.1761 49.3757 40.5606 49.3757 39.8182V34.2727H50.7166V39.7273C50.7166 40.3636 50.8946 40.8712 51.2507 41.25C51.6106 41.6288 52.0689 41.8182 52.6257 41.8182C52.959 41.8182 53.2981 41.733 53.6428 41.5625C53.9912 41.392 54.2829 41.1307 54.5178 40.7784C54.7564 40.4261 54.8757 39.9773 54.8757 39.4318ZM62.468 34.2727V35.4091H57.9453V34.2727H62.468ZM59.2635 32.1818H60.6044V40.5C60.6044 40.8788 60.6593 41.1629 60.7692 41.3523C60.8828 41.5379 61.0268 41.6629 61.201 41.7273C61.379 41.7879 61.5665 41.8182 61.7635 41.8182C61.9112 41.8182 62.0324 41.8106 62.1271 41.7955C62.2218 41.7765 62.2976 41.7614 62.3544 41.75L62.6271 42.9545C62.5362 42.9886 62.4093 43.0227 62.2464 43.0568C62.0836 43.0947 61.8771 43.1136 61.6271 43.1136C61.2483 43.1136 60.8771 43.0322 60.5135 42.8693C60.1536 42.7064 59.8544 42.4583 59.6158 42.125C59.3809 41.7917 59.2635 41.3712 59.2635 40.8636V32.1818ZM68.2805 34.2727V35.4091H63.7578V34.2727H68.2805ZM65.076 32.1818H66.4169V40.5C66.4169 40.8788 66.4718 41.1629 66.5817 41.3523C66.6953 41.5379 66.8393 41.6629 67.0135 41.7273C67.1915 41.7879 67.379 41.8182 67.576 41.8182C67.7237 41.8182 67.8449 41.8106 67.9396 41.7955C68.0343 41.7765 68.1101 41.7614 68.1669 41.75L68.4396 42.9545C68.3487 42.9886 68.2218 43.0227 68.0589 43.0568C67.8961 43.0947 67.6896 43.1136 67.4396 43.1136C67.0608 43.1136 66.6896 43.0322 66.326 42.8693C65.9661 42.7064 65.6669 42.4583 65.4283 42.125C65.1934 41.7917 65.076 41.3712 65.076 40.8636V32.1818ZM73.8629 43.1818C73.022 43.1818 72.2966 42.9962 71.6868 42.625C71.0807 42.25 70.6129 41.7273 70.2834 41.0568C69.9576 40.3826 69.7947 39.5985 69.7947 38.7045C69.7947 37.8106 69.9576 37.0227 70.2834 36.3409C70.6129 35.6553 71.0713 35.1212 71.6584 34.7386C72.2493 34.3523 72.9387 34.1591 73.7266 34.1591C74.1811 34.1591 74.63 34.2348 75.0732 34.3864C75.5163 34.5379 75.9197 34.7841 76.2834 35.125C76.647 35.4621 76.9368 35.9091 77.1527 36.4659C77.3686 37.0227 77.4766 37.7083 77.4766 38.5227V39.0909H70.7493V37.9318H76.1129C76.1129 37.4394 76.0144 37 75.8175 36.6136C75.6243 36.2273 75.3478 35.9223 74.9879 35.6989C74.6319 35.4754 74.2114 35.3636 73.7266 35.3636C73.1925 35.3636 72.7304 35.4962 72.3402 35.7614C71.9538 36.0227 71.6565 36.3636 71.4482 36.7841C71.2398 37.2045 71.1357 37.6553 71.1357 38.1364V38.9091C71.1357 39.5682 71.2493 40.1269 71.4766 40.5852C71.7076 41.0398 72.0277 41.3864 72.4368 41.625C72.8459 41.8598 73.3213 41.9773 73.8629 41.9773C74.2152 41.9773 74.5334 41.928 74.8175 41.8295C75.1054 41.7273 75.3535 41.5758 75.5618 41.375C75.7701 41.1705 75.9311 40.9167 76.0447 40.6136L77.3402 40.9773C77.2038 41.4167 76.9747 41.803 76.6527 42.1364C76.3307 42.4659 75.933 42.7235 75.4595 42.9091C74.986 43.0909 74.4538 43.1818 73.8629 43.1818ZM79.5163 43V34.2727H80.8118V35.5909H80.9027C81.0618 35.1591 81.3497 34.8087 81.7663 34.5398C82.183 34.2708 82.6527 34.1364 83.1754 34.1364C83.2739 34.1364 83.397 34.1383 83.5447 34.142C83.6925 34.1458 83.8042 34.1515 83.88 34.1591V35.5227C83.8345 35.5114 83.7304 35.4943 83.5675 35.4716C83.4084 35.4451 83.2398 35.4318 83.0618 35.4318C82.6375 35.4318 82.2588 35.5208 81.9254 35.6989C81.5959 35.8731 81.3345 36.1155 81.1413 36.4261C80.9519 36.733 80.8572 37.0833 80.8572 37.4773V43H79.5163ZM89.9027 34.2727V35.4091H85.1982V34.2727H89.9027ZM86.6072 43V33.0682C86.6072 32.5682 86.7247 32.1515 86.9595 31.8182C87.1944 31.4848 87.4993 31.2348 87.8743 31.0682C88.2493 30.9015 88.6451 30.8182 89.0618 30.8182C89.3913 30.8182 89.6603 30.8447 89.8686 30.8977C90.0769 30.9508 90.2322 31 90.3345 31.0455L89.9482 32.2045C89.88 32.1818 89.7853 32.1534 89.6641 32.1193C89.5466 32.0852 89.3913 32.0682 89.1982 32.0682C88.755 32.0682 88.4349 32.1799 88.2379 32.4034C88.0447 32.6269 87.9482 32.9545 87.9482 33.3864V43H86.6072ZM93.1229 31.3636V43H91.782V31.3636H93.1229ZM96.4425 46.2727C96.2152 46.2727 96.0125 46.2538 95.8345 46.2159C95.6565 46.1818 95.5334 46.1477 95.4652 46.1136L95.8061 44.9318C96.1319 45.0152 96.4197 45.0455 96.6697 45.0227C96.9197 45 97.1413 44.8883 97.3345 44.6875C97.5315 44.4905 97.7114 44.1705 97.8743 43.7273L98.1243 43.0455L94.897 34.2727H96.3516L98.7607 41.2273H98.8516L101.261 34.2727H102.715L99.0107 44.2727C98.844 44.7235 98.6375 45.0966 98.3913 45.392C98.1451 45.6913 97.8591 45.9129 97.5334 46.0568C97.2114 46.2008 96.8478 46.2727 96.4425 46.2727Z" fill="#F8FAFF"/>
</svg>
