<svg width="140" height="160" viewBox="0 0 140 160" fill="none" xmlns="http://www.w3.org/2000/svg">
<path d="M0 0H140V160H0V0Z" fill="#8CA0FF"/>
<rect x="12" y="70" width="20" height="20" rx="3" fill="#6B85FF"/>
<rect x="60" y="70" width="20" height="20" rx="3" fill="#6B85FF"/>
<rect x="36" y="70" width="20" height="20" rx="3" fill="#6B85FF"/>
<rect x="84" y="70" width="20" height="20" rx="3" fill="#6B85FF"/>
<rect x="108" y="70" width="20" height="20" rx="3" fill="#6B85FF"/>
<rect x="27" y="19" width="85" height="7" rx="3.5" fill="#F3F5FF"/>
<rect x="13" y="31" width="105" height="7" rx="3.5" fill="#F3F5FF"/>
<rect x="13" y="41" width="37" height="7" rx="3.5" fill="#F3F5FF"/>
<rect x="14.0957" y="128.213" width="20" height="20" rx="3" transform="rotate(-20.8449 14.0957 128.213)" fill="#F3F5FF"/>
<path d="M28.2599 139.062C27.8077 139.234 27.3649 139.305 26.9314 139.275C26.4968 139.242 26.1091 139.104 25.7684 138.861C25.4266 138.616 25.1672 138.26 24.9903 137.796C24.8346 137.387 24.789 137.025 24.8533 136.709C24.9165 136.391 25.0551 136.108 25.2692 135.86C25.4832 135.611 25.7393 135.39 26.0374 135.195C26.3374 134.995 26.6449 134.811 26.9598 134.641C27.3722 134.42 27.7079 134.245 27.9667 134.114C28.2275 133.98 28.4063 133.853 28.5031 133.735C28.6029 133.615 28.6193 133.467 28.552 133.29L28.5379 133.253C28.3633 132.795 28.1023 132.486 27.7547 132.328C27.4102 132.168 26.9855 132.184 26.4806 132.377C25.9571 132.576 25.5903 132.847 25.3802 133.189C25.1702 133.532 25.0543 133.856 25.0325 134.162L23.8503 134.187C23.871 133.682 23.9902 133.25 24.208 132.891C24.4277 132.527 24.7035 132.227 25.0355 131.991C25.3695 131.75 25.7161 131.561 26.0754 131.424C26.3046 131.337 26.5785 131.265 26.8971 131.207C27.2176 131.146 27.5491 131.145 27.8916 131.206C28.2371 131.266 28.5671 131.43 28.8815 131.697C29.1959 131.963 29.461 132.38 29.6768 132.947L31.4672 137.649L30.3707 138.067L30.0027 137.1L29.9469 137.121C29.9316 137.305 29.8708 137.517 29.7645 137.76C29.6583 138.003 29.4847 138.241 29.2439 138.474C29.003 138.708 28.675 138.904 28.2599 139.062ZM28.0522 138.013C28.4858 137.848 28.8189 137.624 29.0514 137.34C29.2869 137.055 29.4293 136.749 29.4785 136.422C29.5308 136.094 29.5003 135.781 29.3871 135.483L29.0049 134.48C28.9797 134.553 28.8969 134.643 28.7567 134.75C28.6183 134.852 28.4534 134.959 28.2619 135.071C28.0724 135.179 27.8863 135.282 27.7037 135.379C27.523 135.473 27.3768 135.55 27.265 135.61C26.9942 135.756 26.7508 135.918 26.5348 136.096C26.3208 136.27 26.1691 136.467 26.0799 136.689C25.9925 136.907 26.0019 137.155 26.1081 137.434C26.2531 137.815 26.5037 138.049 26.8599 138.137C27.218 138.221 27.6154 138.179 28.0522 138.013Z" fill="#6B85FF"/>
<rect x="43" y="110" width="20" height="20" rx="3" fill="#F3F5FF"/>
<path d="M49.8853 125V114.818H51.0586V118.577H51.158C51.2442 118.444 51.3635 118.275 51.516 118.07C51.6718 117.861 51.8938 117.675 52.1822 117.513C52.4738 117.347 52.8683 117.264 53.3654 117.264C54.0084 117.264 54.5752 117.425 55.0657 117.746C55.5562 118.068 55.939 118.524 56.2141 119.114C56.4892 119.704 56.6268 120.4 56.6268 121.202C56.6268 122.01 56.4892 122.711 56.2141 123.305C55.939 123.895 55.5579 124.352 55.0707 124.677C54.5835 124.998 54.0217 125.159 53.3853 125.159C52.8948 125.159 52.502 125.078 52.207 124.915C51.9121 124.75 51.685 124.562 51.5259 124.354C51.3668 124.142 51.2442 123.966 51.158 123.827H51.0188V125H49.8853ZM51.0387 121.182C51.0387 121.759 51.1232 122.267 51.2923 122.708C51.4613 123.146 51.7082 123.489 52.033 123.737C52.3578 123.982 52.7556 124.105 53.2262 124.105C53.7167 124.105 54.1261 123.976 54.4542 123.717C54.7856 123.455 55.0342 123.104 55.1999 122.663C55.369 122.219 55.4535 121.725 55.4535 121.182C55.4535 120.645 55.3706 120.161 55.2049 119.73C55.0425 119.296 54.7956 118.953 54.4641 118.701C54.136 118.446 53.7234 118.318 53.2262 118.318C52.7489 118.318 52.3479 118.439 52.0231 118.681C51.6983 118.92 51.453 119.254 51.2873 119.685C51.1216 120.113 51.0387 120.612 51.0387 121.182Z" fill="#6B85FF"/>
<rect x="67.4688" y="128" width="20" height="20" rx="3" transform="rotate(9.98587 67.4688 128)" fill="#F3F5FF"/>
<path d="M74.9505 144.71C74.2455 144.585 73.6676 144.312 73.2171 143.889C72.7665 143.467 72.4555 142.939 72.2842 142.307C72.1129 141.674 72.0933 140.983 72.2255 140.232C72.36 139.468 72.619 138.819 73.0026 138.284C73.3901 137.746 73.8658 137.357 74.4298 137.116C74.9976 136.873 75.621 136.811 76.3 136.931C76.8288 137.024 77.2881 137.206 77.678 137.476C78.0678 137.747 78.3672 138.082 78.576 138.483C78.7849 138.883 78.8806 139.324 78.8631 139.805L77.7076 139.602C77.6798 139.244 77.5374 138.905 77.2804 138.588C77.0272 138.267 76.646 138.062 76.1368 137.972C75.6863 137.893 75.2707 137.941 74.8898 138.116C74.5128 138.289 74.1923 138.571 73.9282 138.962C73.668 139.35 73.4879 139.828 73.3879 140.396C73.2856 140.977 73.2879 141.499 73.3949 141.962C73.5051 142.426 73.7073 142.806 74.0015 143.104C74.2991 143.402 74.6763 143.591 75.1333 143.672C75.4336 143.724 75.7154 143.72 75.9786 143.659C76.2418 143.598 76.4755 143.484 76.6797 143.318C76.8839 143.152 77.0461 142.938 77.1662 142.677L78.3217 142.88C78.1782 143.313 77.9463 143.684 77.6258 143.994C77.3091 144.302 76.9218 144.523 76.4639 144.658C76.0099 144.79 75.5055 144.807 74.9505 144.71Z" fill="#6B85FF"/>
<rect x="113.85" y="123" width="20" height="20" rx="3" transform="rotate(26.265 113.85 123)" fill="#F3F5FF"/>
<path d="M115.759 140.847C115.188 140.565 114.756 140.172 114.461 139.668C114.168 139.161 114.028 138.583 114.043 137.932C114.059 137.278 114.245 136.589 114.603 135.863C114.958 135.144 115.39 134.581 115.897 134.173C116.405 133.766 116.95 133.527 117.532 133.456C118.114 133.384 118.694 133.491 119.27 133.776C119.716 133.996 120.032 134.244 120.217 134.52C120.407 134.795 120.524 135.059 120.568 135.314C120.617 135.567 120.651 135.772 120.669 135.929L120.758 135.973L122.422 132.603L123.474 133.122L118.968 142.253L117.952 141.751L118.471 140.699L118.346 140.637C118.207 140.724 118.019 140.827 117.783 140.947C117.548 141.064 117.261 141.131 116.923 141.15C116.587 141.165 116.199 141.064 115.759 140.847ZM116.368 139.972C116.79 140.18 117.201 140.246 117.601 140.17C118.002 140.091 118.375 139.892 118.721 139.575C119.067 139.254 119.368 138.835 119.623 138.318C119.876 137.807 120.022 137.323 120.063 136.866C120.105 136.407 120.033 135.998 119.847 135.64C119.663 135.279 119.357 134.994 118.929 134.782C118.483 134.562 118.055 134.493 117.645 134.576C117.239 134.656 116.866 134.855 116.525 135.171C116.189 135.485 115.902 135.883 115.664 136.365C115.424 136.852 115.28 137.332 115.232 137.803C115.188 138.273 115.256 138.698 115.434 139.078C115.617 139.457 115.928 139.755 116.368 139.972Z" fill="#6B85FF"/>
<rect x="81.6152" y="110.173" width="20" height="20" rx="3" transform="rotate(-16.1336 81.6152 110.173)" fill="#F3F5FF"/>
<path d="M95.6272 121.9C94.9204 122.104 94.2655 122.125 93.6627 121.961C93.0621 121.793 92.5418 121.468 92.1018 120.984C91.664 120.497 91.3365 119.877 91.1191 119.126C90.9018 118.374 90.8471 117.673 90.9551 117.02C91.0654 116.364 91.3208 115.803 91.7213 115.339C92.124 114.871 92.6565 114.541 93.3188 114.349C93.7008 114.239 94.0965 114.193 94.5059 114.213C94.9152 114.232 95.3142 114.341 95.7027 114.539C96.0903 114.734 96.4426 115.04 96.7595 115.455C97.0763 115.871 97.3338 116.421 97.5318 117.105L97.6699 117.583L92.0154 119.218L91.7336 118.244L96.2419 116.94C96.1222 116.526 95.9326 116.181 95.6731 115.904C95.4167 115.626 95.1102 115.437 94.7534 115.337C94.3998 115.235 94.0192 115.244 93.6116 115.362C93.1627 115.491 92.8065 115.715 92.543 116.033C92.2818 116.347 92.1148 116.705 92.0419 117.11C91.969 117.514 91.9911 117.918 92.108 118.322L92.2959 118.972C92.4562 119.526 92.6875 119.968 92.99 120.298C93.2948 120.624 93.6481 120.837 94.0499 120.938C94.4509 121.036 94.879 121.019 95.3343 120.887C95.6304 120.802 95.8859 120.683 96.1007 120.531C96.3178 120.375 96.4895 120.188 96.6158 119.968C96.7412 119.746 96.8148 119.493 96.8367 119.211L98.014 119.201C98.0062 119.604 97.9075 119.984 97.7179 120.343C97.5274 120.698 97.2557 121.011 96.9029 121.283C96.5491 121.55 96.1239 121.756 95.6272 121.9Z" fill="#6B85FF"/>
</svg>
