<svg width="18" height="19" viewBox="0 0 18 19" fill="none" xmlns="http://www.w3.org/2000/svg">
    <g clip-path="url(#clip0_1689_6425)">
        <rect y="0.453125" width="18" height="18" rx="4" fill="#5C77F2"/>
        <path fill-rule="evenodd" clip-rule="evenodd" d="M8.94058 13.9845C6.40134 13.9845 4.35205 11.9352 4.35205 9.39594C4.35205 6.8567 6.40134 4.80741 8.94058 4.80741C11.4798 4.80741 13.5291 6.8567 13.5291 9.39594C13.5291 11.9352 11.4798 13.9845 8.94058 13.9845ZM5.95837 9.39594C5.95837 7.75383 7.29846 6.41373 8.94058 6.41373C10.5827 6.41373 11.9228 7.75383 11.9228 9.39594C11.9228 11.0381 10.5827 12.3782 8.94058 12.3782C7.29846 12.3782 5.95837 11.0381 5.95837 9.39594Z" fill="white"/>
        <path d="M13.717 5.69111C13.1242 5.69111 12.6454 5.21235 12.6454 4.61949C12.6454 4.02662 13.1242 3.54786 13.717 3.54786C14.3099 3.54786 14.7887 4.02662 14.7887 4.61949C14.7888 4.76026 14.7612 4.89969 14.7074 5.02979C14.6537 5.15988 14.5747 5.27809 14.4752 5.37764C14.3756 5.47718 14.2574 5.55611 14.1273 5.6099C13.9972 5.66369 13.8578 5.69129 13.717 5.69111Z" fill="white"/>
    </g>
    <defs>
        <clipPath id="clip0_1689_6425">
            <rect y="0.453125" width="18" height="18" rx="4" fill="white"/>
        </clipPath>
    </defs>
</svg>
