<svg width="18" height="18" viewBox="0 0 18 18" fill="none" xmlns="http://www.w3.org/2000/svg">
<g clip-path="url(#clip0_7663_9982)">
<rect width="18" height="18" rx="4" fill="#6B85FF"/>
<path fill-rule="evenodd" clip-rule="evenodd" d="M7.58595 6.80951H9.62865V7.82701C9.9229 7.24181 10.6775 6.71601 11.8111 6.71601C13.9841 6.71601 14.5 7.88091 14.5 10.0182V13.9766H12.3V10.505C12.3 9.28781 12.0058 8.60141 11.2567 8.60141C10.2177 8.60141 9.78595 9.34116 9.78595 10.5044V13.9766H7.58595V6.80951ZM3.8135 13.8831H6.0135V6.71601H3.8135V13.8831ZM6.32865 4.37906C6.32873 4.56346 6.29216 4.74604 6.22106 4.91619C6.14997 5.08633 6.04576 5.24064 5.9145 5.37016C5.64852 5.63451 5.2885 5.78247 4.9135 5.78156C4.53916 5.78131 4.17997 5.63372 3.9136 5.37071C3.78282 5.24075 3.67896 5.08627 3.60799 4.9161C3.53702 4.74593 3.50032 4.56344 3.5 4.37906C3.5 4.00671 3.6485 3.65031 3.91415 3.38741C4.18029 3.12405 4.53963 2.9764 4.91405 2.97656C5.28915 2.97656 5.64885 3.12451 5.9145 3.38741C6.1796 3.65031 6.32865 4.00671 6.32865 4.37906Z" fill="white"/>
</g>
<defs>
<clipPath id="clip0_7663_9982">
<rect width="18" height="18" rx="4" fill="white"/>
</clipPath>
</defs>
</svg>
