<svg width="18" height="19" viewBox="0 0 18 19" fill="none" xmlns="http://www.w3.org/2000/svg">
    <g clip-path="url(#clip0_1689_2621)">
        <rect y="0.453125" width="18" height="18" rx="4" fill="#5C77F2"/>
        <path d="M13.5087 7.34231V8.55917C12.9349 8.55938 12.3773 8.44695 11.8515 8.22508C11.5134 8.08235 11.1984 7.89841 10.9103 7.67619L10.919 11.4218C10.9153 12.2652 10.5817 13.0577 9.97777 13.6546C9.48628 14.1404 8.86349 14.4494 8.18849 14.5494C8.02986 14.5729 7.86846 14.585 7.70523 14.585C6.98266 14.585 6.29662 14.3508 5.73546 13.919C5.62985 13.8377 5.52888 13.7495 5.4327 13.6546C4.77819 13.0077 4.44069 12.1309 4.4975 11.2086C4.54089 10.5065 4.82196 9.83689 5.29056 9.31208C5.91054 8.6176 6.77788 8.23211 7.70523 8.23211C7.86846 8.23211 8.02986 8.24435 8.18849 8.26787V8.7178V9.96939C8.03813 9.91979 7.8775 9.89251 7.71026 9.89251C6.86299 9.89251 6.17755 10.5838 6.19021 11.4316C6.19822 11.9741 6.49459 12.4483 6.93165 12.7097C7.13704 12.8326 7.37336 12.9087 7.62553 12.9225C7.82311 12.9333 8.01281 12.9059 8.18849 12.8478C8.79381 12.6479 9.23048 12.0793 9.23048 11.4087L9.23249 8.90047V4.3213H10.9083C10.9099 4.48734 10.9268 4.64937 10.9581 4.80635C11.0846 5.4418 11.4428 5.99312 11.9413 6.36897C12.3759 6.69684 12.9172 6.89118 13.5039 6.89118L13.5087 6.8908L13.5087 7.34231Z" fill="white"/>
    </g>
    <defs>
        <clipPath id="clip0_1689_2621">
            <rect y="0.453125" width="18" height="18" rx="4" fill="white"/>
        </clipPath>
    </defs>
</svg>
