<svg width="21" height="16" viewBox="0 0 21 16" fill="none" xmlns="http://www.w3.org/2000/svg">
    <path d="M20.1425 3.10381C20.0279 2.67714 19.8033 2.28804 19.4911 1.97545C19.1789 1.66287 18.7901 1.43776 18.3636 1.32266C16.7936 0.900391 10.5 0.900391 10.5 0.900391C10.5 0.900391 4.20645 0.900391 2.63643 1.32041C2.20971 1.43514 1.8207 1.66012 1.50845 1.97277C1.1962 2.28541 0.971709 2.67471 0.857519 3.10156C0.4375 4.67383 0.4375 7.95312 0.4375 7.95312C0.4375 7.95312 0.4375 11.2324 0.857519 12.8024C1.08887 13.6694 1.77168 14.3522 2.63643 14.5836C4.20645 15.0059 10.5 15.0059 10.5 15.0059C10.5 15.0059 16.7936 15.0059 18.3636 14.5836C19.2306 14.3522 19.9111 13.6694 20.1425 12.8024C20.5625 11.2324 20.5625 7.95312 20.5625 7.95312C20.5625 7.95312 20.5625 4.67383 20.1425 3.10381ZM8.50098 10.9629V4.94336L13.7119 7.93066L8.50098 10.9629Z" fill="#5C77F2"/>
</svg>
